<svg width="774.89" height="710.45" viewBox="0 0 774.89 710.45" xmlns="http://www.w3.org/2000/svg" xmlns:xlink="http://www.w3.org/1999/xlink" xml:space="preserve" overflow="hidden"><defs></defs><g><linearGradient x1="111.036" y1="415.895" x2="774.89" y2="415.895" gradientUnits="userSpaceOnUse" id="SVGID_1_"><stop offset="0" stop-color="#0BC1C7"/><stop offset="1" stop-color="#324CFC"/></linearGradient><linearGradient x1="0" y1="322.818" x2="589.222" y2="322.818" gradientUnits="userSpaceOnUse" id="SVGID_2_"><stop offset="0" stop-color="#3AA1C7"/><stop offset="1" stop-color="#324CFC"/></linearGradient><linearGradient x1="397.411" y1="684.827" x2="448.655" y2="684.827" gradientUnits="userSpaceOnUse" id="SVGID_3_"><stop offset="0" stop-color="#4BF6FA"/><stop offset="1" stop-color="#324CFC"/></linearGradient><linearGradient x1="7.7921" y1="534.364" x2="59.0358" y2="534.364" gradientUnits="userSpaceOnUse" id="SVGID_4_"><stop offset="0" stop-color="#3AA1C7"/><stop offset="1" stop-color="#324CFC"/></linearGradient><path d="M767.48 314.25 767.05 313.82C757.16 303.93 741.13 303.94 731.25 313.82L727 318.07C717.11 327.96 701.08 327.96 691.2 318.07L690.77 317.64C680.88 307.75 664.85 307.76 654.97 317.64L616.64 355.97C606.63 365.98 590.41 365.98 580.41 355.97L580.41 355.97C570.4 345.96 570.4 329.74 580.41 319.74L637.06 263.09C646.95 253.2 646.95 237.18 637.06 227.29L636.63 226.86C626.74 216.97 610.71 216.97 600.83 226.86L476.14 351.51C466.13 361.52 449.91 361.52 439.91 351.51L439.91 351.51C429.9 341.5 429.9 325.28 439.91 315.28L564.57 190.62C574.46 180.73 574.46 164.71 564.57 154.82L564.14 154.39C554.25 144.5 538.22 144.5 528.34 154.39L242.99 439.72C232.98 449.73 232.98 465.95 242.99 475.95L242.99 475.95C253 485.96 253 502.18 242.99 512.18L118.54 636.63C108.53 646.64 108.53 662.86 118.54 672.86L118.54 672.86C128.55 682.87 144.77 682.87 154.77 672.86L279.22 548.41C289.23 538.4 305.45 538.4 315.45 548.41L315.45 548.41C325.46 558.42 325.46 574.64 315.45 584.64L259.02 641.07C249.01 651.08 249.01 667.3 259.02 677.3L259.02 677.3C269.03 687.31 285.25 687.31 295.25 677.3L333.36 639.19C343.37 629.18 359.59 629.18 369.59 639.19L369.59 639.19C379.6 649.2 395.82 649.2 405.82 639.19L409.64 635.37C419.65 625.36 435.87 625.36 445.87 635.37L445.87 635.37C455.88 645.38 472.1 645.38 482.1 635.37L767.44 350.03C777.36 340.16 777.36 324.13 767.48 314.25Z" fill="url(#SVGID_1_)"/><path d="M294.61 406.22 294.61 406.22C304.39 416 304.39 431.87 294.61 441.65L219.93 516.33C210.15 526.11 210.15 541.98 219.93 551.76L219.93 551.76C229.71 561.54 229.71 577.41 219.93 587.19L204.26 602.86C194.48 612.64 194.48 628.51 204.26 638.29L204.26 638.29C214.04 648.07 229.91 648.07 239.69 638.29L491.53 386.45C501.31 376.67 501.31 360.8 491.53 351.02L491.53 351.02C481.75 341.24 481.75 325.37 491.53 315.59L507.2 299.92C516.98 290.14 516.98 274.27 507.2 264.49L507.2 264.49C497.42 254.71 497.42 238.84 507.2 229.06L581.88 154.38C591.66 144.6 591.66 128.73 581.88 118.95L581.88 118.95C572.1 109.17 556.23 109.17 546.45 118.95L504.54 160.86C494.76 170.64 478.89 170.64 469.11 160.86L469.11 160.86C459.33 151.08 443.46 151.08 433.68 160.86L379.04 215.5C369.26 225.28 353.39 225.28 343.61 215.5L343.61 215.5C333.83 205.72 333.83 189.85 343.61 180.07L365.48 158.2C375.26 148.42 375.26 132.55 365.48 122.77L365.48 122.77C355.7 112.99 355.7 97.12 365.48 87.34L410.05 42.77C419.83 32.99 419.83 17.12 410.05 7.34L410.05 7.34C400.27-2.44 384.4-2.44 374.62 7.34L330.04 51.9C320.26 61.68 304.39 61.68 294.61 51.9L294.61 51.9C284.83 42.12 268.96 42.12 259.18 51.9L7.34 303.75C-2.44 313.53-2.44 329.4 7.34 339.18L7.34 339.18C17.12 348.96 32.99 348.96 42.77 339.18L87.34 294.61C97.12 284.83 112.99 284.83 122.77 294.61L122.77 294.61C132.55 304.39 132.55 320.26 122.77 330.04L78.2 374.61C68.42 384.39 68.42 400.26 78.2 410.04L78.2 410.04C87.98 419.82 87.98 435.69 78.2 445.47L56.33 467.34C46.55 477.12 46.55 492.99 56.33 502.77L56.33 502.77C66.11 512.55 81.98 512.55 91.76 502.77L146.4 448.13C156.18 438.35 172.05 438.35 181.83 448.13L181.83 448.13C191.61 457.91 207.48 457.91 217.26 448.13L259.17 406.22C268.96 396.44 284.83 396.44 294.61 406.22Z" fill="url(#SVGID_2_)"/><circle cx="423.03" cy="684.83" r="25.62" fill="url(#SVGID_3_)"/><circle cx="33.41" cy="534.36" r="25.62" fill="url(#SVGID_4_)"/></g></svg>