<svg width="138.3" height="82.4" viewBox="0 0 138.3 82.4" xmlns="http://www.w3.org/2000/svg" xmlns:xlink="http://www.w3.org/1999/xlink" xml:space="preserve" overflow="hidden"><defs></defs><linearGradient x1="52.599" y1="-0.3255" x2="109.065" y2="153.354" gradientUnits="userSpaceOnUse" id="SVGID_1_"><stop offset="0" stop-color="#FFFFFF"/><stop offset="0.5904" stop-color="#D4EDFC"/><stop offset="0.6425" stop-color="#C6E7FB"/><stop offset="0.7627" stop-color="#A6DBF8"/><stop offset="0.8298" stop-color="#99D7F7"/></linearGradient><path d="M2.07 48.97 5.37 39.6C4.71 38.18 3.96 35.29 7.55 33.43L7.71 32.96C7.71 32.96 8.14 32.92 8.92 32.85 9.29 32.72 9.69 32.6 10.13 32.49 2.12 25.28 13.13 19.14 17.84 19.92 18.28 17.97 19.51 14.61 25.82 12.93 29.32 12 40.09 11.68 42.02 17.59 43.09 19.71 48.17 18.45 47.65 16.81 46.5 14.64 49.72 12.97 51.94 14.37 47.08 11.05 49.41 5.84 52.42 3.98 53.87 3.08 59.67 0.58 64.99 3.8 67.13-0.77 76.57-1.51 81.28 3.14 83.21 5.05 83.21 8.76 81.43 10.61 85.78 8.29 90.98 10.29 92.21 12.67 93.88 15.91 97.35 12.48 100.95 13.24 104.45 13.98 105.58 16.29 105.32 17.81 111.88 15.57 115.13 17.93 116.63 22.01 118.57 16.39 127.31 17.24 129.12 21.05L129.12 28.4C133.97 28.44 137.89 31.36 137.89 34.96 137.89 37.42 136.06 39.55 133.37 40.68 136.26 41.61 138.29 43.74 138.29 46.23 138.29 49.57 134.64 52.27 130.13 52.27 129.78 52.27 129.44 52.25 129.11 52.22L129.11 52.79C133.17 54.64 135.87 57.95 135.87 61.74 135.87 67.55 129.51 72.26 121.67 72.26 118.88 72.26 116.29 71.65 114.1 70.63 114.37 71.39 114.53 72.19 114.53 73.01 114.53 78.2 108.85 82.41 101.84 82.41 96.32 82.41 91.63 79.79 89.89 76.14 87.95 77.53 85.32 78.38 82.41 78.38 76.46 78.38 71.64 74.81 71.64 70.4 71.64 69.2 72.01 68.06 72.65 67.04 72.58 67.04 72.51 67.05 72.44 67.05 70.3 67.05 68.33 66.49 66.8 65.55 66.7 65.56 66.6 65.56 66.5 65.56 64.88 65.56 63.4 65.1 62.28 64.36 61.8 64.46 61.29 64.51 60.76 64.51 59.81 64.51 58.91 64.34 58.12 64.04 58.13 64.15 58.14 64.25 58.14 64.36 58.14 67.99 54.17 70.92 49.28 70.92 44.39 70.92 40.42 67.98 40.42 64.36 40.42 63.74 40.54 63.15 40.76 62.59L40.04 62.5C40.29 63.14 40.43 63.82 40.43 64.51 40.43 68.55 36.01 71.82 30.56 71.82 26.66 71.82 23.3 70.14 21.7 67.71 20.18 68.42 18.39 68.83 16.46 68.83 11.01 68.83 6.59 65.56 6.59 61.52 6.59 61.06 6.66 60.61 6.77 60.17 6.68 60.13 6.59 60.1 6.49 60.06-4.8 55.51 2.07 48.97 2.07 48.97Z" fill="url(#SVGID_1_)"/></svg>