<svg width="87.09" height="106.21" viewBox="0 0 87.09 106.21" xmlns="http://www.w3.org/2000/svg" xmlns:xlink="http://www.w3.org/1999/xlink" xml:space="preserve" overflow="hidden"><defs></defs><g><path d="M22.41 106.2C21.98 106.29 21.56 106.02 21.47 105.59L2.15 14.55C2.11 14.34 2.15 14.13 2.26 13.95 2.38 13.77 2.56 13.65 2.76 13.61L66.82 0.02C67.03-0.02 67.24 0.02 67.42 0.13 67.6 0.24 67.72 0.42 67.76 0.63L87.07 91.66C87.16 92.09 86.89 92.52 86.46 92.6L22.41 106.2Z" fill="#74B65C"/><path d="M44.79 5.38 3.79 14.08C3.58 14.12 3.4 14.25 3.29 14.43 3.17 14.61 3.14 14.82 3.18 15.03L21.59 101.83C21.86 101.89 22.14 101.96 22.4 102.06L4.04 15.54C4 15.33 4.04 15.12 4.15 14.94 4.27 14.76 4.45 14.64 4.65 14.59L44.44 6.15C44.56 5.9 44.68 5.64 44.79 5.38Z" fill="#FFFFFF" fill-opacity="0.2"/><g><g><path d="M9.36 20.76C9.55 21.64 8.98 22.51 8.11 22.69 7.23 22.88 6.37 22.31 6.18 21.43 5.99 20.55 6.56 19.68 7.44 19.5 8.31 19.31 9.17 19.88 9.36 20.76Z" fill="#3E8026"/><line x1="1" y1="22.53" x2="7.1" y2="21.24" stroke="#FBB03B" stroke-width="2" stroke-linecap="round" stroke-miterlimit="10" fill="none"/></g><g><path d="M10.98 28.38C11.17 29.26 10.61 30.13 9.73 30.31 8.85 30.5 7.98 29.93 7.8 29.05 7.62 28.17 8.18 27.31 9.06 27.12 9.93 26.94 10.79 27.5 10.98 28.38Z" fill="#3E8026"/><line x1="2.62" y1="30.15" x2="8.71" y2="28.86" stroke="#FBB03B" stroke-width="2" stroke-linecap="round" stroke-miterlimit="10" fill="none"/></g><g><path d="M12.6 36C12.79 36.88 12.22 37.74 11.35 37.93 10.47 38.12 9.6 37.55 9.42 36.67 9.24 35.79 9.8 34.93 10.68 34.74 11.54 34.56 12.41 35.12 12.6 36Z" fill="#3E8026"/><line x1="4.23" y1="37.78" x2="10.33" y2="36.48" stroke="#FBB03B" stroke-width="2" stroke-linecap="round" stroke-miterlimit="10" fill="none"/></g><g><path d="M14.21 43.63C14.4 44.51 13.83 45.37 12.95 45.56 12.07 45.75 11.2 45.18 11.02 44.3 10.83 43.42 11.4 42.56 12.27 42.37 13.16 42.18 14.03 42.74 14.21 43.63Z" fill="#3E8026"/><line x1="5.85" y1="45.4" x2="11.95" y2="44.11" stroke="#FBB03B" stroke-width="2" stroke-linecap="round" stroke-miterlimit="10" fill="none"/></g><g><path d="M15.83 51.25C16.02 52.13 15.46 53 14.58 53.18 13.7 53.37 12.84 52.8 12.65 51.92 12.46 51.04 13.03 50.18 13.9 49.99 14.78 49.8 15.65 50.37 15.83 51.25Z" fill="#3E8026"/><line x1="7.47" y1="53.02" x2="13.57" y2="51.73" stroke="#FBB03B" stroke-width="2" stroke-linecap="round" stroke-miterlimit="10" fill="none"/></g><g><path d="M17.45 58.87C17.64 59.75 17.08 60.62 16.19 60.81 15.31 61 14.45 60.43 14.26 59.55 14.07 58.67 14.63 57.8 15.51 57.62 16.4 57.43 17.26 57.99 17.45 58.87Z" fill="#3E8026"/><line x1="9.09" y1="60.65" x2="15.19" y2="59.35" stroke="#FBB03B" stroke-width="2" stroke-linecap="round" stroke-miterlimit="10" fill="none"/></g><g><path d="M19.07 66.49C19.26 67.37 18.69 68.24 17.81 68.43 16.93 68.62 16.06 68.05 15.88 67.17 15.69 66.29 16.25 65.42 17.14 65.24 18.01 65.05 18.88 65.61 19.07 66.49Z" fill="#3E8026"/><line x1="10.7" y1="68.27" x2="16.8" y2="66.97" stroke="#FBB03B" stroke-width="2" stroke-linecap="round" stroke-miterlimit="10" fill="none"/></g><g><path d="M20.68 74.12C20.87 75 20.3 75.87 19.42 76.05 18.54 76.24 17.67 75.67 17.49 74.79 17.3 73.91 17.86 73.04 18.74 72.86 19.63 72.67 20.5 73.24 20.68 74.12Z" fill="#3E8026"/><line x1="12.32" y1="75.89" x2="18.42" y2="74.6" stroke="#FBB03B" stroke-width="2" stroke-linecap="round" stroke-miterlimit="10" fill="none"/></g><g><path d="M22.3 81.74C22.49 82.62 21.92 83.48 21.05 83.67 20.17 83.86 19.3 83.3 19.12 82.41 18.93 81.53 19.49 80.67 20.37 80.48 21.25 80.3 22.12 80.86 22.3 81.74Z" fill="#3E8026"/><line x1="13.94" y1="83.51" x2="20.04" y2="82.22" stroke="#FBB03B" stroke-width="2" stroke-linecap="round" stroke-miterlimit="10" fill="none"/></g><g><path d="M23.92 89.36C24.11 90.24 23.54 91.1 22.66 91.29 21.78 91.48 20.91 90.91 20.73 90.04 20.54 89.16 21.1 88.29 21.99 88.11 22.87 87.92 23.73 88.48 23.92 89.36Z" fill="#3E8026"/><line x1="15.56" y1="91.13" x2="21.65" y2="89.84" stroke="#FBB03B" stroke-width="2" stroke-linecap="round" stroke-miterlimit="10" fill="none"/></g><g><path d="M25.54 96.98C25.72 97.86 25.16 98.73 24.28 98.91 23.4 99.1 22.53 98.54 22.35 97.66 22.16 96.78 22.73 95.91 23.6 95.73 24.48 95.54 25.35 96.1 25.54 96.98Z" fill="#3E8026"/><line x1="17.17" y1="98.76" x2="23.27" y2="97.46" stroke="#FBB03B" stroke-width="2" stroke-linecap="round" stroke-miterlimit="10" fill="none"/></g></g><rect x="44.45" y="66.91" width="31.76" height="21.84" fill="#FFF2F4" transform="matrix(0.9786 -0.2056 0.2056 0.9786 -14.7103 14.0623)"/><line x1="48.08" y1="77.7" x2="71.49" y2="72.78" stroke="#FF8738" stroke-linecap="round" stroke-miterlimit="10" fill="none"/><line x1="49.27" y1="83.41" x2="72.68" y2="78.49" stroke="#FF8738" stroke-linecap="round" stroke-miterlimit="10" fill="none"/></g></svg>