<svg width="93.07" height="87.01" viewBox="0 0 93.07 87.01" xmlns="http://www.w3.org/2000/svg" xmlns:xlink="http://www.w3.org/1999/xlink" xml:space="preserve" overflow="hidden"><defs></defs><g><g><path d="M92.3 33.06C93.53 34.61 93.27 36.86 91.72 38.09L30.9 86.24C29.35 87.47 27.1 87.21 25.87 85.66L2.18 55.73C0.95 54.18 1.21 51.93 2.76 50.7L63.58 2.55C65.13 1.32 67.38 1.58 68.61 3.13L92.3 33.06Z" fill="#212024"/><path d="M90.9 31.28C92.13 32.83 91.87 35.08 90.32 36.31L29.5 84.46C27.95 85.69 25.7 85.43 24.47 83.88L0.77 53.95C-0.46 52.4-0.2 50.15 1.35 48.92L62.17 0.77C63.72-0.46 65.97-0.19 67.2 1.35L90.9 31.28Z" fill="#312E33"/><path d="M43.94 17.41C44.68 16.82 45.19 15.32 43.87 16.36L1.89 49.6C0.72 50.53 0.52 52.24 1.45 53.42L16.33 72.22C17.52 73.73 17.46 72.26 16.53 71.08L2.12 52.88C1.49 52.08 1.62 50.91 2.42 50.27L43.94 17.41Z" fill="#FFFFFF" fill-opacity="0.2"/><path d="M23.4 47.65C26.1 51.06 25.52 56.01 22.11 58.71 18.7 61.41 13.75 60.83 11.05 57.42 8.35 54.01 8.93 49.06 12.33 46.36 15.74 43.67 20.7 44.25 23.4 47.65ZM27.28 34.54C23.87 37.24 23.29 42.19 25.99 45.6 28.69 49.01 33.64 49.58 37.05 46.89 40.46 44.19 41.04 39.24 38.34 35.83 35.64 32.41 30.69 31.84 27.28 34.54ZM42.23 22.7C38.82 25.4 38.24 30.35 40.94 33.76 43.64 37.17 48.59 37.75 52 35.04 55.41 32.34 55.99 27.39 53.29 23.98 50.59 20.58 45.63 20.01 42.23 22.7ZM57.17 10.87C53.76 13.57 53.19 18.52 55.89 21.93 58.59 25.34 63.54 25.91 66.95 23.22 70.36 20.52 70.93 15.57 68.24 12.16 65.53 8.75 60.58 8.17 57.17 10.87ZM26.24 63.93C22.83 66.63 22.25 71.58 24.95 74.99 27.65 78.4 32.6 78.97 36.01 76.28 39.42 73.58 40 68.63 37.3 65.22 34.6 61.81 29.65 61.23 26.24 63.93ZM41.19 52.1C37.78 54.8 37.2 59.75 39.91 63.16 42.61 66.57 47.56 67.14 50.97 64.44 54.38 61.74 54.95 56.79 52.25 53.38 49.55 49.98 44.6 49.4 41.19 52.1ZM56.13 40.27C52.72 42.97 52.14 47.92 54.84 51.33 57.54 54.74 62.49 55.31 65.9 52.62 69.31 49.92 69.88 44.97 67.19 41.56 64.49 38.15 59.54 37.57 56.13 40.27ZM71.08 28.43C67.67 31.13 67.1 36.08 69.79 39.49 72.49 42.9 77.44 43.47 80.85 40.77 84.26 38.07 84.83 33.12 82.14 29.71 79.44 26.31 74.49 25.74 71.08 28.43Z" fill="#212024"/><g><path d="M22.64 46.7C25.34 50.11 24.76 55.06 21.35 57.76 17.94 60.46 12.99 59.89 10.29 56.48 7.59 53.07 8.17 48.12 11.58 45.42 14.99 42.71 19.94 43.29 22.64 46.7Z" fill="#FDD327"/><path d="M37.58 34.87C40.28 38.28 39.7 43.23 36.29 45.93 32.88 48.63 27.93 48.05 25.23 44.64 22.53 41.23 23.11 36.28 26.52 33.58 29.93 30.88 34.88 31.46 37.58 34.87Z" fill="#E34A44"/><path d="M52.53 23.03C55.23 26.44 54.65 31.39 51.24 34.09 47.83 36.79 42.88 36.22 40.18 32.81 37.48 29.4 38.05 24.45 41.47 21.75 44.87 19.05 49.83 19.62 52.53 23.03Z" fill="#6B378A"/><path d="M67.47 11.2C70.17 14.61 69.59 19.56 66.18 22.26 62.77 24.96 57.82 24.38 55.12 20.97 52.42 17.56 53 12.61 56.41 9.91 59.82 7.22 64.77 7.79 67.47 11.2Z" fill="#0178BC"/><path d="M36.54 64.26C39.24 67.67 38.67 72.62 35.26 75.32 31.85 78.02 26.9 77.45 24.2 74.03 21.5 70.62 22.07 65.67 25.49 62.97 28.89 60.28 33.84 60.85 36.54 64.26Z" fill="#00897F"/><path d="M51.49 52.43C54.19 55.84 53.62 60.79 50.21 63.49 46.8 66.19 41.85 65.62 39.15 62.21 36.45 58.8 37.03 53.85 40.44 51.15 43.84 48.44 48.79 49.02 51.49 52.43Z" fill="#74B65C"/><path d="M66.43 40.6C69.13 44.01 68.56 48.96 65.15 51.66 61.74 54.36 56.79 53.79 54.09 50.37 51.39 46.96 51.97 42.01 55.38 39.31 58.78 36.61 63.73 37.19 66.43 40.6Z" fill="#C05B3D"/><path d="M81.38 28.76C84.08 32.17 83.51 37.12 80.09 39.82 76.68 42.52 71.73 41.94 69.03 38.54 66.33 35.13 66.91 30.18 70.32 27.48 73.73 24.78 78.68 25.35 81.38 28.76Z" fill="#FFF2F4"/></g><line x1="18.31" y1="65.45" x2="74.37" y2="21.06" stroke="#212024" stroke-width="2" stroke-linecap="round" stroke-miterlimit="10" fill="none"/><line x1="17.8" y1="64.82" x2="73.87" y2="20.42" stroke="#847B87" stroke-width="2" stroke-linecap="round" stroke-miterlimit="10" fill="none"/></g><path d="M11.86 54.82C15.13 56.63 13.76 47.48 12.19 47.81 10.63 48.14 8.32 52.85 11.86 54.82Z" fill="#FFFFFF" fill-opacity="0.5"/><path d="M27.23 42.64C30.5 44.45 29.13 35.3 27.56 35.63 25.99 35.95 23.68 40.67 27.23 42.64Z" fill="#FFFFFF" fill-opacity="0.5"/><path d="M41.82 31.07C45.09 32.89 43.72 23.73 42.15 24.06 40.58 24.39 38.27 29.1 41.82 31.07Z" fill="#FFFFFF" fill-opacity="0.2"/><path d="M57.24 18.84C60.51 20.65 59.14 11.5 57.57 11.83 56 12.16 53.7 16.88 57.24 18.84Z" fill="#FFFFFF" fill-opacity="0.5"/><path d="M25.63 72.18C28.9 74 27.53 64.84 25.96 65.17 24.39 65.5 22.08 70.21 25.63 72.18Z" fill="#FFFFFF" fill-opacity="0.5"/><path d="M40.99 60C44.26 61.81 42.89 52.66 41.32 52.99 39.75 53.32 37.44 58.03 40.99 60Z" fill="#FFFFFF" fill-opacity="0.5"/><path d="M55.58 48.43C58.85 50.24 57.48 41.09 55.91 41.42 54.34 41.75 52.04 46.47 55.58 48.43Z" fill="#FFFFFF" fill-opacity="0.4"/><path d="M71.01 36.21C74.28 38.02 72.91 28.87 71.34 29.2 69.77 29.52 67.46 34.24 71.01 36.21Z" fill="#FFFFFF" fill-opacity="0.5"/></g></svg>