<svg width="111.06" height="106.55" viewBox="0 0 111.06 106.55" xmlns="http://www.w3.org/2000/svg" xmlns:xlink="http://www.w3.org/1999/xlink" xml:space="preserve" overflow="hidden"><defs></defs><g><g><path d="M31.95 19C31.95 19 26.61 10.07 21.25 14.75 15.9 19.43 8.12 29.88 11.92 34.27 15.73 38.65 15.73 38.65 15.73 38.65L17.57 35.91 13.96 32.9C13.96 32.9 12.07 31.76 13.56 28.52 15.04 25.28 22.06 16.2 24.37 16.51 26.68 16.82 28.4 20.92 28.4 20.92L31.95 19Z" fill="#00599F"/><path d="M15.78 39.48 11.55 34.61C9.71 32.49 10.12 28.96 12.72 24.39 14.68 20.96 17.9 17.04 20.92 14.39 22.28 13.2 23.76 12.72 25.33 12.97 29.24 13.59 32.25 18.55 32.38 18.76L32.65 19.21 28.15 21.64 27.94 21.13C27.49 20.06 25.97 17.24 24.31 17.02 24.29 17.02 24.26 17.02 24.23 17.02 22.32 17.02 15.59 25.31 14.02 28.75 12.76 31.51 14.17 32.46 14.23 32.49L18.24 35.83 15.78 39.48ZM24.55 13.9C23.52 13.9 22.52 14.31 21.58 15.13 16.35 19.7 8.78 29.9 12.3 33.95L15.68 37.84 16.91 36.01 13.65 33.29C13.62 33.28 11.46 31.93 13.11 28.32 14.44 25.4 21.65 15.65 24.44 16.02 26.51 16.3 28.07 19.07 28.63 20.23L31.24 18.82C30.43 17.63 28 14.39 25.18 13.95 24.96 13.92 24.75 13.9 24.55 13.9Z" fill="#003264"/></g><path d="M24.67 13.4C24.77 13.49 24.87 13.58 24.96 13.68 25.05 13.78 25.09 13.97 24.94 14.05 20.38 16.51 17.02 20.09 14.38 24.51 12.83 27.1 10.74 31.17 13.33 33.78 13.45 33.9 13.43 34.11 13.26 34.17 12.8 34.34 12.33 34.33 11.88 34.21 11.9 34.23 11.91 34.25 11.93 34.27 15.74 38.65 15.74 38.65 15.74 38.65L17.58 35.91 13.97 32.9C13.97 32.9 12.08 31.76 13.57 28.52 15.05 25.28 22.07 16.2 24.38 16.51 26.69 16.82 28.41 20.92 28.41 20.92L31.95 19C31.95 19 28.67 13.52 24.67 13.4Z" fill="#00599F" opacity="0.5"/><g><g><g><g><g><g><path d="M13.42 42.25C11.69 40.98 9.95 39.82 8.08 38.83 7.03 38.03 5.94 37.28 4.73 36.89 3.16 36.38 2.11 38.66 1.4 39.67 0.74 40.6-0.49 42.86 0.2 44.05 2.07 47.23 5.77 48.71 8.96 50.18 10.44 50.86 12.28 51.62 13.86 50.8 15.35 50.03 16.41 47.51 16.48 45.9 16.58 44.34 14.47 43.02 13.42 42.25Z" fill="#073B6B"/><path d="M12.72 42.73C11.13 41.54 9.54 40.45 7.83 39.51 6.86 38.76 5.86 38.05 4.77 37.65 3.37 37.14 2.54 39.08 1.96 39.92 1.42 40.7 0.43 42.61 1.1 43.68 2.9 46.54 6.25 48 9.15 49.43 10.49 50.09 12.16 50.85 13.51 50.2 14.8 49.6 15.62 47.45 15.61 46.05 15.61 44.7 13.68 43.46 12.72 42.73Z" fill="#00599F"/><path d="M12.72 42.73C11.13 41.54 9.54 40.45 7.83 39.51 6.86 38.76 5.86 38.05 4.77 37.65 3.43 37.16 2.61 38.89 2.04 39.79 3.1 39.4 4.53 40.7 5.25 41.26 6.75 42.43 8.69 42.92 8.96 45.02 9.15 46.53 9.12 48.06 9.36 49.52 10.66 50.15 12.23 50.8 13.51 50.18 14.8 49.58 15.62 47.43 15.61 46.03 15.61 44.7 13.68 43.46 12.72 42.73Z" fill="#00599F" opacity="0.5"/></g><g><path d="M42.14 15.9C43.72 15.57 46.04 14.14 46.58 12.55 47.15 10.86 46.11 9.16 45.2 7.81 43.26 4.88 41.22 1.46 37.79 0.1 36.5-0.4 34.47 1.17 33.65 1.96 32.77 2.82 30.67 4.21 31.42 5.68 32 6.81 32.9 7.77 33.86 8.69 35.13 10.38 36.54 11.92 38.07 13.43 39 14.34 40.63 16.22 42.14 15.9Z" fill="#073B6B"/><path d="M41.71 14.69C43.09 14.4 45.12 13.15 45.58 11.76 46.08 10.29 45.17 8.8 44.38 7.62 42.69 5.06 40.91 2.08 37.91 0.89 36.79 0.45 35.01 1.82 34.3 2.52 33.52 3.26 31.7 4.48 32.35 5.76 32.86 6.75 33.64 7.58 34.48 8.38 35.59 9.86 36.82 11.21 38.15 12.53 38.96 13.32 40.39 14.96 41.71 14.69Z" fill="#00599F"/><path d="M37.91 0.89C36.92 0.5 35.42 1.52 34.59 2.25 34.87 2.16 35.15 2.1 35.45 2.1 36.9 2.08 38 4.09 38.75 5.05 39.09 5.49 40.59 6.68 39.65 7.24 38.26 8.07 36.78 8.73 35.41 9.56 36.26 10.59 37.18 11.57 38.16 12.54 38.97 13.34 40.4 14.98 41.71 14.7 43.09 14.41 45.12 13.16 45.58 11.77 46.08 10.3 45.17 8.81 44.38 7.63 42.69 5.06 40.91 2.07 37.91 0.89Z" fill="#00599F" opacity="0.5"/></g><path d="M108.06 44.73C106.4 43.31 67.19 9.9 51.51 8.24 36.35 6.64 25.83 18.37 24.59 19.81 24.59 19.81 24.59 19.81 24.59 19.81L19.39 25.89C18.24 27.23 8.26 39.46 12.19 54.2 16.26 69.43 55.34 103 56.95 104.37 57 104.42 61.57 109.35 68.24 104.19 68.26 104.17 68.61 103.91 69.2 103.44 69.31 103.35 69.42 103.28 69.54 103.19 69.59 103.15 71.48 101.64 74.26 99.25 78.84 95.33 85.19 89.57 90.14 83.78 90.59 83.25 91.03 82.72 91.45 82.21 91.9 81.7 92.34 81.19 92.82 80.66 97.77 74.87 102.48 67.71 105.64 62.57 107.58 59.45 108.78 57.35 108.81 57.29 108.88 57.16 108.93 57.05 109 56.92 109.38 56.26 109.58 55.88 109.59 55.86 113.64 48.48 108.07 44.72 108.06 44.73Z" fill="#073B6B"/><path d="M13.23 53.92C9.45 39.74 19.08 27.92 20.28 26.53L20.28 26.53 25.48 20.44C26.59 19.14 36.78 7.77 51.39 9.32 54.21 9.62 57.86 11.02 61.95 13.1 39 6.05 24.09 25.45 18.43 34.81 12 45.43 15.1 56.53 18.06 63 15.65 59.58 13.92 56.47 13.23 53.92Z" fill="#084880"/><path d="M59.89 102.98C59.53 102.68 23.96 72.11 20.78 58.47 17.75 45.48 26.93 34.25 28.07 32.93 28.07 32.93 28.07 32.93 28.07 32.93L33 27.14C34.06 25.9 43.72 15.07 57.05 16.06 71.02 17.09 106.73 47.5 107.14 47.85 107.3 47.95 110.71 50.24 108.64 55.3 108.64 55.31 108.63 55.33 108.62 55.34 108.54 55.49 100.62 69.84 91.97 79.95 91.52 80.48 91.07 80.98 90.6 81.5 82.01 92.15 67.69 103.23 67.56 103.33 67.55 103.34 67.54 103.34 67.53 103.35 62.88 106.17 60.06 103.17 59.89 102.98Z" fill="#00599F"/><path d="M107.14 47.85C106.72 47.5 71.02 17.09 57.05 16.06 43.73 15.08 34.06 25.91 33 27.14L28.05 32.92C26.92 34.25 17.74 45.47 20.76 58.46 23.94 72.11 59.52 102.67 59.87 102.97 60.04 103.16 62.86 106.16 67.53 103.35 67.54 103.34 67.55 103.34 67.56 103.33 67.7 103.23 82.01 92.15 90.6 81.5 91.07 80.98 91.52 80.47 91.97 79.95 100.62 69.84 108.54 55.49 108.62 55.34 108.63 55.33 108.63 55.32 108.64 55.3 110.72 50.24 107.3 47.95 107.14 47.85ZM67.08 34.48C68.68 35.94 71.49 37.95 71.31 40.45 71.2 41.87 70.5 43.17 69.79 44.38 68.84 46 67.78 47.56 66.64 49.06 63.98 52.51 60.98 55.68 57.97 58.82 55.36 61.54 52.89 64.33 50.46 67.2 48.11 69.97 45.71 72.82 42.8 75.01 41.14 76.25 39.46 77.32 37.62 77.04 34.87 76.68 32.28 73.17 30.72 71.33 27.06 67.05 22.84 62.44 21.67 56.74 20.96 53.28 21.61 49.93 22.69 46.61 23.93 42.75 25.69 39.06 27.96 35.7 31.28 30.76 35.72 25.34 41.39 23.02 43.69 22.09 46.21 21.64 48.67 22.1 51.76 22.67 54.26 24.29 56.74 26.14 60.27 28.8 63.81 31.48 67.08 34.48Z" fill="#00599F" opacity="0.5"/><path d="M109.96 50.14C109.26 48.06 107.74 47.04 107.73 47.05 106.26 45.79 71.43 16.12 57.13 15.07 43.34 14.05 33.36 25.2 32.19 26.57L32.19 26.57 27.25 32.35C26.16 33.62 16.67 45.22 19.81 58.7 23.07 72.66 57.77 102.48 59.2 103.69 59.22 103.71 60.48 105.08 62.65 105.46 59.66 105.68 57.86 103.76 57.71 103.6 57.41 103.34 34.9 84.02 21.91 68.05L21.98 68.01C21.85 67.84 9.81 50.99 19.28 35.32 36.86 6.25 57.7 11.29 68.56 16.89L68.59 16.83C86.05 27.4 107.08 45.32 107.42 45.6 107.55 45.68 109.71 47.17 109.96 50.14Z" fill="#00599F"/><path d="M69.2 101.12 69.23 101.16 69.52 100.92C70.1 100.45 71.33 99.44 73 97.95 78.62 93.02 84.09 87.47 89.25 81.46L89.69 80.96 90.11 80.45C95.26 74.42 99.89 68.15 103.89 61.84 105.1 59.95 105.9 58.58 106.28 57.94L106.47 57.61 106.42 57.57 106.47 57.59C109.36 51.29 105.32 48.99 105.31 49 105.15 48.88 89.86 37.22 86.11 34.71 82.23 32.13 80.29 34.17 80.05 34.45 80.05 34.45 80.05 34.45 80.05 34.45L42.24 78.65C42.03 78.89 40.29 81.13 43.46 84.57 46.52 87.89 60.4 101.2 60.49 101.27 60.52 101.31 63.41 104.98 69.21 101.14L69.2 101.12Z" fill="#112C4F"/><g><path d="M43.02 79.28 43.02 79.28 80.84 35.07C80.99 34.9 82.4 33.43 85.57 35.54 86.08 35.88 86.82 36.4 87.69 37.03 66.76 71.37 48.24 84.15 45.91 85.68 45.19 84.95 44.6 84.34 44.2 83.91 41.63 81.12 42.84 79.5 43.02 79.28Z" fill="#0078B5"/><path d="M67.32 65.64C55.91 78.98 47.54 84.76 45.97 85.78L45.89 85.83 45.82 85.76C45.04 84.97 44.48 84.39 44.11 83.98 43.01 82.78 42.45 81.65 42.46 80.62 42.46 79.81 42.82 79.32 42.93 79.2L80.74 35C80.9 34.82 82.36 33.27 85.63 35.45 86.16 35.81 86.89 36.32 87.76 36.95L87.85 37.02 87.79 37.12C81.31 47.75 74.42 57.35 67.32 65.64ZM45.92 85.52C47.68 84.36 55.94 78.57 67.14 65.48 74.21 57.22 81.06 47.66 87.53 37.07 86.71 36.48 86.01 35.98 85.5 35.64 82.41 33.58 81.08 34.98 80.93 35.15L43.12 79.35C42.97 79.52 41.77 81.08 44.29 83.82 44.64 84.21 45.18 84.77 45.92 85.52Z" fill="#003B71"/></g><path d="M61.24 100.62C61.12 100.51 51.62 91.41 46.62 86.4 48 85.5 52.45 82.39 58.95 75.98 61.48 73.48 64.5 70.31 67.87 66.37 73.89 59.34 81.02 49.88 88.5 37.62 94.25 41.81 104.61 49.7 104.79 49.83 104.93 49.91 108.08 51.73 105.58 57.18L105.43 57.43C105.05 58.07 104.26 59.42 103.07 61.29 99.1 67.56 94.49 73.79 89.36 79.79L88.94 80.29 88.51 80.79C83.38 86.78 77.94 92.29 72.35 97.19 70.69 98.66 69.48 99.65 68.9 100.12L68.7 100.28 68.67 100.31C63.68 103.64 61.39 100.8 61.24 100.62Z" fill="#00599F"/><path d="M104.78 49.84C104.6 49.71 94.24 41.81 88.49 37.63 81.02 49.89 73.88 59.35 67.86 66.38 64.49 70.32 61.47 73.5 58.94 75.99 52.46 82.39 48 85.5 46.62 86.4 51.62 91.41 61.12 100.51 61.24 100.62 61.39 100.8 63.67 103.63 68.67 100.32L68.7 100.29 68.9 100.13C69.47 99.66 70.69 98.66 72.35 97.2 77.94 92.3 83.38 86.78 88.51 80.8L88.94 80.3 89.36 79.8C94.48 73.8 99.09 67.58 103.07 61.3 104.26 59.43 105.06 58.07 105.43 57.44L105.58 57.19C108.07 51.74 104.92 49.91 104.78 49.84ZM101.66 51.64C101.7 51.72 101.63 51.8 101.56 51.8 99.89 51.98 98.32 51.22 96.74 50.78 97.26 51.79 98.4 52.34 99.35 52.89 100.18 53.37 101.04 53.87 101.63 54.65 101.66 54.69 101.66 54.76 101.62 54.8 99.52 56.96 96.19 56.86 93.57 58.07 96.5 58.24 99.37 56.98 102.3 57.5 102.36 57.51 102.42 57.58 102.4 57.64 101.32 61.06 99.02 63.98 96.81 66.74 94.17 70.03 91.61 73.38 88.86 76.58 86.26 79.61 83.61 82.62 80.93 85.58 78.32 88.47 75.48 91.13 72.5 93.64 71.14 94.78 69.73 95.87 68.41 97.05 67.61 97.77 66.56 98.71 65.38 98.56 64.26 98.42 63.6 97.47 63.13 96.53 62.62 95.51 62.31 94.41 61.91 93.35 61.37 95.41 62.22 97.76 63.05 99.62 63.1 99.72 62.97 99.81 62.88 99.77 60.34 98.54 57.97 96.81 55.93 94.86 54.06 93.08 52.13 90.91 51.6 88.3 51.59 88.23 51.65 88.17 51.71 88.17 53.4 87.99 55.09 88.64 56.71 89.05 56.87 89.09 57.03 89.13 57.19 89.16 56.15 88.61 52.39 84.47 52.46 84.41 54.24 82.8 56.01 81.19 57.76 79.56 63.59 74.13 69.25 68.5 74.36 62.39 76.86 59.4 79.28 56.32 81.5 53.11 82.65 51.45 83.78 49.75 84.76 47.98 85.44 46.75 85.93 45.3 87.04 44.37 87.09 44.33 87.18 44.35 87.21 44.4 88.76 47.05 88.64 50.45 90.41 52.96 90.2 51.03 89.72 49.12 89.46 47.2 89.21 45.43 89 43.45 89.74 41.77 89.76 41.71 89.85 41.68 89.9 41.71 92.3 43.21 94.31 45.22 96.63 46.84 98.49 48.15 100.66 49.5 101.66 51.64Z" fill="#00599F" opacity="0.5"/><path d="M85.57 35.55C82.4 33.44 80.99 34.9 80.84 35.08L45.12 76.83C49.16 72.91 53.18 68.96 56.92 64.75 61.98 59.08 66.51 52.95 71.77 47.45 71.9 47.3 72.11 47.32 72.23 47.47 73.11 48.63 74.72 49.82 74.61 51.45 74.52 52.84 73.81 54.19 73.11 55.37 72.35 56.66 71.51 57.9 70.64 59.12 69.32 60.98 68.22 63.03 66.99 64.95 66.26 66.1 65.51 67.24 64.75 68.39 71.44 60.9 79.36 50.68 87.67 37.05 86.81 36.41 86.08 35.89 85.57 35.55Z" fill="#00599F" opacity="0.5"/><path d="M30.16 66.16C29.49 65.18 28.85 64.18 28.28 63.15 26.67 60.37 25.19 57.27 24.71 54.17 24.12 50.3 24.79 46.21 25.82 42.46 25.88 42.22 25.96 41.99 26.03 41.75 25.09 43.44 24.29 45.16 23.81 47.21 22.97 50.72 23.16 54.16 23.98 57.65 25.64 64.72 32.01 70.49 36.69 75.7 36.7 75.71 36.71 75.71 36.72 75.72 34.82 72.33 32.32 69.36 30.16 66.16Z" fill="#0093CE" opacity="0.5"/><path d="M23.14 30.95C20.09 35.18 17.84 38.92 16.97 44.08 16.27 48.22 16.13 53.9 18.12 57.71 18.15 57.77 18.21 57.71 18.18 57.66 16.66 53.78 17.23 48.36 17.9 44.31 18.72 39.42 20.81 35.35 23.29 31.11 23.36 31.01 23.23 30.8 23.14 30.95Z" fill="#0093CE"/><path d="M52.97 71.47C50.05 74.17 46.39 76.5 43.83 79.52 42.35 81.26 44.83 83.36 46.01 84.36 46.13 84.46 46.17 84.21 46.13 84.13 46.12 84.1 46.09 84.07 46.08 84.04 46.05 83.99 46 84 45.98 84.05 46.37 82.97 43.73 81.88 45.07 80.44 45.78 79.66 46.56 78.94 47.26 78.15 49.19 75.99 51.13 73.83 53.09 71.69 53.18 71.61 53.08 71.36 52.97 71.47Z" fill="#0093CE"/></g></g></g></g><path d="M52.6 88.88C52.59 88.91 52.57 88.93 52.55 88.95 52.51 89 52.57 89.26 52.65 89.2 52.3 89.52 55.79 93.29 56.19 93.7 57.59 95.15 59.43 96.18 61.14 97.23 61.33 97.34 61.25 96.91 61.17 96.83 59.8 95.43 58.11 94.35 56.62 93.09 55.19 91.88 53.74 90.45 52.68 88.9 52.66 88.85 52.62 88.84 52.6 88.88Z" fill="#0093CE"/><path d="M76.57 61.61C74.91 63.53 73.56 65.69 71.87 67.59 70.12 69.56 68.39 71.55 66.53 73.42 64.67 75.29 62.64 76.97 60.7 78.75 59.71 79.65 58.73 80.56 57.72 81.44 56.89 82.16 55.88 83.16 54.9 83.65 54.85 83.67 54.87 83.83 54.93 83.82 55.7 83.67 56.58 82.96 57.22 82.54 58.3 81.83 59.32 81.03 60.31 80.2 62.42 78.43 64.52 76.63 66.51 74.72 68.54 72.77 70.31 70.6 72.17 68.5 73.94 66.5 75.25 64.22 76.75 62.03 76.81 61.93 76.67 61.49 76.57 61.61Z" fill="#0493CD"/></g></g></svg>