<svg width="84.65" height="45.35" viewBox="0 0 84.65 45.35" xmlns="http://www.w3.org/2000/svg" xmlns:xlink="http://www.w3.org/1999/xlink" xml:space="preserve" overflow="hidden"><defs></defs><g><g><g><g><g><path d="M2.64 4.27C0.63 6.71 0.82 9.73 1.54 10.94L34.79 43.04C34.79 43.04 35.81 44.31 38.45 44.25L78.28 38.45C78.28 38.45 79.02 38.32 78.99 37.68 78.95 37.59 78.91 37.5 78.85 37.4L76.34 34.28C75.53 35.68 77.32 36.96 77.32 36.96L36.9 42.76 2.49 10.47C1.81 9.57 0.9 7.7 3.3 4.98 5.32 2.69 8.62 3.11 9.63 3.3 9.61 3.29 9.58 3.28 9.57 3.27 9.16 2.97 8.77 2.73 8.4 2.53 8.2 2.49 4.6 1.9 2.64 4.27Z" fill="#04547F"/><path d="M35.24 43.56 35.24 43.56C34.88 43.32 34.71 43.12 34.7 43.11L1.46 11.02C1.45 11.02 1.45 11.01 1.44 11 0.68 9.72 0.51 6.67 2.55 4.2 4.56 1.77 8.26 2.39 8.42 2.42 8.43 2.42 8.45 2.42 8.46 2.43 8.87 2.65 9.24 2.89 9.64 3.17L9.7 3.21C9.74 3.24 9.76 3.3 9.73 3.35 9.71 3.4 9.65 3.43 9.6 3.42 8.64 3.24 5.36 2.81 3.38 5.06 1.65 7.02 1.38 8.82 2.58 10.41L36.92 42.64 77.03 36.88C76.57 36.47 75.55 35.39 76.23 34.22 76.25 34.19 76.28 34.17 76.32 34.16 76.36 34.16 76.39 34.17 76.42 34.2L78.93 37.32C79 37.42 79.05 37.52 79.09 37.63 79.1 37.64 79.1 37.65 79.1 37.67 79.13 38.26 78.59 38.51 78.3 38.56L38.47 44.36C36.84 44.4 35.81 43.95 35.24 43.56ZM1.63 10.87 34.87 42.96C34.88 42.97 35.03 43.16 35.37 43.38 35.92 43.74 36.9 44.17 38.45 44.14L78.26 38.34C78.28 38.33 78.88 38.22 78.87 37.71 78.83 37.62 78.79 37.54 78.74 37.46L76.35 34.49C75.81 35.73 77.36 36.86 77.37 36.87 77.41 36.9 77.43 36.94 77.42 36.99 77.41 37.04 77.37 37.07 77.33 37.08L36.91 42.88C36.87 42.89 36.84 42.88 36.81 42.85L2.41 10.56C1.14 8.88 1.42 6.94 3.21 4.91 5 2.87 7.81 2.94 9.15 3.12 8.89 2.94 8.64 2.79 8.36 2.64 8.04 2.59 4.6 2.07 2.73 4.34 1.52 5.81 0.47 8.88 1.63 10.87Z" fill="#00476E"/></g><g><path d="M78.98 37.68C79.02 38.32 78.27 38.45 78.27 38.45L38.44 44.25C35.8 44.31 34.78 43.04 34.78 43.04L1.54 10.94C0.83 9.73 0.63 6.71 2.64 4.27 4.6 1.9 8.2 2.49 8.4 2.53 6.45 1.46 5.2 1.64 5.2 1.64L3.8 2.22C2.85 2.71 1.9 3.43 1.31 4.5-0.21 7.29-0.19 9.64 0.85 11.71L34.34 43.75C34.34 43.75 36.17 45.72 38.93 45.11L78.19 39.26C78.2 39.26 79.46 38.83 78.98 37.68Z" fill="#076BA0"/><path d="M35.02 44.46 35.02 44.46C34.53 44.14 34.26 43.85 34.25 43.84L0.77 11.8C0.76 11.79 0.75 11.78 0.75 11.77-0.39 9.5-0.23 7.11 1.21 4.45 1.73 3.5 2.58 2.71 3.74 2.12L5.15 1.54C5.16 1.54 5.17 1.53 5.18 1.53 5.31 1.51 6.55 1.39 8.45 2.43 8.5 2.46 8.52 2.52 8.5 2.57 8.49 2.62 8.44 2.65 8.38 2.64 8.23 2.61 4.65 2.01 2.73 4.34 1.52 5.8 0.47 8.88 1.63 10.87L34.87 42.96C34.88 42.97 35.03 43.16 35.37 43.38 35.92 43.74 36.9 44.17 38.45 44.14L78.26 38.34C78.28 38.33 78.9 38.22 78.87 37.69 78.87 37.63 78.91 37.58 78.96 37.57 79.02 37.56 79.07 37.59 79.09 37.64 79.24 37.99 79.25 38.32 79.12 38.62 78.88 39.15 78.26 39.37 78.24 39.38L38.95 45.24C37.23 45.61 35.87 45.02 35.02 44.46ZM0.95 11.65 34.42 43.68C34.43 43.69 34.69 43.96 35.15 44.27L35.15 44.27C35.96 44.81 37.26 45.37 38.91 45.01L78.18 39.15 78.18 39.15C78.18 39.15 78.71 38.96 78.91 38.52 78.96 38.4 78.98 38.28 78.98 38.15 78.81 38.41 78.5 38.53 78.3 38.57L38.47 44.37C36.84 44.41 35.82 43.96 35.24 43.58 34.87 43.34 34.71 43.14 34.7 43.13L1.46 11.02C1.45 11.02 1.45 11.01 1.44 11 0.68 9.72 0.51 6.67 2.55 4.2 4.08 2.34 6.6 2.26 7.78 2.34 6.31 1.67 5.36 1.74 5.23 1.75L3.84 2.32C2.73 2.9 1.91 3.65 1.42 4.56 0.01 7.14-0.14 9.46 0.95 11.65Z" fill="#00476E"/></g></g><g><g><path d="M37.75 36.96C38.68 35.63 40.01 34.95 41.26 34.61 39.76 33.58 38.76 32.29 38.76 32.29 38.76 32.29 12.51 5.49 9.62 3.31 8.62 3.11 5.31 2.69 3.3 4.98 0.9 7.7 1.82 9.57 2.5 10.47L36.89 42.75C36.89 42.76 35.44 40.26 37.75 36.96Z" fill="#FAECD3"/><path d="M36.82 42.85C36.81 42.85 36.81 42.84 36.81 42.84L2.41 10.56C1.14 8.88 1.42 6.94 3.21 4.91 5.27 2.57 8.66 3 9.65 3.19 9.67 3.19 9.68 3.2 9.7 3.21 12.56 5.37 38.58 31.95 38.84 32.22 38.86 32.24 39.85 33.52 41.32 34.52 41.36 34.54 41.37 34.59 41.37 34.63 41.36 34.67 41.33 34.71 41.29 34.72 39.79 35.12 38.64 35.9 37.85 37.02 35.61 40.21 36.98 42.66 36.99 42.69 37.02 42.74 37.01 42.8 36.96 42.84 36.92 42.88 36.86 42.88 36.82 42.85ZM9.58 3.41C8.58 3.23 5.34 2.83 3.38 5.06 1.65 7.02 1.38 8.82 2.58 10.41L36.57 42.32C36.27 41.41 35.93 39.36 37.65 36.91 38.43 35.8 39.55 35.02 40.99 34.58 39.6 33.58 38.67 32.39 38.66 32.38 38.41 32.11 12.53 5.68 9.58 3.41Z" fill="#C4C6C8"/></g><g><path d="M76.33 34.27C76.33 34.27 77.16 31.93 78.31 31.72 78.31 31.72 49.3 35.01 45.66 35.78 44.03 36.12 42.47 35.46 41.25 34.62 40 34.96 38.68 35.63 37.74 36.97 35.43 40.26 36.88 42.76 36.88 42.76L77.3 36.96C77.31 36.96 75.52 35.68 76.33 34.27Z" fill="#DED3BE"/><path d="M36.82 42.85C36.81 42.84 36.79 42.83 36.78 42.81 36.77 42.78 35.32 40.21 37.65 36.89 38.47 35.72 39.67 34.92 41.22 34.5 41.25 34.49 41.29 34.5 41.31 34.51L41.31 34.51 41.42 34.58C42.9 35.56 44.32 35.92 45.63 35.65 49.23 34.9 78 31.63 78.29 31.6 78.35 31.59 78.41 31.63 78.42 31.7 78.43 31.76 78.39 31.82 78.33 31.83 77.26 32.02 76.44 34.28 76.44 34.31 75.68 35.63 77.36 36.85 77.37 36.86 77.41 36.89 77.43 36.93 77.42 36.98 77.41 37.03 77.37 37.06 77.33 37.07L36.91 42.87C36.87 42.87 36.84 42.87 36.82 42.85ZM41.23 34.74C39.76 35.15 38.62 35.91 37.84 37.03 36.67 38.7 36.5 40.15 36.56 41.07 36.61 41.88 36.85 42.44 36.95 42.63L77.03 36.88C76.57 36.47 75.55 35.39 76.23 34.22 76.25 34.16 76.81 32.6 77.67 31.92 73.35 32.41 48.98 35.21 45.69 35.9 44.31 36.19 42.83 35.82 41.3 34.8L41.23 34.74Z" fill="#C4C6C8"/></g></g></g><g opacity="0.6"><path d="M36.36 41.13C36.35 41.12 36.34 41.12 36.34 41.11L1.66 7.99C1.6 7.92 1.6 7.82 1.66 7.76 1.72 7.69 1.83 7.69 1.89 7.75L36.51 40.82 76.63 36.15C76.72 36.14 76.8 36.2 76.81 36.29 76.82 36.38 76.76 36.46 76.67 36.47L36.47 41.15C36.43 41.16 36.39 41.15 36.36 41.13Z" fill="#A5A7A9"/><path d="M36.42 40.28C36.41 40.27 36.4 40.27 36.4 40.26L1.89 7.29C1.82 7.22 1.82 7.12 1.88 7.06 1.94 6.99 2.04 6.99 2.11 7.05L36.62 40.03C36.69 40.09 36.69 40.19 36.62 40.26 36.58 40.31 36.49 40.32 36.42 40.28Z" fill="#A5A7A9"/><path d="M36.61 39.17C36.6 39.16 36.59 39.16 36.59 39.15L2.18 6.46C2.12 6.4 2.11 6.29 2.18 6.23 2.24 6.16 2.34 6.16 2.41 6.23L36.82 38.93C36.89 38.99 36.89 39.1 36.83 39.16 36.77 39.21 36.68 39.22 36.61 39.17Z" fill="#A5A7A9"/><path d="M36.8 38.38C36.79 38.38 36.79 38.37 36.78 38.37L2.58 5.86C2.51 5.8 2.51 5.7 2.57 5.63 2.63 5.57 2.73 5.56 2.8 5.63L37 38.13C37.07 38.19 37.07 38.3 37.01 38.36 36.95 38.42 36.87 38.43 36.8 38.38Z" fill="#A5A7A9"/><path d="M37.19 37.8C37.18 37.8 37.18 37.79 37.17 37.78L2.96 5.28C2.9 5.22 2.9 5.12 2.96 5.05 3.02 4.99 3.12 4.98 3.19 5.04L37.39 37.54C37.46 37.6 37.46 37.71 37.4 37.77 37.34 37.83 37.25 37.84 37.19 37.8Z" fill="#A5A7A9"/><path d="M37.66 37.1C37.65 37.1 37.65 37.09 37.64 37.08L3.45 4.8C3.38 4.74 3.38 4.64 3.44 4.57 3.51 4.51 3.61 4.5 3.67 4.57L37.86 36.85C37.93 36.91 37.93 37.02 37.87 37.08 37.81 37.14 37.72 37.14 37.66 37.1Z" fill="#A5A7A9"/><path d="M38.24 36.4C38.23 36.4 38.22 36.39 38.22 36.38L4.25 4.32C4.19 4.26 4.19 4.16 4.25 4.09 4.31 4.02 4.41 4.02 4.48 4.08L38.44 36.15C38.5 36.21 38.51 36.31 38.45 36.38 38.39 36.44 38.3 36.44 38.24 36.4Z" fill="#A5A7A9"/><path d="M39.07 35.7C39.06 35.69 39.05 35.69 39.05 35.68L5.23 3.84C5.16 3.77 5.16 3.67 5.22 3.6 5.28 3.54 5.39 3.54 5.45 3.6L39.27 35.45C39.33 35.51 39.34 35.62 39.28 35.68 39.23 35.73 39.14 35.74 39.07 35.7Z" fill="#A5A7A9"/><path d="M39.65 35.35C39.64 35.34 39.63 35.34 39.63 35.33L6.4 3.41C6.34 3.35 6.34 3.24 6.4 3.18 6.46 3.12 6.57 3.11 6.63 3.18L39.85 35.1C39.91 35.16 39.92 35.27 39.85 35.33 39.8 35.39 39.71 35.39 39.65 35.35Z" fill="#A5A7A9"/><path d="M40.44 34.99C40.43 34.98 40.42 34.98 40.42 34.97L7.88 3.16C7.81 3.1 7.81 2.99 7.88 2.93 7.94 2.87 8.05 2.87 8.11 2.93L40.65 34.74C40.72 34.8 40.72 34.91 40.65 34.97 40.59 35.02 40.5 35.03 40.44 34.99Z" fill="#A5A7A9"/><path d="M36.42 40.28C36.38 40.25 36.36 40.21 36.35 40.16 36.34 40.07 36.4 39.99 36.49 39.98L76.17 35.35C76.26 35.34 76.34 35.4 76.35 35.49 76.36 35.58 76.3 35.66 76.21 35.67L36.53 40.3C36.49 40.31 36.45 40.3 36.42 40.28Z" fill="#A5A7A9"/><path d="M36.72 39.24C36.68 39.21 36.65 39.17 36.65 39.12 36.64 39.03 36.71 38.95 36.8 38.94L76.11 34.87C76.2 34.86 76.28 34.93 76.29 35.02 76.3 35.11 76.23 35.19 76.14 35.2L36.83 39.27C36.79 39.27 36.75 39.26 36.72 39.24Z" fill="#A5A7A9"/><path d="M36.88 38.44C36.84 38.41 36.81 38.37 36.81 38.32 36.8 38.23 36.87 38.15 36.96 38.14L76.27 34.07C76.36 34.06 76.44 34.13 76.45 34.22 76.46 34.31 76.39 34.39 76.31 34.4L37 38.47C36.95 38.47 36.91 38.46 36.88 38.44Z" fill="#A5A7A9"/><path d="M37.3 37.81C37.26 37.78 37.23 37.74 37.23 37.69 37.22 37.6 37.29 37.52 37.38 37.51L76.36 33.48C76.45 33.47 76.53 33.54 76.54 33.63 76.55 33.72 76.48 33.8 76.4 33.81L37.42 37.84C37.37 37.84 37.33 37.83 37.3 37.81Z" fill="#A5A7A9"/><path d="M37.68 37.24C37.64 37.21 37.61 37.17 37.61 37.12 37.6 37.03 37.67 36.95 37.76 36.94L77.07 32.87C77.16 32.86 77.24 32.93 77.25 33.02 77.26 33.11 77.19 33.19 77.1 33.2L37.79 37.27C37.75 37.27 37.71 37.26 37.68 37.24Z" fill="#A5A7A9"/><path d="M38.04 36.52C38 36.49 37.97 36.45 37.97 36.4 37.96 36.31 38.03 36.23 38.12 36.22L77.43 32.15C77.52 32.14 77.6 32.21 77.61 32.3 77.62 32.39 77.55 32.47 77.46 32.48L38.15 36.55C38.11 36.55 38.07 36.54 38.04 36.52Z" fill="#A5A7A9"/><path d="M39.52 35.62C39.48 35.59 39.45 35.55 39.45 35.5 39.44 35.41 39.5 35.33 39.6 35.32L78.91 31.25C79 31.24 79.08 31.31 79.09 31.4 79.1 31.49 79.03 31.57 78.94 31.58L39.63 35.65C39.59 35.65 39.55 35.64 39.52 35.62Z" fill="#A5A7A9"/></g><g><path d="M84.15 28.39C83.05 26.97 58.07 2.21 58.07 2.21 58.07 2.21 56.79 0.09 49.16 0.11L6.85 1.26C6.85 1.26 6.14 1.34 5.2 1.64 5.2 1.64 6.96 1.38 9.57 3.26 9.59 3.27 9.61 3.29 9.63 3.3 12.51 5.49 38.75 32.3 38.75 32.3 38.75 32.3 42.02 36.54 45.66 35.78 49.3 35.02 78.31 31.72 78.31 31.72L82.43 31.12C82.43 31.12 85.61 30.26 84.15 28.39Z" fill="#007FBF"/><path d="M41.3 34.79 41.3 34.79C39.74 33.75 38.68 32.39 38.67 32.38 38.41 32.11 12.4 5.55 9.55 3.4L9.5 3.36C9.37 3.26 9.24 3.18 9.11 3.09 6.81 1.56 5.28 1.75 5.21 1.75 5.15 1.76 5.08 1.7 5.09 1.63 5.1 1.59 5.13 1.55 5.17 1.54 6.11 1.24 6.81 1.16 6.84 1.16L49.15 0C54.35-0.02 56.62 0.98 57.51 1.57 57.94 1.85 58.11 2.08 58.15 2.14 59.29 3.27 83.14 26.91 84.24 28.32 84.62 28.8 84.73 29.27 84.59 29.71 84.24 30.75 82.53 31.22 82.46 31.24L78.33 31.84C78.04 31.87 49.28 35.14 45.69 35.89 44.31 36.18 42.83 35.8 41.3 34.79ZM9.24 2.9C9.37 2.99 9.5 3.08 9.64 3.17L9.7 3.21C12.56 5.37 38.58 31.95 38.84 32.22 38.86 32.24 39.9 33.58 41.43 34.59 42.91 35.57 44.33 35.93 45.65 35.66 49.25 34.91 78.02 31.64 78.31 31.61L82.43 31.01C82.43 31.01 84.08 30.55 84.39 29.63 84.51 29.27 84.41 28.88 84.08 28.46 82.99 27.06 58.25 2.54 58.01 2.29 58 2.28 58 2.28 57.99 2.27 57.99 2.27 57.85 2.05 57.41 1.76 56.54 1.18 54.31 0.21 49.18 0.23L6.85 1.38 6.85 1.38C6.85 1.38 6.49 1.42 5.95 1.55 6.66 1.64 7.81 1.95 9.24 2.9Z" fill="#00476E"/></g><path d="M56.95 3.2C56.95 3.2 55.35 1.48 52.49 1.35 49.63 1.22 12.9 2.64 12.9 2.64 12.9 2.64 10.55 2.64 12.03 3.95 13.51 5.27 39.02 30.78 39.02 30.78 39.02 30.78 41.67 34.47 45.93 34.4L79.85 29.73C79.85 29.73 83.19 29.82 82.48 27.85 81.76 25.88 56.95 3.2 56.95 3.2Z" fill="#007FBF"/></g><path d="M14.05 4.74 55.33 3.44C55.33 3.43 27.48 5.92 14.05 4.74Z" fill="#007FBF"/></g></svg>