<svg width="58.43" height="80.38" viewBox="0 0 58.43 80.38" xmlns="http://www.w3.org/2000/svg" xmlns:xlink="http://www.w3.org/1999/xlink" xml:space="preserve" overflow="hidden"><defs></defs><g><path d="M20.26 37.4C20.26 37.4 21.13 39.06 21.87 38.99 22.61 38.92 25.81 39.92 25.81 39.92L27.54 42.43 29.48 40.27C29.48 40.27 24.83 33.86 22.25 30.38 19.66 26.91-0.07-0.38 0 0 0.26 1.46 20.26 37.4 20.26 37.4Z" fill="#878A8C"/><path d="M20.26 37.4C20.26 37.4 21.13 39.06 21.87 38.99 22.42 38.94 24.3 39.47 25.25 39.75 24.41 37.63 24.43 35.38 24.27 33.13 23.54 32.14 22.84 31.18 22.25 30.39 19.66 26.91-0.07-0.38 0 0 0.26 1.46 20.26 37.4 20.26 37.4Z" fill="#878A8C"/><path d="M26.2 40.49 27.54 42.43 29.48 40.27C29.48 40.27 28.99 39.59 28.24 38.56 27.47 39.12 26.75 39.73 26.2 40.49Z" fill="#878A8C"/><path d="M28.61 38.99C27.9 39.48 25.45 40.81 26.4 42.16 27.04 43.06 30.18 48.14 34.72 55.01 38.87 61.28 46.61 74.4 52.19 74.73 57.17 75.03 59.28 70.94 58.1 65.26 56.93 59.57 50.88 54.55 45.6 52.64 40.32 50.73 38.05 51.34 36.05 48.84 34.05 46.33 29.98 39.9 29.98 39.9 29.98 39.9 29.32 38.5 28.61 38.99ZM43.7 55.87C43.7 55.87 46.05 56.32 49.06 59.15 52.07 61.98 54.48 66.91 53.22 69.45 51.97 71.99 48.88 69.35 46.47 66.37 44.06 63.39 40.91 59.41 40.91 57.5 40.92 55.6 43.7 55.87 43.7 55.87Z" fill="#41C323"/><path d="M28.61 38.99C27.9 39.48 25.45 40.81 26.4 42.16 27.04 43.06 30.18 48.14 34.72 55.01 38.87 61.28 46.61 74.4 52.19 74.73 57.17 75.03 59.28 70.94 58.1 65.26 56.93 59.57 50.88 54.55 45.6 52.64 40.32 50.73 38.05 51.34 36.05 48.84 34.05 46.33 29.98 39.9 29.98 39.9 29.98 39.9 29.32 38.5 28.61 38.99ZM43.7 55.87C43.7 55.87 46.05 56.32 49.06 59.15 52.07 61.98 54.48 66.91 53.22 69.45 51.97 71.99 48.88 69.35 46.47 66.37 44.06 63.39 40.91 59.41 40.91 57.5 40.92 55.6 43.7 55.87 43.7 55.87Z" fill="#41C323"/><path d="M55.16 69.89C55.6 68.74 55.46 67.46 55.07 66.31 54.37 64.26 53.08 62.53 51.69 60.89 49.6 58.43 43.51 52.39 40.46 56.31 39.99 57.6 40.49 59.4 41.21 60.66 42.2 62.4 43.38 64.58 44.74 66.04 46.65 68.1 48.88 70.89 51.73 71.6 52.46 71.78 53.12 71.71 53.68 71.47 54.3 71.07 54.88 70.63 55.16 69.89ZM46.47 66.37C44.06 63.39 40.91 59.41 40.91 57.5 40.92 55.59 43.69 55.86 43.69 55.86 43.69 55.86 46.04 56.31 49.05 59.14 52.06 61.97 54.47 66.9 53.21 69.44 51.97 72 48.88 69.35 46.47 66.37Z" fill="#41C323"/><path d="M26.4 42.16C27.04 43.06 30.18 48.14 34.72 55.01 35.32 55.92 36 56.97 36.74 58.11 36.63 57.51 36.6 56.91 36.68 56.32 36.91 54.67 38.42 53.04 39.99 52.56 42.19 51.88 44.48 52.45 46.48 53.47 48.98 54.74 51.38 56.33 53.39 58.29 54.55 59.42 56.01 60.75 57.01 62.24 54.76 57.85 49.93 54.19 45.61 52.63 40.33 50.72 38.06 51.33 36.06 48.83 34.06 46.32 29.99 39.89 29.99 39.89 29.99 39.89 29.32 38.5 28.61 38.98 27.9 39.48 25.45 40.81 26.4 42.16Z" fill="#41C323"/><path d="M26.2 43.63 24.04 37.28 23.61 31C23.61 31 13.11 16.78 10.05 12.65 6.64 8.04 0 0 0 0L21.51 38.9 23.63 44.53 26.2 43.63Z" fill="#A1A3A6"/><path d="M22.69 42.04 23.63 44.53 26.2 43.62 25.27 40.87C24.37 41.16 23.52 41.61 22.69 42.04Z" fill="#A1A3A6"/><path d="M23.22 42.79C23.22 42.79 22.02 42.91 22.47 43.9 22.92 44.89 27.17 50.98 27.93 53.59 28.68 56.2 27.91 58.25 27.19 60.75 26.48 63.25 26.25 70.75 31.18 75.28 36.12 79.81 39.87 80.98 42.62 80.11 45.37 79.24 46.83 76.14 44.62 71.34 42.41 66.54 26.09 42.95 26.09 42.95 26.09 42.95 25.76 42.19 25.31 42.1 24.87 42 23.22 42.79 23.22 42.79ZM33.43 61.88C35.94 62.08 41.71 71.53 41.98 73.54 42.25 75.55 41.67 76.66 40.12 76.91 38.57 77.15 34.57 74.94 32.73 72.76 30.89 70.58 30.65 69.2 30.65 69.2 29.15 64.69 30.93 61.68 33.43 61.88Z" fill="#41C323"/><path d="M23.22 42.79C23.22 42.79 22.02 42.91 22.47 43.9 22.92 44.89 27.17 50.98 27.93 53.59 28.68 56.2 27.91 58.25 27.19 60.75 26.48 63.25 26.25 70.75 31.18 75.28 36.12 79.81 39.87 80.98 42.62 80.11 45.37 79.24 46.83 76.14 44.62 71.34 42.41 66.54 26.09 42.95 26.09 42.95 26.09 42.95 25.76 42.19 25.31 42.1 24.87 42 23.22 42.79 23.22 42.79ZM33.43 61.88C35.94 62.08 41.71 71.53 41.98 73.54 42.25 75.55 41.67 76.66 40.12 76.91 38.57 77.15 34.57 74.94 32.73 72.76 30.89 70.58 30.65 69.2 30.65 69.2 29.15 64.69 30.93 61.68 33.43 61.88Z" fill="#41C323"/><path d="M37.94 64.84C37.83 64.68 37.68 64.49 37.54 64.29 36.34 62.78 34.94 60.92 33.21 60.56 30.24 59.93 29.07 63.27 28.81 65.74 28.79 66.77 28.9 67.8 29.22 68.76 30.04 71.2 31.8 72.99 33.77 74.55 35.52 75.94 37.62 77.54 39.87 77.97 40.92 78.17 42.14 78.08 42.67 76.98 43.63 74.99 42.55 73.12 41.68 71.33 40.59 69.09 39.39 66.89 37.94 64.84ZM40.13 76.91C38.58 77.15 34.58 74.94 32.74 72.76 30.9 70.58 30.66 69.2 30.66 69.2 29.16 64.7 30.93 61.69 33.43 61.89 35.94 62.09 41.71 71.54 41.98 73.55 42.25 75.55 41.67 76.66 40.13 76.91Z" fill="#41C323"/><path d="M22.47 43.9C22.92 44.89 27.17 50.98 27.93 53.59 28.6 55.92 28.05 57.81 27.42 59.97 27.51 59.77 27.61 59.57 27.71 59.37 28.35 57.67 29.31 56.02 31.01 55.75 33.21 55.4 35.08 56.78 36.58 58.41 31.55 50.83 26.1 42.95 26.1 42.95 26.1 42.95 25.77 42.19 25.32 42.1 24.87 42.01 23.23 42.8 23.23 42.8 23.23 42.8 22.02 42.91 22.47 43.9Z" fill="#41C323"/><g><path d="M22.18 35.52C22.84 35.15 23.08 34.3 22.71 33.64 22.34 32.98 21.49 32.74 20.83 33.12 20.17 33.49 19.93 34.34 20.31 35 20.68 35.66 21.52 35.89 22.18 35.52Z" fill="#6F7274"/><path d="M21.71 35.34C22.09 35.12 22.23 34.64 22.01 34.26 21.8 33.88 21.31 33.74 20.93 33.96 20.55 34.18 20.41 34.66 20.63 35.04 20.84 35.42 21.32 35.55 21.71 35.34Z" fill="#6F7274"/><path d="M21.84 35.33 21.42 34.58 20.67 35C20.57 35.05 20.45 35.02 20.4 34.92 20.35 34.83 20.38 34.7 20.48 34.65L21.23 34.23 20.81 33.48C20.76 33.39 20.79 33.26 20.89 33.21 20.99 33.16 21.11 33.19 21.16 33.28L21.58 34.03 22.33 33.61C22.43 33.56 22.55 33.59 22.6 33.69 22.65 33.78 22.62 33.91 22.53 33.96L21.78 34.38 22.2 35.13C22.25 35.23 22.22 35.35 22.12 35.4 22.01 35.46 21.89 35.43 21.84 35.33Z" fill="#585B5D"/></g><path d="M22.38 40.62 21.79 38.75 1.3 1.87 22.1 38.46Z" fill="#FFFFFF"/></g></svg>