<svg width="31.98" height="216.65" viewBox="0 0 31.98 216.65" xmlns="http://www.w3.org/2000/svg" xmlns:xlink="http://www.w3.org/1999/xlink" xml:space="preserve" overflow="hidden"><defs></defs><g><rect x="0" y="0" width="31.98" height="216.65" fill="#C3BDDD"/><g><rect x="2.8" y="5.6" width="10.39" height="2" fill="#6D6968"/><rect x="2.8" y="18.04" width="10.39" height="2" fill="#6D6968"/><rect x="2.8" y="30.48" width="10.39" height="2" fill="#6D6968"/><rect x="2.8" y="42.92" width="10.39" height="2" fill="#6D6968"/><rect x="2.8" y="55.36" width="10.39" height="2" fill="#6D6968"/><rect x="2.8" y="67.8" width="10.39" height="2" fill="#6D6968"/><rect x="2.8" y="80.24" width="10.39" height="2" fill="#6D6968"/><rect x="2.8" y="92.69" width="10.39" height="2" fill="#6D6968"/><rect x="2.8" y="105.13" width="10.39" height="2" fill="#6D6968"/><rect x="2.8" y="117.57" width="10.39" height="2" fill="#6D6968"/><rect x="2.8" y="130.01" width="10.39" height="2" fill="#6D6968"/><rect x="2.8" y="142.45" width="10.39" height="2" fill="#6D6968"/><rect x="2.8" y="154.89" width="10.39" height="2" fill="#6D6968"/><rect x="2.8" y="167.33" width="10.39" height="2" fill="#6D6968"/><rect x="2.8" y="179.78" width="10.39" height="2" fill="#6D6968"/><rect x="2.8" y="192.22" width="10.39" height="2" fill="#6D6968"/><rect x="2.8" y="204.66" width="10.39" height="2" fill="#6D6968"/></g></g></svg>