<svg width="1151.81" height="835.54" viewBox="0 0 1151.81 835.54" xmlns="http://www.w3.org/2000/svg" xmlns:xlink="http://www.w3.org/1999/xlink" xml:space="preserve" overflow="hidden"><defs></defs><linearGradient x1="0" y1="370.49" x2="659.016" y2="370.49" gradientUnits="userSpaceOnUse" id="SVGID_1_"><stop offset="0" stop-color="#324CFC"/><stop offset="1" stop-color="#3AA1C7"/></linearGradient><linearGradient x1="1103.69" y1="-49.1309" x2="1767.54" y2="-49.1309" gradientUnits="userSpaceOnUse" id="SVGID_2_" gradientTransform="matrix(0 1 1 0 932.007 -932.007)"><stop offset="0" stop-color="#3AA1C7"/><stop offset="1" stop-color="#324CFC"/></linearGradient><path d="M147.33 441.41 7.5 581.23C-2.51 591.24-2.51 607.46 7.5 617.46L7.5 617.46C17.51 627.47 33.73 627.47 43.73 617.46L99.44 561.75C109.45 551.74 125.67 551.74 135.67 561.75L135.67 561.75C145.68 571.76 145.68 587.98 135.67 597.98L57.31 676.34C47.3 686.35 47.3 702.57 57.31 712.57L57.31 712.57C67.32 722.58 83.54 722.58 93.54 712.57L109.76 696.35C119.77 686.34 135.99 686.34 145.99 696.35L145.99 696.35C156 706.36 172.22 706.36 182.22 696.35L216.7 661.87C226.71 651.86 242.93 651.86 252.93 661.87L253.81 662.75C263.33 672.27 263.33 687.71 253.81 697.23L253.81 697.23C243.8 707.24 243.8 723.46 253.81 733.46L253.81 733.46C263.82 743.47 280.04 743.47 290.04 733.46L651.66 371.84C661.42 362.08 661.42 346.25 651.66 336.48L650.78 335.6C641.02 325.84 641.02 310.01 650.78 300.24L650.78 300.24C660.54 290.48 660.54 274.65 650.78 264.88L649.9 264C640.14 254.24 624.31 254.24 614.54 264L579.18 299.36C569.42 309.12 553.59 309.12 543.82 299.36L542.94 298.48C533.18 288.72 517.35 288.72 507.58 298.48L490.92 315.14C480.91 325.15 464.69 325.15 454.69 315.14L454.69 315.14C444.68 305.13 444.68 288.91 454.69 278.91L533.49 200.11C543.25 190.35 543.25 174.52 533.49 164.75L532.61 163.87C522.85 154.11 507.02 154.11 497.25 163.87L441.1 220.02C431.09 230.03 414.87 230.03 404.87 220.02L404.87 220.02C394.86 210.01 394.86 193.79 404.87 183.79L545.18 43.56C554.94 33.8 554.94 17.97 545.18 8.2L544.3 7.32C534.54-2.44 518.71-2.44 508.94 7.32L147.33 368.94C137.32 378.95 137.32 395.17 147.33 405.17L147.33 405.17C157.33 415.18 157.33 431.4 147.33 441.41Z" fill="url(#SVGID_1_)"/><path d="M781.23 828.12 780.8 827.69C770.91 817.8 770.92 801.77 780.8 791.89L785.05 787.64C794.94 777.75 794.94 761.72 785.05 751.84L784.62 751.41C774.73 741.52 774.74 725.49 784.62 715.61L822.95 677.28C832.96 667.27 832.96 651.05 822.95 641.05L822.95 641.05C812.94 631.04 796.72 631.04 786.72 641.05L730.07 697.7C720.18 707.59 704.16 707.59 694.27 697.7L693.84 697.27C683.95 687.38 683.95 671.35 693.84 661.47L818.5 536.81C828.51 526.8 828.51 510.58 818.5 500.58L818.5 500.58C808.49 490.57 792.27 490.57 782.27 500.58L657.59 625.21C647.7 635.1 631.68 635.1 621.79 625.21L621.36 624.78C611.47 614.89 611.47 598.86 621.36 588.98L906.7 303.63C916.71 293.62 932.93 293.62 942.93 303.63L942.93 303.63C952.94 313.64 969.16 313.64 979.16 303.63L1103.61 179.18C1113.62 169.17 1129.84 169.17 1139.84 179.18L1139.84 179.18C1149.85 189.19 1149.85 205.41 1139.84 215.41L1015.4 339.87C1005.39 349.88 1005.39 366.1 1015.4 376.1L1015.4 376.1C1025.41 386.11 1041.63 386.11 1051.63 376.1L1108.06 319.67C1118.07 309.66 1134.29 309.66 1144.29 319.67L1144.29 319.67C1154.3 329.68 1154.3 345.9 1144.29 355.9L1106.18 394.01C1096.17 404.02 1096.17 420.24 1106.18 430.24L1106.18 430.24C1116.19 440.25 1116.19 456.47 1106.18 466.47L1102.36 470.29C1092.35 480.3 1092.35 496.52 1102.36 506.52L1102.36 506.52C1112.37 516.53 1112.37 532.75 1102.36 542.75L817.03 828.12C807.14 838.01 791.11 838.01 781.23 828.12Z" fill="url(#SVGID_2_)"/></svg>