<svg width="89.5" height="191.57" viewBox="0 0 89.5 191.57" xmlns="http://www.w3.org/2000/svg" xmlns:xlink="http://www.w3.org/1999/xlink" xml:space="preserve" overflow="hidden"><defs></defs><g><path d="M71.38 53.52 71.38 41.47C71.38 39.65 70.64 37.87 69.36 36.59 68.07 35.3 66.29 34.57 64.48 34.57L61.53 34.57 53.99 7.37C53.36 5.1 51.63 3.31 49.38 2.62 47.13 1.92 44.69 2.42 42.89 3.93L39.14 7.09C38.09 7.98 37.3 9.2 36.94 10.53L30.27 34.57 27.32 34.57C25.5 34.57 23.72 35.31 22.44 36.59 21.15 37.88 20.42 39.65 20.42 41.47L20.42 53.53C10.2 54.83 2.31 63.55 2.3 74.13L2.3 170.8C2.3 182.27 11.6 191.57 23.07 191.57L68.73 191.57C80.2 191.56 89.49 182.27 89.5 170.8L89.5 74.13C89.5 63.55 81.6 54.83 71.38 53.52Z" fill="#8C8973"/><path d="M69.54 51.68 69.54 39.63C69.54 37.81 68.8 36.03 67.52 34.75 66.23 33.46 64.46 32.73 62.64 32.73L59.69 32.73 52.15 5.53C51.52 3.26 49.79 1.47 47.54 0.78 45.29 0.08 42.85 0.58 41.05 2.09L37.3 5.25C36.25 6.14 35.46 7.36 35.1 8.69L28.43 32.73 25.48 32.73C23.66 32.73 21.88 33.47 20.6 34.75 19.31 36.04 18.58 37.81 18.58 39.63L18.58 51.69C8.36 52.99 0.47 61.71 0.46 72.28L0.46 168.95C0.46 180.42 9.76 189.72 21.23 189.72L66.89 189.72C78.36 189.71 87.65 180.42 87.66 168.95L87.66 72.28C87.65 61.71 79.76 52.99 69.54 51.68Z" fill="#FFFFFF"/><path d="M70 51.28 70 39.63C70 37.69 69.21 35.79 67.84 34.42 66.46 33.04 64.57 32.26 62.63 32.26L60.03 32.26 52.59 5.4C51.92 2.98 50.07 1.07 47.67 0.33 46.96 0.11 46.22 0 45.49 0 43.78 0 42.09 0.6 40.75 1.73L37 4.89C35.87 5.84 35.04 7.13 34.65 8.55L28.08 32.26 25.48 32.26C23.54 32.26 21.65 33.04 20.27 34.42 18.9 35.79 18.11 37.69 18.11 39.63L18.11 51.28C7.86 52.79 0.01 61.61 0 72.28L0 168.96C0 180.69 9.5 190.18 21.23 190.19L66.89 190.19C78.62 190.18 88.11 180.69 88.12 168.96L88.12 72.28C88.11 61.61 80.25 52.79 70 51.28ZM87.2 168.96C87.19 180.18 78.11 189.26 66.89 189.27L21.23 189.27C10.01 189.27 0.92 180.18 0.92 168.96L0.92 72.29C0.93 61.95 8.64 53.43 18.64 52.15L19.04 52.1 19.04 39.63C19.04 37.94 19.73 36.27 20.93 35.07 22.13 33.87 23.79 33.18 25.49 33.18L28.78 33.18 35.54 8.8C35.88 7.56 36.61 6.42 37.6 5.59L41.35 2.43C42.52 1.44 44 0.91 45.5 0.91 46.14 0.91 46.78 1 47.41 1.2 49.51 1.85 51.13 3.52 51.72 5.64L59.35 33.18 62.65 33.18C64.34 33.18 66.01 33.87 67.2 35.07 68.4 36.27 69.09 37.93 69.09 39.63L69.09 52.09 69.49 52.14C79.48 53.42 87.2 61.95 87.21 72.29L87.21 168.96Z" fill="#8C8973"/><g><g><g><rect x="25.48" y="39.63" width="37.15" height="19.96" fill="#16783B"/><g><rect x="27.42" y="42.96" width="3.33" height="13.31" fill="#5EA16F"/><rect x="33.41" y="42.96" width="3.33" height="13.31" fill="#5EA16F"/><rect x="39.4" y="42.96" width="3.33" height="13.31" fill="#5EA16F"/><rect x="45.39" y="42.96" width="3.33" height="13.31" fill="#5EA16F"/><rect x="51.38" y="42.96" width="3.33" height="13.31" fill="#5EA16F"/><rect x="57.37" y="42.96" width="3.33" height="13.31" fill="#5EA16F"/></g></g><path d="M45.5 7.37 41.75 10.53 33.56 40.08 54.57 40.08Z" fill="#16783B"/></g><g><path d="M79.83 168.96C79.83 176.11 74.04 181.9 66.89 181.9L21.23 181.9C14.08 181.9 8.29 176.11 8.29 168.96L8.29 72.28C8.29 65.13 14.08 59.34 21.23 59.34L66.89 59.34C74.04 59.34 79.83 65.13 79.83 72.28L79.83 168.96Z" fill="#DFDDCB"/><path d="M66.89 58.42 21.23 58.42C13.57 58.42 7.37 64.63 7.36 72.29L7.36 168.96C7.36 176.62 13.57 182.83 21.23 182.83L66.89 182.83C74.55 182.83 80.75 176.62 80.75 168.96L80.75 72.28C80.75 64.63 74.55 58.42 66.89 58.42ZM78.91 168.96C78.9 175.6 73.53 180.96 66.89 180.98L21.23 180.98C14.59 180.97 9.23 175.6 9.21 168.96L9.21 72.28C9.22 65.64 14.59 60.28 21.23 60.26L66.89 60.26C73.53 60.27 78.89 65.64 78.91 72.28L78.91 168.96Z" fill="#888358"/></g></g></g></svg>