<svg width="114.15" height="142.01" viewBox="0 0 114.15 142.01" xmlns="http://www.w3.org/2000/svg" xmlns:xlink="http://www.w3.org/1999/xlink" xml:space="preserve" overflow="hidden"><defs></defs><g><defs><filter id="Adobe_OpacityMaskFilter" x="34.28" y="5.69" width="46.77" height="14.97" filterUnits="userSpaceOnUse" primitiveUnits="userSpaceOnUse"><feFlood flood-color="#FFFFFF" result="back"/><feBlend in="SourceGraphic" in2="back" mode="normal"/></filter></defs><mask maskUnits="userSpaceOnUse" x="34.28" y="5.69" width="46.77" height="14.97" id="SVGID_2_"><g filter="url(#Adobe_OpacityMaskFilter)"><defs><filter id="Adobe_OpacityMaskFilter_1_" x="34.28" y="5.69" width="46.77" height="14.97" filterUnits="userSpaceOnUse" primitiveUnits="userSpaceOnUse"><feFlood flood-color="#FFFFFF" result="back"/><feBlend in="SourceGraphic" in2="back" mode="normal"/></filter></defs><mask maskUnits="userSpaceOnUse" x="34.28" y="5.69" width="46.77" height="14.97" id="SVGID_2_"><g filter="url(#Adobe_OpacityMaskFilter_1_)"></g></mask><linearGradient x1="337.159" y1="-50.2738" x2="377.967" y2="-50.2738" gradientUnits="userSpaceOnUse" id="SVGID_3_" gradientTransform="matrix(0.9478 0.319 -0.319 0.9478 -297.205 -51.4736)"><stop offset="0.00128265" stop-color="#FFFFFF"/><stop offset="1"/></linearGradient><path d="M34.28 20.65C34.28 20.65 34.67 19.94 35.56 18.83 36 18.28 36.55 17.61 37.25 16.91 37.94 16.21 38.73 15.4 39.68 14.65 40.6 13.83 41.67 13.06 42.82 12.25 44 11.5 45.26 10.7 46.63 10.01 48 9.33 49.43 8.62 50.97 8.11 51.74 7.85 52.49 7.52 53.28 7.31L55.67 6.69C57.26 6.24 58.91 6.12 60.51 5.87 61.31 5.73 62.12 5.74 62.91 5.71 63.7 5.69 64.48 5.68 65.25 5.66 66.79 5.65 68.26 5.89 69.65 6.02 71.05 6.12 72.33 6.53 73.51 6.8 74.69 7.1 75.78 7.31 76.68 7.72 77.61 8.06 78.39 8.41 79.04 8.68 80.33 9.24 81.04 9.6 81.04 9.6 81.04 9.6 80.22 9.62 78.83 9.58 78.13 9.55 77.3 9.54 76.35 9.47 75.41 9.36 74.32 9.49 73.18 9.45 72.02 9.48 70.78 9.38 69.47 9.52 68.16 9.63 66.79 9.61 65.39 9.79 63.99 10 62.54 10.08 61.09 10.34 59.65 10.67 58.15 10.77 56.72 11.21 55.26 11.55 53.81 11.9 52.41 12.36 50.98 12.75 49.63 13.28 48.3 13.74 46.97 14.22 45.71 14.77 44.51 15.27 43.33 15.83 42.17 16.29 41.15 16.83 39.07 17.84 37.37 18.8 36.17 19.48 34.96 20.22 34.28 20.65 34.28 20.65Z" fill="url(#SVGID_3_)" mask="url(#SVGID_2_)"/></g></mask><linearGradient x1="337.159" y1="-50.2738" x2="377.967" y2="-50.2738" gradientUnits="userSpaceOnUse" id="SVGID_4_" gradientTransform="matrix(0.9478 0.319 -0.319 0.9478 -297.205 -51.4736)"><stop offset="0.00128265" stop-color="#FFFFFF"/><stop offset="1" stop-color="#FFFFFF"/></linearGradient><defs><filter id="Adobe_OpacityMaskFilter_2_" x="5.49" y="57.23" width="77.75" height="57.93" filterUnits="userSpaceOnUse" primitiveUnits="userSpaceOnUse"><feFlood flood-color="#FFFFFF" result="back"/><feBlend in="SourceGraphic" in2="back" mode="normal"/></filter></defs><mask maskUnits="userSpaceOnUse" x="5.49" y="57.23" width="77.75" height="57.93" id="SVGID_5_"><g filter="url(#Adobe_OpacityMaskFilter_2_)"><defs><filter id="Adobe_OpacityMaskFilter_3_" x="5.49" y="57.23" width="77.75" height="57.93" filterUnits="userSpaceOnUse" primitiveUnits="userSpaceOnUse"><feFlood flood-color="#FFFFFF" result="back"/><feBlend in="SourceGraphic" in2="back" mode="normal"/></filter></defs><mask maskUnits="userSpaceOnUse" x="5.49" y="57.23" width="77.75" height="57.93" id="SVGID_5_"><g filter="url(#Adobe_OpacityMaskFilter_3_)"></g></mask><linearGradient x1="338.668" y1="21.5231" x2="395.23" y2="21.5231" gradientUnits="userSpaceOnUse" id="SVGID_6_" gradientTransform="matrix(0.9478 0.319 -0.319 0.9478 -297.205 -51.4736)"><stop offset="0.00128265" stop-color="#FFFFFF"/><stop offset="1"/></linearGradient><path d="M83.24 57.23C83.24 57.23 83.05 57.59 82.55 58.17 82.31 58.48 82 58.85 81.58 59.22 81.17 59.6 80.71 60.08 80.15 60.53 78.97 61.34 77.6 62.52 75.81 63.42 74.93 63.91 73.98 64.44 72.99 64.99 71.95 65.44 70.86 65.9 69.72 66.39 67.46 67.45 64.91 68.24 62.2 69.08 59.5 70.02 56.6 70.64 53.58 71.31 52.83 71.48 52.07 71.65 51.31 71.82 50.58 71.99 49.85 72.16 49.12 72.33 47.6 72.71 46.06 73.08 44.5 73.42 43.02 73.85 41.64 74.38 40.19 74.85 39.47 75.05 38.77 75.4 38.07 75.72L35.96 76.68C33.17 78 30.5 79.59 28.06 81.4 27.42 81.82 26.84 82.3 26.28 82.81 25.7 83.29 25.12 83.77 24.54 84.25 23.38 85.2 22.4 86.32 21.35 87.33 20.32 88.37 19.47 89.54 18.51 90.58 17.62 91.67 16.82 92.81 16 93.89 15.26 95.02 14.53 96.13 13.84 97.2 13.19 98.31 12.56 99.38 11.96 100.41 10.85 102.52 9.85 104.49 9.05 106.28 8.28 108.07 7.57 109.65 7.08 110.97 6.57 112.29 6.15 113.33 5.91 114.06 5.65 114.78 5.51 115.16 5.51 115.16 5.51 115.16 5.57 114.76 5.67 114 5.77 113.24 5.9 112.12 6.2 110.72 6.45 109.31 6.84 107.61 7.38 105.67 7.67 104.71 7.95 103.67 8.31 102.61 8.69 101.54 9.09 100.43 9.55 99.27 10.05 98.13 10.57 96.94 11.11 95.71 11.73 94.52 12.38 93.28 13.08 92.02 13.85 90.81 14.6 89.53 15.46 88.28 16.36 87.06 17.27 85.8 18.31 84.6 20.39 82.22 22.69 79.85 25.36 77.82 28.01 75.78 30.91 73.97 33.96 72.48L36.3 71.46C37.08 71.12 37.84 70.76 38.68 70.53 40.31 70.02 41.96 69.45 43.56 69.02 45.12 68.68 46.68 68.38 48.21 68.09 49.77 67.82 51.31 67.55 52.83 67.28 55.78 66.73 58.69 66.41 61.34 65.72 64.01 65.09 66.59 64.63 68.86 63.87 70.01 63.53 71.12 63.21 72.17 62.9 73.19 62.52 74.15 62.15 75.06 61.81 76.92 61.18 78.38 60.34 79.67 59.75 80.84 59.02 81.86 58.5 82.4 57.99 82.97 57.55 83.24 57.23 83.24 57.23Z" fill="url(#SVGID_6_)" mask="url(#SVGID_5_)"/></g></mask><linearGradient x1="338.668" y1="21.5231" x2="395.23" y2="21.5231" gradientUnits="userSpaceOnUse" id="SVGID_7_" gradientTransform="matrix(0.9478 0.319 -0.319 0.9478 -297.205 -51.4736)"><stop offset="0.00128265" stop-color="#FFFFFF"/><stop offset="1" stop-color="#FFFFFF"/></linearGradient><g><linearGradient x1="377.968" y1="-244.457" x2="377.968" y2="195.312" gradientUnits="userSpaceOnUse" id="SVGID_1_" gradientTransform="matrix(0.9478 0.319 -0.319 0.9478 -297.205 -51.4736)"><stop offset="0" stop-color="#E30613"/><stop offset="1" stop-color="#FF001A"/></linearGradient><path d="M88.31 37.78C87.62 32.37 85.58 28.98 82.19 27.62 78.8 26.26 74.42 26.3 69.06 27.75 66.48 28.36 63.56 29.45 60.3 31.02 57.03 32.58 53.81 33.72 50.61 34.42 47.41 35.12 44.45 35.01 41.73 34.09 39 33.17 36.87 30.61 35.33 26.39 34.01 22.84 34.14 19.7 35.72 16.98 37.31 14.26 39.53 11.94 42.4 10.01 45.26 8.09 48.42 6.52 51.86 5.31 55.3 4.1 58.17 3.15 60.48 2.44 65.94 0.73 71.54-0.08 77.28-0.01 83.03 0.07 88.41 1.11 93.44 3.09 98.47 5.08 102.77 8.12 106.35 12.21 109.93 16.3 112.26 21.56 113.35 27.99 114.4 34.11 114.42 39.97 113.43 45.55 112.44 51.14 110.49 56.25 107.6 60.9 104.7 65.55 101 69.63 96.49 73.14 91.98 76.66 86.75 79.33 80.8 81.18 77.16 82.32 73.24 83.3 69.05 84.11 64.86 84.92 60.73 85.97 56.67 87.27 52.61 88.56 48.86 90.27 45.41 92.36 41.97 94.45 39.16 97.43 36.97 101.28 38.43 101.77 40.55 102.63 43.32 103.86 46.09 105.09 49.14 106.34 52.48 107.61 55.83 108.89 59.37 110 63.11 110.97 66.85 111.94 70.35 112.44 73.59 112.5 72.88 112.85 72.37 113.05 72.06 113.09 74.72 111.77 77.23 110.58 79.59 109.52 81.94 108.46 84.67 108.6 87.77 109.94 89.98 110.83 91.75 112.28 93.08 114.28 94.4 116.28 95.19 118.43 95.45 120.74 95.71 123.05 95.41 125.35 94.57 127.66 93.72 129.96 92.18 131.78 89.96 133.1 85.65 135.79 81.21 137.78 76.64 139.05 72.07 140.32 67.26 140.11 62.2 138.41L14.76 122.44C11.7 121.41 9.38 119.52 7.79 116.77 6.2 114.02 5.57 111.07 5.89 107.92 6.12 105.49 6.85 103.21 8.07 101.11 9.29 99.01 10.42 96.87 11.45 94.7 14.08 89.52 16.94 85 20 81.15 23.07 77.3 26.47 74.01 30.21 71.27 33.94 68.53 38.07 66.26 42.6 64.45 47.13 62.64 52.19 61.13 57.78 59.9 60.31 59.42 63.44 58.7 67.17 57.73 70.9 56.76 74.45 55.45 77.82 53.77 81.19 52.09 83.95 49.95 86.09 47.34 88.22 44.74 88.96 41.55 88.31 37.78Z" fill="#59001A"/><path d="M82.49 39.93C81.79 34.52 79.76 31.13 76.36 29.77 72.97 28.41 68.59 28.45 63.22 29.9 60.65 30.51 57.73 31.6 54.47 33.17 51.2 34.73 47.98 35.87 44.78 36.57 41.59 37.27 38.63 37.16 35.9 36.25 33.17 35.33 31.04 32.77 29.5 28.55 28.18 25 28.31 21.86 29.89 19.14 31.47 16.42 33.7 14.09 36.57 12.18 39.43 10.26 42.58 8.69 46.02 7.48 49.46 6.27 52.33 5.31 54.64 4.61 60.1 2.9 65.7 2.08 71.44 2.17 77.18 2.25 82.57 3.29 87.6 5.27 92.63 7.26 96.93 10.29 100.51 14.39 104.09 18.48 106.42 23.74 107.52 30.17 108.56 36.29 108.59 42.15 107.6 47.73 106.61 53.31 104.66 58.43 101.77 63.08 98.87 67.73 95.17 71.81 90.66 75.32 86.14 78.83 80.92 81.51 74.97 83.36 71.33 84.5 67.42 85.47 63.22 86.28 59.03 87.09 54.9 88.14 50.84 89.44 46.77 90.74 43.03 92.44 39.59 94.53 36.15 96.63 33.33 99.6 31.15 103.45 32.61 103.94 34.72 104.8 37.49 106.03 40.25 107.26 43.31 108.51 46.66 109.78 50 111.05 53.54 112.17 57.29 113.13 61.03 114.09 64.52 114.6 67.76 114.66 67.05 115.01 66.54 115.21 66.22 115.26 68.88 113.94 71.4 112.75 73.75 111.69 76.1 110.63 78.83 110.77 81.93 112.11 84.14 113.01 85.91 114.45 87.24 116.45 88.56 118.45 89.35 120.6 89.62 122.91 89.87 125.22 89.58 127.52 88.73 129.83 87.88 132.13 86.35 133.95 84.12 135.27 79.81 137.96 75.37 139.95 70.8 141.22 66.23 142.49 61.42 142.28 56.36 140.58L8.95 124.59C5.89 123.56 3.57 121.67 1.98 118.92 0.38 116.17-0.24 113.22 0.08 110.07 0.3 107.63 1.03 105.36 2.26 103.26 3.49 101.16 4.61 99.02 5.64 96.85 8.27 91.67 11.12 87.15 14.19 83.31 17.26 79.46 20.66 76.16 24.4 73.43 28.13 70.69 32.26 68.42 36.79 66.61 41.32 64.81 46.38 63.29 51.97 62.07 54.5 61.59 57.63 60.87 61.35 59.9 65.07 58.93 68.63 57.62 72 55.94 75.37 54.26 78.13 52.12 80.27 49.51 82.4 46.89 83.15 43.7 82.49 39.93Z" fill="url(#SVGID_1_)"/></g><path d="M34.28 20.65C34.28 20.65 34.67 19.94 35.56 18.83 36 18.28 36.55 17.61 37.25 16.91 37.94 16.21 38.73 15.4 39.68 14.65 40.6 13.83 41.67 13.06 42.82 12.25 44 11.5 45.26 10.7 46.63 10.01 48 9.33 49.43 8.62 50.97 8.11 51.74 7.85 52.49 7.52 53.28 7.31L55.67 6.69C57.26 6.24 58.91 6.12 60.51 5.87 61.31 5.73 62.12 5.74 62.91 5.71 63.7 5.69 64.48 5.68 65.25 5.66 66.79 5.65 68.26 5.89 69.65 6.02 71.05 6.12 72.33 6.53 73.51 6.8 74.69 7.1 75.78 7.31 76.68 7.72 77.61 8.06 78.39 8.41 79.04 8.68 80.33 9.24 81.04 9.6 81.04 9.6 81.04 9.6 80.22 9.62 78.83 9.58 78.13 9.55 77.3 9.54 76.35 9.47 75.41 9.36 74.32 9.49 73.18 9.45 72.02 9.48 70.78 9.38 69.47 9.52 68.16 9.63 66.79 9.61 65.39 9.79 63.99 10 62.54 10.08 61.09 10.34 59.65 10.67 58.15 10.77 56.72 11.21 55.26 11.55 53.81 11.9 52.41 12.36 50.98 12.75 49.63 13.28 48.3 13.74 46.97 14.22 45.71 14.77 44.51 15.27 43.33 15.83 42.17 16.29 41.15 16.83 39.07 17.84 37.37 18.8 36.17 19.48 34.96 20.22 34.28 20.65 34.28 20.65Z" fill="url(#SVGID_4_)"/><path d="M83.24 57.23C83.24 57.23 83.05 57.59 82.55 58.17 82.31 58.48 82 58.85 81.58 59.22 81.17 59.6 80.71 60.08 80.15 60.53 78.97 61.34 77.6 62.52 75.81 63.42 74.93 63.91 73.98 64.44 72.99 64.99 71.95 65.44 70.86 65.9 69.72 66.39 67.46 67.45 64.91 68.24 62.2 69.08 59.5 70.02 56.6 70.64 53.58 71.31 52.83 71.48 52.07 71.65 51.31 71.82 50.58 71.99 49.85 72.16 49.12 72.33 47.6 72.71 46.06 73.08 44.5 73.42 43.02 73.85 41.64 74.38 40.19 74.85 39.47 75.05 38.77 75.4 38.07 75.72L35.96 76.68C33.17 78 30.5 79.59 28.06 81.4 27.42 81.82 26.84 82.3 26.28 82.81 25.7 83.29 25.12 83.77 24.54 84.25 23.38 85.2 22.4 86.32 21.35 87.33 20.32 88.37 19.47 89.54 18.51 90.58 17.62 91.67 16.82 92.81 16 93.89 15.26 95.02 14.53 96.13 13.84 97.2 13.19 98.31 12.56 99.38 11.96 100.41 10.85 102.52 9.85 104.49 9.05 106.28 8.28 108.07 7.57 109.65 7.08 110.97 6.57 112.29 6.15 113.33 5.91 114.06 5.65 114.78 5.51 115.16 5.51 115.16 5.51 115.16 5.57 114.76 5.67 114 5.77 113.24 5.9 112.12 6.2 110.72 6.45 109.31 6.84 107.61 7.38 105.67 7.67 104.71 7.95 103.67 8.31 102.61 8.69 101.54 9.09 100.43 9.55 99.27 10.05 98.13 10.57 96.94 11.11 95.71 11.73 94.52 12.38 93.28 13.08 92.02 13.85 90.81 14.6 89.53 15.46 88.28 16.36 87.06 17.27 85.8 18.31 84.6 20.39 82.22 22.69 79.85 25.36 77.82 28.01 75.78 30.91 73.97 33.96 72.48L36.3 71.46C37.08 71.12 37.84 70.76 38.68 70.53 40.31 70.02 41.96 69.45 43.56 69.02 45.12 68.68 46.68 68.38 48.21 68.09 49.77 67.82 51.31 67.55 52.83 67.28 55.78 66.73 58.69 66.41 61.34 65.72 64.01 65.09 66.59 64.63 68.86 63.87 70.01 63.53 71.12 63.21 72.17 62.9 73.19 62.52 74.15 62.15 75.06 61.81 76.92 61.18 78.38 60.34 79.67 59.75 80.84 59.02 81.86 58.5 82.4 57.99 82.97 57.55 83.24 57.23 83.24 57.23Z" fill="url(#SVGID_7_)"/></g></svg>