<svg width="211.19" height="215.27" viewBox="0 0 211.19 215.27" xmlns="http://www.w3.org/2000/svg" xmlns:xlink="http://www.w3.org/1999/xlink" xml:space="preserve" overflow="hidden"><defs></defs><path d="M210.37 117.74C208.91 116.31 205.82 116.85 204.04 117.06 200.77 117.44 197.53 118.2 194.22 118.21 191.22 118.22 188.76 117.09 188.5 113.86 188.24 110.65 191.75 108.15 193.95 106.43 196.17 104.71 201.68 101.43 197.81 98.57 194.98 96.48 190.98 95.94 187.67 95.07 187.05 94.91 186.34 94.73 185.71 94.43L185.65 89.13C185.7 88.81 185.73 88.49 185.75 88.17 185.88 87.98 185.99 87.81 186.1 87.65 186.12 87.62 185.96 87.61 185.77 87.62 185.75 85.88 185.2 83.82 186.49 82.4 187.37 81.43 189.2 81.31 190.35 80.65 191.59 79.93 192.32 77.35 192.56 76.04 192.79 74.73 192.3 73.57 191.36 72.69 189 70.49 184.77 70.24 181.82 69.32 178.16 68.19 173.4 65.06 173.16 60.84 172.98 57.67 175.97 54.65 177.26 51.95 178.96 48.4 178.48 44.59 176.75 41.14 174.23 36.11 169.73 40.94 167.53 43.51 165.45 45.93 161.9 51.49 158.14 50.66 154.96 49.96 152.94 46.14 153.49 43.13 154.03 40.15 155.81 37.45 156.5 34.47 157.01 32.28 158.36 26.38 154.27 27.47 152.62 27.91 151.53 28.71 150.74 29.72 149.54 30.46 148.64 31.7 147.86 33.13 146.8 35.07 145.51 38.38 142.6 37.6 140.34 36.99 138.27 35.08 136.61 33.52 135.37 32.36 134.08 31.07 133.78 29.35 133.45 27.46 134.19 25.49 134.97 23.8 136.77 19.89 139.65 16.51 142.1 13 143.94 10.37 146.29 7.1 145.96 3.71 145.74 1.44 143.63-0.28 141.41 0.02 139.02 0.34 137.19 2.63 135.85 4.41 133.46 7.56 131.65 11.17 129.84 14.68 128.38 17.51 127.11 20.31 124.86 22.6 120.6 26.92 114.94 30.28 109.16 32.09 104.07 33.68 96.87 33.54 94.09 28.12 92.3 24.63 93.51 20.06 93.93 16.39 94.38 12.46 94.11 9.05 91.19 6.17 89.99 4.99 88.26 3.42 86.48 4.3 84.95 5.05 85.25 7.83 85.33 9.17 85.51 12.39 86.19 15.59 86.83 18.74 87.24 20.77 87.72 22.8 88.02 24.86 88.18 25.96 87.85 26.77 87.37 27.8 86.56 29.51 84.91 31.04 82.9 31.07 81.51 31.09 80.32 30.19 79.35 29.3 75.85 26.1 77.85 21.15 77.13 17.08 76.76 14.96 74.02 11.73 71.61 12.08 69.88 12.33 69.55 13.87 69.39 15.41 69.08 18.49 69.41 21.38 68.64 24.44 67.95 27.18 65.37 28.43 63.78 30.6 63.04 31.6 62.52 32.72 62.08 33.87 60.16 35.64 58.49 37.71 56.88 39.74 55.55 41.41 54.13 43.43 51.49 42.65 50.21 42.27 48.92 41.31 47.9 40.44 46.49 39.25 45.63 37.44 44.59 35.95 42.9 33.52 40.81 33.32 38.47 35 35.45 37.17 34.21 40.27 34.95 43.85 35.64 47.16 37.56 50.05 38.45 53.29 39.86 58.4 34.27 59.51 30.28 59.65 28.07 59.73 24.71 58.76 23.39 61.16 22.59 62.62 23.03 65.38 23.77 66.73 24.75 68.52 26.73 69.54 27.78 71.31 28.02 71.73 28.19 72.12 28.29 72.48L24.19 76.81C21.71 76.61 19.23 76.19 16.9 77.72 12.56 80.55 12.41 86.56 11.49 91.09 11.04 93.28 10.27 96.33 8.02 97.3 6.53 97.94 4.87 98.2 3.34 98.75 1.17 99.52-1 100.85 0.62 103.29 2.8 106.56 6.33 105.23 9.61 104.84 12.43 104.51 14.82 104.83 15.85 107.8 16.73 110.33 14.04 111.92 12.24 112.98 9.83 114.4 6.42 117.49 7.21 120.62 7.64 122.35 8.88 123.9 9.44 125.61 10.21 127.97 10.23 130.4 10.29 132.84 10.36 135.73 12.62 137.84 14.7 139.58 17.59 142 20.71 142.45 21.73 146.54 22.52 149.73 21.83 152.87 22.07 156.08 22.18 157.53 22.78 158.69 23.66 159.64 23.7 159.81 23.74 159.97 23.78 160.14 24.71 164.29 23.77 167.22 22.57 171.13 21.28 175.31 17.87 186.79 26.05 186.14 27.64 186.01 29.2 184.7 30.42 183.79 31.43 183.03 32.4 182.23 33.41 181.46 33.91 181.08 36.07 179.2 36.62 179.4 38.04 179.92 39.46 180.43 40.89 180.95 42.31 181.47 43.08 181.2 44.5 180.55 47.43 179.21 49.87 182.46 49.54 184.97 49.29 186.87 47.96 188.67 46.94 190.23 45.34 192.68 42.75 195.93 44.11 199.01 44.2 199.22 44.45 199.25 44.66 199.2 49.21 197.98 51.38 194.08 54.42 190.86 55.99 189.2 60.71 186.3 62.9 188.31 64.34 189.63 62.74 193.05 62.2 194.41 61.11 197.13 53.01 207.6 59.78 208.05 63.23 208.28 64.7 205.87 66.1 203.12 67.08 201.18 68.05 199.19 69.77 197.8 71.52 196.39 74.9 196.18 76.83 197.38 79.27 198.91 78.25 203.23 77.95 205.52 77.63 207.99 77.11 210.92 78.51 213.17 80.56 216.45 85.96 215.5 88.13 213.01 89.91 210.98 90.7 208.04 91.81 205.41 92.78 204.1 94.03 203 95.33 201.96 97.29 200.38 97.12 202.31 96.9 203.81 96.7 205.17 96.3 206.54 96.29 207.93 96.26 209.75 97.23 212.9 99.51 212.78 101.65 212.66 103.45 210.44 104.77 209.01 107.35 206.23 109.73 203.08 112.99 201.05 115.19 199.67 117.62 199.68 119.49 201.64 120.82 203.02 121.7 204.56 123.83 204.4 125.41 204.28 126.76 203.19 128.01 202.32 130.66 200.48 134.04 202.05 136.87 202.34 139.98 202.66 143.73 199.75 143.78 196.6 143.8 195.62 143.57 194.67 143.74 193.69 143.84 193.13 144.06 192.74 144.36 192.49 144.77 192.31 145.31 192.19 146.02 192.15 147.44 192.36 149.1 193.41 149.7 194.07 151.44 195.97 152.01 198.98 152.38 201.45 152.39 201.52 152.5 201.54 152.55 201.55 154.01 201.84 156.65 202.35 157.61 200.75 158.52 199.24 156.91 196.69 156.24 195.39 155 192.98 153.5 190.66 152.62 188.08 151.86 185.84 152.9 183.05 155.61 184.68 158.15 186.21 160.51 188.03 163.05 189.56 164.96 190.71 167.47 192.32 169.81 192.1 171.97 191.89 172.44 190.16 172.29 188.23 171.95 183.84 169.77 180.92 165.4 180.41 163.37 180.17 161.55 179.98 160.06 178.43 159.45 177.8 158.81 177.16 158.5 176.32 158.1 175.27 160.23 175.59 160.7 175.63 162.39 175.77 163.57 175.92 164.77 175.74 164.79 175.74 164.8 175.74 164.81 175.73 165.69 175.59 166.6 175.27 167.73 174.63 169.87 173.42 171.73 171.73 173.68 170.27 175.81 168.68 178.2 167.58 180.63 166.56 183.93 165.16 184.86 163.12 184.36 159.77 187.11 160.52 190.42 160.53 192.24 158.05 193.33 156.56 193.14 153.99 192.45 152.4 191.88 151.1 190.25 151.03 189.05 150.94 186.54 150.75 184.94 149.44 183.17 147.77 182.34 146.98 180.83 145.41 182.91 145.58 185.85 145.82 188.73 146.8 191.63 147.33 193.66 147.7 195.37 147.82 197.01 146.43 198.58 145.1 197.24 143.53 196.06 142.52 192.71 139.64 183.3 135.75 186.18 130.05L186.19 130.71C186.06 131.09 185.92 131.46 185.74 131.82 185.69 131.93 186.55 131.87 186.66 131.65 187.56 129.8 187.54 127.79 188.69 125.99 190.07 123.82 192.39 123.48 194.75 123.84 197.91 124.32 200.85 125.75 204.03 126.13 205.93 126.36 208.23 125.97 209.51 124.42 210.72 122.82 212.12 119.46 210.37 117.74Z" fill="#33BEF2"/></svg>