<svg width="58.6" height="64.58" viewBox="0 0 58.6 64.58" xmlns="http://www.w3.org/2000/svg" xmlns:xlink="http://www.w3.org/1999/xlink" xml:space="preserve" overflow="hidden"><defs></defs><g><g><path d="M55.3 50.29 31.33 63.75C28.22 65.5 24.27 64.39 22.52 61.28L1.08 23.1C-0.67 19.99 0.44 16.04 3.55 14.29L27.51 0.83C30.62-0.92 34.57 0.19 36.32 3.3L57.77 41.48C59.52 44.6 58.41 48.54 55.3 50.29Z" fill="#2C729F"/><path d="M36.32 3.3C34.57 0.19 30.63-0.92 27.51 0.83L24.2 2.69 46.45 44.42 54.34 44.36 58.28 46.61C58.8 44.96 58.69 43.12 57.77 41.49L36.32 3.3Z" fill="#284972"/><path d="M52.26 48.5 29.51 61.28C26.55 62.94 22.81 61.89 21.15 58.93L0.79 22.68C-0.87 19.72 0.18 15.98 3.14 14.32L25.88 1.55C28.84-0.11 32.58 0.94 34.24 3.9L54.6 40.14C56.26 43.09 55.21 46.84 52.26 48.5Z" fill="#3B97D3"/><path d="M3.42 14.17 3.14 14.33C0.18 15.99-0.87 19.73 0.79 22.69L21.15 58.94C22.81 61.9 26.55 62.95 29.51 61.29L29.79 61.13 3.42 14.17Z" fill="#5BB5E6"/><path d="M25.88 1.55 14.44 7.97 40.81 54.92 52.25 48.5C55.21 46.84 56.26 43.1 54.6 40.14L34.24 3.89C32.58 0.94 28.84-0.11 25.88 1.55Z" fill="#3187C8"/><path d="M33.44 13.61 8.56 27.58C7.31 28.28 5.73 27.84 5.03 26.59L2.22 21.58C1.52 20.33 1.96 18.75 3.21 18.05L28.09 4.08C29.34 3.38 30.92 3.82 31.62 5.07L34.43 10.08C35.13 11.32 34.69 12.9 33.44 13.61Z" fill="#79AEDE"/><path d="M32.92 13.03 9.28 26.31C8.15 26.94 6.73 26.54 6.1 25.42L3.78 21.28C3.15 20.15 3.55 18.73 4.67 18.1L28.3 4.82C29.43 4.19 30.85 4.59 31.48 5.71L33.8 9.85C34.44 10.98 34.04 12.4 32.92 13.03Z" fill="#2C3E50"/><path d="M6.88 16.86 4.67 18.1C3.54 18.73 3.15 20.16 3.78 21.28L6.1 25.42C6.73 26.55 8.16 26.94 9.28 26.31L11.49 25.07 6.88 16.86Z" fill="#1D2D3C"/><path d="M28.3 5.81 17.6 11.82 21.37 18.52 32.07 12.51C33.1 11.93 33.51 10.72 32.99 9.8L31.09 6.42C30.58 5.52 29.33 5.24 28.3 5.81Z" fill="#3A4F64"/><path d="M19.87 45.52C18.94 46.04 17.77 45.71 17.25 44.78L15.72 42.05C15.2 41.12 15.53 39.95 16.46 39.43L19.63 37.65C20.56 37.13 21.73 37.46 22.25 38.39L23.78 41.12C24.3 42.05 23.97 43.22 23.04 43.74L19.87 45.52Z" fill="#2C729F"/><path d="M21.86 42.75 18.7 44.53C18.2 44.81 17.58 44.63 17.3 44.14L15.77 41.41C15.49 40.91 15.67 40.29 16.16 40.01L19.32 38.23C19.82 37.95 20.44 38.13 20.72 38.62L22.25 41.35C22.53 41.85 22.36 42.47 21.86 42.75Z" fill="#FFFFFF"/><path d="M26.91 41.56C25.98 42.08 24.81 41.75 24.29 40.82L22.76 38.09C22.24 37.16 22.57 35.99 23.5 35.47L26.67 33.69C27.6 33.17 28.77 33.5 29.29 34.43L30.82 37.16C31.34 38.09 31.01 39.26 30.08 39.78L26.91 41.56Z" fill="#2C729F"/><path d="M28.91 38.79 25.75 40.57C25.25 40.85 24.63 40.67 24.35 40.18L22.82 37.45C22.54 36.95 22.72 36.33 23.21 36.05L26.37 34.27C26.87 33.99 27.49 34.17 27.77 34.66L29.3 37.39C29.58 37.89 29.4 38.52 28.91 38.79Z" fill="#FFFFFF"/><path d="M33.96 37.6C33.03 38.12 31.86 37.79 31.34 36.86L29.81 34.13C29.29 33.2 29.62 32.03 30.55 31.51L33.72 29.73C34.65 29.21 35.82 29.54 36.34 30.47L37.87 33.2C38.39 34.13 38.06 35.3 37.13 35.82L33.96 37.6Z" fill="#2C729F"/><path d="M35.95 34.83 32.79 36.61C32.29 36.89 31.67 36.71 31.39 36.22L29.86 33.49C29.58 32.99 29.76 32.37 30.25 32.09L33.41 30.31C33.91 30.03 34.53 30.21 34.81 30.7L36.34 33.43C36.63 33.93 36.45 34.56 35.95 34.83Z" fill="#FFFFFF"/><path d="M41.01 33.64C40.08 34.16 38.91 33.83 38.39 32.9L36.86 30.17C36.34 29.24 36.67 28.07 37.6 27.55L40.77 25.77C41.7 25.25 42.87 25.58 43.39 26.51L44.92 29.24C45.44 30.17 45.11 31.34 44.18 31.86L41.01 33.64Z" fill="#2C729F"/><path d="M43 30.88 39.84 32.66C39.34 32.94 38.72 32.76 38.44 32.27L36.91 29.54C36.63 29.04 36.81 28.42 37.3 28.14L40.46 26.36C40.96 26.08 41.58 26.26 41.86 26.75L43.39 29.48C43.67 29.97 43.5 30.6 43 30.88Z" fill="#FCAF17"/><path d="M36.77 26.09C35.84 26.61 34.67 26.28 34.15 25.35L32.62 22.62C32.1 21.69 32.43 20.52 33.36 20L36.53 18.22C37.46 17.7 38.63 18.03 39.15 18.96L40.68 21.69C41.2 22.62 40.87 23.79 39.94 24.31L36.77 26.09Z" fill="#2C729F"/><path d="M38.8 23.39 35.64 25.17C35.14 25.45 34.52 25.27 34.24 24.78L32.71 22.05C32.43 21.55 32.61 20.93 33.1 20.65L36.26 18.87C36.76 18.59 37.38 18.77 37.66 19.26L39.19 21.99C39.47 22.48 39.29 23.11 38.8 23.39Z" fill="#F04923"/><path d="M23.17 51.4C22.24 51.92 21.07 51.59 20.55 50.66L19.02 47.93C18.5 47 18.83 45.83 19.76 45.31L22.93 43.53C23.86 43.01 25.03 43.34 25.55 44.27L27.07 47C27.59 47.93 27.26 49.1 26.33 49.62L23.17 51.4Z" fill="#2C729F"/><path d="M25.17 48.64 22 50.41C21.5 50.69 20.88 50.51 20.6 50.02L19.07 47.29C18.79 46.79 18.97 46.17 19.46 45.89L22.62 44.11C23.12 43.83 23.74 44.01 24.02 44.5L25.55 47.23C25.84 47.73 25.66 48.36 25.17 48.64Z" fill="#FFFFFF"/><path d="M30.22 47.44C29.29 47.96 28.12 47.63 27.6 46.7L26.07 43.97C25.55 43.04 25.88 41.87 26.81 41.35L29.97 39.57C30.9 39.05 32.07 39.38 32.59 40.31L34.12 43.04C34.64 43.97 34.31 45.14 33.38 45.66L30.22 47.44Z" fill="#2C729F"/><path d="M32.21 44.68 29.05 46.46C28.55 46.74 27.93 46.56 27.65 46.07L26.12 43.34C25.84 42.84 26.02 42.22 26.51 41.94L29.67 40.16C30.17 39.88 30.79 40.06 31.07 40.55L32.6 43.28C32.88 43.77 32.71 44.4 32.21 44.68Z" fill="#FFFFFF"/><path d="M37.27 43.48C36.34 44 35.17 43.67 34.65 42.74L33.12 40.01C32.6 39.08 32.93 37.91 33.86 37.39L37.03 35.61C37.96 35.09 39.13 35.42 39.65 36.35L41.18 39.08C41.7 40.01 41.37 41.18 40.44 41.7L37.27 43.48Z" fill="#2C729F"/><path d="M39.26 40.72 36.1 42.5C35.6 42.78 34.98 42.6 34.7 42.11L33.17 39.38C32.89 38.88 33.07 38.26 33.56 37.98L36.72 36.2C37.22 35.92 37.84 36.1 38.12 36.59L39.65 39.32C39.93 39.81 39.76 40.44 39.26 40.72Z" fill="#FFFFFF"/><path d="M47.62 45.41C46.69 45.93 45.52 45.6 45 44.67L39.99 35.75C39.47 34.82 39.8 33.65 40.73 33.13L43.9 31.35C44.83 30.83 46 31.16 46.52 32.09L51.53 41.01C52.05 41.94 51.72 43.11 50.79 43.63L47.62 45.41Z" fill="#2C729F"/><path d="M49.61 42.64 46.45 44.42C45.95 44.7 45.33 44.52 45.05 44.03L40.04 35.11C39.76 34.61 39.94 33.99 40.43 33.71L43.59 31.93C44.09 31.65 44.71 31.83 44.99 32.32L50 41.24C50.28 41.74 50.11 42.37 49.61 42.64Z" fill="#FCAF17"/><path d="M43.6 31.93 42.1 32.77 48.12 43.48 49.62 42.64C50.12 42.36 50.29 41.73 50.01 41.24L45 32.33C44.72 31.83 44.09 31.65 43.6 31.93Z" fill="#F7901E"/><path d="M26.48 57.29C25.55 57.81 24.38 57.48 23.86 56.55L22.33 53.82C21.81 52.89 22.14 51.72 23.07 51.2L26.24 49.42C27.17 48.9 28.34 49.23 28.86 50.16L30.39 52.89C30.91 53.82 30.58 54.99 29.65 55.51L26.48 57.29Z" fill="#2C729F"/><path d="M28.47 54.52 25.31 56.3C24.81 56.58 24.19 56.4 23.91 55.91L22.38 53.18C22.1 52.68 22.28 52.06 22.77 51.78L25.93 50C26.43 49.72 27.05 49.9 27.33 50.39L28.86 53.12C29.14 53.61 28.97 54.24 28.47 54.52Z" fill="#FFFFFF"/><path d="M33.52 53.33C32.59 53.85 31.42 53.52 30.9 52.59L29.37 49.86C28.85 48.93 29.18 47.76 30.11 47.24L33.28 45.46C34.21 44.94 35.38 45.27 35.9 46.2L37.43 48.93C37.95 49.86 37.62 51.03 36.69 51.55L33.52 53.33Z" fill="#2C729F"/><path d="M35.52 50.56 32.36 52.34C31.86 52.62 31.24 52.44 30.96 51.95L29.43 49.22C29.15 48.72 29.33 48.1 29.82 47.82L32.98 46.04C33.48 45.76 34.1 45.94 34.38 46.43L35.91 49.16C36.19 49.66 36.01 50.28 35.52 50.56Z" fill="#FFFFFF"/><path d="M40.57 49.37C39.64 49.89 38.47 49.56 37.95 48.63L36.42 45.9C35.9 44.97 36.23 43.8 37.16 43.28L40.33 41.5C41.26 40.98 42.43 41.31 42.95 42.24L44.48 44.97C45 45.9 44.67 47.07 43.74 47.59L40.57 49.37Z" fill="#2C729F"/><path d="M42.57 46.6 39.41 48.38C38.91 48.66 38.29 48.48 38.01 47.99L36.48 45.26C36.2 44.76 36.38 44.14 36.87 43.86L40.03 42.08C40.53 41.8 41.15 41.98 41.43 42.47L42.96 45.2C43.24 45.7 43.06 46.32 42.57 46.6Z" fill="#FFFFFF"/><path d="M16.04 37.7C14.53 38.55 12.61 38.01 11.76 36.5 10.91 34.99 11.45 33.07 12.96 32.22 14.47 31.37 16.39 31.91 17.24 33.42 18.09 34.93 17.55 36.85 16.04 37.7Z" fill="#2C729F"/><path d="M17.19 34.06C17.8 35.14 17.41 36.51 16.33 37.12 15.25 37.73 13.88 37.34 13.27 36.26 12.66 35.18 13.05 33.81 14.13 33.2 15.21 32.59 16.58 32.98 17.19 34.06Z" fill="#CDD4E1"/><path d="M21.17 34.82C19.66 35.67 17.74 35.13 16.89 33.62 16.04 32.11 16.58 30.19 18.09 29.34 19.6 28.49 21.52 29.03 22.37 30.54 23.22 32.05 22.68 33.97 21.17 34.82Z" fill="#2C729F"/><path d="M22.32 31.18C22.93 32.26 22.54 33.63 21.46 34.24 20.38 34.85 19.01 34.46 18.4 33.38 17.79 32.3 18.18 30.93 19.26 30.32 20.34 29.71 21.71 30.1 22.32 31.18Z" fill="#CDD4E1"/><path d="M26.3 31.94C24.79 32.79 22.87 32.25 22.02 30.74 21.17 29.23 21.71 27.31 23.22 26.46 24.73 25.61 26.65 26.15 27.5 27.66 28.35 29.17 27.81 31.09 26.3 31.94Z" fill="#2C729F"/><path d="M27.45 28.3C28.06 29.38 27.67 30.75 26.59 31.36 25.51 31.97 24.14 31.58 23.53 30.5 22.92 29.42 23.31 28.05 24.39 27.44 25.47 26.83 26.84 27.21 27.45 28.3Z" fill="#CDD4E1"/><path d="M31.43 29.06C29.92 29.91 28 29.37 27.15 27.86 26.3 26.35 26.84 24.43 28.35 23.58 29.86 22.73 31.79 23.27 32.63 24.78 33.48 26.28 32.94 28.21 31.43 29.06Z" fill="#2C729F"/><path d="M32.58 25.42C33.19 26.5 32.8 27.87 31.72 28.48 30.64 29.09 29.27 28.7 28.66 27.62 28.05 26.54 28.44 25.17 29.52 24.56 30.6 23.95 31.97 24.33 32.58 25.42Z" fill="#CDD4E1"/><path d="M40.46 26.35 38.88 27.24 41.42 31.77 43 30.88C43.5 30.6 43.67 29.97 43.39 29.48L41.86 26.75C41.58 26.25 40.95 26.07 40.46 26.35Z" fill="#F7901E"/><path d="M36.25 18.86 34.67 19.75 37.21 24.28 38.79 23.39C39.29 23.11 39.46 22.48 39.18 21.99L37.65 19.26C37.38 18.76 36.75 18.59 36.25 18.86Z" fill="#D0181F"/><g><g><path d="M29.07 13.4 28.58 8.27 26.28 9.56 25.61 8.37 29.44 6.22 29.91 7.06 30.54 12.56 29.07 13.4Z" fill="#C8D4D5"/></g></g></g><path d="M28.73 16.03C28.73 16.03 28.72 16.03 28.73 16.03L14.49 24.03C14.37 24.1 14.22 24.05 14.15 23.94 14.08 23.82 14.13 23.67 14.24 23.6 14.24 23.6 14.24 23.6 14.24 23.6L28.48 15.6C28.6 15.53 28.75 15.58 28.82 15.69 28.88 15.81 28.84 15.96 28.73 16.03Z" fill="#91D9F8"/></g></svg>