<svg width="28.05" height="33.69" viewBox="0 0 28.05 33.69" xmlns="http://www.w3.org/2000/svg" xmlns:xlink="http://www.w3.org/1999/xlink" xml:space="preserve" overflow="hidden"><defs></defs><g><g><path d="M7.74 0.42 5.68 1.84 2.98 3.7 0.92 5.12C0.92 5.12-0.81 6.56 1.11 9.33L13.78 27.73C15.69 30.51 17.65 29.41 17.65 29.41L19.71 27.99 22.4 26.14 24.47 24.72C24.47 24.72 26.19 23.28 24.28 20.51L11.61 2.1C9.7-0.68 7.74 0.42 7.74 0.42Z" fill="#D03137"/><path d="M24.59 24.88 17.77 29.58C17.73 29.6 17.2 29.9 16.41 29.82 15.7 29.75 14.64 29.35 13.61 27.85L0.94 9.45C-0.1 7.95-0.09 6.82 0.1 6.13 0.3 5.37 0.77 4.98 0.79 4.96L7.63 0.25C7.66 0.23 8.2-0.06 8.98 0.01 9.69 0.08 10.75 0.48 11.78 1.98L24.45 20.38C25.48 21.88 25.48 23.01 25.29 23.7 25.08 24.46 24.62 24.85 24.6 24.87 24.6 24.87 24.59 24.87 24.59 24.88ZM1.04 5.29C0.99 5.33-0.5 6.64 1.27 9.22L13.94 27.62C15.72 30.21 17.52 29.24 17.54 29.23L24.34 24.55C24.46 24.44 25.84 23.14 24.11 20.62L11.44 2.21C9.67-0.36 7.92 0.56 7.84 0.6L1.04 5.29Z" fill="#873316"/></g><path d="M7.74 0.42 5.68 1.84 2.98 3.7 0.92 5.12C0.92 5.12-0.81 6.56 1.11 9.33L13.78 27.73C15.69 30.51 17.65 29.41 17.65 29.41L19.71 27.99 22.4 26.14 24.47 24.72C24.47 24.72 26.19 23.28 24.28 20.51L11.61 2.1C9.7-0.68 7.74 0.42 7.74 0.42ZM10.23 2.75C10.52 3.34 9.59 3.94 9.59 3.94L3.16 8.37C2.34 9 2.01 8.16 2.01 8.16L1.14 6.89C0.77 6.18 1.21 5.67 1.21 5.67L7.96 1.02C8.58 0.59 9.08 1.08 9.08 1.08L10.23 2.75Z" fill="#D03137"/><g><path d="M9.07 1.62C9.05 1.62 9.04 1.63 9.03 1.64L1.6 6.76C1.59 6.77 1.57 6.77 1.56 6.78 1.51 6.83 0.77 7.72 0.79 8.6L1.76 10.01C1.3 8.51 2.09 7.69 2.21 7.59L9.59 2.51C9.74 2.43 10.72 2.01 11.9 2.87L11.06 1.65C9.87 1.17 9.08 1.61 9.07 1.62Z" fill="#FFFAD3"/></g><g><path d="M10.41 4.29 8.34 5.71 5.65 7.57 3.58 8.99C3.58 8.99 1.85 10.43 3.77 13.2L16.44 31.6C18.35 34.38 20.31 33.28 20.31 33.28L22.37 31.86 25.07 30 27.14 28.58C27.14 28.58 28.86 27.15 26.95 24.37L14.27 5.96C12.36 3.19 10.41 4.29 10.41 4.29Z" fill="#F5353D"/><path d="M27.25 28.74 20.43 33.44C20.39 33.46 19.86 33.76 19.07 33.68 18.36 33.61 17.3 33.21 16.27 31.71L3.6 13.32C2.57 11.82 2.57 10.69 2.76 10 2.97 9.24 3.43 8.85 3.45 8.83L10.29 4.12C10.33 4.1 10.86 3.81 11.64 3.88 12.35 3.95 13.41 4.35 14.44 5.85L27.11 24.25C28.14 25.75 28.14 26.88 27.95 27.57 27.74 28.33 27.28 28.72 27.26 28.74 27.26 28.73 27.25 28.74 27.25 28.74ZM3.7 9.16C3.65 9.2 2.16 10.51 3.94 13.09L16.61 31.49C18.38 34.07 20.14 33.14 20.21 33.1L27.01 28.42C27.13 28.31 28.51 27 26.78 24.49L14.11 6.08C12.33 3.49 10.53 4.46 10.51 4.47L3.7 9.16Z" fill="#873316"/></g><g><path d="M9.41 21.39 16.44 31.6C18.35 34.38 20.31 33.28 20.31 33.28L27.13 28.58C27.13 28.58 28.85 27.15 26.94 24.37L19.91 14.16 9.41 21.39Z" fill="#1AA1CD"/><path d="M27.25 28.74 20.43 33.44C20.39 33.46 18.27 34.61 16.27 31.71L9.24 21.5C9.18 21.41 9.2 21.28 9.29 21.21L19.8 13.97C19.89 13.91 20.02 13.93 20.08 14.02L27.11 24.23C29.11 27.13 27.28 28.7 27.26 28.72 27.26 28.73 27.25 28.74 27.25 28.74ZM9.69 21.44 16.61 31.48C18.39 34.07 20.19 33.1 20.21 33.09L27.01 28.41C27.13 28.3 28.51 26.99 26.78 24.48L19.86 14.44 9.69 21.44Z" fill="#0087BD"/></g><path d="M10.22 20.02 4.78 12.12C4.78 12.12 4.02 11.11 4.41 10.22 4.8 9.33 7.1 7.23 7.1 7.23L5.07 8.63C5.07 8.63 2.68 10.24 4.02 12.19L9.68 20.41 10.22 20.02Z" fill="#FFFFFF" opacity="0.3"/><path d="M16.99 29.86 10.97 21.12 10.42 21.5C13.55 26.05 16.63 30.52 16.63 30.52 16.63 30.52 18.61 33.21 20.24 32.41 20.25 32.41 18.37 31.86 16.99 29.86Z" fill="#A2A4A6" opacity="0.5"/></g></svg>