<svg width="79.27" height="135.65" viewBox="0 0 79.27 135.65" xmlns="http://www.w3.org/2000/svg" xmlns:xlink="http://www.w3.org/1999/xlink" xml:space="preserve" overflow="hidden"><defs></defs><g><g><path d="M78.6 0.54 0.48 14.34 21.67 134.21 78.6 0.54ZM55 21.58 26.04 89.56 15.27 28.6 55 21.58Z" fill="#9EDAE2"/><path d="M21.5 135.65 0 14.01 79.27 0 21.5 135.65ZM0.95 14.67 21.82 132.78 77.92 1.07 0.95 14.67ZM25.88 90.99 14.79 28.27 55.66 21.05 25.88 90.99ZM15.74 28.93 26.2 88.12 54.31 22.11 15.74 28.93Z" fill="#398D9F"/></g><path d="M24.07 105.3 62.05 15.04 9.76 24.29 24.07 105.3ZM55 21.58 26.04 89.56 15.27 28.6 55 21.58Z" fill="#00B4DC" opacity="0.4"/><g><g><rect x="68.82" y="15.11" width="0.39" height="3.53" fill="#006DAE" transform="matrix(0.393 -0.9195 0.9195 0.393 26.3732 73.7096)"/><rect x="71.5" y="11.15" width="0.2" height="2.37" fill="#006DAE" transform="matrix(0.3928 -0.9196 0.9196 0.3928 32.1281 73.3281)"/><rect x="70.99" y="12.34" width="0.2" height="2.37" fill="#006DAE" transform="matrix(0.3932 -0.9194 0.9194 0.3932 30.6932 73.5643)"/><rect x="70.47" y="13.53" width="0.2" height="2.37" fill="#006DAE" transform="matrix(0.3934 -0.9194 0.9194 0.3934 29.2743 73.8102)"/><rect x="69.96" y="14.73" width="0.2" height="2.37" fill="#006DAE" transform="matrix(0.3928 -0.9196 0.9196 0.3928 27.9077 74.0922)"/></g><g><rect x="66.24" y="21.15" width="0.39" height="3.53" fill="#006DAE" transform="matrix(0.3931 -0.9195 0.9195 0.3931 19.2467 74.9925)"/><rect x="68.91" y="17.18" width="0.2" height="2.37" fill="#006DAE" transform="matrix(0.3932 -0.9194 0.9194 0.3932 24.9804 74.5964)"/><rect x="68.4" y="18.38" width="0.2" height="2.37" fill="#006DAE" transform="matrix(0.3932 -0.9194 0.9194 0.3932 23.5728 74.851)"/><rect x="67.89" y="19.57" width="0.2" height="2.37" fill="#006DAE" transform="matrix(0.3932 -0.9194 0.9194 0.3932 22.1671 75.1051)"/><rect x="67.38" y="20.76" width="0.2" height="2.37" fill="#006DAE" transform="matrix(0.3928 -0.9196 0.9196 0.3928 20.7859 75.3816)"/></g><g><rect x="63.65" y="27.19" width="0.39" height="3.53" fill="#006DAE" transform="matrix(0.393 -0.9195 0.9195 0.393 12.1318 76.2853)"/><rect x="66.33" y="23.22" width="0.2" height="2.37" fill="#006DAE" transform="matrix(0.3934 -0.9194 0.9194 0.3934 17.8503 75.8739)"/><path d="M64.79 25.22 64.86 25.04 67.04 25.98 66.97 26.16Z" fill="#006DAE"/><path d="M64.27 26.42 64.35 26.24 66.53 27.17 66.46 27.35Z" fill="#006DAE"/><rect x="64.79" y="26.8" width="0.2" height="2.37" fill="#006DAE" transform="matrix(0.3932 -0.9194 0.9194 0.3932 13.6409 76.6458)"/></g><g><rect x="61.07" y="33.23" width="0.39" height="3.53" fill="#006DAE" transform="matrix(0.393 -0.9195 0.9195 0.393 5.0104 77.5725)"/><rect x="63.74" y="29.26" width="0.2" height="2.37" fill="#006DAE" transform="matrix(0.393 -0.9195 0.9195 0.393 10.7541 77.1846)"/><rect x="63.23" y="30.45" width="0.2" height="2.37" fill="#006DAE" transform="matrix(0.393 -0.9195 0.9195 0.393 9.3468 77.4389)"/><path d="M61.69 32.46 61.77 32.27 63.95 33.21 63.87 33.39Z" fill="#006DAE"/><rect x="62.21" y="32.84" width="0.2" height="2.37" fill="#006DAE" transform="matrix(0.3932 -0.9194 0.9194 0.3932 6.5212 77.9319)"/></g><g><rect x="58.49" y="39.25" width="0.39" height="3.53" fill="#006DAE" transform="matrix(0.393 -0.9195 0.9195 0.393 -2.0895 78.8567)"/><rect x="61.16" y="35.28" width="0.2" height="2.37" fill="#006DAE" transform="matrix(0.3932 -0.9194 0.9194 0.3932 3.6413 78.4526)"/><rect x="60.65" y="36.47" width="0.2" height="2.37" fill="#006DAE" transform="matrix(0.3928 -0.9196 0.9196 0.3928 2.2541 78.7347)"/><rect x="60.14" y="37.67" width="0.2" height="2.37" fill="#006DAE" transform="matrix(0.3934 -0.9194 0.9194 0.3934 0.8204 78.9488)"/><rect x="59.63" y="38.86" width="0.2" height="2.37" fill="#006DAE" transform="matrix(0.393 -0.9195 0.9195 0.393 -0.5674 79.2316)"/></g><g><rect x="55.91" y="45.28" width="0.39" height="3.53" fill="#006DAE" transform="matrix(0.3932 -0.9194 0.9194 0.3932 -9.2178 80.1295)"/><rect x="58.58" y="41.32" width="0.2" height="2.37" fill="#006DAE" transform="matrix(0.3934 -0.9194 0.9194 0.3934 -3.4853 79.7268)"/><rect x="58.07" y="42.51" width="0.2" height="2.37" fill="#006DAE" transform="matrix(0.3932 -0.9194 0.9194 0.3932 -4.8849 79.9933)"/><rect x="57.56" y="43.7" width="0.2" height="2.37" fill="#006DAE" transform="matrix(0.3932 -0.9194 0.9194 0.3932 -6.2913 80.248)"/><rect x="57.05" y="44.9" width="0.2" height="2.37" fill="#006DAE" transform="matrix(0.3928 -0.9196 0.9196 0.3928 -7.6809 80.5325)"/></g><g><rect x="53.32" y="51.32" width="0.39" height="3.53" fill="#006DAE" transform="matrix(0.393 -0.9195 0.9195 0.393 -16.3312 81.4322)"/><rect x="55.99" y="47.36" width="0.2" height="2.37" fill="#006DAE" transform="matrix(0.3934 -0.9194 0.9194 0.3934 -10.6038 81.0129)"/><rect x="55.48" y="48.55" width="0.2" height="2.37" fill="#006DAE" transform="matrix(0.3928 -0.9196 0.9196 0.3928 -11.9886 81.3123)"/><rect x="54.97" y="49.74" width="0.2" height="2.37" fill="#006DAE" transform="matrix(0.3952 -0.9186 0.9186 0.3952 -13.474 81.3925)"/><rect x="54.46" y="50.93" width="0.2" height="2.37" fill="#006DAE" transform="matrix(0.393 -0.9195 0.9195 0.393 -14.8094 81.8074)"/></g><g><rect x="50.74" y="57.36" width="0.39" height="3.53" fill="#006DAE" transform="matrix(0.3931 -0.9195 0.9195 0.3931 -23.4542 82.7128)"/><rect x="53.41" y="53.39" width="0.2" height="2.37" fill="#006DAE" transform="matrix(0.3993 -0.9168 0.9168 0.3993 -17.8985 81.8424)"/><rect x="52.9" y="54.59" width="0.2" height="2.37" fill="#006DAE" transform="matrix(0.3928 -0.9196 0.9196 0.3928 -19.1112 82.6011)"/><rect x="52.39" y="55.78" width="0.2" height="2.37" fill="#006DAE" transform="matrix(0.3932 -0.9194 0.9194 0.3932 -20.5295 82.8214)"/><rect x="51.88" y="56.97" width="0.2" height="2.37" fill="#006DAE" transform="matrix(0.3952 -0.9186 0.9186 0.3952 -21.9883 82.9219)"/></g><g><rect x="48.01" y="63.72" width="0.39" height="3.53" fill="#006DAE" transform="matrix(0.3931 -0.9195 0.9195 0.3931 -30.9584 84.07)"/><rect x="50.68" y="59.76" width="0.2" height="2.37" fill="#006DAE" transform="matrix(0.3932 -0.9194 0.9194 0.3932 -25.2206 83.6688)"/><path d="M49.14 61.76 49.22 61.58 51.4 62.51 51.32 62.69Z" fill="#006DAE"/><rect x="49.66" y="62.14" width="0.2" height="2.37" fill="#006DAE" transform="matrix(0.3932 -0.9194 0.9194 0.3932 -28.034 84.1776)"/><rect x="49.15" y="63.34" width="0.2" height="2.37" fill="#006DAE" transform="matrix(0.3928 -0.9196 0.9196 0.3928 -29.4313 84.4688)"/></g><g><rect x="45.43" y="69.76" width="0.39" height="3.53" fill="#006DAE" transform="matrix(0.393 -0.9195 0.9195 0.393 -38.0766 85.3655)"/><rect x="48.1" y="65.79" width="0.2" height="2.37" fill="#006DAE" transform="matrix(0.3932 -0.9194 0.9194 0.3932 -32.3403 84.9561)"/><rect x="47.59" y="66.99" width="0.2" height="2.37" fill="#006DAE" transform="matrix(0.3928 -0.9196 0.9196 0.3928 -33.7394 85.2483)"/><rect x="47.08" y="68.18" width="0.2" height="2.37" fill="#006DAE" transform="matrix(0.3932 -0.9194 0.9194 0.3932 -35.1531 85.4643)"/><rect x="46.57" y="69.37" width="0.2" height="2.37" fill="#006DAE" transform="matrix(0.3928 -0.9196 0.9196 0.3928 -36.553 85.7572)"/></g><g><rect x="42.84" y="75.8" width="0.39" height="3.53" fill="#006DAE" transform="matrix(0.3931 -0.9195 0.9195 0.3931 -45.1985 86.6446)"/><rect x="45.51" y="71.83" width="0.2" height="2.37" fill="#006DAE" transform="matrix(0.3932 -0.9194 0.9194 0.3932 -39.4605 86.2426)"/><rect x="45" y="73.02" width="0.2" height="2.37" fill="#006DAE" transform="matrix(0.3928 -0.9196 0.9196 0.3928 -40.8607 86.5371)"/><rect x="44.49" y="74.22" width="0.2" height="2.37" fill="#006DAE" transform="matrix(0.3934 -0.9194 0.9194 0.3934 -42.275 86.734)"/><rect x="43.98" y="75.41" width="0.2" height="2.37" fill="#006DAE" transform="matrix(0.3932 -0.9194 0.9194 0.3932 -43.6792 87.005)"/></g><g><rect x="40.26" y="81.83" width="0.39" height="3.53" fill="#006DAE" transform="matrix(0.393 -0.9195 0.9195 0.393 -52.3183 87.941)"/><rect x="42.93" y="77.87" width="0.2" height="2.37" fill="#006DAE" transform="matrix(0.3952 -0.9186 0.9186 0.3952 -46.5962 87.3434)"/><rect x="42.42" y="79.06" width="0.2" height="2.37" fill="#006DAE" transform="matrix(0.3932 -0.9194 0.9194 0.3932 -47.9863 87.7842)"/><rect x="41.91" y="80.26" width="0.2" height="2.37" fill="#006DAE" transform="matrix(0.3934 -0.9194 0.9194 0.3934 -49.3939 88.0193)"/><rect x="41.4" y="81.45" width="0.2" height="2.37" fill="#006DAE" transform="matrix(0.3928 -0.9196 0.9196 0.3928 -50.7963 88.3355)"/></g><g><rect x="37.68" y="87.86" width="0.39" height="3.53" fill="#006DAE" transform="matrix(0.393 -0.9195 0.9195 0.393 -59.4193 89.225)"/><rect x="40.35" y="83.89" width="0.2" height="2.37" fill="#006DAE" transform="matrix(0.3932 -0.9194 0.9194 0.3932 -53.6789 88.813)"/><rect x="39.84" y="85.08" width="0.2" height="2.37" fill="#006DAE" transform="matrix(0.3932 -0.9194 0.9194 0.3932 -55.0853 89.0664)"/><rect x="39.33" y="86.28" width="0.2" height="2.37" fill="#006DAE" transform="matrix(0.393 -0.9195 0.9195 0.393 -56.4921 89.3471)"/><rect x="38.82" y="87.47" width="0.2" height="2.37" fill="#006DAE" transform="matrix(0.3932 -0.9194 0.9194 0.3932 -57.8986 89.5751)"/></g><g><rect x="35.09" y="93.89" width="0.39" height="3.53" fill="#006DAE" transform="matrix(0.393 -0.9195 0.9195 0.393 -66.5395 90.5128)"/><rect x="37.77" y="89.93" width="0.2" height="2.37" fill="#006DAE" transform="matrix(0.393 -0.9195 0.9195 0.393 -60.7989 90.1255)"/><rect x="37.26" y="91.12" width="0.2" height="2.37" fill="#006DAE" transform="matrix(0.3928 -0.9196 0.9196 0.3928 -62.2059 90.4003)"/><rect x="36.75" y="92.31" width="0.2" height="2.37" fill="#006DAE" transform="matrix(0.3934 -0.9194 0.9194 0.3934 -63.6103 90.5877)"/><rect x="36.24" y="93.51" width="0.2" height="2.37" fill="#006DAE" transform="matrix(0.3932 -0.9194 0.9194 0.3932 -65.0183 90.8623)"/></g><g><rect x="32.51" y="99.93" width="0.39" height="3.53" fill="#006DAE" transform="matrix(0.3932 -0.9194 0.9194 0.3932 -73.6577 91.7759)"/><rect x="35.18" y="95.97" width="0.2" height="2.37" fill="#006DAE" transform="matrix(0.393 -0.9195 0.9195 0.393 -67.92 91.414)"/><rect x="34.67" y="97.16" width="0.2" height="2.37" fill="#006DAE" transform="matrix(0.3932 -0.9194 0.9194 0.3932 -69.3242 91.6404)"/><rect x="34.16" y="98.35" width="0.2" height="2.37" fill="#006DAE" transform="matrix(0.3932 -0.9194 0.9194 0.3932 -70.7312 91.8944)"/><rect x="33.65" y="99.54" width="0.2" height="2.37" fill="#006DAE" transform="matrix(0.3949 -0.9187 0.9187 0.3949 -72.1214 91.957)"/></g><g><rect x="29.92" y="105.97" width="0.39" height="3.53" fill="#006DAE" transform="matrix(0.393 -0.9195 0.9195 0.393 -80.7809 93.0886)"/><rect x="32.6" y="102" width="0.2" height="2.37" fill="#006DAE" transform="matrix(0.3934 -0.9194 0.9194 0.3934 -75.0354 92.6514)"/><rect x="32.09" y="103.2" width="0.2" height="2.37" fill="#006DAE" transform="matrix(0.3928 -0.9196 0.9196 0.3928 -76.4499 92.9779)"/><rect x="31.58" y="104.39" width="0.2" height="2.37" fill="#006DAE" transform="matrix(0.3928 -0.9196 0.9196 0.3928 -77.8561 93.2324)"/><rect x="31.07" y="105.58" width="0.2" height="2.37" fill="#006DAE" transform="matrix(0.393 -0.9195 0.9195 0.393 -79.2603 93.4654)"/></g><g><rect x="27.18" y="112.39" width="0.39" height="3.53" fill="#006DAE" transform="matrix(0.3931 -0.9195 0.9195 0.3931 -88.3494 94.4464)"/><rect x="29.85" y="108.42" width="0.2" height="2.37" fill="#006DAE" transform="matrix(0.393 -0.9195 0.9195 0.393 -82.6114 94.0713)"/><rect x="29.34" y="109.62" width="0.2" height="2.37" fill="#006DAE" transform="matrix(0.3932 -0.9194 0.9194 0.3932 -84.0138 94.2954)"/><path d="M27.8 111.62 27.87 111.44 30.06 112.37 29.98 112.55Z" fill="#006DAE"/><path d="M27.29 112.81 27.36 112.63 29.55 113.56 29.47 113.74Z" fill="#006DAE"/></g><g><rect x="24.59" y="118.43" width="0.39" height="3.53" fill="#006DAE" transform="matrix(0.3943 -0.919 0.919 0.3943 -95.4386 95.5808)"/><rect x="27.27" y="114.46" width="0.2" height="2.37" fill="#006DAE" transform="matrix(0.3934 -0.9194 0.9194 0.3934 -89.7223 95.3044)"/><rect x="26.75" y="115.65" width="0.2" height="2.37" fill="#006DAE" transform="matrix(0.3934 -0.9194 0.9194 0.3934 -91.1291 95.5582)"/><rect x="26.24" y="116.85" width="0.2" height="2.37" fill="#006DAE" transform="matrix(0.3928 -0.9196 0.9196 0.3928 -92.5502 95.8923)"/><rect x="25.73" y="118.04" width="0.2" height="2.37" fill="#006DAE" transform="matrix(0.3932 -0.9194 0.9194 0.3932 -93.9462 96.09)"/></g><g><rect x="22.01" y="124.46" width="0.39" height="3.53" fill="#006DAE" transform="matrix(0.393 -0.9195 0.9195 0.393 -102.593 97.0336)"/><rect x="24.68" y="120.5" width="0.2" height="2.37" fill="#006DAE" transform="matrix(0.393 -0.9195 0.9195 0.393 -96.8522 96.6471)"/><rect x="24.17" y="121.69" width="0.2" height="2.37" fill="#006DAE" transform="matrix(0.3932 -0.9194 0.9194 0.3932 -98.2525 96.8685)"/><rect x="23.66" y="122.88" width="0.2" height="2.37" fill="#006DAE" transform="matrix(0.3932 -0.9194 0.9194 0.3932 -99.6596 97.1226)"/><rect x="23.15" y="124.08" width="0.2" height="2.37" fill="#006DAE" transform="matrix(0.3934 -0.9194 0.9194 0.3934 -101.06 97.3524)"/></g><g><rect x="73.96" y="3.11" width="0.39" height="3.53" fill="#006DAE" transform="matrix(0.3931 -0.9195 0.9195 0.3931 40.5217 71.1459)"/><rect x="71.41" y="9.07" width="0.39" height="3.53" fill="#006DAE" transform="matrix(0.3942 -0.919 0.919 0.3942 33.4163 72.3735)"/><rect x="74.08" y="5.11" width="0.2" height="2.37" fill="#006DAE" transform="matrix(0.3995 -0.9167 0.9167 0.3995 38.7689 71.7819)"/><rect x="73.57" y="6.3" width="0.2" height="2.37" fill="#006DAE" transform="matrix(0.3913 -0.9202 0.9202 0.3913 37.9466 72.3511)"/><rect x="73.06" y="7.5" width="0.2" height="2.37" fill="#006DAE" transform="matrix(0.3928 -0.9196 0.9196 0.3928 36.4365 72.549)"/><rect x="72.55" y="8.69" width="0.2" height="2.37" fill="#006DAE" transform="matrix(0.3932 -0.9194 0.9194 0.3932 34.9996 72.7858)"/></g></g><path d="M69.81 4.41 3.49 16.13C3.49 16.13 46.9 10.07 69.81 4.41Z" fill="#FFFFFF"/></g></svg>