<svg width="64.27" height="140.39" viewBox="0 0 64.27 140.39" xmlns="http://www.w3.org/2000/svg" xmlns:xlink="http://www.w3.org/1999/xlink" xml:space="preserve" overflow="hidden"><defs></defs><g><defs><filter id="Adobe_OpacityMaskFilter" x="4.83" y="7.07" width="24.89" height="19.64" filterUnits="userSpaceOnUse" primitiveUnits="userSpaceOnUse"><feFlood flood-color="#FFFFFF" result="back"/><feBlend in="SourceGraphic" in2="back" mode="normal"/></filter></defs><mask maskUnits="userSpaceOnUse" x="4.83" y="7.07" width="24.89" height="19.64" id="SVGID_3_"><g filter="url(#Adobe_OpacityMaskFilter)"><defs><filter id="Adobe_OpacityMaskFilter_1_" x="4.83" y="7.07" width="24.89" height="19.64" filterUnits="userSpaceOnUse" primitiveUnits="userSpaceOnUse"><feFlood flood-color="#FFFFFF" result="back"/><feBlend in="SourceGraphic" in2="back" mode="normal"/></filter></defs><mask maskUnits="userSpaceOnUse" x="4.83" y="7.07" width="24.89" height="19.64" id="SVGID_3_"><g filter="url(#Adobe_OpacityMaskFilter_1_)"></g></mask><linearGradient x1="4.8297" y1="16.8835" x2="29.7199" y2="16.8835" gradientUnits="userSpaceOnUse" id="SVGID_4_"><stop offset="0.00128265" stop-color="#FFFFFF"/><stop offset="1"/></linearGradient><path d="M4.83 26.7C4.83 26.7 4.91 26.16 5.18 25.26 5.44 24.36 5.89 23.11 6.57 21.67 7.92 18.8 10.32 15.24 13.54 12.35 14.36 11.65 15.19 10.95 16.09 10.35 16.97 9.73 17.9 9.19 18.84 8.74 20.7 7.82 22.63 7.27 24.32 7.13 25.16 7.06 25.94 7.07 26.62 7.15 27.29 7.18 27.87 7.37 28.34 7.47 28.8 7.58 29.15 7.77 29.38 7.85 29.6 7.94 29.72 8 29.72 8 29.72 8 29.21 8.14 28.32 8.39 27.89 8.54 27.38 8.68 26.82 8.91 26.26 9.11 25.66 9.42 25.02 9.72 22.47 11 19.51 13.25 16.65 15.82 13.79 18.39 10.99 21.18 8.75 23.26 7.62 24.3 6.66 25.16 5.96 25.77 5.26 26.36 4.83 26.7 4.83 26.7Z" fill="url(#SVGID_4_)" mask="url(#SVGID_3_)"/></g></mask><linearGradient x1="4.8297" y1="16.8835" x2="29.7199" y2="16.8835" gradientUnits="userSpaceOnUse" id="SVGID_5_"><stop offset="0.00128265" stop-color="#FFFFFF"/><stop offset="1" stop-color="#FFFFFF"/></linearGradient><defs><filter id="Adobe_OpacityMaskFilter_2_" x="17.19" y="41.82" width="4.66" height="73.1" filterUnits="userSpaceOnUse" primitiveUnits="userSpaceOnUse"><feFlood flood-color="#FFFFFF" result="back"/><feBlend in="SourceGraphic" in2="back" mode="normal"/></filter></defs><mask maskUnits="userSpaceOnUse" x="17.19" y="41.82" width="4.66" height="73.1" id="SVGID_6_"><g filter="url(#Adobe_OpacityMaskFilter_2_)"><defs><filter id="Adobe_OpacityMaskFilter_3_" x="17.19" y="41.82" width="4.66" height="73.1" filterUnits="userSpaceOnUse" primitiveUnits="userSpaceOnUse"><feFlood flood-color="#FFFFFF" result="back"/><feBlend in="SourceGraphic" in2="back" mode="normal"/></filter></defs><mask maskUnits="userSpaceOnUse" x="17.19" y="41.82" width="4.66" height="73.1" id="SVGID_6_"><g filter="url(#Adobe_OpacityMaskFilter_3_)"></g></mask><linearGradient x1="17.1881" y1="78.3739" x2="21.8517" y2="78.3739" gradientUnits="userSpaceOnUse" id="SVGID_7_"><stop offset="0.00128265" stop-color="#FFFFFF"/><stop offset="1"/></linearGradient><path d="M19.52 41.82C19.52 41.82 19.72 42.96 19.98 44.96 20.24 46.96 20.58 49.81 20.85 53.24 21 54.95 21.15 56.81 21.25 58.77 21.36 60.73 21.51 62.8 21.56 64.95 21.62 67.09 21.75 69.3 21.76 71.55 21.79 73.8 21.81 76.08 21.84 78.37 21.82 80.65 21.79 82.94 21.77 85.19 21.75 87.44 21.63 89.65 21.56 91.79 21.4 96.07 21.15 100.07 20.85 103.5 20.58 106.93 20.24 109.78 19.97 111.78 19.71 113.78 19.51 114.92 19.51 114.92 19.51 114.92 19.31 113.78 19.04 111.78 18.78 109.78 18.44 106.93 18.16 103.5 17.86 100.07 17.61 96.08 17.45 91.79 17.38 89.65 17.26 87.44 17.24 85.19 17.22 82.94 17.19 80.66 17.17 78.37 17.2 76.08 17.22 73.8 17.25 71.55 17.26 69.3 17.39 67.09 17.45 64.95 17.51 62.81 17.65 60.74 17.77 58.77 17.87 56.81 18.02 54.95 18.17 53.24 18.44 49.81 18.78 46.96 19.04 44.96 19.32 42.97 19.52 41.82 19.52 41.82Z" fill="url(#SVGID_7_)" mask="url(#SVGID_6_)"/></g></mask><linearGradient x1="17.1881" y1="78.3739" x2="21.8517" y2="78.3739" gradientUnits="userSpaceOnUse" id="SVGID_8_"><stop offset="0.00128265" stop-color="#FFFFFF"/><stop offset="1" stop-color="#FFFFFF"/></linearGradient><g><linearGradient x1="34.5479" y1="-325.952" x2="34.5479" y2="315.05" gradientUnits="userSpaceOnUse" id="SVGID_1_"><stop offset="0" stop-color="#FECC00"/><stop offset="1" stop-color="#C76B43"/></linearGradient><linearGradient x1="29.7192" y1="-173.813" x2="29.7192" y2="265.971" gradientUnits="userSpaceOnUse" id="SVGID_2_"><stop offset="0" stop-color="#FFEBA9"/><stop offset="0.5" stop-color="#FECC00"/><stop offset="1" stop-color="#F8AE00"/></linearGradient><path d="M59.47 115.78C61.57 118.16 63.01 120.65 63.78 123.25 64.55 125.85 64.41 128.3 63.36 130.61 62.31 132.92 56.8 137.9 53.3 138.46 46.57 139.58 42.86 136.57 35.7 136.5 28.55 136.43 21.82 136.32 15.51 136.18 11.16 136.18 8.18 134.85 6.57 132.18 4.96 129.52 4.47 126.61 5.1 123.45 5.73 120.3 7.45 117.42 10.25 114.83 13.05 112.24 16.63 110.94 20.98 110.94L20.98 34.38C19.15 34.8 17.33 34.69 15.51 34.06 13.69 33.43 12.07 32.48 10.67 31.22 9.26 29.96 8.18 28.45 7.41 26.7 6.64 24.95 6.39 23.16 6.67 21.34 7.09 18.26 8.67 15.1 11.4 11.88 14.14 8.66 17.32 5.99 20.97 3.89 24.61 1.79 28.37 0.53 32.22 0.11 36.08-0.31 39.41 0.67 42.21 3.05 43.33 3.89 44.35 5.08 45.26 6.62 46.17 8.17 46.63 9.57 46.63 10.83 46.77 27.66 46.8 44.38 46.73 61 46.66 77.62 46.63 94.27 46.63 110.95L52.1 110.95C54.91 111.78 57.36 113.39 59.47 115.78Z" fill="url(#SVGID_1_)"/><path d="M54.64 119.67C56.74 122.06 58.18 124.54 58.95 127.14 59.72 129.74 59.58 132.19 58.53 134.5 57.48 136.81 55.2 138.25 51.7 138.81 44.97 139.93 38.03 140.46 30.88 140.39 23.73 140.32 17 140.21 10.69 140.07 6.34 140.07 3.36 138.74 1.75 136.07 0.13 133.41-0.35 130.5 0.28 127.34 0.91 124.19 2.63 121.31 5.43 118.72 8.23 116.13 11.81 114.83 16.16 114.83L16.16 38.27C14.33 38.69 12.51 38.59 10.69 37.95 8.87 37.32 7.25 36.37 5.85 35.11 4.45 33.85 3.36 32.34 2.59 30.59 1.82 28.84 1.57 27.05 1.85 25.23 2.27 22.15 3.85 18.99 6.58 15.76 9.32 12.54 12.5 9.87 16.15 7.77 19.8 5.67 23.54 4.4 27.4 3.98 31.25 3.56 34.58 4.54 37.39 6.93 38.51 7.77 39.53 8.96 40.44 10.5 41.35 12.05 41.81 13.45 41.81 14.71 41.95 31.54 41.99 48.26 41.92 64.87 41.85 81.49 41.81 98.14 41.81 114.82L47.28 114.82C50.08 115.67 52.54 117.28 54.64 119.67Z" fill="url(#SVGID_2_)"/></g><path d="M4.83 26.7C4.83 26.7 4.91 26.16 5.18 25.26 5.44 24.36 5.89 23.11 6.57 21.67 7.92 18.8 10.32 15.24 13.54 12.35 14.36 11.65 15.19 10.95 16.09 10.35 16.97 9.73 17.9 9.19 18.84 8.74 20.7 7.82 22.63 7.27 24.32 7.13 25.16 7.06 25.94 7.07 26.62 7.15 27.29 7.18 27.87 7.37 28.34 7.47 28.8 7.58 29.15 7.77 29.38 7.85 29.6 7.94 29.72 8 29.72 8 29.72 8 29.21 8.14 28.32 8.39 27.89 8.54 27.38 8.68 26.82 8.91 26.26 9.11 25.66 9.42 25.02 9.72 22.47 11 19.51 13.25 16.65 15.82 13.79 18.39 10.99 21.18 8.75 23.26 7.62 24.3 6.66 25.16 5.96 25.77 5.26 26.36 4.83 26.7 4.83 26.7Z" fill="url(#SVGID_5_)"/><path d="M19.52 41.82C19.52 41.82 19.72 42.96 19.98 44.96 20.24 46.96 20.58 49.81 20.85 53.24 21 54.95 21.15 56.81 21.25 58.77 21.36 60.73 21.51 62.8 21.56 64.95 21.62 67.09 21.75 69.3 21.76 71.55 21.79 73.8 21.81 76.08 21.84 78.37 21.82 80.65 21.79 82.94 21.77 85.19 21.75 87.44 21.63 89.65 21.56 91.79 21.4 96.07 21.15 100.07 20.85 103.5 20.58 106.93 20.24 109.78 19.97 111.78 19.71 113.78 19.51 114.92 19.51 114.92 19.51 114.92 19.31 113.78 19.04 111.78 18.78 109.78 18.44 106.93 18.16 103.5 17.86 100.07 17.61 96.08 17.45 91.79 17.38 89.65 17.26 87.44 17.24 85.19 17.22 82.94 17.19 80.66 17.17 78.37 17.2 76.08 17.22 73.8 17.25 71.55 17.26 69.3 17.39 67.09 17.45 64.95 17.51 62.81 17.65 60.74 17.77 58.77 17.87 56.81 18.02 54.95 18.17 53.24 18.44 49.81 18.78 46.96 19.04 44.96 19.32 42.97 19.52 41.82 19.52 41.82Z" fill="url(#SVGID_8_)"/></g></svg>