<svg width="483.43" height="669.74" viewBox="0 0 483.43 669.74" xmlns="http://www.w3.org/2000/svg" xmlns:xlink="http://www.w3.org/1999/xlink" xml:space="preserve" overflow="hidden"><defs></defs><g><path d="M363.91 640.55 202.22 521.67 96.2 521.67C52.22 521.67 16.56 486.02 16.56 442.03L16.56 253.69C16.56 209.71 52.21 174.05 96.2 174.05L194.32 174.05 360.19 32.22C402.15-3.66 466.88 26.16 466.88 81.37L466.88 588.45C466.88 641.45 406.61 671.94 363.91 640.55Z" fill="#FFF100"/><path d="M16.56 344.91 16.56 442.03C16.56 486.01 52.21 521.67 96.2 521.67L202.22 521.67 363.91 640.55C406.61 671.95 466.88 641.45 466.88 588.45L466.88 344.91 16.56 344.91Z" fill="#FFCE00"/><path d="M402.15 669.74C385.21 669.74 368.38 664.38 354.12 653.9L354.12 653.87 196.79 538.2 96.18 538.2C43.15 538.2 0 495.06 0 442.02L0 253.7C0 200.66 43.15 157.52 96.18 157.52L188.19 157.52 349.44 19.64C373.81-1.21 407.07-5.86 436.19 7.62 465.34 21.03 483.44 49.28 483.44 81.37L483.44 588.46C483.44 619.26 466.38 647.02 438.9 660.92 427.23 666.83 414.66 669.74 402.15 669.74ZM373.71 627.21C388.64 638.2 407.42 639.72 423.93 631.38 440.48 623.01 450.33 606.98 450.33 588.46L450.33 81.37C450.33 62.08 439.86 45.75 422.34 37.67 404.79 29.53 385.59 32.24 370.95 44.78L200.41 190.61 96.18 190.61C61.4 190.61 33.09 218.92 33.09 253.7L33.09 442.02C33.09 476.8 61.4 505.11 96.18 505.11L207.65 505.11 373.71 627.24 373.71 627.21Z" fill="#841918"/></g></svg>