<svg width="137.43" height="131.88" viewBox="0 0 137.43 131.88" xmlns="http://www.w3.org/2000/svg" xmlns:xlink="http://www.w3.org/1999/xlink" xml:space="preserve" overflow="hidden"><defs></defs><g><g><path d="M137.03 95.63C137.76 98.03 136.44 100.56 134.1 101.27L34.02 131.49C31.68 132.2 29.19 130.82 28.46 128.42L0.4 36.25C-0.33 33.84 0.98 31.32 3.33 30.61L103.41 0.39C105.75-0.32 108.24 1.06 108.97 3.46L137.03 95.63Z" fill="#DE9447"/><g><path d="M32.76 131.88C30.72 131.88 28.87 130.48 28.26 128.48L0.21 36.31C-0.55 33.8 0.83 31.16 3.27 30.42L103.35 0.19C103.78 0.06 104.22 0 104.66 0 106.7 0 108.55 1.4 109.16 3.4L137.22 95.57C137.98 98.08 136.6 100.72 134.16 101.46L34.07 131.68C33.65 131.81 33.21 131.88 32.76 131.88ZM104.66 0.4C104.26 0.4 103.85 0.46 103.46 0.58L3.39 30.8C1.16 31.47-0.1 33.89 0.6 36.19L28.66 128.35C29.21 130.19 30.91 131.47 32.77 131.47 33.17 131.47 33.58 131.41 33.96 131.29L134.04 101.06C136.27 100.39 137.53 97.97 136.83 95.67L108.78 3.52C108.22 1.68 106.53 0.4 104.66 0.4Z"/></g></g><g><path d="M131.88 92.95C132.5 94.99 131.24 97.18 129.07 97.84L36.32 125.85C34.15 126.51 31.89 125.38 31.27 123.34L6.04 40.56C5.42 38.52 6.68 36.33 8.85 35.67L101.6 7.66C103.77 7 106.03 8.13 106.65 10.17L131.88 92.95Z" fill="#BA6938"/><g><path d="M35.06 126.24C33.19 126.24 31.59 125.1 31.07 123.4L5.85 40.61C5.53 39.57 5.67 38.46 6.23 37.49 6.79 36.52 7.7 35.81 8.8 35.47L101.55 7.46C101.98 7.33 102.42 7.26 102.86 7.26 104.73 7.26 106.33 8.4 106.85 10.1L132.08 92.88C132.73 95.03 131.41 97.33 129.13 98.02L36.38 126.03C35.94 126.18 35.5 126.24 35.06 126.24ZM102.86 7.67C102.46 7.67 102.05 7.73 101.66 7.85L8.91 35.86C7.91 36.16 7.08 36.81 6.57 37.69 6.07 38.57 5.94 39.56 6.23 40.5L31.46 123.28C31.92 124.81 33.37 125.84 35.06 125.84 35.46 125.84 35.87 125.78 36.26 125.66L129.01 97.65C131.07 97.03 132.27 94.94 131.69 93.01L106.46 10.23C106 8.7 104.55 7.67 102.86 7.67Z"/></g></g><g><path d="M129.05 92.13C129.65 94.12 128.46 96.24 126.39 96.86L38 123.56C35.93 124.19 33.77 123.08 33.16 121.09L8.37 39.74C7.77 37.75 8.96 35.63 11.03 35.01L99.42 8.31C101.49 7.68 103.65 8.79 104.25 10.78L129.05 92.13Z" fill="#2E4A5B"/><g><path d="M36.83 123.94C35.03 123.94 33.48 122.82 32.98 121.15L8.18 39.8C7.88 38.79 8 37.71 8.53 36.77 9.06 35.83 9.93 35.14 10.98 34.82L99.37 8.12C99.77 8 100.19 7.94 100.6 7.94 102.4 7.94 103.95 9.06 104.45 10.73L129.24 92.08C129.55 93.1 129.42 94.17 128.89 95.11 128.36 96.05 127.49 96.74 126.44 97.06L38.05 123.76C37.66 123.88 37.24 123.94 36.83 123.94ZM100.6 8.34C100.22 8.34 99.85 8.4 99.48 8.51L11.09 35.2C10.14 35.49 9.35 36.11 8.88 36.96 8.4 37.81 8.29 38.77 8.57 39.68L33.36 121.03C33.81 122.53 35.21 123.53 36.83 123.53 37.21 123.53 37.58 123.47 37.95 123.36L126.34 96.66C127.29 96.37 128.08 95.75 128.55 94.9 129.03 94.05 129.14 93.09 128.86 92.18L104.07 10.83C103.62 9.34 102.22 8.34 100.6 8.34Z"/></g></g></g></svg>