<svg width="666.26" height="669.74" viewBox="0 0 666.26 669.74" xmlns="http://www.w3.org/2000/svg" xmlns:xlink="http://www.w3.org/1999/xlink" xml:space="preserve" overflow="hidden"><defs></defs><g><g><path d="M363.9 640.55 202.21 521.67 96.19 521.67C52.21 521.67 16.55 486.02 16.55 442.03L16.55 253.69C16.55 209.71 52.2 174.05 96.19 174.05L194.31 174.05 360.18 32.22C402.14-3.66 466.87 26.16 466.87 81.37L466.87 588.45C466.87 641.45 406.61 671.94 363.9 640.55Z" fill="#FFF100"/><path d="M16.55 336.97 16.55 442.03C16.55 486.01 52.2 521.67 96.19 521.67L202.21 521.67 363.9 640.55C406.6 671.95 466.87 641.45 466.87 588.45L466.87 336.97 16.55 336.97Z" fill="#FFCE00"/><path d="M402.15 669.74C385.21 669.74 368.38 664.38 354.12 653.9L354.12 653.87 196.79 538.2 96.18 538.2C43.15 538.2 0 495.06 0 442.02L0 253.7C0 200.66 43.15 157.52 96.18 157.52L188.19 157.52 349.4 19.64C373.84-1.21 407-5.86 436.21 7.62 465.33 21.03 483.43 49.31 483.43 81.37L483.43 588.46C483.43 619.26 466.37 647.02 438.89 660.92 427.23 666.83 414.66 669.74 402.15 669.74ZM373.71 627.21C388.67 638.2 407.42 639.72 423.93 631.38 440.48 623.01 450.33 606.98 450.33 588.46L450.33 81.37C450.33 62.08 439.86 45.75 422.34 37.67 404.89 29.56 385.59 32.21 370.92 44.78L200.41 190.61 96.18 190.61C61.4 190.61 33.09 218.92 33.09 253.7L33.09 442.02C33.09 476.8 61.4 505.11 96.18 505.11L207.65 505.11 373.71 627.24 373.71 627.21Z" fill="#841918"/></g><g><path d="M600.72 477.22C596.74 477.22 592.74 475.8 589.57 472.89 582.82 466.75 582.33 456.28 588.5 449.52 617.72 417.49 633.17 378.9 633.17 337.89 633.17 296.88 617.72 258.29 588.5 226.26 582.33 219.51 582.81 209.03 589.57 202.89 596.32 196.72 606.83 197.2 612.94 203.96 647.81 242.16 666.27 288.48 666.27 337.89 666.27 387.3 647.82 433.62 612.94 471.82 609.67 475.41 605.21 477.22 600.72 477.22Z" fill="#841918"/><path d="M553.4 429.9C549.52 429.9 545.61 428.54 542.48 425.8 535.63 419.76 534.95 409.28 540.96 402.43 557.99 383.07 566.98 360.74 566.98 337.89 566.98 315.04 558 292.71 540.96 273.35 534.95 266.5 535.63 256.03 542.48 249.98 549.3 243.97 559.77 244.65 565.85 251.5 588.25 277 600.08 306.86 600.08 337.89 600.08 368.92 588.25 398.78 565.85 424.28 562.55 427.99 557.99 429.9 553.4 429.9Z" fill="#841918"/></g></g></svg>