<svg width="74.47" height="14.03" viewBox="0 0 74.47 14.03" xmlns="http://www.w3.org/2000/svg" xmlns:xlink="http://www.w3.org/1999/xlink" xml:space="preserve" overflow="hidden"><defs></defs><g><g><path d="M43.26 13.88C51.88 13.76 59.71 13.27 65.56 12.56L65.49 6.96C59.63 6.41 51.79 6.12 43.17 6.22L43.26 13.88Z" fill="#3B97D3"/><path d="M74.47 9.62 74.47 9.62C74.45 8.09 73.19 6.87 71.67 6.89L65.48 6.97 65.55 12.51 71.74 12.43C73.27 12.4 74.49 11.15 74.47 9.62Z" fill="#F29C1F"/><path d="M74.47 9.63 65.52 9.75 65.56 12.5 71.75 12.42C73.26 12.4 74.48 11.15 74.47 9.63Z" fill="#EE7C22"/><path d="M32.14 14.02 32.04 6.38C18.55 6.66 7.3 7.84 3.01 9.3L3.01 9.3 0.49 9.99C-0.18 10.2-0.16 11.03 0.52 11.21L3.02 11.86C3.02 11.85 3.03 11.85 3.03 11.84 7.34 13.19 18.63 14.08 32.14 14.02Z" fill="#3B97D3"/><path d="M43.21 10.04 43.26 13.89C51.88 13.77 59.71 13.28 65.56 12.57L65.52 9.75 43.21 10.04Z" fill="#317EB0"/><path d="M32.14 14.02 32.09 10.18 0 10.59C0 10.85 0.17 11.12 0.51 11.21L3.01 11.86C3.01 11.85 3.02 11.85 3.02 11.84 7.34 13.19 18.63 14.08 32.14 14.02Z" fill="#317EB0"/><path d="M7.79 12.8 7.73 8.22C5.74 8.55 4.13 8.92 3.01 9.3L3.01 9.3 0.49 9.99C-0.18 10.2-0.16 11.03 0.52 11.21L3.02 11.86C3.02 11.85 3.03 11.85 3.03 11.84 4.16 12.19 5.78 12.52 7.79 12.8Z" fill="#7FB2E0"/><rect x="33.79" y="3.97" width="7.66" height="12.3" fill="#F29C1F" transform="matrix(0.0129 0.9999 -0.9999 0.0129 47.2563 -27.6216)"/><rect x="31.49" y="10.11" width="12.3" height="3.85" fill="#EE7C22" transform="matrix(0.9999 -0.0129 0.0129 0.9999 -0.1526 0.4885)"/><path d="M65.18 6.55C65.18 6.52 65.01 6.3 64.66 5.8 64.31 5.33 63.78 4.65 63.08 4.08 62.74 3.77 62.35 3.55 61.95 3.36 61.54 3.22 61.13 3.08 60.66 3.13 60.43 3.09 60.18 3.2 59.92 3.22 59.65 3.3 59.4 3.4 59.11 3.49 58.41 3.78 57.7 4.07 56.99 4.36 56.28 4.65 55.55 4.92 54.82 5.17 54.09 5.42 53.37 5.67 52.63 5.85 51.9 6.03 51.16 6.18 50.43 6.24 49.7 6.29 48.95 6.24 48.29 6.04 48.06 5.98 48 5.93 47.85 5.87 47.7 5.8 47.55 5.73 47.41 5.66 47.15 5.51 46.91 5.35 46.71 5.19 46.3 4.87 46 4.52 45.79 4.23 45.58 3.93 45.45 3.68 45.37 3.51 45.29 3.34 45.25 3.23 45.25 3.23 45.21 3.11 45.27 2.98 45.39 2.94 45.48 2.91 45.58 2.94 45.64 3L45.66 3.02C45.66 3.02 45.72 3.08 45.83 3.21 45.95 3.33 46.13 3.5 46.38 3.69 46.62 3.88 46.94 4.08 47.32 4.25 47.51 4.33 47.71 4.4 47.93 4.46 48.03 4.48 48.14 4.5 48.24 4.52 48.36 4.53 48.56 4.58 48.61 4.57 49.52 4.64 50.67 4.26 51.91 3.72 52.53 3.44 53.18 3.14 53.83 2.81 54.49 2.47 55.16 2.13 55.82 1.79 56.49 1.44 57.17 1.09 57.83 0.75 58.24 0.58 58.68 0.39 59.11 0.25 59.58 0.16 60.03 0.01 60.52 0.01 61.49-0.07 62.43 0.21 63.23 0.54 63.99 0.95 64.64 1.42 65.11 1.93 66.07 2.94 66.55 3.91 66.84 4.6 67.12 5.27 67.22 5.76 67.22 5.74 67.44 6.3 67.17 6.94 66.61 7.16 66.04 7.39 65.4 7.11 65.18 6.55Z" fill="#A4D5F3"/><rect x="65.51" y="6.14" width="1.83" height="6.34" fill="#A4D5F3" transform="matrix(0.9999 -0.013 0.013 0.9999 -0.1158 0.8665)"/><path d="M32.82 10.62 32.78 7.4C32.78 7.21 33.02 7.06 33.32 7.05 33.62 7.05 33.87 7.19 33.87 7.38L33.91 10.6C33.91 10.79 33.67 10.94 33.37 10.95 33.07 10.96 32.82 10.81 32.82 10.62Z" fill="#EE7C22"/><path d="M35.62 10.59 35.58 7.37C35.58 7.18 35.82 7.03 36.12 7.02 36.42 7.02 36.67 7.16 36.67 7.35L36.71 10.57C36.71 10.76 36.47 10.91 36.17 10.92 35.87 10.92 35.62 10.78 35.62 10.59Z" fill="#EE7C22"/><path d="M38.41 10.55 38.37 7.33C38.37 7.14 38.61 6.99 38.91 6.98 39.21 6.98 39.46 7.12 39.46 7.31L39.5 10.53C39.5 10.72 39.26 10.87 38.96 10.88 38.66 10.89 38.41 10.74 38.41 10.55Z" fill="#EE7C22"/><path d="M41.2 10.52 41.16 7.3C41.16 7.11 41.4 6.96 41.7 6.95 42 6.95 42.25 7.09 42.25 7.28L42.29 10.5C42.29 10.69 42.05 10.84 41.75 10.85 41.45 10.85 41.21 10.7 41.2 10.52Z" fill="#EE7C22"/><path d="M7.79 12.8 7.76 10.5 0 10.59C0 10.85 0.17 11.12 0.51 11.21L3.01 11.86C3.01 11.85 3.02 11.85 3.02 11.84 4.16 12.19 5.78 12.52 7.79 12.8Z" fill="#3B97D3"/><rect x="65.54" y="9.73" width="1.83" height="2.75" fill="#3B97D3" transform="matrix(0.9999 -0.013 0.013 0.9999 -0.1384 0.8622)"/><path d="M70.19 7.63C70.19 7.45 70.33 7.3 70.51 7.29 73.06 7.16 73.73 8.8 73.75 8.87 73.82 9.04 73.73 9.24 73.56 9.31 73.39 9.38 73.19 9.29 73.12 9.12 73.1 9.06 72.57 7.86 70.54 7.97 70.35 7.98 70.19 7.84 70.19 7.65 70.19 7.64 70.19 7.63 70.19 7.63Z" fill="#FFFFFF"/></g><path d="M32.64 12.59C32.64 12.41 32.78 12.25 32.97 12.24L42.06 11.92C42.25 11.91 42.41 12.06 42.41 12.25 42.43 12.43 42.27 12.6 42.08 12.6L33 12.93C32.81 12.93 32.65 12.79 32.64 12.59 32.64 12.6 32.64 12.59 32.64 12.59Z" fill="#FFFFFF"/></g></svg>