<svg width="25.62" height="29.72" viewBox="0 0 25.62 29.72" xmlns="http://www.w3.org/2000/svg" xmlns:xlink="http://www.w3.org/1999/xlink" xml:space="preserve" overflow="hidden"><defs></defs><g><path d="M1.31 24.79C0.32 24.47-0.23 23.41 0.09 22.41L1.7 17.4C1.9 16.78 2.4 16.3 3.04 16.14 4.45 15.78 5.64 14.57 6.15 12.98 6.66 11.39 6.4 9.71 5.46 8.6 5.03 8.1 4.89 7.42 5.09 6.8L6.85 1.31C7.17 0.32 8.23-0.23 9.23 0.09L24.3 4.92C25.3 5.24 25.84 6.3 25.52 7.3L23.76 12.79C23.56 13.41 23.06 13.89 22.43 14.05 21.02 14.41 19.83 15.62 19.32 17.21 18.81 18.8 19.07 20.48 20.01 21.59 20.43 22.09 20.57 22.77 20.37 23.39L18.76 28.41C18.44 29.4 17.38 29.95 16.38 29.63L1.31 24.79Z" fill="#E34A44"/><rect x="1.1" y="8.57" width="18.88" height="3.72" fill="#A8090A" fill-opacity="0.5" transform="matrix(0.3052 -0.9523 0.9523 0.3052 -2.6031 17.2786)"/><path d="M10.75 25.02C13 25.74 15.46 24.33 16.25 21.87L21.92 4.16 13.78 1.55 8.11 19.26C7.32 21.72 8.5 24.3 10.75 25.02Z" fill="#FBB03B"/><path d="M9.46 24.31 16.48 2.41 13.78 1.54 8.11 19.26C7.49 21.19 8.09 23.19 9.46 24.31Z" fill="#FFFFFF" fill-opacity="0.3"/><path d="M16.65 15.5C16.38 16.35 15.47 16.82 14.61 16.55 13.76 16.28 13.29 15.37 13.56 14.51 13.83 13.66 14.74 13.19 15.6 13.46 16.46 13.74 16.93 14.65 16.65 15.5Z" fill="#FFFFFF" fill-opacity="0.3"/></g></svg>