<svg width="88.92" height="141.78" viewBox="0 0 88.92 141.78" xmlns="http://www.w3.org/2000/svg" xmlns:xlink="http://www.w3.org/1999/xlink" xml:space="preserve" overflow="hidden"><defs></defs><g><defs><filter id="Adobe_OpacityMaskFilter" x="5.24" y="5.84" width="56.38" height="11.89" filterUnits="userSpaceOnUse" primitiveUnits="userSpaceOnUse"><feFlood flood-color="#FFFFFF" result="back"/><feBlend in="SourceGraphic" in2="back" mode="normal"/></filter></defs><mask maskUnits="userSpaceOnUse" x="5.24" y="5.84" width="56.38" height="11.89" id="SVGID_3_"><g filter="url(#Adobe_OpacityMaskFilter)"><defs><filter id="Adobe_OpacityMaskFilter_1_" x="5.24" y="5.84" width="56.38" height="11.89" filterUnits="userSpaceOnUse" primitiveUnits="userSpaceOnUse"><feFlood flood-color="#FFFFFF" result="back"/><feBlend in="SourceGraphic" in2="back" mode="normal"/></filter></defs><mask maskUnits="userSpaceOnUse" x="5.24" y="5.84" width="56.38" height="11.89" id="SVGID_3_"><g filter="url(#Adobe_OpacityMaskFilter_1_)"></g></mask><linearGradient x1="5.2379" y1="11.7867" x2="61.6187" y2="11.7867" gradientUnits="userSpaceOnUse" id="SVGID_4_"><stop offset="0.00128265" stop-color="#FFFFFF"/><stop offset="1"/></linearGradient><path d="M5.24 17.73C5.24 17.73 5.89 17.03 7.18 16 7.82 15.47 8.63 14.88 9.58 14.22 10.54 13.61 11.62 12.84 12.87 12.19 13.5 11.85 14.15 11.49 14.83 11.12 15.52 10.77 16.25 10.47 16.99 10.13 18.47 9.42 20.11 8.86 21.8 8.25 22.65 7.96 23.54 7.75 24.43 7.5 25.33 7.27 26.22 6.98 27.16 6.85 29.02 6.51 30.91 6.14 32.84 6.04L35.72 5.84C36.68 5.87 37.64 5.9 38.59 5.93 40.5 5.92 42.34 6.23 44.13 6.52 45.93 6.72 47.59 7.29 49.18 7.75 49.97 7.99 50.74 8.19 51.47 8.45 52.18 8.77 52.86 9.08 53.52 9.37 54.82 9.97 56.03 10.47 57.01 11.08 58 11.69 58.83 12.27 59.52 12.73 60.89 13.66 61.62 14.23 61.62 14.23 61.62 14.23 60.68 14.01 59.12 13.57 58.34 13.34 57.39 13.08 56.34 12.74 55.27 12.43 54 12.26 52.7 11.93 52.04 11.78 51.35 11.63 50.64 11.47 49.92 11.37 49.18 11.26 48.41 11.16 46.88 10.95 45.3 10.67 43.62 10.64 42.79 10.58 41.95 10.53 41.09 10.47 40.24 10.38 39.37 10.48 38.5 10.46 37.63 10.46 36.75 10.47 35.87 10.47L33.23 10.69C31.46 10.75 29.71 11.09 27.97 11.3 26.24 11.55 24.55 11.93 22.89 12.24 21.27 12.68 19.65 12.94 18.17 13.4 16.67 13.82 15.26 14.22 13.95 14.64 12.64 15.04 11.46 15.48 10.38 15.81 9.35 16.22 8.39 16.5 7.64 16.81 6.11 17.37 5.24 17.73 5.24 17.73Z" fill="url(#SVGID_4_)" mask="url(#SVGID_3_)"/></g></mask><linearGradient x1="5.2379" y1="11.7867" x2="61.6187" y2="11.7867" gradientUnits="userSpaceOnUse" id="SVGID_5_"><stop offset="0.00128265" stop-color="#FFFFFF"/><stop offset="1" stop-color="#FFFFFF"/></linearGradient><defs><filter id="Adobe_OpacityMaskFilter_2_" x="20.71" y="54.29" width="15.63" height="12.38" filterUnits="userSpaceOnUse" primitiveUnits="userSpaceOnUse"><feFlood flood-color="#FFFFFF" result="back"/><feBlend in="SourceGraphic" in2="back" mode="normal"/></filter></defs><mask maskUnits="userSpaceOnUse" x="20.71" y="54.29" width="15.63" height="12.38" id="SVGID_6_"><g filter="url(#Adobe_OpacityMaskFilter_2_)"><defs><filter id="Adobe_OpacityMaskFilter_3_" x="20.71" y="54.29" width="15.63" height="12.38" filterUnits="userSpaceOnUse" primitiveUnits="userSpaceOnUse"><feFlood flood-color="#FFFFFF" result="back"/><feBlend in="SourceGraphic" in2="back" mode="normal"/></filter></defs><mask maskUnits="userSpaceOnUse" x="20.71" y="54.29" width="15.63" height="12.38" id="SVGID_6_"><g filter="url(#Adobe_OpacityMaskFilter_3_)"></g></mask><linearGradient x1="20.7142" y1="60.4752" x2="36.3472" y2="60.4752" gradientUnits="userSpaceOnUse" id="SVGID_7_"><stop offset="0.00128265" stop-color="#FFFFFF"/><stop offset="1"/></linearGradient><path d="M21.71 66.66C21.71 66.66 21.44 66.39 21.17 65.78 20.9 65.18 20.66 64.23 20.73 63.05 20.76 62.76 20.8 62.45 20.85 62.13 20.93 61.82 21.03 61.51 21.13 61.18 21.36 60.54 21.68 59.88 22.1 59.28 22.52 58.67 23 58.07 23.57 57.59 24.11 57.03 24.74 56.64 25.36 56.23 25.99 55.8 26.66 55.55 27.32 55.26 27.97 54.94 28.65 54.82 29.29 54.65 30.57 54.29 31.82 54.32 32.86 54.3 33.38 54.3 33.87 54.4 34.29 54.46 34.71 54.51 35.09 54.61 35.4 54.68 36.01 54.82 36.36 54.96 36.36 54.96 36.36 54.96 36.07 55.22 35.57 55.59 35.07 55.97 34.35 56.41 33.51 56.93 33.09 57.19 32.65 57.46 32.17 57.72 31.69 57.96 31.22 58.25 30.74 58.53 30.26 58.82 29.72 59.05 29.25 59.35 28.79 59.66 28.23 59.87 27.8 60.2 27.34 60.49 26.85 60.76 26.45 61.07 26.25 61.23 26.01 61.35 25.81 61.51 25.62 61.67 25.43 61.83 25.23 61.97 24.85 62.28 24.5 62.59 24.17 62.91 23.85 63.23 23.54 63.56 23.29 63.9 22.2 65.21 21.71 66.66 21.71 66.66Z" fill="url(#SVGID_7_)" mask="url(#SVGID_6_)"/></g></mask><linearGradient x1="20.7142" y1="60.4752" x2="36.3472" y2="60.4752" gradientUnits="userSpaceOnUse" id="SVGID_8_"><stop offset="0.00128265" stop-color="#FFFFFF"/><stop offset="1" stop-color="#FFFFFF"/></linearGradient><defs><filter id="Adobe_OpacityMaskFilter_4_" x="2.62" y="107.12" width="8.84" height="15.98" filterUnits="userSpaceOnUse" primitiveUnits="userSpaceOnUse"><feFlood flood-color="#FFFFFF" result="back"/><feBlend in="SourceGraphic" in2="back" mode="normal"/></filter></defs><mask maskUnits="userSpaceOnUse" x="2.62" y="107.12" width="8.84" height="15.98" id="SVGID_9_"><g filter="url(#Adobe_OpacityMaskFilter_4_)"><defs><filter id="Adobe_OpacityMaskFilter_5_" x="2.62" y="107.12" width="8.84" height="15.98" filterUnits="userSpaceOnUse" primitiveUnits="userSpaceOnUse"><feFlood flood-color="#FFFFFF" result="back"/><feBlend in="SourceGraphic" in2="back" mode="normal"/></filter></defs><mask maskUnits="userSpaceOnUse" x="2.62" y="107.12" width="8.84" height="15.98" id="SVGID_9_"><g filter="url(#Adobe_OpacityMaskFilter_5_)"></g></mask><linearGradient x1="2.6205" y1="115.112" x2="11.4586" y2="115.112" gradientUnits="userSpaceOnUse" id="SVGID_10_"><stop offset="0.00128265" stop-color="#FFFFFF"/><stop offset="1"/></linearGradient><path d="M11.46 107.16C11.46 107.16 10.74 108.23 9.65 109.83 9.43 110.22 9.14 110.58 8.92 111 8.66 111.39 8.45 111.82 8.23 112.22 8.02 112.64 7.84 113.05 7.69 113.46 7.56 113.88 7.4 114.27 7.36 114.68 7.19 115.07 7.29 115.5 7.18 115.91 7.2 116.33 7.22 116.77 7.21 117.22 7.3 117.67 7.35 118.13 7.39 118.59 7.5 119.04 7.61 119.49 7.69 119.92 7.75 120.36 7.84 120.78 7.96 121.15 8.07 121.51 8.13 121.86 8.2 122.15 8.32 122.73 8.36 123.11 8.36 123.11 8.36 123.11 8.02 123.01 7.48 122.73 7.21 122.59 6.87 122.43 6.52 122.2 6.34 122.08 6.14 121.96 5.94 121.84 5.75 121.69 5.58 121.52 5.38 121.34 5.01 120.97 4.6 120.57 4.2 120.09 3.87 119.56 3.53 118.98 3.21 118.35 2.97 117.67 2.75 116.93 2.65 116.16 2.63 115.37 2.56 114.54 2.78 113.74 2.88 113.35 2.96 112.94 3.1 112.56 3.25 112.19 3.44 111.84 3.62 111.48 3.78 111.11 4.03 110.83 4.25 110.53 4.48 110.24 4.69 109.93 4.96 109.7 5.46 109.2 5.97 108.78 6.5 108.46 7.01 108.11 7.55 107.9 8.03 107.68 9.02 107.32 9.87 107.16 10.49 107.14 11.1 107.1 11.46 107.16 11.46 107.16Z" fill="url(#SVGID_10_)" mask="url(#SVGID_9_)"/></g></mask><linearGradient x1="2.6205" y1="115.112" x2="11.4586" y2="115.112" gradientUnits="userSpaceOnUse" id="SVGID_11_"><stop offset="0.00128265" stop-color="#FFFFFF"/><stop offset="1" stop-color="#FFFFFF"/></linearGradient><g><linearGradient x1="-98.15" y1="54.001" x2="124.255" y2="79.4042" gradientUnits="userSpaceOnUse" id="SVGID_1_"><stop offset="0" stop-color="#8477B5"/><stop offset="1" stop-color="#150025"/></linearGradient><linearGradient x1="42.0462" y1="-173.798" x2="42.0462" y2="265.988" gradientUnits="userSpaceOnUse" id="SVGID_2_"><stop offset="0" stop-color="#8477B5"/><stop offset="0.5" stop-color="#6A5BA4"/><stop offset="1" stop-color="#49358B"/></linearGradient><path d="M7.72 120.84C6.17 118.46 5.26 115.97 4.98 113.37 4.7 110.78 5.05 108.39 6.03 106.22 7.01 104.05 8.59 102.33 10.76 101.07 12.93 99.81 15.56 99.32 18.65 99.6 22.01 99.88 24.89 101.04 27.28 103.07 29.66 105.1 32.08 107 34.53 108.75 36.98 110.51 39.61 111.69 42.42 112.33 45.22 112.96 48.66 112.02 52.72 109.49 53.7 108.79 54.54 108.05 55.24 107.28 55.94 106.51 56.64 105.7 57.34 104.86 58.18 103.74 58.81 102.79 59.23 102.02 59.66 101.25 60.07 100.23 60.49 98.97 61.33 96.59 61.89 94.34 62.18 92.24 62.46 90.14 62.46 87.9 62.18 85.51 60.07 81.58 57.45 78.99 54.29 77.73 51.13 76.47 47.84 75.66 44.41 75.31 40.97 74.96 37.57 74.57 34.21 74.15 30.84 73.73 27.97 72.47 25.59 70.37 23.48 68.55 22.19 66.44 21.7 64.06 21.21 61.68 17.6 60.98 18.38 58.81 19.15 56.64 24.23 53.13 26.12 51.44 28.01 49.76 30.29 48.71 32.95 48.28 35.05 47.86 37.33 47.47 39.78 47.12 42.23 46.77 44.58 46.21 46.83 45.44 49.07 44.67 51.18 43.65 53.14 42.39 55.1 41.13 56.71 39.45 57.98 37.34 58.12 35.8 58.15 34.29 58.09 32.82 58.02 31.35 57.63 29.91 56.93 28.51 55.53 27.25 53.53 26.38 50.94 25.88 48.34 25.39 45.61 25.18 42.74 25.25 39.86 25.32 37.16 25.64 34.64 26.2 32.11 26.76 30.08 27.39 28.54 28.09 25.17 31.46 21.74 33.03 18.24 32.82 14.74 32.61 11.79 31.38 9.41 29.14 7.02 26.9 5.55 24.09 4.99 20.73 4.43 17.36 5.41 14.35 7.93 11.69 9.89 9.45 12.1 7.66 14.56 6.33 17.01 5 19.71 3.91 22.66 3.07 29.8 1.09 37.27 0.07 45.05 0 52.84-0.07 60.09 1.65 66.82 5.15 72.29 7.96 76.39 11.67 79.12 16.3 81.86 20.93 83.4 25.84 83.74 31.02 84.09 36.21 83.28 41.36 81.32 46.48 79.35 51.6 76.34 56.12 72.28 60.05 77.33 63.56 81.15 67.59 83.74 72.14 86.34 76.7 87.95 81.4 88.58 86.23 89.21 91.07 88.93 95.98 87.74 100.95 86.55 105.93 84.55 110.59 81.75 114.94 78.95 119.29 65.95 130.72 61.82 134.3 57.68 137.88 52.99 138.68 47.81 140.79 43.32 142.61 48.45 138.01 44.1 137.87 39.75 137.73 35.51 136.96 31.37 135.56 27.23 134.16 23.24 132.23 19.39 129.78 15.53 127.33 11.92 124.63 8.56 121.68L7.72 120.84Z" fill="url(#SVGID_1_)"/><path d="M2.89 124.73C1.35 122.35 0.43 119.86 0.15 117.26-0.13 114.67 0.22 112.28 1.21 110.11 2.19 107.94 3.76 106.22 5.94 104.96 8.11 103.7 10.74 103.21 13.83 103.49 17.2 103.77 20.07 104.93 22.45 106.96 24.83 108.99 27.25 110.89 29.71 112.64 32.17 114.4 34.79 115.59 37.59 116.22 40.4 116.85 43.83 115.91 47.9 113.38 48.88 112.68 49.72 111.95 50.42 111.17 51.12 110.4 51.82 109.59 52.52 108.75 53.36 107.63 53.99 106.68 54.42 105.91 54.84 105.14 55.26 104.12 55.68 102.86 56.52 100.48 57.08 98.23 57.36 96.13 57.64 94.03 57.64 91.79 57.36 89.4 55.26 85.48 52.63 82.88 49.47 81.62 46.32 80.36 43.02 79.55 39.59 79.2 36.15 78.85 32.75 78.47 29.39 78.04 26.02 77.62 23.15 76.36 20.77 74.26 18.66 72.44 17.37 70.34 16.88 67.95 16.39 65.57 16.53 63.29 17.3 61.12 18.07 58.95 19.4 57.02 21.29 55.34 23.18 53.66 25.46 52.61 28.13 52.19 30.23 51.77 32.51 51.38 34.96 51.03 37.41 50.68 39.76 50.12 42 49.35 44.24 48.58 46.35 47.56 48.31 46.3 50.27 45.04 51.89 43.36 53.15 41.25 53.29 39.71 53.33 38.2 53.26 36.73 53.19 35.26 52.8 33.82 52.1 32.42 50.7 31.16 48.7 30.29 46.11 29.79 43.51 29.3 40.78 29.09 37.9 29.16 35.03 29.23 32.33 29.55 29.8 30.11 27.27 30.67 25.24 31.3 23.7 32 20.34 35.36 16.9 36.94 13.4 36.73 9.89 36.52 6.95 35.29 4.56 33.05 2.18 30.81 0.71 28 0.14 24.64-0.42 21.27 0.56 18.26 3.09 15.59 5.05 13.35 7.26 11.56 9.72 10.23 12.17 8.9 14.88 7.81 17.82 6.97 24.98 5.01 32.44 3.99 40.22 3.92 48 3.85 55.26 5.57 61.99 9.07 67.46 11.88 71.56 15.59 74.29 20.22 77.02 24.85 78.57 29.76 78.92 34.94 79.27 40.13 78.46 45.28 76.5 50.4 74.53 55.52 71.52 60.04 67.46 63.97 72.51 67.47 76.33 71.51 78.92 76.06 81.52 80.62 83.13 85.31 83.76 90.15 84.39 94.99 84.11 99.9 82.92 104.87 81.72 109.85 79.73 114.51 76.93 118.86 74.12 123.21 70.65 127.17 66.52 130.74 62.38 134.32 57.72 137.15 52.53 139.26 48.04 141.08 43.63 141.92 39.28 141.79 34.93 141.65 30.69 140.87 26.56 139.47 22.42 138.07 18.43 136.14 14.57 133.69 10.71 131.24 7.11 128.53 3.74 125.59L2.89 124.73Z" fill="url(#SVGID_2_)"/></g><path d="M5.24 17.73C5.24 17.73 5.89 17.03 7.18 16 7.82 15.47 8.63 14.88 9.58 14.22 10.54 13.61 11.62 12.84 12.87 12.19 13.5 11.85 14.15 11.49 14.83 11.12 15.52 10.77 16.25 10.47 16.99 10.13 18.47 9.42 20.11 8.86 21.8 8.25 22.65 7.96 23.54 7.75 24.43 7.5 25.33 7.27 26.22 6.98 27.16 6.85 29.02 6.51 30.91 6.14 32.84 6.04L35.72 5.84C36.68 5.87 37.64 5.9 38.59 5.93 40.5 5.92 42.34 6.23 44.13 6.52 45.93 6.72 47.59 7.29 49.18 7.75 49.97 7.99 50.74 8.19 51.47 8.45 52.18 8.77 52.86 9.08 53.52 9.37 54.82 9.97 56.03 10.47 57.01 11.08 58 11.69 58.83 12.27 59.52 12.73 60.89 13.66 61.62 14.23 61.62 14.23 61.62 14.23 60.68 14.01 59.12 13.57 58.34 13.34 57.39 13.08 56.34 12.74 55.27 12.43 54 12.26 52.7 11.93 52.04 11.78 51.35 11.63 50.64 11.47 49.92 11.37 49.18 11.26 48.41 11.16 46.88 10.95 45.3 10.67 43.62 10.64 42.79 10.58 41.95 10.53 41.09 10.47 40.24 10.38 39.37 10.48 38.5 10.46 37.63 10.46 36.75 10.47 35.87 10.47L33.23 10.69C31.46 10.75 29.71 11.09 27.97 11.3 26.24 11.55 24.55 11.93 22.89 12.24 21.27 12.68 19.65 12.94 18.17 13.4 16.67 13.82 15.26 14.22 13.95 14.64 12.64 15.04 11.46 15.48 10.38 15.81 9.35 16.22 8.39 16.5 7.64 16.81 6.11 17.37 5.24 17.73 5.24 17.73Z" fill="url(#SVGID_5_)"/><path d="M21.71 66.66C21.71 66.66 21.44 66.39 21.17 65.78 20.9 65.18 20.66 64.23 20.73 63.05 20.76 62.76 20.8 62.45 20.85 62.13 20.93 61.82 21.03 61.51 21.13 61.18 21.36 60.54 21.68 59.88 22.1 59.28 22.52 58.67 23 58.07 23.57 57.59 24.11 57.03 24.74 56.64 25.36 56.23 25.99 55.8 26.66 55.55 27.32 55.26 27.97 54.94 28.65 54.82 29.29 54.65 30.57 54.29 31.82 54.32 32.86 54.3 33.38 54.3 33.87 54.4 34.29 54.46 34.71 54.51 35.09 54.61 35.4 54.68 36.01 54.82 36.36 54.96 36.36 54.96 36.36 54.96 36.07 55.22 35.57 55.59 35.07 55.97 34.35 56.41 33.51 56.93 33.09 57.19 32.65 57.46 32.17 57.72 31.69 57.96 31.22 58.25 30.74 58.53 30.26 58.82 29.72 59.05 29.25 59.35 28.79 59.66 28.23 59.87 27.8 60.2 27.34 60.49 26.85 60.76 26.45 61.07 26.25 61.23 26.01 61.35 25.81 61.51 25.62 61.67 25.43 61.83 25.23 61.97 24.85 62.28 24.5 62.59 24.17 62.91 23.85 63.23 23.54 63.56 23.29 63.9 22.2 65.21 21.71 66.66 21.71 66.66Z" fill="url(#SVGID_8_)"/><path d="M11.46 107.16C11.46 107.16 10.74 108.23 9.65 109.83 9.43 110.22 9.14 110.58 8.92 111 8.66 111.39 8.45 111.82 8.23 112.22 8.02 112.64 7.84 113.05 7.69 113.46 7.56 113.88 7.4 114.27 7.36 114.68 7.19 115.07 7.29 115.5 7.18 115.91 7.2 116.33 7.22 116.77 7.21 117.22 7.3 117.67 7.35 118.13 7.39 118.59 7.5 119.04 7.61 119.49 7.69 119.92 7.75 120.36 7.84 120.78 7.96 121.15 8.07 121.51 8.13 121.86 8.2 122.15 8.32 122.73 8.36 123.11 8.36 123.11 8.36 123.11 8.02 123.01 7.48 122.73 7.21 122.59 6.87 122.43 6.52 122.2 6.34 122.08 6.14 121.96 5.94 121.84 5.75 121.69 5.58 121.52 5.38 121.34 5.01 120.97 4.6 120.57 4.2 120.09 3.87 119.56 3.53 118.98 3.21 118.35 2.97 117.67 2.75 116.93 2.65 116.16 2.63 115.37 2.56 114.54 2.78 113.74 2.88 113.35 2.96 112.94 3.1 112.56 3.25 112.19 3.44 111.84 3.62 111.48 3.78 111.11 4.03 110.83 4.25 110.53 4.48 110.24 4.69 109.93 4.96 109.7 5.46 109.2 5.97 108.78 6.5 108.46 7.01 108.11 7.55 107.9 8.03 107.68 9.02 107.32 9.87 107.16 10.49 107.14 11.1 107.1 11.46 107.16 11.46 107.16Z" fill="url(#SVGID_11_)"/></g></svg>