<svg width="91.31" height="91.67" viewBox="0 0 91.31 91.67" xmlns="http://www.w3.org/2000/svg" xmlns:xlink="http://www.w3.org/1999/xlink" xml:space="preserve" overflow="hidden"><defs></defs><g><path d="M91.09 17.58C90.69 10.4 89.97 2.38 81.74 1.15 78.67 0.69 75.55 0.79 72.46 0.79 67.56 0.8 62.68 0.76 57.79 0.6 47.74 0.28 37.68 0.21 27.63 0.11 23.33 0.07 19.02-0.06 14.71 0.04 11.83 0.11 8.96 0.47 6.36 1.81 3.68 3.18 2.1 5.85 1.18 8.68 0.38 11.18 0.42 13.76 0.53 16.35 0.24 23.41 0.3 30.52 0.23 37.56 0.17 45.91 0.19 54.24 0.03 62.6-0.05 66.45 0.02 70.32 0.33 74.16 0.58 77.23 0.86 80.59 2.14 83.41 4.28 88.11 9.85 91.34 14.83 91.61 19.47 91.82 23.76 91.4 28.17 91.06 33.81 90.62 38.31 90.79 43.95 90.46 50.05 90.11 56.17 89.89 62.28 89.77 65.18 89.71 68.05 89.84 70.95 89.94 73.4 90.02 76.04 90.12 78.43 89.44 81.2 89.18 83.94 88.8 86.01 86.61 88.19 84.3 88.89 80.61 89.27 77.55 89.8 73.2 90.13 68.83 90.27 64.45 90.46 58.59 90.16 52.76 90.51 46.91 90.88 40.69 91.24 34.47 91.31 28.23 91.33 24.66 91.28 21.12 91.09 17.58Z" fill="#897D63" opacity="0.6"/><g><linearGradient x1="45.2607" y1="-5.577" x2="45.2607" y2="89.5461" gradientUnits="userSpaceOnUse" id="SVGID_1_"><stop offset="0.3918" stop-color="#FCC863"/><stop offset="0.7395" stop-color="#F39F47"/></linearGradient><linearGradient x1="44.816" y1="82.2889" x2="44.816" y2="6.3112" gradientUnits="userSpaceOnUse" id="SVGID_2_"><stop offset="0.0465" stop-color="#BC7034"/><stop offset="0.0762" stop-color="#7A1D0F"/></linearGradient><path d="M89.26 16.53C88.88 9.78 88.18 2.24 80.2 1.08 77.23 0.65 74.2 0.75 71.21 0.75 66.47 0.76 61.75 0.72 57.01 0.57 47.28 0.26 37.54 0.2 27.8 0.1 23.64 0.06 19.46-0.06 15.29 0.03 12.51 0.1 9.72 0.44 7.2 1.7 4.61 2.99 3.07 5.5 2.19 8.16 1.41 10.5 1.46 12.94 1.57 15.37 1.28 22 1.34 28.69 1.28 35.31 1.2 43.17 1.23 51 1.07 58.85 1 62.48 1.06 66.1 1.36 69.73 1.6 72.62 1.87 75.78 3.11 78.43 5.18 82.85 10.58 85.88 15.4 86.14 19.89 86.34 24.05 85.94 28.32 85.62 33.78 85.21 38.13 85.36 43.61 85.06 49.53 84.73 55.44 84.52 61.36 84.41 64.17 84.35 66.95 84.47 69.75 84.56 72.12 84.64 74.69 84.72 77 84.1 79.68 83.85 82.33 83.49 84.33 81.44 86.43 79.27 87.12 75.8 87.48 72.92 88 68.83 88.31 64.72 88.45 60.6 88.63 55.1 88.35 49.62 88.68 44.11 89.04 38.26 89.39 32.41 89.46 26.54 89.5 23.19 89.46 19.85 89.26 16.53Z" fill="url(#SVGID_1_)"/><g opacity="0.5"><path d="M13.03 13.72C13.7 12.66 14.48 11.66 15.31 10.74 13.91 7.32 12.6 3.86 11.28 0.41 9.88 0.65 8.51 1.05 7.2 1.7 5.08 2.76 3.67 4.64 2.74 6.74 5.12 8.86 8.35 10.37 10.85 12.12 11.59 12.64 12.31 13.19 13.03 13.72Z" fill="#FFDB7D"/><path d="M74.84 11.77C75.22 12.6 75.68 13.39 76.12 14.18 80.39 13.46 84.58 12.34 88.83 11.59 88.14 6.72 86.39 2.36 80.93 1.23 80.2 3.24 78.93 5.04 77.77 6.86 76.73 8.45 75.75 10.09 74.84 11.77Z" fill="#FFDB7D"/><path d="M74.19 70.47C74.04 70.6 73.88 70.76 73.71 70.91 73.87 72.93 75.2 75.29 75.67 77.18 76.24 79.45 76.73 81.76 77.18 84.07 79.8 83.82 82.38 83.44 84.34 81.43 85.53 80.21 86.25 78.58 86.73 76.88 82.8 74.45 78.54 72.52 74.59 70.13 74.45 70.23 74.32 70.35 74.19 70.47Z" fill="#FFDB7D"/><path d="M15.46 67.91C15.41 67.99 15.34 68.09 15.25 68.17 11.26 71.86 7.66 75.93 3.99 79.93 6.22 83.17 10.26 85.42 14.14 86 15.29 80.34 16.26 74.63 16.91 68.88 16.41 68.57 15.93 68.24 15.46 67.91Z" fill="#FFDB7D"/></g><g><path d="M13.74 9.77C12.59 6.7 11.09 3.76 9.84 0.73 8.93 0.97 8.05 1.28 7.2 1.7 7.14 1.73 7.09 1.77 7.03 1.8 9.4 4.35 11.64 7 13.74 9.77Z" fill="#FFF5E5"/><path d="M77.75 13.34C78.83 12.67 79.93 12 81.05 11.35 83.13 9.87 85.09 8.22 87.02 6.54 83.86 8.73 80.62 10.83 77.75 13.34Z" fill="#FFF5E5"/><path d="M86.29 4.48C85.43 3.34 84.3 2.41 82.81 1.8 80.37 4.63 78.67 8.22 76.67 11.3 76.6 11.41 76.53 11.52 76.46 11.63 79.51 9 82.97 6.8 86.29 4.48Z" fill="#FFF5E5"/><path d="M81.39 76.83C82.48 78.23 83.57 79.62 84.73 80.94 85.13 80.45 85.49 79.93 85.78 79.36 84.61 78.73 83.47 78.04 82.43 77.18 81.49 76.4 80.51 75.69 79.52 74.98 80.21 75.56 80.86 76.15 81.39 76.83Z" fill="#FFF5E5"/><path d="M6 82.18C6.33 81.73 6.59 81.37 6.75 81.14 8.44 78.57 10.2 76.04 11.94 73.49 9.56 76 7.17 78.48 4.85 81.04 5.2 81.44 5.59 81.81 6 82.18Z" fill="#FFF5E5"/></g><path d="M81.93 40.23C81.79 35.2 81.75 30.53 81.66 25.5 81.57 20.96 81.63 16.71 80.97 12.21 80.19 6.82 75.67 6.9 71.21 6.85 55.56 5.08 39.63 6.11 23.93 6.14 19.3 6.15 13.97 6.34 10.49 9.98 8 12.6 7.76 16.3 8.04 20.06 8.06 26.93 7.58 31.82 7.58 37.71 7.56 44.91 7.48 52.08 7.96 59.27 8.17 62.34 8.43 65.41 8.83 68.46 9.17 71.05 9.39 73.82 10.37 76.25 11.81 79.79 14.95 81.64 18.64 81.53 18.75 81.53 18.83 81.48 18.9 81.42 22.82 81.88 26.94 81.65 30.85 81.7 35.93 81.76 41.03 81.78 46.12 81.78 51.25 81.8 56.38 81.67 61.49 81.17 64.75 80.84 69.21 81.03 72.47 80.82 75.12 80.66 77.39 80 79.33 77.82 81.26 75.66 81.36 71.49 81.53 68.67 82.08 59.23 82.2 49.7 81.93 40.23Z" fill="url(#SVGID_2_)" opacity="0.5"/><path d="M89.26 16.53C88.88 9.78 88.18 2.24 80.2 1.08 77.23 0.65 74.2 0.75 71.21 0.75 66.47 0.76 61.75 0.72 57.01 0.57 47.28 0.26 37.54 0.2 27.8 0.1 23.64 0.06 19.46-0.06 15.29 0.03 12.51 0.1 9.72 0.44 7.2 1.7 4.61 2.99 3.07 5.5 2.19 8.16 1.41 10.5 1.46 12.94 1.57 15.37 1.28 22 1.34 28.69 1.28 35.31 1.2 43.17 1.23 51 1.07 58.85 1 62.48 1.06 66.1 1.36 69.73 1.6 72.62 1.87 75.78 3.11 78.43 5.18 82.85 10.58 85.88 15.4 86.14 19.89 86.34 24.05 85.94 28.32 85.62 33.78 85.21 38.13 85.36 43.61 85.06 49.53 84.73 55.44 84.52 61.36 84.41 64.17 84.35 66.95 84.47 69.75 84.56 72.12 84.64 74.69 84.72 77 84.1 79.68 83.85 82.33 83.49 84.33 81.44 86.43 79.27 87.12 75.8 87.48 72.92 88 68.83 88.31 64.72 88.45 60.6 88.63 55.1 88.35 49.62 88.68 44.11 89.04 38.26 89.39 32.41 89.46 26.54 89.5 23.19 89.46 19.85 89.26 16.53ZM87.15 59.22C87.05 62.74 86.89 66.26 86.64 69.78 86.41 72.99 85.98 76.35 84.36 79.21 82.59 82.34 78.38 82.98 75.13 83.2 70.81 83.49 66.46 83.17 62.13 83.23 56.21 83.33 50.29 83.55 44.38 83.86 39.09 84.14 35.04 83.93 29.76 84.44 27.49 84.66 21.49 85.16 19.19 85.1 14.37 84.97 10.38 83.92 8.17 82.44 5.74 80.8 4.15 78.38 3.42 75.55 1.69 68.83 2.16 61.34 2.27 54.47 2.39 47.57 2.24 40.69 2.3 33.79 2.36 28.17 2.72 22.43 2.53 16.77 2.59 14.69 2.49 12.59 2.8 10.5 3.35 6.86 5.43 3.65 8.9 2.33 11.54 1.32 14.54 1.37 17.32 1.36 21.58 1.35 25.84 1.45 30.1 1.5 39.07 1.6 48.04 1.7 57.01 1.99 61.51 2.13 65.99 2.22 70.49 2.18 73.44 2.16 76.39 2.33 79.32 2.64 83.83 3.11 86.28 4.69 87.31 9.29 88.17 13.14 88.12 17.07 88.27 20.98 88.76 33.7 87.53 46.51 87.15 59.22Z" fill="#D37F0F"/><g><path d="M79.98 38.38C79.84 33.8 79.81 29.53 79.72 24.95 79.64 20.81 79.69 16.93 79.07 12.82 78.32 7.9 74.03 7.98 69.8 7.93 54.93 6.32 39.79 7.25 24.88 7.28 20.48 7.28 15.42 7.46 12.12 10.78 9.74 13.18 9.51 16.55 9.79 19.99 9.8 26.26 9.35 30.72 9.33 36.09 9.32 42.65 9.25 49.2 9.7 55.76 9.89 58.57 10.15 61.36 10.52 64.15 10.83 66.51 11.04 69.04 11.99 71.26 13.36 74.5 16.35 76.18 19.85 76.09 19.95 76.08 20.03 76.04 20.1 75.98 23.83 76.41 27.74 76.19 31.45 76.23 36.28 76.29 41.12 76.3 45.95 76.31 50.83 76.32 55.7 76.21 60.55 75.74 63.64 75.44 67.89 75.61 70.98 75.42 73.5 75.27 75.66 74.68 77.5 72.68 79.33 70.71 79.43 66.9 79.59 64.33 80.13 55.73 80.24 47.03 79.98 38.38ZM78.68 62.68C78.56 65.23 78.43 68.58 77.24 70.88 74.97 75.26 69.12 74.11 64.95 74.44 58.87 74.92 52.8 75.41 46.71 75.43 42.14 75.45 37.55 75.41 32.98 75.38 28.61 75.35 24.03 74.88 19.65 75.27 17.97 74.95 16.38 74.73 14.91 73.74 13.39 72.71 12.7 70.84 12.24 69.15 10.77 63.66 10.56 57.62 10.34 51.97 9.98 42.94 10.91 33.34 10.98 24.29 11.1 25.33 10.33 13.59 13.57 10.93 17.42 7.76 23.83 8.44 28.42 8.42 35.59 8.38 42.76 8.19 49.93 8.19 54.41 8.2 58.89 8.37 63.36 8.62 65.68 8.75 68 8.83 70.31 8.93 72.9 9.03 75.46 8.75 76.98 11.31 78.71 14.22 78.74 18.16 78.8 21.42 78.9 27.15 78.54 33.02 78.81 38.74 79.08 44.32 79.13 49.92 78.81 55.49 78.71 57.19 78.82 59.88 78.68 62.68Z" fill="#285727"/></g></g></g></svg>