<svg width="48.39" height="48.75" viewBox="0 0 48.39 48.75" xmlns="http://www.w3.org/2000/svg" xmlns:xlink="http://www.w3.org/1999/xlink" xml:space="preserve" overflow="hidden"><defs></defs><g id="g1277_1_" transform="matrix(0.840148 0 0 0.840148 -15.2941 8.29019)"><path d="M41.22 40.13C47.62 45.18 56.82 49.07 65.01 47.97 76.18 46.46 79.64 34.91 70.83 27.89 69.25 26.63 67.61 25.77 65.92 25.07 63.49 24.07 60.95 23.43 58.3 22.53 51.38 20.18 47.27 15.08 43.03 9.42 39.08 4.15 32.89-1.08 26.57 0.92 25.4 1.29 24.22 1.91 23.06 2.81 22.09 3.65 21.48 4.71 21.16 5.91 18.54 15.78 36.12 36.1 41.22 40.13ZM44.68 14.26C44.07 14.75 43.08 13.46 42.73 13.1 40.61 10.92 38.32 8.48 36.54 6.01 36.14 5.44 35.79 4.79 36.21 4.69 36.35 4.65 36.58 4.68 36.91 4.79 39.56 6.66 41.49 9.4 43.34 12.01 43.5 12.23 45.07 13.93 44.68 14.26Z" id="path824_1_" fill="#894B9E"/><path d="M41.22 40.13C47.62 45.18 56.82 49.07 65.01 47.97 76.18 46.46 79.64 34.91 70.83 27.89 69.25 26.63 67.61 25.77 65.92 25.07 65.89 28.84 65.55 32.61 64.9 36.32 64.75 37.16 64.58 38.02 64.09 38.7 63.51 39.49 62.58 39.94 61.65 40.24 54.46 42.57 46.96 37.75 41.61 32.42 37.28 28.09 33.3 23.1 29.87 18.04 27.46 14.48 25.55 7.81 21.15 5.89 18.54 15.78 36.12 36.1 41.22 40.13Z" fill="#894B9E" opacity="0.31"/><path d="M22.27 0.9C21.74-2.42 20.07-6.45 18.21-9.32 19.71-9.89 21.14-10.14 22.74-9.4 21.21-6.54 22.65-2.86 24.28-0.39 30.71-3.99 33.72 3.23 35.66-0.96 35.81 3.01 31.36 3.06 28.66 1.88 29.82 3.47 29.86 5.94 29.17 7.44 27.74 6.09 27.73 4.03 25.66 3.28 25.91 5.2 24.2 8.48 26.63 9.66 24.33 10.02 23.05 6.99 23.39 5.09 22.23 7.07 20.8 9.47 22.24 11.47 18.76 8.59 20.37 4.11 22.27 0.9L22.27 0.9Z" id="path1005_1_" fill="#B39147"/></g></svg>