<svg width="589.22" height="645.64" viewBox="0 0 589.22 645.64" xmlns="http://www.w3.org/2000/svg" xmlns:xlink="http://www.w3.org/1999/xlink" xml:space="preserve" overflow="hidden"><defs></defs><linearGradient x1="66.4077" y1="322.818" x2="655.63" y2="322.818" gradientUnits="userSpaceOnUse" id="SVGID_1_"><stop offset="0" stop-color="#86A3FC"/><stop offset="1" stop-color="#30C4C7"/></linearGradient><path d="M294.61 406.22 294.61 406.22C304.39 416 304.39 431.87 294.61 441.65L219.93 516.33C210.15 526.11 210.15 541.98 219.93 551.76L219.93 551.76C229.71 561.54 229.71 577.41 219.93 587.19L204.26 602.86C194.48 612.64 194.48 628.51 204.26 638.29L204.26 638.29C214.04 648.07 229.91 648.07 239.69 638.29L491.53 386.45C501.31 376.67 501.31 360.8 491.53 351.02L491.53 351.02C481.75 341.24 481.75 325.37 491.53 315.59L507.2 299.92C516.98 290.14 516.98 274.27 507.2 264.49L507.2 264.49C497.42 254.71 497.42 238.84 507.2 229.06L581.88 154.38C591.66 144.6 591.66 128.73 581.88 118.95L581.88 118.95C572.1 109.17 556.23 109.17 546.45 118.95L504.54 160.86C494.76 170.64 478.89 170.64 469.11 160.86L469.11 160.86C459.33 151.08 443.46 151.08 433.68 160.86L379.04 215.5C369.26 225.28 353.39 225.28 343.61 215.5L343.61 215.5C333.83 205.72 333.83 189.85 343.61 180.07L365.48 158.2C375.26 148.42 375.26 132.55 365.48 122.77L365.48 122.77C355.7 112.99 355.7 97.12 365.48 87.34L410.05 42.77C419.83 32.99 419.83 17.12 410.05 7.34L410.05 7.34C400.27-2.44 384.4-2.44 374.62 7.34L330.04 51.9C320.26 61.68 304.39 61.68 294.61 51.9L294.61 51.9C284.83 42.12 268.96 42.12 259.18 51.9L7.34 303.75C-2.44 313.53-2.44 329.4 7.34 339.18L7.34 339.18C17.12 348.96 32.99 348.96 42.77 339.18L87.34 294.61C97.12 284.83 112.99 284.83 122.77 294.61L122.77 294.61C132.55 304.39 132.55 320.26 122.77 330.04L78.2 374.61C68.42 384.39 68.42 400.26 78.2 410.04L78.2 410.04C87.98 419.82 87.98 435.69 78.2 445.47L56.33 467.34C46.55 477.12 46.55 492.99 56.33 502.77L56.33 502.77C66.11 512.55 81.98 512.55 91.76 502.77L146.4 448.13C156.18 438.35 172.05 438.35 181.83 448.13L181.83 448.13C191.61 457.91 207.48 457.91 217.26 448.13L259.17 406.22C268.96 396.44 284.83 396.44 294.61 406.22Z" fill="url(#SVGID_1_)"/></svg>