<svg width="253.49" height="120.88" viewBox="0 0 253.49 120.88" xmlns="http://www.w3.org/2000/svg" xmlns:xlink="http://www.w3.org/1999/xlink" xml:space="preserve" overflow="hidden"><defs></defs><g><path d="M24.09 81.28C24.09 81.28 26.99 96.71 41.31 89.66 45.52 91.66 50.82 86.35 49.39 83 53.81 89.22 67.81 90.5 68.99 80.62 68.99 80.62 87.78 88.82 88.19 68.86 98.17 73.34 104.46 62.02 96.53 55.45 104.82 53.33 101.29 43.64 94.73 42.06 105.73 40.19 104.15 21.34 85.78 21.57 89.52 16.12 83.78 13.65 80.25 13.63 85.14 8.62 73.85-1.8 63.43 5.3 60.97-1.69 48.86-1.22 47.89 3.53 41.5-2.54 40.11 3.13 39.25 4.67 31.27-0.27 24.15 2.29 27.03 8.03 18.57 4.99 22.45 15.34 22.45 15.34 11.64 12.08 1.41 24.36 10.16 30 1.19 29.81 5.2 36.96 5.2 36.96-1.41 36.33-2.34 49.8 6.19 51.23-2.54 54.94 6.34 67.37 11.82 66.59 8.46 72.1 13.97 80.66 24.09 81.28Z" fill="#367F1D"/><path d="M41.31 89.67C45.52 91.67 50.82 86.36 49.39 83.01 53.81 89.23 67.81 90.51 68.99 80.63 68.99 80.63 87.78 88.83 88.19 68.87 98.17 73.35 104.46 62.03 96.53 55.46 104.82 53.34 101.29 43.65 94.73 42.07 105.73 40.2 104.15 21.35 85.78 21.58 89.52 16.13 83.78 13.66 80.25 13.64 85.14 8.62 73.85-1.8 63.43 5.3 60.97-1.69 48.86-1.22 47.89 3.53 41.5-2.54 40.11 3.13 39.25 4.67 31.27-0.27 24.15 2.29 27.03 8.03 18.57 4.99 22.45 15.34 22.45 15.34 11.64 12.08 1.41 24.36 10.16 30 1.19 29.81 5.2 36.96 5.2 36.96-1.41 36.33-2.34 49.8 6.19 51.23-2.54 54.94 6.34 67.37 11.82 66.59 8.49 72.09 13.99 80.65 24.11 81.27 24.09 81.28 26.99 96.71 41.31 89.67ZM53.11 2.79C53.82 2.98 54.39 3.33 54.82 3.74 54.9 3.78 55 3.84 55.06 3.92 55.72 4.68 56.1 5.61 55.65 6.47 55.29 7.14 54.52 7.65 53.59 7.73 51.48 7.92 49.65 5.82 49.9 4.18 50.07 2.92 51.7 2.42 53.11 2.79ZM33.34 11.08C31.57 10.34 30.04 8.68 29.76 7.07 29.49 5.21 31.6 3.43 33.87 4.5 35.5 5.26 36.64 6.85 36.68 8.34 36.78 8.45 36.85 8.59 36.84 8.71 36.75 10.37 35.64 12.06 33.34 11.08ZM31.57 16.38C31.02 15.77 30.9 14.98 30.4 14.36 30.02 13.91 30.62 13.66 31.04 13.89 31.06 13.89 31.11 13.92 31.24 13.9 31.38 13.88 31.5 13.86 31.63 13.85 31.94 13.8 32.3 13.75 32.62 13.84 33.76 14.19 33.94 15.2 33.92 16.04 33.92 16.48 33.44 16.44 33.12 16.22 33.02 16.43 32.91 16.6 32.7 16.69 32.3 16.88 31.84 16.69 31.57 16.38ZM53.78 23.31C52.21 22.98 50.8 22.25 50.01 20.89 49.18 19.47 49.08 17.75 50.3 16.83 46.04 15.49 41.54 10.86 43.48 7.35 45.65 3.41 50.24 6.76 50.1 10.02 50.71 10.09 51.3 10.29 51.71 10.59 52.52 9.36 53.96 9.23 55.34 9.73 55.4 8.21 56.21 6.72 58.19 6.71 60.65 6.73 61.59 8.68 61.8 10.5 62.9 9.8 64.43 10.05 66.04 10.5 66.97 7.67 71.1 6.34 74.59 8.57 77.47 10.39 76.5 12.83 74.8 14.7 76.7 14.79 78.58 15.83 79.58 17.17 80.86 17.18 82.3 17.93 83.17 18.92 84.3 20.21 84.48 21.61 84.18 22.99 84.81 22.98 85.49 23.07 86.22 23.27 88.46 23.89 90.26 24.9 90.09 26.58 91.89 26.43 93.96 27.6 94.22 28.69 98.56 28.54 100.87 36.03 95.73 35.69 96.29 36.84 96.27 38.16 95.35 39.18 93.35 41.38 89.11 40.6 86.14 39.06 86.68 40.3 86.55 41.51 85.56 42.33 87.94 42.46 90.59 42.89 91.73 44.68 92.8 46.35 92.57 48.61 90.3 49.32 88.98 49.74 87 49.56 85.11 48.96 85.49 50.92 84.86 52.92 82.94 54.13 81.29 55.17 79.08 54.39 77.69 53.04 76.92 55.28 74.17 56.54 71.66 53.7 70.04 51.85 69.13 48.91 69.37 46.26 68.93 46.23 68.56 46.18 68.34 46.09 65.97 45.06 64.4 43.3 63.92 41.16 63.9 41.05 63.87 40.92 63.84 40.78 62.67 40.66 61.44 40.26 60.17 39.41 58.4 38.24 56.83 35.84 57.65 34.32 55.16 34.07 52.41 32.51 52.78 30.35 52.93 29.5 53.6 28.05 54.55 27.24 53.41 26.43 52.7 25.19 53.26 24.02 53.41 23.76 53.58 23.51 53.78 23.31ZM23.41 54.52C22.38 52.98 21.83 50.93 21.79 48.92 20.36 48.27 18.99 47.36 17.75 46.11 14.96 43.27 13.43 38.32 17.78 37.76 15.27 36.38 13.34 34.13 15.49 31.86 16.56 30.74 17.91 30.09 19.38 29.83 17.07 27.46 15.73 24.65 16.68 22.08 18.64 16.82 26.92 19.56 27.62 23.85 30.47 22.55 36.18 25.75 36.29 29.51 39.72 31.62 42.42 36.62 37.16 37.25 40.71 38.67 43.73 40.75 44.04 44.41 44.33 47.57 42.45 49.74 38.97 49.81 41.44 52.01 40.97 55 37.86 56.66 34.72 58.35 31.81 56.95 30.01 54.71 29.89 55.66 29.34 56.44 27.9 56.44 26.08 56.49 24.39 55.99 23.41 54.52Z" fill="#38711D" opacity="0.4"/><path d="M98.47 49.04C95.31 49.88 93.6 51.82 94.62 54.73 94.85 55.4 93.84 55.21 93.61 54.73 91.92 51.41 88.49 55.61 87.68 57.03 86.56 59.02 85.7 61.42 86.82 63.69 87.07 64.35 86.04 64.17 85.8 63.69 83.83 58.19 76.23 58.4 72.48 61.75 72.12 62.08 71.59 61.51 71.54 61.23 71.08 59.11 70.1 56.22 67.32 55.32 65.6 54.77 63.63 54.98 62.29 55.9 58 58.84 62.61 62.32 66.48 63.84 66.99 64.04 67.12 64.77 66.43 64.7 61.26 64.12 62.41 69.75 63.54 72.38 65.37 76.61 69.37 79.68 73.89 81.98 75.15 81.55 76.22 81.03 76.91 80.46 77.33 80.12 78.15 80.9 77.72 81.26 77.29 81.61 76.75 81.96 76.11 82.26 81.47 82.56 87.96 80.48 88.18 68.86 98.16 73.34 104.45 62.02 96.52 55.45 100.62 54.4 101.82 51.52 101.21 48.69 100.17 48.71 99.19 48.85 98.47 49.04Z" fill="#38711D" opacity="0.4"/><path d="M41.31 89.67C45.52 91.67 50.82 86.36 49.39 83.01 53.21 88.37 64.13 90.06 67.81 84.1 61.85 84.34 55.94 82.52 57.27 77.36 53.98 77.7 48.99 76.32 49.08 73.01 49.18 69.45 53.67 68.64 57.55 68.61 53.96 66.53 53.43 62.22 57.5 60.41 54.62 59.06 53.41 56.57 53.46 53.86 51.31 54.1 49.3 53.96 47.3 53.07 47.44 55.88 46.78 59.44 44.86 61.57 42.91 63.7 40.7 62.58 38.98 60.84 38.69 62.97 37.51 65.54 34.85 65.92 32.65 66.24 31.07 65.26 29.89 63.86 29.49 65.98 27.77 67.65 24.74 66.74 22.63 66.1 21.96 64.57 22.37 63.13 16.62 64.54 10.58 58.6 15.83 55.47 12.73 54.35 9.89 51.95 8.85 49.29 7.79 46.56 9.2 44.97 12 44.71 9.58 43.17 7.69 40.79 8.06 38.29 8.4 36.07 10.24 35.75 12.17 36.6 11.18 34.22 11.76 32.33 13.45 30.26 10.52 28.82 7.9 25.11 11.73 24.45 10.32 23.2 9.2 21.36 8.78 19.57 6.15 22.9 5.9 27.23 10.16 29.99 1.19 29.8 5.2 36.95 5.2 36.95-1.41 36.32-2.34 49.79 6.19 51.22-2.54 54.93 6.34 67.36 11.82 66.58 8.49 72.08 13.99 80.64 24.11 81.26 24.09 81.28 26.99 96.71 41.31 89.67Z" fill="#176020" opacity="0.3"/><path d="M41.31 89.67C45.52 91.67 50.82 86.36 49.39 83.01 53.21 88.37 64.13 90.06 67.81 84.1 61.85 84.34 55.94 82.52 57.27 77.36 53.98 77.7 48.99 76.32 49.08 73.01 49.18 69.45 53.67 68.64 57.55 68.61 56.71 68.12 56.04 67.51 55.56 66.84 51.83 68.28 47.27 67.95 43.49 65.56 45.11 69.51 45.41 76.79 40.3 74.52 42.32 78.52 39.64 83.04 33.72 81.66 29.73 80.72 29.33 77.07 30.31 74.13 27.38 75.85 23.44 76.17 19.94 74.12 16.58 72.14 16.28 69.49 18.79 67.83 16.04 67.38 13.19 65.89 11.99 63.79 11.26 62.48 11.53 61.69 12.43 61.35 7.98 59.56 4 56.26 4.47 52.22-1.23 56.77 6.72 67.31 11.79 66.59 8.46 72.09 13.96 80.65 24.08 81.27 24.09 81.28 26.99 96.71 41.31 89.67Z" fill="#176020" opacity="0.3"/><path d="M32.93 30.43C34.2 29.99 34.27 28.78 33.88 27.74 33.37 26.38 32.06 25.19 30.48 24.64 29.73 24.39 29.07 24.45 28.59 24.73 27.99 24.95 27.61 25.47 27.59 26.09 27.52 27.28 28.42 28.52 29.42 29.36 29.65 29.55 29.91 29.7 30.18 29.85 30.35 29.93 30.51 30.01 30.7 30.09 30.3 29.92 31.05 30.24 31.16 30.27 31.67 30.49 32.42 30.61 32.93 30.43Z" fill="#8EB60F"/><path d="M25.17 24.92C25.81 24.69 25.39 23.74 25.14 23.4 24.83 22.96 24.24 22.33 23.56 22.32 23.52 22.32 23.49 22.32 23.44 22.33 23 22.32 22.59 22.46 22.53 22.86 22.52 22.88 22.52 22.9 22.52 22.93 22.45 23.37 22.64 23.8 22.95 24.17 23.2 24.45 23.67 24.8 24.14 24.91 24.47 25.04 24.8 25.07 25.17 24.92Z" fill="#8EB60F"/><g opacity="0.4"><path d="M74.71 12.94C75.52 11.61 74.24 9.98 72.86 9.2 72.04 8.75 70.91 8.48 70.01 8.71 68.93 8.7 68.02 9.11 68.19 10.27 68.38 11.53 69.44 12.73 70.76 13.39 72.16 14.08 73.93 14.19 74.71 12.94Z" fill="#73AA15"/><path d="M65.84 15.5C67.42 14.51 65.75 12.6 64.44 11.95 63.98 11.72 63.45 11.57 62.99 11.81 62.5 12.07 62.26 12.49 62.28 12.93 62.21 13.16 62.21 13.45 62.33 13.84 62.7 14.99 64.54 16.34 65.84 15.5Z" fill="#73AA15"/><path d="M59.29 8.97C59.11 8.83 58.92 8.71 58.68 8.62L58.72 8.65C58.44 8.54 58.11 8.5 57.97 8.76 57.94 8.84 57.9 8.94 57.87 9.02 57.63 9.61 58.51 10.45 59.2 10.52 60.33 10.64 59.78 9.34 59.29 8.97Z" fill="#73AA15"/><path d="M89.06 33.05C90.89 32.24 89.87 30.03 88.88 28.78 88.53 28.29 88.09 27.86 87.56 27.5 86.49 26.68 85.1 26.03 83.79 26.31 83.65 26.33 83.57 26.38 83.44 26.42 83.05 26.5 82.66 26.62 82.34 26.84 80.67 28.02 82.16 30.46 83.47 31.57 84.86 32.74 87.25 33.86 89.06 33.05Z" fill="#C9CD0D"/><path d="M86.03 37.04C86.15 37 86.29 36.97 86.38 36.91 86.36 36.9 86.35 36.89 86.34 36.88 86.67 36.69 86.77 36.31 86.61 35.92 86.48 35.53 86.2 35.19 85.82 34.9 85.09 34.34 83.73 34.17 83.82 35.28 83.87 35.75 84.2 36.24 84.62 36.58 84.94 36.82 85.58 37.18 86.03 37.04Z" fill="#73AA15"/><path d="M71.24 42.28C72.61 42.03 72.64 40.94 72.16 39.96 71.8 39.22 70.91 38.56 70.08 38.15 68.65 37.43 66.1 36.84 66.02 38.71 66.01 38.77 65.97 38.84 65.97 38.91 65.91 39.98 66.8 41.14 67.85 41.77 68.85 42.34 70.13 42.48 71.24 42.28Z" fill="#73AA15"/></g><path d="M26.89 64.35C28 64.27 28.49 63.45 28.49 62.6 28.48 61.48 27.39 60.48 26.39 59.82 25.78 59.44 24.68 59.07 23.97 59.31 23.88 59.33 23.8 59.37 23.73 59.4 23.26 59.39 22.97 59.63 22.78 59.97 22.28 60.83 22.92 61.89 23.53 62.67 24.24 63.6 25.55 64.46 26.89 64.35Z" fill="#8EB60F" opacity="0.4"/><path d="M20.15 57.97C20.25 57.3 19.76 56.58 19.06 56.21 18.52 55.91 17.56 55.82 17.47 56.49 17.37 57.17 17.88 57.88 18.57 58.26 19.11 58.57 20.06 58.64 20.15 57.97Z" fill="#8EB60F" opacity="0.4"/><path d="M21.04 71.25C21.03 69.69 19.45 68.09 17.89 67.31 17.08 66.9 16.26 66.67 15.35 66.76 14.32 66.86 13.68 67.79 13.77 68.61 13.86 69.32 14.17 69.91 14.63 70.48 15.28 71.52 16.42 72.42 17.6 72.94 19.34 73.67 21.07 72.79 21.04 71.25Z" fill="#8EB60F" opacity="0.4"/><path d="M40.42 43.07C40.27 42.64 39.77 42.02 39.2 41.67 39.16 41.63 39.14 41.59 39.1 41.57 38.68 41.18 38.12 41.1 37.61 41.31 36.98 41.57 37.17 42.35 37.39 42.78 37.77 43.55 38.7 43.99 39.61 44.14 40.39 44.3 40.58 43.55 40.42 43.07Z" fill="#8EB60F"/><path d="M96.75 59.17C97.69 58.51 97.29 57.31 96.57 56.53 95.93 55.86 95.08 55.39 94.15 55.07 92.64 54.56 90.34 54.29 90.33 56.07 90.33 56.82 90.89 57.69 91.68 58.24 93 59.46 95.37 60.13 96.75 59.17Z" fill="#38711D"/><path d="M96.28 65.16C96.2 64.37 94.75 62.94 93.87 63.77L93.87 63.77C93.86 63.79 93.84 63.79 93.84 63.81 93.79 63.85 93.79 63.86 93.8 63.86 93.78 63.87 93.77 63.87 93.77 63.9 93.49 64.3 93.82 64.88 94.16 65.24 94.48 65.58 94.89 65.89 95.42 65.94 95.99 65.99 96.32 65.62 96.28 65.16Z" fill="#38711D"/></g><g><path d="M196.15 100.07C196.15 100.07 203.64 111.91 213.2 101.35 217.35 101.63 220 95.47 217.71 93.16 223.42 96.86 235.46 93.32 233.18 84.73 233.18 84.73 251.46 85.34 245.23 68.65 254.98 69.08 256.47 57.62 247.73 54.79 253.91 50.3 247.79 43.42 241.83 44.27 250.34 39.09 242.81 23.98 227.66 30.22 228.97 24.47 223.39 24.31 220.46 25.46 222.85 19.69 210.06 14.77 203.76 24.09 199.41 19.1 189.53 23.49 190.29 27.74 182.99 24.81 183.7 29.97 183.5 31.53 175.26 30.06 170.19 34.53 174.47 38.34 166.46 38.61 173.08 45.92 173.08 45.92 163.05 46.78 158.6 60.33 167.72 62.13 160.22 64.93 165.9 69.54 165.9 69.54 160.21 71.2 163.88 82.68 171.42 81.05 165.4 87 176.86 94.38 181.15 91.94 180.16 97.6 187.55 102.89 196.15 100.07Z" fill="#367F1D"/><path d="M213.19 101.35C217.34 101.63 219.99 95.47 217.7 93.16 223.41 96.86 235.45 93.32 233.17 84.73 233.17 84.73 251.45 85.34 245.22 68.65 254.97 69.08 256.46 57.62 247.72 54.79 253.9 50.3 247.78 43.42 241.82 44.27 250.33 39.09 242.8 23.98 227.65 30.22 228.96 24.47 223.38 24.31 220.45 25.46 222.84 19.69 210.05 14.77 203.75 24.09 199.4 19.1 189.52 23.49 190.28 27.74 182.98 24.81 183.69 29.97 183.49 31.53 175.25 30.06 170.18 34.53 174.46 38.34 166.45 38.61 173.07 45.92 173.07 45.92 163.04 46.78 158.59 60.33 167.71 62.13 160.21 64.93 165.89 69.54 165.89 69.54 160.2 71.2 163.87 82.68 171.41 81.05 165.39 87 176.85 94.38 181.14 91.94 180.19 97.6 187.57 102.89 196.17 100.07 196.15 100.07 203.63 111.91 213.19 101.35ZM194.36 25.42C195.01 25.34 195.6 25.44 196.09 25.65 196.17 25.65 196.27 25.67 196.35 25.72 197.15 26.13 197.77 26.78 197.68 27.64 197.6 28.31 197.13 28.99 196.39 29.36 194.71 30.21 192.5 29.07 192.16 27.63 191.89 26.52 193.07 25.57 194.36 25.42ZM180.7 38.8C178.99 38.77 177.17 37.9 176.41 36.65 175.57 35.2 176.74 33.02 178.97 33.16 180.57 33.26 182.04 34.19 182.57 35.42 182.69 35.48 182.8 35.57 182.82 35.67 183.29 37.09 182.93 38.86 180.7 38.8ZM180.97 43.78C180.31 43.46 179.95 42.84 179.33 42.49 178.87 42.24 179.28 41.83 179.71 41.89 179.73 41.89 179.78 41.89 179.87 41.83 179.98 41.77 180.07 41.71 180.18 41.66 180.42 41.52 180.7 41.35 180.99 41.32 182.05 41.23 182.53 42.02 182.79 42.72 182.93 43.08 182.53 43.21 182.19 43.14 182.18 43.34 182.14 43.53 181.99 43.66 181.75 43.95 181.3 43.95 180.97 43.78ZM201.68 42.21C200.27 42.45 198.86 42.31 197.76 41.45 196.61 40.55 195.96 39.15 196.66 37.99 192.68 38.28 187.43 35.92 187.88 32.37 188.39 28.39 193.29 29.66 194.25 32.41 194.78 32.27 195.33 32.24 195.78 32.35 196.05 31.06 197.19 30.48 198.51 30.44 198.06 29.16 198.24 27.66 199.88 27 201.92 26.2 203.35 27.51 204.12 28.95 204.8 28 206.15 27.72 207.64 27.56 207.48 24.9 210.47 22.45 214.09 23.14 217.07 23.7 217.07 26.04 216.28 28.15 217.88 27.6 219.79 27.84 221.05 28.62 222.11 28.21 223.55 28.36 224.61 28.89 225.97 29.58 226.58 30.69 226.79 31.93 227.31 31.72 227.9 31.56 228.57 31.49 230.63 31.26 232.46 31.51 232.87 32.96 234.31 32.24 236.41 32.54 236.99 33.35 240.54 31.8 244.92 37.24 240.55 38.66 241.4 39.43 241.81 40.53 241.39 41.68 240.46 44.17 236.69 44.91 233.72 44.62 234.58 45.47 234.87 46.52 234.32 47.52 236.34 46.84 238.68 46.33 240.21 47.44 241.64 48.47 242.2 50.42 240.55 51.76 239.59 52.55 237.89 53.04 236.13 53.17 237.09 54.67 237.23 56.53 236.04 58.17 235.01 59.57 232.93 59.65 231.33 59 231.43 61.11 229.57 63.06 226.55 61.53 224.6 60.53 222.88 58.39 222.2 56.12 221.82 56.24 221.5 56.32 221.29 56.32 218.98 56.25 217.1 55.3 216 53.69 215.95 53.6 215.88 53.51 215.81 53.4 214.8 53.69 213.65 53.75 212.31 53.47 210.46 53.09 208.36 51.61 208.55 50.08 206.4 50.7 203.61 50.3 203.2 48.39 203.04 47.64 203.12 46.21 203.64 45.23 202.43 44.93 201.43 44.14 201.51 42.99 201.52 42.7 201.58 42.45 201.68 42.21ZM186.77 78.1C185.4 77.16 184.28 75.64 183.59 73.99 182.19 73.92 180.76 73.62 179.31 72.99 176.06 71.55 173.16 67.95 176.59 66.06 174.05 65.74 171.71 64.51 172.75 61.93 173.27 60.64 174.17 59.66 175.3 58.97 172.61 57.77 170.57 55.88 170.51 53.43 170.4 48.43 178.17 47.97 180.16 51.3 182.09 49.29 187.89 50.06 189.21 53.14 192.75 53.76 196.64 57.02 192.48 59.27 195.89 59.28 199.08 60.01 200.54 62.95 201.82 65.47 200.98 67.89 198.12 69.1 200.9 70.11 201.49 72.75 199.46 75.15 197.41 77.59 194.54 77.38 192.3 76.12 192.51 76.94 192.31 77.78 191.12 78.25 189.63 78.85 188.07 78.99 186.77 78.1Z" fill="#38711D" opacity="0.4"/><path d="M247.22 48.83C244.88 50.57 244.1 52.74 245.9 54.82 246.31 55.3 245.42 55.48 245.06 55.16 242.57 52.96 241.1 57.58 240.9 59.02 240.63 61.04 240.7 63.31 242.37 64.83 242.79 65.29 241.88 65.48 241.53 65.16 238.08 61.25 231.85 63.92 229.84 67.94 229.65 68.33 229.03 68.03 228.89 67.82 227.81 66.21 226.05 64.14 223.44 64.31 221.83 64.42 220.27 65.25 219.46 66.45 216.87 70.3 221.84 71.67 225.55 71.66 226.04 71.66 226.39 72.22 225.79 72.39 221.31 73.61 224.12 77.91 225.93 79.71 228.84 82.62 233.17 83.84 237.67 84.27 238.57 83.5 239.28 82.72 239.68 82.01 239.92 81.59 240.85 81.97 240.61 82.4 240.37 82.84 240.03 83.3 239.6 83.76 244.15 82.24 248.84 78.38 245.2 68.67 254.95 69.1 256.44 57.64 247.7 54.81 250.75 52.59 250.8 49.8 249.36 47.66 248.51 48 247.75 48.43 247.22 48.83Z" fill="#38711D" opacity="0.4"/><path d="M213.19 101.35C217.34 101.63 219.99 95.47 217.7 93.16 222.63 96.34 232.25 94.16 233.34 87.99 228.47 90.15 222.97 90.59 222.37 85.87 219.76 87.24 215.16 87.73 214.15 84.96 213.07 81.97 216.51 79.82 219.72 78.52 216.06 77.98 214.19 74.58 216.98 71.74 214.15 71.57 212.33 69.9 211.47 67.64 209.76 68.55 208.05 69.09 206.1 69.02 207.14 71.3 207.76 74.48 206.88 76.87 205.97 79.28 203.76 79.08 201.76 78.21 202.22 80.07 202.09 82.59 200.01 83.78 198.29 84.77 196.66 84.48 195.22 83.71 195.58 85.6 194.71 87.55 191.9 87.8 189.94 87.97 188.88 86.92 188.75 85.59 184.45 88.65 177.48 85.71 180.8 81.39 177.86 81.48 174.71 80.42 172.97 78.56 171.19 76.65 171.84 74.86 174.07 73.72 171.56 73.24 169.21 71.88 168.69 69.7 168.24 67.75 169.66 66.88 171.54 66.95 169.94 65.3 169.8 63.55 170.51 61.27 167.61 61.04 164.21 58.82 167.17 57.02 165.59 56.45 164.05 55.29 163.12 53.95 162.04 57.58 163.25 61.25 167.7 62.13 160.2 64.93 165.88 69.54 165.88 69.54 160.19 71.2 163.86 82.68 171.4 81.05 165.38 87 176.84 94.38 181.13 91.94 180.18 97.6 187.56 102.89 196.16 100.07 196.15 100.07 203.63 111.91 213.19 101.35Z" fill="#176020" opacity="0.3"/><path d="M213.19 101.35C217.34 101.63 219.99 95.47 217.7 93.16 222.63 96.34 232.25 94.16 233.34 87.99 228.47 90.15 222.97 90.59 222.37 85.87 219.76 87.24 215.16 87.73 214.15 84.96 213.07 81.97 216.51 79.82 219.72 78.52 218.86 78.39 218.11 78.1 217.49 77.71 214.87 80.14 210.98 81.36 207.06 80.63 209.7 83.38 212.35 89.31 207.37 89.11 210.36 91.76 209.63 96.4 204.26 97.2 200.64 97.73 199.11 94.84 198.95 92.08 197.09 94.47 193.92 96.03 190.34 95.49 186.9 94.96 185.78 92.85 187.32 90.65 184.89 91.19 182.03 90.89 180.35 89.54 179.31 88.69 179.27 87.95 179.91 87.37 175.63 87.35 171.25 85.92 170.3 82.42 167.07 88.07 177.13 94.2 181.1 91.93 180.15 97.59 187.53 102.88 196.13 100.06 196.15 100.07 203.63 111.91 213.19 101.35Z" fill="#176020" opacity="0.3"/><path d="M186.73 54.99C187.64 54.2 187.3 53.18 186.64 52.45 185.77 51.49 184.29 50.93 182.8 51 182.09 51.04 181.57 51.31 181.26 51.7 180.84 52.08 180.69 52.63 180.88 53.16 181.21 54.17 182.37 54.9 183.48 55.27 183.73 55.34 184 55.39 184.27 55.43 184.44 55.44 184.6 55.45 184.78 55.46 184.39 55.45 185.12 55.47 185.22 55.46 185.71 55.44 186.37 55.3 186.73 54.99Z" fill="#8EB60F"/><path d="M178.48 52.97C178.93 52.57 178.27 51.92 177.96 51.72 177.55 51.46 176.86 51.12 176.29 51.34 176.26 51.35 176.23 51.36 176.2 51.38 175.83 51.52 175.54 51.77 175.62 52.12 175.62 52.14 175.63 52.16 175.64 52.18 175.72 52.57 176.02 52.86 176.4 53.07 176.7 53.22 177.21 53.35 177.63 53.29 177.94 53.3 178.22 53.22 178.48 52.97Z" fill="#8EB60F"/><g opacity="0.4"><path d="M215.62 26.72C215.86 25.35 214.25 24.42 212.85 24.23 212.02 24.12 210.99 24.28 210.33 24.76 209.43 25.11 208.81 25.75 209.33 26.66 209.91 27.64 211.18 28.29 212.49 28.4 213.88 28.51 215.39 28.01 215.62 26.72Z" fill="#73AA15"/><path d="M209.11 31.76C210.09 30.42 208.08 29.38 206.78 29.28 206.33 29.24 205.84 29.29 205.53 29.64 205.21 30.02 205.15 30.45 205.31 30.81 205.33 31.03 205.43 31.26 205.65 31.55 206.34 32.38 208.3 32.89 209.11 31.76Z" fill="#73AA15"/><path d="M201.53 28.5C201.33 28.44 201.13 28.41 200.91 28.41L200.95 28.42C200.68 28.42 200.39 28.49 200.36 28.75 200.36 28.83 200.36 28.92 200.36 29 200.35 29.57 201.36 29.98 201.96 29.81 202.94 29.55 202.06 28.65 201.53 28.5Z" fill="#73AA15"/><path d="M234.15 38.68C235.4 37.4 233.83 35.9 232.59 35.2 232.14 34.91 231.63 34.7 231.07 34.57 229.91 34.24 228.55 34.16 227.55 34.82 227.44 34.88 227.39 34.95 227.3 35.03 227 35.22 226.72 35.45 226.52 35.74 225.52 37.27 227.56 38.8 229.02 39.29 230.56 39.8 232.91 39.94 234.15 38.68Z" fill="#C9CD0D"/><path d="M232.95 42.97C233.04 42.9 233.14 42.82 233.2 42.75 233.18 42.75 233.17 42.74 233.16 42.74 233.37 42.47 233.32 42.13 233.07 41.85 232.83 41.57 232.49 41.38 232.08 41.27 231.29 41.04 230.1 41.35 230.55 42.24 230.74 42.62 231.18 42.91 231.64 43.05 231.97 43.15 232.62 43.24 232.95 42.97Z" fill="#73AA15"/><path d="M222.41 52.19C223.47 51.53 223.12 50.62 222.41 49.96 221.86 49.46 220.92 49.21 220.09 49.14 218.66 49.01 216.36 49.36 216.91 50.94 216.92 51 216.91 51.06 216.94 51.12 217.24 52.02 218.36 52.69 219.44 52.87 220.45 53.03 221.56 52.73 222.41 52.19Z" fill="#73AA15"/></g><path d="M192.89 85.1C193.79 84.67 193.92 83.83 193.64 83.12 193.26 82.2 192.03 81.73 190.98 81.51 190.35 81.4 189.32 81.45 188.81 81.88 188.74 81.93 188.69 81.98 188.64 82.04 188.24 82.19 188.09 82.48 188.04 82.82 187.91 83.7 188.79 84.37 189.55 84.81 190.45 85.36 191.82 85.63 192.89 85.1Z" fill="#8EB60F" opacity="0.4"/><path d="M185.21 82.03C185.07 81.44 184.43 81 183.72 80.93 183.17 80.86 182.35 81.1 182.49 81.69 182.64 82.29 183.28 82.71 183.99 82.8 184.54 82.87 185.35 82.62 185.21 82.03Z" fill="#8EB60F" opacity="0.4"/><path d="M190.32 92.75C189.8 91.46 187.96 90.66 186.41 90.52 185.6 90.45 184.85 90.53 184.12 90.9 183.3 91.32 183.08 92.3 183.42 92.96 183.73 93.52 184.19 93.91 184.75 94.23 185.63 94.88 186.87 95.25 188.03 95.29 189.7 95.32 190.85 94.02 190.32 92.75Z" fill="#8EB60F" opacity="0.4"/><path d="M197.11 63C196.84 62.7 196.23 62.35 195.64 62.24 195.59 62.22 195.56 62.2 195.52 62.19 195.04 62 194.55 62.12 194.2 62.46 193.76 62.88 194.18 63.47 194.5 63.75 195.07 64.26 195.98 64.32 196.79 64.15 197.49 64.03 197.4 63.35 197.11 63Z" fill="#8EB60F"/><path d="M249.13 57.81C249.69 56.95 248.97 56.09 248.11 55.68 247.35 55.33 246.5 55.22 245.62 55.26 244.19 55.33 242.2 55.87 242.78 57.35 243.03 57.98 243.78 58.51 244.61 58.7 246.11 59.27 248.3 59.06 249.13 57.81Z" fill="#38711D"/><path d="M250.71 62.92C250.38 62.29 248.71 61.58 248.25 62.56L248.25 62.56C248.25 62.58 248.23 62.59 248.23 62.6 248.2 62.65 248.21 62.66 248.22 62.65 248.21 62.67 248.2 62.67 248.2 62.69 248.1 63.12 248.57 63.49 248.97 63.67 249.35 63.84 249.79 63.97 250.24 63.83 250.74 63.71 250.89 63.29 250.71 62.92Z" fill="#38711D"/></g><g><path d="M120.7 115.38C120.7 115.38 131.24 128.35 141.07 114.49 146.03 114.23 148.29 106.57 145.25 104.16 152.54 107.73 166.29 101.83 162.38 91.99 162.38 91.99 184.12 90.13 174.37 71.24 185.98 70.37 186.12 56.58 175.37 54.47 182.05 48.28 173.83 41 166.89 42.85 176.23 35.52 165.18 18.68 148.12 28.22 148.85 21.22 142.23 21.83 138.92 23.6 140.94 16.43 125.09 12.41 118.94 24.34 113.09 19.05 102 25.64 103.5 30.57 94.45 28.13 96.02 34.14 96 36.02 86.03 35.45 80.66 41.45 86.27 45.37 76.82 46.82 85.69 54.54 85.69 54.54 73.93 56.97 70.58 73.66 81.63 74.5 73.14 78.87 80.52 83.53 80.52 83.53 74.01 86.3 79.98 99.37 88.68 96.38 82.4 104.28 97 111.4 101.74 107.9 101.42 114.71 110.92 119.93 120.7 115.38Z" fill="#8EB60F"/><path d="M141.07 114.48C146.03 114.22 148.29 106.56 145.25 104.15 152.54 107.72 166.29 101.82 162.38 91.98 162.38 91.98 184.12 90.12 174.37 71.23 185.98 70.36 186.12 56.57 175.37 54.46 182.05 48.27 173.83 40.99 166.89 42.84 176.23 35.51 165.18 18.67 148.12 28.21 148.85 21.21 142.23 21.82 138.92 23.59 140.94 16.42 125.09 12.4 118.94 24.33 113.09 19.04 102 25.63 103.5 30.56 94.45 28.12 96.02 34.13 96 36.01 86.03 35.44 80.66 41.44 86.27 45.36 76.82 46.81 85.69 54.53 85.69 54.53 73.93 56.96 70.58 73.65 81.63 74.49 73.14 78.86 80.52 83.52 80.52 83.52 74.01 86.29 79.98 99.36 88.68 96.37 82.4 104.27 97 111.39 101.74 107.89 101.41 114.72 110.91 119.94 120.69 115.39 120.7 115.38 131.24 128.34 141.07 114.48ZM108.02 27.22C108.78 27.03 109.49 27.07 110.1 27.24 110.19 27.24 110.32 27.24 110.42 27.29 111.42 27.66 112.25 28.34 112.26 29.37 112.26 30.18 111.8 31.04 110.97 31.59 109.09 32.84 106.32 31.8 105.72 30.14 105.25 28.88 106.51 27.58 108.02 27.22ZM93.74 45C91.71 45.2 89.43 44.44 88.35 43.06 87.15 41.46 88.22 38.72 90.89 38.57 92.8 38.46 94.68 39.36 95.47 40.74 95.62 40.79 95.76 40.89 95.8 41 96.56 42.61 96.38 44.76 93.74 45ZM94.76 50.86C93.93 50.57 93.43 49.89 92.64 49.56 92.06 49.33 92.49 48.79 93 48.8 93.02 48.8 93.08 48.79 93.19 48.71 93.31 48.63 93.41 48.55 93.53 48.46 93.79 48.26 94.1 48.02 94.45 47.95 95.7 47.69 96.38 48.55 96.78 49.36 97 49.77 96.54 49.98 96.12 49.94 96.13 50.18 96.11 50.41 95.96 50.59 95.7 50.96 95.17 51.01 94.76 50.86ZM119.06 46.07C117.42 46.55 115.74 46.59 114.31 45.72 112.82 44.81 111.85 43.26 112.52 41.78 107.85 42.69 101.3 40.64 101.33 36.37 101.37 31.59 107.36 32.39 108.88 35.51 109.48 35.27 110.14 35.15 110.68 35.23 110.82 33.67 112.09 32.82 113.64 32.59 112.92 31.14 112.92 29.33 114.77 28.32 117.08 27.09 118.95 28.44 120.07 30.03 120.74 28.81 122.3 28.28 124.04 27.88 123.48 24.75 126.67 21.42 131.05 21.74 134.66 21.98 134.99 24.75 134.36 27.37 136.18 26.49 138.48 26.51 140.08 27.25 141.28 26.61 143.01 26.58 144.33 27.07 146.04 27.7 146.92 28.93 147.35 30.36 147.94 30.03 148.61 29.77 149.4 29.59 151.81 29.03 154 29.06 154.7 30.73 156.3 29.67 158.84 29.73 159.63 30.61 163.61 28.27 169.57 34.1 164.6 36.4 165.71 37.2 166.36 38.44 166.02 39.86 165.27 42.94 160.9 44.36 157.35 44.43 158.48 45.31 158.98 46.52 158.47 47.78 160.76 46.69 163.46 45.75 165.43 46.85 167.28 47.87 168.21 50.1 166.45 51.92 165.43 52.99 163.48 53.82 161.42 54.22 162.77 55.86 163.2 58.05 162.02 60.16 161 61.97 158.54 62.36 156.56 61.81 156.97 64.29 155.04 66.87 151.25 65.48 148.8 64.57 146.46 62.28 145.33 59.68 144.9 59.88 144.53 60.02 144.27 60.04 141.53 60.28 139.17 59.43 137.63 57.67 137.56 57.57 137.46 57.47 137.37 57.36 136.21 57.85 134.86 58.08 133.24 57.94 130.99 57.75 128.3 56.3 128.3 54.46 125.84 55.49 122.48 55.42 121.72 53.21 121.42 52.34 121.32 50.64 121.8 49.41 120.32 49.23 119.03 48.43 118.96 47.05 118.94 46.68 118.97 46.37 119.06 46.07ZM106.48 90.69C104.73 89.77 103.18 88.13 102.13 86.27 100.46 86.39 98.72 86.23 96.92 85.7 92.87 84.46 88.93 80.6 92.71 77.88 89.66 77.86 86.71 76.74 87.57 73.53 88.01 71.94 88.94 70.64 90.18 69.66 86.82 68.61 84.14 66.67 83.73 63.78 82.89 57.87 92.03 56.22 94.86 59.89 96.86 57.23 103.83 57.32 105.84 60.79 110.12 61.03 115.18 64.33 110.58 67.59 114.63 67.12 118.5 67.53 120.65 70.8 122.52 73.61 121.87 76.59 118.65 78.42 122.08 79.22 123.15 82.26 121.09 85.39 119.01 88.56 115.58 88.73 112.75 87.55 113.12 88.5 113 89.51 111.66 90.24 109.98 91.17 108.15 91.56 106.48 90.69Z" fill="#38711D" opacity="0.4"/><path d="M173.93 47.47C171.4 49.86 170.79 52.54 173.22 54.75 173.78 55.26 172.74 55.6 172.28 55.27 169.01 53.02 167.93 58.69 167.9 60.43 167.86 62.86 168.28 65.54 170.47 67.09 171.04 67.58 169.98 67.93 169.52 67.61 164.89 63.46 157.89 67.52 156.08 72.56 155.91 73.04 155.13 72.78 154.93 72.55 153.42 70.8 151.04 68.59 147.98 69.17 146.09 69.52 144.36 70.73 143.57 72.27 141.05 77.2 147.13 78.12 151.52 77.57 152.1 77.5 152.59 78.11 151.91 78.4 146.78 80.47 150.71 85.17 153.11 87.05 156.97 90.08 162.27 90.92 167.66 90.78 168.62 89.73 169.35 88.71 169.72 87.82 169.94 87.28 171.11 87.6 170.88 88.15 170.65 88.7 170.33 89.3 169.88 89.9 175.05 87.46 180.06 82.23 174.37 71.23 185.98 70.36 186.12 56.57 175.37 54.46 178.67 51.4 178.33 48.09 176.32 45.75 175.34 46.3 174.5 46.92 173.93 47.47Z" fill="#38711D" opacity="0.4"/><path d="M141.07 114.48C146.03 114.22 148.29 106.56 145.25 104.15 151.54 107.22 162.62 103.27 163.04 95.82 157.58 99.07 151.13 100.37 149.75 94.86 146.85 96.85 141.47 98.09 139.88 94.94 138.17 91.56 141.95 88.52 145.57 86.52 141.16 86.4 138.47 82.63 141.36 78.88 137.98 79.08 135.59 77.36 134.25 74.8 132.36 76.12 130.41 77.01 128.08 77.19 129.64 79.75 130.83 83.42 130.11 86.38 129.37 89.36 126.73 89.44 124.24 88.69 125.05 90.83 125.25 93.83 122.95 95.54 121.06 96.95 119.09 96.84 117.27 96.13 117.97 98.32 117.2 100.75 113.92 101.44 111.62 101.92 110.22 100.82 109.87 99.26 105.21 103.5 96.54 101 99.86 95.42 96.39 95.94 92.52 95.14 90.19 93.18 87.81 91.16 88.32 88.96 90.81 87.3 87.77 87.09 84.79 85.81 83.87 83.29 83.07 81.04 84.62 79.81 86.85 79.63 84.72 77.9 84.3 75.85 84.83 73.05 81.36 73.19 77.03 71.04 80.27 68.49 78.31 68.04 76.34 66.88 75.03 65.43 74.26 69.88 76.21 74.06 81.61 74.47 73.12 78.84 80.5 83.5 80.5 83.5 73.99 86.27 79.96 99.34 88.66 96.35 82.38 104.25 96.98 111.37 101.72 107.87 101.39 114.7 110.89 119.92 120.67 115.37 120.7 115.38 131.24 128.34 141.07 114.48Z" fill="#176020" opacity="0.3"/><path d="M141.07 114.48C146.03 114.22 148.29 106.56 145.25 104.15 151.54 107.22 162.62 103.27 163.04 95.82 157.58 99.07 151.13 100.37 149.75 94.86 146.85 96.85 141.47 98.09 139.88 94.94 138.17 91.56 141.95 88.52 145.57 86.52 144.54 86.49 143.6 86.25 142.81 85.87 140.05 89.11 135.61 91.12 130.87 90.8 134.39 93.68 138.36 100.33 132.43 100.8 136.35 103.51 136.14 109.11 129.9 110.82 125.69 111.96 123.46 108.75 122.89 105.51 121.02 108.6 117.5 110.9 113.18 110.77 109.03 110.63 107.4 108.3 108.91 105.47 106.11 106.45 102.68 106.5 100.5 105.14 99.15 104.29 99 103.41 99.68 102.64 94.61 103.22 89.22 102.15 87.6 98.14 84.58 105.29 97.36 111.12 101.74 107.87 101.41 114.7 110.91 119.92 120.69 115.37 120.7 115.38 131.24 128.34 141.07 114.48Z" fill="#176020" opacity="0.3"/><path d="M103.17 63.32C104.13 62.26 103.59 61.09 102.7 60.32 101.53 59.31 99.7 58.86 97.95 59.15 97.12 59.3 96.53 59.69 96.23 60.19 95.78 60.7 95.69 61.37 95.98 61.98 96.52 63.13 97.99 63.83 99.36 64.11 99.67 64.16 99.99 64.18 100.32 64.19 100.52 64.18 100.71 64.17 100.92 64.15 100.45 64.19 101.32 64.11 101.44 64.09 102.02 64.01 102.78 63.74 103.17 63.32Z" fill="#8EB60F"/><path d="M93.11 62.1C93.59 61.56 92.72 60.89 92.31 60.69 91.79 60.44 90.92 60.14 90.28 60.48 90.24 60.5 90.21 60.52 90.18 60.54 89.76 60.75 89.45 61.09 89.6 61.5 89.61 61.52 89.62 61.54 89.63 61.56 89.78 62.01 90.18 62.31 90.66 62.5 91.04 62.63 91.66 62.72 92.15 62.58 92.52 62.57 92.84 62.43 93.11 62.1Z" fill="#8EB60F"/><g opacity="0.4"><path d="M133.37 25.75C133.46 24.09 131.43 23.22 129.74 23.19 128.74 23.18 127.55 23.51 126.83 24.18 125.82 24.72 125.17 25.56 125.92 26.56 126.74 27.64 128.34 28.23 129.91 28.17 131.58 28.12 133.28 27.31 133.37 25.75Z" fill="#73AA15"/><path d="M126.38 32.65C127.35 30.92 124.82 29.98 123.27 30.04 122.73 30.06 122.15 30.18 121.84 30.64 121.51 31.14 121.51 31.65 121.74 32.05 121.8 32.3 121.94 32.57 122.25 32.88 123.19 33.77 125.59 34.1 126.38 32.65Z" fill="#73AA15"/><path d="M116.94 29.86C116.7 29.81 116.46 29.8 116.19 29.84L116.24 29.85C115.92 29.89 115.59 30.02 115.59 30.33 115.6 30.43 115.62 30.53 115.63 30.63 115.7 31.31 116.96 31.65 117.64 31.36 118.76 30.9 117.59 29.96 116.94 29.86Z" fill="#73AA15"/><path d="M157.01 37.29C158.31 35.6 156.24 34.05 154.67 33.38 154.1 33.1 153.46 32.92 152.78 32.85 151.36 32.62 149.74 32.72 148.65 33.65 148.53 33.74 148.48 33.82 148.38 33.93 148.05 34.2 147.75 34.51 147.56 34.88 146.59 36.83 149.23 38.36 151.02 38.73 152.93 39.13 155.73 38.96 157.01 37.29Z" fill="#C9CD0D"/><path d="M156.2 42.55C156.29 42.45 156.4 42.35 156.46 42.25 156.44 42.25 156.42 42.25 156.41 42.24 156.62 41.89 156.52 41.49 156.18 41.2 155.86 40.9 155.42 40.72 154.92 40.65 153.95 40.49 152.59 41.03 153.24 42.02 153.52 42.44 154.08 42.72 154.65 42.83 155.07 42.9 155.85 42.91 156.2 42.55Z" fill="#73AA15"/><path d="M145.02 54.96C146.18 54.03 145.64 53 144.7 52.33 143.98 51.82 142.82 51.66 141.84 51.69 140.13 51.74 137.45 52.48 138.33 54.27 138.35 54.34 138.35 54.42 138.39 54.48 138.88 55.51 140.3 56.14 141.6 56.2 142.82 56.24 144.09 55.71 145.02 54.96Z" fill="#73AA15"/></g><path d="M114.73 98.11C115.73 97.48 115.77 96.46 115.34 95.66 114.76 94.62 113.24 94.24 111.96 94.13 111.2 94.08 109.98 94.3 109.44 94.88 109.37 94.95 109.31 95.02 109.26 95.09 108.81 95.32 108.66 95.69 108.66 96.1 108.63 97.16 109.77 97.83 110.73 98.25 111.87 98.76 113.54 98.89 114.73 98.11Z" fill="#8EB60F" opacity="0.4"/><path d="M105.19 95.57C104.94 94.89 104.12 94.46 103.27 94.47 102.61 94.46 101.67 94.87 101.92 95.54 102.18 96.23 103 96.63 103.85 96.64 104.52 96.65 105.44 96.24 105.19 95.57Z" fill="#8EB60F" opacity="0.4"/><path d="M112.76 107.54C111.96 106.09 109.67 105.39 107.81 105.45 106.84 105.48 105.96 105.68 105.15 106.22 104.23 106.83 104.12 108.03 104.61 108.75 105.06 109.37 105.65 109.77 106.37 110.07 107.51 110.71 109.03 110.98 110.4 110.86 112.39 110.66 113.57 108.96 112.76 107.54Z" fill="#8EB60F" opacity="0.4"/><path d="M116.59 71.34C116.23 71.02 115.45 70.69 114.74 70.65 114.68 70.63 114.64 70.61 114.59 70.61 114 70.46 113.43 70.67 113.06 71.12 112.6 71.68 113.18 72.31 113.6 72.6 114.35 73.13 115.44 73.07 116.37 72.75 117.18 72.5 116.99 71.71 116.59 71.34Z" fill="#8EB60F"/><path d="M177.46 57.82C178 56.73 177.02 55.8 175.95 55.44 175.01 55.14 173.98 55.13 172.94 55.3 171.26 55.59 168.98 56.5 169.87 58.18 170.25 58.89 171.22 59.41 172.23 59.52 174.09 59.99 176.65 59.42 177.46 57.82Z" fill="#38711D"/><path d="M180.07 63.66C179.59 62.97 177.51 62.36 177.11 63.58L177.11 63.58C177.11 63.6 177.09 63.62 177.1 63.63 177.07 63.69 177.08 63.7 177.09 63.69 177.08 63.71 177.07 63.72 177.08 63.74 177.02 64.26 177.63 64.63 178.13 64.79 178.6 64.94 179.14 65.02 179.66 64.81 180.21 64.58 180.33 64.07 180.07 63.66Z" fill="#38711D"/></g></svg>