<svg width="68.4" height="68.4" viewBox="0 0 68.4 68.4" xmlns="http://www.w3.org/2000/svg" xmlns:xlink="http://www.w3.org/1999/xlink" xml:space="preserve" overflow="hidden"><defs></defs><g><linearGradient x1="0" y1="34.1992" x2="68.3984" y2="34.1992" gradientUnits="userSpaceOnUse" id="SVGID_1_"><stop offset="0" stop-color="#0071BC"/><stop offset="0.4802" stop-color="#009FE2"/><stop offset="1" stop-color="#00BBFF"/></linearGradient><circle cx="34.2" cy="34.2" r="34.2" fill="url(#SVGID_1_)"/><g><path d="M27.94 15.57 18.38 15.57C16.62 15.57 15.19 17 15.19 18.76L15.19 28.32C15.19 30.08 16.62 31.51 18.38 31.51L27.94 31.51C29.7 31.51 31.13 30.08 31.13 28.32L31.13 18.76C31.13 16.99 29.69 15.57 27.94 15.57Z" fill="#FFFFFF"/><path d="M50.25 15.57 40.69 15.57C38.93 15.57 37.5 17 37.5 18.76L37.5 28.32C37.5 30.08 38.93 31.51 40.69 31.51L50.25 31.51C52.01 31.51 53.44 30.08 53.44 28.32L53.44 18.76C53.43 16.99 52.01 15.57 50.25 15.57Z" fill="#FFFFFF"/><path d="M27.94 37.87 18.38 37.87C16.62 37.87 15.19 39.3 15.19 41.06L15.19 50.62C15.19 52.38 16.62 53.81 18.38 53.81L27.94 53.81C29.7 53.81 31.13 52.38 31.13 50.62L31.13 41.06C31.13 39.3 29.69 37.87 27.94 37.87Z" fill="#FFFFFF"/><path d="M50.25 37.87 40.69 37.87C38.93 37.87 37.5 39.3 37.5 41.06L37.5 50.62C37.5 52.38 38.93 53.81 40.69 53.81L50.25 53.81C52.01 53.81 53.44 52.38 53.44 50.62L53.44 41.06C53.43 39.3 52.01 37.87 50.25 37.87Z" fill="#FFFFFF"/></g></g></svg>