<svg width="190.65" height="130.46" viewBox="0 0 190.65 130.46" xmlns="http://www.w3.org/2000/svg" xmlns:xlink="http://www.w3.org/1999/xlink" xml:space="preserve" overflow="hidden"><defs></defs><g><path d="M128.75 87.64C128.75 87.64 136.83 100.43 147.15 89.02 151.63 89.32 154.49 82.67 152.02 80.18 158.19 84.18 171.18 80.35 168.72 71.08 168.72 71.08 188.46 71.74 181.73 53.72 192.26 54.19 193.86 41.81 184.43 38.75 191.1 33.9 184.5 26.48 178.06 27.4 187.24 21.81 179.12 5.5 162.76 12.23 164.17 6.02 158.15 5.85 154.99 7.09 157.58 0.86 143.76-4.45 136.96 5.61 132.27 0.22 121.59 4.96 122.41 9.55 114.53 6.39 115.3 11.96 115.08 13.64 106.18 12.05 100.71 16.88 105.33 21 96.68 21.29 103.83 29.18 103.83 29.18 93 30.1 88.19 44.74 98.04 46.68 89.94 49.7 96.07 54.68 96.07 54.68 89.92 56.47 93.88 68.86 102.03 67.11 95.53 73.54 107.9 81.51 112.53 78.86 111.49 84.97 119.47 90.68 128.75 87.64Z" fill="#367F1D"/><path d="M147.15 89.03C151.63 89.33 154.49 82.68 152.02 80.19 158.19 84.19 171.18 80.36 168.72 71.09 168.72 71.09 188.46 71.75 181.73 53.73 192.26 54.2 193.86 41.82 184.43 38.76 191.1 33.91 184.5 26.49 178.06 27.41 187.24 21.82 179.12 5.51 162.76 12.24 164.17 6.03 158.15 5.86 154.99 7.1 157.58 0.87 143.76-4.44 136.96 5.62 132.27 0.23 121.59 4.97 122.41 9.56 114.53 6.4 115.3 11.97 115.08 13.65 106.18 12.06 100.71 16.89 105.33 21.01 96.68 21.3 103.83 29.19 103.83 29.19 93 30.11 88.19 44.75 98.04 46.69 89.94 49.71 96.07 54.69 96.07 54.69 89.92 56.48 93.88 68.87 102.03 67.12 95.53 73.55 107.9 81.52 112.53 78.87 111.5 84.98 119.47 90.69 128.76 87.65 128.75 87.64 136.83 100.43 147.15 89.03ZM126.82 7.04C127.52 6.95 128.16 7.06 128.69 7.29 128.77 7.3 128.88 7.32 128.97 7.37 129.84 7.81 130.5 8.51 130.41 9.44 130.33 10.16 129.82 10.89 129.01 11.3 127.19 12.22 124.81 10.99 124.45 9.43 124.15 8.24 125.43 7.21 126.82 7.04ZM112.07 21.49C110.22 21.46 108.26 20.52 107.44 19.17 106.53 17.6 107.79 15.25 110.21 15.4 111.94 15.5 113.53 16.52 114.09 17.84 114.22 17.9 114.33 18 114.36 18.11 114.87 19.65 114.48 21.56 112.07 21.49ZM112.37 26.87C111.66 26.52 111.27 25.86 110.6 25.48 110.1 25.21 110.55 24.77 111 24.83 111.02 24.83 111.08 24.83 111.18 24.77 111.3 24.71 111.4 24.64 111.51 24.58 111.77 24.43 112.08 24.25 112.39 24.22 113.54 24.12 114.06 24.97 114.34 25.73 114.49 26.12 114.06 26.26 113.69 26.18 113.67 26.4 113.63 26.6 113.48 26.75 113.2 27.06 112.72 27.05 112.37 26.87ZM134.72 25.17C133.19 25.43 131.68 25.28 130.49 24.34 129.25 23.37 128.54 21.86 129.3 20.6 125.01 20.91 119.34 18.37 119.82 14.53 120.37 10.23 125.66 11.6 126.7 14.57 127.27 14.41 127.87 14.38 128.35 14.51 128.64 13.12 129.88 12.49 131.29 12.45 130.8 11.07 131 9.44 132.77 8.73 134.97 7.87 136.51 9.29 137.34 10.84 138.07 9.82 139.53 9.51 141.14 9.33 140.97 6.46 144.19 3.81 148.11 4.56 151.33 5.17 151.33 7.69 150.48 9.97 152.21 9.37 154.27 9.64 155.64 10.48 156.79 10.03 158.34 10.19 159.48 10.77 160.95 11.52 161.61 12.72 161.84 14.05 162.4 13.82 163.04 13.65 163.77 13.58 166 13.33 167.97 13.6 168.41 15.17 169.96 14.39 172.24 14.71 172.86 15.59 176.69 13.92 181.42 19.8 176.71 21.32 177.62 22.15 178.07 23.34 177.61 24.58 176.6 27.26 172.53 28.07 169.32 27.75 170.25 28.66 170.56 29.8 169.97 30.88 172.14 30.15 174.68 29.59 176.33 30.79 177.88 31.91 178.48 34.01 176.7 35.46 175.67 36.31 173.83 36.85 171.93 36.98 172.97 38.6 173.12 40.61 171.83 42.38 170.72 43.9 168.47 43.98 166.75 43.27 166.85 45.55 164.84 47.66 161.58 46 159.48 44.92 157.61 42.6 156.88 40.15 156.47 40.28 156.13 40.37 155.89 40.36 153.4 40.28 151.37 39.26 150.18 37.52 150.12 37.42 150.05 37.32 149.98 37.21 148.89 37.52 147.65 37.59 146.2 37.29 144.2 36.88 141.94 35.28 142.14 33.63 139.82 34.29 136.8 33.87 136.36 31.8 136.19 30.99 136.27 29.45 136.84 28.39 135.53 28.07 134.45 27.21 134.54 25.97 134.55 25.71 134.61 25.43 134.72 25.17ZM118.62 63.93C117.15 62.92 115.93 61.27 115.18 59.49 113.66 59.42 112.12 59.09 110.56 58.42 107.05 56.87 103.92 52.98 107.62 50.94 104.88 50.6 102.36 49.27 103.47 46.48 104.03 45.09 105.01 44.03 106.23 43.28 103.32 41.98 101.12 39.94 101.06 37.3 100.94 31.9 109.34 31.4 111.48 35 113.57 32.83 119.82 33.65 121.25 36.99 125.08 37.66 129.27 41.17 124.78 43.61 128.47 43.62 131.9 44.41 133.48 47.58 134.86 50.3 133.95 52.92 130.86 54.22 133.86 55.31 134.5 58.16 132.3 60.75 130.09 63.38 126.99 63.16 124.58 61.79 124.81 62.68 124.59 63.58 123.31 64.09 121.71 64.74 120.03 64.88 118.62 63.93Z" fill="#38711D" opacity="0.4"/><path d="M183.89 32.32C181.36 34.19 180.52 36.54 182.47 38.79 182.92 39.31 181.95 39.5 181.57 39.15 178.88 36.77 177.3 41.76 177.08 43.32 176.79 45.5 176.87 47.95 178.67 49.59 179.13 50.09 178.14 50.3 177.76 49.95 174.04 45.73 167.31 48.62 165.14 52.95 164.94 53.37 164.26 53.05 164.11 52.82 162.94 51.09 161.04 48.85 158.23 49.04 156.5 49.15 154.81 50.05 153.94 51.35 151.15 55.51 156.52 56.99 160.52 56.97 161.05 56.97 161.42 57.57 160.78 57.75 155.95 59.06 158.97 63.71 160.93 65.66 164.07 68.8 168.75 70.12 173.61 70.58 174.58 69.74 175.35 68.9 175.78 68.14 176.04 67.68 177.05 68.09 176.79 68.56 176.53 69.03 176.17 69.53 175.7 70.03 180.61 68.39 185.68 64.22 181.75 53.74 192.28 54.21 193.88 41.83 184.45 38.77 187.74 36.37 187.8 33.37 186.24 31.05 185.29 31.42 184.46 31.89 183.89 32.32Z" fill="#38711D" opacity="0.4"/><path d="M147.15 89.03C151.63 89.33 154.49 82.68 152.02 80.19 157.35 83.63 167.73 81.27 168.9 74.61 163.65 76.95 157.71 77.42 157.06 72.32 154.24 73.8 149.27 74.33 148.18 71.34 147.01 68.12 150.73 65.79 154.2 64.39 150.25 63.81 148.23 60.13 151.24 57.07 148.18 56.89 146.22 55.09 145.29 52.64 143.45 53.62 141.6 54.21 139.49 54.13 140.61 56.6 141.29 60.02 140.33 62.6 139.35 65.2 136.96 64.98 134.8 64.04 135.3 66.05 135.15 68.77 132.91 70.06 131.06 71.13 129.3 70.81 127.74 69.98 128.13 72.02 127.19 74.13 124.16 74.39 122.04 74.57 120.9 73.44 120.76 72 116.12 75.31 108.59 72.13 112.18 67.47 109.01 67.57 105.61 66.43 103.73 64.42 101.81 62.35 102.51 60.43 104.92 59.2 102.21 58.68 99.67 57.22 99.11 54.85 98.63 52.74 100.16 51.8 102.18 51.88 100.45 50.1 100.3 48.21 101.07 45.75 97.94 45.51 94.27 43.11 97.47 41.16 95.76 40.55 94.11 39.29 93.09 37.85 91.92 41.77 93.23 45.73 98.03 46.69 89.93 49.71 96.06 54.69 96.06 54.69 89.91 56.48 93.87 68.87 102.02 67.12 95.52 73.55 107.89 81.52 112.52 78.87 111.49 84.98 119.46 90.69 128.75 87.65 128.75 87.64 136.83 100.43 147.15 89.03Z" fill="#176020" opacity="0.3"/><path d="M147.15 89.03C151.63 89.33 154.49 82.68 152.02 80.19 157.35 83.63 167.73 81.27 168.9 74.61 163.65 76.95 157.71 77.42 157.06 72.32 154.24 73.8 149.27 74.33 148.18 71.34 147.01 68.12 150.73 65.79 154.2 64.39 153.28 64.25 152.46 63.94 151.79 63.51 148.96 66.13 144.76 67.45 140.53 66.66 143.39 69.62 146.24 76.03 140.86 75.82 144.09 78.68 143.3 83.69 137.51 84.56 133.6 85.13 131.95 82.01 131.78 79.03 129.77 81.61 126.35 83.3 122.49 82.71 118.77 82.14 117.56 79.86 119.22 77.49 116.6 78.07 113.51 77.75 111.7 76.29 110.58 75.38 110.54 74.58 111.23 73.95 106.61 73.93 101.88 72.39 100.85 68.61 97.37 74.71 108.23 81.32 112.51 78.88 111.48 84.99 119.45 90.7 128.74 87.66 128.75 87.64 136.83 100.43 147.15 89.03Z" fill="#176020" opacity="0.3"/><path d="M118.58 38.97C119.56 38.12 119.19 37.01 118.48 36.23 117.54 35.2 115.94 34.59 114.33 34.67 113.57 34.71 113 35 112.67 35.42 112.21 35.83 112.06 36.43 112.25 37 112.61 38.1 113.86 38.88 115.06 39.28 115.33 39.36 115.62 39.41 115.91 39.45 116.09 39.46 116.26 39.47 116.46 39.48 116.04 39.47 116.83 39.49 116.94 39.48 117.48 39.46 118.19 39.31 118.58 38.97Z" fill="#8EB60F"/><path d="M109.67 36.79C110.16 36.36 109.45 35.66 109.1 35.44 108.66 35.16 107.91 34.8 107.3 35.03 107.27 35.04 107.23 35.06 107.2 35.08 106.8 35.23 106.49 35.5 106.58 35.88 106.58 35.9 106.59 35.92 106.6 35.94 106.69 36.36 107.01 36.68 107.43 36.9 107.76 37.06 108.3 37.21 108.76 37.14 109.1 37.15 109.39 37.06 109.67 36.79Z" fill="#8EB60F"/><g opacity="0.4"><path d="M149.77 8.45C150.03 6.97 148.29 5.96 146.78 5.76 145.89 5.64 144.78 5.81 144.06 6.33 143.09 6.71 142.42 7.39 142.99 8.38 143.61 9.44 144.98 10.14 146.4 10.26 147.9 10.38 149.52 9.84 149.77 8.45Z" fill="#73AA15"/><path d="M142.74 13.9C143.8 12.45 141.62 11.33 140.23 11.22 139.74 11.18 139.21 11.23 138.88 11.61 138.53 12.02 138.47 12.48 138.64 12.87 138.67 13.1 138.77 13.36 139.01 13.67 139.75 14.56 141.87 15.11 142.74 13.9Z" fill="#73AA15"/><path d="M134.55 10.38C134.34 10.31 134.12 10.28 133.88 10.28L133.92 10.29C133.63 10.29 133.32 10.37 133.29 10.65 133.29 10.74 133.29 10.84 133.29 10.92 133.28 11.54 134.38 11.98 135.02 11.79 136.08 11.5 135.13 10.54 134.55 10.38Z" fill="#73AA15"/><path d="M169.77 21.36C171.12 19.98 169.42 18.36 168.09 17.6 167.6 17.28 167.05 17.06 166.45 16.92 165.2 16.56 163.73 16.48 162.65 17.19 162.54 17.26 162.48 17.33 162.38 17.41 162.05 17.62 161.75 17.87 161.54 18.18 160.46 19.83 162.67 21.49 164.24 22.01 165.91 22.57 168.44 22.73 169.77 21.36Z" fill="#C9CD0D"/><path d="M168.48 26C168.57 25.92 168.68 25.84 168.75 25.76 168.73 25.76 168.72 25.75 168.7 25.74 168.92 25.45 168.88 25.08 168.6 24.78 168.34 24.47 167.97 24.27 167.53 24.15 166.68 23.9 165.4 24.24 165.88 25.2 166.09 25.61 166.56 25.92 167.06 26.08 167.43 26.19 168.12 26.29 168.48 26Z" fill="#73AA15"/><path d="M157.1 35.95C158.24 35.24 157.87 34.25 157.1 33.55 156.51 33.01 155.48 32.74 154.59 32.67 153.05 32.53 150.56 32.91 151.15 34.62 151.16 34.68 151.15 34.75 151.18 34.82 151.51 35.8 152.71 36.52 153.88 36.71 154.98 36.86 156.18 36.53 157.1 35.95Z" fill="#73AA15"/></g><path d="M125.24 71.48C126.21 71.02 126.35 70.1 126.05 69.34 125.64 68.35 124.32 67.83 123.18 67.59 122.5 67.47 121.39 67.53 120.84 67.99 120.77 68.04 120.71 68.1 120.65 68.16 120.22 68.32 120.05 68.64 120 69 119.86 69.95 120.81 70.67 121.63 71.16 122.59 71.76 124.08 72.06 125.24 71.48Z" fill="#8EB60F" opacity="0.4"/><path d="M116.94 68.17C116.79 67.53 116.1 67.06 115.33 66.98 114.74 66.9 113.85 67.16 114.01 67.8 114.17 68.44 114.87 68.9 115.63 68.99 116.21 69.07 117.09 68.81 116.94 68.17Z" fill="#8EB60F" opacity="0.4"/><path d="M122.45 79.74C121.89 78.35 119.9 77.48 118.23 77.33 117.36 77.25 116.54 77.34 115.76 77.74 114.87 78.19 114.64 79.26 115.01 79.96 115.34 80.56 115.84 80.98 116.45 81.33 117.4 82.03 118.74 82.43 119.99 82.48 121.78 82.51 123.03 81.11 122.45 79.74Z" fill="#8EB60F" opacity="0.4"/><path d="M129.79 47.62C129.5 47.29 128.84 46.91 128.2 46.8 128.15 46.78 128.11 46.76 128.07 46.75 127.55 46.55 127.02 46.68 126.64 47.05 126.17 47.51 126.62 48.13 126.97 48.44 127.59 49 128.57 49.06 129.45 48.87 130.19 48.73 130.1 48 129.79 47.62Z" fill="#8EB60F"/><path d="M185.95 42.01C186.56 41.09 185.77 40.15 184.85 39.71 184.03 39.34 183.11 39.22 182.16 39.26 180.62 39.34 178.47 39.92 179.09 41.52 179.36 42.2 180.17 42.77 181.07 42.98 182.69 43.6 185.05 43.36 185.95 42.01Z" fill="#38711D"/><path d="M187.66 47.54C187.31 46.86 185.5 46.1 185.01 47.15L185.01 47.15C185 47.17 184.99 47.18 184.99 47.2 184.96 47.25 184.97 47.26 184.98 47.26 184.97 47.28 184.96 47.28 184.96 47.31 184.85 47.77 185.35 48.17 185.79 48.37 186.2 48.56 186.67 48.69 187.16 48.55 187.69 48.38 187.86 47.93 187.66 47.54Z" fill="#38711D"/></g><g><path d="M45.81 124.96C45.81 124.96 56.35 137.92 66.18 124.07 71.14 123.81 73.4 116.15 70.36 113.74 77.65 117.31 91.4 111.41 87.49 101.57 87.49 101.57 109.23 99.71 99.48 80.82 111.09 79.95 111.23 66.16 100.48 64.05 107.16 57.86 98.94 50.58 92 52.43 101.34 45.1 90.29 28.26 73.23 37.8 73.96 30.8 67.34 31.41 64.03 33.18 66.05 26.01 50.2 21.99 44.05 33.92 38.2 28.63 27.11 35.22 28.61 40.15 19.56 37.71 21.13 43.72 21.11 45.6 11.14 45.03 5.77 51.03 11.38 54.95 1.93 56.4 10.8 64.12 10.8 64.12-0.96 66.54-4.3 83.22 6.75 84.06-1.74 88.43 5.64 93.09 5.64 93.09-0.87 95.86 5.1 108.93 13.8 105.94 7.52 113.84 22.12 120.96 26.86 117.46 26.53 124.29 36.03 129.51 45.81 124.96Z" fill="#8EB60F"/><path d="M66.18 124.06C71.14 123.8 73.4 116.14 70.36 113.73 77.65 117.3 91.4 111.4 87.49 101.56 87.49 101.56 109.23 99.7 99.48 80.81 111.09 79.94 111.23 66.15 100.48 64.04 107.16 57.85 98.94 50.57 92 52.42 101.34 45.09 90.29 28.25 73.23 37.79 73.96 30.79 67.34 31.4 64.03 33.17 66.05 26 50.2 21.98 44.05 33.91 38.2 28.62 27.11 35.21 28.61 40.14 19.56 37.7 21.13 43.71 21.11 45.59 11.14 45.02 5.77 51.02 11.38 54.94 1.93 56.39 10.8 64.11 10.8 64.11-0.96 66.54-4.3 83.22 6.75 84.06-1.74 88.43 5.64 93.09 5.64 93.09-0.87 95.86 5.1 108.93 13.8 105.94 7.52 113.84 22.12 120.96 26.86 117.46 26.53 124.29 36.03 129.51 45.81 124.96 45.81 124.96 56.35 137.92 66.18 124.06ZM33.13 36.8C33.89 36.61 34.6 36.65 35.21 36.82 35.3 36.81 35.43 36.82 35.53 36.87 36.54 37.24 37.36 37.92 37.38 38.95 37.38 39.76 36.92 40.62 36.09 41.17 34.21 42.41 31.44 41.38 30.84 39.72 30.36 38.46 31.62 37.17 33.13 36.8ZM18.85 54.58C16.82 54.78 14.54 54.01 13.46 52.64 12.26 51.04 13.33 48.3 16 48.15 17.91 48.04 19.79 48.94 20.58 50.32 20.73 50.37 20.87 50.46 20.91 50.58 21.67 52.19 21.49 54.34 18.85 54.58ZM19.87 60.44C19.04 60.15 18.54 59.47 17.75 59.14 17.17 58.91 17.6 58.37 18.11 58.38 18.13 58.37 18.19 58.37 18.3 58.29 18.42 58.21 18.52 58.13 18.64 58.04 18.9 57.84 19.21 57.6 19.56 57.53 20.81 57.27 21.49 58.13 21.89 58.93 22.11 59.34 21.65 59.55 21.23 59.51 21.24 59.75 21.22 59.98 21.07 60.16 20.81 60.54 20.28 60.59 19.87 60.44ZM44.17 55.65C42.53 56.13 40.85 56.17 39.42 55.3 37.93 54.4 36.96 52.84 37.63 51.36 32.96 52.27 26.41 50.22 26.44 45.95 26.47 41.17 32.46 41.97 33.99 45.09 34.59 44.85 35.24 44.73 35.79 44.81 35.93 43.25 37.2 42.4 38.75 42.17 38.03 40.72 38.03 38.91 39.88 37.9 42.19 36.67 44.06 38.02 45.18 39.61 45.85 38.4 47.41 37.86 49.15 37.46 48.59 34.33 51.78 31 56.17 31.31 59.78 31.55 60.11 34.32 59.48 36.94 61.3 36.06 63.6 36.08 65.2 36.82 66.4 36.18 68.13 36.15 69.45 36.64 71.16 37.27 72.04 38.49 72.47 39.93 73.06 39.6 73.74 39.34 74.52 39.16 76.93 38.6 79.12 38.63 79.82 40.3 81.42 39.24 83.96 39.3 84.75 40.18 88.74 37.84 94.69 43.67 89.72 45.97 90.83 46.77 91.48 48.01 91.14 49.42 90.39 52.5 86.03 53.92 82.47 53.99 83.6 54.87 84.1 56.08 83.59 57.34 85.88 56.25 88.59 55.31 90.55 56.41 92.4 57.43 93.33 59.66 91.57 61.48 90.55 62.55 88.6 63.38 86.54 63.78 87.89 65.42 88.32 67.61 87.14 69.72 86.12 71.53 83.66 71.92 81.68 71.37 82.09 73.85 80.16 76.43 76.37 75.04 73.92 74.13 71.57 71.84 70.45 69.24 70.02 69.44 69.65 69.58 69.39 69.6 66.65 69.84 64.29 68.99 62.75 67.23 62.68 67.13 62.58 67.03 62.49 66.92 61.33 67.41 59.98 67.64 58.36 67.5 56.11 67.31 53.42 65.86 53.42 64.02 50.96 65.05 47.6 64.98 46.85 62.77 46.55 61.9 46.45 60.2 46.93 58.97 45.45 58.79 44.16 57.99 44.09 56.61 44.05 56.26 44.08 55.95 44.17 55.65ZM31.59 100.27C29.84 99.35 28.29 97.71 27.24 95.85 25.57 95.97 23.83 95.81 22.04 95.28 17.98 94.04 14.05 90.18 17.83 87.46 14.78 87.44 11.83 86.32 12.69 83.11 13.13 81.52 14.06 80.22 15.3 79.24 11.94 78.19 9.26 76.25 8.85 73.36 8.01 67.45 17.15 65.8 19.98 69.47 21.98 66.81 28.95 66.9 30.96 70.37 35.25 70.6 40.31 73.91 35.7 77.17 39.75 76.7 43.62 77.11 45.77 80.38 47.64 83.19 46.99 86.17 43.77 88 47.2 88.8 48.27 91.84 46.21 94.98 44.13 98.15 40.7 98.32 37.87 97.14 38.24 98.08 38.12 99.1 36.78 99.83 35.09 100.75 33.26 101.14 31.59 100.27Z" fill="#38711D" opacity="0.4"/><path d="M99.04 57.05C96.51 59.44 95.9 62.12 98.33 64.33 98.89 64.84 97.85 65.18 97.39 64.85 94.12 62.59 93.04 68.27 93.01 70.01 92.98 72.44 93.39 75.12 95.58 76.68 96.15 77.17 95.09 77.52 94.63 77.2 90 73.05 83 77.11 81.19 82.15 81.02 82.63 80.24 82.37 80.04 82.14 78.53 80.39 76.15 78.18 73.09 78.76 71.2 79.11 69.47 80.32 68.68 81.86 66.16 86.79 72.24 87.71 76.63 87.16 77.21 87.09 77.7 87.7 77.02 87.99 71.89 90.07 75.82 94.76 78.22 96.64 82.08 99.67 87.38 100.51 92.77 100.37 93.73 99.32 94.46 98.3 94.83 97.41 95.05 96.87 96.21 97.19 95.99 97.74 95.77 98.29 95.44 98.88 94.99 99.49 100.16 97.05 105.17 91.82 99.48 80.83 111.09 79.96 111.23 66.17 100.48 64.06 103.78 61 103.44 57.69 101.43 55.35 100.45 55.88 99.61 56.5 99.04 57.05Z" fill="#38711D" opacity="0.4"/><path d="M66.18 124.06C71.14 123.8 73.4 116.14 70.36 113.73 76.65 116.8 87.73 112.85 88.15 105.4 82.69 108.65 76.24 109.95 74.86 104.44 71.96 106.43 66.58 107.67 64.99 104.52 63.28 101.14 67.06 98.1 70.68 96.11 66.27 95.99 63.58 92.22 66.47 88.47 63.09 88.67 60.7 86.95 59.36 84.39 57.47 85.71 55.52 86.6 53.2 86.78 54.76 89.34 55.95 93.01 55.23 95.97 54.49 98.95 51.85 99.03 49.36 98.28 50.17 100.42 50.37 103.42 48.07 105.13 46.18 106.54 44.21 106.43 42.39 105.72 43.09 107.91 42.33 110.34 39.04 111.03 36.74 111.51 35.34 110.41 34.99 108.85 30.33 113.09 21.66 110.59 24.98 105.01 21.51 105.53 17.64 104.73 15.31 102.77 12.93 100.75 13.44 98.55 15.93 96.89 12.9 96.68 9.92 95.4 9 92.88 8.2 90.63 9.75 89.4 11.98 89.21 9.85 87.48 9.43 85.43 9.96 82.63 6.49 82.77 2.16 80.63 5.4 78.07 3.44 77.62 1.47 76.46 0.16 75.01-0.61 79.46 1.35 83.64 6.74 84.05-1.75 88.42 5.63 93.08 5.63 93.08-0.88 95.85 5.09 108.92 13.79 105.93 7.51 113.83 22.11 120.95 26.85 117.45 26.52 124.28 36.02 129.5 45.8 124.95 45.81 124.96 56.35 137.92 66.18 124.06Z" fill="#176020" opacity="0.3"/><path d="M66.18 124.06C71.14 123.8 73.4 116.14 70.36 113.73 76.65 116.8 87.73 112.85 88.15 105.4 82.69 108.65 76.24 109.95 74.86 104.44 71.96 106.43 66.58 107.67 64.99 104.52 63.28 101.14 67.06 98.1 70.68 96.11 69.64 96.08 68.71 95.84 67.92 95.46 65.16 98.7 60.72 100.71 55.99 100.39 59.51 103.27 63.48 109.92 57.55 110.39 61.47 113.1 61.26 118.7 55.02 120.41 50.81 121.55 48.59 118.34 48.01 115.1 46.14 118.19 42.62 120.49 38.3 120.36 34.15 120.22 32.52 117.88 34.03 115.06 31.23 116.04 27.8 116.09 25.62 114.73 24.27 113.87 24.12 113 24.8 112.23 19.73 112.81 14.33 111.74 12.72 107.73 9.7 114.88 22.48 120.71 26.86 117.47 26.53 124.3 36.03 129.52 45.81 124.97 45.81 124.96 56.35 137.92 66.18 124.06Z" fill="#176020" opacity="0.3"/><path d="M28.28 72.9C29.24 71.84 28.7 70.67 27.81 69.91 26.64 68.9 24.81 68.45 23.06 68.74 22.23 68.89 21.64 69.28 21.34 69.78 20.89 70.29 20.8 70.96 21.09 71.57 21.63 72.72 23.1 73.42 24.46 73.7 24.77 73.75 25.09 73.77 25.42 73.78 25.62 73.77 25.81 73.76 26.02 73.74 25.55 73.78 26.42 73.7 26.54 73.68 27.13 73.59 27.89 73.32 28.28 72.9Z" fill="#8EB60F"/><path d="M18.22 71.68C18.7 71.14 17.83 70.47 17.42 70.27 16.9 70.02 16.03 69.72 15.39 70.06 15.35 70.08 15.32 70.1 15.28 70.12 14.86 70.33 14.55 70.67 14.7 71.08 14.71 71.1 14.72 71.12 14.73 71.15 14.88 71.6 15.28 71.9 15.76 72.09 16.14 72.22 16.76 72.31 17.25 72.17 17.63 72.15 17.95 72.01 18.22 71.68Z" fill="#8EB60F"/><g opacity="0.4"><path d="M58.48 35.33C58.57 33.67 56.53 32.8 54.85 32.77 53.85 32.76 52.66 33.09 51.94 33.76 50.93 34.3 50.28 35.14 51.03 36.14 51.85 37.22 53.45 37.81 55.02 37.75 56.69 37.7 58.39 36.89 58.48 35.33Z" fill="#73AA15"/><path d="M51.49 42.23C52.46 40.5 49.93 39.56 48.38 39.62 47.84 39.64 47.26 39.76 46.95 40.22 46.62 40.72 46.62 41.23 46.85 41.63 46.91 41.88 47.05 42.15 47.36 42.45 48.3 43.35 50.7 43.68 51.49 42.23Z" fill="#73AA15"/><path d="M42.05 39.45C41.81 39.41 41.57 39.39 41.3 39.43L41.35 39.44C41.03 39.48 40.7 39.61 40.7 39.92 40.71 40.02 40.73 40.12 40.74 40.22 40.82 40.9 42.07 41.24 42.75 40.95 43.87 40.48 42.7 39.54 42.05 39.45Z" fill="#73AA15"/><path d="M82.12 46.87C83.42 45.18 81.34 43.63 79.78 42.96 79.21 42.68 78.57 42.51 77.89 42.43 76.47 42.2 74.85 42.3 73.76 43.23 73.64 43.32 73.59 43.4 73.49 43.51 73.16 43.78 72.86 44.09 72.67 44.46 71.7 46.41 74.34 47.94 76.13 48.31 78.04 48.71 80.84 48.54 82.12 46.87Z" fill="#C9CD0D"/><path d="M81.31 52.13C81.4 52.03 81.51 51.93 81.57 51.83 81.55 51.83 81.53 51.83 81.52 51.82 81.73 51.47 81.63 51.07 81.29 50.78 80.97 50.48 80.53 50.3 80.03 50.23 79.07 50.07 77.7 50.61 78.35 51.59 78.63 52.01 79.19 52.29 79.76 52.4 80.18 52.48 80.96 52.5 81.31 52.13Z" fill="#73AA15"/><path d="M70.13 64.54C71.29 63.61 70.75 62.58 69.81 61.91 69.09 61.4 67.93 61.23 66.95 61.27 65.24 61.32 62.56 62.06 63.44 63.85 63.46 63.92 63.46 64 63.5 64.06 63.99 65.09 65.4 65.72 66.71 65.78 67.93 65.82 69.2 65.3 70.13 64.54Z" fill="#73AA15"/></g><path d="M39.84 107.69C40.84 107.05 40.88 106.03 40.45 105.24 39.87 104.2 38.35 103.82 37.07 103.7 36.31 103.65 35.09 103.87 34.55 104.45 34.48 104.52 34.42 104.59 34.37 104.66 33.92 104.89 33.77 105.26 33.77 105.67 33.74 106.73 34.88 107.4 35.84 107.82 36.98 108.34 38.65 108.47 39.84 107.69Z" fill="#8EB60F" opacity="0.4"/><path d="M30.3 105.15C30.05 104.47 29.23 104.04 28.38 104.05 27.72 104.04 26.78 104.44 27.04 105.12 27.29 105.81 28.12 106.21 28.97 106.22 29.63 106.23 30.55 105.82 30.3 105.15Z" fill="#8EB60F" opacity="0.4"/><path d="M37.87 117.12C37.07 115.67 34.78 114.97 32.93 115.03 31.96 115.06 31.08 115.26 30.27 115.8 29.35 116.41 29.24 117.61 29.73 118.33 30.18 118.95 30.77 119.35 31.49 119.65 32.63 120.29 34.15 120.56 35.52 120.44 37.5 120.24 38.68 118.54 37.87 117.12Z" fill="#8EB60F" opacity="0.4"/><path d="M41.7 80.92C41.34 80.6 40.56 80.27 39.85 80.23 39.79 80.21 39.75 80.19 39.7 80.19 39.1 80.04 38.54 80.25 38.17 80.7 37.71 81.26 38.29 81.89 38.71 82.18 39.46 82.71 40.54 82.65 41.48 82.33 42.29 82.08 42.09 81.29 41.7 80.92Z" fill="#8EB60F"/><path d="M102.57 67.41C103.12 66.31 102.13 65.39 101.06 65.03 100.12 64.73 99.09 64.72 98.05 64.89 96.37 65.18 94.09 66.09 94.98 67.77 95.36 68.47 96.33 69 97.34 69.11 99.2 69.57 101.76 69 102.57 67.41Z" fill="#38711D"/><path d="M105.17 73.24C104.7 72.54 102.61 71.94 102.21 73.16L102.21 73.16C102.21 73.18 102.19 73.2 102.19 73.21 102.17 73.27 102.17 73.28 102.18 73.27 102.17 73.29 102.15 73.3 102.17 73.32 102.11 73.84 102.72 74.21 103.22 74.37 103.69 74.52 104.23 74.6 104.75 74.39 105.32 74.16 105.44 73.65 105.17 73.24Z" fill="#38711D"/></g></svg>