<svg width="43.61" height="43.49" viewBox="0 0 43.61 43.49" xmlns="http://www.w3.org/2000/svg" xmlns:xlink="http://www.w3.org/1999/xlink" xml:space="preserve" overflow="hidden"><defs></defs><g><g id="g299411_1_" transform="translate(-115.115 -35.2864)"><path d="M123.29 45.38C122.11 44.64 121.13 43.68 120.1 42.76 118.84 41.64 117.55 40.93 116.58 39.5 116.08 38.76 113.67 33.75 116.36 35.75 118.45 37.31 119.04 40.49 121.06 42.23 121.33 42.46 122.95 43.2 123 43.46 123.11 44.1 123.2 44.74 123.29 45.38L123.29 45.38Z" id="path299405_1_" fill="#805334"/><path d="M158.69 60.41C159.64 67.43 141.7 88.07 132.95 73.95 132.39 73.04 131.87 72.15 131.36 71.28 129.22 67.58 127.45 64.16 124.51 60.64 120.26 55.54 114.86 48.14 122.79 43.42 123.2 42.85 123.73 41.95 124.41 41.25 124.96 40.69 125.6 40.26 126.36 40.23 131.39 40.09 137.05 46.7 141.36 48.84 145.53 50.91 150.37 51.06 154.27 53.94 156.6 55.65 158.3 57.48 158.69 60.41Z" fill="#9CA220"/><path d="M121.15 48.75C120.93 49.45 120.37 50.43 120.75 51.21 125.63 61.06 124.24 50.63 123.41 49.43 122.92 48.69 121.88 48.83 121.15 48.75Z" id="path299409_1_" fill="#EEF3F6"/></g><path d="M43.57 25.13C44.52 32.15 26.58 52.79 17.83 38.67 17.27 37.76 16.75 36.87 16.24 36 16.29 35.91 16.34 35.82 16.4 35.73 18.19 33.01 22.29 34 25.48 34.64 28.59 35.27 32.04 35.21 34.67 33.43 37.3 31.65 38.62 27.74 36.8 25.13 35.63 23.46 33.59 22.71 31.68 21.99 28.81 20.92 25.93 19.69 23.64 17.66 21.62 15.86 20.15 13.54 18.26 11.63 15.85 9.2 11.78 8.24 9.29 5.96 9.84 5.4 10.48 4.97 11.24 4.94 16.27 4.8 21.93 11.41 26.24 13.55 30.41 15.62 35.25 15.77 39.15 18.65 41.49 20.36 43.18 22.2 43.57 25.13Z" fill="#9CA220" opacity="0.27"/></g></svg>