<svg width="145.18" height="145.56" viewBox="0 0 145.18 145.56" xmlns="http://www.w3.org/2000/svg" xmlns:xlink="http://www.w3.org/1999/xlink" xml:space="preserve" overflow="hidden"><defs></defs><g><path d="M68.38 13.19C67.46 2.7 82.73 0.35 87.99 10.04 93.42 2.31 104.27 8.85 104.02 15.98 108.67 7.83 123.37 10.37 126.85 20.49L68.38 13.19Z" fill="#367F1D"/><path d="M37.99 49.33C31.73 42.93 34.84 28.35 47.5 30.2 47.5 30.2 43.63 8.65 68.55 14.36 68.48 13.97 68.42 13.59 68.39 13.22L126.88 20.52C127.89 23.5 127.94 27.13 126.48 31.33 134.51 29.23 135.65 35.81 134.47 39.37 142.36 35.98 151.48 50.62 139.17 58.99 147.03 63.63 142.37 75.76 136.14 75.29 141.53 83.61 134.03 83.3 131.84 83.68 135.29 93.28 129.71 99.72 123.54 95.04 124.48 104.53 112.92 97.43 112.92 97.43 113.36 109.37 94.66 115.97 90.59 105.36 87.82 114.51 80.3 108.24 80.3 108.24 78.86 115.14 61.83 111.94 62.9 102.86 55.38 110.55 42.92 97.75 45.71 92.44 37.78 94.14 28.99 85.92 31.62 75.48 31.62 75.48 13.44 67.81 27 55.45 25.92 50.57 34.3 46.86 37.99 49.33Z" fill="#367F1D"/><path d="M120.66 19.72C120.96 15.68 113.51 12 112.28 16.94 111.02 16.03 109.4 15.62 107.82 16.26 106.94 16.61 106.26 17.17 105.75 17.86L68.38 13.19C67.46 2.7 82.73 0.35 87.99 10.04 93.42 2.31 104.27 8.85 104.02 15.98 108.67 7.83 123.37 10.37 126.85 20.49L120.66 19.72Z" fill="#38711D" opacity="0.4"/><path d="M26.99 55.46C13.43 67.81 31.61 75.49 31.61 75.49 28.98 85.93 37.77 94.15 45.7 92.45 42.91 97.76 55.36 110.57 62.89 102.87 61.82 111.96 78.85 115.16 80.29 108.25 80.29 108.25 87.82 114.51 90.58 105.37 94.66 115.98 113.35 109.38 112.91 97.44 112.91 97.44 124.47 104.54 123.53 95.05 129.69 99.73 135.28 93.29 131.83 83.69 134.03 83.3 141.53 83.62 136.13 75.3 142.35 75.77 147.01 63.64 139.16 59 151.47 50.63 142.35 35.99 134.46 39.38 135.63 35.82 134.5 29.23 126.47 31.34 127.93 27.13 127.89 23.51 126.87 20.53L120.66 19.75C120.64 20.04 120.57 20.33 120.47 20.62 121.72 21.22 122.5 23.69 121.7 25.44 123.85 25.8 124.49 27.93 124.53 30.4 124.52 31.17 124.4 31.89 124.18 32.53 125.98 32.66 127.68 33.27 128.9 34.82 129.85 36 130.28 37.7 129.87 38.99 131.18 40.42 131.86 42.64 131.33 44.6 134.21 43.46 137.57 43.21 138.85 46.7 140.44 50.91 137.43 54.67 133.59 54.75 133.6 56.53 133.41 58.17 132.18 59.05 134.35 59.82 136.47 61.37 135.66 63.87 134.98 65.87 132.85 66.23 130.94 65.83 131.09 67.38 130.45 68.79 128.67 69.24 128.9 69.75 128.95 70.4 128.83 71.04 132.92 71.91 135.53 77.58 129.93 78.56 124.91 79.46 120.68 73.48 120.45 68.74 118.88 69.71 116.8 69.07 115.3 67.79 113.89 66.58 113.45 64.93 113.57 63.24 113.24 63.37 112.89 63.47 112.5 63.53 110.86 63.74 109.55 62.64 108.94 61.24 107.64 61.94 105.58 62.18 104.49 62.06 101.68 61.76 100.67 58.51 101.19 55.91 99.03 56.27 96.57 53.94 95.72 51.79 95.09 50.24 95 48.87 95.25 47.65 95.09 47.58 94.96 47.51 94.81 47.44 92.32 46.3 90.67 44.17 90.18 41.45 90.13 41.2 90.19 40.81 90.29 40.34 86.94 39.77 83.58 37.94 81.84 35.74 79.15 32.33 81.62 29.93 84.68 29.82 83.49 28.01 83.25 25.54 85.1 24.19 87.25 22.61 89.94 22.59 92.24 23.58 92.14 21.48 92.57 19.42 93.54 18.21 95.19 16.15 98.08 16.61 99.79 18.19 101.61 19.9 101.26 22.7 100.62 25.17 101.96 24.41 103.54 24.68 104.88 25.6 104.2 23.03 104.28 19.88 105.74 17.87L68.39 13.21C68.43 13.58 68.48 13.96 68.55 14.35 43.63 8.66 47.5 30.21 47.5 30.21 34.84 28.36 31.73 42.94 37.99 49.34 34.3 46.86 25.92 50.57 26.99 55.46ZM136 73.05C133.89 72.79 131.9 70.29 132.84 68.21 133.24 67.3 134.15 66.68 135.09 66.52 136.3 66.32 137.34 66.99 138.05 67.9 138.14 68 138.16 68.1 138.2 68.2 138.59 68.76 138.82 69.45 138.81 70.23 138.8 71.76 137.63 73.27 136 73.05ZM126 84.88C126.15 84.9 126.3 85.03 126.4 85.16 128.26 85.66 129.83 87.32 130.24 89.18 130.81 91.81 127.88 93.42 125.65 92.56 123.74 91.8 122.2 89.73 121.88 87.72 121.44 85.08 123.91 84.47 126 84.88ZM114.7 86.65C114.87 86.46 115.13 86.39 115.41 86.36 115.27 85.97 115.37 85.48 115.92 85.6 116.97 85.83 118.18 86.32 118.23 87.59 118.22 87.95 118.04 88.3 117.88 88.6 117.81 88.72 117.76 88.84 117.69 88.99 117.62 89.09 117.63 89.16 117.63 89.19 117.77 89.69 117.28 90.21 116.83 89.7 116.22 88.99 115.28 88.63 114.7 87.88 114.41 87.5 114.32 86.98 114.7 86.65ZM63.69 79.26C64.17 77.83 65.33 77.5 66.54 77.67 64.37 75.15 63.61 71.77 66.77 69.11 69.87 66.47 73.75 66.9 75.64 70.1 76.9 66.58 80.23 65.35 84.04 66.63 88.49 68.06 90.05 71.75 90.62 75.78 93.18 70.65 98.47 74.93 99.94 79.05 104.59 80.31 106.64 87.07 104.07 89.57 109.17 91.61 109.78 100.83 102.6 101.2 99.1 101.37 96.05 99.14 93.9 96.07 93.08 97.48 91.82 98.66 90.07 99.39 86.53 100.87 84.37 98.22 83.52 95.26 81.37 99.49 75.71 96.41 73.15 92.73 72 91.09 71.33 89.42 71.01 87.77 68.53 87.12 66.18 85.94 64.6 84.41 63.12 82.96 63.06 81.11 63.69 79.26Z" fill="#38711D" opacity="0.4"/><path d="M88.27 12.21C87.51 11.75 87.41 12.84 87.91 13.22 89.1 14.13 89.18 14.98 88.69 15.73L68.38 13.19C67.46 2.7 82.73 0.35 87.99 10.04 90.68 6.22 94.65 5.88 97.98 7.36 97.61 8.43 97.11 9.38 96.63 10.05 94.52 12.99 91.54 14.14 88.27 12.21Z" fill="#38711D" opacity="0.4"/><path d="M50.37 22.23C50.93 21.91 50.23 20.81 49.63 21.16 49.05 21.49 48.44 21.94 47.86 22.48 49.3 16.96 54.05 11.04 68.54 14.37 68.47 13.98 68.41 13.6 68.38 13.23L88.67 15.76C87.66 17.23 84.42 18.27 83.07 18.52 80.23 19.05 76.97 19.17 74.53 17.35 73.79 16.9 73.68 17.99 74.17 18.38 80.36 22.07 77.54 29.69 72.11 32.46 71.6 32.73 72.12 33.44 72.44 33.58 74.93 34.7 78.18 36.58 78.36 39.68 78.47 41.58 77.54 43.51 75.95 44.59 70.85 48.03 68.07 42.28 67.51 37.9 67.43 37.32 66.56 36.96 66.42 37.67 65.42 43.08 58.8 40.2 55.9 38.25 51.28 35.08 48.81 30.09 47.46 24.81 48.42 23.68 49.42 22.76 50.37 22.23Z" fill="#38711D" opacity="0.4"/><path d="M26.99 55.46C25.92 50.57 34.31 46.86 37.99 49.33 32.59 43.81 34.17 32.22 42.82 30.31 40.52 36.29 40.78 42.83 47.64 43.08 46.12 46.3 46.16 51.79 50.3 52.7 54.75 53.69 57.27 49.41 58.61 45.48 59.97 49.77 65.15 51.62 68.76 48.06 69.45 51.4 72.15 53.39 75.53 54.16 74.51 56.27 74.02 58.35 74.44 60.65 70.99 59.65 66.36 59.22 63.08 60.52 59.77 61.82 60.4 64.41 62 66.69 59.25 66.34 55.66 66.74 54.32 69.31 53.18 71.44 53.86 73.34 55.2 74.97 52.42 74.72 49.78 75.93 49.87 79.29 49.95 81.63 51.64 82.78 53.57 82.79 49.89 88.19 55.24 96.13 60.88 91.78 61.23 95.27 63.25 98.89 66.19 100.74 69.23 102.68 71.68 101.72 72.94 98.98 74.04 101.91 76.38 104.55 79.59 104.94 82.45 105.27 83.46 103.5 83.07 101.32 85.68 103.03 88.2 103.02 91.35 101.95 92.17 105.35 95.9 109.16 97.99 105.47 99.05 107.3 100.97 109 103.04 109.97 98.01 111.6 92.57 110.53 90.57 105.36 87.8 114.51 80.28 108.24 80.28 108.24 78.84 115.14 61.81 111.94 62.88 102.86 55.36 110.55 42.9 97.75 45.69 92.44 37.76 94.14 28.97 85.92 31.6 75.48 31.61 75.49 13.43 67.82 26.99 55.46Z" fill="#176020" opacity="0.3"/><path d="M26.99 55.46C25.92 50.57 34.31 46.86 37.99 49.33 32.59 43.81 34.17 32.22 42.82 30.31 40.52 36.29 40.78 42.83 47.64 43.08 46.12 46.3 46.16 51.79 50.3 52.7 54.75 53.69 57.27 49.41 58.61 45.48 58.92 46.48 59.47 47.35 60.13 48.05 57.09 51.38 55.98 56.09 57.66 60.65 53.31 57.8 44.35 55.27 45.48 61.13 41.19 57.87 34.66 59.17 34.38 65.61 34.22 69.93 38.61 71.47 42.59 71.38 39.47 73.81 37.75 77.72 39.11 81.9 40.44 85.91 43.62 87.03 46.52 84.99 46.16 87.91 47.06 91.26 49.26 93.13 50.63 94.27 51.71 94.22 52.42 93.42 53.16 98.47 55.93 103.5 61.08 104.27 53.53 108.66 43.1 97.37 45.69 92.45 37.76 94.15 28.97 85.93 31.6 75.49 31.61 75.49 13.43 67.82 26.99 55.46Z" fill="#176020" opacity="0.3"/><g><path d="M44.35 17.41C38.73 24.02 32.23 32.82 23.85 42.89 17.19 50.88 12.53 60.07 9.43 68.89L12.07 47.75C13.11 45.9 14.03 44.12 14.58 42.65 15.84 39.27 16.04 36.8 14.17 30.93L15.89 17.19C16.26 20.45 17.08 25.96 18.51 28.24 20.58 31.56 18.29 41.51 21.76 38.05 25.26 34.6 30.81 29.03 34.47 23.32 38.14 17.61 39.03 16.8 39.03 16.8L44.76 15.41C44.75 15.42 43.87 16.8 44.35 17.41Z" fill="#40260B"/><path d="M14.14 30.84C13.65 29.31 13.02 27.55 12.23 25.47 8.4 15.37 9.12 12.52 9.12 12.52 9.12 12.52 12.21 14.77 15.64 14.66 15.64 14.66 15.71 15.61 15.87 17.02L14.14 30.84Z" fill="#40260B"/><path d="M16.14 94.73C11.38 97.39 7.66 101.32 4.88 105.27L6.51 92.22C10.87 90.9 20.85 86.02 25.69 81.95 35.22 73.92 38.53 69.57 41.03 65.06 43.52 60.55 48.8 50 51.86 40.22 55.39 39.27 55.63 38.86 55.63 38.86 55.63 38.86 52.59 48.51 53.65 48.8 54.69 49.09 68.87 38.57 68.87 38.57L71.77 39.87C71.77 39.87 58.06 48.69 51.4 57.56 44.76 66.39 43.84 69.27 43.84 69.27 43.84 69.27 47.4 68.68 54.84 66.28 62.29 63.87 65.33 63.08 70.87 58.85 76.4 54.61 80.72 51.81 80.72 51.81L82.43 52.2C82.43 52.2 80.29 57.47 80.34 58.3 80.34 58.3 72.62 63.81 67.33 65.63 62.01 67.45 56.05 69.73 47.68 74.9 34.09 83.29 23.88 90.39 16.14 94.73Z" fill="#40260B"/><path d="M0.92 136.99C4.27 134.34 9.34 130.23 13.51 127.8 18.25 125.06 33.27 112.35 33.27 112.35 33.27 112.35 34.3 114.85 35.31 115.24 27.08 121.61 17.64 130.34 18.99 130.57 20.38 130.79 44.2 132.58 44.2 132.58 44.2 132.58 42.15 133.87 44.13 136.99 32.78 136.07 31.74 136.84 25.44 136.04 19.93 135.35 6.63 136.97 0 144.35L0.92 136.99Z" fill="#40260B"/></g><g opacity="0.3"><path d="M14.14 30.84C13.65 29.31 13.02 27.55 12.23 25.47 8.4 15.37 9.12 12.52 9.12 12.52 9.12 12.52 12.21 14.77 15.64 14.66 15.64 14.66 15.71 15.61 15.87 17.02L14.14 30.84Z" fill="#40260B"/><path d="M44.35 17.41C38.73 24.02 32.23 32.82 23.85 42.89 17.19 50.88 12.53 60.07 9.43 68.89L12.07 47.75C13.11 45.9 14.03 44.12 14.58 42.65 15.84 39.27 16.04 36.8 14.17 30.93L15.89 17.19C16.26 20.45 17.08 25.96 18.51 28.24 20.58 31.56 18.29 41.51 21.76 38.05 25.26 34.6 30.81 29.03 34.47 23.32 38.14 17.61 39.03 16.8 39.03 16.8L44.76 15.41C44.75 15.42 43.87 16.8 44.35 17.41Z" fill="#40260B"/><path d="M47.69 74.9C56.06 69.73 62.02 67.45 67.34 65.63 72.63 63.82 80.35 58.3 80.35 58.3 80.29 57.47 82.44 52.2 82.44 52.2L80.73 51.81C80.73 51.81 76.41 54.61 70.88 58.85 65.34 63.08 62.3 63.86 54.85 66.28 47.42 68.68 43.85 69.27 43.85 69.27 43.85 69.27 44.77 66.39 51.41 57.56 58.07 48.69 71.78 39.87 71.78 39.87L68.88 38.57C68.88 38.57 54.69 49.08 53.66 48.8 52.6 48.52 55.64 38.86 55.64 38.86 55.64 38.86 55.4 39.27 51.87 40.22 48.8 50 43.52 60.55 41.03 65.06 38.54 69.56 35.23 73.92 25.69 81.95 20.84 86.02 10.87 90.9 6.51 92.22L5.95 96.69C7.43 95.74 8.91 94.87 10.27 94.09 10.79 93.79 11.49 94.64 11.11 95.07 9.93 96.38 8.75 97.66 7.58 98.97 6.81 99.99 6.04 101.01 5.28 102.03L4.87 105.27C7.65 101.33 11.37 97.4 16.13 94.73 23.88 90.39 34.09 83.29 47.69 74.9ZM40.27 73.02C38.38 76.02 36.33 78.9 33.71 81.26 27.62 86.79 20.12 90.42 12.94 94.25 12.35 94.58 11.64 93.55 12.19 93.19 19.09 88.8 26.1 84.61 32.17 79.13 39.15 72.84 43.38 64.46 48.54 56.78 48.91 56.23 49.77 57.05 49.55 57.55 46.93 63.06 43.9 68.28 40.27 73.02Z" fill="#40260B"/><path d="M0.92 136.99C4.27 134.34 9.34 130.23 13.51 127.8 18.25 125.06 33.27 112.35 33.27 112.35 33.27 112.35 34.3 114.85 35.31 115.24 27.08 121.61 17.64 130.34 18.99 130.57 20.38 130.79 44.2 132.58 44.2 132.58 44.2 132.58 42.15 133.87 44.13 136.99 32.78 136.07 31.74 136.84 25.44 136.04 23.61 135.81 20.93 135.85 17.93 136.25 17.99 135.93 17.81 135.54 17.44 135.46 9.97 133.76 4.48 138.5 0.06 143.89L0.92 136.99Z" fill="#40260B"/><path d="M16.51 136.46C12.83 137.07 8.85 138.25 5.34 140.19 8.45 137.51 12.11 135.79 16.51 136.46Z" fill="#40260B"/></g><g opacity="0.3"><path d="M76.51 56.54C73.15 59.75 69.27 62.23 65.15 64.45 57.57 68.51 49.54 70.33 41.47 72.93 42.6 71.6 43.78 70.31 44.94 69.03 46.49 68.7 49.78 67.9 54.83 66.26 62.28 63.85 65.32 63.06 70.86 58.83 76.39 54.59 80.71 51.79 80.71 51.79L81.85 52.06C79.84 53.24 78.19 54.93 76.51 56.54Z" fill="#40260B"/><path d="M6.51 92.22C10.87 90.9 20.85 86.02 25.69 81.95 35.22 73.92 38.53 69.57 41.03 65.06 43.52 60.55 48.8 50 51.86 40.22 55.39 39.27 55.63 38.86 55.63 38.86 55.63 38.86 52.59 48.51 53.65 48.8 54.69 49.09 68.87 38.57 68.87 38.57L70.3 39.2C64.27 44.27 57.06 47.78 51.31 53.19 45.83 58.33 42.61 65.69 38.1 71.64 32.8 78.65 26.5 83.33 18.9 87.62 14.67 90.02 10.38 92.33 6.18 94.8L6.51 92.22Z" fill="#40260B"/><path d="M0.92 136.99C4.27 134.34 9.34 130.23 13.51 127.8 18.25 125.06 33.27 112.35 33.27 112.35 33.27 112.35 34.3 114.85 35.31 115.24 27.08 121.61 17.64 130.34 18.99 130.57 20.38 130.79 44.2 132.58 44.2 132.58 44.2 132.58 42.15 133.87 44.13 136.99 32.78 136.07 31.74 136.84 25.44 136.04 24.22 135.89 22.58 135.85 20.76 135.97 18.86 134.85 17.44 132.95 15.15 132.34 12.91 131.74 10.24 133.56 8.44 134.66 5.65 136.37 3.01 138.29 0.51 140.38L0.92 136.99Z" fill="#40260B"/><path d="M14.14 30.84C13.65 29.31 13.02 27.55 12.23 25.47 8.4 15.37 9.12 12.52 9.12 12.52 9.12 12.52 10.15 13.28 11.7 13.9 11.96 16.98 12.75 19.97 13.87 22.98 14.17 23.8 14.49 24.63 14.81 25.47L14.14 30.84Z" fill="#40260B"/><path d="M12.06 47.75C13.1 45.9 14.02 44.12 14.57 42.65 15.83 39.27 16.03 36.8 14.16 30.93L14.83 25.55C16.8 30.69 18.85 36.23 17.26 41.63 15.97 46.01 13.66 49.87 11.31 53.73L12.06 47.75Z" fill="#40260B"/></g><path d="M91.67 16.14C88.2 20 81.86 22.48 76.13 21.05 74.77 42.85 58.64 41.77 58.64 41.77 62.64 58.14 40.64 58.16 32.31 48.88 28.16 57.38 19.12 47 19.12 47 18.63 50.9 15.5 53 11.32 53.7L17.17 6.84 91.67 16.14Z" fill="#99BC0F"/><path d="M17.37 17.15C19.04 17.46 20.77 17.3 22.1 16.27 22.61 15.87 22.86 15.26 23.05 14.68 23.45 13.53 23.12 13.97 24.36 14.02 25.92 14.08 27.57 13.82 28.72 12.67 29.85 11.55 30.42 10.01 30.41 8.48L91.66 16.13C88.19 19.99 81.85 22.47 76.12 21.04 74.76 42.84 58.63 41.76 58.63 41.76 62.63 58.13 40.63 58.15 32.3 48.87 28.16 57.38 19.12 47 19.12 47 18.63 50.9 15.5 53 11.32 53.7L14.66 26.97C14.9 26.73 15.12 26.49 15.32 26.24 17.32 23.76 18.56 19.86 17.37 17.15Z" fill="#167823" opacity="0.3"/><path d="M82.76 14.98C82.89 14.86 83.02 14.74 83.14 14.61 83.75 14.89 84.37 15.11 85 15.26L82.76 14.98Z" fill="#38801C" opacity="0.3"/><path d="M86.69 15.48C87.34 15.49 87.99 15.41 88.64 15.23 91.39 14.46 93.44 11.63 94.16 8.58 94.72 11.22 93.68 13.89 91.71 16.11L86.69 15.48Z" fill="#38801C" opacity="0.3"/><path d="M13.53 40.63C14.36 39.91 14.86 39.09 15.12 38.21 16 38.53 16.91 38.7 17.78 38.71 21.78 38.77 25.16 35.24 24.9 31.48 26.68 32.99 28.51 32.57 29.92 31.13 30.3 36.62 33.39 42.41 37.71 44.68 40.42 46.11 45.06 45.44 46.3 42.28 47.25 39.9 46.81 37.36 45.74 35.1 47.3 36.12 49.09 36.71 50.67 35.8 51.52 35.29 52.12 34.71 52.51 34.05 53.47 34.94 54.63 35.61 55.92 35.95 60.18 36.97 60.5 32.24 59.83 28.89 61.5 30.57 63.73 32.19 65.98 31.38 68.21 30.58 69.26 28.36 69.77 26.17 70.2 24.23 70.16 21.93 69.51 19.93 72.07 18.82 73 16.38 72.93 13.79L73.19 13.82C75.05 15.97 77.82 17.26 80.74 16.16 81.54 15.87 82.2 15.48 82.72 15.01L85.51 15.36C85.73 15.4 85.95 15.42 86.17 15.44L91.67 16.13C88.2 20 81.87 22.48 76.12 21.04 74.76 42.84 58.63 41.76 58.63 41.76 62.63 58.13 40.63 58.15 32.3 48.87 28.16 57.38 19.12 47 19.12 47 18.63 50.9 15.5 53 11.32 53.7L12.89 41.11C13.11 40.97 13.32 40.81 13.53 40.63Z" fill="#38801C" opacity="0.3"/><path d="M16.94 123.98C16.94 123.98 9.89 119.12 12.9 111.89 15.93 104.7 25.26 107.42 26.99 108.66 25.14 101.54 31.08 99.33 33.82 101.02 34.03 98.84 35.27 98.84 36.05 99.27 35.27 94.73 41.92 90.79 45.37 96.26 47.58 94.48 52.77 96.46 53.42 97.97 53.83 95.55 57.07 96.12 58.61 97.57 58.94 91.28 73.97 94.11 71.23 105.38 75.89 103.75 79.39 107.84 79.06 110.02 79.06 110.02 86.23 110.06 85.71 118.41 85.18 126.78 76.02 126.68 76.02 126.68 76.02 126.68 82.19 132.13 74.6 136.25 76.95 138.73 73.74 145.03 66.08 142.65 66.3 145.68 61.25 146.12 59.94 142.34 58.44 145.89 51.39 146.88 47.92 143.39 46.49 146.1 42.56 144.75 41.07 141.19 37.47 144.8 23.5 146.31 25.57 134.15 21.42 135.01 15.88 130.09 16.94 123.98Z" fill="#8EB60F"/><path d="M16.94 123.98C15.89 130.09 21.42 135.01 25.56 134.15 23.49 146.31 37.45 144.79 41.06 141.19 42.56 144.75 46.49 146.09 47.91 143.39 51.39 146.89 58.43 145.89 59.93 142.34 61.24 146.11 66.3 145.68 66.07 142.65 73.74 145.04 76.94 138.73 74.59 136.25 82.18 132.13 76.01 126.68 76.01 126.68 76.01 126.68 85.17 126.78 85.7 118.41 86.22 110.06 79.05 110.02 79.05 110.02 79.38 107.85 75.88 103.75 71.22 105.38 73.96 94.11 58.93 91.28 58.6 97.57 57.06 96.12 53.82 95.54 53.41 97.97 52.76 96.46 47.57 94.48 45.36 96.26 41.92 90.79 35.26 94.73 36.04 99.27 35.26 98.84 34.01 98.85 33.81 101.02 31.07 99.33 25.13 101.54 26.98 108.66 25.26 107.43 15.92 104.7 12.89 111.89 9.89 119.12 16.94 123.98 16.94 123.98ZM40.54 104.68C41.68 99.25 48.41 100.74 52.38 102.92 53.63 100.66 56.42 99.43 59.16 100.87 59.42 99.47 60.12 98.13 61.71 98.05 63.62 97.93 65.4 99.25 66.64 100.54 68.15 102.07 69.29 104.24 69.35 106.41 69.37 106.89 69.32 107.35 69.23 107.78 70.23 108.64 70.98 110.07 71.34 111.56 71.37 111.52 71.42 111.49 71.51 111.47 76.86 110.46 84.06 113.9 80.2 120.11 78.71 122.53 75.79 123 72.77 122.51 72.47 124.5 71.37 126.1 69.78 126.68 71.55 128.13 72.51 130.22 71.07 132.68 69.4 135.5 66.77 135.09 64.32 133.69 64.28 133.74 64.3 133.82 64.29 133.88 63.29 138.09 58.62 137.39 55.54 135.89 49.52 133.04 47.92 124.93 50.33 118.93 47.15 118.09 44.14 114.97 46.16 112.02 42.87 111.78 39.79 108.24 40.54 104.68Z" fill="#8EB60F" opacity="0.6"/><path d="M12.9 111.9C15.93 104.71 25.26 107.43 26.99 108.67 25.14 101.55 31.08 99.34 33.82 101.03 34.03 98.85 35.27 98.85 36.05 99.28 35.26 94.82 41.72 90.94 45.21 96.05 45.2 96.13 45.16 96.21 45.16 96.28 43.8 95.46 42.18 95.35 40.64 96.51 38.22 98.32 37.8 101.7 38.6 104.67 36.63 104.27 34.55 104.59 33.21 105.88 31.48 107.56 30.59 110.19 30.74 112.65 28.23 111.76 25.46 111.7 23.2 113.05 18.62 115.77 22.77 120.65 26.1 122.36 26.1 122.36 26.08 122.38 26.08 122.38 25.49 123.93 25.66 125.74 26.42 127.2 27.27 128.86 28.63 130.06 30.12 130.42 30.18 131.28 30.36 132.14 30.71 133.07 32.34 137.3 37.16 139.52 40.26 137.2 40.5 137.72 40.78 138.21 41.11 138.63 42.08 139.78 43.68 141.04 45.3 140.64 46.13 140.42 46.73 139.98 47.12 139.42 51.07 142.33 56.76 142.89 58.61 139.42 60.86 140.69 63.38 141.24 65.92 140.43 67.1 140.04 68.26 138.88 68.86 137.61 69.89 137.71 70.97 137.5 71.98 136.84 73.55 135.81 74.15 134.29 73.64 132.82 75.82 133.21 77.63 131.33 77.86 129.19 78.77 131.13 78.92 133.9 74.6 136.25 76.95 138.73 73.74 145.03 66.08 142.65 66.3 145.68 61.25 146.12 59.94 142.34 58.44 145.89 51.39 146.88 47.92 143.39 46.49 146.1 42.56 144.75 41.07 141.19 37.47 144.8 23.5 146.31 25.57 134.15 21.43 135.01 15.89 130.09 16.95 123.98 16.94 123.98 9.89 119.12 12.9 111.9Z" fill="#8EB60F"/><path d="M71.49 113.25C72.37 112.44 73.8 112.39 74.87 112.69 75.92 112.99 76.65 113.81 77.23 114.67 77.23 114.7 77.24 114.7 77.24 114.7 77.49 114.96 77.72 115.25 77.88 115.58 78.46 116.66 78.32 118 77.53 118.92 76.63 119.97 75.53 120.33 74.22 120.04 71.46 119.45 69.01 115.51 71.49 113.25Z" fill="#BAC80C"/><path d="M67.12 117.1C68.22 116.4 69.51 117.72 69.8 118.72 69.95 119.2 69.93 119.83 69.51 120.17 69.37 120.28 69.22 120.33 69.07 120.36 68.82 120.58 68.38 120.58 68.04 120.35 67.2 119.78 65.79 117.95 67.12 117.1Z" fill="#BAC80C"/><path d="M67.03 123.2C67.07 123.2 67.1 123.21 67.11 123.21 67.65 123.2 68.21 123.67 68.52 124.22 68.83 124.59 68.97 125.1 68.73 125.69 68.56 126.13 67.85 126.19 67.49 126.06 66.65 125.75 66.01 124.77 66.19 123.85 66.28 123.43 66.61 123.2 67.03 123.2Z" fill="#BAC80C"/><path d="M34.91 129.24C35.55 127.71 37.19 127.45 38.55 128.23 39.59 128.84 40.41 129.73 40.81 130.79 40.87 130.87 40.94 130.95 41 131.07 41.64 132.1 41.57 133.46 41.1 134.53 40.71 135.47 39.67 136.04 38.65 135.89 37.21 135.66 36.06 134.63 35.33 133.4 34.54 132.17 34.32 130.59 34.91 129.24Z" fill="#BAC80C"/><path d="M44.06 134.54C44.47 134.59 44.83 135.45 44.32 135.39 43.95 135.34 43.59 134.48 44.06 134.54Z" fill="#BAC80C"/><path d="M45.05 118.43C45.14 118.48 45.24 118.55 45.31 118.64 46.15 118.99 46.67 119.92 46.78 120.78 46.92 121.73 46.59 123.07 45.41 123.07 43.68 123.08 42.5 120.82 42.69 119.31 42.82 118.25 44.25 117.86 45.05 118.43Z" fill="#BAC80C"/><path d="M52.22 136.6C52.94 136.53 53.6 137.14 54.03 137.62 54.62 138.27 54.72 139.22 54.62 140.05 54.58 140.39 54.3 140.7 53.98 140.77 53.21 140.99 52.48 140.67 51.9 140.13 51.9 140.12 51.88 140.1 51.86 140.1 51.43 139.79 51.03 139.4 50.9 139.05 50.37 137.84 50.89 136.71 52.22 136.6Z" fill="#BAC80C"/><path d="M19.93 122.75C20.42 122.2 21.22 122.67 21.66 122.99 21.94 123.21 22.16 123.54 22.29 123.88 22.62 124.4 22.84 124.98 22.79 125.58 22.77 125.9 22.62 126.11 22.39 126.27 22.46 126.25 22.55 126.25 22.63 126.26 23.21 126.33 23.77 127.61 23 127.52 22.5 127.46 22.03 126.52 22.36 126.3 22.15 126.45 21.86 126.53 21.6 126.58 20.95 126.62 20.33 126.11 19.97 125.67 19.28 124.85 19.22 123.55 19.93 122.75Z" fill="#BAC80C"/><path d="M97.72 82.17C98.68 81.03 100.21 81.32 101.38 82.04 102.88 82.97 103.91 84.67 104.06 86.43 104.12 87.27 103.81 87.91 103.31 88.32 102.85 88.86 102.08 89.08 101.28 88.92 99.78 88.63 98.55 87.33 97.85 86.06 97.7 85.76 97.59 85.45 97.5 85.13 97.44 84.94 97.41 84.74 97.37 84.55 97.44 84.99 97.31 84.14 97.3 84.01 97.2 83.42 97.32 82.62 97.72 82.17Z" fill="#8EB60F"/><path d="M101.95 91.74C102.44 91.17 103.47 91.86 103.82 92.22 104.27 92.68 104.85 93.46 104.63 94.15 104.63 94.19 104.6 94.23 104.59 94.27 104.46 94.73 104.17 95.1 103.63 95.04 103.6 95.04 103.59 95.03 103.55 95.03 102.98 94.96 102.5 94.63 102.15 94.19 101.89 93.85 101.59 93.27 101.64 92.76 101.57 92.39 101.64 92.06 101.95 91.74Z" fill="#8EB60F"/><path d="M113.07 71.43C114.04 71.46 115.07 72.04 115.73 72.72 116.44 73.48 117.24 74.69 117.1 75.77 117.33 76.61 117.29 77.5 116.68 78.13 115.43 79.42 113.47 78.01 112.57 77.03 111.58 75.96 111.02 74.41 111.12 72.96 111.2 71.96 112.14 71.42 113.07 71.43Z" fill="#BAC80C"/><path d="M117.94 80.72C118.04 80.59 118.14 80.44 118.29 80.32 118.78 79.88 119.49 80.43 119.8 80.81 119.82 80.85 119.86 80.9 119.91 80.94 120.13 81.17 120.31 81.61 120.26 82 120.29 82.03 120.3 82.06 120.32 82.11 120.43 82.39 120.34 82.7 120.06 82.81 119.48 83.06 118.86 82.6 118.43 82.26 118.06 82.02 117.61 81.16 117.94 80.72Z" fill="#BAC80C"/><g opacity="0.4"><path d="M133.47 45.23C135.4 44.8 136.98 46.61 137.5 48.26 137.8 49.23 137.73 50.44 137.14 51.28 136.8 52.38 135.99 53.17 134.59 52.63 133.08 52.07 131.96 50.62 131.59 49.07 131.19 47.45 131.65 45.63 133.47 45.23Z" fill="#73AA15"/><path d="M127.31 53.42C129.07 52.14 130.88 54.41 131.25 55.93 131.37 56.46 131.38 57.04 130.95 57.44 130.45 57.87 129.84 57.96 129.3 57.81 128.98 57.81 128.62 57.73 128.18 57.49 126.89 56.75 125.82 54.5 127.31 53.42Z" fill="#73AA15"/><path d="M133.21 62.07C133.34 62.3 133.42 62.54 133.45 62.79L133.42 62.76C133.47 63.08 133.41 63.42 133.03 63.48 132.92 63.49 132.81 63.5 132.67 63.52 131.86 63.57 131.09 62.42 131.26 61.68 131.49 60.51 132.93 61.45 133.21 62.07Z" fill="#73AA15"/><path d="M113.32 24.5C114.95 22.9 117.35 24.62 118.56 26 119.06 26.5 119.43 27.08 119.71 27.73 120.39 29.09 120.73 30.69 119.93 31.92 119.88 32.05 119.76 32.12 119.68 32.23 119.46 32.61 119.16 32.97 118.79 33.22 116.76 34.56 114.23 32.31 113.29 30.64 112.28 28.86 111.71 26.09 113.32 24.5Z" fill="#C9CD0D"/><path d="M107.35 26.34C107.45 26.25 107.52 26.12 107.64 26.05 107.65 26.05 107.66 26.07 107.66 26.07 108.01 25.81 108.51 25.83 108.96 26.11 109.41 26.38 109.73 26.75 109.95 27.22 110.41 28.14 110.15 29.56 108.82 29.12 108.24 28.94 107.77 28.44 107.49 27.91 107.27 27.52 107.03 26.76 107.35 26.34Z" fill="#73AA15"/><path d="M95.88 39.72C96.65 38.41 98.02 38.71 99.08 39.51 99.86 40.11 100.38 41.2 100.63 42.16 101.05 43.83 100.93 46.59 98.57 46.11 98.5 46.1 98.39 46.11 98.31 46.09 96.96 45.83 95.82 44.57 95.39 43.31 95.01 42.13 95.25 40.77 95.88 39.72Z" fill="#73AA15"/></g><path d="M53.58 77.86C54.06 76.76 55.24 76.51 56.28 76.78 57.66 77.13 58.56 78.54 59.04 79.77 59.3 80.5 59.38 81.72 58.86 82.37 58.8 82.45 58.74 82.52 58.67 82.59 58.53 83.07 58.12 83.29 57.65 83.38 56.4 83.62 55.31 82.66 54.55 81.8 53.62 80.77 52.98 79.19 53.58 77.86Z" fill="#8EB60F" opacity="0.4"/><path d="M59.23 86.64C60.1 86.75 60.83 87.48 61.07 88.3 61.27 88.93 61.04 89.94 60.16 89.83 59.3 89.72 58.59 89.01 58.33 88.16 58.14 87.52 58.37 86.53 59.23 86.64Z" fill="#8EB60F" opacity="0.4"/><path d="M43.05 81.65C44.97 82.17 46.44 84.25 46.88 86.08 47.12 87.01 47.13 87.92 46.71 88.81 46.26 89.83 44.88 90.2 43.89 89.83 43.04 89.53 42.41 89.01 41.85 88.39 40.8 87.41 40.04 85.99 39.79 84.61 39.48 82.66 41.14 81.16 43.05 81.65Z" fill="#8EB60F" opacity="0.4"/><path d="M84.54 70.71C85.03 70.99 85.62 71.68 85.84 72.37 85.9 72.43 85.94 72.46 85.96 72.5 86.31 73.06 86.19 73.66 85.78 74.1 85.25 74.66 84.35 74.22 83.88 73.86 83.05 73.24 82.83 72.16 82.94 71.19 83.01 70.35 83.98 70.39 84.54 70.71Z" fill="#8EB60F"/><path d="M87.02 3.75C88.14 3 89.5 3.77 90.23 4.76 90.85 5.61 91.13 6.6 91.23 7.66 91.35 9.35 90.9 11.75 88.7 11.22 87.75 10.99 86.87 10.15 86.44 9.18 85.41 7.48 85.35 4.86 87.02 3.75Z" fill="#38711D"/><path d="M78.18 4.66C79.15 4.98 80.43 6.9 79.1 7.53L79.1 7.53C79.07 7.54 79.07 7.55 79.05 7.57 78.98 7.6 78.96 7.59 78.98 7.59 78.96 7.6 78.93 7.6 78.9 7.59 78.31 7.78 77.7 7.25 77.39 6.8 77.06 6.37 76.82 5.86 76.92 5.31 77.06 4.71 77.64 4.49 78.18 4.66Z" fill="#38711D"/><path d="M18.03 0C18.24 0.82 18.19 1.69 17.74 2.33L18.03 0Z" fill="#60A218" opacity="0.5"/><path d="M18.56 6.97C18.6 5.64 19.41 4.29 20.96 4.89 21.99 5.29 23.07 6.39 23.4 7.58L18.56 6.97Z" fill="#38711D"/><path d="M23.42 7.61C23.51 7.94 23.55 8.28 23.5 8.62 23.56 8.87 23.57 9.09 23.55 9.35 23.49 10.35 22.55 10.88 21.66 10.94 20.81 10.98 20.07 10.32 19.53 9.75 18.95 9.14 18.67 8.23 18.57 7.39 18.56 7.27 18.56 7.14 18.56 7.01L23.42 7.61Z" fill="#38711D"/><g opacity="0.3"><path d="M17.98 91.42C26.68 85.48 35.56 79.79 44.37 74 48.62 71.19 53.48 70.16 58.29 68.64 64.78 66.58 70.68 63.06 76.16 59.04 76.31 58.93 76.57 59.26 76.41 59.37 72.73 62.3 68.89 64.99 64.66 67.07 58.97 69.9 52.55 70.86 47.06 74.04 37.29 79.73 28.21 86.37 18.31 91.86 18.11 91.98 17.79 91.55 17.98 91.42Z" fill="#5C3611"/><path d="M33.94 78.03C41.42 72.05 44.11 63.38 50.06 56.21 50.23 56.02 50.59 56.37 50.45 56.58 45.87 63.95 42.57 74.44 34.46 78.73 34.13 78.9 33.62 78.29 33.94 78.03Z" fill="#5C3611"/><path d="M5.62 99.35C7.19 97.99 8.83 96.73 10.3 95.52 10.49 95.37 10.74 95.72 10.6 95.87 8.8 97.61 7.02 99.35 5.39 101.21L5.62 99.35Z" fill="#5C3611"/><path d="M1.66 140.99C4.84 137.45 9.6 135.7 14.14 134.7 14.38 134.63 14.73 135.18 14.41 135.25 9.64 136.41 5.9 138.49 2.1 141.55 1.84 141.78 1.43 141.25 1.66 140.99Z" fill="#5C3611"/></g><path d="M25.18 20.08C25.22 22.9 29.04 24.78 31.89 25.26 31.95 25.5 31.98 25.74 32.02 25.94 32.69 29.45 34.01 32.97 37.38 34.62 39.36 35.58 41.27 33.66 41.03 31.63 40.89 30.69 40.69 29.76 40.39 28.83 40.96 28.92 41.56 28.86 42.12 28.54 42.96 28.1 43.44 27.47 43.62 26.77 45.96 28.85 49.08 30.32 51.66 28.5 52.96 27.59 52.3 26.06 51.15 24.67 54.32 25.38 58.16 25.47 57.7 22.34 57.42 20.49 55.91 19.26 54.2 18.78 54.13 18.26 53.97 17.71 53.64 17.29 52.31 15.58 50.07 15.15 48.16 15.76 47.89 14.56 47.12 13.58 45.51 13.03 44.26 12.62 43.49 13.24 43.08 14.16 42.53 13.53 41.87 13.04 41.12 12.85 39.21 12.31 38.18 13.34 37.77 14.79 36.71 13.75 35.43 13.04 34.07 13.13 31.19 13.32 30.54 15.13 30.82 17.26 28.18 16.31 25.11 16.37 25.18 20.08Z" fill="#176020" opacity="0.3"/></g></svg>