<svg width="68.64" height="29.47" viewBox="0 0 68.64 29.47" xmlns="http://www.w3.org/2000/svg" xmlns:xlink="http://www.w3.org/1999/xlink" xml:space="preserve" overflow="hidden"><defs></defs><g><g><linearGradient x1="-1691.52" y1="39.458" x2="-1691.52" y2="-51.4806" gradientUnits="userSpaceOnUse" id="SVGID_1_" gradientTransform="matrix(-1 0 0 1 -1656.96 0)"><stop offset="0" stop-color="#FFFFFF"/><stop offset="0.1017" stop-color="#F7FCFE"/><stop offset="0.2596" stop-color="#E1F2FB"/><stop offset="0.4538" stop-color="#BDE3F7"/><stop offset="0.6768" stop-color="#8CCFF1"/><stop offset="0.9212" stop-color="#4DB4E9"/><stop offset="1" stop-color="#37ABE6"/></linearGradient><path d="M0.43 16.07C1.37 14.36 3.49 14.26 5.19 14.63 5.1 14.14 5.09 13.64 5.12 13.21 5.21 11.8 6.12 10.66 7.1 9.72 9.25 7.65 12.58 6.79 15.35 7.96 15.3 6.68 15.4 5.6 16.28 4.53 17.3 3.26 19.23 2.55 20.76 2.22 22.41 1.86 24.25 2.39 25.7 3.14 26.15 3.38 26.54 3.67 26.88 3.99 27.23 2.46 27.81 1.34 29.32 0.64 31.09-0.2 33.22-0.1 35.07 0.34 38.21 1.08 40.85 3.43 41.49 6.62 41.87 6.19 42.32 5.82 42.68 5.49 44.16 4.12 46.22 3.82 48.17 3.7 52.02 3.47 54.75 5.29 56.55 8.47 58.03 7.09 60.46 6.68 62.35 7.05 62.81 7.13 63.26 7.22 63.69 7.34 65.95 8.55 68.14 9.95 68.56 12.77 68.95 15.45 68.13 17.82 66.29 19.56 65.11 20.36 63.69 20.71 62.14 20.6 62.14 20.6 62.14 20.6 62.13 20.6 62.14 20.91 62.1 21.23 62.03 21.56 61.69 23.18 59.97 24.23 58.59 24.89 55.8 26.21 50.92 26.68 48.5 24.26 48.48 24.31 48.47 24.36 48.44 24.4 48.03 25.35 47.35 26.11 46.57 26.77 45.01 28.09 42.74 28.75 40.79 29.25 37.17 30.17 32.67 28.09 31.52 24.51 31.22 25.54 30.21 26.46 29.35 26.96 27.81 27.87 26.12 28.08 24.39 27.71 22.22 27.26 19.95 25.59 19.41 23.46 18.3 25.59 14.85 25.47 12.86 24.62 11.69 24.13 10.39 23.07 9.82 21.82 9.15 22.61 7.37 22.9 6.62 22.92 4.71 22.96 2.78 22.32 1.41 20.98 0.11 19.72-0.46 17.69 0.43 16.07Z" fill="#2399D0"/><path d="M2.43 20.84C3.58 21.79 5.26 22.05 6.7 22.02 7.34 21.99 7.88 21.82 8.44 21.54 8.87 21.32 9.11 20.92 9.52 20.75 9.5 20.32 9.57 19.88 9.78 19.45 9.9 19.97 10.11 20.47 10.39 20.93 10.62 22.37 11.75 23.36 13.32 24.04 14.34 24.48 15.36 24.51 16.45 24.38 17.81 24.21 18.4 23.59 19.31 22.83 19.28 22.34 19.33 21.82 19.52 21.29 19.52 21.86 19.65 22.47 19.82 22.91 19.97 23.32 20.2 23.68 20.47 24.01 20.63 24.36 20.84 24.68 21.13 25.03 22.03 26.07 23.38 26.67 24.69 26.94 27.03 27.44 30.5 26.14 31.3 23.67 31.05 23.58 30.8 23.47 30.59 23.36 30.13 23.1 29.58 22.67 29.44 22.12 29.79 22.4 30.14 22.65 30.54 22.84 30.65 22.9 30.76 22.95 30.88 23.01 31.16 23.2 31.49 23.36 31.82 23.46 32.06 23.56 32.31 23.67 32.56 23.75 32.31 23.81 32.03 23.82 31.76 23.78 32.48 25.24 33.11 26.42 34.61 27.32 36.34 28.36 38.51 28.5 40.45 28.15 41.95 27.87 43.53 27.21 44.88 26.5 45.69 26.07 46.37 25.47 46.99 24.8 47.53 24.17 47.76 23.53 47.85 22.83 48.14 23.17 48.48 23.5 48.84 23.79 50.48 25.08 52.72 25.52 54.76 25.41 56.61 25.31 58.53 24.78 59.83 23.43 60.19 23.19 60.52 22.88 60.77 22.49 61.55 21.36 61.9 19.92 61.68 18.58 61.88 19.02 62.03 19.49 62.09 19.97 62.73 19.78 63.38 19.76 64.04 19.65 65.13 19.48 65.94 18.75 66.68 17.99 68.16 16.45 69 13.11 67.52 11.25 66.95 10.54 66.29 9.89 65.62 9.26 64.67 8.36 63.67 8.07 62.41 7.85 60.6 7.52 58.08 7.96 56.8 9.44 56.74 9.51 56.62 9.54 56.54 9.51 55.91 7.92 54.81 6.53 53.44 5.67 52.12 4.69 50.41 4.44 48.83 4.43 47.41 4.43 45.92 4.65 44.6 5.14 44 5.38 43.17 5.88 42.46 6.51 41.69 7.02 41.12 7.88 40.82 8.82L40.81 8.82C40.51 8.05 40.85 7.36 41.36 6.75 40.57 3.71 38.12 1.57 35.09 0.89 33.58 0.55 31.99 0.64 30.53 1.11 28.7 1.71 28.23 2.93 27.74 4.61 27.71 4.72 27.65 4.79 27.58 4.84 27.85 5.23 28.09 5.64 28.31 6.07 28.3 6.05 28.3 6.05 28.3 6.05 27.64 5.15 26.67 4.44 25.6 4.06 24.4 3.37 23.02 3.04 21.45 3.22 20.09 3.37 18.75 4.11 17.64 4.88 16.37 5.78 16.12 7.02 16.12 8.47 15.95 8.37 15.76 8.3 15.61 8.25 14.44 7.77 13.09 7.72 11.88 8.15 11.5 8.28 11.15 8.45 10.81 8.63 9.22 9.1 7.75 10.04 6.89 11.28 6.78 11.34 6.67 11.45 6.59 11.61 5.9 12.95 5.55 14.46 5.79 15.87 5.56 15.64 5.4 15.36 5.29 15.03 3.96 15.02 2.71 15.12 1.65 16.04 0.05 17.42 1.09 19.73 2.43 20.84Z" fill="url(#SVGID_1_)"/><path d="M2.43 20.84C3.58 21.79 5.26 22.05 6.7 22.02 7.34 21.99 7.88 21.82 8.44 21.54 8.87 21.32 9.11 20.92 9.52 20.75 9.5 20.32 9.57 19.88 9.78 19.45 9.9 19.97 10.11 20.47 10.39 20.93 10.62 22.37 11.75 23.36 13.32 24.04 14.34 24.48 15.36 24.51 16.45 24.38 17.81 24.21 18.4 23.59 19.31 22.83 19.28 22.34 19.33 21.82 19.52 21.29 19.52 21.86 19.65 22.47 19.82 22.91 19.97 23.32 20.2 23.68 20.47 24.01 20.63 24.36 20.84 24.68 21.13 25.03 22.03 26.07 23.38 26.67 24.69 26.94 27.03 27.44 30.5 26.14 31.3 23.67 31.05 23.58 30.8 23.47 30.59 23.36 30.13 23.1 29.58 22.67 29.44 22.12 29.79 22.4 30.14 22.65 30.54 22.84 30.65 22.9 30.76 22.95 30.88 23.01 31.16 23.2 31.49 23.36 31.82 23.46 32.06 23.56 32.31 23.67 32.56 23.75 32.31 23.81 32.03 23.82 31.76 23.78 32.48 25.24 33.11 26.42 34.61 27.32 36.34 28.36 38.51 28.5 40.45 28.15 41.95 27.87 43.53 27.21 44.88 26.5 45.69 26.07 46.37 25.47 46.99 24.8 47.53 24.17 47.76 23.53 47.85 22.83 48.14 23.17 48.48 23.5 48.84 23.79 50.48 25.08 52.72 25.52 54.76 25.41 56.61 25.31 58.53 24.78 59.83 23.43 60.19 23.19 60.52 22.88 60.77 22.49 61.55 21.36 61.9 19.92 61.68 18.58 61.88 19.02 62.03 19.49 62.09 19.97 62.73 19.78 63.38 19.76 64.04 19.65 65.13 19.48 65.94 18.75 66.68 17.99 68.16 16.45 69 13.11 67.52 11.25 67.22 10.87 66.88 10.51 66.53 10.15 67.11 11.64 66.93 13.33 65.63 14.87 64.38 16.34 62.67 16.48 61.04 15.96 61.06 16.49 61.01 17.05 60.85 17.62 60.17 20.19 57.16 20.81 54.9 20.97 52.12 21.16 48.99 19.82 46.98 17.63 46.04 20.11 43.92 21.89 40.42 21.67 39.73 21.63 39.07 21.48 38.44 21.27 37.54 22.38 35.66 22.39 34.39 22.3 32.49 22.15 30.37 21.21 28.83 19.76 28.43 22.33 26.4 24.23 22.9 22.83 21.2 22.16 20.07 20.97 19.44 19.56 18.96 20.07 18.45 20.45 17.99 20.63 15.45 21.71 12.01 21.2 10.37 18.76 7.43 14.4 11.98 8.66 16.29 8.62 16.24 8.54 16.19 8.47 16.14 8.39 16.14 8.42 16.13 8.43 16.13 8.46 15.96 8.36 15.77 8.29 15.62 8.24 14.45 7.76 13.1 7.71 11.89 8.14 11.51 8.27 11.16 8.44 10.82 8.62 9.23 9.09 7.76 10.03 6.9 11.27 6.79 11.33 6.68 11.44 6.6 11.6 5.91 12.94 5.56 14.45 5.8 15.86 5.57 15.63 5.41 15.35 5.3 15.02 3.97 15.01 2.72 15.11 1.66 16.03 0.05 17.42 1.09 19.73 2.43 20.84ZM3.84 15.97C3.88 15.86 3.99 15.76 4.19 15.78 5.99 15.94 8 16.4 8.44 18.44 8.83 20.19 6.78 20.7 5.51 20.23 4.38 19.82 3.43 18.7 3.1 17.57 2.84 16.72 3.2 16.18 3.84 15.97Z" fill="#A3BBC9" opacity="0.5"/></g><path d="M58.11 10.12C58.21 8.46 60.14 8.21 61.41 8.49 62.68 8.77 64.1 9.67 64.71 10.9 65.02 11.42 65.17 12.01 64.98 12.56 64.69 14.45 62.13 14.36 60.8 13.59 60.7 13.53 60.61 13.46 60.52 13.39 59.18 12.81 58.02 11.68 58.11 10.12Z" fill="#FFFFFF"/><path d="M45.73 7.73C46.13 5.81 48.6 5.91 50.11 6.17 51.92 6.52 54.71 8.31 54.53 10.43 54.42 11.66 53.67 12.18 52.73 12.29 51.9 12.68 50.62 12.62 49.8 12.35 47.89 11.78 45.21 10.12 45.73 7.73Z" fill="#FFFFFF"/><path d="M32.24 2.86C32.34 2.81 32.44 2.78 32.54 2.76 33.4 2.4 34.48 2.55 35.3 2.91 35.48 2.99 35.68 3.11 35.89 3.24 36.42 3.51 36.88 3.88 37.23 4.34 37.57 4.78 38.05 5.66 37.86 6.31 37.92 6.62 37.94 6.97 37.86 7.32 37.67 8.12 36.72 8.24 36.06 8.16 35.35 8.08 34.65 7.73 34.02 7.37 33.34 7.09 32.71 6.7 32.18 6.19 31.25 5.3 30.8 3.49 32.24 2.86Z" fill="#FFFFFF"/></g></svg>