<svg width="152.77" height="160.82" viewBox="0 0 152.77 160.82" xmlns="http://www.w3.org/2000/svg" xmlns:xlink="http://www.w3.org/1999/xlink" xml:space="preserve" overflow="hidden"><defs></defs><g><path d="M86.82 12.06C88.56 0.61 71.96-3.04 65.51 7.24 60.09-1.63 47.72 4.8 47.5 12.64 42.96 3.37 26.65 5.14 22.12 16.01L86.82 12.06Z" fill="#367F1D"/><path d="M117.67 53.86C124.98 47.27 122.58 31.05 108.56 32.2 108.56 32.2 114.31 8.81 86.56 13.34 86.67 12.92 86.75 12.51 86.81 12.1L22.1 16.05C20.78 19.25 20.47 23.23 21.79 27.95 13.12 25.08 11.41 32.24 12.45 36.22 4.03 31.95-7 47.39 5.93 57.43-3.02 61.98 1.25 75.62 8.12 75.53 1.62 84.29 9.88 84.47 12.26 85.04 7.81 95.33 13.49 102.8 20.58 98.09 18.88 108.44 32.07 101.45 32.07 101.45 30.75 114.53 50.82 123.08 56.04 111.72 58.44 121.95 67.14 115.6 67.14 115.6 68.24 123.28 87.16 120.95 86.62 110.9 94.34 119.87 108.91 106.68 106.21 100.65 114.8 103.06 125.02 94.65 122.86 83.01 122.86 83.01 143.35 75.85 129.33 61.35 130.84 56.06 121.89 51.4 117.67 53.86Z" fill="#367F1D"/><path d="M28.97 15.59C28.92 11.13 37.36 7.61 38.36 13.12 39.8 12.2 41.61 11.87 43.3 12.68 44.24 13.12 44.94 13.78 45.46 14.58L86.82 12.06C88.56 0.61 71.96-3.04 65.51 7.24 60.09-1.63 47.72 4.8 47.5 12.64 42.96 3.37 26.65 5.14 22.12 16.01L28.97 15.59Z" fill="#38711D" opacity="0.4"/><path d="M117.67 53.86C124.98 47.27 122.58 31.05 108.56 32.2 108.56 32.2 114.31 8.81 86.56 13.34 86.67 12.92 86.75 12.51 86.81 12.1L45.49 14.62C46.95 16.93 46.82 20.39 45.9 23.17 47.43 22.25 49.19 22.07 50.6 23 50.06 20.25 49.88 17.15 52 15.39 53.99 13.78 57.2 13.47 58.86 15.85 59.83 17.25 60.17 19.54 59.91 21.84 62.51 20.91 65.46 21.13 67.71 23.01 69.65 24.62 69.22 27.32 67.78 29.22 71.13 29.55 73.68 32.35 70.48 35.91 68.42 38.21 64.61 39.98 60.88 40.37 60.95 40.89 61 41.32 60.92 41.59 60.2 44.54 58.24 46.77 55.43 47.84 55.26 47.9 55.11 47.97 54.93 48.03 55.11 49.39 54.92 50.88 54.12 52.54 53.03 54.84 50.17 57.23 47.83 56.68 48.22 59.58 46.88 63.07 43.78 63.2 42.57 63.25 40.33 62.85 38.95 61.98 38.18 63.48 36.67 64.6 34.88 64.25 34.46 64.16 34.07 64.02 33.72 63.86 33.74 65.72 33.14 67.5 31.51 68.73 29.77 70.03 27.44 70.59 25.79 69.42 25.21 74.61 20.15 80.88 14.7 79.55 8.61 78.09 11.88 72.04 16.43 71.37 16.35 70.66 16.45 69.95 16.73 69.4 14.8 68.78 14.2 67.19 14.47 65.5 12.35 65.81 10.04 65.26 9.43 63.02 8.72 60.21 11.15 58.66 13.59 57.97 12.29 56.92 12.2 55.1 12.34 53.15 8.12 52.8 5.08 48.46 7.12 43.95 8.77 40.21 12.44 40.71 15.52 42.17 15.08 39.98 15.97 37.59 17.52 36.11 17.16 34.66 17.76 32.83 18.88 31.6 20.32 29.99 22.23 29.44 24.22 29.42 24.02 28.71 23.94 27.9 23.98 27.05 24.19 24.34 25.05 22.04 27.43 21.8 26.67 19.82 27.7 17.17 29.11 16.59 29.01 16.27 28.96 15.94 28.95 15.62L22.08 16.04C20.76 19.24 20.45 23.22 21.77 27.94 13.1 25.07 11.39 32.23 12.43 36.21 4.03 31.95-7 47.39 5.93 57.43-3.02 61.98 1.25 75.62 8.12 75.53 1.62 84.29 9.88 84.47 12.26 85.04 7.81 95.33 13.49 102.8 20.58 98.09 18.88 108.44 32.07 101.45 32.07 101.45 30.75 114.53 50.82 123.08 56.04 111.72 58.44 121.95 67.14 115.6 67.14 115.6 68.24 123.28 87.16 120.95 86.62 110.9 94.34 119.87 108.91 106.68 106.21 100.65 114.8 103.06 125.02 94.65 122.86 83.01 122.86 83.01 143.35 75.85 129.33 61.35 130.84 56.06 121.89 51.4 117.67 53.86ZM5.53 69.79C5.58 68.94 5.88 68.2 6.35 67.61 6.39 67.51 6.43 67.39 6.54 67.29 7.38 66.34 8.57 65.68 9.89 65.98 10.91 66.22 11.86 66.96 12.24 67.99 13.13 70.33 10.77 72.94 8.44 73.08 6.61 73.2 5.44 71.47 5.53 69.79ZM22.91 90.16C22.41 92.35 20.58 94.51 18.43 95.21 15.92 96.01 12.82 94.03 13.62 91.19 14.2 89.18 16.03 87.47 18.11 87.05 18.23 86.91 18.41 86.78 18.57 86.77 20.89 86.46 23.57 87.29 22.91 90.16ZM30.78 90.82C30.09 91.61 29.04 91.94 28.32 92.68 27.79 93.21 27.29 92.61 27.48 92.07 27.48 92.04 27.49 91.97 27.43 91.85 27.37 91.68 27.32 91.55 27.25 91.41 27.1 91.07 26.92 90.67 26.94 90.28 27.08 88.9 28.44 88.44 29.61 88.26 30.22 88.16 30.3 88.71 30.11 89.13 30.41 89.18 30.69 89.28 30.87 89.5 31.25 89.88 31.12 90.45 30.78 90.82ZM86.02 90.52C84.18 92.09 81.51 93.21 78.74 93.76 78.27 95.55 77.42 97.34 76.05 99.06 72.98 102.93 66.56 105.91 64.49 101.12 63.35 104.31 60.8 107.07 57.01 105.2 55.14 104.27 53.84 102.89 53.03 101.29 50.45 104.51 46.96 106.74 43.12 106.31 35.27 105.4 36.57 95.32 42.31 93.44 39.66 90.52 42.38 83.24 47.57 82.18 49.46 77.76 55.57 73.42 58.03 79.23 58.94 74.85 60.91 70.91 65.9 69.65 70.18 68.51 73.74 70.09 74.88 74.04 77.18 70.66 81.47 70.46 84.69 73.57 87.97 76.71 86.9 80.37 84.34 82.98 85.68 82.87 86.93 83.31 87.36 84.92 87.94 87 87.74 89.03 86.02 90.52Z" fill="#38711D" opacity="0.4"/><path d="M65.05 9.6C65.91 9.15 65.95 10.34 65.38 10.73 64.01 11.65 63.86 12.58 64.35 13.43L86.83 12.06C88.57 0.61 71.97-3.04 65.52 7.24 62.83 2.86 58.5 2.21 54.73 3.61 55.06 4.81 55.55 5.89 56.03 6.66 58.14 10.03 61.33 11.5 65.05 9.6Z" fill="#38711D" opacity="0.4"/><path d="M105.97 23.24C105.37 22.85 106.22 21.69 106.85 22.11 107.47 22.51 108.1 23.04 108.7 23.68 107.51 17.51 102.7 10.68 86.56 13.33 86.67 12.91 86.75 12.5 86.81 12.09L64.36 13.46C65.36 15.14 68.85 16.51 70.32 16.88 73.41 17.66 76.97 18.02 79.78 16.19 80.62 15.75 80.67 16.95 80.11 17.34 73.06 20.96 75.63 29.52 81.39 32.94 81.93 33.28 81.31 34.02 80.95 34.15 78.14 35.21 74.44 37.04 74.03 40.43 73.78 42.51 74.67 44.7 76.34 45.99 81.69 50.12 85.15 44 86.07 39.24 86.2 38.6 87.18 38.27 87.29 39.07 88.01 45.08 95.48 42.37 98.79 40.44 104.09 37.28 107.14 31.97 108.99 26.27 108.01 24.97 106.98 23.9 105.97 23.24Z" fill="#38711D" opacity="0.4"/><path d="M129.33 61.36C130.84 56.06 121.9 51.4 117.68 53.86 123.99 48.18 123.06 35.34 113.7 32.65 115.81 39.38 115.07 46.53 107.52 46.34 108.97 49.98 108.54 56.01 103.93 56.72 98.98 57.49 96.51 52.62 95.31 48.21 93.52 52.82 87.7 54.49 83.99 50.33 83 53.94 79.89 55.94 76.13 56.55 77.1 58.94 77.5 61.25 76.88 63.75 80.74 62.89 85.85 62.75 89.36 64.4 92.9 66.06 92.03 68.86 90.12 71.25 93.16 71.06 97.08 71.74 98.37 74.67 99.48 77.09 98.6 79.13 97.01 80.83 100.08 80.75 102.89 82.27 102.56 85.94 102.31 88.51 100.38 89.64 98.26 89.53 101.92 95.72 95.49 104.06 89.6 98.89 88.98 102.69 86.5 106.53 83.15 108.36 79.67 110.28 77.05 109.06 75.86 105.96 74.45 109.1 71.7 111.84 68.14 112.04 64.98 112.2 64 110.19 64.58 107.82 61.59 109.51 58.82 109.33 55.44 107.94 54.31 111.62 49.94 115.54 47.9 111.34 46.61 113.27 44.39 115 42.05 115.93 47.46 118.07 53.5 117.27 56.06 111.74 58.46 121.97 67.16 115.62 67.16 115.62 68.26 123.3 87.18 120.97 86.64 110.92 94.36 119.89 108.93 106.7 106.23 100.67 114.82 103.08 125.04 94.67 122.88 83.03 122.86 83.02 143.35 75.87 129.33 61.36Z" fill="#176020" opacity="0.3"/><path d="M129.33 61.36C130.84 56.06 121.9 51.4 117.68 53.86 123.99 48.18 123.06 35.34 113.7 32.65 115.81 39.38 115.07 46.53 107.52 46.34 108.97 49.98 108.54 56.01 103.93 56.72 98.98 57.49 96.51 52.62 95.31 48.21 94.89 49.29 94.24 50.2 93.46 50.93 96.56 54.8 97.46 60.04 95.29 64.93 100.26 62.11 110.28 59.95 108.63 66.3 113.56 63.02 120.65 64.9 120.5 71.99 120.38 76.74 115.45 78.13 111.08 77.75 114.34 80.63 115.95 85.05 114.17 89.54 112.43 93.85 108.86 94.85 105.81 92.42 106.01 95.66 104.79 99.26 102.23 101.17 100.65 102.33 99.47 102.2 98.75 101.27 97.58 106.76 94.19 112.09 88.49 112.58 96.47 117.92 108.71 106.25 106.21 100.67 114.8 103.08 125.02 94.67 122.86 83.03 122.86 83.02 143.35 75.87 129.33 61.36Z" fill="#176020" opacity="0.3"/><g><path d="M112.92 18.37C118.63 26.02 125.15 36.13 133.66 47.77 140.41 57 144.89 67.41 147.68 77.32L146.25 53.93C145.24 51.83 144.34 49.81 143.85 48.16 142.71 44.36 142.65 41.63 145.11 35.32L144.18 20.12C143.54 23.67 142.26 29.67 140.54 32.06 138.04 35.56 139.86 46.65 136.28 42.61 132.68 38.58 126.97 32.07 123.35 25.56 119.72 19.04 118.8 18.09 118.8 18.09L112.61 16.16C112.62 16.15 113.48 17.73 112.92 18.37Z" fill="#40260B"/><path d="M145.15 35.22C145.8 33.57 146.61 31.68 147.62 29.46 152.53 18.64 151.94 15.46 151.94 15.46 151.94 15.46 148.39 17.72 144.64 17.36 144.64 17.36 144.49 18.4 144.22 19.94L145.15 35.22Z" fill="#40260B"/><path d="M138.5 105.23C143.55 108.48 147.35 113.05 150.13 117.58L149.25 103.14C144.55 101.38 133.94 95.33 128.9 90.52 118.99 81.04 115.67 76.03 113.24 70.91 110.82 65.79 105.76 53.84 103.08 42.88 99.27 41.6 99.03 41.13 99.03 41.13 99.03 41.13 101.69 51.94 100.51 52.18 99.35 52.43 84.51 39.89 84.51 39.89L81.24 41.11C81.24 41.11 95.68 51.75 102.37 61.95 109.04 72.11 109.85 75.33 109.85 75.33 109.85 75.33 105.98 74.43 97.99 71.28 89.98 68.11 86.7 67.04 80.91 62.01 75.14 56.98 70.6 53.6 70.6 53.6L68.69 53.91C68.69 53.91 70.68 59.85 70.56 60.75 70.56 60.75 78.64 67.34 84.33 69.7 90.04 72.07 96.43 74.98 105.25 81.24 119.6 91.41 130.31 99.92 138.5 105.23Z" fill="#40260B"/><path d="M152.27 152.68C148.77 149.54 143.5 144.67 139.09 141.71 134.08 138.37 118.48 123.37 118.48 123.37 118.48 123.37 117.17 126.04 116.04 126.4 124.64 133.97 134.39 144.2 132.89 144.36 131.35 144.51 105.07 144.81 105.07 144.81 105.07 144.81 107.24 146.37 104.84 149.66 117.36 149.44 118.46 150.36 125.42 149.92 131.52 149.55 146.01 152.25 152.77 160.82L152.27 152.68Z" fill="#40260B"/></g><g opacity="0.3"><path d="M145.15 35.22C145.8 33.57 146.61 31.68 147.62 29.46 152.53 18.64 151.94 15.46 151.94 15.46 151.94 15.46 148.39 17.72 144.64 17.36 144.64 17.36 144.49 18.4 144.22 19.94L145.15 35.22Z" fill="#40260B"/><path d="M112.92 18.37C118.63 26.02 125.15 36.13 133.66 47.77 140.41 57 144.89 67.41 147.68 77.32L146.25 53.93C145.24 51.83 144.34 49.81 143.85 48.16 142.71 44.36 142.65 41.63 145.11 35.32L144.18 20.12C143.54 23.67 142.26 29.67 140.54 32.06 138.04 35.56 139.86 46.65 136.28 42.61 132.68 38.58 126.97 32.07 123.35 25.56 119.72 19.04 118.8 18.09 118.8 18.09L112.61 16.16C112.62 16.15 113.48 17.73 112.92 18.37Z" fill="#40260B"/><path d="M138.5 105.23C143.55 108.48 147.35 113.05 150.13 117.58L149.91 113.99C149.15 112.82 148.38 111.65 147.6 110.47 146.41 108.95 145.2 107.46 144 105.94 143.61 105.44 144.44 104.56 144.99 104.92 146.43 105.88 147.99 106.93 149.55 108.08L149.25 103.14C144.55 101.38 133.94 95.33 128.9 90.52 118.99 81.04 115.67 76.03 113.24 70.91 110.82 65.79 105.76 53.84 103.08 42.88 99.27 41.6 99.03 41.13 99.03 41.13 99.03 41.13 101.69 51.94 100.51 52.18 99.35 52.43 84.51 39.89 84.51 39.89L81.24 41.11C81.24 41.11 95.68 51.75 102.37 61.95 109.04 72.11 109.85 75.33 109.85 75.33 109.85 75.33 105.98 74.43 97.99 71.28 89.98 68.11 86.7 67.04 80.91 62.01 75.14 56.98 70.6 53.6 70.6 53.6L68.69 53.91C68.69 53.91 70.68 59.85 70.56 60.75 70.56 60.75 78.64 67.34 84.33 69.7 90.04 72.07 96.43 74.98 105.25 81.24 119.6 91.41 130.31 99.92 138.5 105.23ZM104.42 62.07C104.21 61.51 105.21 60.67 105.58 61.3 110.71 70.09 114.77 79.59 121.99 86.98 128.26 93.42 135.68 98.5 142.94 103.81 143.53 104.24 142.67 105.32 142.05 104.92 134.43 100.21 126.45 95.71 120.15 89.21 117.43 86.44 115.38 83.13 113.52 79.7 109.86 74.25 106.91 68.31 104.42 62.07Z" fill="#40260B"/><path d="M152.27 152.68C148.77 149.54 143.5 144.67 139.09 141.71 134.08 138.37 118.48 123.37 118.48 123.37 118.48 123.37 117.17 126.04 116.04 126.4 124.64 133.97 134.39 144.2 132.89 144.36 131.35 144.51 105.07 144.81 105.07 144.81 105.07 144.81 107.24 146.37 104.84 149.66 117.36 149.44 118.46 150.36 125.42 149.92 127.44 149.8 130.39 150.03 133.65 150.68 133.61 150.32 133.83 149.91 134.24 149.84 142.56 148.5 148.26 154.09 152.73 160.3L152.27 152.68Z" fill="#40260B"/><path d="M135.19 151.01C139.18 151.94 143.48 153.51 147.19 155.88 143.96 152.73 140.07 150.58 135.19 151.01Z" fill="#40260B"/></g><g opacity="0.3"><path d="M74.88 59.1C78.34 62.86 82.44 65.86 86.8 68.57 94.84 73.56 103.53 76.11 112.21 79.53 111.06 78 109.86 76.5 108.67 75.01 106.99 74.54 103.44 73.43 98 71.28 89.99 68.11 86.71 67.04 80.92 62.01 75.14 56.98 70.6 53.6 70.6 53.6L69.33 53.82C71.45 55.23 73.15 57.2 74.88 59.1Z" fill="#40260B"/><path d="M149.25 103.14C144.55 101.38 133.94 95.33 128.9 90.52 118.99 81.04 115.67 76.03 113.24 70.91 110.82 65.79 105.76 53.84 103.08 42.88 99.27 41.6 99.03 41.13 99.03 41.13 99.03 41.13 101.69 51.94 100.51 52.18 99.35 52.43 84.51 39.89 84.51 39.89L82.89 40.48C89.15 46.47 96.83 50.82 102.77 57.15 108.43 63.17 111.45 71.48 115.98 78.33 121.31 86.4 127.91 91.97 135.95 97.21 140.43 100.14 144.98 102.97 149.41 105.98L149.25 103.14Z" fill="#40260B"/><path d="M152.27 152.68C148.77 149.54 143.5 144.67 139.09 141.71 134.08 138.37 118.48 123.37 118.48 123.37 118.48 123.37 117.17 126.04 116.04 126.4 124.64 133.97 134.39 144.2 132.89 144.36 131.35 144.51 105.07 144.81 105.07 144.81 105.07 144.81 107.24 146.37 104.84 149.66 117.36 149.44 118.46 150.36 125.42 149.92 126.77 149.84 128.57 149.91 130.57 150.17 132.73 149.07 134.42 147.09 136.99 146.57 139.49 146.07 142.3 148.25 144.2 149.59 147.14 151.66 149.91 153.95 152.51 156.43L152.27 152.68Z" fill="#40260B"/><path d="M145.15 35.22C145.8 33.57 146.61 31.68 147.62 29.46 152.53 18.64 151.94 15.46 151.94 15.46 151.94 15.46 150.75 16.22 149.01 16.79 148.51 20.15 147.43 23.38 146 26.61 145.61 27.49 145.2 28.38 144.79 29.28L145.15 35.22Z" fill="#40260B"/><path d="M146.25 53.92C145.24 51.82 144.34 49.8 143.85 48.15 142.71 44.35 142.65 41.62 145.11 35.31L144.75 29.36C142.23 34.87 139.59 40.81 140.97 46.85 142.08 51.75 144.35 56.15 146.66 60.55L146.25 53.92Z" fill="#40260B"/></g><path d="M61.06 13.68C64.6 18.16 71.38 21.33 77.78 20.15 77.76 44.18 95.54 44.12 95.54 44.12 90.01 61.81 114.17 63.36 123.95 53.75 127.92 63.39 138.56 52.61 138.56 52.61 138.83 56.93 142.12 59.45 146.66 60.51L143.5 8.65 61.06 13.68Z" fill="#99BC0F"/><path d="M142.55 19.97C140.7 20.2 138.81 19.9 137.42 18.67 136.89 18.19 136.66 17.51 136.48 16.86 136.13 15.58 136.45 16.08 135.08 16.05 133.36 16.01 131.57 15.6 130.39 14.26 129.23 12.95 128.72 11.23 128.82 9.54L61.05 13.67C64.59 18.15 71.37 21.32 77.77 20.14 77.75 44.17 95.53 44.11 95.53 44.11 90 61.8 114.16 63.35 123.94 53.74 127.91 63.38 138.55 52.6 138.55 52.6 138.82 56.92 142.11 59.44 146.65 60.5L144.85 30.92C144.6 30.64 144.38 30.36 144.17 30.07 142.15 27.22 141.05 22.86 142.55 19.97Z" fill="#167823" opacity="0.3"/><path d="M70.91 13.04C70.77 12.9 70.64 12.76 70.52 12.61 69.83 12.88 69.13 13.07 68.43 13.19L70.91 13.04Z" fill="#38801C" opacity="0.3"/><path d="M66.57 13.3C65.86 13.26 65.15 13.13 64.45 12.89 61.49 11.86 59.43 8.6 58.85 5.2 58.05 8.06 59 11.06 61.02 13.64L66.57 13.3Z" fill="#38801C" opacity="0.3"/><path d="M145.14 46C144.28 45.15 143.79 44.21 143.56 43.24 142.56 43.53 141.56 43.66 140.6 43.6 136.21 43.39 132.74 39.27 133.29 35.17 131.23 36.7 129.25 36.11 127.81 34.44 127.01 40.43 123.21 46.58 118.31 48.77 115.24 50.16 110.19 49.1 109.05 45.54 108.17 42.87 108.83 40.11 110.16 37.69 108.37 38.7 106.36 39.23 104.69 38.12 103.8 37.5 103.17 36.83 102.79 36.08 101.67 36.99 100.35 37.64 98.91 37.92 94.16 38.75 94.14 33.53 95.1 29.9 93.15 31.63 90.59 33.26 88.18 32.21 85.79 31.18 84.79 28.67 84.39 26.23 84.05 24.07 84.26 21.55 85.1 19.4 82.36 18 81.52 15.26 81.77 12.42L81.48 12.44C79.29 14.67 76.15 15.89 73.03 14.48 72.17 14.1 71.48 13.63 70.93 13.08L67.85 13.27C67.61 13.3 67.36 13.31 67.12 13.32L61.03 13.69C64.57 18.18 71.35 21.35 77.76 20.16 77.74 44.19 95.52 44.13 95.52 44.13 89.99 61.82 114.15 63.37 123.93 53.76 127.9 63.4 138.54 52.62 138.54 52.62 138.81 56.94 142.1 59.46 146.64 60.52L145.79 46.58C145.57 46.41 145.36 46.22 145.14 46Z" fill="#38801C" opacity="0.3"/><path d="M135.59 137.28C135.59 137.28 143.66 132.44 140.86 124.29 138.04 116.18 127.6 118.53 125.62 119.76 128.14 112.07 121.77 109.24 118.65 110.9 118.57 108.5 117.21 108.41 116.32 108.82 117.5 103.89 110.46 99.1 106.3 104.87 104 102.76 98.17 104.58 97.35 106.19 97.07 103.5 93.48 103.91 91.68 105.39 91.76 98.46 75.05 100.53 77.28 113.09 72.27 110.98 68.15 115.23 68.36 117.64 68.36 117.64 60.48 117.18 60.47 126.39 60.47 135.62 70.54 136.15 70.54 136.15 70.54 136.15 63.39 141.7 71.43 146.75 68.68 149.31 71.76 156.45 80.34 154.37 79.88 157.68 85.4 158.51 87.1 154.46 88.5 158.46 96.17 160.04 100.22 156.45 101.6 159.52 106.01 158.31 107.9 154.51 111.61 158.72 126.83 161.36 125.41 147.86 129.9 149.08 136.32 144.06 135.59 137.28Z" fill="#8EB60F"/><path d="M140.86 124.29C138.04 116.18 127.6 118.53 125.62 119.76 128.14 112.07 121.77 109.24 118.65 110.9 118.57 108.5 117.21 108.41 116.32 108.82 117.5 103.89 110.46 99.1 106.3 104.87 104 102.76 98.17 104.58 97.35 106.19 97.07 103.5 93.48 103.91 91.68 105.39 91.76 98.46 75.05 100.53 77.28 113.09 72.27 110.98 68.15 115.23 68.36 117.64 68.36 117.64 60.48 117.18 60.47 126.39 60.47 135.62 70.54 136.15 70.54 136.15 70.54 136.15 63.39 141.7 71.43 146.75 68.68 149.31 71.76 156.45 80.34 154.37 79.88 157.68 85.4 158.51 87.1 154.46 88.5 158.46 96.17 160.04 100.22 156.45 101.6 159.52 106.01 158.31 107.9 154.51 111.61 158.72 126.83 161.36 125.41 147.86 129.9 149.1 136.32 144.08 135.59 137.3 135.59 137.28 143.66 132.44 140.86 124.29ZM104.31 122.12C106.32 125.5 102.8 128.71 99.25 129.42 101.48 136.18 99.16 144.97 92.35 147.68 88.86 149.11 83.68 149.55 82.88 144.86 82.88 144.79 82.9 144.71 82.87 144.65 80.09 146.03 77.16 146.29 75.53 143.08 74.12 140.28 75.32 138.04 77.37 136.58 75.67 135.83 74.57 134 74.38 131.79 71.03 132.12 67.85 131.39 66.39 128.63 62.59 121.54 70.74 118.26 76.53 119.75 76.62 119.77 76.68 119.81 76.71 119.86 77.22 118.25 78.13 116.73 79.29 115.85 79.22 115.37 79.19 114.87 79.25 114.34 79.46 111.96 80.87 109.66 82.63 108.08 84.09 106.75 86.13 105.43 88.22 105.69 89.97 105.89 90.64 107.41 90.83 108.96 93.94 107.58 96.91 109.12 98.13 111.69 102.63 109.58 110.13 108.41 111.01 114.45 111.6 118.41 107.97 122.08 104.31 122.12Z" fill="#8EB60F" opacity="0.6"/><path d="M140.86 124.29C138.04 116.18 127.6 118.53 125.62 119.76 128.14 112.07 121.77 109.24 118.65 110.9 118.57 108.5 117.21 108.41 116.32 108.82 117.49 103.98 110.67 99.27 106.49 104.63 106.5 104.72 106.53 104.81 106.53 104.88 108.08 104.08 109.87 104.06 111.47 105.45 114 107.6 114.23 111.35 113.14 114.55 115.34 114.25 117.59 114.75 118.97 116.26 120.75 118.22 121.54 121.18 121.21 123.87 124.03 123.07 127.08 123.2 129.46 124.84 134.29 128.15 129.4 133.21 125.63 134.86 125.63 134.86 125.65 134.88 125.65 134.89 126.2 136.63 125.88 138.61 124.94 140.16 123.89 141.93 122.31 143.15 120.65 143.43 120.52 144.37 120.26 145.3 119.81 146.3 117.73 150.83 112.27 152.93 109.04 150.17 108.74 150.72 108.4 151.24 108.01 151.68 106.87 152.88 105.03 154.14 103.27 153.6 102.37 153.3 101.75 152.77 101.35 152.14 96.81 155.06 90.53 155.28 88.74 151.34 86.18 152.58 83.37 153 80.64 151.94 79.37 151.44 78.18 150.08 77.61 148.64 76.47 148.68 75.3 148.37 74.24 147.58 72.59 146.34 72.04 144.63 72.7 143.05 70.28 143.33 68.42 141.14 68.33 138.77 67.19 140.84 66.84 143.87 71.42 146.74 68.67 149.3 71.75 156.44 80.33 154.36 79.87 157.67 85.39 158.5 87.09 154.45 88.49 158.45 96.16 160.03 100.21 156.44 101.59 159.51 106 158.3 107.89 154.5 111.6 158.71 126.82 161.35 125.4 147.85 129.89 149.09 136.31 144.07 135.58 137.29 135.59 137.28 143.66 132.44 140.86 124.29Z" fill="#8EB60F"/><path d="M76.44 121.7C75.53 120.75 73.96 120.59 72.76 120.85 71.59 121.11 70.72 121.95 70.03 122.86 70.03 122.89 70.02 122.89 70.02 122.89 69.73 123.16 69.45 123.46 69.25 123.81 68.53 124.96 68.6 126.43 69.4 127.51 70.31 128.72 71.49 129.2 72.96 128.97 76.05 128.51 79.02 124.36 76.44 121.7Z" fill="#BAC80C"/><path d="M80.98 126.23C79.83 125.38 78.32 126.74 77.92 127.83 77.73 128.35 77.7 129.04 78.14 129.44 78.28 129.57 78.45 129.64 78.61 129.68 78.87 129.94 79.35 129.97 79.74 129.74 80.7 129.17 82.38 127.26 80.98 126.23Z" fill="#BAC80C"/><path d="M80.65 132.93C80.61 132.93 80.58 132.93 80.56 132.93 79.96 132.89 79.32 133.35 78.94 133.94 78.58 134.33 78.38 134.87 78.61 135.54 78.76 136.03 79.55 136.15 79.95 136.03 80.89 135.75 81.67 134.71 81.53 133.69 81.46 133.23 81.11 132.97 80.65 132.93Z" fill="#BAC80C"/><path d="M115.49 141.8C114.9 140.07 113.11 139.68 111.56 140.44 110.37 141.03 109.42 141.96 108.9 143.09 108.82 143.18 108.75 143.26 108.67 143.38 107.9 144.47 107.88 145.96 108.32 147.17 108.68 148.23 109.79 148.93 110.91 148.84 112.51 148.69 113.84 147.64 114.73 146.34 115.69 145.05 116.05 143.33 115.49 141.8Z" fill="#BAC80C"/><path d="M105.07 146.98C104.62 147.01 104.16 147.93 104.73 147.89 105.15 147.86 105.6 146.95 105.07 146.98Z" fill="#BAC80C"/><path d="M105.11 129.23C105.01 129.27 104.89 129.35 104.81 129.44 103.86 129.76 103.23 130.75 103.05 131.69 102.83 132.72 103.1 134.22 104.39 134.3 106.29 134.43 107.74 132.03 107.64 130.37 107.57 129.19 106.03 128.66 105.11 129.23Z" fill="#BAC80C"/><path d="M95.98 148.68C95.2 148.55 94.43 149.17 93.92 149.67 93.23 150.34 93.06 151.38 93.1 152.3 93.12 152.67 93.41 153.03 93.75 153.13 94.58 153.42 95.4 153.12 96.07 152.57 96.07 152.56 96.1 152.54 96.12 152.54 96.61 152.23 97.08 151.82 97.25 151.45 97.92 150.17 97.43 148.9 95.98 148.68Z" fill="#BAC80C"/><path d="M132.39 135.72C131.89 135.09 130.98 135.54 130.47 135.87 130.15 136.1 129.88 136.44 129.72 136.8 129.33 137.34 129.04 137.97 129.06 138.64 129.06 138.99 129.21 139.24 129.45 139.42 129.38 139.39 129.28 139.39 129.19 139.4 128.55 139.44 127.85 140.81 128.69 140.76 129.24 140.73 129.82 139.73 129.48 139.47 129.7 139.65 130.02 139.76 130.3 139.83 131.01 139.92 131.72 139.41 132.16 138.94 132.95 138.07 133.11 136.64 132.39 135.72Z" fill="#BAC80C"/><path d="M49.81 85.75C48.83 84.43 47.13 84.65 45.8 85.35 44.09 86.27 42.84 88.06 42.55 89.99 42.42 90.91 42.72 91.63 43.24 92.11 43.71 92.73 44.54 93.03 45.43 92.91 47.1 92.7 48.54 91.35 49.4 90 49.58 89.68 49.73 89.35 49.85 89 49.93 88.8 49.98 88.58 50.03 88.38 49.93 88.86 50.13 87.93 50.15 87.79 50.29 87.16 50.22 86.28 49.81 85.75Z" fill="#8EB60F"/><path d="M44.5 95.97C44 95.31 42.82 96 42.41 96.37 41.89 96.84 41.19 97.66 41.38 98.43 41.38 98.47 41.41 98.52 41.42 98.56 41.53 99.07 41.83 99.51 42.42 99.47 42.45 99.47 42.47 99.47 42.51 99.46 43.14 99.42 43.69 99.09 44.1 98.64 44.41 98.28 44.78 97.67 44.76 97.11 44.87 96.71 44.82 96.34 44.5 95.97Z" fill="#8EB60F"/><path d="M33.71 72.9C32.65 72.86 31.47 73.43 30.7 74.14 29.87 74.93 28.91 76.2 28.98 77.4 28.67 78.31 28.66 79.29 29.28 80.02 30.57 81.52 32.81 80.11 33.87 79.1 35.03 78 35.75 76.33 35.75 74.73 35.73 73.6 34.73 72.95 33.71 72.9Z" fill="#BAC80C"/><path d="M27.71 82.75C27.61 82.6 27.51 82.43 27.36 82.29 26.85 81.77 26.04 82.33 25.66 82.72 25.63 82.76 25.58 82.81 25.53 82.86 25.27 83.1 25.04 83.57 25.07 84 25.04 84.03 25.02 84.06 24.99 84.12 24.86 84.42 24.93 84.77 25.23 84.91 25.85 85.23 26.56 84.77 27.06 84.42 27.49 84.18 28.05 83.27 27.71 82.75Z" fill="#BAC80C"/><g opacity="0.4"><path d="M13.13 42.72C11.04 42.12 9.18 43.99 8.5 45.77 8.1 46.81 8.09 48.15 8.68 49.12 8.98 50.35 9.81 51.28 11.38 50.78 13.07 50.27 14.41 48.76 14.92 47.08 15.49 45.31 15.11 43.27 13.13 42.72Z" fill="#73AA15"/><path d="M19.33 52.13C17.49 50.6 15.34 52.97 14.83 54.61 14.66 55.19 14.61 55.82 15.06 56.29 15.58 56.79 16.24 56.94 16.85 56.81 17.2 56.83 17.6 56.76 18.1 56.54 19.56 55.82 20.89 53.42 19.33 52.13Z" fill="#73AA15"/><path d="M12.25 61.21C12.09 61.45 11.98 61.71 11.94 61.98L11.97 61.95C11.9 62.3 11.93 62.68 12.35 62.77 12.48 62.79 12.6 62.8 12.74 62.84 13.62 62.95 14.55 61.74 14.42 60.92 14.25 59.62 12.6 60.56 12.25 61.21Z" fill="#73AA15"/><path d="M36.7 21.36C35.03 19.49 32.27 21.21 30.85 22.64 30.27 23.16 29.82 23.76 29.47 24.46 28.63 25.9 28.14 27.63 28.94 29.04 28.99 29.19 29.11 29.28 29.19 29.4 29.4 29.84 29.71 30.25 30.1 30.55 32.24 32.16 35.17 29.86 36.32 28.1 37.54 26.21 38.36 23.22 36.7 21.36Z" fill="#C9CD0D"/><path d="M43.13 23.79C43.03 23.68 42.96 23.53 42.83 23.45 42.82 23.45 42.81 23.47 42.81 23.47 42.44 23.16 41.89 23.15 41.38 23.42 40.86 23.68 40.49 24.07 40.22 24.57 39.66 25.55 39.83 27.13 41.33 26.73 41.98 26.57 42.53 26.06 42.88 25.49 43.14 25.09 43.45 24.27 43.13 23.79Z" fill="#73AA15"/><path d="M54.79 39.28C54.03 37.79 52.51 38.03 51.29 38.83 50.39 39.43 49.75 40.6 49.41 41.63 48.84 43.44 48.78 46.47 51.4 46.11 51.48 46.1 51.59 46.12 51.68 46.1 53.18 45.91 54.52 44.61 55.08 43.25 55.58 41.99 55.41 40.48 54.79 39.28Z" fill="#73AA15"/></g><path d="M98.57 84.1C98.13 82.86 96.84 82.5 95.68 82.72 94.14 83.01 93.06 84.49 92.44 85.81 92.1 86.6 91.93 87.92 92.46 88.68 92.52 88.77 92.58 88.85 92.66 88.93 92.79 89.46 93.21 89.73 93.73 89.86 95.09 90.22 96.36 89.23 97.24 88.34 98.33 87.29 99.13 85.59 98.57 84.1Z" fill="#8EB60F" opacity="0.4"/><path d="M91.76 93.34C90.79 93.4 89.94 94.14 89.63 95.03 89.36 95.71 89.55 96.83 90.52 96.77 91.47 96.71 92.3 95.98 92.64 95.07 92.89 94.38 92.71 93.28 91.76 93.34Z" fill="#8EB60F" opacity="0.4"/><path d="M109.87 88.99C107.72 89.43 105.97 91.61 105.35 93.58 105.02 94.59 104.95 95.58 105.35 96.59 105.78 97.75 107.27 98.24 108.38 97.91 109.33 97.64 110.06 97.11 110.72 96.47 111.94 95.47 112.87 93.96 113.24 92.46 113.72 90.35 112 88.58 109.87 88.99Z" fill="#8EB60F" opacity="0.4"/><path d="M65.08 74.08C64.53 74.35 63.83 75.08 63.53 75.81 63.46 75.87 63.41 75.9 63.39 75.94 62.97 76.53 63.06 77.19 63.48 77.71 64.02 78.36 65.04 77.94 65.58 77.58 66.53 76.96 66.85 75.79 66.8 74.71 66.79 73.8 65.71 73.77 65.08 74.08Z" fill="#8EB60F"/><path d="M67.01 0.4C65.83-0.5 64.29 0.25 63.41 1.28 62.67 2.17 62.29 3.23 62.11 4.39 61.85 6.24 62.18 8.91 64.63 8.48 65.69 8.29 66.71 7.43 67.25 6.4 68.53 4.61 68.78 1.74 67.01 0.4Z" fill="#38711D"/><path d="M76.66 2.02C75.57 2.31 74.03 4.32 75.45 5.11L75.45 5.11C75.48 5.12 75.48 5.13 75.5 5.15 75.57 5.18 75.59 5.18 75.57 5.17 75.59 5.18 75.62 5.18 75.65 5.18 76.29 5.42 76.99 4.89 77.36 4.41 77.75 3.96 78.05 3.41 77.98 2.81 77.89 2.16 77.27 1.87 76.66 2.02Z" fill="#38711D"/><path d="M143.02 1.09C142.73 1.97 142.72 2.94 143.18 3.67L143.02 1.09Z" fill="#60A218" opacity="0.5"/><path d="M141.95 8.7C142 7.24 141.2 5.7 139.45 6.25 138.29 6.62 137.03 7.75 136.58 9.03L141.95 8.7Z" fill="#38711D"/><path d="M136.57 9.07C136.45 9.43 136.39 9.8 136.42 10.17 136.33 10.44 136.31 10.69 136.32 10.96 136.32 12.06 137.31 12.71 138.28 12.84 139.22 12.95 140.07 12.27 140.7 11.68 141.38 11.05 141.76 10.07 141.91 9.16 141.93 9.02 141.94 8.88 141.95 8.74L136.57 9.07Z" fill="#38711D"/><g opacity="0.3"><path d="M136.71 101.46C127.57 94.33 118.22 87.47 108.95 80.49 104.48 77.11 99.21 75.64 94.04 73.64 87.06 70.92 80.82 66.65 75.09 61.85 74.93 61.72 74.62 62.06 74.8 62.19 78.63 65.66 82.66 68.89 87.16 71.46 93.21 74.96 100.19 76.46 106 80.33 116.33 87.25 125.84 95.18 136.32 101.9 136.53 102.06 136.92 101.62 136.71 101.46Z" fill="#5C3611"/><path d="M120.12 85.65C112.33 78.56 109.97 68.86 103.95 60.57 103.78 60.34 103.35 60.71 103.49 60.94 108 69.35 110.9 81.09 119.5 86.37 119.85 86.59 120.46 85.96 120.12 85.65Z" fill="#5C3611"/><path d="M149.73 111.02C148.1 109.42 146.39 107.92 144.86 106.49 144.67 106.32 144.36 106.68 144.51 106.86 146.37 108.9 148.2 110.94 149.86 113.09L149.73 111.02Z" fill="#5C3611"/><path d="M151.18 157.02C147.94 152.91 142.83 150.66 137.92 149.25 137.66 149.15 137.24 149.73 137.59 149.83 142.75 151.44 146.71 153.98 150.67 157.6 150.92 157.87 151.41 157.31 151.18 157.02Z" fill="#5C3611"/></g><path d="M127.78 19.15C128.24 16.83 127.65 14.8 124.5 14.39 123.02 14.19 121.56 14.88 120.33 15.95 119.98 14.33 118.92 13.13 116.79 13.58 115.94 13.74 115.19 14.23 114.54 14.88 114.16 13.85 113.35 13.12 111.95 13.48 110.15 13.97 109.24 15 108.86 16.29 106.8 15.5 104.31 15.81 102.73 17.59 102.34 18.03 102.12 18.63 102.01 19.19 100.11 19.6 98.36 20.85 97.92 22.85 97.2 26.25 101.43 26.42 104.95 25.86 103.59 27.31 102.76 28.93 104.12 30.03 106.81 32.21 110.34 30.81 113.06 28.69 113.21 29.47 113.69 30.19 114.58 30.74 115.16 31.12 115.82 31.24 116.45 31.18 116.06 32.17 115.78 33.18 115.55 34.2 115.14 36.41 117.11 38.66 119.35 37.74 123.17 36.17 124.85 32.4 125.84 28.59 125.9 28.37 125.95 28.12 126.03 27.86 129.19 27.54 133.51 25.74 133.75 22.64 134.11 18.57 130.74 18.28 127.78 19.15Z" fill="#176020" opacity="0.3"/></g></svg>