<svg width="22.44" height="28.47" viewBox="0 0 22.44 28.47" xmlns="http://www.w3.org/2000/svg" xmlns:xlink="http://www.w3.org/1999/xlink" xml:space="preserve" overflow="hidden"><defs></defs><g><path d="M12.77 1.37C10.91 2.03 8.17 4.61 7.43 6.37 7.01 7.37 6.7 8.42 6.44 9.48 6.38 9.74 6.33 10.65 6.15 10.81 6.16 10.77 5.43 10.88 5.35 10.92 3.85 11.5 1.76 12.76 1.34 14.11 0.43 17-0.05 18.8 0.17 20.05 1.02 25.01 5.37 24.97 7.66 26.06 9.18 26.79 10.74 27.5 12.35 28 13.3 28.3 14.27 28.69 15.26 28.31 16.11 27.98 16.71 27.26 17.23 26.55 18.22 25.19 18.89 23.65 19.7 22.19 20.37 20.99 21.51 19.43 21.4 17.99 21.37 17.54 20.79 16.33 20.29 15.47 20.51 15.09 20.94 14.19 21.15 13.8 22.65 10.97 22.96 8.93 21.47 5.83 19.57 1.91 16.5 0.05 12.77 1.37ZM10.43 7.48C11.69 5.62 14.14 4.9 16.21 5.8 18.46 6.78 19.39 9.21 18.64 11.49 18.44 12.08 18.19 12.65 17.93 13.22 17.78 13.54 17.62 13.86 17.45 14.18 17.24 14.58 16.95 14.24 16.6 14.08 15.34 13.52 14.04 13.07 12.72 12.66 12.07 12.45 11.41 12.25 10.77 12.04 10.41 11.92 10.06 11.8 9.7 11.67 9.36 11.55 8.93 11.58 9.03 11.18 9.33 9.9 9.68 8.57 10.43 7.48 11.54 5.83 9.7 8.55 10.43 7.48Z" fill="#897D63" opacity="0.6"/><g><radialGradient cx="8.9459" cy="9.296" r="16.6284" fx="10.2705" fy="13.2792" gradientUnits="userSpaceOnUse" id="SVGID_1_"><stop offset="0" stop-color="#EFEDE7"/><stop offset="0.3984" stop-color="#B6A791"/><stop offset="1" stop-color="#6C6150"/></radialGradient><radialGradient cx="11.737" cy="1.8876" r="13.5336" gradientUnits="userSpaceOnUse" id="SVGID_2_"><stop offset="0" stop-color="#EFEDE7"/><stop offset="0.3984" stop-color="#B6A791"/><stop offset="1" stop-color="#6C6150"/></radialGradient><radialGradient cx="15.2036" cy="20.4417" r="9.3105" gradientUnits="userSpaceOnUse" id="SVGID_3_"><stop offset="0" stop-color="#FFFFFF"/><stop offset="0.3166" stop-color="#B2B2B2"/><stop offset="1"/></radialGradient><radialGradient cx="12.4802" cy="0.9424" r="10.7873" gradientUnits="userSpaceOnUse" id="SVGID_4_"><stop offset="0" stop-color="#EFEDE7"/><stop offset="0.3984" stop-color="#B6A791"/><stop offset="0.9989"/></radialGradient><radialGradient cx="15.6553" cy="26.0035" r="9.7986" gradientUnits="userSpaceOnUse" id="SVGID_5_"><stop offset="0" stop-color="#EFEDE7"/><stop offset="0.3984" stop-color="#B6A791"/><stop offset="0.9989"/></radialGradient><path d="M20.11 3.94C19.46 2.83 18.38 1.81 17.28 1.17 16.58 0.75 15.74 0.39 14.94 0.21 13.14-0.2 11.03 0.02 9.33 0.73 7.7 1.41 6.74 2.89 6.07 4.48 5.48 5.89 5.09 7.42 4.8 8.95 2.8 8.61 1.94 12.13 1.49 13.49 0.93 15.19 0.1 16.82 0.01 18.64-0.07 20.1 0.63 21.13 1.71 21.89 3.04 22.93 4.86 23.49 6.31 24.18 7.6 24.8 8.91 25.37 10.25 25.86 10.91 26.1 11.59 26.29 12.27 26.49 13.54 26.86 14.59 26.25 15.4 25.28 16.42 24.07 17.15 22.64 17.86 21.23 18.55 19.85 19.47 18.51 19.94 17.03 20.21 16.18 20.06 15.44 19.53 14.87 19.52 14.86 19.52 14.85 19.51 14.83 19.28 14.58 19.02 14.36 18.76 14.15 19.6 12.7 20.36 11.21 20.81 9.59 21.32 7.68 21.12 5.65 20.11 3.94ZM16.69 11.08C16.47 11.57 16.23 12.05 15.98 12.52 14.94 12.01 13.87 11.59 12.77 11.21 11.38 10.73 9.97 10.34 8.59 9.85 8.28 9.74 7.95 9.63 7.62 9.52 7.94 8.14 8.35 6.65 9.07 5.58 10.19 3.94 12.11 3.19 14.05 3.63 16 4.08 17.48 5.76 17.58 7.76 17.64 8.9 17.14 10.07 16.69 11.08Z" fill="url(#SVGID_1_)"/><path d="M20.35 9.88C19.9 11.31 19.2 12.64 18.44 13.93 17.86 13.52 17.22 13.17 16.59 12.83 16.49 12.78 16.39 12.73 16.3 12.68 16.56 12.11 16.82 11.54 17.05 10.97 17.51 9.84 17.92 8.64 17.8 7.41 17.63 5.5 16.07 3.95 14.29 3.41 12.37 2.83 10.44 3.56 9.19 5.06 8.25 6.2 7.54 7.87 7.23 9.4 6.53 9.2 5.8 9.05 5.1 9.03 5.07 9.01 5.04 9.01 5.01 9 5.26 8.02 5.48 7.03 5.79 6.07 6.21 4.79 6.75 3.27 7.72 2.29 8.53 1.47 9.64 0.96 10.72 0.67 11.99 0.34 13.32 0.32 14.62 0.53 16.79 0.88 18.61 2.37 19.7 4.23 20.71 5.94 20.95 8 20.35 9.88Z" fill="url(#SVGID_2_)"/><path d="M20.11 3.94C19.46 2.83 18.38 1.81 17.28 1.17 16.74 0.85 16.11 0.56 15.49 0.36 16.43 0.76 17.28 1.3 17.94 1.94 19.3 3.27 20.28 4.94 20.18 6.89 20.12 7.98 19.94 9.09 19.48 10.09 19.26 10.56 18.94 11.11 18.56 11.48 18.32 11.71 17.61 11.97 17.72 11.31 17.94 9.99 18.7 8.92 18.58 7.52 18.49 6.49 18.3 5.33 17.68 4.47 16.52 2.86 14.22 2.18 12.3 2.28 10 2.41 8.12 4.18 7.41 6.3 7.27 6.72 6.71 8.11 6.17 8.04 5.07 7.9 5.92 4.85 6.15 4.32 6.12 4.37 6.1 4.42 6.07 4.48 5.48 5.89 5.09 7.42 4.8 8.95 2.8 8.61 1.94 12.13 1.49 13.49 0.93 15.19 0.1 16.82 0.01 18.64-0.07 20.1 0.63 21.13 1.71 21.89 3.04 22.93 4.86 23.49 6.31 24.18 7.6 24.8 8.91 25.37 10.25 25.86 10.91 26.1 11.59 26.29 12.27 26.49 13.54 26.86 14.59 26.25 15.4 25.28 16.42 24.07 17.15 22.64 17.86 21.23 18.55 19.85 19.47 18.51 19.94 17.03 20.21 16.18 20.06 15.44 19.53 14.87 19.52 14.86 19.52 14.85 19.51 14.83 19.28 14.58 19.02 14.36 18.76 14.15 19.6 12.7 20.36 11.21 20.81 9.59 21.32 7.68 21.12 5.65 20.11 3.94ZM9.07 5.59C10.19 3.95 12.11 3.2 14.05 3.64 16 4.09 17.48 5.77 17.58 7.77 17.64 8.9 17.13 10.07 16.68 11.08 16.46 11.57 16.22 12.05 15.97 12.52 14.93 12.01 13.86 11.59 12.76 11.21 11.37 10.73 9.96 10.34 8.58 9.85 8.28 9.74 7.95 9.63 7.62 9.52 7.94 8.15 8.35 6.66 9.07 5.59ZM18.09 16.12C18.1 17.61 16.76 19.28 16 20.58 15.37 21.65 14.86 22.87 13.89 23.69 12.08 25.21 9.36 24.2 7.39 23.46 5.99 22.94 4.61 22.34 3.32 21.59 2.53 21.13 1.62 20.64 1.28 19.73 0.48 17.55 2.1 15.09 2.85 13.1 3.23 12.09 3.68 10.81 4.78 10.4 6.27 9.83 8.17 10.65 9.62 10.98 11.26 11.36 12.88 11.85 14.41 12.58 15.33 13.02 16.19 13.61 17.01 14.2 17.79 14.77 18.09 15.42 18.09 16.12Z" fill="#C1BBB2" opacity="0.7"/><path d="M18.09 16.12C18.09 16.31 18.07 16.51 18.03 16.7 18.5 16.78 18.95 16.96 19.44 17.08 19.58 17.12 19.72 17.15 19.86 17.19 19.88 17.14 19.9 17.08 19.92 17.02 20.19 16.17 20.04 15.43 19.51 14.86 19.5 14.85 19.5 14.84 19.49 14.82 19.38 14.7 19.26 14.59 19.15 14.49 19.02 14.4 18.9 14.31 18.77 14.23 18.32 14.33 17.87 14.44 17.42 14.55 17.89 15.03 18.09 15.56 18.09 16.12Z" fill="#C1BBB2" opacity="0.4"/><path d="M19.67 15.48C19.75 15.47 19.82 15.47 19.9 15.46 19.81 15.25 19.69 15.04 19.52 14.86 19.51 14.85 19.51 14.84 19.5 14.82 19.46 14.78 19.41 14.73 19.36 14.69 19.09 14.73 18.82 14.78 18.55 14.83 18.29 14.88 18.03 14.94 17.77 14.99 17.87 15.15 17.94 15.31 17.99 15.48 18.55 15.47 19.1 15.51 19.67 15.48Z" fill="#C1BBB2" opacity="0.4"/><path d="M19.04 16.51C19.36 16.58 19.68 16.64 20.01 16.68 20.04 16.52 20.05 16.35 20.05 16.2 20.04 16.2 20.03 16.2 20.01 16.2 19.37 16.23 18.73 16.18 18.09 16.2 18.09 16.24 18.09 16.29 18.08 16.33 18.4 16.36 18.71 16.44 19.04 16.51Z" fill="#C1BBB2" opacity="0.4"/><path d="M13.35 24.05C12.95 24.27 12.52 24.38 12.07 24.44 12.32 25.1 12.39 25.81 12.42 26.53 13.56 26.79 14.51 26.26 15.26 25.42 14.92 25.21 14.59 25.03 14.43 24.92 14.09 24.66 13.67 24.39 13.35 24.05Z" fill="#C1BBB2" opacity="0.7"/><path d="M1.29 19.73C1.14 19.32 1.08 18.91 1.08 18.49 0.73 18.54 0.38 18.57 0.02 18.58 0.02 18.6 0.02 18.62 0.02 18.63-0.05 20.02 0.57 21.02 1.56 21.76 1.68 21.39 1.81 21.02 1.97 20.68 1.67 20.42 1.42 20.12 1.29 19.73Z" fill="#C1BBB2" opacity="0.7"/><path d="M5.96 9.22C5.57 9.11 5.18 8.97 4.8 8.92 4.8 8.93 4.8 8.94 4.79 8.95 4.04 8.82 3.46 9.24 2.99 9.87 3.36 10.2 3.72 10.53 4.07 10.86 4.27 10.66 4.51 10.5 4.79 10.4 5.2 10.24 5.64 10.19 6.09 10.21 6.04 9.88 5.99 9.55 5.96 9.22Z" fill="#C1BBB2" opacity="0.4"/><path d="M4.64 10.46C4.69 10.44 4.74 10.42 4.79 10.4 4.9 10.35 5.02 10.32 5.14 10.29 4.94 9.85 4.76 9.4 4.64 8.93 4.24 8.9 3.89 9.03 3.58 9.26 3.83 9.69 4.32 10.06 4.64 10.46Z" fill="#C1BBB2" opacity="0.6"/><path d="M3.07 9.78C3.04 9.81 3.02 9.84 2.99 9.87 3.31 10.15 3.61 10.43 3.92 10.72 3.65 10.39 3.32 10.11 3.07 9.78Z" fill="#C1BBB2" opacity="0.6"/><path d="M20.11 3.94C19.46 2.83 18.38 1.81 17.28 1.17 16.58 0.75 15.74 0.39 14.94 0.21 13.14-0.2 11.03 0.02 9.33 0.73 7.7 1.41 6.74 2.89 6.07 4.48 5.48 5.89 5.09 7.42 4.8 8.95 2.8 8.61 1.94 12.13 1.49 13.49 0.93 15.19 0.1 16.82 0.01 18.64-0.07 20.1 0.63 21.13 1.71 21.89 3.04 22.93 4.86 23.49 6.31 24.18 7.6 24.8 8.91 25.37 10.25 25.86 10.91 26.1 11.59 26.29 12.27 26.49 13.54 26.86 14.59 26.25 15.4 25.28 16.42 24.07 17.15 22.64 17.86 21.23 18.55 19.85 19.47 18.51 19.94 17.03 20.21 16.18 20.06 15.44 19.53 14.87 19.52 14.86 19.52 14.85 19.51 14.83 19.28 14.58 19.02 14.36 18.76 14.15 19.6 12.7 20.36 11.21 20.81 9.59 21.32 7.68 21.12 5.65 20.11 3.94ZM19.45 15.47C19.83 16.17 19.46 17.03 19.16 17.68 18.62 18.88 17.94 20.03 17.35 21.21 16.75 22.41 16.12 23.59 15.33 24.67 15.02 25.1 14.64 25.55 14.22 25.88 13.1 26.73 11.26 25.78 10.12 25.38 8.8 24.92 7.52 24.37 6.24 23.79 4.91 23.19 3.48 22.7 2.23 21.94 2.13 21.89 2.03 21.83 1.94 21.78 1.53 21.46 1.15 21.1 0.86 20.66 0.38 19.95 0.33 19.04 0.4 18.22 0.54 16.67 1.25 15.21 1.76 13.76 2.31 12.17 2.85 9.56 4.74 9.24 5.92 9.5 7.1 9.65 8.28 10.03 9.6 10.46 10.91 10.92 12.22 11.38 13.52 11.84 14.79 12.32 16.01 12.95 16.4 13.15 16.78 13.35 17.16 13.58 17.42 13.73 17.71 13.83 17.95 14.01 18.48 14.41 19.12 14.86 19.45 15.47ZM7.62 9.52C7.94 8.14 8.35 6.65 9.07 5.58 10.19 3.94 12.11 3.19 14.05 3.63 16 4.08 17.48 5.76 17.58 7.76 17.64 8.89 17.13 10.06 16.68 11.07 16.46 11.56 16.22 12.04 15.97 12.51 14.93 12 13.86 11.58 12.76 11.2 11.37 10.72 9.96 10.33 8.58 9.84 8.28 9.74 7.95 9.63 7.62 9.52ZM20.35 9.88C19.9 11.31 19.2 12.64 18.44 13.93 17.86 13.52 17.22 13.17 16.59 12.83 16.49 12.78 16.39 12.73 16.3 12.68 16.56 12.11 16.82 11.54 17.05 10.97 17.51 9.84 17.92 8.64 17.8 7.41 17.63 5.5 16.07 3.95 14.29 3.41 12.37 2.83 10.44 3.56 9.19 5.06 8.25 6.2 7.54 7.87 7.23 9.4 6.53 9.2 5.8 9.05 5.1 9.03 5.07 9.01 5.04 9.01 5.01 9 5.26 8.02 5.48 7.03 5.79 6.07 6.21 4.79 6.75 3.27 7.72 2.29 8.53 1.47 9.64 0.96 10.72 0.67 11.99 0.34 13.32 0.32 14.62 0.53 16.79 0.88 18.61 2.37 19.7 4.23 20.71 5.94 20.95 8 20.35 9.88Z" fill="#675D4B" opacity="0.8"/><path d="M11.26 13.61C10.19 13.18 8.75 13.44 8.11 14.46 7.58 15.31 7.65 16.32 8.5 17.22 7.69 18.01 6.99 18.89 6.18 19.68 6.08 19.78 6 19.89 6.26 19.99 7.46 20.45 8.34 20.87 9.59 21.34 9.71 21.38 9.85 21.36 9.87 21.24 10 20.19 10.17 19.03 10.29 17.98 12.83 18.27 13.57 14.53 11.26 13.61Z" fill="url(#SVGID_3_)" opacity="0.8"/><path d="M11.26 13.61C10.19 13.18 8.75 13.44 8.11 14.46 7.58 15.31 7.65 16.32 8.5 17.22 7.69 18.01 6.99 18.89 6.18 19.68 6.08 19.78 6 19.89 6.26 19.99 7.46 20.45 8.34 20.87 9.59 21.34 9.71 21.38 9.85 21.36 9.87 21.24 10 20.19 10.17 19.03 10.29 17.98 12.83 18.27 13.57 14.53 11.26 13.61ZM10.31 17.73C10.31 17.73 10.13 17.66 10.05 17.71 9.97 18.28 9.69 20.16 9.56 20.85 8.65 20.56 7.55 20.09 6.68 19.71 7.41 18.98 7.79 18.47 8.48 17.71 8.78 17.33 8.99 17.21 8.92 17.16 8.25 16.64 8 16.02 8.19 15.18 8.44 14.14 9.79 13.67 10.69 13.83 11.62 14 12.24 14.81 12.28 15.73 12.32 16.79 11.37 17.85 10.31 17.73Z" fill="#675D4B" opacity="0.7"/><path d="M6.13 7.16C6.13 7.16 6.57 3.95 7.99 2.7 9.41 1.45 11.33 0.2 15.19 1.15 19.05 2.1 19.72 5.61 19.85 6.82 19.98 8.04 19.51 9.9 19.01 10.54 19.01 10.54 19.75 8.85 19.55 6.89 19.35 4.93 18.34 2.39 14.75 1.69 10.42 0.84 7.41 1.85 6.13 7.16Z" fill="url(#SVGID_4_)"/><path d="M3.77 21.95C3.77 21.95 9.17 24.45 10.86 24.65 12.55 24.85 13.63 24.99 15.12 22.55 16.61 20.12 17.55 18.09 17.96 17.42 18.37 16.75 18.92 15.5 17.02 14.2 17.02 14.2 18.1 15.4 17.89 16.07 17.69 16.75 16.54 19.25 15.32 21.2 14.1 23.16 13.38 24.32 11.94 24.44 10.32 24.58 3.77 21.95 3.77 21.95Z" fill="url(#SVGID_5_)"/><path d="M1.07 18.49C1.07 18.49 0.93 17.27 2.37 14.16 3.81 11.05 3.95 10.33 5.7 10.15 7.46 9.97 12.28 11.59 14.57 12.63 14.57 12.63 8.99 10.96 7.73 10.74 6.47 10.52 5.25 10.43 4.31 11.46 3.36 12.49 1.12 16.74 1.07 18.49Z" fill="#FFFFFF"/><g><path d="M11.04 13.28C10.32 13.08 9.02 13.02 8.09 14.25 7.67 14.81 7.68 15.45 7.78 15.92 7.78 15.75 7.8 15.55 7.84 15.28 8.09 13.77 10.36 12.94 11.69 14 13.02 15.06 12.41 16.77 12.41 16.77 13.43 14.95 11.76 13.48 11.04 13.28Z" fill="#FFFFFF"/></g><path d="M9.86 21.24 10.28 17.98C10.28 17.98 11.21 18.19 12.14 17.24 12.14 17.24 11.58 18.23 10.5 18.14L9.86 21.24Z" fill="#FFFFFF"/></g></g></svg>