<svg width="133.56" height="36" viewBox="0 0 133.56 36" xmlns="http://www.w3.org/2000/svg" xmlns:xlink="http://www.w3.org/1999/xlink" xml:space="preserve" overflow="hidden"><defs></defs><g><g><g><path d="M132.7 22.93C132.69 21.73 132.7 20.53 132.68 19.33 132.65 18.08 132.56 16.85 132.38 15.62 132.23 14.62 132.12 13.6 132.12 12.58 132.12 11.58 132.24 10.59 132.41 9.6 132.5 9.04 132.59 8.5 132.57 7.93 132.55 7.41 132.48 6.9 132.37 6.4 132.11 5.23 131.68 4.09 131.41 2.92 130.65 2.07 129.71 1.4 128.66 0.94 127.45 1.12 126.23 1.25 125 1.15 123.66 1.05 122.36 0.71 121.02 0.54 119.63 0.37 118.22 0.46 116.83 0.53 115.41 0.6 113.99 0.7 112.57 0.79 111.2 0.88 109.82 0.89 108.45 1.06 107.09 1.23 105.74 1.51 104.37 1.67 103.07 1.82 101.82 1.75 100.53 1.56 99.2 1.36 97.87 1.1 96.53 0.98 95.19 0.86 81.66 0.96 80.33 1.12 77.72 1.45 75.05 2.19 72.4 1.83 71.14 1.66 69.92 1.33 68.66 1.14 67.26 0.92 65.92 1.04 64.52 1.15 63.13 1.26 61.73 1.09 60.33 1.11 58.92 1.13 46.91 1.23 45.51 1.24 44.24 1.25 42.97 1.13 41.7 1.11 40.54 1.09 39.39 1.11 38.23 1.09 36.76 1.08 35.24 1 33.8 0.67 32.63 0.82 31.45 0.96 30.28 1.08 29.48 1.16 28.69 1.23 27.89 1.3 27.1 1.36 19.18 1.44 18.39 1.44 16.82 1.45 15.33 1 13.8 0.82 13.42 0.78 13.03 0.75 12.64 0.75 12.26 0.75 11.89 0.81 11.51 0.83 10.76 0.86 10.06 1.16 9.31 1.19 8.29 1.23 7.37 0.7 6.4 0.46 4.71 0.79 3.21 1.67 2.09 2.9 1.89 3.26 1.69 3.63 1.5 4.01 1.53 4.76 1.57 5.52 1.58 6.27 1.59 6.89 1.59 7.5 1.55 8.12 1.52 8.76 1.43 9.39 1.36 10.02 1.06 12.51 1.38 15.01 1.6 17.5 1.71 18.74 1.81 19.98 1.79 21.23 1.78 21.78 1.76 22.32 1.64 22.87 1.53 23.4 1.35 23.91 1.17 24.41 1 24.89 0.81 25.38 0.67 25.87 0.54 26.32 0.42 26.81 0.45 27.29 0.48 27.81 0.74 28.31 0.94 28.79 1.15 29.31 1.29 29.8 1.32 30.36 1.34 30.67 1.34 30.98 1.33 31.28 1.9 31.76 2.43 32.27 2.94 32.81 3.19 33.07 3.43 33.34 3.66 33.63 3.83 33.84 4 34.06 4.13 34.3 4.19 34.41 4.23 34.52 4.28 34.64 5.08 34.92 5.88 35.19 6.71 35.38 7.12 35.47 7.55 35.55 7.97 35.56 8.37 35.57 8.78 35.44 9.15 35.3 9.94 35 10.67 34.58 11.47 34.33 12.36 34.05 13.3 34.08 14.22 34.11 16.27 34.17 18.31 34.44 20.35 34.57 20.84 34.6 28.45 34.6 28.93 34.67 29.41 34.74 29.89 34.87 30.36 34.99 30.86 35.12 31.36 35.25 31.87 35.3 32.38 35.35 32.87 35.28 33.36 35.18 34.26 35.01 35.16 34.77 36.08 34.71 37.11 34.65 38.16 34.83 39.19 34.91 41.35 35.07 43.55 35.25 45.72 35.21 47.9 35.18 60.67 34.92 62.84 34.79 63.92 34.73 65.01 34.75 66.09 34.68 67.15 34.61 68.21 34.47 69.27 34.39 71.12 34.26 72.98 34.59 74.78 34.99 74.85 35.01 74.92 35.02 74.99 35.04 75.05 35.03 75.11 35.01 75.18 35 76.94 34.7 90.93 34.89 92.69 35.02 93.58 35.09 94.46 35.15 95.35 35.13 96.24 35.11 97.12 35 98.01 34.96 101.85 34.78 105.7 35.06 109.54 35.17 110.5 35.2 111.42 35.19 112.37 35.05 113.26 34.91 114.15 34.68 115.05 34.67 116.03 34.66 117 34.79 117.97 34.82 118.93 34.85 119.88 34.86 120.84 34.89 121.79 34.92 122.75 34.95 123.7 34.92 124.58 34.89 125.47 34.83 126.3 34.51 127.06 34.22 127.78 33.81 128.54 33.51 129.14 33.27 129.75 33.14 130.38 32.97 130.96 32.82 131.43 32.53 131.79 32.04 132.03 31.71 132.2 31.38 132.3 30.98 132.4 30.6 132.46 30.21 132.58 29.84 132.69 29.49 132.86 29.18 133.07 28.9 133.01 28.12 132.94 27.35 132.88 26.57 132.81 25.35 132.72 24.15 132.7 22.93Z" fill="#807E77"/><path d="M8.01 36C8 36 7.99 36 7.98 36 7.5 35.99 7.03 35.9 6.63 35.81 5.76 35.62 4.92 35.33 4.14 35.06 4.01 35.02 3.91 34.92 3.87 34.79 3.83 34.67 3.79 34.58 3.75 34.5 3.64 34.29 3.48 34.09 3.33 33.9 3.14 33.66 2.91 33.41 2.64 33.11 2.12 32.56 1.59 32.06 1.06 31.62 0.96 31.53 0.9 31.4 0.9 31.27 0.9 30.93 0.9 30.64 0.89 30.38 0.86 29.92 0.76 29.49 0.54 28.96 0.51 28.88 0.47 28.8 0.43 28.71 0.25 28.3 0.05 27.83 0.02 27.32-0.02 26.76 0.12 26.21 0.25 25.74 0.37 25.33 0.51 24.94 0.65 24.55L0.76 24.25C0.93 23.78 1.1 23.27 1.21 22.77 1.32 22.24 1.35 21.72 1.35 21.22 1.36 19.98 1.27 18.72 1.16 17.54 1.13 17.24 1.1 16.93 1.07 16.63 0.86 14.45 0.65 12.2 0.92 9.97L0.96 9.64C1.01 9.11 1.07 8.61 1.1 8.1 1.13 7.56 1.14 6.96 1.12 6.28 1.11 5.58 1.08 4.87 1.05 4.19L1.04 4.03C1.04 3.95 1.05 3.87 1.09 3.8 1.31 3.38 1.51 3.01 1.7 2.67 1.72 2.64 1.74 2.61 1.76 2.59 2.96 1.26 4.58 0.35 6.32 0 6.38 0 6.45 0 6.51 0.01 6.85 0.1 7.18 0.21 7.5 0.33 8.11 0.55 8.69 0.75 9.29 0.73 9.62 0.72 9.95 0.64 10.3 0.56 10.68 0.47 11.07 0.39 11.49 0.37 11.64 0.36 11.79 0.35 11.95 0.34 12.17 0.32 12.4 0.3 12.63 0.3 12.63 0.3 12.63 0.3 12.63 0.3 13 0.3 13.4 0.33 13.84 0.38 14.42 0.45 15 0.55 15.55 0.65 16.51 0.83 17.42 1 18.36 0.99 19 0.99 19.66 0.93 20.3 0.88L27.83 0.85C28.59 0.79 29.39 0.72 30.21 0.63 31.27 0.52 32.42 0.39 33.72 0.22 33.77 0.21 33.83 0.22 33.88 0.23 35.31 0.56 36.81 0.63 38.22 0.65 38.8 0.66 39.39 0.66 39.96 0.66 40.53 0.66 41.11 0.66 41.69 0.67 42.24 0.68 42.79 0.71 43.32 0.73 44.03 0.77 44.77 0.8 45.49 0.79 46.24 0.78 47 0.75 47.74 0.72 48.38 0.69 59.65 0.67 60.31 0.66 60.9 0.65 61.49 0.67 62.07 0.7 62.86 0.73 63.68 0.76 64.48 0.7L64.64 0.69C66.02 0.59 67.32 0.49 68.72 0.7 69.31 0.79 69.89 0.91 70.46 1.03 71.11 1.17 71.78 1.3 72.45 1.39 74.32 1.64 76.25 1.32 78.12 1 78.82 0.88 79.55 0.76 80.26 0.67 81.89 0.47 95.35 0.42 96.56 0.52 97.49 0.6 98.42 0.75 99.32 0.9 99.74 0.97 100.16 1.04 100.59 1.1 101.98 1.3 103.16 1.34 104.32 1.21 105.05 1.13 105.8 1.01 106.52 0.89 107.13 0.79 107.76 0.69 108.39 0.61 109.34 0.49 110.3 0.44 111.24 0.4 111.67 0.38 112.11 0.36 112.54 0.33 112.95 0.3 113.36 0.28 113.77 0.25 114.76 0.18 115.79 0.12 116.8 0.07L117.07 0.06C118.38 -1.04083e-16 119.73-0.07 121.06 0.09 121.65 0.16 122.24 0.27 122.8 0.37 123.53 0.5 124.28 0.64 125.01 0.69 126.21 0.78 127.43 0.64 128.57 0.48 128.65 0.47 128.74 0.48 128.82 0.51 129.92 0.99 130.93 1.71 131.73 2.6 131.78 2.66 131.82 2.73 131.83 2.8 131.96 3.34 132.12 3.9 132.29 4.44 132.47 5.04 132.66 5.66 132.79 6.28 132.92 6.86 132.99 7.39 133.01 7.89 133.03 8.51 132.93 9.12 132.84 9.65 132.65 10.79 132.56 11.71 132.56 12.55 132.56 13.42 132.64 14.36 132.82 15.52 133 16.7 133.1 17.93 133.13 19.29 133.14 19.99 133.15 20.7 133.15 21.38 133.15 21.88 133.15 22.39 133.16 22.89L133.16 22.89C133.17 24.05 133.26 25.21 133.37 26.49L133.38 26.65C133.44 27.37 133.5 28.1 133.56 28.82 133.57 28.93 133.54 29.03 133.48 29.12 133.28 29.4 133.14 29.66 133.05 29.94 132.98 30.15 132.93 30.37 132.88 30.6 132.85 30.75 132.81 30.9 132.77 31.06 132.65 31.5 132.46 31.89 132.18 32.27 131.77 32.83 131.23 33.19 130.52 33.37 130.4 33.4 130.29 33.43 130.17 33.46 129.67 33.59 129.2 33.71 128.74 33.89 128.38 34.03 128.04 34.2 127.67 34.37 127.29 34.55 126.9 34.74 126.49 34.89 125.58 35.24 124.64 35.3 123.74 35.33 122.79 35.36 121.87 35.34 120.85 35.3 120.28 35.28 119.7 35.27 119.14 35.26 118.75 35.25 118.37 35.24 117.98 35.23 117.56 35.22 117.13 35.19 116.72 35.16 116.15 35.12 115.62 35.08 115.08 35.08 114.49 35.09 113.9 35.2 113.29 35.31 113.02 35.36 112.75 35.41 112.47 35.45 111.43 35.61 110.45 35.61 109.55 35.58 108.55 35.55 107.53 35.51 106.55 35.47 103.76 35.36 100.88 35.24 98.06 35.37 97.69 35.39 97.31 35.42 96.94 35.45 96.43 35.49 95.91 35.53 95.39 35.54 94.48 35.56 81.39 35.5 80.49 35.43L79.98 35.39C78.43 35.27 76.82 35.14 75.29 35.4 75.25 35.41 75.2 35.42 75.16 35.42L75.11 35.43C75.05 35.44 74.98 35.44 74.92 35.43L74.82 35.4C74.78 35.39 74.75 35.38 74.71 35.37 72.99 34.99 71.15 34.65 69.33 34.78 68.83 34.81 68.33 34.87 67.84 34.92 67.29 34.98 66.72 35.03 66.15 35.07 65.59 35.1 65.02 35.12 64.48 35.13 63.96 35.14 63.42 35.15 62.9 35.18 62.11 35.23 61.3 35.29 60.52 35.36 59.16 35.47 47.15 35.59 45.76 35.61 43.77 35.64 41.74 35.49 39.79 35.35L39.2 35.31C38.88 35.29 38.55 35.25 38.24 35.22 37.55 35.15 36.83 35.07 36.15 35.11 35.52 35.15 34.92 35.28 34.27 35.41 34.01 35.46 33.75 35.52 33.49 35.57 32.99 35.66 32.45 35.75 31.87 35.69 31.34 35.64 30.84 35.51 30.29 35.37L30.18 35.34C29.74 35.23 29.33 35.12 28.91 35.05 28.59 35 28.27 34.99 27.93 34.97 27.78 34.96 20.51 34.96 20.37 34.95 19.52 34.9 18.66 34.82 17.82 34.75 16.65 34.64 15.44 34.54 14.25 34.5L14.22 34.5C13.31 34.47 12.45 34.45 11.64 34.7 11.21 34.84 10.8 35.02 10.36 35.22 10.03 35.37 9.69 35.53 9.34 35.66 8.94 35.85 8.48 36 8.01 36ZM4.64 34.27C5.33 34.51 6.07 34.76 6.83 34.92 7.18 35 7.6 35.08 8 35.09 8.33 35.1 8.68 34.98 9.01 34.86 9.33 34.74 9.64 34.6 9.97 34.45 10.41 34.25 10.87 34.04 11.35 33.89 12.31 33.59 13.28 33.62 14.23 33.65L14.26 33.65C15.48 33.69 16.7 33.8 17.89 33.9 18.72 33.97 19.57 34.05 20.41 34.1 20.55 34.11 27.82 34.11 27.96 34.12 28.31 34.13 28.67 34.15 29.04 34.21 29.51 34.28 29.96 34.4 30.4 34.51L30.51 34.54C31.02 34.67 31.49 34.79 31.96 34.84 32.42 34.89 32.89 34.81 33.32 34.73 33.57 34.68 33.83 34.63 34.08 34.58 34.73 34.44 35.4 34.3 36.09 34.26 36.84 34.21 37.6 34.29 38.33 34.37 38.64 34.4 38.96 34.44 39.26 34.46L39.85 34.5C41.79 34.64 43.79 34.79 45.74 34.76 47.1 34.74 59.09 34.63 60.44 34.52 61.23 34.46 62.04 34.39 62.84 34.34 63.38 34.31 63.93 34.3 64.46 34.29 65 34.28 65.55 34.27 66.09 34.24 66.64 34.21 67.2 34.15 67.75 34.09 68.25 34.04 68.76 33.99 69.27 33.95 71.21 33.81 73.13 34.16 74.91 34.56 74.95 34.57 74.99 34.58 75.03 34.59 75.06 34.58 75.1 34.58 75.13 34.57 76.77 34.29 78.44 34.42 80.05 34.55L92.76 34.59C93.64 34.66 94.51 34.72 95.38 34.7 95.87 34.69 96.38 34.65 96.87 34.61 97.25 34.58 97.64 34.55 98.02 34.53 100.88 34.4 103.78 34.52 106.59 34.63 107.57 34.67 108.59 34.71 109.58 34.74 110.44 34.77 111.37 34.77 112.33 34.62 112.59 34.58 112.86 34.53 113.12 34.48 113.75 34.36 114.4 34.24 115.07 34.23 115.65 34.22 116.23 34.27 116.79 34.31 117.19 34.34 117.6 34.37 118 34.38 118.38 34.39 118.77 34.4 119.15 34.41 119.71 34.42 120.3 34.43 120.87 34.45 121.87 34.48 122.78 34.51 123.7 34.48 124.52 34.45 125.38 34.4 126.15 34.1 126.52 33.96 126.88 33.78 127.26 33.6 127.62 33.43 128 33.25 128.39 33.1 128.91 32.9 129.43 32.76 129.93 32.64 130.04 32.61 130.16 32.58 130.27 32.55 130.77 32.42 131.14 32.18 131.43 31.79 131.64 31.5 131.78 31.22 131.87 30.89 131.91 30.75 131.94 30.61 131.97 30.47 132.02 30.23 132.08 29.98 132.16 29.73 132.26 29.41 132.41 29.11 132.62 28.8 132.57 28.13 132.51 27.46 132.45 26.79L132.44 26.63C132.33 25.33 132.24 24.16 132.22 22.96L132.22 22.96C132.21 22.45 132.21 21.94 132.21 21.43 132.21 20.75 132.21 20.04 132.2 19.35 132.17 18.03 132.07 16.83 131.9 15.7 131.72 14.49 131.63 13.51 131.63 12.59 131.63 11.7 131.72 10.73 131.92 9.54 132.01 9.03 132.09 8.5 132.08 7.96 132.07 7.52 132 7.04 131.89 6.52 131.76 5.93 131.58 5.32 131.4 4.74 131.25 4.23 131.09 3.7 130.96 3.16 130.29 2.43 129.46 1.84 128.56 1.43 127.4 1.59 126.17 1.73 124.93 1.63 124.15 1.57 123.37 1.43 122.63 1.29 122.07 1.19 121.5 1.09 120.94 1.02 119.68 0.87 118.37 0.93 117.1 1L116.83 1.01C115.83 1.06 114.8 1.13 113.81 1.19 113.4 1.22 112.99 1.24 112.57 1.27 112.13 1.3 111.69 1.32 111.26 1.34 110.35 1.38 109.4 1.43 108.49 1.54 107.88 1.62 107.25 1.72 106.65 1.82 105.92 1.94 105.16 2.06 104.41 2.15 103.18 2.29 101.92 2.25 100.45 2.04 100.02 1.98 99.59 1.91 99.17 1.84 98.29 1.7 97.38 1.55 96.48 1.47 95.34 1.37 81.94 1.42 80.37 1.61 79.68 1.7 78.96 1.82 78.27 1.93 76.33 2.25 74.33 2.59 72.33 2.32 71.63 2.23 70.94 2.08 70.28 1.95 69.72 1.83 69.15 1.72 68.59 1.63 67.29 1.43 66.04 1.53 64.71 1.63L64.55 1.64C63.71 1.7 62.86 1.67 62.04 1.64 61.48 1.62 60.9 1.6 60.33 1.6 59.68 1.61 48.42 1.64 47.78 1.66 47.03 1.69 46.26 1.72 45.5 1.73 44.76 1.74 44 1.7 43.28 1.66 42.76 1.63 42.21 1.61 41.68 1.6 41.11 1.59 40.53 1.59 39.97 1.59 39.4 1.59 38.8 1.59 38.22 1.58 36.79 1.55 35.26 1.48 33.77 1.15 32.49 1.31 31.36 1.44 30.31 1.55 29.48 1.63 28.67 1.71 27.91 1.77L20.38 1.8C19.72 1.85 19.05 1.91 18.37 1.91 17.35 1.92 16.36 1.73 15.39 1.56 14.85 1.46 14.28 1.36 13.73 1.29 13.33 1.24 12.96 1.22 12.62 1.22 12.62 1.22 12.62 1.22 12.62 1.22 12.43 1.22 12.23 1.24 12.02 1.26 11.86 1.28 11.69 1.29 11.51 1.3 11.18 1.31 10.84 1.39 10.49 1.47 10.11 1.55 9.73 1.64 9.31 1.66 8.56 1.67 7.87 1.43 7.2 1.19 6.92 1.09 6.66 1 6.39 0.92 4.89 1.24 3.51 2.03 2.47 3.17 2.3 3.45 2.14 3.76 1.96 4.11L1.96 4.15C1.99 4.84 2.02 5.56 2.04 6.27 2.05 6.97 2.05 7.58 2.02 8.15 1.99 8.69 1.93 9.23 1.86 9.75L1.82 10.08C1.57 12.22 1.77 14.42 1.98 16.54 2.01 16.85 2.04 17.15 2.07 17.46 2.18 18.66 2.28 19.96 2.26 21.23 2.25 21.77 2.23 22.35 2.1 22.96 1.98 23.52 1.8 24.06 1.62 24.56L1.51 24.86C1.38 25.23 1.24 25.61 1.13 25.99 1.02 26.38 0.9 26.84 0.93 27.25 0.95 27.6 1.11 27.96 1.27 28.34 1.31 28.43 1.35 28.51 1.38 28.6 1.64 29.23 1.77 29.75 1.8 30.32 1.81 30.55 1.82 30.79 1.82 31.06 2.32 31.49 2.82 31.97 3.31 32.49 3.61 32.8 3.84 33.07 4.05 33.33 4.23 33.55 4.42 33.8 4.56 34.08 4.58 34.14 4.61 34.2 4.64 34.27Z" fill="#636568"/></g><path d="M132.7 22.93C132.69 21.73 132.7 20.53 132.68 19.33 132.65 18.08 132.56 16.85 132.38 15.62 132.23 14.62 132.12 13.6 132.12 12.58 132.12 11.58 132.24 10.59 132.41 9.6 132.5 9.04 132.59 8.5 132.57 7.93 132.55 7.41 132.48 6.9 132.37 6.4 132.11 5.23 131.68 4.09 131.41 2.92 130.88 2.33 130.27 1.83 129.59 1.42 128.92 1.98 128.36 2.61 127.83 3.32 127.41 3.87 126.99 4.42 126.49 4.91 125.87 5.5 125.16 5.96 124.45 6.43 123.9 6.79 123.3 7.21 122.98 7.81 122.77 8.22 122.73 8.68 122.67 9.12 122.48 10.37 122.03 11.61 121.27 12.63 119.72 14.7 117.18 15.83 114.79 16.6 112.01 17.5 109.12 17.97 106.24 18.39 102.72 18.9 99.23 19.56 95.72 20.19 90.98 21.04 74.04 21.85 69.29 22.63 59.82 24.18 39.72 25.61 30.21 26.94 27.9 27.26 18.46 27.63 16.15 27.88 14.06 28.1 11.92 28.2 9.9 28.82 7.29 29.62 5.3 31.4 3.31 33.17 3.44 33.32 3.57 33.47 3.69 33.62 3.86 33.83 4.03 34.05 4.16 34.29 4.22 34.4 4.26 34.51 4.31 34.63 5.11 34.91 5.91 35.18 6.74 35.37 7.15 35.46 7.58 35.54 8 35.55 8.4 35.56 8.81 35.43 9.18 35.29 9.97 34.99 10.7 34.57 11.5 34.32 12.39 34.04 13.33 34.07 14.25 34.1 16.3 34.16 18.34 34.43 20.38 34.56 20.87 34.59 28.48 34.59 28.96 34.66 29.44 34.73 29.92 34.86 30.39 34.98 30.89 35.11 31.39 35.24 31.9 35.29 32.41 35.34 32.9 35.27 33.39 35.17 34.29 35 35.19 34.76 36.11 34.7 37.14 34.64 38.19 34.82 39.22 34.9 41.38 35.06 43.58 35.24 45.75 35.2 47.93 35.17 60.7 34.91 62.87 34.78 63.95 34.72 65.04 34.74 66.12 34.67 67.18 34.6 68.24 34.46 69.3 34.38 71.15 34.25 73.01 34.58 74.81 34.98 74.88 35 74.95 35.01 75.02 35.03 75.08 35.02 75.14 35 75.21 34.99 76.97 34.69 90.96 34.88 92.72 35.01 93.61 35.08 94.49 35.14 95.38 35.12 96.27 35.1 97.15 34.99 98.04 34.95 101.88 34.77 105.73 35.05 109.57 35.16 110.53 35.19 111.45 35.18 112.4 35.04 113.29 34.9 114.18 34.67 115.08 34.66 116.06 34.65 117.03 34.78 118 34.81 118.96 34.84 119.91 34.85 120.87 34.88 121.82 34.91 122.78 34.94 123.73 34.91 124.61 34.88 125.5 34.82 126.33 34.5 127.09 34.21 127.81 33.8 128.57 33.5 129.17 33.26 129.78 33.13 130.41 32.96 130.99 32.81 131.46 32.52 131.82 32.03 132.06 31.7 132.23 31.37 132.33 30.97 132.43 30.59 132.49 30.2 132.61 29.83 132.72 29.48 132.89 29.17 133.1 28.89 133.04 28.11 132.97 27.34 132.91 26.56 132.81 25.35 132.72 24.15 132.7 22.93Z" fill="#6C6C65" opacity="0.52"/><g><path d="M118.8 11.05C118.82 11.05 118.83 11.04 118.85 11.04 120.05 10.69 121.18 10.16 122.29 9.6 123.47 9.01 124.62 8.36 125.78 7.74 126.32 7.45 126.86 7.17 127.41 6.9 128.01 6.61 128.61 6.33 129.21 6.04 130.11 5.6 131 5.15 131.91 4.72 131.73 4.12 131.55 3.52 131.41 2.92 131.11 2.59 130.78 2.28 130.43 2 128.56 3.35 126.68 4.7 124.83 6.09 122.75 7.66 120.72 9.3 118.8 11.05Z" fill="#6C6C65" opacity="0.52"/><path d="M123.6 15.33C124.46 15.48 125.33 15.58 126.19 15.65 127.99 15.79 129.79 15.8 131.6 15.82 131.87 15.82 132.14 15.82 132.41 15.83 132.4 15.76 132.39 15.69 132.38 15.62 132.28 14.96 132.2 14.3 132.16 13.63 130.74 13.85 129.32 14.09 127.9 14.36 126.45 14.63 125.02 14.95 123.6 15.33Z" fill="#6C6C65" opacity="0.52"/><path d="M129.88 28.54C128.84 28.07 127.77 27.65 126.7 27.24 125.64 26.84 124.57 26.44 123.51 26.02 122.62 25.67 121.74 25.29 120.89 24.87 121.51 25.79 122.1 26.72 122.67 27.66 123.78 29.48 124.84 31.33 125.97 33.14 126.22 33.54 126.47 33.93 126.72 34.32 127.34 34.05 127.93 33.73 128.56 33.48 129.16 33.24 129.77 33.11 130.4 32.94 130.98 32.79 131.45 32.5 131.81 32.01 132.05 31.68 132.22 31.35 132.32 30.95 132.41 30.62 132.47 30.28 132.57 29.95 131.72 29.43 130.81 28.96 129.88 28.54Z" fill="#6C6C65" opacity="0.52"/><path d="M10.21 34.83C10.53 34.11 10.86 33.39 11.19 32.68 11.8 31.36 12.39 30.04 12.85 28.67 12.19 29.22 11.53 29.77 10.88 30.33 9.57 31.46 8.29 32.62 7.06 33.83 6.63 34.25 6.21 34.69 5.79 35.13 6.1 35.22 6.4 35.3 6.71 35.37 7.12 35.46 7.55 35.54 7.97 35.55 8.37 35.56 8.78 35.43 9.15 35.29 9.52 35.15 9.87 34.99 10.21 34.83Z" fill="#6C6C65" opacity="0.52"/><path d="M17.95 29.46C17.8 29.8 17.65 30.14 17.51 30.49 17 31.7 16.51 32.94 16.13 34.2 16.6 34.24 17.07 34.28 17.54 34.32 17.65 33.62 17.77 32.91 17.86 32.21 17.96 31.3 18.04 30.37 17.95 29.46Z" fill="#6C6C65" opacity="0.52"/><path d="M42.47 26.68C42.05 27.28 41.7 27.93 41.39 28.6 40.73 30.05 40.28 31.59 39.92 33.14 39.78 33.73 39.66 34.32 39.55 34.91 40.7 34.99 41.86 35.08 43.02 35.13 43.04 34.01 43.06 32.9 43.04 31.78 43 30.08 42.87 28.35 42.47 26.68Z" fill="#6C6C65" opacity="0.52"/><path d="M72.66 29.29C72.44 29.85 72.23 30.42 72.05 30.99 71.69 32.11 71.4 33.24 71.14 34.39 71.57 34.42 71.99 34.47 72.42 34.53 72.5 33.93 72.6 33.33 72.68 32.73 72.83 31.59 72.91 30.42 72.66 29.29Z" fill="#6C6C65" opacity="0.52"/><path d="M95.6 29.16C95.41 29.61 95.26 30.08 95.14 30.55 94.76 32.05 94.65 33.58 94.54 35.12 94.82 35.13 95.1 35.13 95.39 35.13 95.66 35.12 95.92 35.11 96.18 35.09 96.13 33.1 96.03 31.1 95.6 29.16Z" fill="#6C6C65" opacity="0.52"/><path d="M1.18 24.4C1.01 24.88 0.82 25.37 0.68 25.86 0.67 25.91 0.65 25.96 0.64 26.01 1.96 25.26 3.25 24.46 4.51 23.62 6.05 22.59 7.54 21.5 8.98 20.35 8.38 20.25 7.77 20.24 7.17 20.27 5.91 20.34 4.67 20.59 3.42 20.72 2.89 20.78 2.34 20.81 1.81 20.8 1.81 20.94 1.82 21.08 1.81 21.21 1.8 21.76 1.78 22.3 1.66 22.85 1.53 23.39 1.36 23.9 1.18 24.4Z" fill="#6C6C65" opacity="0.52"/><path d="M4.41 4.01C5.7 4.88 7.02 5.71 8.43 6.36 8.26 5.79 8.03 5.24 7.76 4.71 7.05 3.31 6.12 2.05 5.18 0.8 4.12 1.2 3.17 1.82 2.38 2.6 3.06 3.08 3.73 3.55 4.41 4.01Z" fill="#6C6C65" opacity="0.52"/><path d="M39.71 5.4C39.79 5.06 39.86 4.71 39.91 4.36 40.08 3.28 40.14 2.2 40.24 1.11 39.83 1.11 39.42 1.11 39.01 1.11 39.03 1.85 39.07 2.6 39.18 3.33 39.27 4.04 39.42 4.75 39.71 5.4Z" fill="#6C6C65" opacity="0.52"/><path d="M75.66 5.63C75.52 7.02 75.37 8.45 75.52 9.85 75.86 9.17 76.11 8.45 76.32 7.72 76.75 6.17 76.99 4.58 77.38 3.02 77.5 2.52 77.64 2.02 77.81 1.53 77.21 1.63 76.6 1.72 76 1.8 75.96 3.08 75.79 4.36 75.66 5.63Z" fill="#6C6C65" opacity="0.52"/><path d="M105.62 7.94C105.9 7.32 106.13 6.68 106.33 6.03 106.78 4.61 107.12 3.16 107.56 1.74 107.62 1.55 107.68 1.37 107.74 1.18 107.17 1.27 106.6 1.36 106.04 1.45 105.84 3.61 105.58 5.77 105.62 7.94Z" fill="#6C6C65" opacity="0.52"/><path d="M66.62 1.53C66.68 2.46 66.71 3.4 66.81 4.33 66.89 5.11 67.01 5.89 67.23 6.65 67.3 6.23 67.33 5.81 67.36 5.39 67.44 3.97 67.34 2.46 67.69 1.07 67.32 1.05 66.96 1.04 66.59 1.05 66.6 1.2 66.61 1.36 66.62 1.53Z" fill="#6C6C65" opacity="0.52"/><path d="M31.28 3.31C31.54 4.38 31.88 5.47 32.45 6.41 32.56 5.93 32.62 5.45 32.66 4.96 32.77 3.58 32.68 2.19 32.64 0.81 32.04 0.88 31.43 0.95 30.83 1.02 30.95 1.79 31.09 2.55 31.28 3.31Z" fill="#6C6C65" opacity="0.52"/></g><path d="M128.29 21.62C128.28 20.66 128.29 19.7 128.27 18.74 128.25 17.74 128.16 16.76 127.99 15.77 127.85 14.97 127.75 14.15 127.75 13.34 127.75 12.54 127.86 11.75 128.01 10.96 128.09 10.51 128.17 10.08 128.16 9.62 128.15 9.21 128.08 8.8 127.97 8.4 127.73 7.46 127.35 6.55 127.1 5.62 126.41 4.94 125.56 4.4 124.6 4.04 123.5 4.18 122.39 4.29 121.27 4.21 120.05 4.13 118.87 3.85 117.66 3.73 116.4 3.6 115.12 3.67 113.85 3.72 112.56 3.78 111.27 3.86 109.98 3.93 108.73 4 107.48 4.01 106.24 4.15 105 4.29 103.78 4.51 102.54 4.64 101.36 4.76 100.22 4.7 99.05 4.55 97.84 4.39 96.63 4.18 95.41 4.09 94.21 3.97 80.8 4.05 79.59 4.18 77.22 4.44 74.79 5.03 72.39 4.75 71.25 4.62 70.13 4.35 69 4.19 67.72 4.02 66.51 4.11 65.24 4.19 63.97 4.27 62.7 4.14 61.43 4.16 60.15 4.18 48.27 4.25 46.99 4.27 45.83 4.28 44.69 4.19 43.53 4.17 42.48 4.15 41.43 4.17 40.38 4.15 39.04 4.13 37.66 4.07 36.35 3.8 35.28 3.92 34.22 4.03 33.15 4.13 32.43 4.2 31.7 4.25 30.98 4.3 30.26 4.35 29.54 4.41 28.82 4.41 27.41 4.42 18.92 4.06 17.53 3.92 17.18 3.88 16.83 3.86 16.48 3.86 16.14 3.86 15.8 3.91 15.46 3.92 14.78 3.94 14.14 4.18 13.46 4.21 12.53 4.24 11.7 3.82 10.82 3.63 9.27 3.9 7.91 4.6 6.89 5.59 6.7 5.88 6.52 6.18 6.35 6.48 6.38 7.08 6.41 7.69 6.42 8.29 6.43 8.78 6.43 9.27 6.4 9.77 6.37 10.28 6.29 10.78 6.22 11.29 5.95 13.28 6.23 15.29 6.44 17.27 6.54 18.26 6.63 19.26 6.62 20.25 6.61 20.69 6.59 21.13 6.48 21.56 6.38 21.98 6.22 22.39 6.06 22.79 5.9 23.18 5.74 23.56 5.61 23.96 5.49 24.32 5.39 24.71 5.41 25.1 5.44 25.52 5.67 25.92 5.85 26.3 6.04 26.71 6.17 27.11 6.2 27.55 6.22 27.8 6.22 28.04 6.21 28.29 6.72 28.67 7.21 29.08 7.67 29.51 7.9 29.72 8.12 29.94 8.32 30.16 8.47 30.33 8.63 30.51 8.74 30.7 8.79 30.79 8.84 30.88 8.87 30.97 9.59 31.2 10.33 31.41 11.08 31.56 11.45 31.63 11.84 31.7 12.22 31.7 12.59 31.71 12.95 31.6 13.29 31.49 14 31.25 14.67 30.92 15.4 30.71 16.21 30.49 17.06 30.51 17.9 30.53 19.76 30.58 28.74 30.8 30.6 30.89 31.04 30.91 31.48 30.91 31.92 30.97 32.36 31.03 32.79 31.13 33.22 31.23 33.67 31.33 34.13 31.43 34.6 31.48 35.06 31.52 35.51 31.46 35.96 31.39 36.78 31.26 37.59 31.06 38.43 31.02 39.37 30.97 40.32 31.12 41.26 31.18 43.23 31.3 45.22 31.45 47.19 31.42 49.17 31.39 61.74 31.18 63.71 31.08 64.69 31.03 65.68 31.05 66.67 30.99 67.64 30.94 68.59 30.82 69.56 30.76 71.24 30.66 72.93 30.92 74.57 31.24 74.63 31.25 74.7 31.27 74.76 31.28 74.82 31.27 74.87 31.26 74.93 31.25 76.53 31.01 78.16 31.16 79.76 31.27 80.56 31.32 93.57 31.37 94.38 31.36 95.19 31.35 95.99 31.26 96.8 31.22 100.29 31.08 103.79 31.3 107.27 31.39 108.14 31.41 108.98 31.41 109.84 31.29 110.65 31.18 111.45 30.99 112.27 30.98 113.16 30.97 114.04 31.08 114.92 31.1 115.79 31.12 116.66 31.13 117.53 31.16 118.4 31.19 119.26 31.21 120.13 31.18 120.93 31.15 121.74 31.1 122.49 30.85 123.18 30.61 123.83 30.29 124.53 30.05 125.08 29.86 125.63 29.75 126.2 29.62 126.73 29.5 127.15 29.27 127.48 28.87 127.7 28.61 127.85 28.34 127.95 28.02 128.04 27.72 128.1 27.41 128.21 27.11 128.31 26.83 128.47 26.59 128.65 26.36 128.6 25.74 128.54 25.12 128.48 24.5 128.39 23.56 128.31 22.59 128.29 21.62Z" fill="#BABCBE"/><path d="M6.55 18.46C6.6 17.08 6.47 15.69 6.43 14.31 6.42 13.76 6.42 13.21 6.46 12.66 6.48 12.38 6.51 12.09 6.54 11.81 6.57 11.56 6.67 11.33 6.76 11.1 6.85 10.86 6.96 10.62 7.04 10.38 7.12 10.13 7.21 9.86 7.2 9.6 7.17 9.09 7.01 8.6 6.92 8.09 6.83 7.64 6.81 7.17 6.94 6.72 7.02 6.44 7.14 6.18 7.3 5.94 7.62 5.47 8.07 5.13 8.57 4.87 9.62 4.34 10.8 4.15 11.96 3.96 11.58 3.84 11.2 3.71 10.81 3.63 9.27 3.9 7.91 4.6 6.89 5.59 6.7 5.88 6.52 6.18 6.35 6.48 6.38 7.08 6.41 7.69 6.42 8.29 6.43 8.78 6.43 9.27 6.4 9.77 6.37 10.28 6.29 10.78 6.22 11.29 5.95 13.28 6.23 15.29 6.44 17.27 6.48 17.66 6.52 18.06 6.55 18.46Z" fill="#828078"/><path d="M72.73 30.84C72.15 30.79 71.56 30.73 70.99 30.6 70.37 30.46 69.75 30.29 69.11 30.32 68.47 30.35 67.82 30.46 67.18 30.52 66.53 30.59 65.88 30.64 65.23 30.68 64.59 30.72 63.95 30.75 63.31 30.75 62.67 30.75 62.03 30.71 61.39 30.74 60.12 30.79 48.26 31.02 46.99 31.08 46.11 31.12 45.24 31.02 44.37 30.98 43.55 30.94 42.73 30.91 41.93 30.76 41.38 30.66 40.67 30.51 40.34 30.01 40.11 29.67 40.06 29.25 40.08 28.83 39.84 29.59 39.4 30.39 38.51 30.4 37.91 30.41 37.35 30.32 36.77 30.51 36.13 30.72 35.58 31.14 34.89 31.16 34.2 31.18 33.53 30.92 32.87 30.74 32.2 30.56 31.54 30.49 30.85 30.5 30.15 30.51 29.45 30.55 28.75 30.45 28.01 30.35 20.17 30.15 19.45 29.98 18.73 29.81 18.01 29.69 17.28 29.61 16.82 29.56 16.35 29.51 15.9 29.63 15.38 29.77 14.93 30.07 14.46 30.32 13.89 30.63 13.27 30.81 12.62 30.87 11.29 30.99 9.84 30.58 8.74 29.82 8.28 29.5 7.87 29.11 7.56 28.63 7.4 28.39 7.27 28.12 7.15 27.86 7.07 27.67 6.94 27.45 6.91 27.24 6.87 26.97 6.91 26.71 6.82 26.45 6.71 26.14 6.53 25.85 6.35 25.57 6.07 25.11 5.77 24.66 5.57 24.17 5.48 24.48 5.41 24.8 5.43 25.11 5.46 25.53 5.69 25.93 5.87 26.31 6.06 26.72 6.19 27.12 6.22 27.56 6.24 27.81 6.24 28.05 6.23 28.3 6.74 28.68 7.23 29.09 7.69 29.52 7.92 29.73 8.14 29.95 8.34 30.17 8.49 30.34 8.65 30.52 8.76 30.71 8.81 30.8 8.86 30.89 8.89 30.98 9.61 31.21 10.35 31.42 11.1 31.57 11.47 31.64 11.86 31.71 12.24 31.71 12.61 31.72 12.97 31.61 13.31 31.5 14.02 31.26 14.69 30.93 15.42 30.72 16.23 30.5 17.08 30.52 17.92 30.54 19.78 30.59 28.76 30.81 30.62 30.9 31.06 30.92 31.5 30.92 31.94 30.98 32.38 31.04 32.81 31.14 33.24 31.24 33.69 31.34 34.15 31.44 34.62 31.49 35.08 31.53 35.53 31.47 35.98 31.4 36.8 31.27 37.61 31.07 38.45 31.03 39.39 30.98 40.34 31.13 41.28 31.19 43.25 31.31 45.24 31.46 47.21 31.43 49.19 31.4 61.76 31.19 63.73 31.09 64.71 31.04 65.7 31.06 66.69 31 67.66 30.95 68.61 30.83 69.58 30.77 71.26 30.67 72.95 30.93 74.59 31.25 74.65 31.26 74.72 31.28 74.78 31.29 74.84 31.28 74.89 31.27 74.95 31.26 75.11 31.24 75.27 31.22 75.43 31.2 74.55 30.99 73.63 30.93 72.73 30.84Z" fill="#828078"/><path d="M31.06 4.72C32.63 4.62 34.2 4.43 35.78 4.39 36.6 4.37 37.42 4.41 38.24 4.51 39.05 4.61 39.85 4.75 40.66 4.82 41.46 4.89 42.24 4.87 43.03 4.77 43.85 4.67 44.67 4.54 45.5 4.54 45.55 4.54 45.59 4.58 45.59 4.63 45.66 5.98 45.54 7.33 45.51 8.67 46.08 7.68 45.69 6.37 46.34 5.4 46.57 5.06 46.87 4.9 47.28 4.92 47.9 4.96 48.49 5.04 49.12 5.01 50.52 4.94 62.51 4.55 63.92 4.62 64.61 4.65 65.28 4.78 65.98 4.75 66.65 4.73 67.32 4.64 67.99 4.63 68.64 4.61 69.28 4.69 69.92 4.82 70.59 4.96 71.24 5.21 71.92 5.34 72.62 5.48 73.3 5.45 74 5.3 74.65 5.15 75.29 5.08 75.94 4.99 77.36 4.78 78.75 4.47 80.14 4.12 79.96 4.14 79.77 4.16 79.59 4.18 77.22 4.44 74.79 5.03 72.39 4.75 71.25 4.62 70.13 4.35 69 4.19 67.72 4.02 66.51 4.11 65.24 4.19 63.97 4.27 62.7 4.14 61.43 4.16 60.15 4.18 48.27 4.25 46.99 4.27 45.83 4.28 44.69 4.19 43.53 4.17 42.48 4.15 41.43 4.17 40.38 4.15 39.04 4.13 37.66 4.07 36.35 3.8 35.28 3.92 34.22 4.03 33.15 4.13 32.43 4.2 31.7 4.25 30.98 4.3 30.26 4.35 29.54 4.41 28.82 4.41 28.3 4.41 20.66 4.36 20.15 4.3 21.38 4.6 29.79 4.8 31.06 4.72Z" fill="#828078"/><path d="M128.49 24.53C128.4 23.56 128.31 22.6 128.29 21.62 128.28 20.66 128.29 19.7 128.27 18.74 128.25 17.74 128.16 16.76 127.99 15.77 127.85 14.97 127.75 14.15 127.75 13.34 127.75 12.54 127.86 11.75 128.01 10.96 128.09 10.51 128.17 10.08 128.16 9.62 128.15 9.21 128.08 8.8 127.97 8.4 127.73 7.46 127.35 6.55 127.1 5.62 126.41 4.94 125.56 4.4 124.6 4.04 123.5 4.18 122.39 4.29 121.27 4.21 120.05 4.13 118.87 3.85 117.66 3.73 116.4 3.6 115.12 3.67 113.85 3.72 113.81 3.72 113.77 3.72 113.74 3.73 114.4 3.75 115.06 3.8 115.72 3.88 116.79 4.01 117.89 4.22 118.91 4.58 119.41 4.76 119.87 5.05 120.39 5.19 120.72 5.29 121.07 5.2 121.4 5.13 121.78 5.04 122.15 4.93 122.52 4.87 122.79 4.82 123.12 4.77 123.38 4.9 123.72 5.07 123.64 5.5 123.54 5.8 123.36 6.34 123.05 6.84 122.74 7.31 122.68 7.41 122.61 7.51 122.54 7.61 122.59 7.56 122.63 7.5 122.68 7.45 123.01 7.07 123.35 6.7 123.71 6.35 124.01 6.06 124.32 5.78 124.67 5.56 124.9 5.42 125.19 5.27 125.47 5.33 125.8 5.39 125.99 5.75 126.13 6.02 126.37 6.5 126.54 7.02 126.69 7.53 126.76 7.76 126.83 8 126.89 8.23 126.95 8.47 127.03 8.71 127.08 8.96 127.25 9.79 127.1 10.63 126.99 11.46 126.93 11.89 126.88 12.32 126.89 12.75 126.89 13.13 126.94 13.5 126.99 13.88 127.1 14.67 127.17 15.47 127.25 16.26 127.33 17.09 127.41 17.92 127.41 18.76 127.41 19.19 127.38 19.61 127.33 20.03 127.28 20.45 127.19 20.87 127.1 21.28 127.03 21.64 126.93 22 126.92 22.36 126.9 22.74 126.97 23.13 127.14 23.47 127.39 23.97 127.87 24.47 127.76 25.06 127.68 25.51 127.27 25.94 126.81 26.02 126.42 26.09 126.02 25.96 125.66 25.8 125.2 25.59 124.78 25.32 124.36 25.03 123.93 24.74 123.51 24.42 123.08 24.13 122.89 24 122.7 23.87 122.49 23.76 122.62 23.88 122.76 24 122.89 24.12 123.85 24.99 124.8 25.88 125.87 26.62 126.17 26.83 126.5 27.05 126.61 27.41 126.72 27.77 126.61 28.19 126.43 28.51 126.06 29.17 125.33 29.56 124.64 29.81 123.85 30.1 123.02 30.25 122.19 30.36 121.2 30.49 120.2 30.59 119.2 30.58 117.86 30.57 116.53 30.44 115.2 30.41 114.53 30.39 113.86 30.39 113.19 30.45 112.53 30.5 111.88 30.65 111.24 30.8 110.62 30.95 110.01 31.11 109.39 31.23 109.08 31.29 108.76 31.33 108.45 31.36 108.1 31.39 107.76 31.38 107.41 31.38 106.91 31.38 106.41 31.38 105.9 31.38 106.35 31.4 106.81 31.41 107.26 31.42 108.13 31.44 108.97 31.44 109.83 31.32 110.64 31.21 111.44 31.02 112.26 31.01 113.15 31 114.03 31.11 114.91 31.13 115.78 31.15 116.65 31.16 117.52 31.19 118.39 31.22 119.25 31.24 120.12 31.21 120.92 31.18 121.73 31.13 122.48 30.88 123.17 30.64 123.82 30.32 124.52 30.08 125.07 29.89 125.62 29.78 126.19 29.65 126.72 29.53 127.14 29.3 127.47 28.9 127.69 28.64 127.84 28.37 127.94 28.05 128.03 27.75 128.09 27.44 128.2 27.14 128.3 26.86 128.46 26.62 128.64 26.39 128.61 25.77 128.55 25.15 128.49 24.53Z" fill="#828078"/><path d="M40.64 25.99C40.59 26.17 40.55 26.36 40.52 26.55 40.57 26.36 40.61 26.18 40.64 25.99Z" fill="#828078"/><g opacity="0.39"><path d="M121.25 24.12C121.07 23.88 120.79 23.72 120.49 23.66 119.74 23.51 118.85 23.73 118.46 24.44 118.33 24.69 118.26 24.96 118.26 25.22 118.21 25.37 118.19 25.52 118.2 25.68 118.22 26.06 118.39 26.39 118.7 26.6 119.87 27.41 121.38 26.14 121.45 24.9 121.47 24.64 121.41 24.35 121.25 24.12Z" fill="#6C6C65"/><path d="M125.32 25.48C125.25 25.27 125.12 25.12 124.96 24.98 124.91 24.93 124.85 24.89 124.78 24.86 124.69 24.81 124.6 24.77 124.5 24.75 124.36 24.72 124.23 24.71 124.1 24.74 123.86 24.79 123.66 24.94 123.52 25.14 123.51 25.15 123.51 25.16 123.5 25.17 123.47 25.22 123.44 25.27 123.43 25.33 123.41 25.4 123.39 25.47 123.39 25.54 123.39 25.6 123.39 25.65 123.4 25.71 123.39 25.76 123.38 25.8 123.38 25.85 123.37 25.96 123.38 26.08 123.42 26.18 123.47 26.31 123.54 26.42 123.65 26.51 123.77 26.6 123.93 26.64 124.08 26.65 124.27 26.66 124.46 26.61 124.64 26.54 124.81 26.48 124.96 26.38 125.08 26.25 125.29 26.06 125.41 25.75 125.32 25.48Z" fill="#6C6C65"/><path d="M125.27 20.14C125.2 19.74 124.86 19.43 124.47 19.34 123.99 19.24 123.49 19.37 123.13 19.72 122.96 19.88 122.83 20.12 122.82 20.36 122.81 20.47 122.83 20.57 122.86 20.67 122.84 21.02 123.01 21.4 123.32 21.56 123.76 21.79 124.26 21.72 124.68 21.47 125.14 21.2 125.36 20.66 125.27 20.14Z" fill="#6C6C65"/><path d="M114.83 22.82C114.82 22.79 114.81 22.77 114.79 22.76 114.76 22.73 114.73 22.71 114.69 22.7 114.68 22.7 114.67 22.7 114.66 22.69 114.63 22.68 114.6 22.68 114.56 22.68 114.56 22.68 114.55 22.68 114.55 22.68 114.51 22.68 114.46 22.68 114.42 22.69 114.41 22.69 114.41 22.69 114.4 22.69 114.36 22.7 114.32 22.71 114.29 22.73 114.18 22.78 114.08 22.86 114.02 22.96 113.99 23 113.97 23.05 113.97 23.1 113.96 23.14 113.96 23.19 113.97 23.23 113.98 23.26 113.99 23.28 114.01 23.31 114.04 23.35 114.07 23.37 114.11 23.39 114.14 23.41 114.16 23.42 114.2 23.42 114.24 23.43 114.29 23.43 114.33 23.42 114.34 23.42 114.35 23.43 114.36 23.43 114.4 23.44 114.43 23.44 114.47 23.44 114.5 23.44 114.52 23.43 114.55 23.42 114.59 23.41 114.63 23.39 114.66 23.37 114.68 23.35 114.7 23.33 114.73 23.31 114.75 23.29 114.76 23.27 114.78 23.25 114.8 23.22 114.81 23.19 114.82 23.16 114.82 23.16 114.82 23.17 114.82 23.17 114.82 23.15 114.83 23.13 114.84 23.12 114.84 23.11 114.85 23.11 114.85 23.1 114.85 23.09 114.85 23.09 114.85 23.08 114.85 23.07 114.86 23.05 114.87 23.04 114.88 23.01 114.88 22.99 114.89 22.96 114.86 22.89 114.85 22.85 114.83 22.82Z" fill="#6C6C65"/><g><path d="M113.18 27.15C113.17 27.14 113.17 27.12 113.16 27.11 113.15 27.08 113.14 27.07 113.14 27.07 113.39 27.31 113.08 27.01 113.07 27 113.07 27 112.98 26.96 112.98 26.96 112.98 26.96 112.98 26.96 112.97 26.96 112.97 26.96 112.97 26.96 112.97 26.96 112.95 26.96 112.94 26.96 112.92 26.95 112.9 26.95 112.88 26.94 112.87 26.94 112.81 26.94 112.75 26.95 112.69 26.97 112.67 26.98 112.65 26.98 112.63 26.99 112.59 27.01 112.55 27.03 112.51 27.06 112.47 27.08 112.44 27.12 112.41 27.15 112.4 27.16 112.39 27.18 112.37 27.19 112.36 27.2 112.35 27.21 112.35 27.21 112.34 27.22 112.32 27.24 112.31 27.26 112.29 27.28 112.27 27.29 112.25 27.31 112.23 27.33 112.21 27.36 112.19 27.38 112.19 27.38 112.19 27.39 112.18 27.39 112.17 27.4 112.17 27.42 112.16 27.43 112.14 27.47 112.13 27.5 112.12 27.55 112.12 27.58 112.12 27.61 112.13 27.64 112.14 27.69 112.17 27.73 112.22 27.76 112.27 27.79 112.32 27.8 112.37 27.8 112.44 27.79 112.5 27.79 112.56 27.78 112.6 27.77 112.64 27.76 112.68 27.75 112.68 27.75 112.68 27.75 112.69 27.75 112.7 27.75 112.8 27.72 112.81 27.71 112.9 27.68 112.92 27.65 112.98 27.6 113 27.59 113.01 27.57 113.03 27.56 113.06 27.53 113.09 27.49 113.11 27.45 113.11 27.45 113.11 27.45 113.11 27.45 113.11 27.45 113.11 27.45 113.11 27.45 113.12 27.44 113.12 27.43 113.13 27.42 113.16 27.36 113.15 27.39 113.16 27.37 113.16 27.37 113.16 27.37 113.16 27.37 113.16 27.37 113.16 27.37 113.16 27.36 113.16 27.36 113.16 27.36 113.16 27.36L113.18 27.26C113.19 27.21 113.19 27.18 113.18 27.15L113.18 27.15Z" fill="#6C6C65"/><path d="M113.18 27.15C113.36 27.54 113.18 27.13 113.18 27.15L113.18 27.15Z" fill="#6C6C65"/></g></g><path d="M13.25 19.95C12.65 20.1 12.08 19.95 11.52 19.75 11.26 19.66 11 19.56 10.74 19.49 10.58 19.45 10.43 19.42 10.28 19.41 10.3 19.4 10.31 19.39 10.33 19.37 10.8 18.95 11.04 18.41 11.22 17.82 11.4 17.22 11.49 16.57 11.75 16 11.81 15.87 11.59 15.88 11.54 15.97 11.24 16.54 11.04 17.13 10.83 17.73 10.65 18.26 10.41 18.86 9.97 19.23 9.7 19.46 9.35 19.61 9.04 19.78 8.69 19.98 8.35 20.18 8.01 20.4 7.68 20.62 7.35 20.85 7.04 21.09 6.74 21.33 6.39 21.59 6.16 21.91 6.04 22.09 6.28 22.18 6.41 22.08 6.74 21.83 7.03 21.52 7.35 21.26 7.66 21.02 7.99 20.79 8.33 20.58 8.69 20.35 9.07 20.13 9.45 19.92 9.51 19.89 9.57 19.86 9.63 19.83 9.63 19.83 9.63 19.83 9.64 19.83 9.92 19.89 10.19 20 10.47 20.07 10.77 20.14 11.07 20.22 11.38 20.27 12.02 20.37 12.65 20.31 13.27 20.09 13.33 20.05 13.35 19.93 13.25 19.95Z" fill="#828078"/><path d="M105.35 4.12C105.01 4.4 104.73 4.75 104.42 5.06 104.14 5.34 103.85 5.61 103.58 5.89 103.47 5.91 103.36 5.98 103.34 6.08 103.33 6.1 103.33 6.13 103.33 6.15 102.8 6.71 102.31 7.29 101.85 7.91 101.76 8.03 101.95 8.08 102.03 7.99 102.4 7.53 102.83 7.12 103.28 6.73 103.28 7.05 103.32 7.38 103.36 7.7 103.44 8.27 103.56 8.84 103.59 9.41 103.6 9.58 103.85 9.49 103.86 9.35 103.88 8.79 103.81 8.24 103.76 7.69 103.72 7.25 103.67 6.78 103.74 6.34 103.79 6.29 103.85 6.25 103.9 6.2 104.23 5.92 104.54 5.63 104.85 5.34 105.17 5.04 105.52 4.75 105.76 4.39 105.94 4.11 105.57 3.94 105.35 4.12Z" fill="#828078"/><path d="M101.99 31.25C100.21 31.13 98.41 31.28 96.62 31.31 95.76 31.32 94.91 31.29 94.06 31.24 93.2 31.19 80.14 31.13 79.28 31.15 78.8 31.16 78.32 31.17 77.84 31.16 77.35 31.14 76.82 31.14 76.35 30.99 76.27 30.97 76.17 31.1 76.26 31.13 76.65 31.26 77.01 31.42 77.42 31.49 77.83 31.56 78.24 31.6 78.65 31.63 79.5 31.7 92.55 31.8 93.4 31.88 94.29 31.96 95.15 31.87 96.03 31.7 96.94 31.53 97.88 31.53 98.8 31.53 99.83 31.52 100.88 31.57 101.91 31.5 102.04 31.48 102.18 31.26 101.99 31.25Z" fill="#828078"/></g></g></svg>