<svg width="30.13" height="20.25" viewBox="0 0 30.13 20.25" xmlns="http://www.w3.org/2000/svg" xmlns:xlink="http://www.w3.org/1999/xlink" xml:space="preserve" overflow="hidden"><defs></defs><g><path d="M15.72 19.4C24.63 18.29 32.17 14.35 29.63 6.96 29.14 5.52 28.26 3.94 26.93 2.23 24.04 0.1 19.78-0.61 16.32 0.59 13.6 1.53 10.91 2.43 8.23 3.49 1.4 6.2-4.32 15.87 4.5 19.56 4.64 19.61 4.79 19.68 4.94 19.73 8.01 20.89 12.58 19.79 15.72 19.4ZM12.86 17.01C12.86 17.02 12.86 17.02 12.86 17.01 12.61 17.32 12.19 18.95 11.71 18.96 11.66 18.97 11.82 18.51 11.83 18.5 11.96 18.12 11.97 17.69 12.04 17.29 12.1 16.9 12.04 14.95 12.46 14.95 12.51 14.95 12.55 14.97 12.58 15 12.81 15.21 12.83 15.98 12.84 16.67 12.85 16.64 12.87 16.61 12.89 16.61 13.05 16.64 12.88 16.88 12.86 17.01ZM8.64 12.63C8.58 12.23 8.79 12.31 9.05 12.55 9.36 12.88 9.73 13.5 9.61 13.78 9.63 14.21 9.62 14.63 9.65 15.05 9.68 15.59 9.65 16.14 9.58 16.67 9.57 16.75 9.58 17.07 9.49 17.12 9.43 17.15 9.45 17 9.45 16.94 9.42 16.56 9.3 16.19 9.28 15.81 9.24 14.67 8.79 13.7 8.64 12.63ZM14.83 10.43C14.94 10.55 15.07 10.72 15.23 10.96 15.29 11.9 15.77 12.7 15.77 13.65 15.76 14.18 15.86 14.7 15.75 15.21 15.7 15.4 15.65 15.96 15.61 15.78 15.5 15.25 15.54 14.7 15.4 14.16 15.26 13.65 13.81 9.32 14.83 10.43ZM22.5 16.63C22.19 16.85 22.52 15.86 22.53 15.49 22.52 15.11 22.51 14.73 22.47 14.36 22.44 14.08 22.44 13.8 22.36 13.53 22.92 14.17 23.39 15.99 22.5 16.63ZM19.6 13.1C19.57 13.1 18.4 9.1 18.36 8.63 19.06 9.52 19.36 10.6 19.56 11.7 19.56 11.72 19.71 13.12 19.6 13.1ZM16.41 9.85C16.15 9.39 15.83 8.86 15.54 8.33 14.97 7.31 14.49 6.19 14.61 5.17 14.63 5.2 14.67 5.22 14.68 5.24 15.04 5.6 15.22 6.1 15.41 6.56 15.64 7.07 15.87 7.58 16.07 8.1 16.09 8.13 16.09 8.17 16.11 8.2 16.27 8.65 16.35 9.11 16.4 9.58 16.42 9.67 16.45 9.93 16.41 9.85ZM24.87 6.83C25.24 7.22 25.49 7.67 25.75 8.14 25.81 8.24 27 11.38 26.41 11.19 26.11 11.09 26.13 10.69 26.05 10.46 25.89 9.97 25.98 9.42 25.8 8.95 25.47 8.08 24.83 7.65 24.71 6.66 24.77 6.72 24.82 6.78 24.87 6.83ZM20.7 5.49C20.75 5.74 20.83 5.97 20.91 6.2 21.02 6.49 21.14 6.77 21.26 7.07 21.53 7.75 22.04 9.51 21.75 10.2 21.65 10.44 21.58 9.69 21.5 9.44 21.28 8.83 20.97 8.24 20.73 7.63 20.56 7.2 20.43 6.8 20.28 6.42 20.1 5.94 19.89 5.48 19.53 5 19.41 4.84 18.65 4.13 18.76 3.89 18.9 3.61 19.84 4.26 20.36 4.84 20.6 5.1 20.75 5.35 20.7 5.49ZM20.47 1.21C20.74 1.1 20.99 1.2 21.2 1.42 21.98 2.19 22.39 4.51 22.23 4.42 21.78 4.16 21.59 3.04 21.26 2.59 20.88 2.08 19.44 1.58 20.47 1.21ZM15.68 2.61C15.59 2.46 14.61 1.72 14.74 1.6 14.91 1.43 16.01 2.24 16.15 2.35 16.18 2.38 16.22 2.41 16.26 2.45 16.49 2.69 16.64 3.04 16.81 3.32 17.05 3.71 17.35 4.05 17.52 4.47 17.41 4.71 17.38 5.03 17.06 4.97 16.86 4.93 16.03 3.16 15.68 2.61ZM11.19 3.82C11.39 4.07 11.6 4.33 11.82 4.57 12.98 5.87 14.23 8.07 13.63 8.02 13.43 8.01 13.42 7.69 13.36 7.57 13.04 6.98 12.78 6.32 12.41 5.73 11.93 4.97 11.47 4.73 11.19 3.82ZM6.64 6.9C6.41 6.46 6 6.16 5.78 5.7 5.64 5.36 6.64 6.3 6.98 6.65 7.03 6.7 7.06 6.75 7.09 6.76 7.43 7.23 7.75 7.75 7.88 8.32 7.97 8.84 7.96 8.89 7.83 9.35 7.57 10.3 6.87 7.33 6.64 6.9ZM11.17 8.93C11.07 8.55 10.06 6.8 10.22 6.66 10.33 6.56 10.54 6.72 10.75 6.95 11.11 7.35 11.49 7.98 11.55 8.07 11.81 8.53 11.94 9.06 12.09 9.56 12.13 9.69 12.17 9.81 12.21 9.93 12.35 10.39 12.47 10.84 12.5 11.32 12.35 11.68 12.32 11.91 11.95 11.83 11.87 11.81 11.87 11.52 11.86 11.46 11.82 11.05 11.71 10.65 11.58 10.25 11.45 9.81 11.29 9.37 11.17 8.93ZM4.94 12.28C4.91 12.14 4.25 10.56 4.39 10.5 4.56 10.44 4.74 10.54 4.91 10.71 5.27 11.09 5.57 11.84 5.61 12.02 5.69 12.36 5.76 12.64 5.72 13.01 5.71 13.03 5.06 14.81 4.98 14.81 4.91 14.76 5.07 12.95 4.94 12.28Z" id="path205467_1_" fill="#CE8552"/><path d="M4.5 19.56C-4.32 15.87 1.4 6.2 8.23 3.48 10.91 2.42 13.6 1.51 16.32 0.58 19.78-0.62 24.04 0.09 26.93 2.22 28.26 3.93 29.14 5.51 29.63 6.95 27.59 6.68 25 5.53 23.61 5.6 22.69 5.64 21.79 5.89 20.92 6.2 20.78 6.25 20.64 6.29 20.49 6.35 20.42 6.37 20.35 6.4 20.29 6.43 18.87 6.93 17.47 7.49 16.09 8.09 15.91 8.16 15.73 8.25 15.55 8.33 14.42 8.83 13.31 9.36 12.22 9.94 12.01 10.04 11.8 10.15 11.59 10.26 10.62 10.78 9.67 11.31 8.73 11.87 7.27 12.73 5.8 13.69 4.89 15.11 4.01 16.42 3.74 18.23 4.5 19.56Z" fill="#D45729" opacity="0.27"/></g></svg>