<svg width="52.78" height="145.71" viewBox="0 0 52.78 145.71" xmlns="http://www.w3.org/2000/svg" xmlns:xlink="http://www.w3.org/1999/xlink" xml:space="preserve" overflow="hidden"><defs></defs><g><g><path d="M1.23 55.56C1.36 55.26 1.51 54.97 1.72 54.73 2.03 54.38 2.45 54.23 2.85 54.02 4.19 53.31 6.06 52.56 7.59 53.01 7.97 53.12 8.34 53.3 8.7 53.45 9.17 53.65 9.68 53.77 10.15 53.96 10.78 54.21 11.16 54.64 11.76 54.95 12.57 55.37 12.4 54.8 12.62 54.18 12.76 53.79 12.95 53.39 13.12 53.01 13.35 52.51 13.7 52.06 13.87 51.53 13.97 51.23 13.98 50.99 13.94 50.68 13.91 50.47 13.68 49.82 13.79 49.66 13.82 49.63 13.83 49.59 13.83 49.56 13.81 49.48 13.79 49.4 13.76 49.32 13.7 48.4 13.73 47.46 13.71 46.6 13.68 44.83 13.69 43.05 13.72 41.28 13.74 39.68 13.83 38.09 13.94 36.49 13.96 36.13 14.25 32.01 14.21 32.01 14.22 32.01 14.23 32 14.24 32 14.23 31.97 14.22 31.94 14.21 31.91 14.19 31.91 14.18 31.9 14.16 31.9 14.16 31.91 14.15 31.91 14.15 31.91 13.14 32.32 12.19 32.85 11.28 33.49 10.1 34.32 9.29 35.44 8.51 36.68 6.7 39.54 5.48 42.67 4.16 45.81 3.45 47.5 2.76 49.21 2.01 50.89 1.36 52.34 0.68 53.79 0.34 55.36 0.15 56.25 0.1 57.27 0.2 58.24 0.34 57.58 0.57 56.96 0.88 56.36 1.01 56.1 1.12 55.83 1.23 55.56Z" fill="#4E6F75"/><path d="M0.74 54.66C1.12 53.15 1.87 51.71 2.5 50.31 3.12 48.93 3.68 47.52 4.26 46.11 5.42 43.31 6.51 40.47 8.03 37.86 8.84 36.47 9.66 35.1 10.85 34.05 11.83 33.19 12.97 32.56 14.13 32.02 13.79 35.36 13.53 38.7 13.48 42.07 13.46 43.39 13.45 44.71 13.46 46.03 13.27 44.6 12.97 43.19 12.7 41.78 12.51 40.75 12.35 39.71 12.09 38.69 11.95 38.13 11.79 37.52 11.39 37.1 11.36 37.07 11.31 37.09 11.28 37.11 11 37.33 11.05 37.67 11.02 38.04 10.95 39 10.91 39.96 10.87 40.92 10.87 40.99 10.95 40.93 10.96 40.89 11.06 39.81 11.14 38.72 11.25 37.64 11.3 37.17 11.65 38.21 11.7 38.38 11.93 39.07 12.04 39.81 12.18 40.53 12.63 42.89 13.05 45.24 13.46 47.61 13.46 47.92 13.46 48.24 13.47 48.55 13.24 48.02 12.96 47.51 12.75 47 12.22 45.7 11.72 44.39 11.21 43.07 11.19 43.03 11.13 43.1 11.14 43.14 11.57 44.4 11.92 45.68 12.46 46.89 12.81 47.69 13.2 48.52 13.5 49.36 13.62 49.71 13.56 50.19 13.64 50.56 13.7 50.83 13.78 51.04 13.71 51.32 13.59 51.82 13.16 52.2 12.9 52.62 12.52 53.24 12.38 53.97 12.01 54.59 11.99 54.08 11.89 53.6 11.86 53.09 11.83 52.62 11.76 52.07 11.36 51.75 11.52 52.23 11.63 52.69 11.64 53.2 11.64 53.32 11.5 54.53 11.4 54.51 10.87 54.36 10.36 53.98 9.86 53.73 9.62 53.61 9.34 53.54 9.13 53.37 9.01 53.27 9.04 53.31 9.02 53.11 9 52.89 8.92 52.68 8.87 52.46 8.82 52.2 8.79 51.94 8.73 51.68 8.63 51.23 8.41 50.82 8.35 50.36 8.3 49.96 8.08 49.6 7.91 49.23 7.77 48.92 7.59 48.58 7.33 48.37 7.33 48.66 7.57 49.04 7.67 49.32 7.92 50.06 8.19 50.76 8.36 51.53 8.39 51.68 8.57 53.16 8.52 53.16 8.23 53.15 7.88 52.97 7.59 52.89 7.23 52.78 6.89 52.69 6.5 52.72 6.18 52.74 5.86 52.8 5.54 52.83 4.99 52.87 4.45 52.99 3.97 52.66 3.57 52.39 3.02 52.09 2.52 52.13 2.88 52.14 4.08 52.74 4.11 53.12 3.45 53.28 2.81 53.62 2.25 54 1.26 54.66 0.65 56.11 0.42 57.26 0.42 56.37 0.54 55.47 0.74 54.66Z" fill="#7EA2A9"/><path d="M3.16 52.34C3.02 52.38 2.88 52.42 2.74 52.5 2.49 52.64 2.27 52.83 2.06 53.02 1.71 53.33 1.36 53.64 0.98 53.86 0.89 54.13 0.81 54.4 0.74 54.67 0.53 55.48 0.42 56.37 0.42 57.26 0.65 56.11 1.25 54.66 2.25 54 2.81 53.62 3.45 53.28 4.11 53.12 4.09 52.88 3.6 52.55 3.16 52.34Z" fill="#7EA2A9" opacity="0.4"/><path d="M13.51 49.36C13.21 48.53 12.83 47.69 12.47 46.89 11.93 45.67 11.58 44.4 11.15 43.14 11.14 43.1 11.2 43.03 11.22 43.07 11.72 44.39 12.23 45.7 12.76 47 12.96 47.5 13.25 48.02 13.48 48.55 13.47 48.23 13.47 47.92 13.47 47.61 13.06 45.25 12.64 42.89 12.19 40.53 12.05 39.81 11.94 39.07 11.71 38.38 11.65 38.21 11.31 37.17 11.26 37.64 11.14 38.72 11.07 39.81 10.97 40.89 10.97 40.94 10.88 41 10.88 40.92 10.92 39.96 10.96 39 11.03 38.04 11.06 37.67 11.01 37.34 11.29 37.11 11.32 37.09 11.37 37.07 11.4 37.1 11.8 37.52 11.95 38.13 12.1 38.69 12.36 39.7 12.52 40.75 12.71 41.78 12.98 43.2 13.27 44.61 13.47 46.03 13.46 44.71 13.47 43.39 13.49 42.07 13.54 38.7 13.8 35.36 14.14 32.02 12.98 32.56 11.84 33.19 10.86 34.05 10.54 34.33 10.25 34.63 9.98 34.95 9.86 35.18 9.33 35.74 9.1 36.13 9.54 35.54 9.97 35.22 10.09 35.14 10.42 34.93 11.23 34.77 10.95 36 10.69 37.13 10.55 37.96 10.56 39.12 10.57 40.19 10.65 41.27 10.64 42.34 10.62 44.45 9.99 46.48 9.48 48.51 9.42 48.74 8.98 48.9 8.88 48.61 8.58 47.74 7.53 47.15 6.61 46.87 6.89 48.58 7.46 50.27 7.01 52.01 6.97 52.17 6.82 52.27 6.66 52.26 5.71 52.22 4.75 52.14 3.8 52.23 3.65 52.25 3.49 52.26 3.34 52.29 3.57 52.39 3.79 52.52 3.98 52.65 4.47 52.98 5.01 52.86 5.55 52.82 5.87 52.8 6.19 52.73 6.51 52.71 6.9 52.69 7.23 52.77 7.6 52.88 7.89 52.97 8.23 53.14 8.53 53.15 8.59 53.15 8.41 51.68 8.37 51.52 8.21 50.75 7.93 50.05 7.68 49.31 7.59 49.03 7.34 48.65 7.34 48.36 7.6 48.57 7.78 48.91 7.92 49.22 8.09 49.59 8.31 49.95 8.36 50.35 8.41 50.8 8.64 51.22 8.74 51.66 8.8 51.92 8.83 52.18 8.88 52.44 8.92 52.66 9 52.87 9.03 53.09 9.05 53.28 9.02 53.25 9.14 53.35 9.34 53.52 9.63 53.59 9.87 53.71 10.37 53.96 10.87 54.34 11.41 54.49 11.51 54.52 11.65 53.3 11.65 53.18 11.64 52.67 11.54 52.21 11.37 51.73 11.76 52.04 11.84 52.6 11.87 53.07 11.9 53.58 12.01 54.06 12.02 54.57 12.39 53.95 12.53 53.22 12.91 52.6 13.17 52.18 13.6 51.8 13.72 51.3 13.79 51.02 13.71 50.81 13.65 50.54 13.57 50.19 13.64 49.71 13.51 49.36Z" fill="#7EA2A9" opacity="0.4"/></g><g><path d="M51.64 53.3C51.26 52.64 50.79 52.04 50.2 51.53 49.84 51.22 49.43 50.95 49.01 50.72 49.03 50.75 49.06 50.78 49.08 50.81 48.9 50.71 48.72 50.61 48.54 50.52 48.5 50.49 48.46 50.45 48.41 50.43 48.28 50.37 48.14 50.31 48.01 50.26 47.85 50.2 47.69 50.15 47.53 50.11 44.87 49.19 41.79 49.42 38.98 49.33 38.96 49.25 38.92 49.17 38.89 49.1 39.02 48.68 39.1 48.24 39.14 47.78 39.11 47.75 39.1 47.71 39.1 47.68 39.12 47.6 39.14 47.53 39.17 47.45 39.23 46.6 39.2 45.72 39.22 44.92 39.25 43.27 39.24 41.61 39.21 39.96 39.19 38.47 39.1 36.98 38.99 35.5 38.97 35.16 38.68 31.32 38.72 31.32 38.71 31.32 38.7 31.31 38.69 31.31 38.7 31.28 38.71 31.25 38.72 31.22 38.74 31.22 38.75 31.22 38.77 31.21 38.77 31.21 38.78 31.22 38.78 31.22 39.79 31.61 40.74 32.09 41.65 32.69 42.83 33.46 43.64 34.51 44.42 35.66 46.23 38.33 47.45 41.25 48.77 44.17 49.48 45.75 50.17 47.34 50.92 48.9 51.57 50.25 52.25 51.6 52.59 53.07 52.78 53.9 52.83 54.85 52.73 55.75 52.54 54.9 52.16 54.09 51.66 53.37 51.65 53.35 51.64 53.33 51.64 53.3Z" fill="#4E6F75"/><path d="M52.2 52.43C51.82 51.02 51.07 49.68 50.44 48.37 49.82 47.08 49.26 45.77 48.68 44.46 47.52 41.85 46.43 39.2 44.91 36.77 44.1 35.47 43.28 34.2 42.09 33.22 41.11 32.41 39.97 31.83 38.81 31.33 39.15 34.45 39.41 37.56 39.46 40.7 39.48 41.93 39.49 43.16 39.48 44.39 39.67 43.06 39.97 41.75 40.24 40.42 40.43 39.46 40.59 38.49 40.85 37.54 40.99 37.02 41.15 36.45 41.55 36.06 41.58 36.03 41.63 36.05 41.66 36.07 41.94 36.28 41.89 36.59 41.92 36.93 41.99 37.82 42.03 38.72 42.07 39.61 42.07 39.68 41.99 39.62 41.98 39.58 41.88 38.57 41.8 37.56 41.69 36.55 41.64 36.11 41.29 37.08 41.24 37.24 41.01 37.88 40.9 38.58 40.76 39.24 40.31 41.44 39.89 43.63 39.48 45.83 39.48 46.12 39.48 46.41 39.47 46.71 39.7 46.22 39.98 45.74 40.19 45.27 40.72 44.05 41.22 42.83 41.73 41.61 41.75 41.57 41.81 41.64 41.8 41.67 41.37 42.84 41.02 44.03 40.48 45.17 40.13 45.91 39.74 46.69 39.44 47.47 39.4 48.05 39.33 48.62 39.18 49.15 40.17 49.14 41.16 49.17 42.16 49.21 42.52 49.22 42.87 49.24 43.23 49.26 43.22 49.23 43.23 49.21 43.25 49.2 43.99 48.86 44.76 48.62 45.55 48.4 46.38 48.17 47.12 48.48 47.93 48.34 47.95 48.34 47.99 48.38 47.96 48.39 47.78 48.47 47.64 48.48 47.45 48.48 46.85 48.5 46.29 48.51 45.71 48.67 45.12 48.83 44.49 49.17 43.87 49.31 44.4 49.34 44.92 49.39 45.45 49.45 45.93 49.51 46.41 49.6 46.89 49.69 47.7 49.64 48.36 49.69 49.16 50.06 49.29 50.12 51.45 51.5 51.21 51.68 51.24 51.66 51.29 51.72 51.27 51.75 51.26 51.76 51.25 51.77 51.24 51.78 51.22 51.81 51.18 51.78 51.17 51.76 50.55 50.76 49.46 50.28 48.33 50.04 48.45 50.12 48.55 50.21 48.65 50.31 49.41 50.67 50.11 51.16 50.75 51.77 51.51 52.5 52.29 53.7 52.53 54.85 52.52 54.02 52.4 53.19 52.2 52.43Z" fill="#7EA2A9"/><path d="M40.46 45.19C41 44.06 41.35 42.87 41.78 41.69 41.79 41.66 41.73 41.59 41.71 41.63 41.21 42.86 40.7 44.08 40.17 45.29 39.97 45.76 39.68 46.24 39.45 46.73 39.46 46.43 39.46 46.14 39.46 45.85 39.87 43.65 40.29 41.45 40.74 39.26 40.88 38.59 40.99 37.9 41.22 37.26 41.28 37.1 41.62 36.13 41.67 36.57 41.79 37.58 41.86 38.59 41.96 39.6 41.96 39.64 42.05 39.7 42.05 39.63 42.01 38.73 41.97 37.84 41.9 36.95 41.87 36.61 41.92 36.3 41.64 36.09 41.61 36.07 41.56 36.06 41.53 36.08 41.13 36.47 40.98 37.04 40.83 37.56 40.57 38.5 40.41 39.48 40.22 40.44 39.95 41.76 39.66 43.08 39.46 44.41 39.47 43.18 39.46 41.95 39.44 40.72 39.39 37.58 39.13 34.47 38.79 31.35 39.95 31.85 41.09 32.44 42.07 33.24 43.07 34.06 43.81 35.09 44.5 36.17 44.01 35.61 43.45 35.12 42.75 34.92 42.68 34.9 42.58 34.94 42.57 35.02 42.49 35.53 42.67 36.02 42.83 36.5 43.06 37.15 43.2 37.82 43.34 38.5 43.7 40.23 44.06 41.94 44.55 43.64 44.8 44.54 45.07 45.43 45.43 46.29 45.59 46.69 45.73 47.09 46.09 47.36 46.9 47.95 47.94 48.02 48.87 48.33 48.47 48.46 48.08 48.6 47.7 48.77 47.58 48.82 47.62 49.02 47.74 49.04 48.99 49.32 49.92 50.23 50.75 51.17 50.17 50.7 49.2 50.09 49.12 50.05 48.33 49.68 47.66 49.64 46.85 49.68 46.37 49.59 45.89 49.5 45.41 49.44 44.89 49.38 44.36 49.33 43.83 49.3 44.45 49.16 45.08 48.82 45.67 48.66 46.26 48.5 46.81 48.49 47.41 48.47 47.6 48.46 47.75 48.46 47.92 48.38 47.95 48.37 47.91 48.33 47.89 48.33 47.08 48.47 46.34 48.16 45.51 48.39 44.72 48.61 43.96 48.85 43.21 49.19 43.18 49.2 43.18 49.23 43.19 49.25 42.83 49.23 42.48 49.22 42.12 49.2 41.12 49.16 40.13 49.14 39.14 49.14 39.29 48.61 39.37 48.04 39.4 47.46 39.72 46.71 40.11 45.93 40.46 45.19Z" fill="#7EA2A9" opacity="0.4"/></g><g><g><g><g><g><g><path d="M25.33 130.88C25.06 129.69 25.38 128.7 25.78 127.67 25.76 127.66 25.75 127.66 25.73 127.65 25.37 127.53 24.96 127.46 24.41 127.42 24.15 127.4 23.9 127.38 23.64 127.37 23.39 127.36 23.14 127.34 22.9 127.32L22.84 127.31C22.41 127.27 21.98 127.22 21.55 127.18 20.92 127.11 20.29 127.04 19.66 127 19.18 126.97 18.69 126.94 18.2 126.92L18.09 126.91C18.03 126.91 17.96 126.91 17.9 126.91 17.96 127.45 17.99 127.99 18 128.53 18.01 129.18 18.02 129.83 17.71 130.42 17.18 131.41 16.26 132.03 15.29 132.54 14.95 132.77 14.59 132.97 14.24 133.16 13.32 133.66 12.36 134.07 11.38 134.43 10.67 134.7 9.81 134.94 9.26 135.49 8.42 136.34 8.25 137.63 8.26 138.91 8.27 138.95 8.24 140.27 8.26 140.31 9.9 141.7 14.01 141.28 14.81 141.19 15.73 141.09 18.69 140.54 19.42 139.9 20.18 139.24 20.82 138.41 21.78 138 22.79 137.57 23.95 137.5 24.93 137 25.12 136.9 25.28 136.79 25.44 136.67 25.88 136.2 25.92 135.37 25.94 134.7 25.82 133.43 25.62 132.15 25.33 130.88Z" fill="#A84F21"/><path d="M12.56 141.42C12.56 141.42 12.56 141.42 12.56 141.42 11.13 141.42 9.22 141.24 8.21 140.39 8.2 140.38 8.19 140.37 8.19 140.36 8.18 140.33 8.17 140.32 8.18 139.55 8.18 139.28 8.19 138.98 8.18 138.94 8.17 137.89 8.27 136.4 9.2 135.45 9.67 134.97 10.38 134.72 11 134.49 11.12 134.45 11.23 134.41 11.34 134.36 12.46 133.94 13.36 133.54 14.19 133.09 14.48 132.93 14.87 132.72 15.23 132.47 16.11 132 17.08 131.39 17.62 130.38 17.92 129.82 17.91 129.22 17.91 128.57L17.91 128.52C17.9 127.98 17.87 127.44 17.81 126.91 17.81 126.89 17.81 126.86 17.83 126.85 17.85 126.83 17.87 126.82 17.89 126.82L17.95 126.82C18 126.82 18.05 126.82 18.09 126.82L18.2 126.83C18.69 126.86 19.17 126.88 19.66 126.91 20.29 126.95 20.92 127.02 21.53 127.09L21.68 127.11C22.06 127.15 22.46 127.19 22.85 127.23L22.91 127.24C23.15 127.26 23.39 127.27 23.65 127.29 23.89 127.3 24.16 127.32 24.42 127.34 24.98 127.39 25.39 127.46 25.76 127.58 25.77 127.58 25.78 127.59 25.8 127.59L25.82 127.6C25.84 127.61 25.86 127.62 25.87 127.64 25.88 127.66 25.88 127.68 25.87 127.7 25.47 128.74 25.16 129.7 25.42 130.86 25.71 132.15 25.92 133.45 26.03 134.71 26 135.4 25.97 136.25 25.5 136.75 25.32 136.89 25.15 137 24.97 137.1 24.43 137.38 23.83 137.52 23.25 137.67 22.77 137.79 22.27 137.91 21.82 138.11 21.15 138.4 20.62 138.91 20.12 139.4 19.92 139.6 19.71 139.8 19.49 139.99 18.71 140.67 15.6 141.21 14.84 141.3 14.05 141.38 13.28 141.42 12.56 141.42ZM8.34 140.29C9.31 141.09 11.17 141.26 12.56 141.26L12.56 141.26C13.28 141.26 14.04 141.22 14.81 141.13 15.79 141.02 18.68 140.47 19.38 139.86 19.59 139.67 19.8 139.47 20 139.27 20.52 138.77 21.05 138.24 21.75 137.94 22.22 137.74 22.72 137.62 23.21 137.5 23.78 137.36 24.37 137.21 24.9 136.94 25.07 136.85 25.23 136.75 25.4 136.62 25.82 136.18 25.85 135.36 25.87 134.71 25.76 133.47 25.55 132.18 25.26 130.89 24.99 129.71 25.3 128.71 25.69 127.71 25.34 127.6 24.95 127.53 24.42 127.49 24.16 127.47 23.89 127.45 23.66 127.44 23.39 127.43 23.15 127.41 22.91 127.39L22.85 127.38C22.46 127.34 22.06 127.3 21.68 127.26L21.53 127.24C20.92 127.17 20.29 127.1 19.67 127.06 19.19 127.03 18.7 127 18.21 126.98L18.1 126.97C18.07 126.97 18.03 126.97 18 126.97 18.05 127.48 18.08 128 18.09 128.51L18.09 128.56C18.1 129.19 18.11 129.85 17.79 130.45 17.22 131.5 16.23 132.13 15.34 132.61 14.98 132.86 14.59 133.07 14.29 133.23 13.46 133.68 12.55 134.09 11.42 134.51 11.31 134.55 11.19 134.59 11.07 134.64 10.43 134.87 9.78 135.1 9.33 135.56 8.44 136.47 8.35 137.91 8.35 138.91 8.35 138.95 8.35 139.06 8.35 139.54 8.34 139.82 8.33 140.18 8.34 140.29Z" fill="#682029"/></g></g></g></g><g><g><g><path d="M8.6 137.16C9.12 135.91 10.12 135.34 11.35 134.9 12.88 134.35 14.63 133.79 15.87 132.7 16.33 132.29 16.77 131.8 17.1 131.24 16.59 131.78 15.95 132.19 15.29 132.54 14.95 132.77 14.59 132.97 14.24 133.16 13.32 133.66 12.36 134.07 11.38 134.43 10.67 134.7 9.81 134.94 9.26 135.49 8.5 136.26 8.29 137.39 8.26 138.55 8.31 138.08 8.42 137.61 8.6 137.16Z" fill="#A84F21"/></g></g></g><g><g><g><path d="M25.33 130.88C25.06 129.69 25.38 128.7 25.78 127.67 25.76 127.66 25.75 127.66 25.73 127.65 25.37 127.53 24.96 127.46 24.41 127.42 24.15 127.4 23.9 127.38 23.64 127.37 23.39 127.36 23.14 127.34 22.9 127.32L22.84 127.31C22.41 127.27 21.98 127.22 21.55 127.18 20.92 127.11 20.29 127.04 19.66 127 19.18 126.97 18.69 126.94 18.2 126.92L18.09 126.91C18.03 126.91 17.96 126.91 17.9 126.91 17.96 127.45 17.99 127.99 18 128.53 18.01 129.13 18.02 129.72 17.78 130.27 18.55 130.67 21.91 131.75 23.19 131.72 23.23 131.72 23.51 134.88 22.59 135.08 21.93 135.22 20.15 135.95 19.63 136.4 19.25 136.73 18.92 137.11 18.54 137.45 17.88 138.04 17.07 138.44 16.22 138.68 14.43 139.18 12.43 139.21 10.59 138.92 9.84 138.8 9.02 138.48 8.78 137.69 8.6 137.11 8.68 136.55 8.86 136.02 8.37 136.83 8.25 137.88 8.26 138.92 8.27 138.96 8.24 140.28 8.26 140.32 9.9 141.71 14.01 141.29 14.81 141.2 15.73 141.1 18.69 140.55 19.42 139.91 20.18 139.25 20.82 138.42 21.78 138.01 22.79 137.58 23.95 137.51 24.93 137.01 25.12 136.91 25.28 136.8 25.44 136.68 25.88 136.21 25.92 135.38 25.94 134.71 25.82 133.43 25.62 132.15 25.33 130.88Z" fill="#A84F21" opacity="0.4"/></g></g></g><g><g><g><path d="M25.33 130.88C25.06 129.69 25.38 128.7 25.78 127.67 25.76 127.66 25.75 127.66 25.73 127.65 25.37 127.53 24.96 127.46 24.41 127.42 24.4 127.42 24.39 127.42 24.38 127.42 24.48 128.34 24.65 129.25 24.76 130.17 24.91 131.39 25.13 132.66 25.04 133.89 24.98 134.68 24.68 135.32 23.9 135.61 22.75 136.04 21.49 136.09 20.52 136.93 19.79 137.56 19.17 138.37 18.31 138.84 17.41 139.32 16.4 139.52 15.39 139.6 14.18 139.7 12.96 139.77 11.74 139.68 10.79 139.61 9.63 139.53 8.8 139 8.58 138.86 8.4 138.7 8.27 138.5 8.27 138.64 8.26 138.78 8.27 138.93 8.28 138.97 8.25 140.29 8.27 140.33 9.91 141.72 14.02 141.3 14.82 141.21 15.74 141.11 18.7 140.56 19.43 139.92 20.19 139.26 20.83 138.43 21.79 138.02 22.8 137.59 23.96 137.52 24.94 137.02 25.13 136.92 25.29 136.81 25.45 136.69 25.89 136.22 25.93 135.39 25.95 134.72 25.82 133.43 25.62 132.15 25.33 130.88Z" fill="#A84F21" opacity="0.4"/></g></g></g><g><g><g><g><path d="M24.73 136.34C24.01 136.56 23.26 136.55 22.53 136.71 21.57 136.92 20.76 137.36 19.98 137.95 19.27 138.49 18.59 139.09 17.76 139.43 16.07 140.14 14.07 140.23 12.26 140.18 10.89 140.14 9.47 139.95 8.27 139.26 8.27 139.67 8.25 140.3 8.27 140.32 9.91 141.71 14.02 141.29 14.82 141.2 15.74 141.1 18.7 140.55 19.43 139.91 20.19 139.25 20.83 138.42 21.79 138.01 22.8 137.58 23.96 137.51 24.94 137.01 25.13 136.91 25.29 136.8 25.45 136.68 25.84 136.27 25.91 135.57 25.94 134.95 25.73 135.26 25.37 136.15 24.73 136.34Z" fill="#3B1C0C"/><path d="M12.56 141.42C11.13 141.42 9.22 141.24 8.21 140.39 8.2 140.38 8.19 140.37 8.19 140.36 8.18 140.33 8.17 140.32 8.18 139.56L8.18 139.26C8.18 139.23 8.2 139.2 8.22 139.19 8.24 139.18 8.28 139.18 8.3 139.19 9.29 139.76 10.55 140.05 12.25 140.1 12.54 140.11 12.82 140.11 13.08 140.11 15.03 140.11 16.5 139.87 17.72 139.36 18.4 139.08 18.99 138.61 19.56 138.17 19.68 138.08 19.8 137.98 19.92 137.89 20.78 137.23 21.6 136.83 22.5 136.64 22.82 136.57 23.14 136.53 23.45 136.49 23.86 136.44 24.29 136.39 24.7 136.27 25.18 136.13 25.5 135.55 25.72 135.17 25.77 135.07 25.82 134.99 25.86 134.93 25.88 134.9 25.92 134.89 25.95 134.9 25.98 134.91 26.01 134.94 26.01 134.98 25.98 135.65 25.89 136.33 25.49 136.76 25.31 136.9 25.14 137.01 24.96 137.11 24.42 137.39 23.82 137.53 23.24 137.68 22.76 137.8 22.26 137.92 21.81 138.12 21.14 138.41 20.61 138.92 20.11 139.41 19.91 139.61 19.7 139.81 19.48 140 18.7 140.68 15.59 141.22 14.83 141.31 14.05 141.38 13.28 141.42 12.56 141.42ZM8.34 140.29C9.31 141.09 11.17 141.26 12.56 141.26 13.28 141.26 14.04 141.22 14.81 141.13 15.79 141.02 18.68 140.47 19.38 139.86 19.59 139.67 19.8 139.47 20 139.27 20.52 138.77 21.05 138.24 21.75 137.94 22.22 137.74 22.72 137.62 23.21 137.5 23.78 137.36 24.37 137.21 24.9 136.94 25.07 136.85 25.23 136.75 25.4 136.62 25.69 136.31 25.79 135.82 25.84 135.3 25.61 135.7 25.28 136.25 24.76 136.41 24.34 136.54 23.91 136.59 23.49 136.64 23.18 136.68 22.86 136.72 22.55 136.79 21.68 136.98 20.88 137.37 20.04 138.01 19.92 138.1 19.8 138.19 19.68 138.29 19.1 138.74 18.5 139.21 17.8 139.51 16.56 140.03 15.06 140.28 13.09 140.28 12.83 140.28 12.55 140.28 12.26 140.27 11.2 140.24 9.67 140.11 8.36 139.41L8.36 139.57C8.34 139.83 8.33 140.19 8.34 140.29Z" fill="#240B0F"/></g></g></g></g><g><g><g><path d="M15.01 140.1C14.09 140.2 13.15 140.21 12.25 140.18 11.94 140.17 11.63 140.15 11.31 140.12 11.29 140.51 11.25 140.89 11.23 141.27 12.78 141.41 14.34 141.25 14.81 141.2 14.86 141.19 14.92 141.19 14.99 141.18 14.99 140.83 14.99 140.46 15.01 140.1Z" fill="#3B1C0C"/><path d="M24.73 136.34C24.01 136.56 23.26 136.55 22.53 136.71 22.15 136.79 21.8 136.91 21.46 137.06 21.41 137.39 21.32 137.73 21.3 138.04 21.29 138.12 21.29 138.21 21.28 138.29 21.44 138.19 21.61 138.09 21.79 138.02 22.8 137.59 23.96 137.52 24.94 137.02 25.13 136.92 25.29 136.81 25.45 136.69 25.84 136.28 25.91 135.58 25.94 134.96 25.73 135.26 25.37 136.15 24.73 136.34Z" fill="#3B1C0C"/></g></g></g></g><g><g><g><g><g><path d="M28.07 130.88C28.34 129.69 28.02 128.7 27.62 127.67 27.64 127.66 27.65 127.66 27.67 127.65 28.03 127.53 28.44 127.46 28.99 127.42 29.25 127.4 29.5 127.38 29.76 127.37 30.01 127.36 30.26 127.34 30.5 127.32L30.56 127.31C30.99 127.27 31.42 127.22 31.85 127.18 32.48 127.11 33.11 127.04 33.74 127 34.23 126.97 34.71 126.94 35.2 126.92L35.31 126.91C35.37 126.91 35.44 126.91 35.51 126.91 35.45 127.45 35.42 127.99 35.41 128.53 35.4 129.18 35.39 129.83 35.7 130.42 36.23 131.41 37.15 132.03 38.12 132.54 38.46 132.77 38.82 132.97 39.17 133.16 40.09 133.66 41.05 134.07 42.03 134.43 42.74 134.7 43.6 134.94 44.15 135.49 44.99 136.34 45.16 137.63 45.15 138.91 45.14 138.95 45.17 140.27 45.15 140.31 43.51 141.7 39.4 141.28 38.6 141.19 37.68 141.09 34.72 140.54 33.99 139.9 33.23 139.24 32.59 138.41 31.63 138 30.62 137.57 29.46 137.5 28.48 137 28.29 136.9 28.13 136.79 27.97 136.67 27.53 136.2 27.49 135.37 27.47 134.7 27.57 133.43 27.78 132.15 28.07 130.88Z" fill="#A84F21"/><path d="M40.84 141.42C40.11 141.42 39.35 141.38 38.58 141.29 37.82 141.21 34.71 140.67 33.93 139.98 33.71 139.79 33.5 139.59 33.3 139.39 32.79 138.9 32.27 138.38 31.6 138.1 31.15 137.91 30.65 137.78 30.17 137.66 29.59 137.52 28.99 137.37 28.45 137.09 28.27 137 28.1 136.89 27.93 136.75 27.45 136.25 27.42 135.4 27.39 134.72 27.5 133.45 27.71 132.15 28 130.86 28.27 129.69 27.95 128.74 27.55 127.7 27.54 127.68 27.54 127.66 27.55 127.64 27.56 127.62 27.58 127.6 27.6 127.6L27.62 127.59C27.63 127.59 27.64 127.58 27.65 127.58 28.02 127.46 28.43 127.39 28.99 127.34 29.25 127.32 29.52 127.3 29.76 127.29 30.03 127.28 30.26 127.26 30.5 127.24L30.56 127.23C30.95 127.2 31.34 127.15 31.73 127.11L31.88 127.09C32.49 127.02 33.12 126.95 33.75 126.91 34.24 126.88 34.72 126.85 35.21 126.83L35.32 126.82C35.37 126.82 35.42 126.82 35.47 126.82L35.53 126.82C35.55 126.82 35.57 126.83 35.59 126.85 35.6 126.87 35.61 126.89 35.61 126.91 35.55 127.44 35.52 127.99 35.51 128.52L35.51 128.57C35.5 129.21 35.49 129.82 35.79 130.38 36.34 131.39 37.3 132 38.17 132.47 38.54 132.72 38.93 132.94 39.22 133.1 40.04 133.55 40.95 133.95 42.07 134.37 42.18 134.41 42.3 134.45 42.41 134.5 43.03 134.72 43.74 134.98 44.21 135.46 45.15 136.41 45.24 137.9 45.23 138.93 45.23 138.94 45.23 138.95 45.23 138.96 45.23 138.99 45.23 139.29 45.24 139.56 45.25 140.34 45.25 140.34 45.23 140.37 45.23 140.38 45.22 140.39 45.21 140.4 44.18 141.24 42.27 141.42 40.84 141.42ZM27.72 127.72C28.1 128.72 28.41 129.72 28.15 130.9 27.86 132.19 27.65 133.48 27.54 134.73 27.57 135.37 27.6 136.19 28.02 136.64 28.18 136.76 28.34 136.87 28.51 136.95 29.03 137.22 29.62 137.36 30.2 137.51 30.69 137.63 31.19 137.76 31.65 137.95 32.35 138.25 32.89 138.77 33.4 139.28 33.6 139.48 33.81 139.68 34.02 139.87 34.72 140.48 37.61 141.03 38.59 141.14 39.36 141.22 40.12 141.27 40.84 141.27 42.23 141.27 44.08 141.1 45.06 140.3 45.06 140.2 45.06 139.84 45.06 139.57 45.05 139.09 45.05 138.97 45.06 138.94 45.07 137.93 44.97 136.5 44.08 135.59 43.63 135.14 42.98 134.9 42.34 134.67 42.22 134.63 42.11 134.59 41.99 134.54 40.86 134.12 39.95 133.71 39.12 133.26 38.82 133.1 38.44 132.88 38.06 132.63 37.17 132.16 36.18 131.53 35.62 130.48 35.3 129.88 35.31 129.23 35.32 128.6L35.32 128.55C35.33 128.04 35.36 127.52 35.41 127.01 35.38 127.01 35.34 127.01 35.31 127.01L35.2 127C34.71 127.03 34.23 127.05 33.74 127.08 33.12 127.12 32.49 127.19 31.88 127.26L31.73 127.28C31.35 127.32 30.95 127.36 30.56 127.4L30.5 127.41C30.26 127.43 30.02 127.44 29.75 127.46 29.51 127.47 29.25 127.49 28.99 127.51 28.46 127.54 28.07 127.61 27.72 127.72Z" fill="#682029"/></g></g></g></g><g><g><g><path d="M44.8 137.16C44.28 135.91 43.28 135.34 42.05 134.9 40.52 134.35 38.77 133.79 37.53 132.7 37.07 132.29 36.63 131.8 36.3 131.24 36.81 131.78 37.45 132.19 38.11 132.54 38.45 132.77 38.81 132.97 39.16 133.16 40.08 133.66 41.04 134.07 42.02 134.43 42.73 134.7 43.59 134.94 44.14 135.49 44.9 136.26 45.11 137.39 45.14 138.55 45.08 138.08 44.98 137.61 44.8 137.16Z" fill="#A84F21"/></g></g></g><g><g><g><path d="M28.07 130.88C28.34 129.69 28.02 128.7 27.62 127.67 27.64 127.66 27.65 127.66 27.67 127.65 28.03 127.53 28.44 127.46 28.99 127.42 29.25 127.4 29.5 127.38 29.76 127.37 30.01 127.36 30.26 127.34 30.5 127.32L30.56 127.31C30.99 127.27 31.42 127.22 31.85 127.18 32.48 127.11 33.11 127.04 33.74 127 34.23 126.97 34.71 126.94 35.2 126.92L35.31 126.91C35.37 126.91 35.44 126.91 35.51 126.91 35.45 127.45 35.42 127.99 35.41 128.53 35.4 129.13 35.39 129.72 35.63 130.27 34.86 130.67 31.5 131.75 30.22 131.72 30.18 131.72 29.9 134.88 30.82 135.08 31.48 135.22 33.26 135.95 33.78 136.4 34.16 136.73 34.49 137.11 34.87 137.45 35.53 138.04 36.34 138.44 37.19 138.68 38.98 139.18 40.98 139.21 42.81 138.92 43.56 138.8 44.38 138.48 44.62 137.69 44.8 137.11 44.72 136.55 44.54 136.02 45.03 136.83 45.15 137.88 45.14 138.92 45.13 138.96 45.16 140.28 45.14 140.32 43.5 141.71 39.39 141.29 38.59 141.2 37.67 141.1 34.71 140.55 33.98 139.91 33.22 139.25 32.58 138.42 31.62 138.01 30.61 137.58 29.45 137.51 28.47 137.01 28.28 136.91 28.12 136.8 27.96 136.68 27.52 136.21 27.48 135.38 27.46 134.71 27.57 133.43 27.78 132.15 28.07 130.88Z" fill="#A84F21" opacity="0.4"/></g></g></g><g><g><g><path d="M28.07 130.88C28.34 129.69 28.02 128.7 27.62 127.67 27.64 127.66 27.65 127.66 27.67 127.65 28.03 127.53 28.44 127.46 28.99 127.42 29 127.42 29.01 127.42 29.02 127.42 28.92 128.34 28.75 129.25 28.64 130.17 28.49 131.39 28.27 132.66 28.36 133.89 28.42 134.68 28.72 135.32 29.5 135.61 30.65 136.04 31.91 136.09 32.88 136.93 33.61 137.56 34.23 138.37 35.09 138.84 35.99 139.32 37 139.52 38.01 139.6 39.22 139.7 40.44 139.77 41.66 139.68 42.61 139.61 43.77 139.53 44.6 139 44.82 138.86 45 138.7 45.13 138.5 45.13 138.64 45.14 138.78 45.13 138.93 45.12 138.97 45.15 140.29 45.13 140.33 43.49 141.72 39.38 141.3 38.58 141.21 37.66 141.11 34.7 140.56 33.97 139.92 33.21 139.26 32.57 138.43 31.61 138.02 30.6 137.59 29.44 137.52 28.46 137.02 28.27 136.92 28.11 136.81 27.95 136.69 27.51 136.22 27.47 135.39 27.45 134.72 27.57 133.43 27.78 132.15 28.07 130.88Z" fill="#A84F21" opacity="0.4"/></g></g></g><g><g><g><g><path d="M28.67 136.34C29.39 136.56 30.14 136.55 30.87 136.71 31.83 136.92 32.64 137.36 33.42 137.95 34.13 138.49 34.81 139.09 35.64 139.43 37.33 140.14 39.33 140.23 41.14 140.18 42.51 140.14 43.93 139.95 45.13 139.26 45.13 139.67 45.15 140.3 45.13 140.32 43.49 141.71 39.38 141.29 38.58 141.2 37.66 141.1 34.7 140.55 33.97 139.91 33.21 139.25 32.57 138.42 31.61 138.01 30.6 137.58 29.44 137.51 28.46 137.01 28.27 136.91 28.11 136.8 27.95 136.68 27.56 136.27 27.49 135.57 27.46 134.95 27.67 135.26 28.03 136.15 28.67 136.34Z" fill="#3B1C0C"/><path d="M40.84 141.42C40.11 141.42 39.35 141.38 38.58 141.29 37.82 141.21 34.71 140.67 33.93 139.98 33.71 139.79 33.5 139.59 33.3 139.39 32.79 138.9 32.27 138.38 31.6 138.1 31.15 137.91 30.65 137.78 30.17 137.66 29.59 137.52 28.99 137.37 28.45 137.09 28.27 137 28.1 136.89 27.93 136.75 27.52 136.32 27.44 135.64 27.4 134.96 27.4 134.92 27.42 134.89 27.46 134.88 27.49 134.87 27.53 134.88 27.55 134.91 27.59 134.97 27.64 135.05 27.69 135.15 27.9 135.53 28.22 136.1 28.71 136.25 29.12 136.37 29.54 136.42 29.96 136.47 30.27 136.51 30.6 136.55 30.91 136.62 31.81 136.82 32.63 137.22 33.49 137.87 33.61 137.96 33.73 138.06 33.85 138.15 34.42 138.6 35.01 139.06 35.69 139.35 36.91 139.86 38.39 140.1 40.33 140.1L40.33 140.1C40.59 140.1 40.86 140.1 41.16 140.09 42.23 140.06 43.81 139.93 45.11 139.18 45.13 139.17 45.17 139.17 45.19 139.18 45.22 139.19 45.23 139.22 45.23 139.25L45.23 139.53C45.24 140.31 45.24 140.32 45.22 140.35 45.22 140.36 45.21 140.37 45.2 140.38 44.18 141.24 42.27 141.42 40.84 141.42ZM27.57 135.31C27.62 135.83 27.72 136.32 28.02 136.64 28.18 136.76 28.34 136.87 28.51 136.95 29.03 137.22 29.62 137.36 30.2 137.51 30.69 137.63 31.19 137.76 31.65 137.95 32.35 138.25 32.89 138.77 33.4 139.28 33.6 139.48 33.81 139.68 34.02 139.87 34.72 140.48 37.61 141.03 38.59 141.14 39.36 141.22 40.12 141.27 40.84 141.27 42.23 141.27 44.08 141.1 45.06 140.3 45.06 140.2 45.06 139.83 45.06 139.56L45.06 139.42C43.75 140.13 42.21 140.25 41.16 140.28 40.86 140.29 40.59 140.29 40.33 140.29L40.33 140.29C38.36 140.29 36.87 140.05 35.62 139.52 34.92 139.23 34.32 138.76 33.74 138.3 33.62 138.21 33.5 138.11 33.38 138.02 32.54 137.38 31.74 136.99 30.87 136.8 30.56 136.73 30.24 136.69 29.93 136.65 29.51 136.6 29.08 136.55 28.66 136.42 28.13 136.26 27.8 135.71 27.57 135.31Z" fill="#240B0F"/></g></g></g></g><g><g><g><path d="M38.39 140.1C39.31 140.2 40.25 140.21 41.15 140.18 41.46 140.17 41.77 140.15 42.09 140.12 42.11 140.51 42.15 140.89 42.17 141.27 40.62 141.41 39.06 141.25 38.59 141.2 38.54 141.19 38.48 141.19 38.41 141.18 38.41 140.83 38.41 140.46 38.39 140.1Z" fill="#3B1C0C"/><path d="M28.67 136.34C29.39 136.56 30.14 136.55 30.87 136.71 31.25 136.79 31.6 136.91 31.94 137.06 31.99 137.39 32.08 137.73 32.11 138.04 32.12 138.12 32.12 138.21 32.13 138.29 31.97 138.19 31.8 138.09 31.62 138.02 30.61 137.59 29.45 137.52 28.47 137.02 28.28 136.92 28.12 136.81 27.96 136.69 27.57 136.28 27.5 135.58 27.47 134.96 27.67 135.26 28.03 136.15 28.67 136.34Z" fill="#3B1C0C"/></g></g></g></g><g><g><g><g><g><path d="M24 30.14C24.49 31.09 26.21 31.13 27.11 31.15 27.77 31.16 28.47 31.16 29.09 30.91 29.68 30.67 30.1 30.26 30.42 29.75 30.13 29.22 30.12 25.99 30.15 25.45L24.6 26.29C24.64 26.99 24.61 29.69 24 30.14Z" fill="#F1BA95"/><path d="M27.48 31.23C27.35 31.23 27.23 31.23 27.1 31.23 26.17 31.21 24.44 31.18 23.92 30.18 23.9 30.14 23.91 30.1 23.94 30.08 24.48 29.69 24.56 27.19 24.5 26.3 24.5 26.26 24.53 26.22 24.57 26.21L30.12 25.37C30.14 25.37 30.17 25.37 30.19 25.39 30.21 25.41 30.22 25.43 30.22 25.46 30.18 26 30.2 29.21 30.48 29.72 30.49 29.75 30.49 29.78 30.48 29.8 30.12 30.38 29.67 30.77 29.11 30.99 28.58 31.2 27.99 31.23 27.48 31.23ZM24.1 30.16C24.61 31.02 26.29 31.05 27.1 31.07 27.22 31.07 27.35 31.07 27.48 31.07 27.97 31.07 28.54 31.04 29.05 30.84 29.56 30.63 29.98 30.28 30.32 29.75 30.04 29.1 30.03 26.25 30.06 25.55L24.68 26.37C24.71 26.97 24.71 29.57 24.1 30.16Z" fill="#E19770"/></g><g><path d="M39.75 33.95C39.27 32.95 39.23 32.26 38.72 31.27 38.2 31.2 35.83 30.75 35.31 30.73 34.39 30.69 33.46 30.69 32.54 30.59 31.84 30.51 31.08 30.41 30.49 30.01 30.43 29.97 30.45 29.9 30.49 29.87 30.45 29.81 30.41 29.75 30.38 29.69L24.36 29.69C24.25 29.93 24.08 30.12 23.85 30.23 22.75 30.76 15.01 30.4 13.92 32.36L4 128.7C4 128.7 12.61 130.25 18.57 131.43L36.17 131.43C42.13 130.26 51.03 128.7 51.03 128.7 51.03 128.7 45.23 45.4 39.75 33.95Z" fill="#7D9DA3"/><path d="M36.17 131.51 18.57 131.51C12.66 130.35 4.07 128.8 3.98 128.78 3.94 128.77 3.91 128.73 3.91 128.69L13.83 32.35C13.83 32.34 13.83 32.33 13.84 32.32 14.59 30.96 18.34 30.69 21.08 30.49 22.36 30.4 23.46 30.32 23.81 30.15 24.01 30.06 24.17 29.89 24.28 29.65 24.29 29.62 24.32 29.6 24.35 29.6L30.37 29.6C30.4 29.6 30.43 29.62 30.44 29.65 30.47 29.71 30.5 29.76 30.54 29.82 30.55 29.84 30.56 29.86 30.55 29.88 30.55 29.9 30.53 29.92 30.51 29.93 31.07 30.32 31.78 30.42 32.53 30.5 33.18 30.57 33.85 30.59 34.5 30.61 34.76 30.62 35.03 30.62 35.29 30.64 35.76 30.66 38.13 31.11 38.71 31.18 38.74 31.18 38.76 31.2 38.77 31.22 39.29 32.22 39.53 32.85 39.9 33.85 44.06 45.01 45.61 64.31 47.62 85.78 49.57 106.55 51.06 128.47 51.08 128.68 51.08 128.72 51.05 128.76 51.01 128.77 50.92 128.79 42.05 130.34 36.16 131.49 36.18 131.51 36.17 131.51 36.17 131.51ZM4.09 128.64C4.95 128.8 12.99 130.25 18.59 131.35L36.16 131.35C41.77 130.25 50.07 128.79 50.94 128.64 50.69 125.73 45.02 45.14 39.68 33.99 39.23 33.04 39.18 32.34 38.67 31.35 38.11 31.28 35.76 30.83 35.31 30.82 35.05 30.81 34.79 30.8 34.52 30.79 33.87 30.77 33.2 30.75 32.54 30.68 31.77 30.6 31.04 30.49 30.45 30.09 30.4 30.06 30.38 30.01 30.38 29.95 30.38 29.92 30.39 29.89 30.4 29.87 30.38 29.84 30.36 29.81 30.35 29.77L24.43 29.77C24.3 30.02 24.12 30.2 23.9 30.3 23.52 30.48 22.46 30.56 21.11 30.66 18.42 30.86 14.74 31.12 14.01 32.39L4.09 128.64Z" fill="#4F6B70"/></g><g><path d="M39.75 33.95C39.27 32.95 39.23 32.26 38.72 31.27 38.2 31.2 35.83 30.75 35.31 30.73 34.39 30.69 33.46 30.69 32.54 30.59 31.84 30.51 31.08 30.41 30.49 30.01 30.43 29.97 30.45 29.9 30.49 29.87 30.45 29.81 30.41 29.75 30.38 29.69L24.36 29.69C24.25 29.93 24.08 30.12 23.85 30.23 22.75 30.76 15.01 30.4 13.92 32.36L4 128.7C4 128.7 12.61 130.25 18.57 131.43L36.17 131.43C42.13 130.26 51.03 128.7 51.03 128.7 51.03 128.7 45.23 45.4 39.75 33.95ZM36.72 123.09C35.87 124.94 34.76 126.82 33.09 128.05 32.5 128.48 31.68 129.07 30.89 128.97 30.18 128.88 29.8 128.29 29.68 127.62 29.5 126.63 29.75 125.61 29.96 124.65 30.22 123.47 31.31 115.78 31.73 113.15 32.15 110.52 32.6 107.89 33.04 105.26 33.6 101.92 34.15 98.58 34.61 95.23 34.69 94.04 34.76 92.84 34.82 91.65 34.36 93.81 33.87 95.96 33.36 98.1 32.13 103.25 30.77 108.36 29.55 113.51 29.29 114.59 27.39 123.13 26.56 125.3 26.21 126.22 25.87 127.25 25.32 128.07 25.01 128.53 24.59 128.89 24.09 129.12 22.9 129.67 21.51 129.65 20.23 129.47 18.7 129.25 17.2 128.8 15.8 128.17 14.71 127.69 13.48 127.1 12.68 126.18 11.41 124.72 11.15 122.7 10.91 120.85 10.46 117.36 10.04 98.03 9.99 96.01 9.92 93.17 15.63 107.91 17.22 112.77 17.6 113.94 18 115.12 18.42 116.29 18.55 116.62 18.67 116.95 18.79 117.28 18.83 117.4 18.88 117.52 18.92 117.65 19.33 118.73 19.78 119.8 20.26 120.85 20.78 121.83 21.33 122.79 21.92 123.74 21.98 123.83 21.84 123.91 21.78 123.82 21.72 123.73 21.66 123.63 21.6 123.53 21.86 124 22.13 124.47 22.42 124.94 20.85 120.96 19.81 116.79 18.98 112.59 18.07 108.01 17.26 103.41 16.53 98.8 15.06 89.56 14 80.24 13.76 70.89 13.01 64.78 12.56 58.62 13.02 52.49 12.97 51.55 12.96 50.62 12.97 49.68 13.06 44.97 13.91 40.31 14.31 35.62 14.27 34.28 14.3 32.91 15.67 32.21 16.58 31.75 17.61 31.49 18.61 31.3 19.67 31.1 20.75 30.97 21.83 30.93 22.31 30.91 22.84 30.84 23.31 30.97 23.78 31.09 24.18 31.32 24.57 31.6 25.19 32.06 25.57 32.77 25.76 33.55 26.06 34.82 25.85 43.35 25.9 46.31 25.96 49.83 26.17 53.36 26.1 56.88 26.47 57.34 26.84 57.79 27.24 58.22 27.95 57.67 28.62 57.05 29.19 56.36 29.29 52.87 28.99 49.39 28.93 45.9 28.86 41.94 28.71 37.99 28.71 34.03 28.71 33.98 29.1 32.98 29.53 32.55 30.14 31.94 30.9 31.48 31.67 31.1 32.27 30.8 35.58 31.18 35.92 31.73 36.38 32.49 36.92 33.19 37.34 33.97 37.8 34.82 38.18 35.7 38.47 36.61 38.49 36.68 38.41 36.74 38.35 36.7 37.71 36.31 37.05 35.95 36.39 35.59 37.11 36.82 37.63 38.18 38.09 39.48 39.51 43.47 40.38 47.64 40.67 51.86 40.88 52.92 40.97 54.01 41.03 55.09 41.11 56.68 41.19 58.26 41.29 59.85 41.52 63.25 41.72 66.64 41.87 70.04 42.11 75.38 42.23 80.73 42.17 86.07 42.16 87.19 42.14 88.3 42.11 89.42 42.52 98.61 41.65 107.95 38.99 116.78 38.36 118.91 37.65 121.06 36.72 123.09Z" fill="#CEDADD"/></g><g><path d="M49.99 127.9C48.83 127.35 47.77 126.56 46.86 125.66 46.36 125.16 45.88 124.62 45.52 124 45.16 123.37 44.99 122.69 44.94 121.97 44.86 120.82 44.98 119.68 45.08 118.53 45.19 117.29 45.14 116.03 45.17 114.78 45.3 109.46 45.52 104.15 45.66 98.83 45.84 92.24 45.97 85.65 46 79.05 45.23 72.44 44.41 65.88 43.57 59.85 43.79 65.47 43.88 71.1 43.88 76.73 43.88 86 43.64 95.28 43.37 104.54 43.29 107.39 43.14 110.25 42.76 113.08 42.39 115.87 41.82 118.67 40.74 121.28 39.79 123.56 38.43 125.74 36.4 127.21 34.17 128.83 31.43 129.34 28.72 129.14 28.67 129.14 28.64 129.11 28.64 129.06 28.42 127.43 28.81 125.75 29.19 124.17 29.6 122.47 29.94 120.76 30.33 119.06 30.77 117.15 31.29 115.24 31.72 113.32 31.73 113.26 31.74 113.2 31.75 113.14 31.84 112.56 31.93 111.99 32.03 111.41 30.87 115.3 29.52 119.14 28.29 123 27.78 124.6 27.57 126.27 26.94 127.84 26.67 128.51 26.35 129.21 25.84 129.74 25.28 130.31 24.55 130.48 23.77 130.54 22.17 130.65 20.5 130.59 18.9 130.47 17.3 130.35 15.66 130.11 14.16 129.5 12.91 128.98 11.66 128.14 11.16 126.82 10.41 124.83 10.6 122.63 10.45 120.55 10.27 117.96 9.9 115.39 9.7 112.8 9.64 112.07 9.59 111.34 9.55 110.61 9.46 112.34 9.39 114.07 9.37 115.8 9.33 119.82 9.85 123.91 9.15 127.9 9.14 127.95 9.07 127.97 9.03 127.95 7.43 127.03 6.44 125.51 6.29 123.67 6.19 122.37 6.27 121.03 6.34 119.73 6.42 118.43 6.54 117.12 6.68 115.83 6.96 113.21 7.26 110.6 7.49 107.98 7.73 105.32 7.96 102.65 8.22 99.99 8.73 94.72 9.31 89.45 10.18 84.23 10.19 84.15 10.31 84.16 10.34 84.23 10.78 85.61 11.12 87.02 11.41 88.43 11.93 90.91 12.35 93.41 13.09 95.83 13.8 98.12 14.53 100.39 15.19 102.7 15.8 104.83 16.4 106.98 17.1 109.09 16.09 104.27 15.29 99.41 14.57 94.53 13.81 89.44 13.08 84.34 12.39 79.24 12.04 76.64 11.73 74.03 11.53 71.41 11.33 68.9 11.19 66.37 11.31 63.86 11.48 60.33 12.03 56.69 11.8 53.14L4 128.7C4 128.7 12.61 130.25 18.57 131.43L36.17 131.43C42.13 130.26 51.03 128.7 51.03 128.7 51.03 128.7 51.02 128.56 50.99 128.28 50.64 128.19 50.3 128.05 49.99 127.9Z" fill="#CEDADD"/></g></g></g><g><path d="M28.3 56.49 27.39 57.44 26.48 56.49 26.48 30.51 28.3 30.51Z" fill="#E7EDEE"/><path d="M27.39 57.53C27.37 57.53 27.35 57.52 27.33 57.5L26.42 56.55C26.41 56.53 26.4 56.51 26.4 56.49L26.4 30.51C26.4 30.46 26.44 30.43 26.48 30.43L28.3 30.43C28.34 30.43 28.38 30.47 28.38 30.51L28.38 56.49C28.38 56.51 28.37 56.53 28.36 56.55L27.45 57.5C27.43 57.52 27.41 57.53 27.39 57.53ZM26.56 56.46 27.39 57.33 28.22 56.46 28.22 30.6 26.56 30.6 26.56 56.46Z" fill="#4F6B70"/></g><g><path d="M24.49 28.13 23.71 30.29C23.71 30.29 25.16 32.1 27.38 32.59L27.46 28.87 24.49 28.13Z" fill="#7D9DA3"/><path d="M27.38 32.67C27.37 32.67 27.37 32.67 27.36 32.67 25.14 32.18 23.66 30.36 23.64 30.34 23.62 30.32 23.62 30.29 23.63 30.26L24.41 28.1C24.42 28.06 24.47 28.04 24.51 28.05L27.48 28.78C27.52 28.79 27.54 28.82 27.54 28.86L27.46 32.58C27.46 32.6 27.45 32.63 27.43 32.64 27.42 32.67 27.4 32.67 27.38 32.67ZM23.8 30.27C24.01 30.52 25.36 32.02 27.3 32.49L27.38 28.93 24.54 28.23 23.8 30.27Z" fill="#4F6B70"/></g><g><path d="M30.2 28.13 30.98 30.29C30.98 30.29 29.53 32.1 27.31 32.59L27.23 28.87 30.2 28.13Z" fill="#7D9DA3"/><path d="M27.31 32.67C27.29 32.67 27.27 32.66 27.26 32.65 27.24 32.63 27.23 32.61 27.23 32.59L27.15 28.87C27.15 28.83 27.17 28.8 27.21 28.79L30.18 28.06C30.22 28.05 30.26 28.07 30.28 28.11L31.06 30.27C31.07 30.3 31.06 30.33 31.05 30.35 31.03 30.37 29.55 32.19 27.33 32.68 27.32 32.67 27.31 32.67 27.31 32.67ZM27.31 28.93 27.39 32.49C29.34 32.02 30.68 30.52 30.89 30.27L30.15 28.23 27.31 28.93Z" fill="#4F6B70"/></g><g><g><path d="M27.9 33.55C27.9 33.83 27.67 34.07 27.38 34.07 27.1 34.07 26.86 33.84 26.86 33.55 26.86 33.27 27.09 33.03 27.38 33.03 27.67 33.03 27.9 33.26 27.9 33.55Z" fill="#E7EDEE"/><path d="M27.39 34.14C27.06 34.14 26.79 33.87 26.79 33.54 26.79 33.21 27.06 32.94 27.39 32.94 27.72 32.94 27.99 33.21 27.99 33.54 27.99 33.88 27.72 34.14 27.39 34.14ZM27.39 33.11C27.15 33.11 26.96 33.3 26.96 33.54 26.96 33.78 27.15 33.97 27.39 33.97 27.63 33.97 27.82 33.78 27.82 33.54 27.82 33.31 27.63 33.11 27.39 33.11Z" fill="#ADC1C5"/></g><g><path d="M27.9 39.11C27.9 39.39 27.67 39.63 27.38 39.63 27.1 39.63 26.86 39.4 26.86 39.11 26.86 38.83 27.09 38.59 27.38 38.59 27.67 38.59 27.9 38.82 27.9 39.11Z" fill="#E7EDEE"/><path d="M27.39 39.7C27.06 39.7 26.79 39.43 26.79 39.1 26.79 38.77 27.06 38.5 27.39 38.5 27.72 38.5 27.99 38.77 27.99 39.1 27.99 39.43 27.72 39.7 27.39 39.7ZM27.39 38.67C27.15 38.67 26.96 38.86 26.96 39.1 26.96 39.34 27.15 39.53 27.39 39.53 27.63 39.53 27.82 39.34 27.82 39.1 27.82 38.87 27.63 38.67 27.39 38.67Z" fill="#ADC1C5"/></g><g><path d="M27.9 44.66C27.9 44.94 27.67 45.18 27.38 45.18 27.1 45.18 26.86 44.95 26.86 44.66 26.86 44.37 27.09 44.14 27.38 44.14 27.67 44.15 27.9 44.38 27.9 44.66Z" fill="#E7EDEE"/><path d="M27.39 45.26C27.06 45.26 26.79 44.99 26.79 44.66 26.79 44.33 27.06 44.06 27.39 44.06 27.72 44.06 27.99 44.33 27.99 44.66 27.99 44.99 27.72 45.26 27.39 45.26ZM27.39 44.23C27.15 44.23 26.96 44.42 26.96 44.66 26.96 44.9 27.15 45.09 27.39 45.09 27.63 45.09 27.82 44.89 27.82 44.66 27.82 44.42 27.63 44.23 27.39 44.23Z" fill="#ADC1C5"/></g><g><path d="M27.9 50.22C27.9 50.5 27.67 50.74 27.38 50.74 27.1 50.74 26.86 50.51 26.86 50.22 26.86 49.94 27.09 49.7 27.38 49.7 27.67 49.71 27.9 49.94 27.9 50.22Z" fill="#E7EDEE"/><path d="M27.39 50.82C27.06 50.82 26.79 50.55 26.79 50.22 26.79 49.89 27.06 49.62 27.39 49.62 27.72 49.62 27.99 49.89 27.99 50.22 27.99 50.55 27.72 50.82 27.39 50.82ZM27.39 49.79C27.15 49.79 26.96 49.99 26.96 50.22 26.96 50.46 27.15 50.65 27.39 50.65 27.63 50.65 27.82 50.45 27.82 50.22 27.82 49.98 27.63 49.79 27.39 49.79Z" fill="#ADC1C5"/></g></g></g><g><path d="M29.95 40.67 37.72 39.79 38.37 46.67C38.37 46.67 36.41 48.69 34.33 49.71 34.33 49.71 30.73 48.47 30.45 47.28L29.95 40.67Z" fill="#7D9DA3"/><path d="M34.33 49.79C34.32 49.79 34.31 49.79 34.3 49.79 34.15 49.74 30.65 48.52 30.36 47.31L29.86 40.68C29.86 40.64 29.89 40.6 29.93 40.59L37.7 39.71C37.72 39.71 37.74 39.71 37.76 39.73 37.78 39.74 37.79 39.76 37.79 39.79L38.44 46.67C38.44 46.69 38.43 46.72 38.42 46.73 38.4 46.75 36.43 48.77 34.36 49.78 34.36 49.79 34.34 49.79 34.33 49.79ZM30.04 40.74 30.53 47.28C30.78 48.33 33.97 49.5 34.33 49.62 36.23 48.68 38.05 46.88 38.29 46.64L37.65 39.88 30.04 40.74Z" fill="#4F6B70"/></g><path d="M29.95 40.67 37.72 39.79 30.5 41.11C30.5 41.11 30.39 44.04 30.99 47.03 31.04 47.29 32.82 49.14 34.34 49.7 34.34 49.7 30.74 48.46 30.46 47.27L29.95 40.67Z" fill="#E7EDEE"/></g><g><path d="M13.92 88.18C13.2 83.22 12.34 78.27 11.99 73.27 11.81 70.76 11.7 68.25 11.59 65.73 11.54 64.53 11.47 63.32 11.37 62.12 11.27 60.84 11.37 59.53 11.33 58.24 11.33 58.19 11.25 58.25 11.25 58.28 11.26 59.49 11.19 60.7 11.2 61.91 11.2 63.03 11.31 64.15 11.35 65.26 11.44 67.79 11.51 70.32 11.65 72.85 11.94 77.97 12.81 83.03 13.52 88.1 14.23 93.1 15.05 98.07 16 103.03 16.98 108.12 18.03 113.2 19.55 118.16 19.59 118.29 19.77 118.13 19.74 118.03 16.99 108.3 15.38 98.19 13.92 88.18Z" fill="#C3C3C3" opacity="0.6"/><path d="M9.65 108.1C9.56 103.92 9.56 99.71 9.7 95.52 9.68 95.09 9.66 94.66 9.62 94.23 9.61 94.11 9.6 93.99 9.59 93.88 9.32 98.47 9.26 103.08 9.34 107.67 9.45 114.48 9.99 121.23 10.57 128.01 10.58 128.11 10.72 127.99 10.72 127.92 10.34 121.3 9.8 114.73 9.65 108.1Z" fill="#C3C3C3" opacity="0.6"/><path d="M44.92 79.9C44.97 77.4 44.93 74.88 44.82 72.38 44.77 71.15 44.64 69.93 44.54 68.71 44.44 67.46 44.5 66.22 44.23 64.98 44.22 64.92 44.14 64.99 44.15 65.03 44.36 66.19 44.27 67.35 44.33 68.52 44.39 69.76 44.5 70.99 44.57 72.23 44.7 74.92 44.71 77.63 44.64 80.32 44.51 85.59 44.84 90.85 44.75 96.13 44.66 101.35 44.34 106.56 44.2 111.78 44.07 117.01 43.86 122.26 43.23 127.46 43.21 127.6 43.4 127.48 43.41 127.39 43.84 124.79 43.97 122.15 44.15 119.52 44.33 116.9 44.42 114.29 44.49 111.67 44.63 106.34 44.96 101.02 45.05 95.69 45.13 90.43 44.8 85.17 44.92 79.9Z" fill="#C3C3C3" opacity="0.6"/><path d="M33.54 100.64C32.07 110.24 29.85 119.66 26.71 128.86 26.62 129.11 26.95 129 27 128.83 30.2 119.65 32.26 110.21 33.63 100.6 33.65 100.53 33.55 100.59 33.54 100.64Z" fill="#C3C3C3" opacity="0.6"/></g><path d="M17.71 97.58C17.53 96.66 17.55 95.64 17.47 94.7 17.31 92.72 17.04 90.7 16.76 88.73 16.16 84.52 15.76 80.29 15.34 76.06 14.96 72.25 14.63 68.44 14.49 64.61 14.42 62.71 14.31 60.81 14.22 58.91 14.13 56.9 14.34 54.83 14.1 52.83 14.09 52.76 13.99 52.85 14 52.89 14.15 54.84 13.9 56.86 13.89 58.82 13.88 60.75 13.94 62.69 13.99 64.62 14.04 66.52 13.99 68.44 14.15 70.33 14.32 72.38 14.48 74.42 14.68 76.47 15.07 80.6 15.43 84.74 16.03 88.85 16.32 90.82 16.54 92.79 16.88 94.76 17.04 95.68 17.15 96.61 17.3 97.53 17.46 98.51 17.83 99.46 18.01 100.45 18.03 100.54 18.15 100.43 18.14 100.37 18.05 99.43 17.89 98.5 17.71 97.58Z" fill="#FFFFFF"/><path d="M12.21 118.43C12.11 116.17 11.92 113.93 11.75 111.67 11.6 109.67 11.47 107.67 11.33 105.67 11.2 103.77 11.23 101.8 10.88 99.92 10.86 99.81 10.71 99.95 10.72 100.02 10.86 102.01 10.72 104.04 10.74 106.04 10.76 108.08 10.88 110.1 11.02 112.13 11.18 114.35 11.4 116.54 11.72 118.74 12.04 120.93 12.1 123.15 12.43 125.34 12.45 125.49 12.64 125.3 12.64 125.21 12.64 122.94 12.31 120.69 12.21 118.43Z" fill="#FFFFFF"/><path d="M36.99 89.69C36.75 92.33 36.45 94.98 35.97 97.59 35.47 100.31 34.75 102.96 34.39 105.71 34.04 108.34 33.33 110.95 32.79 113.55 32.22 116.27 31.78 119.01 31.22 121.73 31.19 121.87 31.39 121.77 31.41 121.69 32.15 119.13 32.76 116.52 33.36 113.92 33.98 111.22 34.64 108.5 35.05 105.76 35.24 104.49 35.36 103.23 35.62 101.96 35.9 100.56 36.17 99.15 36.4 97.73 36.83 95.07 36.98 92.33 37.15 89.64 37.15 89.51 37 89.61 36.99 89.69Z" fill="#FFFFFF"/></g><g><path d="M51.15 51.76C51.16 51.78 51.2 51.81 51.22 51.78 51.23 51.77 51.24 51.76 51.25 51.75 51.25 51.75 51.25 51.74 51.25 51.74 51.9 52.52 52.55 53.49 52.43 54.49 52.12 53.45 51.43 52.42 50.74 51.76 50.1 51.15 49.4 50.66 48.64 50.3 48.54 50.2 48.43 50.11 48.32 50.03 49.44 50.28 50.53 50.75 51.15 51.76Z" fill="#89AAB0"/><path d="M35.62 49.54C35.65 49.43 35.69 49.32 35.72 49.21 35.96 48.79 36.5 48.93 37.06 49.24 37.62 49.21 38.17 49.19 38.73 49.18 38.87 49.19 39.02 49.18 39.16 49.17 39.16 49.17 39.16 49.17 39.16 49.18 40.15 49.17 41.14 49.2 42.14 49.24 42.5 49.25 42.85 49.27 43.21 49.29 43.21 49.29 43.21 49.29 43.21 49.29 44.04 49.36 44.87 49.42 45.68 49.57 46.7 49.76 47.7 50.07 48.7 50.36 49.43 50.72 50.12 51.19 50.74 51.79 51.5 52.52 52.28 53.72 52.52 54.87 52.52 54.73 52.51 54.6 52.5 54.46 52.61 54.79 52.7 55.13 52.75 55.48 52.71 56.03 52.63 56.56 52.48 57.05 52.18 58.04 51.62 58.76 50.9 59.37 49.56 60.81 47.44 61.37 45.55 61.77 43.61 62.18 41.55 62.64 39.52 62.78 39.26 63.09 38.96 63.36 38.55 63.44 38.36 63.48 38.18 63.34 38.03 63.16 37.98 63.07 37.94 62.98 37.88 62.89 37.77 62.7 37.68 62.5 37.6 62.3 36.94 60.45 36.49 58.54 36.12 56.61 35.69 54.39 35.63 52.11 35.6 49.85 35.6 49.73 35.61 49.63 35.62 49.54Z" fill="#4E6F75"/><path d="M35.82 50.24C35.83 50.7 35.88 51.18 35.89 51.64 35.91 53.24 36.06 54.81 36.3 56.39 36.53 57.87 36.93 59.33 37.32 60.77 37.48 61.38 37.68 62.04 37.97 62.61 37.98 62.61 37.98 62.61 37.99 62.61 38.02 62.68 38.06 62.75 38.11 62.81 38.1 62.81 38.09 62.81 38.08 62.81 38.16 62.94 38.26 63.01 38.37 63.03 38.5 63.09 38.66 63.11 38.84 63.04 39.16 62.92 39.32 62.62 39.62 62.47 39.7 62.43 39.78 62.39 39.86 62.35 39.84 62.38 39.82 62.4 39.81 62.42 41.48 62.23 43.14 61.98 44.8 61.64 46.46 61.3 48.27 60.88 49.76 59.99 49.76 59.98 49.76 59.97 49.77 59.96 50.78 59.13 51.72 58.38 52.18 57.1 52.36 56.6 52.46 56.07 52.51 55.52 52.46 55.3 52.4 55.09 52.33 54.87 52.24 54.21 51.9 53.55 51.49 53.02 51.14 52.47 50.73 51.96 50.21 51.51 49.85 51.2 49.44 50.93 49.02 50.7 49.13 50.84 49.24 50.99 49.35 51.13 49.91 51.85 50.39 52.61 50.84 53.4 51.11 53.87 51.32 54.38 51.57 54.86 51.84 55.4 51.95 55.16 51.93 54.67 51.93 54.62 51.92 54.57 51.92 54.53 52.02 54.86 52.05 55.21 52 55.53 51.53 55.45 50.22 52.67 50.05 52.41 49.75 51.92 49.41 51.47 49.06 51.01 48.86 50.75 48.66 50.56 48.44 50.41 48.31 50.35 48.17 50.29 48.04 50.24 47.37 49.98 46.64 49.95 45.96 49.77 45.95 49.77 45.95 49.76 45.94 49.75 45.15 49.64 44.36 49.55 43.56 49.51 42.1 49.44 40.65 49.41 39.2 49.4 39.18 49.4 39.17 49.39 39.15 49.39 39.09 49.39 39.02 49.39 38.96 49.4 38.44 49.4 37.92 49.4 37.4 49.4 37.75 49.62 38.07 49.86 38.29 50.03 38.32 50.05 38.32 50.11 38.27 50.08 38.06 49.95 37.56 49.61 37.08 49.4L37.05 49.4C36.89 49.28 36.74 49.16 36.54 49.11 36.32 49.06 36.05 49.18 35.95 49.38 35.78 49.66 35.78 49.95 35.82 50.24Z" fill="#7EA2A9"/><g opacity="0.4"><path d="M35.82 50.24C35.83 50.7 35.88 51.18 35.89 51.64 35.91 53.24 36.06 54.81 36.3 56.39 36.53 57.87 36.93 59.33 37.32 60.77 37.48 61.38 37.68 62.04 37.97 62.61 37.98 62.61 37.98 62.61 37.99 62.61 38.02 62.68 38.06 62.75 38.11 62.81 38.1 62.81 38.09 62.81 38.08 62.81 38.16 62.94 38.26 63.01 38.37 63.03 38.5 63.09 38.66 63.11 38.84 63.04 39.16 62.92 39.32 62.62 39.62 62.47 39.7 62.43 39.78 62.39 39.86 62.35 39.84 62.38 39.82 62.4 39.81 62.42 41.48 62.23 43.14 61.98 44.8 61.64 46.46 61.3 48.27 60.88 49.76 59.99 49.76 59.98 49.76 59.97 49.77 59.96 50.78 59.13 51.72 58.38 52.18 57.1 52.36 56.6 52.46 56.07 52.51 55.52 52.46 55.3 52.4 55.09 52.33 54.87 52.24 54.21 51.9 53.55 51.49 53.02 51.14 52.47 50.73 51.96 50.21 51.51 49.85 51.2 49.44 50.93 49.02 50.7 49.13 50.84 49.24 50.99 49.35 51.13 49.91 51.85 50.39 52.61 50.84 53.4 51.11 53.87 51.32 54.38 51.57 54.86 51.84 55.4 51.95 55.16 51.93 54.67 51.93 54.62 51.92 54.57 51.92 54.53 52.02 54.86 52.05 55.21 52 55.53 51.53 55.45 50.22 52.67 50.05 52.41 49.75 51.92 49.41 51.47 49.06 51.01 48.86 50.75 48.66 50.56 48.44 50.41 48.31 50.35 48.17 50.29 48.04 50.24 47.37 49.98 46.64 49.95 45.96 49.77 45.95 49.77 45.95 49.76 45.94 49.75 45.15 49.64 44.36 49.55 43.56 49.51 42.1 49.44 40.65 49.41 39.2 49.4 39.18 49.4 39.17 49.39 39.15 49.39 39.09 49.39 39.02 49.39 38.96 49.4 38.44 49.4 37.92 49.4 37.4 49.4 37.75 49.62 38.07 49.86 38.29 50.03 38.32 50.05 38.32 50.11 38.27 50.08 38.06 49.95 37.56 49.61 37.08 49.4L37.05 49.4C36.89 49.28 36.74 49.16 36.54 49.11 36.32 49.06 36.05 49.18 35.95 49.38 35.78 49.66 35.78 49.95 35.82 50.24ZM38.68 50.49C39.8 50.84 40.66 51.64 41.42 52.54 41.21 52.22 41.02 51.9 40.88 51.55 40.45 50.47 41.51 50.43 42.31 50.54 44.03 50.77 45.7 50.65 47.41 50.7 48.1 50.72 48.62 50.96 49.03 51.36 49.08 51.36 49.12 51.38 49.15 51.43 49.18 51.49 49.22 51.55 49.25 51.6 49.42 51.81 49.57 52.05 49.71 52.31 50.53 53.52 51.47 54.74 51.49 56.23 51.49 56.39 51.29 56.42 51.21 56.31 50.49 55.28 49.82 54.15 48.83 53.36 49.37 54.21 50.07 54.94 50.25 55.97 50.42 56.99 49.52 57.77 48.75 58.25 46.4 59.73 43.32 60.39 40.58 60.29 40.52 60.29 40.45 60.25 40.44 60.18 40.33 59.52 40.4 58.87 40.43 58.2 40.48 57.29 40.36 56.37 40.23 55.47 40.12 54.66 39.95 53.88 39.71 53.1 39.43 52.22 38.87 51.55 38.5 50.72 38.46 50.59 38.54 50.44 38.68 50.49Z" fill="#7EA2A9"/></g><g><path d="M35.9 49.4C36 49.19 36.27 49.08 36.49 49.13 36.5 49.13 36.52 49.14 36.53 49.14 37.89 50.54 38.61 52.41 38.97 54.33 39.21 55.61 39.35 56.9 39.35 58.21 39.36 59.25 39.18 60.34 39.4 61.37 39.43 61.49 39.57 61.5 39.65 61.44 40.39 60.84 41.33 61.07 42.2 61.08 42.85 61.09 43.49 61.07 44.14 61 45.37 60.87 46.59 60.64 47.76 60.23 49.22 59.72 50.63 58.99 51.75 57.95 51.24 58.75 50.52 59.34 49.75 59.97 49.74 59.98 49.74 59.99 49.74 60 48.25 60.89 46.43 61.31 44.78 61.65 43.12 61.99 41.46 62.24 39.79 62.43 39.81 62.4 39.83 62.38 39.84 62.36 39.76 62.4 39.68 62.44 39.6 62.48 39.3 62.63 39.14 62.93 38.82 63.05 38.64 63.12 38.48 63.11 38.35 63.04 38.25 63.01 38.15 62.95 38.06 62.82 38.07 62.82 38.08 62.82 38.09 62.82 38.04 62.76 38.01 62.69 37.97 62.62 37.97 62.62 37.96 62.62 37.95 62.62 37.66 62.05 37.46 61.39 37.3 60.78 36.92 59.34 36.51 57.88 36.28 56.4 36.04 54.82 35.88 53.25 35.87 51.65 35.86 51.19 35.81 50.72 35.8 50.25 35.78 49.95 35.78 49.66 35.9 49.4Z" fill="#7EA2A9" opacity="0.4"/></g><g><path d="M28.63 50.82C29.03 50.27 29.79 50 30.38 49.71 30.61 49.6 30.87 49.55 31.14 49.52 30.79 49.41 30.43 49.31 30.09 49.15 29.9 49.06 29.64 48.86 29.57 48.65 29.19 47.58 30.42 48.14 30.91 48.23 31.57 48.35 32.27 48.36 32.94 48.34 33.4 48.33 33.91 48.72 34.33 48.87 35.15 49.16 35.83 49.63 36.35 50.29 36.5 50.32 36.66 50.35 36.81 50.36 36.86 50.36 36.91 50.37 36.96 50.38 36.96 50.38 36.96 50.38 36.96 50.38 37.02 50.44 37.08 50.5 37.14 50.56 37.67 51.5 38.07 52.53 38.27 53.6 38.26 53.82 38.25 54.05 38.22 54.27 38.2 54.17 38.19 54.07 38.17 53.97 37.73 54 37.23 53.91 36.82 53.9 36.53 53.89 36.35 54.15 36.14 54.32 35.9 54.52 35.62 54.66 35.33 54.79 34.74 55.05 34.08 55.14 33.44 55.16 32.96 55.18 32.49 55.08 32.01 55.12 31.64 55.15 31.31 55.31 30.98 55.48 30.3 56.07 30.76 57.37 29.99 58.01 29.68 58.27 29.47 58.09 29.34 57.76 29.15 57.28 29.13 56.82 29.18 56.35 29.16 56.34 29.14 56.32 29.13 56.29 29.05 55.99 28.74 55.84 28.67 55.52 28.62 55.25 28.5 54.87 28.61 54.59 28.59 54.58 28.57 54.56 28.57 54.54 28.52 54.42 28.48 54.3 28.46 54.19 28.09 53.91 27.56 53.4 27.58 52.89 27.6 52.14 28.09 51.4 28.63 50.82Z" fill="#E19770"/><path d="M28.42 54.03C28.35 53.44 28.61 52.96 28.98 52.51 28.96 52.49 28.94 52.47 28.94 52.45 28.93 52.35 28.93 52.23 28.95 52.12 28.95 52.12 28.95 52.12 28.95 52.12 28.98 52.08 29.01 52.05 29.04 52.02 29.04 52.02 29.04 52.02 29.04 52.02 29.06 52.15 29.07 52.29 29.07 52.42 29.47 51.97 29.97 51.55 30.36 51.1 30.41 51.09 30.47 51.07 30.52 51.06 29.72 52.16 28.11 53.02 28.67 54.51 28.89 54.09 29.18 53.74 29.52 53.4 29.9 53 30.44 52.68 30.73 52.21 30.76 52.2 30.78 52.19 30.81 52.17 30.81 52.17 30.81 52.18 30.81 52.18 30.5 52.85 29.77 53.34 29.28 53.88 28.85 54.35 28.65 54.78 28.77 55.41 28.83 55.76 29.07 55.92 29.2 56.18 29.24 55.92 29.29 55.66 29.34 55.39 29.51 54.51 30.41 54.18 31.01 53.6 31.07 53.58 31.13 53.56 31.18 53.53 30.93 53.9 30.61 54.17 30.23 54.44 29.44 54.97 29.36 55.85 29.27 56.73 29.24 57.07 29.39 57.34 29.45 57.66 29.46 57.67 29.47 57.67 29.47 57.67 29.49 57.75 29.53 57.83 29.6 57.88 29.79 58.02 29.98 57.81 30.05 57.65 30.08 57.59 30.1 57.52 30.11 57.46 30.23 57.22 30.31 56.94 30.38 56.69 30.48 56.3 30.42 55.94 30.56 55.65 30.68 55.53 30.82 55.43 30.96 55.33 31.33 55.14 31.73 54.97 32.15 54.98 33.06 55 33.89 55.06 34.78 54.83 35.16 54.73 35.51 54.56 35.84 54.35 36.03 54.22 36.3 53.85 36.51 53.79 37.02 53.66 37.58 53.88 38.12 53.89 37.88 52.72 37.51 51.62 37 50.52 36.97 50.52 36.95 50.51 36.92 50.51 36.76 50.5 36.61 50.49 36.46 50.47 36.48 50.5 36.49 50.53 36.51 50.55 36.34 50.4 36.16 50.25 35.98 50.11 35.51 49.66 35.01 49.31 34.33 49.06 34 48.94 33.68 48.84 33.36 48.67 33 48.49 32.62 48.52 32.22 48.52 31.72 48.51 31.19 48.48 30.69 48.37 30.29 48.14 29.7 47.86 29.68 48.4 29.67 48.75 30 48.97 30.31 49.09 30.32 49.1 30.34 49.1 30.36 49.11 30.41 49.13 30.45 49.14 30.49 49.16 30.56 49.18 30.64 49.2 30.71 49.22 30.8 49.24 30.89 49.27 30.98 49.29 31.01 49.3 31.04 49.3 31.07 49.31 31.1 49.32 31.14 49.33 31.17 49.33 31.32 49.37 31.47 49.43 31.62 49.5 32.09 49.51 32.57 49.58 33.01 49.61 32.69 49.65 32.38 49.67 32.07 49.68 32.03 49.68 31.99 49.68 31.96 49.68 31.96 49.68 31.97 49.68 31.97 49.68 31.94 49.68 31.9 49.68 31.87 49.68 31.79 49.68 31.71 49.68 31.63 49.68 31.62 49.68 31.61 49.67 31.61 49.67 31.29 49.67 30.97 49.7 30.66 49.79 30.01 49.97 29.14 50.43 28.7 50.96 28.69 50.97 28.68 50.97 28.68 50.96 28.48 51.25 28.3 51.54 28.14 51.85 27.99 52.14 27.84 52.45 27.76 52.77 27.63 53.23 28.09 53.73 28.42 54.03Z" fill="#F1BA95"/><path d="M28.63 50.82C29.03 50.27 29.79 50 30.38 49.71 30.61 49.6 30.87 49.55 31.14 49.52 30.79 49.41 30.43 49.31 30.09 49.15 29.9 49.06 29.64 48.86 29.57 48.65 29.4 48.16 29.56 48.01 29.83 48.01 30.1 48.46 30.46 48.89 30.99 49.02 31.63 49.19 32.55 49.45 33.15 49.72 32.14 49.68 30.99 49.6 30.02 50.03 29.3 50.35 28.64 50.82 28.77 51.68 28.78 51.75 28.88 51.81 28.95 51.78 29.47 51.57 29.98 51.35 30.49 51.13 30 51.71 29.38 52.15 29.37 53 29.37 53.1 29.47 53.17 29.56 53.14 29.86 53.05 30.14 52.89 30.38 52.7 30 53.12 29.55 53.49 29.45 54.08 29.43 54.18 29.52 54.31 29.63 54.26 29.9 54.16 30.14 53.96 30.42 53.88 30.49 53.86 31.09 53.52 31.15 53.5 30.66 53.82 29.7 54.59 29.66 55.14 29.65 55.26 29.79 55.32 29.89 55.27 30.51 54.95 31.05 54.37 31.73 54.18 32.42 53.99 33.12 53.97 33.83 53.86 34.65 53.74 35.9 53.5 36.13 52.53 36.36 51.57 35.96 50.51 35.34 49.76 35.02 49.38 34.67 49.09 34.3 48.85 35.12 49.14 35.79 49.6 36.3 50.27 36.45 50.3 36.61 50.33 36.76 50.34 36.81 50.34 36.86 50.35 36.91 50.36 36.91 50.36 36.91 50.36 36.91 50.36 36.97 50.42 37.03 50.48 37.09 50.54 37.62 51.48 38.02 52.51 38.22 53.58 38.21 53.8 38.2 54.03 38.17 54.25 38.15 54.15 38.14 54.05 38.12 53.95 37.68 53.98 37.18 53.89 36.77 53.88 36.48 53.87 36.3 54.13 36.09 54.3 35.85 54.5 35.57 54.64 35.28 54.77 34.69 55.03 34.03 55.12 33.39 55.14 32.91 55.16 32.44 55.06 31.96 55.1 31.59 55.13 31.26 55.29 30.93 55.46 30.25 56.05 30.71 57.35 29.94 57.99 29.63 58.25 29.42 58.07 29.29 57.74 29.1 57.26 29.08 56.8 29.13 56.33 29.11 56.32 29.09 56.3 29.08 56.27 29 55.97 28.69 55.82 28.62 55.5 28.57 55.23 28.45 54.85 28.56 54.57 28.54 54.56 28.52 54.54 28.52 54.52 28.47 54.4 28.43 54.28 28.41 54.17 28.04 53.89 27.51 53.38 27.53 52.87 27.6 52.14 28.09 51.4 28.63 50.82Z" fill="#E19770" opacity="0.5"/></g><path d="M36.64 49.62C37.69 51.2 38.1 52.56 38.48 54.39 38.95 56.62 38.92 59.24 38.71 61.51 38.71 61.55 38.66 61.5 38.66 61.48 38.81 57.55 38.47 53.17 36.59 49.64 36.57 49.59 36.62 49.59 36.64 49.62Z" fill="#6E979F"/></g><g><g><g><g><g><g><g><path d="M17.16 13.82C17.16 13.82 16.71 12.73 15.97 12.72 15.23 12.71 13.83 13.65 13.56 15.09 13.29 16.54 16.15 18.8 16.41 18.98 16.68 19.17 17.87 16.15 17.16 13.82Z" fill="#F1BA95"/><path d="M16.42 19.07 16.42 19.07C16.4 19.07 16.39 19.06 16.37 19.05 16.34 19.03 13.19 16.64 13.49 15.08 13.76 13.64 15.16 12.63 15.97 12.64 16.75 12.66 17.21 13.75 17.23 13.79 17.87 15.89 16.99 18.52 16.59 18.98 16.57 19.01 16.5 19.09 16.42 19.07ZM16.07 12.81C16.04 12.8 16 12.8 15.97 12.8 15.3 12.79 13.91 13.65 13.64 15.11 13.39 16.44 16.01 18.61 16.44 18.92 16.72 18.76 17.74 15.99 17.08 13.85 17.09 13.84 16.69 12.91 16.07 12.81Z" fill="#E19770"/></g></g><path d="M14.91 14.61C14.91 14.61 14.91 14.53 14.95 14.4 14.97 14.33 15 14.25 15.05 14.16 15.1 14.08 15.21 13.96 15.37 13.98 15.52 13.99 15.65 14.09 15.75 14.19 15.81 14.24 15.85 14.3 15.9 14.36 15.95 14.41 16 14.48 16.04 14.55 16.12 14.67 16.2 14.82 16.27 14.97 16.34 15.12 16.39 15.27 16.44 15.43 16.48 15.59 16.52 15.74 16.55 15.9 16.58 16.05 16.6 16.21 16.62 16.36 16.64 16.51 16.64 16.65 16.65 16.79 16.65 16.93 16.65 17.06 16.64 17.18 16.63 17.42 16.59 17.62 16.56 17.75 16.54 17.82 16.53 17.87 16.51 17.91 16.49 17.94 16.49 17.96 16.49 17.96 16.49 17.96 16.49 17.94 16.5 17.9 16.51 17.86 16.51 17.81 16.52 17.74 16.53 17.6 16.52 17.41 16.51 17.17 16.48 16.7 16.39 16.08 16.22 15.49 16.17 15.34 16.13 15.2 16.07 15.06 16.01 14.92 15.96 14.79 15.87 14.66 15.83 14.59 15.8 14.54 15.76 14.48 15.72 14.42 15.68 14.37 15.64 14.32 15.56 14.22 15.46 14.15 15.38 14.13 15.29 14.11 15.21 14.16 15.14 14.23 15.08 14.3 15.04 14.37 15.01 14.43 14.94 14.53 14.91 14.61 14.91 14.61Z" fill="#BB6736"/><path d="M15.04 16.38C15.04 16.38 15.15 16.45 15.3 16.54 15.34 16.56 15.38 16.59 15.42 16.61 15.46 16.64 15.51 16.66 15.56 16.69 15.61 16.71 15.66 16.74 15.71 16.76 15.76 16.78 15.81 16.8 15.86 16.8 15.91 16.81 15.96 16.81 16 16.81 16.02 16.8 16.04 16.8 16.07 16.8 16.09 16.79 16.11 16.78 16.13 16.77 16.17 16.76 16.21 16.72 16.24 16.7 16.28 16.68 16.3 16.63 16.33 16.61 16.39 16.55 16.43 16.48 16.46 16.44 16.49 16.4 16.51 16.37 16.51 16.37 16.51 16.37 16.51 16.4 16.5 16.45 16.49 16.5 16.49 16.59 16.44 16.67 16.42 16.71 16.41 16.77 16.36 16.81 16.32 16.85 16.29 16.91 16.22 16.94 16.19 16.96 16.16 16.98 16.13 16.99 16.09 17 16.06 17.01 16.02 17.02 15.95 17.03 15.87 17.03 15.8 17.02 15.73 17 15.66 16.98 15.6 16.95 15.54 16.92 15.49 16.88 15.43 16.85 15.33 16.78 15.25 16.7 15.19 16.62 15.09 16.5 15.04 16.38 15.04 16.38Z" fill="#BB6736"/><path d="M17.16 13.82C17.16 13.82 16.71 12.73 15.97 12.72 15.36 12.71 14.32 13.33 13.81 14.35 14.41 14.96 15.51 15.05 15.48 16.16 15.48 16.24 15.38 16.28 15.31 16.26 15.06 16.18 14.86 16.07 14.67 15.93 14.83 16.41 15.15 16.82 15.31 17.32 15.36 17.47 15.44 17.79 15.24 17.88 15.21 17.89 15.19 17.9 15.16 17.91 15.75 18.49 16.3 18.92 16.41 18.99 16.68 19.17 17.87 16.15 17.16 13.82Z" fill="#F0AF85" opacity="0.4"/></g><path d="M14.54 16.25C14.44 15.97 14.35 15.69 14.26 15.41 14.22 15.26 14.14 15.12 14.12 14.96 14.11 14.9 14.05 14.89 14 14.88 13.99 14.88 13.98 14.89 13.98 14.89 13.93 14.99 13.84 15.04 13.82 15.16 13.79 15.3 13.86 15.48 13.9 15.61 13.99 15.9 14.13 16.2 14.39 16.38 14.46 16.42 14.57 16.31 14.54 16.25Z" fill="#F1BA95" opacity="0.5"/></g><g><g><g><g><path d="M36.9 13.99C36.9 13.99 37.37 12.91 38.11 12.91 38.85 12.91 40.23 13.87 40.48 15.32 40.73 16.77 37.83 18.99 37.56 19.17 37.3 19.34 36.15 16.31 36.9 13.99Z" fill="#F1BA95"/><path d="M37.52 19.25C37.45 19.24 37.38 19.17 37.3 19.04 36.91 18.39 36.19 15.94 36.83 13.97 36.85 13.92 37.33 12.84 38.11 12.84 38.17 12.84 38.23 12.85 38.3 12.86 38.72 12.93 39.22 13.22 39.64 13.62 39.98 13.96 40.42 14.52 40.56 15.32 40.83 16.89 37.64 19.22 37.61 19.24 37.58 19.24 37.55 19.25 37.52 19.25ZM38.28 13C38.22 12.99 38.17 12.99 38.12 12.99 37.44 12.99 36.99 14.01 36.98 14.02 36.27 16.2 37.25 18.93 37.54 19.09 37.98 18.79 40.63 16.67 40.41 15.33 40.18 14.02 39.01 13.12 38.28 13Z" fill="#E19770"/></g></g><path d="M39.14 14.81C39.14 14.81 39.14 14.73 39.1 14.59 39.08 14.52 39.05 14.44 39 14.35 38.95 14.26 38.84 14.15 38.68 14.16 38.53 14.17 38.4 14.26 38.29 14.36 38.23 14.41 38.18 14.46 38.14 14.52 38.09 14.57 38.04 14.64 38 14.7 37.92 14.82 37.83 14.97 37.76 15.11 37.69 15.26 37.64 15.41 37.58 15.56 37.53 15.72 37.49 15.87 37.46 16.03 37.43 16.18 37.4 16.34 37.39 16.49 37.37 16.64 37.36 16.78 37.36 16.92 37.35 17.06 37.36 17.19 37.36 17.31 37.37 17.55 37.4 17.75 37.43 17.89 37.45 17.96 37.46 18.01 37.48 18.05 37.5 18.08 37.5 18.1 37.5 18.1 37.5 18.1 37.5 18.08 37.49 18.04 37.48 18 37.48 17.95 37.48 17.88 37.47 17.74 37.48 17.55 37.5 17.31 37.54 16.84 37.63 16.22 37.82 15.63 37.87 15.48 37.92 15.34 37.98 15.2 38.04 15.06 38.1 14.94 38.18 14.81 38.22 14.74 38.25 14.69 38.3 14.63 38.34 14.57 38.38 14.52 38.42 14.47 38.5 14.37 38.6 14.3 38.69 14.28 38.78 14.26 38.86 14.31 38.92 14.38 38.98 14.45 39.02 14.52 39.05 14.58 39.12 14.73 39.14 14.81 39.14 14.81Z" fill="#BB6736"/><path d="M38.98 16.58C38.98 16.58 38.87 16.64 38.71 16.74 38.67 16.76 38.63 16.79 38.58 16.81 38.54 16.84 38.49 16.86 38.44 16.88 38.39 16.9 38.34 16.93 38.29 16.94 38.24 16.96 38.19 16.97 38.14 16.98 38.1 17 38.05 17 38.01 17 37.99 16.99 37.97 16.99 37.94 16.99 37.92 16.98 37.9 16.97 37.88 16.96 37.84 16.95 37.81 16.91 37.77 16.89 37.73 16.86 37.71 16.82 37.68 16.79 37.62 16.73 37.59 16.66 37.55 16.62 37.52 16.58 37.5 16.55 37.5 16.55 37.5 16.55 37.5 16.58 37.51 16.64 37.52 16.69 37.52 16.78 37.56 16.86 37.58 16.9 37.59 16.96 37.63 17 37.67 17.04 37.7 17.1 37.77 17.14 37.8 17.16 37.83 17.18 37.86 17.2 37.9 17.21 37.93 17.22 37.97 17.23 38.04 17.24 38.12 17.24 38.19 17.23 38.26 17.22 38.33 17.19 38.39 17.16 38.45 17.14 38.5 17.09 38.56 17.06 38.66 16.99 38.74 16.91 38.8 16.84 38.93 16.7 38.98 16.58 38.98 16.58Z" fill="#BB6736"/><path d="M36.9 13.99C36.9 13.99 37.37 12.91 38.11 12.91 38.72 12.91 39.75 13.55 40.24 14.57 39.63 15.17 38.53 15.25 38.54 16.35 38.54 16.43 38.63 16.47 38.71 16.45 38.96 16.37 39.17 16.27 39.35 16.13 39.18 16.61 38.86 17.02 38.69 17.51 38.64 17.66 38.55 17.98 38.76 18.07 38.79 18.08 38.81 18.09 38.84 18.1 38.24 18.67 37.69 19.09 37.58 19.16 37.3 19.34 36.15 16.31 36.9 13.99Z" fill="#F0AF85" opacity="0.4"/></g><path d="M39.48 16.45C39.59 16.17 39.68 15.89 39.77 15.61 39.82 15.46 39.89 15.32 39.91 15.17 39.92 15.11 39.98 15.1 40.03 15.1 40.04 15.1 40.05 15.11 40.05 15.11 40.1 15.21 40.19 15.26 40.21 15.38 40.24 15.52 40.17 15.7 40.13 15.83 40.04 16.12 39.89 16.42 39.63 16.59 39.56 16.63 39.46 16.52 39.48 16.45Z" fill="#F1BA95" opacity="0.5"/></g><g><path d="M37.73 12.34C37.73 12.34 37.74 12.34 37.73 12.34 37.74 12.24 37.76 12.15 37.77 12.06 38.08 10.38 39.04 8.69 38.5 6.96 37.96 5.23 36.89 3.84 35.5 2.89 33.09 1.23 30.31 0.34 27.49 0.09L26.8 0.08C23.98 0.29 21.18 1.14 18.74 2.75 17.34 3.68 16.25 5.05 15.68 6.77 15.11 8.49 16.04 10.21 16.32 11.89 16.33 11.98 16.35 12.07 16.36 12.16 16.36 12.16 16.36 12.17 16.36 12.17 16.54 13.67 16.44 15.21 16.09 16.67 15.78 17.98 17.94 24.78 21.08 26.04 22.95 26.79 24.92 27.79 26.91 27.67 28.9 27.82 30.89 26.86 32.77 26.14 35.93 24.93 38.2 18.17 37.91 16.85 37.6 15.38 37.53 13.84 37.73 12.34Z" fill="#F1BA95"/><path d="M25.49 27.66 25.49 27.66C24.27 27.45 23.07 26.95 21.9 26.46 21.62 26.34 21.33 26.22 21.05 26.11 19.2 25.36 17.86 22.84 17.22 21.4 16.38 19.51 15.84 17.37 16.02 16.65 16.37 15.18 16.46 13.63 16.28 12.17 16.27 12.09 16.26 12.02 16.25 11.95L16.24 11.89C16.16 11.39 16.01 10.87 15.87 10.37 15.54 9.18 15.19 7.96 15.6 6.73 16.16 5.05 17.23 3.64 18.69 2.67 21 1.13 23.8 0.2 26.79-0.01L27.48-2.89525e-15C30.51 0.27 33.23 1.23 35.54 2.82 36.99 3.82 38.03 5.24 38.57 6.93 38.96 8.16 38.59 9.38 38.24 10.56 38.09 11.06 37.94 11.57 37.85 12.07L37.84 12.12C37.83 12.19 37.82 12.26 37.81 12.33 37.61 13.8 37.67 15.35 38 16.82 38.16 17.55 37.59 19.67 36.72 21.55 36.06 22.98 34.67 25.48 32.81 26.2 32.53 26.31 32.25 26.42 31.96 26.54 30.32 27.19 28.63 27.87 26.92 27.74 26.47 27.78 26 27.75 25.49 27.66ZM28.89 0.34C28.43 0.26 27.96 0.2 27.49 0.16L26.81 0.15C23.86 0.37 21.09 1.29 18.8 2.81 17.36 3.76 16.32 5.14 15.77 6.79 15.38 7.97 15.72 9.17 16.04 10.33 16.18 10.83 16.33 11.35 16.41 11.86L16.42 11.92C16.43 11.99 16.44 12.06 16.45 12.13 16.45 12.13 16.45 12.15 16.45 12.15 16.63 13.62 16.54 15.19 16.18 16.67 15.86 18 18.07 24.72 21.12 25.95 21.4 26.06 21.68 26.18 21.97 26.3 23.13 26.78 24.32 27.28 25.52 27.49L25.52 27.49C26.02 27.57 26.47 27.6 26.92 27.57 28.6 27.7 30.28 27.03 31.91 26.38 32.2 26.27 32.48 26.15 32.76 26.04 35.83 24.86 38.15 18.18 37.85 16.84 37.52 15.35 37.45 13.78 37.66 12.3 37.67 12.22 37.68 12.15 37.69 12.07L37.7 12.02C37.79 11.51 37.95 10.99 38.1 10.49 38.45 9.33 38.8 8.14 38.43 6.95 37.91 5.29 36.88 3.9 35.46 2.92 33.54 1.63 31.33 0.75 28.89 0.34Z" fill="#E19770"/></g><path d="M37.73 12.34C37.73 12.34 37.74 12.34 37.73 12.34 37.74 12.24 37.76 12.15 37.77 12.06 38.08 10.38 39.04 8.69 38.5 6.96 37.96 5.23 36.89 3.84 35.5 2.89 33.09 1.23 30.31 0.34 27.49 0.09L26.8 0.08C23.98 0.29 21.18 1.14 18.74 2.75 17.34 3.68 16.25 5.05 15.68 6.77 15.11 8.49 16.04 10.21 16.32 11.89 16.33 11.98 16.35 12.07 16.36 12.16 16.36 12.16 16.36 12.17 16.36 12.17 16.54 13.67 16.44 15.21 16.09 16.67 15.78 17.98 17.94 24.78 21.08 26.04 22.95 26.79 24.92 27.79 26.91 27.67 28.9 27.82 30.89 26.86 32.77 26.14 35.93 24.93 38.2 18.17 37.91 16.85 37.6 15.38 37.53 13.84 37.73 12.34ZM36.41 15.91C36.27 16.51 36.22 17.14 36.15 17.75 36.18 17.77 36.2 17.81 36.2 17.85 36.03 18.83 35.9 19.83 35.66 20.8 35.5 21.43 35.3 22.16 34.79 22.59 34.75 22.63 34.67 22.63 34.64 22.57 34.29 21.89 34.38 21.04 34.04 20.38 33.93 20.3 33.8 20.23 33.65 20.17 32.93 19.89 32.19 19.73 31.43 19.6 29.76 19.32 28.1 19.19 26.4 19.22 24.72 19.25 23.04 19.38 21.4 19.78 20.74 19.94 20.07 20.12 19.77 20.79 19.47 21.46 19.44 22.2 19.19 22.89 19.17 22.94 19.1 22.98 19.05 22.95 18.35 22.45 17.94 21.61 17.59 20.85 17.2 20 16.76 19.13 16.7 18.18 16.62 16.96 17.08 15.77 17.17 14.56 17.25 13.39 17.06 12.25 16.83 11.11 16.39 10.56 16.71 9.98 17.29 9.53 18.01 8.98 18.91 8.6 19.75 8.29 20.99 7.83 22.28 7.49 23.6 7.32 26.24 7 28.97 7.38 31.45 8.34 32.64 8.8 33.81 9.38 34.85 10.13 35.67 10.72 36.5 11.47 36.82 12.47 37.22 13.69 36.69 14.74 36.41 15.91Z" fill="#F0AF85" opacity="0.4"/><g><path d="M21.2 11.13C20.04 11.12 18.86 11.73 18.44 12.85 18.15 13.61 17.95 14.56 18.2 15.37 19.27 15.64 20.37 15.75 21.47 15.82 22.49 15.88 23.61 15.94 24.56 15.48 24.58 15.47 24.61 15.47 24.63 15.47 24.82 14.55 24.36 13.34 23.89 12.61 23.29 11.7 22.3 11.13 21.2 11.13Z" fill="#F0AF85" opacity="0.7"/><path d="M30.79 11.67C29.52 12.51 28.87 14.01 29.07 15.5 29.43 15.6 29.79 15.73 30.16 15.78 30.67 15.86 31.18 15.92 31.69 15.93 32.4 15.94 33.11 15.89 33.8 15.77 34.35 15.67 35.26 15.55 35.41 14.91 35.6 14.11 35.47 13.25 35.02 12.56 34.09 11.14 32.24 10.72 30.79 11.67Z" fill="#F0AF85" opacity="0.7"/></g><path d="M36.33 16.18C36.28 16.16 36.22 16.16 36.16 16.17 36.16 16.17 36.15 16.17 36.15 16.16 35.87 16.03 35.49 16.33 35.26 16.47 35.08 16.58 33.61 17.21 33.98 17.58 34.48 18.08 35.43 17.9 35.97 17.58 36.32 17.38 36.92 16.45 36.33 16.18Z" fill="#F1BA95" opacity="0.5"/><path d="M19.84 16.94C19.56 16.68 19.21 16.51 18.94 16.25 18.59 15.91 18.17 14.99 17.64 14.95 16.94 14.9 17.15 16.21 17.22 16.6 17.41 17.6 18.18 17.9 19.13 17.72 19.4 17.67 20.27 17.33 19.84 16.94Z" fill="#F1BA95" opacity="0.5"/><g><g><g><path d="M21.3 15.68C16.87 15.72 18.69 11.13 21.3 11.11 22.5 11.1 23.9 12.11 24.22 14.05 24.43 15.32 23.7 15.66 21.3 15.68Z" fill="#FFFFFF"/><path d="M20.41 15.7C19.16 15.49 18.47 14.74 18.55 13.68 18.65 12.44 19.85 11.05 21.3 11.04 21.43 11.04 21.57 11.05 21.7 11.07 22.78 11.25 24 12.24 24.29 14.04 24.37 14.54 24.31 14.89 24.1 15.15 23.74 15.58 22.96 15.75 21.3 15.77 20.98 15.76 20.68 15.74 20.41 15.7ZM21.67 11.22C21.54 11.2 21.42 11.19 21.3 11.19 19.92 11.2 18.79 12.52 18.7 13.69 18.62 14.67 19.25 15.35 20.43 15.55 20.69 15.59 20.98 15.62 21.3 15.61 22.88 15.6 23.66 15.43 23.98 15.05 24.16 14.83 24.22 14.52 24.14 14.07 23.86 12.34 22.7 11.39 21.67 11.22Z" fill="#CFCFCF"/></g></g></g><g><path d="M20.11 13.41C20.09 14.58 20.72 15.54 21.51 15.55 22.3 15.56 22.96 14.62 22.98 13.45 23 12.28 22.37 11.32 21.58 11.31 20.78 11.3 20.13 12.24 20.11 13.41Z" fill="#734737"/><path d="M20.45 13.5C20.44 14.39 20.92 15.12 21.52 15.13 22.13 15.14 22.63 14.42 22.64 13.52 22.65 12.63 22.17 11.9 21.57 11.89 20.96 11.89 20.46 12.61 20.45 13.5Z" fill="#935B46"/><path d="M20.68 13.45C20.67 14.16 21.05 14.73 21.53 14.74 22.01 14.75 22.4 14.18 22.41 13.47 22.42 12.76 22.04 12.19 21.56 12.18 21.09 12.18 20.69 12.75 20.68 13.45Z" fill="#1C0B00"/><path d="M22.97 13.11C22.98 13.22 22.99 13.33 22.99 13.45 22.97 14.62 22.32 15.56 21.52 15.55 20.73 15.54 20.1 14.58 20.12 13.41 20.12 13.3 20.13 13.2 20.14 13.09 20.99 13.74 22.25 13.9 22.97 13.11Z" fill="#734737" opacity="0.5"/><path d="M20.68 12.37C20.58 12.67 20.66 12.96 20.86 13.02 21.06 13.09 21.31 12.9 21.41 12.6 21.51 12.3 21.43 12.01 21.23 11.95 21.03 11.89 20.78 12.08 20.68 12.37Z" fill="#FFFFFF"/><path d="M20.47 13.65C20.44 13.81 20.51 13.95 20.62 13.96 20.73 13.98 20.84 13.86 20.86 13.71 20.89 13.55 20.82 13.41 20.72 13.4 20.61 13.38 20.5 13.49 20.47 13.65Z" fill="#FFFFFF"/></g><g><g><g><path d="M32.27 15.77C36.7 15.88 34.95 11.26 32.35 11.2 31.16 11.17 29.74 12.16 29.38 14.09 29.15 15.36 29.87 15.71 32.27 15.77Z" fill="#FFFFFF"/><path d="M30.68 15.73 30.68 15.73C30.04 15.62 29.65 15.44 29.44 15.14 29.26 14.88 29.22 14.55 29.3 14.08 29.66 12.1 31.1 11.09 32.34 11.13 32.45 11.13 32.56 11.14 32.67 11.16 34.02 11.39 35.17 12.84 35.05 14.14 35 14.68 34.62 15.91 32.27 15.86 31.59 15.83 31.08 15.79 30.68 15.73ZM32.65 11.31C32.55 11.29 32.45 11.28 32.34 11.28 31.17 11.25 29.8 12.21 29.45 14.11 29.37 14.53 29.41 14.83 29.56 15.05 29.74 15.31 30.1 15.47 30.7 15.57L30.7 15.57C31.09 15.64 31.59 15.67 32.26 15.69 33.83 15.73 34.78 15.16 34.88 14.12 35 13.01 34.05 11.54 32.65 11.31Z" fill="#CFCFCF"/></g></g></g><g><path d="M33.5 13.52C33.5 14.69 32.85 15.64 32.06 15.63 31.27 15.63 30.63 14.67 30.63 13.5 30.63 12.33 31.28 11.38 32.07 11.39 32.86 11.4 33.5 12.35 33.5 13.52Z" fill="#734737"/><path d="M33.16 13.61C33.16 14.5 32.66 15.23 32.06 15.22 31.45 15.22 30.97 14.49 30.97 13.6 30.97 12.71 31.46 11.99 32.07 11.99 32.67 11.99 33.16 12.71 33.16 13.61Z" fill="#935B46"/><path d="M32.93 13.55C32.93 14.26 32.54 14.82 32.06 14.82 31.58 14.82 31.2 14.24 31.2 13.54 31.2 12.83 31.59 12.26 32.07 12.27 32.54 12.27 32.93 12.85 32.93 13.55Z" fill="#1C0B00"/><path d="M30.65 13.17C30.64 13.28 30.63 13.39 30.63 13.51 30.63 14.68 31.27 15.63 32.06 15.64 32.85 15.64 33.5 14.7 33.5 13.53 33.5 13.42 33.49 13.32 33.48 13.21 32.61 13.84 31.36 13.98 30.65 13.17Z" fill="#734737" opacity="0.5"/><path d="M32.95 12.47C33.05 12.77 32.96 13.06 32.76 13.12 32.56 13.18 32.31 12.99 32.22 12.69 32.12 12.39 32.21 12.1 32.41 12.04 32.61 11.98 32.85 12.18 32.95 12.47Z" fill="#FFFFFF"/><path d="M33.13 13.76C33.15 13.92 33.09 14.06 32.98 14.07 32.87 14.08 32.77 13.97 32.74 13.81 32.72 13.65 32.78 13.51 32.89 13.5 33 13.48 33.11 13.6 33.13 13.76Z" fill="#FFFFFF"/></g><g><g><g><path d="M21.54 11.64C22.26 11.73 23.05 12.09 23.56 12.62 23.71 12.78 23.85 12.96 23.96 13.14 23.42 11.8 22.29 11.11 21.3 11.12 20.09 11.13 19.05 12.13 18.72 13.19 19.3 12.21 20.47 11.51 21.54 11.64Z" fill="#F1BA95"/><path d="M18.71 13.25C18.7 13.25 18.7 13.25 18.69 13.24 18.65 13.22 18.64 13.18 18.65 13.15 18.96 12.13 20 11.04 21.3 11.03 21.43 11.03 21.57 11.04 21.7 11.06 22.69 11.23 23.58 12 24.03 13.08 24.04 13.1 24.05 13.12 24.04 13.14 24.03 13.18 24 13.21 23.95 13.2 23.93 13.2 23.91 13.18 23.9 13.16 23.78 12.97 23.65 12.8 23.51 12.65 23.04 12.16 22.27 11.79 21.54 11.7 20.54 11.58 19.39 12.21 18.79 13.2 18.77 13.24 18.74 13.26 18.71 13.25ZM21.67 11.22C21.54 11.2 21.42 11.19 21.3 11.19 20.33 11.2 19.52 11.84 19.08 12.58 19.74 11.87 20.7 11.46 21.56 11.56 22.27 11.65 23.01 11.99 23.51 12.45 23.04 11.79 22.39 11.34 21.67 11.22Z" fill="#E19770"/></g></g></g><g><g><g><path d="M32 11.94C33.04 11.85 33.96 12.17 34.68 12.79 34.24 11.94 33.36 11.23 32.35 11.2 31.38 11.18 30.27 11.82 29.69 13.09 30.3 12.44 31.17 12.01 32 11.94Z" fill="#F1BA95"/><path d="M29.68 13.17C29.67 13.17 29.66 13.16 29.65 13.16 29.62 13.14 29.61 13.1 29.62 13.06 30.07 12.07 31.08 11.09 32.35 11.13 33.3 11.15 34.24 11.8 34.74 12.74 34.76 12.76 34.76 12.78 34.76 12.8 34.75 12.84 34.71 12.87 34.67 12.86 34.66 12.86 34.64 12.85 34.63 12.84 33.91 12.21 33 11.92 32.01 12.01 31.2 12.08 30.36 12.5 29.75 13.14 29.73 13.16 29.7 13.17 29.68 13.17ZM32.65 11.31C32.55 11.29 32.45 11.28 32.34 11.28 31.58 11.26 30.59 11.7 29.97 12.72 30.56 12.23 31.28 11.92 31.98 11.86 32.86 11.79 33.69 12 34.38 12.47 33.96 11.85 33.32 11.42 32.65 11.31Z" fill="#E19770"/></g></g></g></g><g><path d="M31.13 21.66C31.1 21.6 31.06 21.55 31.03 21.49 31.01 21.39 30.89 21.5 30.88 21.56 30.85 21.93 29.05 21.6 28.77 21.57 28.11 21.5 27.44 21.45 26.77 21.41 26.09 21.37 25.4 21.39 24.72 21.43 24.56 21.44 22.72 21.76 22.71 21.69 22.7 21.62 22.62 21.7 22.61 21.74 22.61 21.75 22.61 21.75 22.61 21.76 22.61 21.77 22.61 21.79 22.62 21.79 22.77 21.89 22.93 21.93 23.11 21.94 23.58 22.3 23.96 22.77 24.53 22.99 25.33 23.31 26.11 23.36 26.96 23.3 28.4 23.19 29.53 22.75 30.66 21.89 30.7 21.89 30.74 21.89 30.78 21.88 30.95 21.86 31 21.83 31.01 21.79 31.01 21.79 31.02 21.8 31.02 21.8 31.08 21.85 31.2 21.7 31.13 21.66Z" fill="#BB7252"/><path d="M29.03 22.73C28.31 23.01 27.51 23.09 26.75 23.14 25.94 23.19 25.13 23.06 24.41 22.69 24.02 22.49 23.71 22.17 23.35 21.93 23.79 21.88 24.26 21.69 24.66 21.65 25.75 21.54 26.81 21.57 27.9 21.64 28.73 21.69 29.61 21.91 30.45 21.9 29.98 22.21 29.55 22.53 29.03 22.73Z" fill="#8B323D"/><path d="M25 22.64C25.64 22.74 26.31 22.77 26.96 22.78 27.63 22.79 28.28 22.74 28.92 22.56 29.43 22.42 29.8 22.24 30.09 21.9 29.36 21.86 28.6 21.69 27.88 21.65 26.79 21.59 25.73 21.56 24.64 21.66 24.33 21.69 23.99 21.81 23.65 21.89 23.93 22.35 24.41 22.55 25 22.64Z" fill="#FFFFFF"/><path d="M25.03 21.77C25.67 21.75 26.32 21.77 26.97 21.82 27.98 21.89 29.02 22.05 30.03 21.89 29.32 21.84 28.59 21.68 27.89 21.64 26.8 21.58 25.74 21.55 24.65 21.65 24.31 21.68 23.93 21.83 23.56 21.9 24.04 21.96 24.51 21.78 25.03 21.77Z" fill="#D4D4D4"/><path d="M28.36 24.18C27.33 24.61 26.07 24.71 25.15 24.02 25.41 24.36 25.75 24.62 26.14 24.82 26.19 24.83 26.25 24.83 26.29 24.83 27.03 24.85 27.72 24.6 28.36 24.24 28.38 24.23 28.4 24.17 28.36 24.18Z" fill="#BB7252"/></g><path d="M25.93 18.52C25.49 18.41 25.3 18.25 25.05 17.89 24.7 17.39 24.99 17.01 25.25 16.58 25.94 15.45 26.24 14.22 26.38 12.91 26.38 12.87 26.32 12.91 26.32 12.93 26.15 13.85 25.97 14.85 25.55 15.69 25.4 15.99 25.21 16.26 25.06 16.55 24.99 16.68 24.83 16.83 24.71 16.98 24.66 17.11 24.61 17.25 24.56 17.38 24.57 17.62 24.62 17.85 24.69 18.07 24.72 18.12 24.75 18.17 24.78 18.22 25 18.49 25.32 18.62 25.66 18.73 25.74 18.75 25.82 18.78 25.9 18.8 26.19 18.89 26.48 18.98 26.72 19.15 26.56 18.82 26.33 18.62 25.93 18.52Z" fill="#BB7252"/><path d="M20.52 21.24C21.68 20.13 22.88 19.07 24.08 18.01 22.63 18.63 21.33 19.75 20.52 21.24Z" fill="#BB7252"/><path d="M28.82 17.98C30 19.19 31.23 20.36 32.67 21.09 31.67 19.62 30.18 18.91 28.82 17.98Z" fill="#BB7252"/><g opacity="0.7"><path d="M21.07 7.46C22.07 7.43 23.05 7.28 24.07 7.3 25.07 7.33 26.05 7.38 27.04 7.34 27.53 7.33 28.01 7.28 28.53 7.26 29.04 7.26 29.54 7.29 30.03 7.32 31 7.42 31.99 7.16 33 7.26L33 7.28 32.89 7.27 33 7.26 33 7.28C32.5 7.29 32.02 7.38 31.53 7.47 31.04 7.56 30.53 7.6 30.02 7.6 29.52 7.61 29.02 7.58 28.53 7.6 28.06 7.62 27.54 7.69 27.04 7.69 26.03 7.72 25.03 7.66 24.04 7.56 23.07 7.49 22.06 7.57 21.07 7.46Z" fill="#BB7252"/><path d="M22.02 6.53C22.82 6.47 23.61 6.36 24.41 6.29 25.21 6.21 26.03 6.21 26.83 6.23 27.23 6.24 27.63 6.25 28.02 6.25 28.42 6.25 28.83 6.26 29.23 6.28 30.03 6.32 30.83 6.39 31.63 6.41 30.83 6.53 30.02 6.55 29.22 6.56 28.82 6.57 28.42 6.57 28.03 6.59 27.63 6.6 27.22 6.6 26.82 6.59 26.02 6.57 25.23 6.55 24.43 6.57 23.63 6.59 22.82 6.62 22.02 6.53Z" fill="#BB7252"/><path d="M21.98 8.69C22.78 8.63 23.57 8.52 24.37 8.45 25.17 8.37 25.99 8.37 26.79 8.39 27.19 8.4 27.59 8.41 27.98 8.41 28.38 8.41 28.79 8.42 29.19 8.44 29.99 8.48 30.79 8.55 31.59 8.57 30.79 8.69 29.98 8.71 29.18 8.72 28.78 8.73 28.38 8.73 27.99 8.75 27.59 8.76 27.18 8.76 26.78 8.75 25.98 8.73 25.19 8.71 24.39 8.73 23.59 8.75 22.78 8.77 21.98 8.69Z" fill="#BB7252"/><path d="M23.27 9.71C23.85 9.67 24.42 9.59 25.01 9.54 25.59 9.48 26.19 9.48 26.77 9.49 27.06 9.5 27.35 9.5 27.64 9.5 27.93 9.5 28.23 9.51 28.52 9.52 29.1 9.55 29.68 9.6 30.26 9.61 29.68 9.69 29.09 9.71 28.51 9.72 28.22 9.73 27.93 9.73 27.64 9.74 27.35 9.75 27.05 9.75 26.76 9.74 26.18 9.72 25.6 9.71 25.03 9.73 24.44 9.75 23.85 9.77 23.27 9.71Z" fill="#BB7252"/></g><path d="M35.99 22.71C35.59 22.97 34.51 24.16 34.35 23.7 34.24 23.38 34.15 23.07 34.08 22.74 33.9 21.94 33.85 21 33.02 20.59 32.12 20.13 31.07 20.11 30.1 19.94 28.37 19.64 26.65 19.45 24.88 19.61 24.28 19.66 23.69 19.74 23.1 19.85 22.29 20 20.93 20.21 20.41 20.91 20.06 21.38 20 22.06 19.87 22.62 19.79 22.95 19.7 23.26 19.58 23.57 19.41 24.03 19.12 23.57 19.01 23.46 18.68 23.11 18.36 22.82 17.96 22.55 17.9 22.51 17.81 22.62 17.84 22.67 18.69 24.41 20.04 26.01 21.85 26.77 22.98 27.25 24.15 27.59 25.34 27.78 25.36 27.84 26.45 27.96 26.94 27.94 27.43 27.96 28.52 27.86 28.54 27.8 29.74 27.63 30.91 27.3 32.05 26.85 33.87 26.12 35.25 24.54 36.13 22.81 36.13 22.78 36.05 22.67 35.99 22.71ZM29.75 25.79C29.43 25.95 29.1 26.17 28.76 26.26 27.8 26.51 28.9 25.31 28.81 25.39 28.95 25.25 29.1 25.13 29.26 25 29.35 24.97 29.44 24.93 29.51 24.87 28.74 25.22 27.88 25.4 27.05 25.43 26.31 25.45 25.48 25.39 24.78 25.08 24.88 25.17 24.99 25.26 25.09 25.36 25 25.27 26.08 26.49 25.12 26.23 24.78 26.13 24.46 25.9 24.14 25.74 23.11 25.22 21.74 21.99 22.04 21.71 22.27 21.53 22.54 21.39 22.84 21.27 23.41 21.14 23.98 21.03 24.55 20.9 25.54 20.77 26.51 20.69 27.52 20.71 28.65 20.73 29.77 21.08 30.85 21.41 31.36 21.56 31.8 21.79 32.21 22.11 32.38 22.34 30.79 25.29 29.75 25.79Z" fill="#93938F"/><path d="M33.74 25.32C32.69 25.81 31.61 26.43 30.42 26.39 30.35 26.39 30.3 26.31 30.34 26.25 30.9 25.41 31.7 24.75 32.22 23.88 32.59 23.26 33.35 22.05 32.62 21.43 31.95 20.86 30.85 20.59 30 20.42 28.84 20.18 27.65 20.12 26.47 20.15 25.41 20.18 24.36 20.29 23.32 20.49 22.52 20.65 21.26 20.95 21.26 21.98 21.26 22.83 21.67 23.72 22.07 24.46 22.55 25.33 23.19 26.1 23.78 26.89 23.83 26.96 19.55 24.93 18.07 23.16 18.92 24.71 20.19 26.09 21.83 26.78 22.96 27.26 24.13 27.6 25.32 27.79 25.34 27.85 26.43 27.97 26.92 27.95 27.41 27.97 28.5 27.87 28.52 27.81 29.72 27.64 30.89 27.31 32.03 26.86 33.15 26.41 34.11 25.63 34.88 24.7 34.51 24.94 34.13 25.14 33.74 25.32ZM29.75 25.79C29.43 25.95 29.1 26.17 28.76 26.26 27.8 26.51 28.9 25.31 28.81 25.39 28.95 25.25 29.1 25.13 29.26 25 29.35 24.97 29.44 24.93 29.51 24.87 28.74 25.22 27.88 25.4 27.05 25.43 26.31 25.45 25.48 25.39 24.78 25.08 24.88 25.17 24.99 25.26 25.09 25.36 25 25.27 26.08 26.49 25.12 26.23 24.78 26.13 24.46 25.9 24.14 25.74 23.11 25.22 21.74 21.99 22.04 21.71 22.27 21.53 22.54 21.39 22.84 21.27 23.41 21.14 23.98 21.03 24.55 20.9 25.54 20.77 26.51 20.69 27.52 20.71 28.65 20.73 29.77 21.08 30.85 21.41 31.36 21.56 31.8 21.79 32.21 22.11 32.38 22.34 30.79 25.29 29.75 25.79Z" fill="#93938F" opacity="0.6"/><g><path d="M36.1 10.44C35.39 9.57 34.32 8.95 33.06 9.06 32.29 9.13 31.64 9.5 31.02 9.91 30.79 10.02 30.57 10.16 30.34 10.3 30.17 10.41 30 10.53 29.82 10.62 29.61 10.72 29.39 10.59 29.2 10.54 29.19 10.54 29.18 10.54 29.18 10.55 29.17 10.53 29.15 10.52 29.14 10.5 29.16 10.52 29.08 10.45 29.09 10.48 29.08 10.44 29.03 10.51 29.02 10.52 29.01 10.55 29.06 10.62 29.07 10.66 29.08 10.7 29.11 10.75 29.15 10.79 29.05 10.73 28.93 10.65 28.86 10.56 28.85 10.55 28.84 10.55 28.83 10.56 28.83 10.55 28.83 10.55 28.82 10.54 28.8 10.48 28.74 10.55 28.73 10.58 28.71 10.72 28.75 10.85 28.8 10.98 28.7 10.85 28.63 10.7 28.59 10.53 28.57 10.46 28.49 10.55 28.5 10.59 28.53 10.97 28.87 11.53 29.24 11.61 29.3 11.62 29.39 11.51 29.34 11.46 29.34 11.46 29.34 11.46 29.34 11.46 29.42 11.47 29.52 11.47 29.65 11.43 30.31 11.21 30.91 10.98 31.6 10.85 32.45 10.69 33.28 10.59 34.13 10.56 34.78 10.54 35.31 10.66 35.93 10.74 36.05 10.76 36.17 10.53 36.1 10.44Z" fill="#F0AF85" opacity="0.6"/><path d="M17.62 10.29C18.35 9.43 19.42 8.83 20.68 8.96 21.45 9.04 22.09 9.43 22.71 9.85 22.94 9.96 23.16 10.11 23.38 10.25 23.55 10.36 23.72 10.49 23.9 10.58 24.11 10.69 24.33 10.56 24.53 10.51 24.54 10.51 24.55 10.51 24.55 10.52 24.56 10.5 24.58 10.49 24.59 10.47 24.57 10.49 24.65 10.42 24.64 10.45 24.65 10.41 24.7 10.48 24.71 10.49 24.72 10.52 24.66 10.59 24.66 10.63 24.65 10.67 24.61 10.72 24.58 10.76 24.68 10.7 24.8 10.63 24.87 10.53 24.88 10.52 24.89 10.52 24.9 10.53 24.9 10.52 24.9 10.52 24.91 10.51 24.93 10.45 24.99 10.52 25 10.56 25.02 10.7 24.98 10.83 24.93 10.96 25.03 10.83 25.11 10.68 25.15 10.52 25.17 10.45 25.25 10.54 25.24 10.58 25.21 10.96 24.86 11.51 24.49 11.59 24.43 11.6 24.34 11.49 24.4 11.44 24.4 11.44 24.4 11.44 24.4 11.44 24.32 11.45 24.22 11.44 24.09 11.4 23.43 11.17 22.84 10.93 22.15 10.79 21.3 10.61 20.48 10.5 19.62 10.46 18.98 10.43 18.43 10.54 17.82 10.61 17.66 10.61 17.55 10.38 17.62 10.29Z" fill="#F0AF85" opacity="0.6"/><path d="M35.98 10C35.27 9.13 34.2 8.51 32.94 8.62 32.17 8.69 31.52 9.06 30.9 9.47 30.67 9.58 30.45 9.72 30.22 9.86 30.05 9.97 29.88 10.09 29.7 10.18 29.49 10.28 29.27 10.15 29.08 10.1 29.07 10.1 29.06 10.1 29.06 10.11 29.05 10.09 29.03 10.08 29.02 10.06 29.03 10.08 28.96 10.01 28.97 10.04 28.96 10 28.91 10.07 28.9 10.08 28.89 10.11 28.94 10.18 28.95 10.22 28.96 10.26 28.99 10.31 29.03 10.35 28.93 10.29 28.81 10.21 28.74 10.12 28.73 10.11 28.72 10.11 28.71 10.12 28.71 10.11 28.71 10.11 28.7 10.1 28.68 10.04 28.62 10.11 28.61 10.14 28.59 10.28 28.63 10.41 28.68 10.54 28.58 10.41 28.51 10.26 28.47 10.09 28.45 10.02 28.37 10.11 28.38 10.15 28.41 10.53 28.75 11.08 29.12 11.17 29.18 11.18 29.27 11.07 29.22 11.02 29.22 11.02 29.22 11.02 29.22 11.02 29.3 11.03 29.4 11.03 29.53 10.99 30.19 10.77 30.79 10.54 31.48 10.41 32.33 10.25 33.16 10.15 34.01 10.12 34.66 10.1 35.19 10.22 35.81 10.3 35.93 10.31 36.05 10.08 35.98 10Z" fill="#7A7A78"/><path d="M17.62 9.84C18.35 8.98 19.42 8.38 20.68 8.51 21.45 8.59 22.09 8.98 22.71 9.4 22.94 9.51 23.16 9.66 23.38 9.8 23.55 9.91 23.72 10.04 23.9 10.13 24.11 10.24 24.33 10.11 24.53 10.06 24.54 10.06 24.55 10.06 24.55 10.07 24.56 10.05 24.58 10.04 24.59 10.02 24.57 10.04 24.65 9.97 24.64 10 24.65 9.96 24.7 10.03 24.7 10.04 24.71 10.07 24.66 10.14 24.65 10.18 24.64 10.22 24.6 10.27 24.57 10.31 24.67 10.25 24.79 10.18 24.86 10.08 24.87 10.07 24.88 10.07 24.89 10.08 24.89 10.07 24.89 10.07 24.9 10.06 24.92 10 24.98 10.07 24.99 10.11 25 10.25 24.97 10.38 24.92 10.51 25.02 10.38 25.1 10.23 25.14 10.07 25.16 10 25.24 10.09 25.23 10.13 25.2 10.51 24.85 11.06 24.48 11.14 24.42 11.15 24.33 11.04 24.39 10.99 24.39 10.99 24.39 10.99 24.39 10.99 24.31 11 24.21 10.99 24.08 10.95 23.42 10.72 22.83 10.48 22.14 10.34 21.29 10.16 20.47 10.05 19.61 10.01 18.97 9.98 18.42 10.09 17.81 10.16 17.67 10.16 17.55 9.93 17.62 9.84Z" fill="#7A7A78"/></g></g></g><g><path d="M18.4 59.4C18.43 59.29 18.46 59.18 18.49 59.07 18.52 58.59 17.99 58.41 17.36 58.36 16.91 58.03 16.46 57.7 16 57.39 15.88 57.32 15.76 57.23 15.65 57.14 15.65 57.14 15.65 57.14 15.65 57.15 14.83 56.6 13.98 56.07 13.13 55.56 12.82 55.38 12.52 55.19 12.21 55.01 12.21 55.01 12.21 55.01 12.21 55.01 11.48 54.62 10.76 54.21 9.99 53.88 9.03 53.48 8.03 53.19 7.04 52.88 6.23 52.77 5.4 52.8 4.55 52.95 3.51 53.14 2.21 53.71 1.37 54.54 1.44 54.43 1.53 54.32 1.61 54.21 1.33 54.42 1.07 54.66 0.84 54.92 0.57 55.4 0.35 55.89 0.2 56.38-0.1 57.37-0.03 58.28 0.24 59.19 0.57 61.13 2.03 62.77 3.38 64.14 4.77 65.55 6.24 67.07 7.86 68.31 7.9 68.72 8.01 69.1 8.31 69.39 8.45 69.53 8.67 69.51 8.89 69.44 8.98 69.39 9.07 69.34 9.16 69.3 9.36 69.2 9.54 69.09 9.72 68.96 11.29 67.78 12.72 66.43 14.09 65.03 15.68 63.41 16.97 61.54 18.25 59.68 18.31 59.58 18.36 59.49 18.4 59.4Z" fill="#4E6F75"/><path d="M17.85 59.88C17.59 60.26 17.28 60.63 17.03 61.01 16.13 62.34 15.14 63.56 14.07 64.75 13.07 65.86 11.93 66.85 10.81 67.85 10.34 68.27 9.81 68.71 9.25 69.03 9.25 69.03 9.24 69.02 9.24 69.02 9.17 69.06 9.1 69.1 9.03 69.12 9.04 69.12 9.04 69.13 9.05 69.14 8.91 69.2 8.79 69.2 8.69 69.17 8.54 69.15 8.41 69.08 8.29 68.92 8.09 68.64 8.12 68.31 7.95 68.02 7.9 67.94 7.86 67.86 7.82 67.78 7.82 67.81 7.82 67.84 7.82 67.87 6.53 66.79 5.28 65.67 4.08 64.47 2.88 63.27 1.6 61.93 0.84 60.36 0.84 60.35 0.85 60.34 0.85 60.33 0.47 59.08 0.09 57.94 0.41 56.62 0.54 56.11 0.74 55.6 1 55.12 1.16 54.97 1.33 54.82 1.5 54.68 1.94 54.18 2.59 53.81 3.22 53.6 3.81 53.33 4.44 53.13 5.11 53.05 5.58 52.99 6.07 52.99 6.55 53.03 6.38 53.09 6.21 53.15 6.04 53.2 5.18 53.49 4.36 53.86 3.55 54.28 3.07 54.53 2.61 54.83 2.14 55.1 1.62 55.4 1.66 55.14 1.94 54.75 1.97 54.71 2 54.67 2.03 54.64 1.76 54.87 1.55 55.13 1.41 55.44 1.85 55.64 4.47 54.04 4.75 53.9 5.27 53.66 5.81 53.47 6.34 53.28 6.65 53.17 6.92 53.12 7.19 53.12 7.33 53.14 7.48 53.17 7.62 53.2 8.32 53.35 8.94 53.73 9.62 53.95 9.63 53.95 9.64 53.95 9.65 53.95 10.37 54.29 11.08 54.65 11.77 55.06 13.02 55.8 14.25 56.58 15.47 57.37 15.49 57.38 15.5 57.38 15.52 57.39 15.57 57.43 15.63 57.46 15.68 57.5 16.12 57.78 16.55 58.07 16.98 58.36 16.57 58.35 16.17 58.38 15.89 58.4 15.86 58.4 15.82 58.45 15.87 58.45 16.12 58.45 16.72 58.44 17.24 58.53L17.26 58.54C17.46 58.53 17.65 58.51 17.85 58.58 18.06 58.66 18.22 58.91 18.19 59.13 18.2 59.43 18.04 59.67 17.85 59.88Z" fill="#7EA2A9"/><g opacity="0.4"><path d="M18.24 59.13C18.27 58.9 18.11 58.66 17.9 58.58 17.71 58.51 17.51 58.52 17.31 58.54L17.29 58.53C16.77 58.44 16.17 58.45 15.92 58.45 15.87 58.45 15.9 58.4 15.94 58.4 16.21 58.38 16.62 58.35 17.03 58.36 16.6 58.07 16.16 57.79 15.73 57.5 15.68 57.46 15.63 57.42 15.57 57.39 15.55 57.38 15.54 57.38 15.52 57.37 14.3 56.58 13.08 55.8 11.82 55.06 11.13 54.65 10.42 54.29 9.7 53.95 9.69 53.95 9.68 53.95 9.67 53.95 9 53.73 8.37 53.35 7.67 53.2 7.53 53.17 7.38 53.15 7.24 53.12 6.97 53.12 6.7 53.17 6.39 53.28 5.85 53.47 5.31 53.66 4.8 53.9 4.51 54.03 1.89 55.63 1.46 55.44 1.59 55.14 1.81 54.87 2.08 54.64 2.03 54.67 2 54.71 1.97 54.75 1.68 55.14 1.64 55.4 2.17 55.1 2.64 54.83 3.1 54.53 3.58 54.28 4.39 53.86 5.21 53.49 6.07 53.2 6.23 53.14 6.41 53.08 6.58 53.03 6.1 52.99 5.61 52.98 5.14 53.05 4.47 53.14 3.84 53.33 3.25 53.6 2.62 53.81 1.97 54.18 1.53 54.68 1.36 54.82 1.19 54.97 1.03 55.12 0.77 55.6 0.56 56.1 0.44 56.62 0.12 57.94 0.49 59.08 0.88 60.33 0.88 60.34 0.88 60.35 0.87 60.36 1.62 61.92 2.91 63.27 4.11 64.47 5.31 65.67 6.56 66.79 7.85 67.87 7.85 67.84 7.85 67.81 7.85 67.78 7.89 67.86 7.94 67.94 7.98 68.02 8.14 68.31 8.12 68.65 8.32 68.92 8.43 69.08 8.57 69.15 8.72 69.17 8.82 69.21 8.94 69.2 9.08 69.14 9.07 69.13 9.07 69.13 9.06 69.12 9.13 69.09 9.2 69.06 9.27 69.02 9.27 69.02 9.28 69.03 9.28 69.03 9.84 68.71 10.36 68.27 10.84 67.85 11.95 66.86 13.1 65.86 14.1 64.75 15.17 63.56 16.17 62.34 17.06 61.01 17.32 60.63 17.62 60.27 17.88 59.88 18.04 59.67 18.2 59.43 18.24 59.13ZM15.34 58.79C14.58 59.28 13.74 59.53 13.02 60.11 12.39 60.62 11.82 61.19 11.28 61.8 10.68 62.48 10.07 63.19 9.61 63.97 9.27 64.54 8.97 65.13 8.51 65.61 8.46 65.66 8.38 65.65 8.33 65.62 5.98 64.19 3.77 61.94 2.63 59.42 2.26 58.6 1.93 57.45 2.63 56.69 3.34 55.93 4.34 55.7 5.25 55.29 4 55.42 2.82 55.99 1.65 56.45 1.52 56.5 1.37 56.36 1.46 56.23 2.3 55 3.76 54.5 5.11 53.94 5.37 53.79 5.63 53.68 5.89 53.6 5.95 53.57 6.01 53.54 6.07 53.51 6.12 53.48 6.17 53.49 6.21 53.52 6.77 53.42 7.34 53.5 7.93 53.87 9.39 54.77 10.72 55.8 12.28 56.55 13 56.9 13.86 57.52 12.91 58.18 12.6 58.4 12.26 58.56 11.91 58.71 13.04 58.38 14.2 58.18 15.33 58.51 15.46 58.55 15.44 58.72 15.34 58.79Z" fill="#7EA2A9"/></g><g><path d="M18.24 59.13C18.27 58.9 18.11 58.66 17.9 58.58 17.89 58.58 17.87 58.57 17.86 58.57 15.95 58.99 14.33 60.16 12.97 61.56 12.06 62.5 11.24 63.5 10.51 64.58 9.93 65.44 9.48 66.45 8.73 67.19 8.64 67.28 8.51 67.21 8.48 67.11 8.2 66.2 7.28 65.88 6.54 65.41 6 65.06 5.47 64.69 4.97 64.28 4.02 63.5 3.12 62.63 2.37 61.64 1.43 60.41 0.66 59.02 0.3 57.54 0.28 58.49 0.56 59.38 0.85 60.33 0.85 60.34 0.85 60.35 0.84 60.36 1.59 61.92 2.88 63.27 4.08 64.47 5.28 65.67 6.53 66.79 7.82 67.87 7.82 67.84 7.82 67.81 7.82 67.78 7.86 67.86 7.91 67.94 7.95 68.02 8.11 68.31 8.09 68.65 8.29 68.92 8.4 69.08 8.54 69.15 8.69 69.17 8.79 69.21 8.91 69.2 9.05 69.14 9.04 69.13 9.04 69.13 9.03 69.12 9.1 69.09 9.17 69.06 9.24 69.02 9.24 69.02 9.25 69.03 9.25 69.03 9.81 68.71 10.33 68.27 10.81 67.85 11.92 66.86 13.07 65.86 14.07 64.75 15.14 63.56 16.14 62.34 17.03 61.01 17.29 60.63 17.59 60.27 17.85 59.88 18.04 59.67 18.2 59.43 18.24 59.13Z" fill="#7EA2A9" opacity="0.4"/></g><path d="M17.5 58.91C15.75 59.65 14.66 60.56 13.33 61.88 11.71 63.49 10.29 65.69 9.22 67.69 9.2 67.72 9.27 67.71 9.28 67.69 11.32 64.32 14.02 60.86 17.53 58.94 17.58 58.92 17.53 58.9 17.5 58.91Z" fill="#6E979F"/><g><g><g><path d="M17.55 145.57 14.87 145.57 13.75 70.17 18.67 70.17Z" fill="#87501E"/><path d="M17.69 145.71 14.72 145.71 14.72 145.57 13.6 70.02 18.81 70.02 18.81 70.17 17.69 145.71ZM15.01 145.43 17.41 145.43 18.52 70.31 13.89 70.31 15.01 145.43Z" fill="#542F11"/></g><g><path d="M20.13 65.58C20.13 67.74 18.38 69.5 16.21 69.5 14.05 69.5 12.29 67.75 12.29 65.58 12.29 63.42 14.04 61.66 16.21 61.66 18.37 61.67 20.13 63.42 20.13 65.58Z" fill="#87501E"/><path d="M16.21 69.65C13.97 69.65 12.15 67.83 12.15 65.59 12.15 63.35 13.97 61.53 16.21 61.53 18.45 61.53 20.27 63.35 20.27 65.59 20.27 67.83 18.45 69.65 16.21 69.65ZM16.21 61.81C14.13 61.81 12.43 63.5 12.43 65.59 12.43 67.67 14.12 69.37 16.21 69.37 18.29 69.37 19.99 67.68 19.99 65.59 19.98 63.5 18.29 61.81 16.21 61.81Z" fill="#542F11"/></g><g><path d="M18.79 70.17 13.63 70.17C13.5 70.17 13.4 70.07 13.4 69.94L13.4 69.08C13.4 68.95 13.5 68.85 13.63 68.85L18.79 68.85C18.92 68.85 19.02 68.95 19.02 69.08L19.02 69.94C19.02 70.06 18.92 70.17 18.79 70.17Z" fill="#87501E"/><path d="M18.79 70.31 13.63 70.31C13.42 70.31 13.25 70.14 13.25 69.93L13.25 69.07C13.25 68.86 13.42 68.69 13.63 68.69L18.79 68.69C19 68.69 19.17 68.86 19.17 69.07L19.17 69.93C19.17 70.14 19 70.31 18.79 70.31ZM13.63 68.98C13.58 68.98 13.54 69.02 13.54 69.07L13.54 69.93C13.54 69.98 13.58 70.02 13.63 70.02L18.79 70.02C18.84 70.02 18.88 69.98 18.88 69.93L18.88 69.07C18.88 69.02 18.84 68.98 18.79 68.98L13.63 68.98Z" fill="#542F11"/></g></g><path d="M14.67 70.17C14.54 70.17 14.44 70.07 14.44 69.94L14.44 69.08C14.44 68.95 14.54 68.85 14.67 68.85L15.07 68.85C14.02 68.15 13.33 66.95 13.33 65.59 13.33 63.6 14.81 61.97 16.73 61.71 16.56 61.69 16.39 61.67 16.21 61.67 14.05 61.67 12.29 63.42 12.29 65.59 12.29 66.95 12.98 68.14 14.03 68.85L13.63 68.85C13.5 68.85 13.4 68.95 13.4 69.08L13.4 69.94C13.4 70.07 13.5 70.17 13.63 70.17L13.75 70.17 14.87 145.58 15.91 145.58 14.79 70.17 14.67 70.17Z" fill="#87501E" opacity="0.5"/><path d="M20.13 65.58C20.13 63.42 18.38 61.66 16.21 61.66 15.96 61.66 15.72 61.69 15.48 61.73 17.3 62.07 18.67 63.66 18.67 65.58 18.67 66.94 17.98 68.13 16.93 68.84L17.33 68.84C17.46 68.84 17.56 68.94 17.56 69.07L17.56 69.93C17.56 70.06 17.46 70.16 17.33 70.16L17.21 70.16 16.09 145.57 17.55 145.57 18.67 70.16 18.79 70.16C18.92 70.16 19.02 70.06 19.02 69.93L19.02 69.07C19.02 68.94 18.92 68.84 18.79 68.84L18.39 68.84C19.44 68.14 20.13 66.94 20.13 65.58Z" fill="#87501E" opacity="0.5"/></g><g><path d="M23.53 64.32C23.5 63.64 23.02 63 22.67 62.43 22.54 62.21 22.35 62.02 22.14 61.86 22.49 61.96 22.84 62.08 23.22 62.13 23.43 62.16 23.75 62.14 23.93 62 24.83 61.31 23.5 61.11 23.05 60.92 22.43 60.66 21.84 60.28 21.29 59.9 20.92 59.64 20.27 59.69 19.84 59.58 18.99 59.37 18.17 59.39 17.37 59.66 17.23 59.6 17.08 59.54 16.95 59.47 16.91 59.45 16.86 59.43 16.81 59.4 16.81 59.4 16.81 59.4 16.81 59.4 16.73 59.42 16.64 59.44 16.56 59.45 15.6 59.94 14.7 60.59 13.94 61.37 13.82 61.56 13.72 61.76 13.62 61.96 13.69 61.89 13.76 61.81 13.83 61.74 14.18 62.01 14.65 62.2 14.99 62.42 15.24 62.58 15.24 62.89 15.32 63.15 15.41 63.45 15.57 63.72 15.74 63.98 16.09 64.53 16.59 64.96 17.11 65.33 17.5 65.61 17.95 65.78 18.33 66.09 18.62 66.32 18.81 66.63 18.99 66.95 19.23 67.82 18.13 68.65 18.43 69.6 18.55 69.98 18.82 69.95 19.11 69.75 19.53 69.45 19.8 69.08 20.02 68.66 20.05 68.66 20.07 68.66 20.09 68.64 20.33 68.43 20.67 68.48 20.89 68.25 21.08 68.05 21.39 67.8 21.45 67.51 21.47 67.51 21.5 67.51 21.51 67.49 21.62 67.42 21.71 67.34 21.8 67.26 22.27 67.23 22.98 67.09 23.25 66.66 23.66 65.99 23.66 65.1 23.53 64.32Z" fill="#E19770"/><path d="M21.94 67.12C22.32 66.67 22.37 66.12 22.31 65.54 22.34 65.54 22.37 65.53 22.38 65.51 22.44 65.43 22.51 65.33 22.56 65.23 22.56 65.23 22.56 65.23 22.56 65.23 22.56 65.18 22.55 65.14 22.54 65.1 22.54 65.1 22.54 65.1 22.54 65.1 22.45 65.2 22.37 65.31 22.29 65.42 22.21 64.83 22.02 64.2 21.94 63.61 21.9 63.57 21.86 63.53 21.83 63.48 21.9 64.84 22.76 66.44 21.48 67.38 21.53 66.9 21.47 66.46 21.38 65.98 21.28 65.44 21.01 64.87 21.03 64.32 21.02 64.3 21 64.27 20.98 64.25 20.98 64.25 20.97 64.26 20.97 64.26 20.86 64.99 21.2 65.8 21.31 66.52 21.41 67.15 21.34 67.62 20.89 68.08 20.65 68.34 20.36 68.34 20.1 68.49 20.21 68.26 20.31 68.01 20.42 67.75 20.76 66.92 20.2 66.15 20.01 65.33 19.97 65.28 19.94 65.23 19.9 65.18 19.91 65.63 20.02 66.03 20.2 66.46 20.56 67.34 20.15 68.11 19.74 68.9 19.58 69.2 19.3 69.34 19.08 69.58 19.07 69.58 19.06 69.58 19.05 69.58 18.98 69.64 18.91 69.68 18.83 69.69 18.6 69.71 18.55 69.42 18.58 69.25 18.59 69.18 18.61 69.12 18.63 69.05 18.66 68.78 18.75 68.5 18.83 68.26 18.96 67.88 19.21 67.62 19.25 67.3 19.22 67.13 19.15 66.97 19.09 66.82 18.88 66.46 18.65 66.1 18.28 65.87 17.51 65.39 16.78 64.98 16.17 64.29 15.91 64 15.71 63.66 15.55 63.3 15.46 63.09 15.44 62.63 15.3 62.46 14.95 62.07 14.36 61.94 13.9 61.66 14.74 60.81 15.66 60.1 16.69 59.47 16.71 59.48 16.74 59.49 16.76 59.51 16.9 59.59 17.03 59.67 17.17 59.73 17.14 59.74 17.11 59.76 17.08 59.77 17.31 59.74 17.54 59.71 17.77 59.7 18.41 59.58 19.02 59.57 19.72 59.73 20.06 59.81 20.39 59.9 20.74 59.94 21.14 59.98 21.44 60.23 21.77 60.44 22.2 60.71 22.65 60.98 23.13 61.15 23.59 61.17 24.23 61.27 23.95 61.73 23.77 62.03 23.37 62.03 23.05 61.96 23.03 61.96 23.02 61.95 23 61.95 22.95 61.94 22.91 61.93 22.86 61.92 22.79 61.9 22.72 61.87 22.65 61.85 22.56 61.82 22.48 61.79 22.39 61.76 22.36 61.75 22.33 61.74 22.31 61.73 22.28 61.72 22.24 61.71 22.21 61.69 22.06 61.64 21.91 61.6 21.75 61.58 21.35 61.33 20.91 61.12 20.53 60.91 20.77 61.12 21.02 61.31 21.28 61.49 21.31 61.51 21.35 61.53 21.38 61.55 21.38 61.55 21.37 61.55 21.37 61.55 21.4 61.57 21.42 61.59 21.45 61.61 21.52 61.66 21.59 61.7 21.65 61.75 21.66 61.75 21.67 61.75 21.68 61.75 21.95 61.93 22.2 62.13 22.41 62.37 22.85 62.88 23.32 63.74 23.4 64.42 23.4 64.43 23.41 64.43 23.42 64.44 23.43 64.79 23.42 65.13 23.38 65.48 23.35 65.8 23.29 66.15 23.19 66.46 23.03 66.89 22.38 67.05 21.94 67.12Z" fill="#F1BA95"/><path d="M23.53 64.32C23.5 63.64 23.02 63 22.67 62.43 22.54 62.21 22.35 62.02 22.14 61.86 22.49 61.96 22.84 62.08 23.22 62.13 23.43 62.16 23.75 62.14 23.93 62 24.34 61.69 24.29 61.47 24.06 61.32 23.59 61.55 23.05 61.7 22.53 61.53 21.9 61.31 21 61.03 20.34 60.93 21.2 61.45 22.21 62.02 22.78 62.91 23.2 63.57 23.5 64.33 22.91 64.98 22.86 65.04 22.74 65.03 22.7 64.97 22.38 64.51 22.07 64.05 21.77 63.58 21.86 64.33 22.14 65.04 21.67 65.76 21.62 65.84 21.49 65.85 21.43 65.78 21.23 65.54 21.08 65.26 20.99 64.96 21.07 65.52 21.25 66.08 21 66.62 20.96 66.71 20.82 66.78 20.74 66.67 20.57 66.44 20.47 66.14 20.29 65.92 20.24 65.87 19.93 65.25 19.89 65.2 20.13 65.73 20.5 66.9 20.23 67.39 20.17 67.49 20.02 67.47 19.97 67.37 19.63 66.76 19.5 65.98 19.04 65.45 18.57 64.91 17.99 64.5 17.46 64.03 16.84 63.48 15.93 62.59 16.27 61.65 16.61 60.72 17.53 60.06 18.45 59.77 18.92 59.63 19.37 59.58 19.82 59.58 18.98 59.37 18.16 59.39 17.37 59.66 17.23 59.6 17.08 59.54 16.95 59.47 16.91 59.45 16.86 59.43 16.81 59.4 16.81 59.4 16.81 59.4 16.81 59.4 16.73 59.42 16.64 59.44 16.56 59.45 15.6 59.94 14.7 60.59 13.94 61.37 13.82 61.56 13.72 61.76 13.62 61.96 13.69 61.89 13.76 61.81 13.83 61.74 14.18 62.01 14.65 62.2 14.99 62.42 15.24 62.58 15.24 62.89 15.32 63.15 15.41 63.45 15.57 63.72 15.74 63.98 16.09 64.53 16.59 64.96 17.11 65.33 17.5 65.61 17.95 65.78 18.33 66.09 18.62 66.32 18.81 66.63 18.99 66.95 19.23 67.82 18.13 68.65 18.43 69.6 18.55 69.98 18.82 69.95 19.11 69.75 19.53 69.45 19.8 69.08 20.02 68.66 20.05 68.66 20.07 68.66 20.09 68.64 20.33 68.43 20.67 68.48 20.89 68.25 21.08 68.05 21.39 67.8 21.45 67.51 21.47 67.51 21.5 67.51 21.51 67.49 21.62 67.42 21.71 67.34 21.8 67.26 22.27 67.23 22.98 67.09 23.25 66.66 23.66 65.99 23.66 65.1 23.53 64.32Z" fill="#E19770" opacity="0.5"/></g></g></g></svg>