<svg width="40.56" height="69.91" viewBox="0 0 40.56 69.91" xmlns="http://www.w3.org/2000/svg" xmlns:xlink="http://www.w3.org/1999/xlink" xml:space="preserve" overflow="hidden"><defs></defs><g><g><g><g><g><path d="M2.24 67.2C4.12 69.14 6.7 69.27 7.8 68.78L38.27 43.66C38.27 43.66 39.44 42.92 39.65 40.67L38.58 6.3C38.58 6.3 38.54 5.66 38 5.63 37.92 5.65 37.84 5.68 37.75 5.72L34.86 7.55C35.97 8.38 37.23 6.98 37.23 6.98L38.24 41.86 7.5 67.93C6.67 68.42 4.99 69.01 2.92 66.72 1.17 64.79 1.85 62.02 2.11 61.19 2.1 61.2 2.08 61.22 2.07 61.23 1.78 61.55 1.54 61.86 1.33 62.15 1.27 62.31 0.42 65.31 2.24 67.2Z" fill="#5CA55A"/><path d="M38.76 43.33 38.76 43.33C38.52 43.62 38.33 43.74 38.32 43.74L7.86 68.86C7.85 68.87 7.85 68.87 7.84 68.87 6.68 69.39 4.07 69.24 2.17 67.27 0.3 65.33 1.19 62.25 1.23 62.12 1.23 62.11 1.24 62.1 1.24 62.09 1.47 61.76 1.7 61.47 1.99 61.16L2.03 61.11C2.06 61.08 2.11 61.07 2.15 61.09 2.19 61.11 2.21 61.16 2.19 61.2 1.94 62 1.26 64.74 2.98 66.64 4.48 68.3 5.98 68.7 7.44 67.84L38.13 41.81 37.13 7.2C36.74 7.55 35.72 8.31 34.79 7.62 34.76 7.6 34.75 7.57 34.75 7.54 34.75 7.51 34.77 7.48 34.79 7.46L37.69 5.63C37.78 5.58 37.87 5.55 37.97 5.52 37.98 5.52 37.99 5.52 38 5.52 38.5 5.55 38.67 6.03 38.68 6.29L39.75 40.67C39.62 42.06 39.14 42.88 38.76 43.33ZM7.75 68.7 38.21 43.59C38.22 43.58 38.39 43.47 38.61 43.21 38.97 42.78 39.43 41.99 39.55 40.67L38.48 6.3C38.48 6.28 38.44 5.76 38 5.72 37.92 5.74 37.85 5.77 37.78 5.81L35.03 7.55C36.03 8.13 37.14 6.93 37.15 6.91 37.18 6.88 37.22 6.87 37.26 6.88 37.3 6.89 37.32 6.93 37.32 6.97L38.33 41.85C38.33 41.88 38.32 41.91 38.3 41.93L7.56 68.01C6.01 68.92 4.39 68.5 2.84 66.79 1.28 65.07 1.61 62.7 1.9 61.57 1.73 61.78 1.57 61.98 1.42 62.19 1.34 62.45 0.58 65.33 2.32 67.14 3.44 68.3 5.95 69.49 7.75 68.7Z" fill="#348734"/></g><g><path d="M38 5.63C38.55 5.66 38.58 6.3 38.58 6.3L39.65 40.67C39.45 42.92 38.27 43.66 38.27 43.66L7.8 68.78C6.7 69.27 4.12 69.15 2.24 67.2 0.42 65.31 1.27 62.31 1.32 62.14 0.22 63.69 0.26 64.77 0.26 64.77L0.61 66.02C0.93 66.87 1.46 67.75 2.31 68.35 4.54 69.91 6.53 70.12 8.39 69.44L38.83 44.11C38.83 44.11 40.68 42.75 40.43 40.34L39.26 6.44C39.26 6.45 39.02 5.33 38 5.63Z" fill="#A1CF65"/><path d="M39.5 43.61 39.5 43.61C39.18 43.99 38.91 44.19 38.9 44.2L8.45 69.52C8.44 69.53 8.43 69.53 8.42 69.54 6.39 70.28 4.37 69.92 2.25 68.44 1.49 67.91 0.91 67.11 0.51 66.07L0.17 64.8C0.17 64.79 0.17 64.78 0.17 64.77 0.17 64.65 0.18 63.6 1.25 62.08 1.28 62.04 1.33 62.03 1.37 62.05 1.41 62.07 1.43 62.12 1.42 62.17 1.38 62.3 0.53 65.27 2.32 67.13 3.45 68.3 5.96 69.49 7.76 68.69L38.22 43.58C38.23 43.57 38.4 43.46 38.62 43.2 38.98 42.77 39.44 41.98 39.56 40.66L38.48 6.3C38.48 6.28 38.44 5.75 37.99 5.72 37.94 5.72 37.9 5.68 37.9 5.63 37.89 5.58 37.93 5.54 37.97 5.52 38.28 5.43 38.56 5.45 38.8 5.59 39.23 5.85 39.36 6.39 39.36 6.41L40.53 40.33C40.69 41.84 40.06 42.94 39.5 43.61ZM8.34 69.36 38.77 44.04C38.78 44.03 39.04 43.84 39.34 43.48L39.34 43.48C39.87 42.85 40.48 41.79 40.33 40.36L39.16 6.45 39.16 6.45C39.16 6.45 39.05 5.98 38.69 5.77 38.6 5.71 38.49 5.68 38.38 5.67 38.58 5.84 38.66 6.12 38.67 6.29L39.74 40.67C39.62 42.05 39.13 42.88 38.75 43.33 38.51 43.62 38.32 43.74 38.31 43.74L7.86 68.86C7.85 68.87 7.85 68.87 7.84 68.87 6.68 69.39 4.07 69.24 2.17 67.27 0.74 65.79 0.92 63.65 1.1 62.65 0.39 63.83 0.35 64.65 0.35 64.76L0.71 66C1.09 67 1.65 67.77 2.37 68.27 4.43 69.72 6.38 70.07 8.34 69.36Z" fill="#348734"/></g></g><g><g><path d="M33.4 40.56C32.36 39.64 31.91 38.45 31.75 37.36 30.73 38.54 29.54 39.26 29.54 39.26 29.54 39.26 4.23 58.95 2.1 61.18 1.84 62.01 1.16 64.78 2.91 66.71 4.99 69.01 6.66 68.41 7.49 67.92L38.23 41.85C38.23 41.86 35.97 42.84 33.4 40.56Z" fill="#FAECD3"/><path d="M38.31 41.92C38.31 41.92 38.3 41.93 38.3 41.93L7.56 68.01C6.01 68.92 4.39 68.5 2.84 66.79 1.05 64.82 1.75 61.98 2.01 61.16 2.01 61.15 2.02 61.13 2.03 61.12 4.14 58.9 29.22 39.38 29.47 39.19 29.49 39.18 30.67 38.46 31.67 37.3 31.69 37.27 31.74 37.26 31.77 37.27 31.81 37.28 31.83 37.31 31.84 37.35 32.04 38.66 32.58 39.72 33.46 40.5 35.95 42.71 38.17 41.79 38.19 41.78 38.24 41.76 38.29 41.78 38.31 41.82 38.34 41.84 38.34 41.89 38.31 41.92ZM2.19 61.23C1.94 62.05 1.29 64.77 2.98 66.65 4.48 68.31 5.98 68.71 7.44 67.85L37.82 42.08C37.02 42.25 35.25 42.34 33.33 40.64 32.46 39.87 31.91 38.84 31.68 37.58 30.7 38.66 29.6 39.34 29.59 39.34 29.35 39.53 4.4 58.95 2.19 61.23Z" fill="#C4C6C8"/></g><g><path d="M34.85 7.55C34.85 7.55 32.94 6.62 32.88 5.62 32.88 5.62 32.87 30.56 33.16 33.73 33.29 35.15 32.58 36.41 31.75 37.36 31.92 38.45 32.36 39.64 33.4 40.56 35.97 42.84 38.24 41.85 38.24 41.85L37.22 6.98C37.22 6.98 35.96 8.38 34.85 7.55Z" fill="#DED3BE"/><path d="M38.31 41.92C38.3 41.93 38.29 41.94 38.27 41.95 38.25 41.96 35.92 42.93 33.33 40.64 32.42 39.83 31.85 38.73 31.65 37.38 31.64 37.35 31.65 37.32 31.67 37.3 31.67 37.3 31.67 37.3 31.67 37.3L31.74 37.22C32.72 36.06 33.16 34.89 33.05 33.74 32.76 30.61 32.77 5.87 32.77 5.62 32.77 5.57 32.81 5.52 32.86 5.52 32.91 5.52 32.96 5.56 32.96 5.61 33.02 6.54 34.86 7.45 34.88 7.46 35.92 8.23 37.13 6.93 37.14 6.91 37.17 6.88 37.21 6.87 37.25 6.88 37.29 6.89 37.31 6.93 37.31 6.97L38.32 41.85C38.33 41.88 38.32 41.9 38.31 41.92ZM31.85 37.39C32.05 38.68 32.59 39.72 33.46 40.49 34.76 41.65 35.98 41.93 36.77 41.97 37.46 42 37.96 41.85 38.13 41.79L37.13 7.2C36.74 7.55 35.72 8.31 34.79 7.62 34.74 7.6 33.47 6.97 32.97 6.17 32.97 9.89 32.98 30.85 33.25 33.71 33.36 34.91 32.9 36.13 31.89 37.33L31.85 37.39Z" fill="#C4C6C8"/></g></g></g><g opacity="0.6"><path d="M36.8 42.15C36.8 42.16 36.79 42.16 36.78 42.17L5.31 68.4C5.25 68.45 5.16 68.44 5.11 68.38 5.06 68.32 5.07 68.23 5.13 68.18L36.56 41.99 36.48 7.48C36.48 7.4 36.54 7.34 36.62 7.34 36.7 7.34 36.76 7.4 36.76 7.48L36.84 42.06C36.83 42.09 36.82 42.12 36.8 42.15Z" fill="#A5A7A9"/><path d="M36.09 42.01C36.08 42.02 36.08 42.02 36.07 42.03L4.73 68.14C4.67 68.19 4.58 68.18 4.53 68.12 4.48 68.06 4.49 67.97 4.55 67.92L35.89 41.81C35.95 41.76 36.04 41.77 36.09 41.83 36.13 41.88 36.13 41.96 36.09 42.01Z" fill="#A5A7A9"/><path d="M35.17 41.74C35.16 41.75 35.16 41.75 35.15 41.76L4.06 67.81C4 67.86 3.91 67.85 3.86 67.79 3.81 67.73 3.82 67.64 3.88 67.59L34.97 41.54C35.03 41.49 35.12 41.5 35.17 41.56 35.21 41.62 35.21 41.69 35.17 41.74Z" fill="#A5A7A9"/><path d="M34.51 41.51C34.5 41.52 34.5 41.52 34.49 41.53L3.59 67.41C3.53 67.46 3.44 67.45 3.39 67.39 3.34 67.33 3.35 67.24 3.41 67.19L34.31 41.3C34.37 41.25 34.46 41.26 34.51 41.32 34.56 41.38 34.56 41.46 34.51 41.51Z" fill="#A5A7A9"/><path d="M34.06 41.12C34.05 41.13 34.05 41.13 34.04 41.14L3.13 67.03C3.07 67.08 2.98 67.07 2.93 67.01 2.88 66.95 2.89 66.86 2.95 66.81L33.85 40.92C33.91 40.87 34 40.88 34.05 40.94 34.1 40.99 34.1 41.07 34.06 41.12Z" fill="#A5A7A9"/><path d="M33.51 40.66C33.51 40.67 33.5 40.67 33.49 40.68L2.78 66.57C2.72 66.62 2.63 66.61 2.58 66.55 2.53 66.49 2.54 66.4 2.6 66.35L33.31 40.45C33.37 40.4 33.46 40.41 33.51 40.47 33.55 40.53 33.55 40.6 33.51 40.66Z" fill="#A5A7A9"/><path d="M32.97 40.1C32.96 40.11 32.96 40.11 32.95 40.12L2.44 65.84C2.38 65.89 2.29 65.88 2.24 65.82 2.19 65.76 2.2 65.67 2.26 65.62L32.77 39.9C32.83 39.85 32.92 39.86 32.97 39.92 33.01 39.97 33.01 40.04 32.97 40.1Z" fill="#A5A7A9"/><path d="M32.45 39.32C32.44 39.33 32.44 39.33 32.43 39.34L2.13 64.97C2.07 65.02 1.98 65.01 1.93 64.95 1.88 64.89 1.89 64.8 1.95 64.75L32.26 39.12C32.32 39.07 32.41 39.08 32.46 39.14 32.5 39.19 32.5 39.27 32.45 39.32Z" fill="#A5A7A9"/><path d="M32.21 38.8C32.2 38.81 32.2 38.81 32.19 38.82L1.88 63.93C1.82 63.98 1.73 63.97 1.68 63.91 1.63 63.85 1.64 63.76 1.7 63.71L32.02 38.6C32.08 38.55 32.17 38.56 32.22 38.62 32.26 38.67 32.25 38.75 32.21 38.8Z" fill="#A5A7A9"/><path d="M31.98 38.09C31.98 38.1 31.97 38.1 31.96 38.11L1.81 62.65C1.75 62.7 1.66 62.69 1.61 62.63 1.56 62.57 1.57 62.48 1.63 62.43L31.79 37.88C31.85 37.83 31.94 37.84 31.99 37.9 32.03 37.97 32.02 38.04 31.98 38.09Z" fill="#A5A7A9"/><path d="M36.09 42.01C36.06 42.04 36.03 42.06 35.98 42.06 35.9 42.06 35.84 42 35.84 41.92L35.75 7.78C35.75 7.7 35.81 7.64 35.89 7.64 35.97 7.64 36.03 7.7 36.03 7.78L36.12 41.92C36.12 41.96 36.11 41.99 36.09 42.01Z" fill="#A5A7A9"/><path d="M35.23 41.66C35.2 41.69 35.16 41.71 35.12 41.71 35.04 41.71 34.98 41.65 34.98 41.57L35.34 7.8C35.34 7.72 35.4 7.66 35.48 7.66 35.56 7.66 35.62 7.72 35.62 7.8L35.27 41.57C35.27 41.61 35.25 41.64 35.23 41.66Z" fill="#A5A7A9"/><path d="M34.57 41.45C34.54 41.48 34.51 41.5 34.46 41.5 34.38 41.5 34.32 41.44 34.32 41.36L34.67 7.59C34.67 7.51 34.73 7.45 34.81 7.45 34.89 7.45 34.95 7.51 34.95 7.59L34.6 41.36C34.6 41.39 34.59 41.42 34.57 41.45Z" fill="#A5A7A9"/><path d="M34.08 41.03C34.05 41.06 34.02 41.08 33.97 41.08 33.89 41.08 33.83 41.02 33.83 40.94L34.18 7.46C34.18 7.38 34.24 7.32 34.32 7.32 34.4 7.32 34.46 7.38 34.46 7.46L34.11 40.94C34.11 40.97 34.09 41 34.08 41.03Z" fill="#A5A7A9"/><path d="M33.63 40.65C33.6 40.68 33.57 40.7 33.52 40.7 33.44 40.7 33.38 40.64 33.38 40.56L33.73 6.79C33.73 6.71 33.79 6.65 33.87 6.65 33.95 6.65 34.01 6.71 34.01 6.79L33.66 40.56C33.66 40.6 33.65 40.63 33.63 40.65Z" fill="#A5A7A9"/><path d="M33.05 40.28C33.02 40.31 32.99 40.33 32.94 40.33 32.86 40.33 32.8 40.27 32.8 40.19L33.15 6.42C33.15 6.34 33.21 6.28 33.29 6.28 33.37 6.28 33.43 6.34 33.43 6.42L33.08 40.19C33.08 40.22 33.07 40.25 33.05 40.28Z" fill="#A5A7A9"/><path d="M32.43 38.93C32.4 38.96 32.36 38.98 32.32 38.98 32.24 38.98 32.18 38.92 32.18 38.84L32.53 5.07C32.53 4.99 32.59 4.93 32.67 4.93 32.75 4.93 32.81 4.99 32.81 5.07L32.46 38.84C32.46 38.88 32.45 38.91 32.43 38.93Z" fill="#A5A7A9"/></g><g><path d="M30.61 0.34C29.3 1.14 5.86 19.95 5.86 19.95 5.86 19.95 3.93 20.83 3.22 27.31L0.1 63.34C0.1 63.34 0.1 63.95 0.26 64.78 0.26 64.78 0.21 63.26 2.06 61.23 2.07 61.22 2.09 61.2 2.1 61.19 4.23 58.95 29.53 39.27 29.53 39.27 29.53 39.27 33.44 36.9 33.15 33.74 32.85 30.57 32.87 5.63 32.87 5.63L32.76 2.08C32.76 2.07 32.34-0.72 30.61 0.34Z" fill="#A1CF65"/><path d="M31.89 37.34 31.89 37.34C30.86 38.56 29.6 39.33 29.59 39.34 29.35 39.53 4.28 59.04 2.18 61.25L2.14 61.29C2.05 61.39 1.96 61.49 1.87 61.59 0.35 63.4 0.36 64.71 0.36 64.77 0.36 64.83 0.3 64.88 0.24 64.87 0.2 64.86 0.17 64.83 0.17 64.79 0 63.97 0 63.37 0 63.34L3.12 27.3C3.61 22.89 4.67 21.05 5.26 20.35 5.54 20.01 5.75 19.89 5.81 19.86 6.88 19.01 29.26 1.05 30.56 0.25 31.01-0.02 31.41-0.08 31.77 0.09 32.62 0.48 32.85 1.98 32.86 2.05L32.97 5.61C32.97 5.86 32.96 30.59 33.25 33.71 33.37 34.92 32.91 36.14 31.89 37.34ZM1.72 61.47C1.81 61.37 1.9 61.27 1.99 61.16L2.03 61.11C4.14 58.89 29.22 39.37 29.47 39.18 29.49 39.17 30.73 38.41 31.74 37.21 32.72 36.05 33.16 34.88 33.05 33.73 32.76 30.6 32.77 5.86 32.77 5.61L32.66 2.06C32.66 2.06 32.43 0.61 31.68 0.26 31.39 0.12 31.04 0.17 30.66 0.41 29.37 1.2 6.16 19.83 5.92 20.01 5.91 20.02 5.91 20.02 5.9 20.02 5.9 20.02 5.7 20.12 5.41 20.46 4.83 21.14 3.8 22.94 3.32 27.3L0.2 63.35 0.2 63.35C0.2 63.35 0.2 63.66 0.26 64.13 0.4 63.54 0.77 62.59 1.72 61.47Z" fill="#348734"/></g><path d="M6.59 20.99C6.59 20.99 4.98 22.19 4.59 24.6 4.2 27.01 1.85 58.34 1.85 58.34 1.85 58.34 1.62 60.33 2.88 59.21 4.14 58.08 28.27 38.9 28.27 38.9 28.27 38.9 31.66 37.01 32.51 34.08L31.83 4.82C31.83 4.82 32.07 1.58 30.33 2 28.59 2.41 6.59 20.99 6.59 20.99Z" fill="#A1CF65"/></g><path d="M3.75 57.57 6.64 22.4C6.64 22.39 6.05 46.27 3.75 57.57Z" fill="#5CA55A"/></g></svg>