<svg width="64.03" height="55.46" viewBox="0 0 64.03 55.46" xmlns="http://www.w3.org/2000/svg" xmlns:xlink="http://www.w3.org/1999/xlink" xml:space="preserve" overflow="hidden"><defs></defs><g><g><path d="M64.03 55.46 0 55.46 31.96 0Z" fill="#EA5590"/><path d="M31.41 2.4 3.75 51.99C3.75 51.99 27.37 14.11 31.41 2.4Z" fill="#FFFFFF"/><path d="M30.13 54.11 61.84 54.11 45.67 25.46 60.14 52.84Z" fill="#EA5590"/></g><g><g><path d="M24.83 33.61C26.98 33.52 29.16 34.91 29.16 34.91 27.61 32.79 24.83 33.61 24.83 33.61Z" fill="#EA5590"/><path d="M29.16 21.87C30.39 23.17 30.9 24.23 30.9 24.23 30.9 24.23 31.26 20.94 29.19 20.52 27.12 20.1 24.81 22.49 24.81 22.49 24.81 22.49 27.93 20.57 29.16 21.87Z" fill="#EA5590"/><path d="M17.85 38.9C18.56 38.44 19.26 37.72 19.68 36.6 19.68 36.6 17.6 39.21 15.5 39.72 15.5 39.72 16.59 39.66 17.71 38.99 17.62 40.04 17.57 41.07 17.61 42.06 17.77 46.44 19.47 50.06 25.66 51.07 33.34 52.32 41.6 41.87 41.6 41.87 39.66 42.28 37.83 42.53 36.12 42.67 25.11 43.54 18.78 39.53 17.85 38.9Z" fill="#EA5590"/><path d="M41.6 41.86C41.6 41.86 46.57 41.13 47.88 37.5 47.88 37.51 45.69 40.44 41.6 41.86Z" fill="#EA5590"/><path d="M30.29 29.17C30.29 26.72 29.19 24.73 27.82 24.73 26.46 24.73 25.36 26.72 25.36 29.17 25.36 31.62 26.46 33.61 27.82 33.61 29.19 33.61 30.29 31.62 30.29 29.17Z" fill="#EA5590"/><path d="M39.67 32.04C40.24 31.22 40.61 29.97 40.6 28.55 40.59 26.1 39.47 24.11 38.11 24.12 36.75 24.13 35.66 26.12 35.67 28.58 35.68 31.03 36.8 33.02 38.16 33.01 38.38 33.01 38.58 32.94 38.78 32.85 38.5 33.18 38.24 33.59 38 34.11 38 34.11 39.65 31.39 41.95 31.55 41.95 31.55 40.85 31.28 39.67 32.04Z" fill="#EA5590"/><path d="M38.21 18.56C39.76 18.18 41.61 20.38 41.61 20.38 41.61 20.38 41.22 17.85 39.07 17.5 36.92 17.15 35.12 21.68 35.12 21.68 35.12 21.68 36.66 18.93 38.21 18.56Z" fill="#EA5590"/><path d="M38.79 34.34C39.02 35.22 40.53 35.59 42.17 35.16 43.81 34.73 44.96 33.68 44.73 32.8 44.5 31.92 42.99 31.55 41.35 31.98 39.7 32.4 38.56 33.46 38.79 34.34Z" fill="#EA5590"/><path d="M25.94 36.52C27.27 36.81 28.47 36.46 28.63 35.75 28.78 35.04 27.83 34.23 26.5 33.94 25.17 33.65 23.97 34 23.81 34.71 23.66 35.43 24.61 36.24 25.94 36.52Z" fill="#EA5590"/></g><g><path d="M24.73 33.5C24.73 33.5 27.51 32.68 29.06 34.8 29.06 34.8 26.88 33.41 24.73 33.5Z" fill="#952064"/><path d="M30.8 24.12C30.8 24.12 31.16 20.83 29.09 20.41 27.02 19.99 24.71 22.38 24.71 22.38 24.71 22.38 27.83 20.46 29.06 21.76 30.28 23.06 30.8 24.12 30.8 24.12Z" fill="#19292C"/><g><g><path d="M32.94 45.64C34.13 45.56 35.3 43.85 36.01 42.56 24.07 43.52 17.61 38.7 17.61 38.7 17.51 39.81 17.46 40.9 17.5 41.95 23.77 46.57 31.3 45.75 32.94 45.64Z" fill="#FFFFFF"/><path d="M36.01 42.56C35.29 43.86 34.13 45.56 32.94 45.64 31.31 45.75 23.77 46.57 17.5 41.95 17.66 46.33 19.36 49.95 25.55 50.96 33.23 52.21 41.49 41.76 41.49 41.76 39.55 42.16 37.72 42.42 36.01 42.56Z" fill="#96172D"/><path d="M24.83 46.11C24.64 45.74 24.42 45.39 24.18 45.05 22 44.5 19.67 43.55 17.49 41.95 17.65 46.33 19.35 49.95 25.54 50.96 25.65 50.98 25.76 50.98 25.88 51 25.89 49.27 25.59 47.56 24.83 46.11Z" fill="#ED776F"/></g><g><path d="M15.39 39.61C15.39 39.61 18.46 39.46 19.57 36.49 19.57 36.49 17.49 39.09 15.39 39.61Z" fill="#952064"/><path d="M47.77 37.4C47.77 37.4 45.59 40.33 41.49 41.76 41.49 41.76 46.46 41.03 47.77 37.4Z" fill="#952064"/></g></g><path d="M30.19 29.06C30.19 31.51 29.09 33.5 27.72 33.5 26.36 33.5 25.26 31.51 25.26 29.06 25.26 26.61 26.36 24.62 27.72 24.62 29.08 24.62 30.19 26.61 30.19 29.06Z" fill="#FFFFFF"/><g><path d="M28.53 29.89C28.53 31.23 27.96 32.32 27.26 32.32 26.56 32.32 25.98 31.23 25.98 29.89 25.98 28.55 26.55 27.46 27.26 27.46 27.96 27.46 28.53 28.55 28.53 29.89Z" fill="#3D1A0B"/><path d="M27.05 28.88C27.05 29.24 26.9 29.53 26.71 29.53 26.52 29.53 26.37 29.24 26.37 28.88 26.37 28.52 26.52 28.23 26.71 28.23 26.89 28.23 27.05 28.52 27.05 28.88Z" fill="#FFFFFF"/></g><path d="M40.49 28.45C40.51 30.9 39.41 32.9 38.05 32.91 36.69 32.92 35.57 30.94 35.56 28.48 35.55 26.03 36.64 24.03 38 24.02 39.36 24.01 40.48 25.99 40.49 28.45Z" fill="#FFFFFF"/><path d="M41.84 31.44C41.84 31.44 39.36 30.82 37.89 34 37.9 34 39.55 31.27 41.84 31.44Z" fill="#952064"/><path d="M35.01 21.56C35.01 21.56 36.81 17.03 38.96 17.38 41.11 17.73 41.5 20.26 41.5 20.26 41.5 20.26 39.65 18.07 38.1 18.44 36.55 18.82 35.01 21.56 35.01 21.56Z" fill="#19292C"/><g><path d="M38.75 29.18C38.75 30.52 38.18 31.61 37.47 31.61 36.77 31.61 36.2 30.52 36.2 29.18 36.2 27.84 36.77 26.75 37.47 26.75 38.18 26.75 38.75 27.84 38.75 29.18Z" fill="#3D1A0B"/><path d="M37.27 28.17C37.27 28.53 37.12 28.82 36.93 28.82 36.74 28.82 36.59 28.53 36.59 28.17 36.59 27.81 36.74 27.52 36.93 27.52 37.12 27.52 37.27 27.81 37.27 28.17Z" fill="#FFFFFF"/></g><path d="M38.68 34.23C38.91 35.11 40.42 35.48 42.06 35.05 43.7 34.62 44.85 33.57 44.62 32.69 44.39 31.81 42.88 31.44 41.24 31.87 39.6 32.29 38.45 33.35 38.68 34.23Z" fill="#FAACCC"/><path d="M23.71 34.61C23.56 35.32 24.51 36.13 25.84 36.42 27.17 36.71 28.37 36.36 28.53 35.65 28.68 34.94 27.73 34.13 26.4 33.84 25.06 33.55 23.86 33.9 23.71 34.61Z" fill="#FAACCC"/></g></g></g></svg>