<svg width="56.55" height="56.55" viewBox="0 0 56.55 56.55" xmlns="http://www.w3.org/2000/svg" xmlns:xlink="http://www.w3.org/1999/xlink" xml:space="preserve" overflow="hidden"><defs></defs><g><g><rect x="0" y="0" width="56.55" height="56.55" fill="#FF0037"/><path d="M1.21 53.59 1.21 1.67 52.07 1.67 2.06 2.73Z" fill="#FFFFFF"/><path d="M3.33 55.08 55.26 55.08 55.26 4.22 54.19 54.23Z" fill="#C00037"/></g><g><g><path d="M46.62 33.7C46.62 33.7 43.75 34.61 41.65 32.23 41.65 32.23 42.24 33.71 43.81 34.1 43.74 34.43 43.62 34.94 43.39 35.62 43 36.82 42.29 38.49 41.1 40.28 39.91 42.07 38.14 43.93 35.84 45.3 34.69 45.98 33.41 46.54 32.06 46.93 30.71 47.32 29.3 47.55 27.87 47.64 26.44 47.74 25.01 47.69 23.64 47.39 22.27 47.1 20.98 46.58 19.85 45.87 18.72 45.16 17.74 44.3 16.95 43.36 16.15 42.43 15.52 41.44 15.01 40.49 14.01 38.59 13.46 36.85 13.16 35.63 12.99 34.94 12.89 34.42 12.83 34.09 13.39 33.73 13.94 33.07 14.34 31.89 14.34 31.89 13.8 32.97 12.77 33.72 12.77 33.7 12.77 33.69 12.77 33.69 12.77 33.69 12.77 33.7 12.77 33.73 12.23 34.12 11.57 34.42 10.77 34.42 10.77 34.42 11.79 34.76 12.81 34.11 12.85 34.44 12.93 34.97 13.08 35.66 13.35 36.89 13.82 38.66 14.8 40.61 15.29 41.58 15.91 42.6 16.71 43.57 17.5 44.54 18.49 45.46 19.65 46.19 20.81 46.92 22.14 47.47 23.55 47.78 24.96 48.09 26.44 48.16 27.89 48.06 29.34 47.96 30.79 47.72 32.17 47.31 33.55 46.9 34.85 46.32 36.03 45.62 38.38 44.19 40.13 42.24 41.3 40.41 42.48 38.57 43.12 36.85 43.47 35.64 43.65 35.03 43.75 34.54 43.81 34.21 43.82 34.17 43.82 34.14 43.83 34.1 44.55 34.28 45.46 34.22 46.62 33.7Z" fill="#C00037"/><path d="M39.09 25.99C37.69 26.5 36.78 27.52 37.05 28.27 37.32 29.02 38.68 29.21 40.08 28.7 41.48 28.19 42.39 27.17 42.12 26.42 41.85 25.67 40.49 25.48 39.09 25.99Z" fill="#C00037"/><path d="M15.74 28.42C17.15 29.1 18.59 29.04 18.96 28.29 19.32 27.53 18.48 26.37 17.07 25.69 15.66 25.01 14.22 25.07 13.85 25.83 13.48 26.57 14.33 27.74 15.74 28.42Z" fill="#C00037"/><path d="M39.63 20.84C39.48 17.58 37.67 15.01 35.57 15.11 33.48 15.2 31.9 17.92 32.04 21.19 32.19 24.45 34 27.02 36.1 26.92 36.32 26.91 36.54 26.86 36.75 26.8 36.24 27.5 36.08 28.13 36.08 28.13 37.71 26.11 40.82 24.88 40.82 24.88 39.89 24.88 39.14 25.07 38.53 25.35 39.27 24.22 39.71 22.61 39.63 20.84Z" fill="#C00037"/><path d="M20.3 28.12C20.08 27.58 19.83 27.14 19.57 26.76 19.73 26.82 19.9 26.87 20.07 26.89 22.15 27.19 24.21 24.81 24.67 21.58 25.14 18.35 23.83 15.49 21.76 15.19 19.68 14.89 17.62 17.27 17.16 20.5 16.89 22.36 17.21 24.09 17.93 25.29 16.81 24.73 15.84 24.89 15.84 24.89 18.49 25.37 20.3 28.12 20.3 28.12Z" fill="#C00037"/><path d="M17.46 15.05C17.52 15.09 17.63 15.1 17.7 15.01 18.53 14.05 18.99 12.88 20.3 12.46 22.13 11.88 22.82 14.16 24.25 14.65 24.57 14.76 24.93 14.44 24.97 14.12 25.23 11.78 22.39 10.09 20.3 10.98 19.21 11.45 18.38 12.15 17.75 13.16 17.45 13.64 17 14.57 17.45 15.06L17.46 15.05Z" fill="#C00037"/><path d="M32.83 13.27C33.58 12.45 34.37 11.46 35.51 11.22 36.2 11.07 36.91 11.38 37.46 11.78 38 12.16 38.74 12.89 39.45 12.37 40.12 11.88 40.06 10.72 39.61 10.13 38.05 8.07 35.49 8.59 33.57 9.79 32.58 10.41 31.73 11.44 31.18 12.45 30.9 12.96 30.63 13.5 30.65 14.1 30.71 15.75 32.48 13.65 32.83 13.27Z" fill="#C00037"/></g><g><g><path d="M12.77 33.42C12.77 33.42 12.86 34.14 13.16 35.36 13.47 36.58 14.01 38.32 15.01 40.22 15.52 41.17 16.15 42.15 16.95 43.09 17.74 44.03 18.72 44.89 19.85 45.6 20.98 46.31 22.27 46.83 23.64 47.12 25.01 47.42 26.45 47.47 27.87 47.37 29.3 47.28 30.71 47.05 32.06 46.66 33.41 46.27 34.69 45.71 35.84 45.03 38.14 43.65 39.91 41.8 41.1 40.01 42.3 38.22 43 36.54 43.39 35.35 43.79 34.15 43.88 33.43 43.88 33.43 43.88 33.43 43.86 33.61 43.81 33.94 43.75 34.27 43.65 34.76 43.47 35.37 43.11 36.58 42.48 38.3 41.3 40.14 40.13 41.97 38.38 43.92 36.03 45.35 34.86 46.06 33.55 46.63 32.17 47.04 30.8 47.45 29.34 47.7 27.89 47.79 26.44 47.88 24.96 47.82 23.55 47.51 22.14 47.2 20.81 46.65 19.65 45.92 18.48 45.19 17.5 44.27 16.71 43.3 15.91 42.33 15.29 41.32 14.8 40.34 13.82 38.39 13.35 36.62 13.08 35.39 12.82 34.14 12.77 33.42 12.77 33.42Z" fill="#790613"/><path d="M41.65 31.95C41.65 31.95 42.91 35.1 46.62 33.42 46.62 33.42 43.75 34.33 41.65 31.95Z" fill="#790613"/><path d="M10.77 34.14C10.77 34.14 13.22 34.98 14.34 31.62 14.34 31.62 13.08 34.15 10.77 34.14Z" fill="#790613"/></g><path d="M37.06 27.99C37.33 28.74 38.69 28.93 40.09 28.42 41.49 27.91 42.4 26.89 42.13 26.14 41.86 25.39 40.5 25.2 39.1 25.71 37.7 26.22 36.78 27.24 37.06 27.99Z" fill="#FAACCC"/><path d="M13.84 25.53C13.47 26.29 14.32 27.45 15.73 28.13 17.14 28.81 18.58 28.75 18.95 27.99 19.31 27.23 18.47 26.07 17.06 25.39 15.65 24.72 14.21 24.78 13.84 25.53Z" fill="#FAACCC"/><g><path d="M24.67 21.3C24.2 24.53 22.14 26.91 20.07 26.61 17.99 26.31 16.69 23.45 17.16 20.22 17.63 16.99 19.69 14.61 21.76 14.91 23.84 15.21 25.14 18.07 24.67 21.3Z" fill="#FFFFFF"/><path d="M39.63 20.55C39.78 23.81 38.2 26.53 36.1 26.63 34.01 26.72 32.19 24.16 32.04 20.9 31.89 17.64 33.47 14.92 35.57 14.82 37.66 14.73 39.48 17.29 39.63 20.55Z" fill="#FFFFFF"/><g><path d="M37.84 21.02C37.84 22.43 36.97 23.58 35.89 23.58 34.81 23.58 33.93 22.43 33.93 21.02 33.93 19.61 34.81 18.46 35.89 18.46 36.96 18.47 37.84 19.61 37.84 21.02Z" fill="#3D1A0B"/><path d="M35.57 19.96C35.57 20.34 35.34 20.64 35.05 20.64 34.76 20.64 34.53 20.33 34.53 19.96 34.53 19.58 34.76 19.28 35.05 19.28 35.33 19.28 35.57 19.58 35.57 19.96Z" fill="#FFFFFF"/></g><g><path d="M22.96 21.02C22.96 22.43 22.09 23.58 21 23.58 19.92 23.58 19.04 22.43 19.04 21.02 19.04 19.61 19.92 18.46 21 18.46 22.09 18.47 22.96 19.61 22.96 21.02Z" fill="#3D1A0B"/><path d="M20.69 19.96C20.69 20.34 20.46 20.64 20.17 20.64 19.88 20.64 19.65 20.33 19.65 19.96 19.65 19.58 19.88 19.28 20.17 19.28 20.46 19.28 20.69 19.58 20.69 19.96Z" fill="#FFFFFF"/></g><path d="M15.83 24.61C15.83 24.61 18.8 24.09 20.3 27.83 20.3 27.83 18.49 25.08 15.83 24.61Z" fill="#790613"/><path d="M36.08 27.83C36.08 27.83 36.91 24.58 40.82 24.58 40.82 24.58 37.7 25.81 36.08 27.83Z" fill="#790613"/><path d="M20.3 10.7C19.21 11.17 18.38 11.87 17.75 12.88 17.45 13.36 17 14.29 17.45 14.78L17.46 14.77C17.52 14.82 17.63 14.82 17.7 14.73 18.53 13.77 18.99 12.6 20.3 12.18 22.13 11.6 22.82 13.88 24.25 14.37 24.57 14.48 24.93 14.16 24.97 13.84 25.23 11.5 22.38 9.81 20.3 10.7Z" fill="#3D1A0B"/><path d="M39.62 9.83C38.06 7.77 35.5 8.29 33.58 9.49 32.59 10.11 31.74 11.14 31.19 12.15 30.91 12.66 30.64 13.2 30.66 13.8 30.71 15.46 32.47 13.36 32.82 12.98 33.57 12.16 34.36 11.17 35.5 10.92 36.19 10.77 36.9 11.08 37.45 11.48 37.99 11.86 38.73 12.59 39.44 12.07 40.13 11.59 40.07 10.42 39.62 9.83Z" fill="#3D1A0B"/></g></g></g></g></svg>