<svg width="254.63" height="223.28" viewBox="0 0 254.63 223.28" xmlns="http://www.w3.org/2000/svg" xmlns:xlink="http://www.w3.org/1999/xlink" xml:space="preserve" overflow="hidden"><defs></defs><g><path d="M221.23 142C218.36 140.73 215.74 139.19 213.53 136.94 211.53 134.89 216.57 133.8 218.2 132.84 220.32 131.59 221.31 129.72 219.95 127.56 217.85 124.23 213.03 122.55 210.35 119.69 207.19 116.32 204.74 112.34 205.42 107.58 206.15 102.53 212.1 98.76 215.87 96.18 216.25 95.92 216.55 95.5 216.07 95.18 214.2 93.92 212.93 91.99 211.09 90.74 210.1 91.04 210.03 91.05 210.89 90.78 211.51 90.59 212.14 90.47 212.77 90.33 216.36 89.55 220.03 89.09 223.65 88.45 227.45 87.78 235.56 87.28 237.98 83.58 240.79 79.28 229.76 76.73 227.4 76.71 220.35 76.65 214.9 81.69 207.62 78.53 200.12 75.28 203.14 62.83 204.56 56.96 204.71 56.35 203.75 56.29 202.99 56.55 203.65 55.46 204.3 54.49 204.56 53.97 206.8 49.53 208.92 45.03 210.53 40.32 212.52 34.51 213.01 26.85 204.65 28.72 200.32 29.69 196.25 31.3 193.76 35.13 192.22 37.5 191.6 40.25 189.76 42.46 183.76 49.68 179.66 39.78 177.83 36.62 176.48 34.29 170.64 34.21 168.36 33.89 167.96 33.83 166.67 33.8 165.59 33.98 163.16 31.99 161.11 30.05 161.95 26.58 163.01 22.19 164.15 17.96 164.78 13.47 165.62 7.58 163.94-0.62 156.2 0.04 144.49 1.04 147.31 18.86 144.57 27.48 141.27 26.69 138.46 27.72 135.44 29.73 130.06 33.32 129.37 23.84 129.68 20.96 130.12 16.89 129.08 13.51 127.35 9.85 121.49-2.56 110.72 3.98 109.13 15.31 108.26 21.54 113.3 27.33 116.24 32.32 117.95 35.24 119.05 38.3 118.35 41.7 117.76 44.55 111.41 52.55 109.06 48.28 105.12 41.14 101.58 44.24 98.16 48.88 93 51.94 87.61 54.65 83.63 59.27 80.1 63.36 80.78 67.19 82.16 71.97 83.94 78.16 84 86.76 75.13 85.48 71.89 85.01 68.64 84.48 65.36 84.74 57.36 85.37 64.22 93.62 67.84 95.57 69.92 96.69 73.01 95.19 75.06 94.66 77.31 94.08 78.94 94.2 78.81 97.06 78.68 99.7 75.81 100.24 73.58 100.5 71.75 100.71 69.59 100.85 67.94 101.77 63.15 104.47 60.15 114.01 66.82 116.09 72.78 117.95 81.88 112.28 86.05 117.2 89.54 121.32 93.55 127.16 92.7 132.88 92.41 134.83 90.02 136.78 89.3 138.66 88.05 141.9 85.73 143.86 84.25 146.84 82.62 150.15 87.59 154.99 90.33 155.9 94.19 157.18 98.5 155.04 102.17 153.83 105.55 152.72 108.83 151.28 112.34 150.66 115.49 150.11 116.38 151.56 116.24 153.63 111.56 159.64 105.74 166.82 108.6 173.62 111.25 179.92 119.87 179.5 122.29 173.77 123.19 171.64 123.58 169.38 124.6 167.28 127.39 161.52 132.31 164.5 133.27 168.31 133.99 171.15 133.83 174.64 136.85 176.09 139.03 177.14 141.91 176.17 143.52 174.61 144.53 173.62 144.79 171.89 145.07 170.6 145.33 169.37 145.52 168.24 146.06 167.07 147.54 163.88 152.73 165.75 153.67 168.63 155.25 173.46 154.95 176.62 158.25 180.86 159.63 182.63 162.07 185.8 164.76 184.76 166.87 183.95 167.13 181.58 167.45 179.6 168.37 173.85 168.47 168.43 173.71 164.73 179.01 160.99 186.63 161.07 192.5 158.4 198.9 155.49 198.9 145.14 208.66 149.9 211.08 151.08 212.68 154.57 214.42 156.51 215.69 157.92 217.21 159.26 218.65 160.48 221.78 163.12 225.36 165.3 229.13 166.85 233.17 168.51 239.05 168.88 239.98 163.47 242.08 151.33 230 145.9 221.23 142Z" fill="#F1F708"/><path d="M64.53 65.69C69.34 67.48 74.28 64.27 76.16 59.87 77.02 57.85 77.19 55.1 75.85 53.25 74.15 50.89 71.19 50.5 68.47 50.61 68.32 50.62 68.12 50.67 67.92 50.75 65.48 50.76 63.13 51.76 61.37 54.08 58.31 58.13 59.75 63.92 64.53 65.69Z" fill="#F1F708"/><path d="M51.95 104.55C50.41 102.66 47.39 102.62 44.75 102.95 39.38 102 34.01 103.82 31.51 109.16 31.42 109.34 31.37 109.59 31.54 109.75 36.9 114.93 45.58 116.32 51.01 110.35 52.42 108.8 53.44 106.38 51.95 104.55Z" fill="#F1F708"/><path d="M13.59 100.87C13.78 100.47 13.66 100.05 12.91 99.95 8.07 99.29 3.57 101.65 1.11 105.83-1.14 109.64 0.08 113.97 4.3 115.5 9.01 117.2 14.4 115.26 16.89 110.98 19.27 106.87 17.21 102.84 13.59 100.87Z" fill="#F1F708"/><path d="M139.68 186.47C139.87 186.26 139.84 186.07 139.36 185.99 134.84 185.23 129.94 187.17 127.83 191.38 125.35 196.34 131 200.21 135.42 200.33 139.41 200.44 143.27 198.25 144.7 194.44 146.27 190.31 143.18 187.61 139.68 186.47Z" fill="#F1F708"/><path d="M160.03 210.9C159.06 210.66 158.16 211.66 158.54 212.31 155.88 212.4 153.28 213.35 151.76 215.71 150.15 218.2 150.75 221.24 153.43 222.62 157.01 224.47 162.53 222.19 164.78 219.21 165.81 217.84 166.21 215.94 165.43 214.37 164.39 212.28 162.16 211.42 160.03 210.9Z" fill="#F1F708"/><path d="M252.61 154.19C252.86 154.07 253.63 153.69 253.25 153.36 253.02 153.16 252.63 153.16 252.27 153.23 252.12 153.1 251.93 153.01 251.7 152.98 251.68 152.87 251.65 152.76 251.65 152.64 251.63 152.09 249.75 152.37 249.31 153 248.59 152.87 247.54 153.26 247.53 153.92 247.51 155.26 246.91 156.57 247 157.89 247.12 159.5 249.01 160 250.31 160.28 251.75 160.58 252.61 160.6 253.63 159.46 254.26 158.76 254.69 157.97 254.63 157.02 254.55 155.78 253.03 155.26 252.61 154.19Z" fill="#F1F708"/><path d="M245.75 104.17C245.8 103.83 245.64 103.49 245.25 103.36 243.14 102.68 240.46 102.26 238.72 103.99 237.8 104.9 237.58 106.14 237.65 107.4 236.93 108.05 236.58 108.9 237.05 110.01 237.8 111.81 240.58 113.92 242.57 114.02 245.34 114.16 247.28 110.44 248.12 108.22 249.01 105.85 247.61 104.71 245.75 104.17Z" fill="#F1F708"/><path d="M184.47 23.81C184.47 23.99 184.88 23.98 185.17 23.95 185.13 24.46 185.2 25 185.31 25.5 185.43 26.03 186.35 25.9 186.7 25.81 187.89 25.5 189.13 25.11 190.05 24.24 190.73 23.6 191.07 22.69 191.72 22.02 191.88 21.85 192.11 21.53 191.87 21.31 191.62 21.09 191.36 20.89 191.08 20.72 191.15 20.62 191.13 20.53 190.91 20.5 190.21 20.42 189.59 19.68 188.91 19.33 188.74 18.94 188.61 18.54 188.6 18.1 188.59 17.73 186.14 18.1 186.16 18.75 186.16 18.93 186.21 19.1 186.25 19.28 185.79 19.43 185.36 19.64 184.99 19.9 184.29 20.39 184.48 20.94 184.48 21.73 184.47 22.43 184.47 23.12 184.47 23.81Z" fill="#F1F708"/><path d="M65.76 202.99C65.17 202.61 63.12 203.61 63.46 203.83 63.71 203.98 63.93 204.14 64.15 204.31 59.2 204.14 54.76 207.23 52.36 211.52 49.77 216.13 51.72 221.46 57.42 221.79 62.23 222.07 66.03 218.58 67.05 214.02 67.08 213.87 67.1 213.72 67.13 213.57 67.29 213.49 67.43 213.4 67.5 213.29 69.78 209.34 69.89 205.62 65.76 202.99Z" fill="#F1F708"/></g></svg>