<svg width="133.74" height="150" viewBox="0 0 133.74 150" xmlns="http://www.w3.org/2000/svg" xmlns:xlink="http://www.w3.org/1999/xlink" xml:space="preserve" overflow="hidden"><defs></defs><g><g><path d="M71.24 131.62C70.93 130.72 70.19 130.08 69.48 129.49L69.44 129.31C69.43 129.19 69.42 129.08 69.41 128.96 69.43 128.96 69.44 128.97 69.46 128.96 69.64 128.93 69.76 128.77 69.8 128.6 69.84 128.46 69.79 128.36 69.73 128.33 69.73 128.27 69.71 128.22 69.68 128.19 69.67 128.17 69.65 128.16 69.64 128.14 69.78 128.2 69.93 128.24 70.08 128.28 69.95 127.96 69.82 127.65 69.69 127.33 69.07 126.57 68.47 125.79 67.94 124.96 67.92 124.93 67.92 124.9 67.91 124.87 64.6 120.46 62.11 115.47 59.89 110.44 59.34 109.19 58.8 107.93 58.27 106.66 58.28 106.63 58.29 106.59 58.28 106.56 58.14 104.83 57.98 103.02 57.04 101.51 56.64 100.87 56.13 100.32 55.6 99.79 56 99.2 56.39 98.6 56.77 98 57.93 96.16 59.12 94.23 59.81 92.15 59.99 91.6 60.14 91.03 60.22 90.45 60.33 90.82 60.44 91.19 60.54 91.56 60.6 91.78 60.98 91.53 61.03 91.42 61.52 90.4 61.83 89.31 61.97 88.2 61.97 88.23 61.98 88.25 61.98 88.28 62.03 88.53 62.42 88.33 62.48 88.18 63.54 85.7 63.91 82.96 63.58 80.3 63.6 78.76 63.68 77.23 62.94 75.81 62.21 74.4 60.97 73.34 59.64 72.52 56.97 70.9 53.63 69.97 50.63 71.27 49.45 71.78 47.68 73.03 48.29 74.51 48.62 76.16 48.75 77.84 48.75 79.53 48.75 81.42 48.68 88.46 48.68 88.49 48.53 90.53 48.39 92.58 48.27 94.62 48.15 96.61 48.02 98.62 48.03 100.62 48.03 101.09 48.06 101.55 48.11 102.02 48.11 102.02 48.11 102.02 48.11 102.02 48.12 102.06 48.13 102.09 48.13 102.13 48.17 102.4 48.21 102.67 48.25 102.95 48.25 102.95 48.25 102.95 48.25 102.95 48.26 103.01 48.28 103.07 48.29 103.13 48.29 103.14 48.3 103.14 48.3 103.15 48.3 103.16 48.3 103.17 48.3 103.18 48.38 103.55 48.46 103.92 48.57 104.28 48.6 104.4 48.63 104.51 48.66 104.63L48.66 104.63C48.66 104.63 48.66 104.63 48.66 104.63 48.72 104.89 48.77 105.15 48.81 105.42 48.99 106.16 49.26 106.87 49.68 107.52 50.24 108.4 51.93 109.73 51.96 109.77 56.81 116.33 59.25 124.21 62.31 131.67 62.49 132.11 62.68 132.54 62.87 132.98 63.14 133.43 63.44 133.87 63.79 134.26 63.85 134.2 63.9 134.14 63.96 134.08 64.01 134.03 64.06 133.99 64.12 133.95 64.18 133.84 64.23 133.72 64.27 133.6 64.31 133.67 64.36 133.74 64.4 133.81 64.48 133.93 64.56 134.04 64.65 134.15 65.4 134.86 66.13 135.59 66.92 136.26 67.16 136.47 67.41 136.68 67.67 136.88 67.78 136.96 67.89 137.04 68 137.11 68.3 137.31 68.62 137.53 68.95 137.7 69.2 137.82 69.46 137.83 69.68 137.63 69.93 137.4 70.08 137.03 70.2 136.72 70.31 136.45 70.39 136.18 70.46 135.9 70.83 135.78 70.95 135.38 71.05 135.02 71.3 133.96 71.61 132.69 71.24 131.62Z" fill="#95766D"/><path d="M64.67 132.81 64.44 132.11C64.33 132.42 64.22 132.73 64.08 133.03 64.07 133.05 64.06 133.07 64.04 133.09 64.04 133.12 64.03 133.14 64.03 133.17 64 133.31 63.88 133.85 63.7 133.84 60.98 127.67 58.96 121.19 55.84 115.2 54.88 113.35 53.8 111.56 52.59 109.87 52.82 109.95 53.07 110.01 53.31 110.05 53.04 109.91 52.79 109.75 52.55 109.59 51.8 109.09 51.02 108.52 50.43 107.83 49.65 106.91 49.1 105.78 48.9 104.59 48.9 104.56 48.89 104.54 48.89 104.51 48.82 104.29 48.76 104.07 48.73 103.84 48.64 103.31 48.66 102.78 48.61 102.25 48.6 102.41 48.58 102.56 48.57 102.72 48.57 102.71 48.56 102.71 48.56 102.7 48.22 101.11 48.36 99.42 48.43 97.81 48.51 95.8 48.63 93.78 48.77 91.77 48.84 90.7 48.92 89.63 49 88.57 49.22 85.74 49.26 82.9 49.27 80.06 49.28 78.22 49.2 76.42 48.87 74.63 48.9 74.59 48.91 74.54 48.88 74.5 48.85 74.45 48.83 74.39 48.81 74.34 48.78 74.18 48.75 74.02 48.71 73.87 48.7 73.88 48.7 73.88 48.69 73.89 48.61 72.76 50.01 71.88 50.97 71.51 52.26 71 53.7 70.95 55.05 71.2 56.58 71.48 58.05 72.13 59.36 72.95 60.57 73.7 61.68 74.67 62.38 75.93 62.6 76.34 62.76 76.77 62.88 77.21 63.42 78.63 63.39 80.2 63.16 81.73 63.24 83.63 62.97 85.55 62.33 87.36L61.9 85.17C61.78 85.64 61.65 86.11 61.52 86.58 61.59 88 61.36 89.43 60.85 90.76 60.66 90.12 60.48 89.47 60.29 88.83 60.14 89.66 59.98 90.49 59.63 91.27 59.61 91.32 59.57 91.37 59.54 91.41 59.25 92.62 58.72 93.78 58.14 94.88 57.29 96.49 56.32 98.03 55.31 99.55 55.24 99.48 55.16 99.41 55.09 99.34 55.19 100.1 55.78 100.71 56.31 101.28 56.35 101.32 56.36 101.37 56.36 101.42 56.47 101.56 56.58 101.71 56.67 101.86 57.42 103 57.67 104.34 57.82 105.67 57.75 105.51 57.69 105.36 57.62 105.2 57.62 105.19 57.61 105.19 57.61 105.19 57.74 105.75 57.81 106.33 57.9 106.9 57.91 106.94 57.92 106.99 57.93 107.03 60.38 112.84 62.94 118.66 66.55 123.86 66.99 124.5 67.46 125.13 67.93 125.74 67.98 125.77 68.02 125.82 68.04 125.87 68.04 125.87 68.04 125.87 68.04 125.87 68.19 126.06 68.34 126.25 68.49 126.44 68.52 126.47 68.54 126.51 68.57 126.54 68.81 126.84 69.05 127.13 69.3 127.43 69.21 127.38 69.12 127.33 69.03 127.27 69.13 127.46 69.2 127.66 69.23 127.88 69.28 128.31 69.29 128.77 69.22 129.19 69.17 129.48 69.15 129.84 68.92 130.04 68.81 130.14 68.67 130.15 68.54 130.13 68.5 130.14 68.46 130.14 68.42 130.14 67.84 130.21 67.27 130.09 66.75 129.84 66.58 129.76 66.5 130.09 66.49 130.19 66.47 130.64 66.34 131.07 66.12 131.46 66.07 131.55 66.01 131.68 65.93 131.75 65.82 131.85 65.84 131.88 65.76 131.67 65.67 131.43 65.58 131.18 65.5 130.94 65.4 130.67 65.19 130.95 65.16 131.11 65.07 131.69 64.91 132.26 64.67 132.81Z" fill="#F7F0EA"/><path d="M52.04 109.22C52.36 109.32 52.69 109.4 53.02 109.46 52.75 109.07 52.46 108.7 52.18 108.33 51.58 107.52 50.96 106.71 50.5 105.81 50.02 104.89 49.79 103.84 49.76 102.8 49.7 100.91 50.51 99.19 51.28 97.5 50.55 97.77 50.07 98.44 49.64 99.08 49.55 99.22 49.26 99.19 49.29 98.98 49.5 97.08 49.7 95.19 49.86 93.29 50.17 89.63 50.32 85.93 49.99 82.27 49.85 80.68 49.61 79.08 49.21 77.52 49.26 78.36 49.28 79.2 49.27 80.05 49.26 82.89 49.21 85.73 49 88.56 48.92 89.63 48.85 90.7 48.77 91.76 48.63 93.77 48.51 95.78 48.43 97.8 48.36 99.41 48.22 101.1 48.56 102.69 48.56 102.7 48.57 102.7 48.57 102.71 48.58 102.55 48.6 102.39 48.61 102.24 48.67 102.77 48.64 103.31 48.73 103.83 48.77 104.06 48.83 104.28 48.89 104.5 48.89 104.53 48.9 104.55 48.9 104.58 49.1 105.77 49.65 106.91 50.43 107.82 50.9 108.35 51.46 108.81 52.04 109.22Z" fill="#F7F0EA"/><path d="M69.03 127.24C69.12 127.29 69.21 127.35 69.3 127.4 69.05 127.11 68.81 126.81 68.57 126.51 68.54 126.48 68.52 126.44 68.49 126.41 68.34 126.22 68.19 126.03 68.04 125.84 68.04 125.84 68.04 125.84 68.04 125.84 68.02 125.78 67.98 125.74 67.93 125.71 67.45 125.09 66.99 124.47 66.55 123.83 62.94 118.63 60.38 112.81 57.93 107 57.92 106.96 57.91 106.91 57.9 106.87 57.81 106.3 57.74 105.72 57.61 105.16 57.61 105.16 57.62 105.17 57.62 105.17 57.69 105.33 57.75 105.48 57.82 105.64 57.68 104.3 57.42 102.97 56.67 101.83 56.57 101.68 56.47 101.53 56.36 101.39 56.36 101.35 56.35 101.3 56.31 101.25 55.78 100.68 55.19 100.07 55.09 99.31 55.16 99.38 55.24 99.45 55.31 99.52 56.32 98.01 57.29 96.46 58.14 94.85 58.72 93.75 59.25 92.59 59.54 91.38 59.58 91.34 59.61 91.29 59.63 91.24 59.97 90.46 60.14 89.64 60.29 88.8 60.48 89.44 60.66 90.09 60.85 90.73 61.36 89.4 61.59 87.97 61.52 86.55 61.65 86.08 61.78 85.62 61.9 85.14L62.33 87.33C62.97 85.52 63.24 83.61 63.16 81.7 63.38 80.17 63.42 78.6 62.88 77.18 62.76 76.74 62.6 76.3 62.38 75.9 61.68 74.64 60.57 73.68 59.36 72.92 58.05 72.1 56.58 71.44 55.05 71.17 53.7 70.93 52.26 70.98 50.97 71.48 50.02 71.85 48.61 72.73 48.69 73.86 48.7 73.85 48.7 73.85 48.71 73.84 48.75 74 48.78 74.16 48.81 74.32 48.83 74.37 48.85 74.43 48.88 74.48 48.9 74.52 48.89 74.57 48.87 74.61 49.1 75.9 49.21 77.19 49.25 78.5 50.04 78.71 50.76 79.1 51.4 79.62 52.97 80.88 54 82.75 54.76 84.58 55.51 86.39 56.03 88.3 56.34 90.23 56.37 90.44 56.12 90.56 55.99 90.38 55.34 89.46 54.59 88.64 53.71 87.97 54.03 88.5 54.28 89.07 54.45 89.67 55.36 92.97 53.98 96.4 53.07 99.53 53.03 99.68 52.86 99.7 52.75 99.61 52.09 99.07 51.28 98.66 50.43 98.84 50.87 99.46 51.42 100 51.96 100.54 52.46 101.04 52.96 101.55 53.34 102.15 53.77 102.82 54.05 103.61 54.22 104.38 54.58 106.01 54.4 107.69 54.45 109.35 54.9 108.75 55.03 107.97 55.23 107.25 55.27 107.1 55.51 107.05 55.58 107.2 56.33 108.81 57.14 110.4 57.99 111.97 58.73 113.35 59.51 114.71 60.3 116.06 61.04 117.32 61.78 118.58 62.62 119.78 64.17 121.99 66.01 124.17 66.83 126.8 66.87 126.94 66.73 127.07 66.6 127.03 65.79 126.82 65.01 126.49 64.2 126.29 64.75 126.73 65.28 127.18 65.68 127.76 65.76 127.88 65.65 128.04 65.52 128.05 65.25 128.06 64.96 128.13 64.68 128.1 64.58 129.39 64.77 130.7 64.76 132 64.76 132.24 64.75 132.49 64.73 132.74 64.95 132.21 65.11 131.67 65.19 131.1 65.21 130.94 65.43 130.66 65.53 130.93 65.62 131.17 65.7 131.42 65.79 131.66 65.87 131.87 65.85 131.84 65.96 131.74 66.04 131.67 66.1 131.54 66.15 131.45 66.37 131.06 66.5 130.62 66.52 130.18 66.52 130.09 66.61 129.75 66.78 129.83 67.3 130.08 67.87 130.19 68.45 130.13 68.49 130.13 68.53 130.12 68.57 130.12 68.71 130.14 68.84 130.13 68.95 130.03 69.18 129.82 69.21 129.46 69.25 129.18 69.32 128.76 69.31 128.3 69.26 127.87 69.21 127.63 69.13 127.43 69.03 127.24Z" fill="#E4DFDA"/><path d="M70.71 134.61C70.65 134.84 70.61 135.13 70.44 135.29 70.44 135.29 70.44 135.29 70.44 135.28 70.43 135.3 70.43 135.32 70.43 135.34 70.36 135.56 70.08 135.62 69.89 135.55 69.47 135.39 69.11 135.14 68.73 134.91 68.35 134.68 67.99 134.43 67.62 134.19 67.27 133.96 66.88 133.79 66.5 133.59 66.55 133.68 66.61 133.77 66.67 133.86 67.38 134.41 68.1 134.95 68.86 135.44 69.2 135.66 69.61 135.87 70.03 135.92 69.99 136.06 69.94 136.2 69.89 136.33 69.78 136.6 69.65 136.97 69.42 137.16 69.13 137.4 68.78 137.11 68.53 136.95 68.22 136.76 67.92 136.55 67.62 136.34 66.83 135.78 66.1 135.15 65.41 134.47 65.22 134.26 65.05 134.03 64.88 133.8 64.81 133.71 64.75 133.62 64.69 133.52 64.72 133.49 64.76 133.46 64.78 133.42 65.05 132.88 65.25 132.33 65.39 131.75 65.41 131.8 65.42 131.84 65.44 131.89 65.48 132.01 65.53 132.22 65.63 132.3 65.87 132.49 66.09 132.17 66.21 132 66.54 131.53 66.73 130.99 66.82 130.43 67.47 130.69 68.3 130.8 68.94 130.51 69 130.48 69.06 130.45 69.11 130.41 69.19 130.23 69.29 130.06 69.38 129.89 70.24 130.6 71.11 131.36 71.07 132.58 71.02 133.26 70.87 133.95 70.71 134.61Z" fill="#523839"/><path d="M67.67 132.41C68.4 132.24 69.13 132.3 69.82 132.61 70.24 132.8 70.61 133.07 70.97 133.36 71.01 133.1 71.04 132.84 71.05 132.58 71.09 131.36 70.22 130.6 69.36 129.89 69.27 130.06 69.17 130.23 69.09 130.41 69.04 130.45 68.99 130.48 68.92 130.51 68.28 130.8 67.45 130.69 66.8 130.43 66.71 130.99 66.52 131.52 66.19 132 66.07 132.17 65.85 132.49 65.61 132.3 65.5 132.22 65.46 132.01 65.42 131.89 65.4 131.84 65.39 131.8 65.37 131.75 65.23 132.33 65.03 132.89 64.76 133.42 64.74 133.46 64.71 133.5 64.67 133.52 64.73 133.61 64.8 133.71 64.86 133.8 65 134 65.16 134.19 65.32 134.37 65.73 133.4 66.59 132.66 67.67 132.41Z" fill="#523839"/></g><g><path d="M104.98 101.74C104.91 101.27 104.55 100.78 104.26 100.43 104.26 100.43 104.25 100.42 104.25 100.42 104.47 100.43 104.69 100.4 104.92 100.35 104.78 100.18 104.65 100.02 104.54 99.87 104.34 99.7 104.15 99.52 103.98 99.33 103.46 98.77 103.04 98.12 102.89 97.36 102.86 97.22 102.85 97.08 102.84 96.94 102.71 96.27 102.76 95.57 102.85 94.87 103.16 92.56 103.59 90.27 104.08 87.99 105.06 83.37 106.29 78.82 107.32 74.21 107.4 73.86 107.47 73.51 107.55 73.16 108.41 71.14 108.93 68.93 108.74 66.73 108.76 66.62 108.78 66.51 108.79 66.4 108.8 66.31 108.76 66.28 108.69 66.27 108.68 66.21 108.68 66.15 108.67 66.09 108.35 63.98 107.23 61.98 105.49 60.72 103.51 59.29 101.08 59.34 98.82 60.01 96.53 60.69 94.27 61.77 92.47 63.36 91.76 63.98 91.15 64.7 90.61 65.47 90.59 65.46 90.56 65.46 90.53 65.46 90.24 65.97 89.95 66.47 89.66 66.97 89.53 67.33 89.39 67.69 89.27 68.05 89.19 68.26 89.12 68.47 89.05 68.68 87.93 72.1 87.33 75.69 87.32 79.3 87.31 83.58 88.18 87.85 89.87 91.79 90.3 92.8 90.8 93.78 91.34 94.73 91.73 95.31 92.12 95.89 92.52 96.45 92.88 96.95 93.28 97.44 93.67 97.93 94.44 98.88 95.29 99.76 96.23 100.54 97.13 101.61 96.7 103.42 96.49 104.66 96.14 106.66 95.62 108.62 95.09 110.58 94.05 114.46 93 118.34 91.95 122.21 91.42 124.17 90.89 126.14 90.36 128.1 90.19 128.45 90.03 128.81 89.86 129.16 89.85 129.19 89.84 129.23 89.85 129.26 89.2 130.42 88.67 131.63 88.27 132.89 88.17 133.21 88.06 133.53 87.99 133.85 87.93 134.1 87.94 134.36 88.13 134.55 88.47 134.88 88.99 134.96 89.46 134.87 89.5 134.98 89.57 135.08 89.66 135.16 90.03 135.5 90.67 135.61 91.15 135.66 92.25 135.77 93.38 135.47 94.27 134.81 95.2 134.12 95.77 133.16 96.07 132.05 96.38 130.9 96.47 129.56 97.19 128.58 97.56 128.3 98 128.12 98.48 128.05 98.62 128.03 98.84 127.9 98.81 127.73 98.8 127.69 98.79 127.66 98.78 127.62 98.81 127.66 98.83 127.69 98.86 127.73 98.98 127.89 99.32 127.67 99.32 127.51 99.38 125.93 99.15 124.37 98.95 122.8 98.74 121.15 98.65 119.51 98.8 117.85 99.06 115.06 99.85 112.35 100.79 109.71 100.89 109.4 100.99 109.1 101.1 108.79 101.45 107.8 101.78 106.78 102.2 105.8 102.59 104.89 103.21 104.16 103.82 103.4 104.15 102.98 104.5 102.57 104.89 102.2 104.96 102.07 105.01 101.91 104.98 101.74Z" fill="#95766D"/><path d="M94.92 133.71C94.31 134.57 93.36 135.15 92.31 135.27 91.77 135.33 91.23 135.29 90.71 135.14 90.59 135.11 90.47 135.07 90.35 135.01 90.12 134.95 89.92 134.81 89.83 134.54 89.72 134.21 89.84 133.84 89.95 133.53 90.26 132.64 90.55 131.74 90.83 130.84 90.3 131.8 89.86 132.8 89.53 133.84 89.46 134.05 89.41 134.27 89.4 134.49 88.95 134.51 88.4 134.36 88.45 133.87 88.48 133.6 88.58 133.33 88.66 133.08 88.75 132.77 88.85 132.47 88.96 132.17 89.3 131.21 89.73 130.28 90.22 129.39 90.62 129.41 91.01 129.36 91.38 129.24 91.32 129.3 91.26 129.36 91.21 129.42 91.11 129.52 91.06 129.72 91.27 129.71 92.02 129.67 92.73 129.41 93.34 128.97 93.84 129.49 94.45 129.88 95.14 130.09 95.43 130.18 95.71 130.21 95.97 130.02 96.07 129.94 96.15 129.84 96.22 129.73 95.77 131.05 95.74 132.55 94.92 133.71Z" fill="#523839"/><path d="M103.73 103.22 103.49 103.53C103.45 103.55 103.42 103.57 103.39 103.6 102.31 104.64 101.77 106.05 101.24 107.42 100.63 108.98 100.05 110.56 99.56 112.16 98.57 115.37 98.02 118.68 98.37 122.04 98.54 123.64 98.83 125.24 98.86 126.85 98.68 126.62 98.5 126.39 98.32 126.16 98.29 126.12 98.24 126.11 98.2 126.11 98.15 126.35 98.09 126.59 98.05 126.84 98.05 126.84 98.05 126.84 98.05 126.85 98.05 126.88 98.05 126.9 98.05 126.93 98.05 126.93 98.05 126.93 98.05 126.93 98.08 126.99 98.1 127.06 98.1 127.13 98.16 127.33 98.23 127.53 98.28 127.74 98.07 127.79 97.87 127.86 97.68 127.95 97.63 127.87 97.43 127.86 97.3 127.98 97.14 128.12 97 128.28 96.88 128.44 96.65 128.63 96.44 128.84 96.26 129.08 96.26 129.08 96.25 129.08 96.25 129.08 96.09 129.2 95.98 129.34 95.89 129.52 95.83 129.65 95.82 129.75 95.67 129.74 95.53 129.74 95.35 129.65 95.22 129.6 94.63 129.38 94.1 129.01 93.67 128.54 93.59 128.45 93.43 128.5 93.35 128.56 92.9 128.92 92.39 129.15 91.84 129.24 91.98 129.1 92.12 128.95 92.26 128.81 92.48 128.59 92.24 128.45 92.02 128.59 91.55 128.89 91 129.01 90.45 128.96 90.45 128.96 90.45 128.96 90.45 128.96 90.46 128.95 90.46 128.94 90.46 128.93 90.54 128.88 90.62 128.82 90.64 128.75L90.83 128.05C90.86 127.98 90.89 127.92 90.92 127.85 90.95 127.78 90.95 127.73 90.92 127.71L93.89 116.72C94.43 114.72 94.97 112.71 95.51 110.71 96.05 108.71 96.58 106.7 96.95 104.66 97.17 103.42 97.57 101.7 96.88 100.52 96.9 100.46 96.9 100.4 96.85 100.36 96.77 100.3 96.71 100.23 96.63 100.17 96.55 100.08 96.46 99.99 96.36 99.91 96.34 99.9 96.32 99.89 96.3 99.89 94.86 98.64 93.64 97.16 92.64 95.54 91.94 94.7 91.34 93.78 90.81 92.83 89.03 89.6 88.23 86.01 87.98 82.35 87.67 79.31 87.8 76.22 88.34 73.21 88.51 72.29 88.72 71.38 88.96 70.48 89.04 70.43 89.11 70.36 89.12 70.29 89.19 69.79 89.31 69.3 89.45 68.82 89.56 68.48 89.67 68.14 89.79 67.8 90.33 66.42 91.14 65.14 92.19 64.08 93.79 62.46 95.86 61.38 98 60.64 100.2 59.87 102.62 59.53 104.71 60.81 106.4 61.85 107.59 63.65 108.05 65.56 108.16 66 108.22 66.45 108.26 66.89 107.94 69.01 107.54 71.12 107.09 73.22 107.04 73.33 107 73.44 106.95 73.55 106.91 73.64 106.93 73.69 106.98 73.71 106.47 76.02 105.91 78.33 105.35 80.63 104.21 85.3 103.08 89.97 102.41 94.73 102.26 95.84 102.13 96.99 102.65 98.02 103.05 98.81 103.72 99.43 104.4 99.98 104.12 99.96 103.84 99.88 103.59 99.74 103.44 99.61 103.29 99.49 103.12 99.38 103.08 99.35 103.01 99.36 102.94 99.38 103.1 99.69 103.27 100 103.44 100.31 103.56 100.42 103.67 100.54 103.78 100.66 104.05 100.99 104.38 101.41 104.48 101.84 104.6 102.34 104 102.87 103.73 103.22Z" fill="#F7F0EA"/><path d="M96.36 99.93C96.46 100.01 96.55 100.1 96.63 100.19 96.71 100.25 96.77 100.32 96.85 100.38 96.91 100.42 96.91 100.48 96.88 100.54 97.57 101.72 97.18 103.43 96.95 104.68 96.58 106.72 96.04 108.73 95.51 110.73 94.97 112.73 94.43 114.74 93.89 116.74L90.92 127.73C90.95 127.76 90.95 127.8 90.92 127.87 90.89 127.94 90.86 128 90.83 128.07L90.64 128.77C90.62 128.84 90.55 128.9 90.46 128.95 90.46 128.96 90.46 128.97 90.45 128.98 90.45 128.98 90.45 128.98 90.45 128.98 90.59 128.99 90.73 128.99 90.86 128.98 91.95 126.41 93 123.82 93.85 121.17 94.56 118.95 95.18 116.7 95.78 114.45 96.08 113.34 96.36 112.23 96.62 111.11 96.89 109.98 97.11 108.85 97.38 107.72 97.73 106.22 98.17 104.66 98.08 103.11 97.99 101.5 97.2 100.2 96.16 99.02 93.68 96.21 91.67 93.02 90.15 89.6 89.36 87.83 88.71 86.01 88.16 84.15 88.53 87.19 89.33 90.14 90.82 92.85 91.34 93.8 91.95 94.72 92.65 95.56 93.66 97.18 94.87 98.66 96.31 99.91 96.32 99.91 96.34 99.92 96.36 99.93Z" fill="#E4DFDA"/><path d="M104.48 101.87C104.38 101.45 104.05 101.02 103.78 100.69 103.67 100.56 103.56 100.45 103.44 100.34 103.27 100.03 103.1 99.72 102.94 99.41 103.01 99.38 103.08 99.38 103.12 99.41 103.28 99.52 103.44 99.64 103.59 99.77 103.84 99.91 104.12 99.99 104.4 100.01 103.71 99.45 103.04 98.84 102.65 98.05 102.13 97.02 102.26 95.87 102.41 94.76 103.07 90 104.21 85.32 105.35 80.66 105.91 78.36 106.47 76.05 106.98 73.74 106.93 73.72 106.91 73.67 106.95 73.58 107 73.47 107.04 73.36 107.09 73.25 107.54 71.15 107.95 69.05 108.26 66.92 108.22 66.47 108.16 66.03 108.05 65.59 107.59 63.68 106.4 61.88 104.71 60.84 102.63 59.56 100.21 59.9 98 60.67 95.87 61.41 93.79 62.49 92.19 64.11 91.14 65.17 90.33 66.45 89.79 67.83 89.67 68.17 89.56 68.51 89.45 68.85 89.31 69.33 89.2 69.82 89.12 70.32 89.11 70.39 89.04 70.46 88.96 70.51 88.72 71.41 88.5 72.32 88.34 73.24 87.8 76.26 87.67 79.34 87.98 82.38 88.13 84.53 88.48 86.66 89.09 88.71 90.44 89.12 91.86 89.32 93.27 89.34 94.24 89.35 95.21 89.28 96.17 89.14 96.84 89.04 97.5 88.83 98.17 88.75 98.72 88.69 99.25 88.81 99.59 89.28 100.02 89.86 100.13 90.68 100.11 91.39 100.07 92.95 99.35 94.48 99.57 96.05 99.68 96.8 100.13 97.38 100.61 97.94 101.11 98.52 101.65 99.07 102.05 99.72 102.13 99.86 102.04 100.05 101.87 100.02 100.95 99.86 100.1 99.48 99.21 99.22 100 99.89 100.77 100.6 101.19 101.58 101.24 101.7 101.12 101.87 100.98 101.84 100.23 101.64 99.55 101.28 98.83 101.01 99.16 101.37 99.48 101.74 99.71 102.18 100.04 102.82 100.06 103.52 99.94 104.21 99.63 106.08 99.05 107.88 98.49 109.69 97.96 111.41 97.52 113.15 96.97 114.86 96.45 116.49 95.87 118.25 96.19 119.98 96.47 121.53 97.33 122.93 97.41 124.52 97.42 124.65 97.28 124.8 97.14 124.71 96.49 124.31 95.98 123.74 95.39 123.27 95.73 124.01 96.15 124.71 96.38 125.5 96.43 125.67 96.24 125.85 96.08 125.72 95.62 125.32 95.23 124.86 94.79 124.44 95.34 126.09 95.4 127.87 95.03 129.57 95.09 129.59 95.14 129.62 95.2 129.65 95.33 129.7 95.51 129.78 95.65 129.79 95.8 129.79 95.81 129.69 95.87 129.57 95.96 129.39 96.07 129.25 96.23 129.13 96.23 129.13 96.23 129.13 96.24 129.13 96.42 128.89 96.63 128.67 96.86 128.49 96.98 128.33 97.12 128.18 97.28 128.03 97.41 127.91 97.61 127.92 97.66 128 97.85 127.91 98.05 127.84 98.26 127.79 98.21 127.58 98.15 127.38 98.08 127.18 98.08 127.11 98.07 127.04 98.03 126.98 98.03 126.98 98.03 126.98 98.03 126.98 98.03 126.95 98.03 126.93 98.03 126.9 98.03 126.9 98.03 126.9 98.03 126.89 98.07 126.65 98.12 126.4 98.18 126.16 98.23 126.16 98.27 126.17 98.3 126.21 98.48 126.44 98.66 126.67 98.84 126.9 98.81 125.29 98.52 123.69 98.35 122.09 98 118.73 98.56 115.42 99.54 112.21 100.03 110.6 100.62 109.03 101.22 107.47 101.75 106.1 102.29 104.69 103.37 103.65 103.4 103.62 103.44 103.6 103.47 103.58L103.71 103.27C104 102.87 104.6 102.34 104.48 101.87Z" fill="#E4DFDA"/></g><g><path d="M133.73 54.87C133.74 54.62 133.75 54.36 133.75 54.11 133.74 54.11 133.74 54.11 133.73 54.11 132.38 54.66 130.9 54.8 129.47 54.56 129.9 54.19 130.23 53.65 130.44 53.16 130.49 53.05 130.47 52.89 130.3 52.94 127.91 53.62 125.62 52.19 123.93 50.63 122.2 49.03 120.69 47.25 118.63 46.06 117.6 45.47 116.49 45.05 115.33 44.84 115.45 45.33 115.6 45.81 115.76 46.29 117.48 49.55 118.42 53.17 120.32 56.34 121.26 57.92 122.46 59.42 124.08 60.34 125.68 61.24 127.54 61.32 129.26 60.72 130.22 60.39 131.1 59.87 131.88 59.23 132.32 58.87 132.85 58.42 133.19 57.89 133.27 57.5 133.3 57.09 133.29 56.68 132.54 57.08 131.74 57.33 130.91 57.43 132.13 56.92 133.19 56.09 133.73 54.87Z" fill="#95766D"/><path d="M129.54 57.49C129.52 57.49 129.51 57.5 129.49 57.51 130.35 57.8 131.31 57.82 132.18 57.53 132.21 57.52 132.25 57.52 132.27 57.52 132.54 57.43 132.81 57.32 133.06 57.19 132.95 58.02 132.02 58.73 131.4 59.19 130.69 59.72 129.9 60.14 129.05 60.4 127.34 60.92 125.57 60.7 124.06 59.73 122.55 58.77 121.44 57.27 120.56 55.74 119.63 54.13 118.94 52.39 118.25 50.67 117.54 48.9 116.83 47.13 115.9 45.47 117.82 46.01 119.53 47.15 120.99 48.51 122.73 50.13 124.27 52.09 126.51 53.04 127.58 53.5 128.77 53.68 129.91 53.43 129.7 53.85 129.4 54.28 129 54.46 128.54 54.35 128.09 54.2 127.66 54.01 127.72 54.13 127.79 54.24 127.9 54.35 127.95 54.4 128 54.43 128.05 54.48 128.23 54.6 128.41 54.72 128.6 54.83 128.67 54.87 128.75 54.89 128.82 54.92 128.83 54.92 128.83 54.92 128.84 54.91 130.35 55.23 131.94 55.12 133.41 54.59 132.84 56.27 131.18 57.12 129.54 57.49Z" fill="#F7F0EA"/><path d="M127.5 58.96C126.96 58.62 126.45 58.2 126.03 57.71 125.37 56.93 124.9 56.02 124.5 55.09 123.71 53.24 123.17 51.29 122.02 49.62 121.93 49.48 121.83 49.36 121.73 49.23 121.49 48.99 121.25 48.76 121.01 48.53 119.56 47.17 117.84 46.03 115.92 45.49 116.85 47.15 117.57 48.92 118.27 50.69 118.96 52.42 119.65 54.15 120.58 55.76 121.46 57.29 122.57 58.78 124.08 59.75 125.59 60.71 127.36 60.94 129.07 60.42 129.43 60.31 129.79 60.16 130.13 59.99 129.19 59.83 128.28 59.45 127.5 58.96Z" fill="#E4DFDA"/><path d="M133.41 54.61C133.24 54.67 133.06 54.73 132.88 54.78 132.79 54.83 132.71 54.88 132.62 54.92 131.7 55.36 130.61 55.53 129.6 55.6 128.39 55.68 127.26 55.23 126.09 55.02 126.19 55.56 126.47 56.03 126.91 56.37 127.87 57.12 129.24 57.23 130.41 57.15 130.51 57.14 130.6 57.13 130.7 57.12 131.91 56.66 132.98 55.87 133.41 54.61Z" fill="#E4DFDA"/></g><path d="M124.19 58.06C123.52 55.36 122.49 52.73 121.05 50.34 120.27 49.04 119.37 47.81 118.34 46.69 117.5 45.77 116.57 44.9 115.48 44.29 112.01 41.9 107.84 40.79 103.65 40.55 98.73 40.27 93.88 41.18 89.14 42.44 83.9 43.83 78.77 45.63 73.44 46.67 70.67 47.21 67.85 47.49 65.1 46.73 62.73 46.08 60.49 44.91 58.4 43.64 54.38 41.19 50.83 37.95 48.02 34.18 47.67 33.71 47.33 33.24 47.01 32.75 46.89 32.58 46.49 32.94 46.62 33.13 46.78 33.37 46.95 33.6 47.12 33.84 44.31 38.06 42.01 42.62 40.3 47.39 39.85 48.65 39.44 49.92 39.07 51.2 38.95 51.29 38.86 51.45 38.94 51.55 38.95 51.56 38.95 51.57 38.96 51.58 38.94 51.69 38.98 51.73 39.06 51.72 41.52 55.13 42.69 59.25 43.32 63.36 43.51 64.57 43.65 65.79 43.76 67 43.78 67.26 44.13 67.03 44.18 66.9 44.33 66.54 44.45 66.17 44.56 65.8 44.77 67.5 45.19 69.17 45.82 70.77 45.91 71.01 46.26 70.66 46.26 70.52 46.26 70.16 46.27 69.8 46.27 69.44 46.79 71.48 47.76 73.39 49.1 75.02 49.92 76.01 50.89 76.91 51.96 77.65 52.78 78.76 53.67 79.8 54.66 80.77 57.23 83.3 60.29 85.22 63.64 86.54 65.6 87.32 67.63 87.92 69.67 88.46 73.71 90.34 78.16 91.34 82.64 91.1 85.83 90.93 89 90.18 91.89 88.81 93.36 88.12 94.74 87.25 96.06 86.3 97.44 85.29 98.77 84.22 100.21 83.3 100.32 83.23 100.43 83.17 100.54 83.1 100.76 84.86 101.08 86.6 101.52 88.32 102.53 92.21 104.28 95.94 106.92 98.99 108.28 100.56 109.88 101.92 111.68 102.97 112.74 103.88 112.61 105.74 112.59 106.99 112.56 109.02 112.36 111.04 112.16 113.06 111.75 117.06 111.33 121.05 110.92 125.05 110.71 127.07 110.5 129.1 110.29 131.12 110.18 131.5 110.08 131.87 109.97 132.25 109.96 132.28 109.96 132.32 109.97 132.35 109.52 133.59 109.18 134.88 108.99 136.19 108.94 136.52 108.89 136.85 108.87 137.18 108.86 137.44 108.9 137.69 109.12 137.85 109.51 138.13 110.04 138.11 110.48 137.95 110.54 138.05 110.62 138.14 110.73 138.21 111.15 138.49 111.8 138.49 112.28 138.46 113.39 138.39 114.44 137.91 115.22 137.12 116.03 136.29 116.44 135.25 116.55 134.11 116.67 132.92 116.54 131.59 117.1 130.5 117.42 130.17 117.83 129.91 118.29 129.77 118.42 129.73 118.63 129.57 118.57 129.4 118.56 129.36 118.54 129.33 118.53 129.29 118.56 129.32 118.6 129.35 118.63 129.38 118.77 129.51 119.07 129.25 119.05 129.09 118.86 127.52 118.38 126.01 117.94 124.5 117.47 122.91 117.11 121.3 117 119.64 116.81 116.84 117.16 114.04 117.67 111.29 117.72 110.97 117.77 110.65 117.82 110.33 118.01 109.29 118.17 108.23 118.42 107.21 118.66 106.25 119.16 105.43 119.64 104.58 119.9 104.11 120.18 103.65 120.5 103.22 120.54 103.05 120.56 102.89 120.51 102.72 120.37 102.27 119.93 101.84 119.59 101.54 119.59 101.54 119.58 101.53 119.58 101.53 119.8 101.5 120.01 101.44 120.23 101.35 120.06 101.21 119.91 101.07 119.78 100.94 119.56 100.81 119.34 100.65 119.14 100.5 118.54 100.03 118.02 99.45 117.75 98.73 117.7 98.6 117.66 98.46 117.63 98.32 117.39 97.68 117.33 96.98 117.31 96.28 117.24 93.95 117.3 91.62 117.42 89.29 117.58 86.07 117.85 82.86 118.1 79.65 119.47 78.16 120.8 76.63 121.91 74.94 123.51 72.53 124.56 69.86 124.9 66.98 125.25 64.01 124.91 60.97 124.19 58.06Z" fill="#95766D"/><path d="M115.68 135.9C115.21 136.85 114.37 137.57 113.35 137.86 112.83 138.01 112.28 138.06 111.75 137.99 111.63 137.98 111.5 137.96 111.37 137.92 111.13 137.9 110.91 137.79 110.79 137.54 110.63 137.23 110.69 136.85 110.74 136.52 110.9 135.59 111.05 134.66 111.18 133.73 110.82 134.76 110.53 135.82 110.38 136.9 110.35 137.12 110.33 137.35 110.36 137.56 109.91 137.65 109.35 137.59 109.32 137.1 109.3 136.83 109.37 136.55 109.4 136.28 109.44 135.96 109.49 135.65 109.55 135.33 109.74 134.33 110.01 133.35 110.35 132.39 110.75 132.35 111.12 132.23 111.47 132.06 111.42 132.13 111.38 132.19 111.33 132.26 111.25 132.37 111.23 132.58 111.43 132.54 112.16 132.38 112.83 132.01 113.36 131.48 113.94 131.91 114.6 132.2 115.32 132.29 115.62 132.33 115.9 132.32 116.12 132.09 116.21 132 116.27 131.88 116.32 131.76 116.1 133.13 116.31 134.62 115.68 135.9Z" fill="#523839"/><path d="M124.56 65.86C124.41 68.76 123.59 71.52 122.1 74.01 120.99 75.87 119.6 77.54 118.13 79.14 118.17 78.64 118.2 78.15 118.23 77.65 118.19 77.74 118.15 77.83 118.11 77.91 117.88 78.7 117.73 79.51 117.6 80.33 117.56 80.84 117.52 81.34 117.48 81.85 117.1 86.64 116.73 91.44 116.84 96.24 116.87 97.36 116.92 98.51 117.6 99.45 118.12 100.17 118.88 100.67 119.65 101.11 119.37 101.14 119.08 101.1 118.81 101 118.64 100.9 118.47 100.8 118.29 100.72 118.24 100.7 118.18 100.72 118.11 100.75 118.32 101.03 118.53 101.31 118.75 101.59 118.89 101.68 119.02 101.78 119.14 101.89 119.46 102.17 119.85 102.54 120.02 102.94 120.21 103.39 119.7 104.01 119.5 104.39L119.31 104.74C119.28 104.76 119.25 104.79 119.22 104.82 118.32 106.02 118.01 107.5 117.71 108.94 117.36 110.58 117.04 112.23 116.81 113.89 116.35 117.21 116.33 120.57 117.21 123.83 117.63 125.39 118.17 126.92 118.46 128.5 118.25 128.3 118.03 128.1 117.82 127.91 117.78 127.88 117.74 127.87 117.69 127.88 117.68 128.13 117.66 128.37 117.66 128.62 117.66 128.62 117.66 128.62 117.66 128.63 117.66 128.66 117.67 128.68 117.68 128.71 117.68 128.71 117.68 128.71 117.68 128.71 117.72 128.77 117.75 128.83 117.76 128.9 117.86 129.09 117.95 129.28 118.03 129.48 117.83 129.56 117.65 129.67 117.47 129.78 117.41 129.7 117.21 129.73 117.1 129.87 116.96 130.04 116.85 130.21 116.76 130.39 116.56 130.61 116.39 130.86 116.25 131.12 116.25 131.12 116.25 131.12 116.24 131.12 116.1 131.27 116.02 131.42 115.95 131.62 115.91 131.76 115.92 131.86 115.77 131.88 115.63 131.9 115.44 131.84 115.3 131.82 114.68 131.69 114.1 131.42 113.6 131.02 113.51 130.95 113.36 131.01 113.29 131.09 112.91 131.52 112.44 131.82 111.91 132 112.03 131.84 112.14 131.67 112.26 131.51 112.44 131.25 112.18 131.16 111.99 131.33 111.57 131.71 111.05 131.9 110.5 131.95 110.5 131.95 110.5 131.95 110.5 131.95 110.51 131.94 110.5 131.93 110.5 131.92 110.58 131.86 110.64 131.78 110.65 131.71L110.72 130.99C110.74 130.92 110.76 130.85 110.78 130.78 110.8 130.7 110.79 130.66 110.76 130.64L111.93 119.32C112.14 117.25 112.36 115.19 112.57 113.13 112.78 111.07 112.99 109 113.03 106.93 113.05 105.67 113.17 103.91 112.3 102.86 112.31 102.8 112.3 102.74 112.24 102.7 112.16 102.65 112.08 102.6 111.99 102.55 111.9 102.47 111.8 102.4 111.68 102.34 111.66 102.33 111.64 102.33 111.62 102.33 108.55 100.42 106.12 97.6 104.41 94.43 102.67 91.19 101.68 87.63 101.14 84.01 100.86 82.97 100.67 81.91 100.57 80.82 100.45 79.57 100.35 78.31 100.09 77.08 100.15 78.98 100.26 80.88 100.49 82.76 98.07 84.28 95.93 86.21 93.44 87.64 87.83 90.85 81 91.47 74.79 89.82 73.35 89.44 71.94 88.93 70.57 88.33 70.59 88.27 70.57 88.22 70.51 88.2 70.32 88.15 70.13 88.1 69.94 88.05 68.23 87.25 66.59 86.29 65.05 85.18 64.87 85.05 64.49 85.44 64.66 85.56 65.55 86.2 66.48 86.79 67.44 87.34 64.71 86.51 62.03 85.49 59.59 83.99 57.2 82.52 55.06 80.64 53.27 78.48 54.38 79.07 55.58 79.5 56.83 79.7 58.5 79.96 60.26 79.75 61.67 78.79 61.46 78.86 61.26 78.92 61.06 78.97 60.7 79.06 60.34 79.13 59.97 79.18 58.34 79.61 56.51 79.29 54.89 78.65 54.01 78.42 53.22 77.95 52.5 77.41 52.48 77.4 52.46 77.38 52.44 77.37 52.43 77.36 52.42 77.36 52.41 77.35 52.4 77.34 52.38 77.33 52.37 77.32 51.92 76.99 51.49 76.63 51.09 76.24 51 76.15 50.9 76.07 50.81 75.98 50.84 76.03 50.87 76.09 50.91 76.14 49.41 74.78 48.2 73.1 47.4 71.25 47.38 71.2 47.36 71.14 47.34 71.08 46.58 69.74 46.17 68.24 45.86 66.74 45.85 67.59 45.84 68.44 45.82 69.29 45.45 68.14 45.19 66.95 45.03 65.75 44.84 65.22 44.64 64.69 44.48 64.14 44.45 64.03 44.42 63.92 44.39 63.81 44.39 64.53 44.3 65.25 44.11 65.94 43.68 61.94 42.96 57.89 41.18 54.26 40.68 53.24 40.09 52.26 39.43 51.34 40.8 46.52 42.75 41.88 45.23 37.53 45.89 36.38 46.59 35.25 47.32 34.15 49.83 37.62 52.93 40.64 56.47 43.05 58.44 44.39 60.55 45.58 62.76 46.48 63.93 46.96 65.15 47.33 66.41 47.52 67.78 47.73 69.17 47.7 70.54 47.55 73.24 47.26 75.91 46.59 78.52 45.88 81.13 45.18 83.71 44.38 86.31 43.64 91.18 42.24 96.14 41.01 101.24 40.96 105.73 40.92 110.33 41.76 114.21 44.12 114.18 44.2 114.18 44.27 114.26 44.3 114.57 44.42 114.87 44.57 115.15 44.73 115.38 44.89 115.62 45.06 115.84 45.24 115.87 45.27 115.91 45.27 115.96 45.26 116.56 45.7 117.11 46.21 117.63 46.75 118.55 47.71 119.38 48.77 120.11 49.88 121.59 52.13 122.68 54.64 123.43 57.23 124.26 60.01 124.7 62.94 124.56 65.86Z" fill="#F7F0EA"/><path d="M70.1 87.08C69.43 85.86 68.65 84.72 67.79 83.62 66.94 82.54 65.99 81.54 64.97 80.62 64.09 79.82 62.9 79.14 62.52 77.95 62.5 77.87 62.54 77.77 62.61 77.74 63.18 77.43 63.74 77.11 64.29 76.76 65.49 76.01 66.65 75.19 67.66 74.2 68.42 73.45 69.23 72.51 69.44 71.43 68.18 72.07 66.95 72.74 65.67 73.34 63.24 74.48 60.66 75.23 57.95 75.13 57.5 75.11 57.06 75.07 56.61 75.01 54.02 75.38 51.27 74.2 49.45 72.41 48.14 71.12 47.11 69.56 46.41 67.86 46.03 66.94 45.8 66.01 45.72 65.01 45.65 64.18 45.65 63.35 45.52 62.53 45.33 63.34 45.33 64.2 45.33 65.03 45.33 65.24 44.99 65.3 44.96 65.08 44.72 63.61 44.33 62.17 43.95 60.73 43.81 61.2 43.7 61.68 43.61 62.16 43.83 63.41 43.99 64.66 44.12 65.92 44.31 65.23 44.4 64.51 44.4 63.79 44.43 63.9 44.46 64.01 44.49 64.12 44.65 64.67 44.85 65.19 45.04 65.73 45.2 66.93 45.45 68.11 45.83 69.27 45.84 68.42 45.85 67.57 45.87 66.72 46.18 68.23 46.59 69.73 47.35 71.06 47.37 71.11 47.39 71.17 47.41 71.23 48.21 73.08 49.42 74.76 50.92 76.12 50.89 76.07 50.86 76.01 50.82 75.96 50.91 76.05 51.01 76.13 51.1 76.22 51.5 76.61 51.93 76.97 52.38 77.3 52.39 77.31 52.41 77.32 52.42 77.33 52.43 77.34 52.44 77.34 52.45 77.35 52.47 77.36 52.49 77.38 52.51 77.39 53.23 77.93 54.03 78.41 54.9 78.63 56.52 79.27 58.35 79.59 59.98 79.16 60.34 79.11 60.71 79.04 61.07 78.95 61.26 78.9 61.47 78.84 61.68 78.77 60.27 79.73 58.51 79.94 56.84 79.68 55.6 79.48 54.4 79.05 53.28 78.46 55.07 80.62 57.21 82.5 59.6 83.97 62.04 85.47 64.72 86.49 67.45 87.32 66.49 86.78 65.56 86.18 64.67 85.54 64.5 85.42 64.88 85.03 65.06 85.16 66.6 86.26 68.24 87.22 69.95 88.03 70.14 88.08 70.33 88.13 70.52 88.18 70.59 88.2 70.6 88.25 70.58 88.31 70.64 88.34 70.71 88.36 70.78 88.39 70.56 87.95 70.34 87.51 70.1 87.08Z" fill="#E4DFDA"/><path d="M101.95 81.85C101.92 80.68 101.93 79.5 102.04 78.33 102.15 77.16 102.33 75.99 102.53 74.83 102.91 72.63 103.37 70.44 103.51 68.21 103.29 68.39 103.08 68.57 102.88 68.76 100.49 71 99.07 74.06 97.84 77.04 96.72 79.74 95.17 82.57 92.32 83.73 91.23 84.17 90.07 84.43 88.89 84.33 87.89 84.24 86.94 83.9 86.07 83.4 84.22 82.33 82.77 80.68 81.26 79.19 79.92 77.87 78.46 76.55 76.69 75.88 77.6 76.85 78.36 77.96 78.96 79.15 79.61 80.43 80.07 81.78 80.49 83.15 80.96 84.69 81.33 86.26 81.45 87.86 81.52 88.8 81.65 89.74 81.69 90.68 85.79 90.66 89.87 89.67 93.46 87.62 95.95 86.2 98.09 84.27 100.51 82.74 100.29 80.86 100.17 78.96 100.11 77.06 100.36 78.29 100.47 79.55 100.59 80.8 100.69 81.89 100.89 82.95 101.16 83.99 101.56 86.64 102.2 89.26 103.2 91.75 102.48 88.49 102.04 85.18 101.95 81.85Z" fill="#E4DFDA"/><path d="M99.79 77.84C99.37 78.84 99.09 79.88 98.7 80.88 98.37 81.73 97.95 82.51 97.28 83.15 96.46 83.93 95.45 84.52 94.44 85.03 92.68 85.93 90.78 86.7 88.83 87.03 87.92 87.19 86.92 87.27 86.02 86.96 85.55 86.8 85.13 86.53 84.8 86.15 84.44 85.73 84.18 85.24 83.89 84.78 82.77 83.05 81.29 81.65 79.58 80.54 79.92 81.39 80.22 82.26 80.49 83.14 80.96 84.68 81.33 86.25 81.45 87.85 81.52 88.79 81.65 89.73 81.69 90.67 85.79 90.65 89.87 89.66 93.46 87.61 95.95 86.19 98.09 84.26 100.51 82.73 100.29 80.88 100.18 79.01 100.12 77.14 99.99 77.38 99.89 77.61 99.79 77.84Z" fill="#E4DFDA"/><path d="M123.45 57.22C122.7 54.63 121.61 52.13 120.13 49.87 119.4 48.76 118.57 47.71 117.65 46.74 117.13 46.2 116.58 45.69 115.98 45.25 115.94 45.26 115.9 45.25 115.86 45.23 115.63 45.06 115.4 44.89 115.17 44.72 114.88 44.56 114.59 44.41 114.28 44.29 114.2 44.26 114.2 44.19 114.23 44.11 110.35 41.76 105.75 40.91 101.26 40.95 96.17 41 91.2 42.23 86.33 43.63 83.73 44.38 81.15 45.17 78.54 45.87 75.92 46.58 73.26 47.24 70.56 47.54 69.19 47.69 67.8 47.72 66.43 47.51 65.17 47.32 63.96 46.94 62.78 46.47 60.57 45.57 58.46 44.38 56.49 43.04 52.95 40.63 49.85 37.6 47.34 34.14 46.61 35.25 45.91 36.37 45.25 37.52 42.77 41.87 40.82 46.51 39.45 51.33 40.12 52.25 40.7 53.23 41.2 54.25 41.51 54.87 41.78 55.51 42.03 56.16 42.5 56 42.95 55.8 43.38 55.56 44.84 54.73 46.05 53.51 47.12 52.23 48.18 50.96 49.11 49.59 50.04 48.22 50.14 48.07 50.4 48.12 50.39 48.32 50.38 49.96 49.58 51.47 48.8 52.9 49.44 52.2 49.92 51.34 50.33 50.49 50.89 49.32 51.34 48.1 51.97 46.97 52.04 46.84 52.22 46.85 52.3 46.97 52.62 47.48 52.83 48.03 52.97 48.61 53.1 48.76 53.24 48.92 53.37 49.07 53.99 49.82 54.59 50.6 55.3 51.27 56.06 52 56.97 52.54 57.93 52.98 59.79 53.83 61.84 54.18 63.87 54.22 66.04 54.26 68.18 54 70.27 53.43 72.39 52.86 74.43 52.07 76.49 51.31 78.59 50.53 80.72 49.84 82.83 49.08 84.97 48.31 87.12 47.54 89.31 46.91 93.12 45.82 97.11 45.23 101.08 45.51 104.76 45.77 108.43 46.82 111.37 49.13 111.5 49.24 111.39 49.46 111.23 49.45 110.33 49.44 109.48 49.19 108.61 48.99 110.36 50.56 111.79 52.41 112.83 54.54 112.92 54.73 112.7 54.92 112.53 54.77 111.6 53.92 110.49 53.33 109.36 52.79 109.59 53.05 109.82 53.32 110.03 53.59 110.85 54.42 111.58 55.32 112.21 56.3 114.59 60 115.45 64.5 114.81 68.83 114.48 71.06 113.74 73.2 112.67 75.18 111.68 77.01 110.44 78.69 109.16 80.33 110.88 79.94 112.06 78.35 113.37 77.27 113.52 77.14 113.71 77.27 113.69 77.45 113.44 79.26 113.25 81.08 113.12 82.9 113 84.5 112.93 86.1 112.89 87.71 112.85 89.23 112.79 90.78 112.88 92.3 112.92 93.03 113.05 93.76 113.29 94.45 113.53 95.13 113.91 95.75 114.29 96.36 115 97.5 115.8 98.64 116.13 99.96 116.16 100.09 116.04 100.24 115.9 100.19 114.86 99.84 113.88 99.3 112.8 99.09 113.68 99.9 114.63 100.64 115.41 101.55 115.5 101.66 115.46 101.9 115.28 101.87 114.65 101.79 114.03 101.64 113.4 101.57 114.48 102.16 115.74 102.51 116.54 103.48 116.73 103.71 116.9 103.98 116.93 104.28 116.96 104.67 116.81 105.05 116.7 105.41 116.39 106.35 116.25 107.37 116.1 108.34 115.76 110.43 115.48 112.54 115.24 114.64 115.01 116.72 114.84 118.82 114.96 120.91 115.08 122.97 116.04 124.89 116.64 126.83 116.7 127.03 116.46 127.12 116.32 127.02 115.74 126.57 115.21 126.07 114.66 125.59 115.08 126.5 115.59 127.36 115.8 128.35 115.83 128.52 115.61 128.7 115.48 128.53 115.1 128.05 114.65 127.64 114.2 127.23 114.64 128.14 115.04 129.07 115.31 130.05 115.47 130.64 115.58 131.25 115.62 131.85 115.69 131.86 115.76 131.87 115.82 131.86 115.97 131.84 115.96 131.74 116 131.6 116.06 131.41 116.14 131.25 116.29 131.1 116.29 131.1 116.29 131.1 116.3 131.1 116.44 130.83 116.61 130.59 116.81 130.37 116.91 130.19 117.02 130.02 117.15 129.85 117.26 129.71 117.46 129.69 117.52 129.76 117.7 129.64 117.88 129.54 118.08 129.46 118 129.26 117.9 129.07 117.81 128.88 117.8 128.81 117.78 128.74 117.73 128.69 117.73 128.69 117.73 128.69 117.73 128.69 117.72 128.66 117.72 128.64 117.71 128.61 117.71 128.61 117.71 128.61 117.71 128.6 117.71 128.35 117.72 128.11 117.74 127.86 117.79 127.85 117.83 127.86 117.87 127.89 118.08 128.09 118.3 128.29 118.51 128.48 118.22 126.89 117.68 125.36 117.26 123.81 116.38 120.55 116.4 117.19 116.86 113.87 117.09 112.21 117.41 110.56 117.76 108.92 118.07 107.48 118.37 106 119.27 104.8 119.3 104.77 119.33 104.74 119.36 104.72L119.55 104.37C119.76 103.99 120.26 103.37 120.07 102.92 119.9 102.52 119.51 102.15 119.19 101.87 119.07 101.76 118.93 101.67 118.8 101.57 118.58 101.29 118.37 101.01 118.16 100.73 118.22 100.69 118.29 100.68 118.34 100.7 118.52 100.78 118.69 100.88 118.86 100.98 119.13 101.08 119.42 101.12 119.7 101.09 118.93 100.65 118.17 100.15 117.65 99.43 116.97 98.49 116.91 97.34 116.89 96.22 116.78 91.41 117.16 86.62 117.53 81.83 117.57 81.32 117.61 80.82 117.65 80.31 117.77 79.49 117.93 78.69 118.16 77.89 118.2 77.8 118.24 77.71 118.28 77.63 118.24 78.13 118.21 78.62 118.18 79.12 119.64 77.52 121.03 75.85 122.15 73.99 123.64 71.5 124.46 68.74 124.61 65.84 124.7 62.94 124.26 60.01 123.45 57.22Z" fill="#E4DFDA"/><path d="M123.45 57.22C122.7 54.63 121.61 52.13 120.13 49.87 119.4 48.76 118.57 47.71 117.65 46.74 117.13 46.2 116.58 45.69 115.98 45.25 115.94 45.26 115.9 45.25 115.86 45.23 115.63 45.06 115.4 44.89 115.17 44.72 114.88 44.56 114.59 44.41 114.28 44.29 114.2 44.26 114.2 44.19 114.23 44.11 110.35 41.76 105.75 40.91 101.26 40.95 96.17 41 91.2 42.23 86.33 43.63 83.73 44.38 81.15 45.17 78.54 45.87 75.92 46.58 73.26 47.24 70.56 47.54 69.19 47.69 67.8 47.72 66.43 47.51 65.17 47.32 63.96 46.94 62.78 46.47 60.57 45.57 58.46 44.38 56.49 43.04 54.69 41.81 53 40.42 51.44 38.9 53 41.74 55.07 44.27 57.84 46.06 62.81 49.27 69.04 49.97 74.77 48.93 77.73 48.39 80.59 47.39 83.45 46.49 86.25 45.62 89.05 44.76 91.9 44.09 97.39 42.81 103.25 42.2 108.81 43.39 111.37 43.94 113.84 44.93 115.89 46.57 117.98 48.23 119.13 50.63 120.2 53.01 120.28 53.19 120.12 53.35 119.94 53.27 118.72 52.75 117.62 51.99 116.42 51.44 117.84 52.72 118.95 54.25 119.37 56.17 119.41 56.37 119.2 56.47 119.05 56.35 118.13 55.61 117.18 54.91 116.17 54.29 117.37 55.73 118.27 57.4 118.82 59.21 120.11 63.42 119.82 68.12 118.61 72.3 118.06 74.21 117.24 76.04 116.37 77.82 116.08 78.41 115.77 79.02 115.4 79.6 115.65 79.43 115.9 79.26 116.13 79.09 116.24 79.01 116.43 79.12 116.42 79.25 116.18 82.01 115.89 84.77 115.67 87.53 115.57 88.77 115.48 90 115.42 91.24 115.39 91.85 115.36 92.45 115.35 93.06 115.34 93.46 115.31 93.86 115.34 94.25 115.44 95.41 115.87 96.58 116.35 97.64 116.74 98.51 117.49 99.93 118.44 100.81 118.56 100.87 118.68 100.94 118.8 101.01 119.07 101.11 119.36 101.15 119.64 101.12 118.87 100.68 118.11 100.18 117.59 99.46 116.91 98.52 116.85 97.37 116.83 96.25 116.72 91.44 117.1 86.65 117.47 81.86 117.51 81.35 117.55 80.85 117.59 80.34 117.71 79.52 117.87 78.72 118.1 77.92 118.14 77.83 118.18 77.74 118.22 77.66 118.18 78.16 118.15 78.65 118.12 79.15 119.58 77.55 120.97 75.88 122.09 74.02 123.58 71.53 124.4 68.77 124.55 65.87 124.7 62.94 124.26 60.01 123.45 57.22Z" fill="#E4DFDA"/><g><path d="M83.27 83.78C83.27 83.77 83.26 83.75 83.26 83.74 83.31 84.41 83.3 85.08 83.17 85.74 82.97 86.77 82.46 87.71 81.73 88.46 80.21 89.99 78.01 90.5 75.93 90.09 73.66 89.65 71.69 88.23 70.12 86.6 68.86 85.29 67.9 83.65 66.55 82.42 66.58 82.73 66.7 83.03 66.94 83.31 67.79 84.77 68.46 86.31 69.01 87.91 69.68 89.84 70.33 91.79 70.92 93.74 72.13 97.72 72.97 101.76 73.42 105.9 73.54 107.01 73.64 108.13 73.73 109.25 73.1 110.49 72.7 111.86 72.8 113.26 72.87 114.3 73.72 116.27 73.72 116.33 74.83 124.41 73.19 132.49 72.3 140.51 72.24 141.02 72.2 141.53 72.15 142.04 72.13 142.11 72.1 142.17 72.07 142.24 72.05 142.52 72.03 142.79 72.01 143.07 72 143.29 72.03 143.5 72.19 143.56 71.55 144.98 71.08 146.48 70.82 148.02 70.76 148.38 70.68 148.76 70.67 149.12 70.66 149.4 70.76 149.64 71.03 149.76 71.34 149.9 71.74 149.88 72.07 149.87 72.36 149.86 72.64 149.82 72.92 149.78 73.18 150.07 73.59 150.02 73.97 149.96 75.05 149.78 76.34 149.55 77.17 148.78 77.91 148.09 78.18 147.08 78.45 146.14 78.86 144.71 79.27 143.29 79.68 141.86 79.73 141.75 79.77 141.65 79.82 141.54 79.84 141.55 79.84 141.56 79.86 141.57 80.04 141.63 80.21 141.55 80.33 141.42 80.43 141.31 80.44 141.21 80.4 141.15 80.42 141.1 80.44 141.04 80.43 141 80.43 140.98 80.42 140.96 80.42 140.93 80.53 141.06 80.64 141.18 80.77 141.3 80.85 141.38 80.96 141.34 81.04 141.26 80.8 139.96 80.54 138.66 80.46 137.34 80.46 137.3 80.47 137.28 80.47 137.24 79.68 131.78 79.89 126.21 80.35 120.73 80.47 119.37 80.6 118 80.74 116.64 80.76 116.61 80.79 116.59 80.8 116.56 81.51 114.98 82.24 113.31 82.14 111.54 82.07 110.27 81.61 109.08 81.25 107.86 81.74 106.17 82.21 104.47 82.61 102.76 83.11 100.64 83.59 98.43 83.57 96.24 83.56 95.66 83.51 95.07 83.4 94.5 83.62 94.82 83.84 95.13 84.07 95.45 84.2 95.64 84.48 95.27 84.49 95.16 84.62 94.04 84.55 92.9 84.32 91.81 84.33 91.83 84.35 91.85 84.36 91.88 84.49 92.1 84.79 91.78 84.8 91.63 84.99 88.9 84.45 86.19 83.27 83.78Z" fill="#95766D"/><path d="M78.07 146.04C77.74 147.21 77.44 148.48 76.2 148.98 75.57 149.24 74.88 149.38 74.21 149.49 73.98 149.53 73.7 149.6 73.48 149.51 73.48 149.51 73.48 149.51 73.48 149.5 73.46 149.5 73.44 149.51 73.42 149.51 73.19 149.53 73.02 149.31 73.01 149.1 72.99 148.66 73.07 148.22 73.13 147.78 73.19 147.34 73.27 146.91 73.34 146.47 73.44 145.84 73.39 145.18 73.51 144.56 73.51 144.54 73.5 144.52 73.5 144.5 73.19 145.69 72.88 146.89 72.69 148.11 72.63 148.51 72.6 148.97 72.73 149.37 72.59 149.39 72.44 149.4 72.3 149.41 72.01 149.42 71.62 149.45 71.35 149.32 71.01 149.15 71.14 148.72 71.18 148.42 71.23 148.06 71.29 147.7 71.37 147.34 71.64 146 72.07 144.7 72.64 143.45 72.91 143.31 73.16 143.06 73.35 142.85 73.36 142.84 73.37 142.82 73.38 142.81 73.36 142.91 73.34 143.01 73.33 143.1 73.29 143.29 73.48 143.3 73.6 143.21 74.09 142.87 74.54 142.48 74.94 142.04 74.93 142.09 74.93 142.14 74.92 142.18 74.9 142.31 74.84 142.51 74.89 142.63 75.01 142.91 75.36 142.73 75.54 142.64 76.05 142.38 76.48 142.01 76.83 141.56 77.28 142.1 77.95 142.6 78.65 142.65 78.81 142.66 78.95 142.63 79.07 142.58 78.73 143.74 78.4 144.89 78.07 146.04Z" fill="#523839"/><path d="M72.86 143.33C72.79 143.38 72.72 143.43 72.65 143.47 72.09 144.72 71.66 146.02 71.38 147.36 71.31 147.72 71.24 148.08 71.19 148.44 71.15 148.74 71.02 149.17 71.36 149.34 71.42 149.37 71.49 149.39 71.57 149.41 71.47 147.3 72.08 145.27 72.86 143.33Z" fill="#523839"/><path d="M73.62 149.55C73.67 148.14 73.77 146.7 73.44 145.34 73.42 145.73 73.41 146.12 73.35 146.5 73.28 146.94 73.21 147.37 73.14 147.81 73.08 148.25 72.99 148.68 73.02 149.13 73.03 149.33 73.2 149.56 73.43 149.54 73.45 149.54 73.47 149.53 73.49 149.53 73.49 149.53 73.49 149.53 73.49 149.54 73.53 149.54 73.57 149.54 73.62 149.55Z" fill="#523839"/><path d="M78.65 142.67C77.95 142.62 77.28 142.12 76.83 141.58 76.49 142.03 76.06 142.4 75.54 142.66 75.35 142.75 75.01 142.93 74.89 142.65 74.83 142.52 74.9 142.32 74.92 142.2 74.93 142.15 74.93 142.1 74.94 142.06 74.54 142.5 74.09 142.89 73.6 143.23 73.47 143.32 73.29 143.31 73.33 143.12 73.35 143.02 73.37 142.92 73.38 142.83 73.37 142.84 73.36 142.86 73.35 142.87 73.16 143.08 72.92 143.33 72.64 143.47 72.44 143.92 72.26 144.38 72.09 144.84 72.35 144.63 72.61 144.43 72.9 144.27 73.6 143.88 74.43 143.68 75.21 143.94 75.89 144.16 76.46 144.65 76.84 145.25 77.27 145.92 77.49 146.69 77.61 147.48 77.8 147.02 77.93 146.52 78.07 146.04 78.4 144.89 78.73 143.74 79.06 142.59 78.94 142.65 78.8 142.68 78.65 142.67Z" fill="#523839"/><path d="M83.26 88.91C83.3 89.39 83.33 89.88 83.36 90.36 83.89 91.68 84.14 93.1 84.09 94.53 83.7 93.98 83.32 93.43 82.93 92.88 83.06 93.71 83.17 94.55 83.1 95.4 83.1 95.46 83.08 95.51 83.06 95.56 83.18 96.8 83.06 98.07 82.87 99.3 82.52 101.53 81.98 103.73 81.38 105.9 81.27 106.3 81.15 106.71 81.04 107.11 81 106.93 80.95 106.75 80.92 106.57 80.91 106.54 80.9 106.52 80.88 106.51 80.84 106.65 80.82 106.79 80.79 106.94 80.84 107.8 81.06 108.65 81.23 109.5 81.44 110.19 81.62 110.88 81.67 111.6 81.78 112.96 81.36 114.25 80.85 115.5 80.87 115.33 80.88 115.17 80.9 115 80.9 114.99 80.9 114.99 80.9 114.99 80.74 115.54 80.53 116.08 80.33 116.63 80.31 116.67 80.3 116.72 80.29 116.76 79.65 123.04 79.11 129.37 79.78 135.66 79.86 136.43 79.97 137.2 80.09 137.97 80.11 138.02 80.13 138.08 80.12 138.14 80.12 138.14 80.12 138.14 80.12 138.14 80.16 138.38 80.2 138.62 80.24 138.86 80.25 138.9 80.26 138.95 80.26 138.99 80.33 139.37 80.4 139.74 80.48 140.12 80.4 140.01 80.33 139.89 80.27 139.77 80.25 139.93 80.21 140.09 80.17 140.25 80.01 140.81 79.73 141.36 79.31 141.77 79.3 141.78 79.29 141.78 79.29 141.79 79.27 141.84 79.25 141.9 79.22 141.95 79.05 142.34 78.72 142.22 78.4 142.09 77.86 141.87 77.42 141.5 77.08 141.03 76.97 140.88 76.74 141.13 76.69 141.21 76.46 141.59 76.14 141.91 75.76 142.15 75.67 142.21 75.56 142.29 75.45 142.31 75.3 142.35 75.31 142.38 75.34 142.16 75.38 141.9 75.42 141.65 75.46 141.39 75.5 141.11 75.18 141.25 75.08 141.38 74.72 141.86 74.3 142.28 73.83 142.65 73.88 142.35 73.94 142.05 74 141.76 74.06 141.43 73.63 141.69 73.56 141.86 73.45 142.15 73.3 142.43 73.1 142.66 73.01 142.77 72.64 143.19 72.49 143.09 73.06 136.37 74.4 129.72 74.54 122.96 74.58 120.88 74.49 118.79 74.25 116.72 74.42 116.9 74.6 117.07 74.8 117.22 74.63 116.97 74.49 116.7 74.36 116.46 73.94 115.66 73.53 114.79 73.34 113.9 73.1 112.72 73.16 111.46 73.55 110.32 73.75 109.75 74.05 109.22 74.29 108.67 74.42 108.37 74.54 108.07 74.64 107.77 74.47 108.01 74.3 108.26 74.15 108.52 73.91 105.71 73.6 102.92 73.06 100.15 72.27 96.09 71 92.14 69.66 88.23 69.06 86.49 68.4 84.81 67.51 83.23 67.52 83.18 67.52 83.13 67.48 83.1 67.43 83.06 67.4 83.01 67.36 82.97 67.28 82.83 67.2 82.69 67.11 82.55 67.11 82.56 67.1 82.56 67.1 82.57 66.65 81.53 67.7 80.24 68.47 79.58 69.53 78.68 70.86 78.16 72.22 77.95 73.76 77.71 75.36 77.85 76.87 78.2 78.26 78.52 79.62 79.06 80.69 80.03 81.04 80.34 81.33 80.7 81.58 81.08 82.56 82.24 83.03 83.74 83.33 85.26 84.03 87.04 84.39 88.93 84.38 90.85L83.26 88.91Z" fill="#F7F0EA"/><path d="M74.14 108.52C74.3 108.26 74.46 108.01 74.63 107.77 74.52 108.07 74.41 108.38 74.28 108.67 74.04 109.22 73.73 109.75 73.54 110.32 73.15 111.46 73.08 112.72 73.33 113.9 73.34 113.95 73.36 114.01 73.37 114.06 73.85 115.74 74.76 117.3 75.84 118.67 75.64 117.75 75.42 116.83 75.23 115.91 74.87 114.21 74.57 112.46 74.77 110.72 74.99 108.83 75.77 107.09 76.75 105.47 75.99 105.55 75.34 106.16 74.82 106.68 74.73 106.77 74.52 106.74 74.5 106.6 74.23 104.84 74.02 103.08 73.78 101.32 73.32 97.95 72.79 94.57 71.76 91.33 70.96 88.82 69.82 86.35 68.09 84.35 68.7 85.6 69.2 86.89 69.66 88.23 71 92.14 72.27 96.08 73.06 100.15 73.59 102.91 73.9 105.71 74.14 108.52Z" fill="#F7F0EA"/><path d="M83.26 88.91 84.38 90.84C84.39 88.92 84.02 87.02 83.33 85.25 83.04 83.73 82.56 82.23 81.58 81.07 81.32 80.69 81.03 80.33 80.69 80.02 79.66 79.09 78.36 78.56 77.03 78.23 77.72 78.84 78.33 79.57 78.83 80.39 79.61 81.66 80.13 83.07 80.56 84.49 81.03 86.03 81.34 87.63 81.4 89.24 81.41 89.39 81.23 89.47 81.11 89.4 80.6 89.1 80.1 88.77 79.61 88.45 80.3 89.37 80.79 90.45 81.14 91.54 81.19 91.71 81 91.83 80.86 91.75 80.15 91.39 79.55 90.86 78.89 90.43 79.35 91.1 79.72 91.83 80 92.6 80.74 94.66 80.9 96.9 80.84 99.07 80.78 101.2 80.5 103.32 80.13 105.41 80.11 105.5 79.99 105.58 79.9 105.54 78.77 105.07 77.8 104.27 76.68 103.79 77.18 104.66 77.63 105.57 78 106.51 78.72 108.35 79.11 110.32 78.97 112.3 78.84 114.15 78.24 115.9 77.33 117.5 77.84 117.16 78.27 116.66 78.75 116.29 78.84 116.22 79.01 116.29 79.03 116.4 79.27 117.88 78.8 119.36 78.65 120.82 78.49 122.32 78.39 123.82 78.24 125.32 78.08 126.87 77.99 128.42 77.91 129.98 77.82 131.52 77.7 133.1 78.01 134.63 78.3 136.06 78.99 137.4 79.2 138.85 79.22 139 79.07 139.17 78.92 139.06 78.22 138.57 77.73 137.86 77.07 137.32 77.06 138.08 77.43 138.82 77.52 139.57 77.54 139.73 77.3 139.82 77.2 139.7 76.68 139.09 76.27 138.39 75.75 137.79 75.46 138.93 74.83 140.03 74.14 140.97 73.71 141.56 73.17 142.24 72.51 142.69 72.5 142.82 72.49 142.94 72.48 143.07 72.63 143.17 72.99 142.75 73.09 142.64 73.29 142.4 73.44 142.13 73.55 141.84 73.61 141.67 74.05 141.4 73.99 141.74 73.93 142.04 73.88 142.34 73.82 142.63 74.29 142.26 74.71 141.84 75.07 141.36 75.17 141.23 75.49 141.09 75.45 141.37 75.41 141.63 75.37 141.88 75.33 142.14 75.3 142.36 75.29 142.33 75.44 142.29 75.54 142.27 75.65 142.18 75.75 142.13 76.13 141.89 76.45 141.57 76.68 141.19 76.73 141.11 76.96 140.86 77.07 141.01 77.41 141.48 77.85 141.85 78.39 142.07 78.71 142.2 79.04 142.31 79.21 141.93 79.23 141.88 79.26 141.82 79.28 141.77 79.29 141.76 79.3 141.76 79.3 141.75 79.72 141.34 80 140.79 80.16 140.23 80.21 140.07 80.24 139.91 80.26 139.75 80.33 139.87 80.4 139.99 80.47 140.1 80.39 139.73 80.32 139.35 80.25 138.97 80.24 138.93 80.24 138.88 80.23 138.84 80.19 138.6 80.15 138.36 80.11 138.12 80.11 138.12 80.11 138.12 80.11 138.12 80.12 138.06 80.1 138 80.08 137.95 79.96 137.18 79.85 136.41 79.77 135.64 79.1 129.35 79.64 123.01 80.28 116.74 80.29 116.7 80.31 116.65 80.32 116.61 80.51 116.07 80.73 115.53 80.89 114.97 80.89 114.98 80.89 114.98 80.89 114.98 80.87 115.15 80.86 115.32 80.84 115.48 81.36 114.24 81.77 112.94 81.66 111.58 81.6 110.86 81.42 110.17 81.22 109.48 81.05 108.63 80.82 107.78 80.78 106.92 80.81 106.78 80.83 106.63 80.87 106.49 80.89 106.5 80.9 106.52 80.91 106.55 80.95 106.73 80.99 106.91 81.03 107.09 81.15 106.69 81.26 106.28 81.37 105.88 81.97 103.71 82.51 101.51 82.86 99.28 83.05 98.05 83.17 96.78 83.05 95.54 83.07 95.49 83.09 95.43 83.09 95.38 83.16 94.53 83.05 93.7 82.92 92.86 83.31 93.41 83.69 93.96 84.08 94.51 84.13 93.08 83.88 91.66 83.35 90.34 83.33 89.88 83.31 89.39 83.26 88.91Z" fill="#E4DFDA"/></g><g><g><path d="M63.33 2.58C61.99 2.5 60.66 2.73 59.36 3.03 58.22 3.29 57.1 3.62 56.01 4 53.8 4.77 51.68 5.78 49.7 7.03 45.82 9.48 42.56 12.89 40.42 16.96 39.5 18.71 38.8 20.56 38.35 22.48 38.28 22.53 38.22 22.6 38.21 22.66 38.15 23.02 38.1 23.4 38.09 23.78 38.06 23.93 38.03 24.09 38.01 24.24 37.99 24.35 38.04 24.39 38.1 24.4 38.18 25.83 38.73 27.19 40.22 27.75 40.68 27.92 41.16 28 41.64 28.07 42.22 28.15 42.8 28.23 43.39 28.21 44.09 28.18 44.78 27.98 45.31 27.55 45.3 27.58 45.3 27.61 45.29 27.64 45.23 27.96 45.69 27.74 45.73 27.54 45.77 27.34 45.81 27.14 45.85 26.94 45.85 26.94 45.85 26.94 45.85 26.94 46.6 23.18 47.98 19.56 49.9 16.24 51.92 12.74 54.54 9.58 57.6 6.94 59.34 5.45 61.22 4.12 63.22 3.01 63.31 2.94 63.61 2.59 63.33 2.58Z" fill="#79695D"/><path d="M53.67 10.38C50.94 13.5 48.74 17.1 47.21 20.95 46.44 22.9 45.84 24.91 45.43 26.96 44.87 27.69 43.88 27.81 43.01 27.76 42.13 27.7 41.14 27.61 40.33 27.24 38.89 26.6 38.49 25.08 38.54 23.63 39.27 19.44 41.22 15.52 44.01 12.31 46.97 8.89 50.87 6.35 55.07 4.74 56.27 4.28 57.5 3.9 58.74 3.58 59.98 3.27 61.25 3.01 62.53 3 59.2 4.97 56.21 7.47 53.67 10.38Z" fill="#DBBDA5"/><path d="M46.42 18.96C45.45 18.35 44.39 17.82 43.27 17.56 42.43 17.37 41.56 17.26 40.7 17.25 40.61 17.43 40.51 17.61 40.42 17.79 41.52 17.8 42.63 18 43.65 18.29 45.07 18.7 46.36 19.38 47.49 20.29 47.55 20.15 47.61 20.02 47.67 19.88 47.28 19.53 46.86 19.24 46.42 18.96Z" fill="#DBBDA5"/><path d="M52.33 12.02C52.45 11.87 52.56 11.71 52.68 11.56 51.57 10.19 50.29 8.97 48.82 8.03 48.57 8.21 48.32 8.39 48.07 8.57 49.67 9.49 51.07 10.69 52.33 12.02Z" fill="#DBBDA5"/><path d="M60.14 3.27C59.67 3.36 59.2 3.46 58.74 3.58 58.71 3.59 58.69 3.6 58.66 3.6 58.98 4.04 59.26 4.51 59.52 5 59.84 4.77 60.17 4.55 60.49 4.32 60.39 3.97 60.27 3.61 60.14 3.27Z" fill="#DBBDA5"/><path d="M54.54 6.78C55.05 7.15 55.45 7.63 55.85 8.11 55.97 8 56.08 7.88 56.2 7.76 55.86 7.14 55.43 6.63 54.83 6.22 54.4 5.93 53.93 5.66 53.43 5.42 53.19 5.53 52.95 5.64 52.72 5.76 53.38 6.03 54.01 6.4 54.54 6.78Z" fill="#DBBDA5"/><path d="M50.11 15.23C50.22 15.06 50.32 14.88 50.43 14.71 49.15 13.36 47.59 12.46 45.77 12.04 45.36 11.94 44.92 11.86 44.47 11.81 44.46 11.82 44.46 11.83 44.45 11.83 46.58 12.46 48.53 13.65 50.11 15.23Z" fill="#DBBDA5"/><path d="M48.95 17.25C48.99 17.18 49.02 17.11 49.06 17.04 47.98 16.27 46.89 15.52 45.64 15.05 44.59 14.66 43.5 14.49 42.4 14.38 42.36 14.44 42.32 14.51 42.28 14.57 44.65 15.01 46.91 15.96 48.95 17.25Z" fill="#DBBDA5"/><path d="M40.38 19.59C42.3 15.02 45.42 10.98 49.38 7.98 50.62 7.04 51.93 6.22 53.29 5.48 49.77 7.1 46.54 9.38 44 12.31 41.22 15.52 39.26 19.44 38.53 23.63 38.51 24.18 38.56 24.75 38.7 25.27 38.97 23.31 39.63 21.38 40.38 19.59Z" fill="#DBBDA5"/><path d="M59.61 4.3C58.35 4.81 57.2 5.44 56.1 6.23 54.19 7.59 52.34 9.11 50.74 10.82 49.15 12.51 47.79 14.38 46.54 16.32 46.02 17.14 45.55 17.99 45.01 18.8 44.6 19.43 44.04 20.22 43.26 20.41 42.29 20.65 41.88 19.56 41.1 19.27 40.72 19.13 40.29 19.06 39.85 19.06 39.26 20.53 38.81 22.06 38.54 23.62 38.49 25.07 38.89 26.59 40.33 27.23 41.15 27.59 42.13 27.69 43.01 27.75 43.88 27.8 44.86 27.69 45.43 26.95 45.85 24.9 46.44 22.89 47.21 20.94 48.74 17.09 50.94 13.5 53.67 10.37 56.09 7.59 58.92 5.2 62.06 3.28 61.23 3.59 60.42 3.97 59.61 4.3Z" fill="#DBBDA5"/></g><g><path d="M48.2 0C46.86 0.13 45.59 0.56 44.35 1.06 43.27 1.5 42.22 1.99 41.19 2.54 39.13 3.64 37.19 4.97 35.43 6.51 31.97 9.53 29.28 13.4 27.79 17.75 27.15 19.62 26.75 21.56 26.6 23.52 26.54 23.58 26.49 23.65 26.49 23.72 26.48 24.09 26.5 24.47 26.54 24.84 26.54 25 26.53 25.15 26.53 25.31 26.53 25.42 26.58 25.45 26.64 25.45 26.94 26.85 27.69 28.11 29.25 28.43 29.73 28.53 30.22 28.53 30.7 28.53 31.28 28.52 31.87 28.51 32.45 28.4 33.13 28.26 33.78 27.96 34.25 27.45 34.25 27.48 34.25 27.51 34.25 27.54 34.24 27.86 34.66 27.58 34.67 27.37 34.68 27.17 34.69 26.96 34.7 26.76 34.7 26.76 34.7 26.76 34.7 26.76 34.86 22.93 35.66 19.14 37.04 15.56 38.5 11.79 40.59 8.26 43.21 5.18 44.69 3.44 46.35 1.84 48.16 0.43 48.24 0.36 48.48-0.03 48.2 0Z" fill="#79695D"/><path d="M39.86 9.2C37.65 12.71 36.03 16.6 35.11 20.64 34.65 22.68 34.37 24.76 34.28 26.85 33.84 27.66 32.88 27.93 32.02 28.01 31.14 28.09 30.15 28.15 29.29 27.91 27.77 27.5 27.14 26.06 26.96 24.62 27.03 20.36 28.36 16.19 30.62 12.59 33.02 8.76 36.47 5.65 40.38 3.4 41.49 2.76 42.65 2.19 43.83 1.69 45.01 1.19 46.22 0.74 47.49 0.54 44.49 3 41.92 5.93 39.86 9.2Z" fill="#DBBDA5"/><path d="M34.02 18.8C32.97 18.35 31.84 17.98 30.69 17.9 29.83 17.84 28.96 17.86 28.1 17.99 28.04 18.18 27.96 18.37 27.91 18.57 28.99 18.42 30.13 18.43 31.18 18.57 32.65 18.76 34.03 19.23 35.28 19.95 35.32 19.81 35.36 19.66 35.4 19.52 34.96 19.23 34.5 19.01 34.02 18.8Z" fill="#DBBDA5"/><path d="M38.8 11.03C38.89 10.86 38.98 10.69 39.07 10.52 37.76 9.34 36.31 8.33 34.71 7.63 34.49 7.84 34.27 8.06 34.06 8.28 35.77 8.94 37.34 9.91 38.8 11.03Z" fill="#DBBDA5"/><path d="M45.16 1.18C44.71 1.34 44.27 1.52 43.83 1.7 43.8 1.71 43.78 1.72 43.75 1.74 44.13 2.13 44.49 2.55 44.81 2.99 45.09 2.71 45.38 2.44 45.66 2.17 45.51 1.83 45.34 1.5 45.16 1.18Z" fill="#DBBDA5"/><path d="M40.16 5.52C40.72 5.81 41.19 6.22 41.66 6.63 41.76 6.5 41.85 6.36 41.95 6.24 41.52 5.68 41.02 5.24 40.36 4.93 39.9 4.7 39.39 4.5 38.86 4.35 38.64 4.49 38.43 4.65 38.21 4.8 38.9 4.95 39.58 5.21 40.16 5.52Z" fill="#DBBDA5"/><path d="M37.09 14.54C37.17 14.35 37.24 14.16 37.33 13.98 35.85 12.85 34.18 12.2 32.32 12.06 31.9 12.03 31.45 12.02 31 12.04 30.99 12.05 30.99 12.06 30.98 12.07 33.18 12.35 35.29 13.23 37.09 14.54Z" fill="#DBBDA5"/><path d="M36.26 16.72C36.29 16.64 36.31 16.57 36.34 16.49 35.16 15.89 33.96 15.32 32.65 15.05 31.56 14.82 30.45 14.83 29.34 14.89 29.31 14.96 29.28 15.03 29.25 15.1 31.67 15.17 34.04 15.76 36.26 16.72Z" fill="#DBBDA5"/><path d="M28.16 20.36C29.35 15.55 31.81 11.07 35.26 7.5 36.34 6.38 37.51 5.37 38.74 4.43 35.51 6.56 32.68 9.31 30.62 12.6 28.37 16.2 27.04 20.37 26.96 24.63 27.03 25.18 27.16 25.73 27.38 26.22 27.34 24.25 27.69 22.24 28.16 20.36Z" fill="#DBBDA5"/><path d="M44.79 2.28C43.63 2.98 42.59 3.78 41.62 4.73 39.94 6.37 38.35 8.16 37.03 10.1 35.72 12.01 34.66 14.07 33.73 16.19 33.34 17.08 33.01 18 32.6 18.88 32.29 19.56 31.86 20.43 31.12 20.74 30.2 21.12 29.63 20.12 28.8 19.95 28.4 19.87 27.96 19.87 27.54 19.94 27.18 21.48 26.98 23.06 26.95 24.65 27.12 26.09 27.75 27.53 29.28 27.94 30.14 28.17 31.13 28.12 32.01 28.04 32.87 27.96 33.83 27.69 34.27 26.88 34.36 24.79 34.64 22.71 35.1 20.67 36.02 16.63 37.64 12.74 39.85 9.23 41.81 6.11 44.24 3.31 47.05 0.93 46.28 1.32 45.54 1.82 44.79 2.28Z" fill="#DBBDA5"/></g><g><path d="M25.78 25.6C22.18 28.2 17.47 27.6 13.3 27.63 11.08 27.65 8.81 27.83 6.73 28.69 5.06 29.38 3.58 30.52 2.44 31.92 1.14 33.51 0.28 35.44 0.01 37.47-0.02 37.71 0.34 37.51 0.4 37.43 0.62 37.1 0.89 36.81 1.19 36.56 1 36.87 0.85 37.2 0.76 37.55 0.7 37.79 0.99 37.71 1.09 37.62 1.47 37.25 1.87 36.86 2.36 36.63 2.93 36.36 3.54 36.43 4.13 36.6 5.19 36.91 6.21 37.35 7.23 37.77 9.21 38.58 11.26 39.39 13.44 39.36 15.41 39.33 17.37 38.67 18.97 37.51 20.68 36.26 21.84 34.47 22.91 32.68 24.2 30.51 25.46 28.28 26.03 25.79 26.04 25.76 26.04 25.73 26.03 25.71 26.05 25.57 25.97 25.46 25.78 25.6Z" fill="#95766D"/><path d="M18.99 37.08C17.36 38.31 15.32 38.97 13.28 38.91 11.11 38.85 9.08 37.97 7.1 37.16 6.55 36.93 5.99 36.71 5.43 36.51 4.88 36.31 4.31 36.09 3.72 36.03 2.81 35.92 2.06 36.36 1.41 36.91 1.56 36.59 1.75 36.3 2 36.04 2.13 35.91 2.15 35.59 1.89 35.73 1.38 35.98 0.93 36.32 0.55 36.73 1.2 33.34 3.61 30.35 6.83 29.06 10.92 27.42 15.45 28.42 19.71 28.01 21.75 27.82 23.78 27.31 25.51 26.18 24.99 28.25 23.99 30.15 22.91 31.99 21.84 33.82 20.71 35.77 18.99 37.08Z" fill="#F7F0EA"/><path d="M8.87 28.44C8.18 28.58 7.49 28.78 6.82 29.05 5.85 29.44 4.95 29.99 4.16 30.65 5.63 29.71 7.22 28.95 8.87 28.44Z" fill="#E4DFDA"/><path d="M19.71 28C19.15 28.05 18.58 28.08 18.01 28.1 18.22 28.19 18.42 28.3 18.61 28.43 18.77 28.54 18.8 28.8 18.61 28.9 17.56 29.46 16.38 29.66 15.21 29.73 14.09 29.8 12.97 29.77 11.86 29.81 10.79 29.85 9.75 30.01 8.72 30.33 6.96 30.88 5.43 31.87 4.3 33.29 5.61 32.92 6.93 32.58 8.31 32.71 8.57 32.73 8.7 33.07 8.45 33.22 7.86 33.56 7.23 33.82 6.62 34.11 8.01 34.01 9.4 33.82 10.79 34.05 11.05 34.09 11.02 34.43 10.85 34.55 10.22 35 9.5 35.27 8.79 35.58 10.33 36.21 12.03 36.52 13.68 36.36 14.59 36.28 15.63 36.15 16.44 35.72 17.18 35.33 17.79 34.69 18.64 34.54 18.77 34.52 18.95 34.58 18.97 34.73 19.1 35.5 18.73 36.25 18.34 36.89 18.12 37.25 17.88 37.59 17.63 37.92 18.1 37.68 18.56 37.4 18.98 37.08 20.71 35.77 21.83 33.83 22.91 31.99 23.99 30.15 24.99 28.25 25.51 26.18 23.78 27.3 21.75 27.8 19.71 28Z" fill="#E4DFDA"/><path d="M23.17 28.47C21.93 29.29 20.64 30.04 19.15 30.27 17.65 30.5 16.1 30.33 14.59 30.27 11.89 30.16 9.09 30.19 6.58 31.3 5.81 31.77 5.08 32.34 4.48 33.01 6.05 31.63 8.18 30.97 10.25 30.76 11.75 30.61 13.26 30.66 14.76 30.72 16.2 30.78 17.67 30.92 19.1 30.68 19.36 30.64 19.62 30.57 19.87 30.5 19.16 32.67 17.7 34.55 15.79 35.79 16.28 35.58 16.75 35.32 17.17 34.98 17.64 34.6 18.07 34.18 18.49 33.75 19.28 32.75 19.91 31.62 20.31 30.39 20.31 30.38 20.31 30.37 20.31 30.36 21.37 29.99 22.35 29.4 23.29 28.77 23.52 28.64 23.48 28.27 23.17 28.47Z" fill="#95766D"/></g><g><path d="M37.7 65.95C37.61 64.05 36.87 62.33 35.89 60.73 35.98 60.57 35.9 60.38 35.66 60.53 32.83 62.26 29.7 63.45 26.44 64.07 26.24 64.11 26.01 64.56 26.32 64.5 26.35 64.49 26.37 64.49 26.4 64.48 26.4 64.53 26.42 64.57 26.47 64.59 28.22 65.27 29.09 67.12 29.56 68.82 30.17 71.05 30.26 73.4 29.82 75.67 29.76 75.99 30.16 75.75 30.23 75.62 30.48 75.2 30.7 74.77 30.89 74.33 30.43 76.6 29.65 78.88 29.72 81.17 29.75 82.26 29.97 83.34 30.46 84.31 30.57 84.53 30.91 84.22 30.9 84.06 30.88 83.14 30.86 82.19 30.92 81.26 31.01 83.02 31.51 84.75 32.41 86.28 32.41 86.29 32.42 86.29 32.42 86.29 32.38 85.96 32.41 85.61 32.45 85.3 32.49 84.96 32.55 84.62 32.6 84.28 32.57 83.91 32.55 83.54 32.57 83.17 32.62 82.21 32.95 81.37 33.4 80.53 34.19 79.04 35.04 77.58 35.76 76.06 36.49 74.54 37.1 72.95 37.4 71.28 37.55 70.42 37.62 69.55 37.65 68.68 37.7 67.77 37.74 66.85 37.7 65.95Z" fill="#95766D"/><path d="M37.22 68.62C37.19 69.54 37.14 70.47 36.98 71.37 36.38 74.76 34.49 77.67 32.94 80.67 32.51 81.5 32.2 82.36 32.14 83.31 32.12 83.73 32.14 84.14 32.18 84.56 31.65 83.26 31.38 81.87 31.38 80.48 31.25 79.84 31.14 79.2 31.1 78.55 30.59 79.91 30.46 81.34 30.45 82.77 29.6 79.68 30.98 76.44 31.49 73.3 31.55 72.68 31.57 72.06 31.53 71.45 31.47 70.52 31.16 69.64 30.81 68.78 30.81 68.79 30.81 68.8 30.81 68.81 31.21 69.97 31.29 71.12 31.2 72.28 31.02 73.06 30.76 73.81 30.42 74.53 30.67 72.52 30.54 70.48 30 68.52 29.55 66.87 28.7 65.12 27.12 64.33 30.06 63.68 32.88 62.57 35.47 61.03 35.47 61.05 35.48 61.07 35.49 61.08 36.39 62.55 37.11 64.16 37.24 65.9 37.3 66.8 37.25 67.72 37.22 68.62Z" fill="#F7F0EA"/><path d="M37.23 65.89C37.1 64.15 36.38 62.54 35.48 61.07 35.47 61.05 35.47 61.03 35.46 61.02 32.87 62.56 30.05 63.67 27.11 64.32 28 64.76 28.65 65.5 29.14 66.36 29.52 66.59 29.78 67 29.96 67.4 30.43 68.46 30.62 69.7 30.72 70.86 30.81 71.93 30.81 73.04 30.6 74.11 30.85 73.52 31.05 72.9 31.2 72.27 31.29 71.12 31.21 69.96 30.81 68.8 30.81 68.79 30.81 68.78 30.81 68.77 31.16 69.63 31.47 70.51 31.53 71.44 31.53 71.46 31.53 71.47 31.53 71.49 31.57 71.12 31.61 70.76 31.64 70.4 31.7 69.63 31.79 68.8 31.69 68.03 31.62 67.53 31.47 66.89 31.75 66.43 31.81 66.34 31.97 66.29 32.05 66.39 32.77 67.32 33.01 68.48 33.02 69.63 33.03 71.97 32.15 74.14 31.45 76.33 30.81 78.34 30.31 80.44 30.4 82.53 30.42 82.61 30.43 82.68 30.45 82.76 30.46 81.32 30.59 79.89 31.1 78.54 31.11 78.68 31.12 78.81 31.13 78.95 31.27 78.28 31.43 77.62 31.62 76.96 32.01 75.62 32.52 74.31 32.93 72.98 33.35 71.63 33.7 70.23 33.8 68.82 33.9 67.4 33.59 66 33.36 64.61 33.34 64.46 33.44 64.35 33.59 64.38 34.09 64.48 34.41 64.93 34.61 65.36 34.87 65.91 35.01 66.51 35.12 67.11 35.35 68.39 35.41 69.67 35.25 70.96 35.01 72.83 34.4 74.62 33.76 76.38 33.1 78.19 32.31 79.99 32.16 81.93 32.13 82.36 32.13 82.78 32.15 83.21 32.22 82.31 32.52 81.48 32.94 80.68 34.5 77.68 36.38 74.77 36.98 71.38 37.14 70.47 37.19 69.55 37.22 68.63 37.25 67.72 37.3 66.8 37.23 65.89Z" fill="#E4DFDA"/><path d="M28.89 65.96C29.45 65.92 30.01 65.81 30.55 65.65 32.02 65.2 33.28 64.38 34.59 63.61 35.17 63.27 35.75 62.91 36.22 62.43 35.99 61.97 35.74 61.52 35.48 61.08 35.47 61.06 35.47 61.04 35.46 61.03 32.87 62.57 30.05 63.68 27.11 64.33 27.86 64.69 28.44 65.27 28.89 65.96Z" fill="#E4DFDA"/></g><path d="M52.25 35.85C51.95 33.42 51.12 31.1 50.03 28.92 49.27 27.4 48.33 25.9 47.07 24.76 47.36 24.73 47.66 24.74 47.96 24.78 48.1 24.8 48.38 24.56 48.29 24.41 47.66 23.3 46.56 22.56 45.31 22.38 45.67 22.08 46.07 21.82 46.51 21.62 46.61 21.58 46.88 21.29 46.67 21.21 45.16 20.65 43.47 20.75 42.02 21.45 41.99 20.73 41.97 20.02 41.99 19.3 41.99 19.09 41.73 19.22 41.65 19.29 41.17 19.69 40.78 20.18 40.49 20.73 39.94 19.85 38.88 19.39 37.84 19.57 37.73 19.59 37.43 19.86 37.58 19.97 38 20.29 38.32 20.7 38.51 21.18 37.48 20.86 36.42 20.66 35.36 20.64 35.65 20.38 35.94 20.13 36.23 19.87 36.32 19.79 36.42 19.55 36.23 19.53 35.35 19.43 34.48 19.57 33.67 19.9 33.83 19.64 34 19.37 34.16 19.11 34.22 19.02 34.2 18.89 34.08 18.88 32.38 18.74 30.83 19.62 29.54 20.64 28.99 20.08 28.2 19.85 27.42 20 27.29 20.03 26.99 20.32 27.2 20.43 27.46 20.56 27.66 20.75 27.8 20.98 26.78 20.73 25.63 21.24 25.09 22.16 25.02 22.28 25.08 22.41 25.23 22.38 25.66 22.3 26.08 22.33 26.48 22.44 24.69 23.99 23.31 25.95 22.49 28.18 21.38 31.19 20.8 34.5 20.76 37.7 20.74 39.25 20.89 40.8 21.19 42.32 20.2 43.56 19.22 44.81 18.28 46.09 16.98 47.86 15.77 49.71 14.89 51.72 14.03 53.69 13.39 55.9 13.93 58.05 14.42 59.99 15.72 61.63 17.14 62.99 17.88 63.7 18.66 64.37 19.54 64.9 20.48 65.47 21.51 65.8 22.59 65.92 24.66 66.16 26.82 65.89 28.82 65.33 32.79 64.22 36.34 61.88 39.17 58.92 41.13 56.88 42.76 54.56 44.16 52.11 47.82 50.56 50.6 47.31 51.59 43.46 51.9 42.24 52.1 40.98 52.23 39.73 52.39 38.46 52.41 37.15 52.25 35.85Z" fill="#95766D"/><path d="M51.45 42.33C51.06 44.43 50.31 46.39 48.99 48.08 47.79 49.61 46.24 50.83 44.47 51.63 44.95 50.76 45.4 49.87 45.83 48.98 45.56 49.37 45.3 49.75 45.05 50.15 44.64 50.81 44.31 51.52 43.92 52.19 43.37 53.16 42.73 54.06 42.04 54.92 41.45 55.77 40.82 56.6 40.15 57.4 37.55 60.48 34.28 63 30.49 64.42 28.61 65.12 26.62 65.54 24.61 65.57 23.49 65.59 22.34 65.52 21.27 65.15 20.3 64.82 19.44 64.26 18.65 63.61 17.15 62.38 15.72 60.89 14.88 59.12 14.45 58.21 14.2 57.24 14.19 56.23 14.18 55.1 14.46 53.99 14.83 52.92 15.54 50.89 16.65 49.02 17.87 47.26 18.7 46.07 19.58 44.91 20.47 43.77 20.64 43.49 20.82 43.21 21 42.93 21.36 42.38 21.76 41.87 22.15 41.34 22.36 41.06 22.56 40.76 22.71 40.44 22.71 40.44 22.71 40.44 22.71 40.44 22.33 40.9 21.96 41.37 21.59 41.83 21.07 39.08 21.12 36.24 21.57 33.48 22.03 30.61 22.76 27.59 24.43 25.16 25.11 24.18 25.92 23.3 26.83 22.54 27.01 22.61 27.18 22.7 27.35 22.81 27.36 22.82 27.38 22.82 27.4 22.82 27.37 22.73 27.35 22.63 27.32 22.54 27.31 22.53 27.31 22.51 27.3 22.5 27.28 22.47 27.27 22.44 27.25 22.4 27.22 22.34 27.18 22.29 27.15 22.23 27.14 22.22 27.13 22.21 27.12 22.2 27.11 22.19 27.11 22.19 27.1 22.18 27.1 22.18 27.1 22.18 27.09 22.17 27.08 22.16 27.06 22.14 27.04 22.14 27.04 22.14 27.03 22.14 27.03 22.13L27.03 22.13C27.03 22.13 27.03 22.13 27.03 22.13 27.01 22.12 27 22.11 27.01 22.12 26.95 22.1 26.9 22.06 26.86 22.02 26.48 21.91 26.08 21.87 25.67 21.9 26.02 21.52 26.53 21.34 27.04 21.34 27.11 21.32 27.18 21.31 27.25 21.34 27.27 21.34 27.28 21.36 27.29 21.36 27.57 21.4 27.85 21.48 28.09 21.63 28.27 21.74 28.49 21.41 28.47 21.27 28.42 20.94 28.26 20.65 28.05 20.41 28.5 20.49 28.92 20.73 29.23 21.09 29.29 21.16 29.43 21.11 29.48 21.06 30.66 20.1 32.05 19.25 33.62 19.29 33.42 19.61 33.22 19.93 33.02 20.25 32.93 20.4 33.06 20.53 33.21 20.45 33.96 20.05 34.78 19.88 35.62 19.92 35.36 20.15 35.1 20.38 34.83 20.61 33.97 20.65 33.11 20.8 32.26 21.14 32.23 21.15 32.19 21.18 32.17 21.21 32.89 21.13 33.6 21.01 34.33 21 34.82 20.99 35.31 21.03 35.8 21.09 36.32 21.14 36.84 21.23 37.35 21.35 38.08 21.5 38.82 21.67 39.53 21.88 40.1 22.05 40.66 22.27 41.23 22.45 41.27 22.37 41.27 22.29 41.18 22.25 40.5 21.91 39.79 21.6 39.06 21.34 38.95 20.82 38.72 20.35 38.37 19.96 39.16 20.07 39.89 20.59 40.21 21.34 40.31 21.57 40.61 21.25 40.65 21.14 40.84 20.63 41.14 20.19 41.51 19.8 41.51 20.47 41.52 21.14 41.55 21.81 41.56 21.93 41.68 21.95 41.77 21.9 43.05 21.21 44.55 21.07 45.93 21.47 45.49 21.73 45.09 22.03 44.72 22.39 44.64 22.47 44.52 22.72 44.72 22.73 45.83 22.8 46.87 23.37 47.54 24.25 47.23 24.25 46.92 24.3 46.62 24.38 46.26 24.09 45.88 23.83 45.47 23.61 45.85 24.12 46.3 24.58 46.7 25.06 46.77 25.14 46.83 25.23 46.89 25.31 47.82 26.21 48.57 27.32 49.19 28.46 50.28 30.47 51.15 32.65 51.59 34.9 52.1 37.4 51.91 39.89 51.45 42.33Z" fill="#F7F0EA"/><path d="M26.54 21.98C26.69 21.78 26.85 21.58 27.02 21.39 26.52 21.4 26.03 21.57 25.7 21.94 25.98 21.92 26.26 21.93 26.54 21.98Z" fill="#F7F0EA"/><path d="M22.43 40.84C22.34 40.89 22.25 40.94 22.16 40.98 22.05 41.03 21.91 41 21.88 40.87 21.53 39.36 21.73 37.77 21.95 36.26 22.17 34.81 22.39 33.35 22.7 31.91 22.88 31.08 23.09 30.25 23.31 29.43 23.51 28.67 23.71 27.9 23.96 27.16 24.3 26.17 24.7 25.2 25.17 24.26 24.92 24.56 24.67 24.87 24.45 25.2 22.78 27.63 22.05 30.64 21.59 33.52 21.15 36.28 21.1 39.12 21.61 41.87 21.89 41.52 22.16 41.18 22.43 40.84Z" fill="#F7F0EA"/><path d="M19.08 46.32C20.02 44.96 21.01 43.64 21.98 42.31 22.65 41.39 23.64 40.66 24.21 39.68 23.6 39.93 23.12 40.41 22.56 40.76 22.44 40.97 22.3 41.18 22.16 41.37 21.77 41.9 21.37 42.41 21.01 42.96 20.83 43.24 20.65 43.52 20.48 43.8 19.58 44.94 18.7 46.1 17.88 47.29 16.99 48.56 16.17 49.9 15.51 51.3 16.67 49.61 17.92 48 19.08 46.32Z" fill="#F7F0EA"/><path d="M26.97 39.47C27.24 38.58 27.5 37.66 27.65 36.75 27.81 35.75 27.81 34.7 27.44 33.75 27.18 33.09 26.83 32.4 26.2 32.03 25.06 31.36 23.51 31.89 22.63 32.75 22.14 33.22 21.77 33.79 21.48 34.41 21.16 36.89 21.17 39.41 21.63 41.87 22 41.41 22.37 40.94 22.75 40.48 22.75 40.48 22.75 40.48 22.75 40.48 22.6 40.8 22.4 41.09 22.19 41.38 21.82 41.88 21.44 42.36 21.1 42.88 21.72 42.68 22.39 42.58 23.01 42.52 23.67 42.46 24.33 42.46 24.97 42.63 25.6 42.79 26.19 43.05 26.82 43.22 26.69 42.72 26.23 42.37 25.82 42.08 25.73 42.01 25.68 41.87 25.78 41.78 26.42 41.18 26.72 40.29 26.97 39.47Z" fill="#E4DFDA"/><path d="M27.52 31.24C27.65 30 26.6 28.61 25.3 28.69 24.1 28.76 23.21 29.81 22.7 30.85 23.3 30.51 23.96 30.3 24.66 30.28 25.22 30.27 25.76 30.38 26.28 30.6 26.7 30.79 27.1 31.02 27.52 31.24Z" fill="#E4DFDA"/><path d="M34.59 29.4C35.46 28.9 36.48 28.59 37.48 28.46 38.09 28.38 38.68 28.46 39.26 28.64 39.77 28.8 40.27 29 40.79 29.11 40.72 28.51 40.32 28 39.85 27.62 39.35 27.22 38.75 26.92 38.12 26.77 37.48 26.61 36.85 26.69 36.25 26.95 35 27.5 33.88 28.74 33.69 30.12 33.93 29.82 34.26 29.59 34.59 29.4Z" fill="#E4DFDA"/><path d="M41.65 41.75C41.54 41.72 41.5 41.62 41.52 41.52 41.62 40.81 41.91 40.15 42.13 39.47 42.36 38.78 42.47 38.04 42.58 37.32 42.69 36.58 42.75 35.83 42.61 35.09 42.49 34.45 42.25 33.84 41.92 33.28 41.35 32.3 40.53 31.37 39.52 30.83 38.53 30.31 37.37 30.19 36.29 30.48 34.35 31 33.11 32.71 32.36 34.48 31.98 35.38 31.71 36.32 31.55 37.28 31.41 38.15 31.32 39.08 31.47 39.96 31.77 41.75 33.05 43.8 35.06 43.86 35.18 43.86 35.28 43.98 35.24 44.1 35.12 44.45 35.03 44.8 34.94 45.15 35.22 44.85 35.53 44.59 35.86 44.34 37.07 43.46 38.53 42.9 40 42.63 41.26 42.4 42.62 42.36 43.85 42.75 43.43 42.08 42.36 41.95 41.65 41.75Z" fill="#E4DFDA"/><path d="M51.62 34.95C51.18 32.7 50.31 30.52 49.22 28.51 48.6 27.37 47.85 26.26 46.92 25.36 46.86 25.28 46.8 25.19 46.73 25.11 46.33 24.62 45.88 24.16 45.5 23.66 45.91 23.88 46.29 24.14 46.65 24.43 46.95 24.36 47.26 24.31 47.57 24.3 46.9 23.42 45.86 22.85 44.75 22.78 44.55 22.77 44.67 22.52 44.75 22.44 45.12 22.08 45.52 21.77 45.96 21.52 44.57 21.12 43.08 21.26 41.8 21.95 41.71 22 41.58 21.98 41.58 21.86 41.55 21.19 41.53 20.52 41.54 19.85 41.17 20.23 40.88 20.68 40.68 21.19 40.64 21.3 40.34 21.62 40.24 21.39 39.92 20.64 39.2 20.11 38.4 20.01 38.75 20.4 38.98 20.87 39.09 21.39 39.82 21.65 40.53 21.96 41.21 22.3 41.29 22.34 41.29 22.42 41.26 22.5 40.69 22.31 40.13 22.1 39.56 21.93 38.84 21.71 38.11 21.55 37.38 21.4 36.87 21.28 36.35 21.19 35.83 21.14 35.34 21.08 34.85 21.05 34.36 21.05 33.63 21.06 32.92 21.19 32.2 21.26 32.23 21.23 32.26 21.21 32.29 21.19 33.14 20.86 34 20.7 34.86 20.66 35.12 20.43 35.38 20.2 35.65 19.97 34.81 19.93 33.99 20.1 33.24 20.5 33.09 20.58 32.95 20.45 33.05 20.3 33.25 19.98 33.45 19.66 33.65 19.34 32.08 19.29 30.69 20.15 29.51 21.11 29.45 21.16 29.32 21.2 29.26 21.14 28.95 20.78 28.53 20.54 28.08 20.46 28.29 20.7 28.44 20.99 28.5 21.32 28.52 21.47 28.3 21.79 28.12 21.68 27.88 21.53 27.6 21.44 27.32 21.41 27.3 21.4 27.29 21.39 27.28 21.39 27.21 21.37 27.14 21.38 27.07 21.39 26.56 21.39 26.05 21.56 25.7 21.95 26.1 21.92 26.5 21.96 26.89 22.07 26.93 22.11 26.98 22.14 27.04 22.17 27.03 22.17 27.04 22.17 27.06 22.18 27.06 22.18 27.06 22.18 27.06 22.18L27.06 22.18C27.06 22.18 27.07 22.19 27.07 22.19 27.09 22.2 27.1 22.21 27.12 22.22 27.12 22.22 27.13 22.23 27.13 22.23 27.14 22.24 27.15 22.24 27.15 22.25 27.16 22.26 27.17 22.27 27.17 22.28 27.21 22.34 27.24 22.39 27.27 22.45 27.29 22.48 27.3 22.51 27.32 22.55 27.33 22.56 27.33 22.58 27.34 22.59 27.37 22.68 27.4 22.78 27.42 22.87 27.4 22.87 27.39 22.87 27.37 22.86 27.2 22.75 27.03 22.66 26.85 22.59 25.94 23.35 25.12 24.23 24.45 25.21 24.01 25.85 23.64 26.53 23.31 27.24 24.71 25.58 26.51 24.25 28.31 23.06 28.49 22.94 28.69 23.21 28.54 23.36 27.8 24.07 27.19 24.95 26.75 25.88 27.58 25.03 28.54 24.31 29.6 23.77 32.04 22.52 34.91 22.37 37.45 23.42 38.74 23.95 39.9 24.78 40.73 25.91 41.21 26.56 41.54 27.29 41.81 28.05 41.9 27.25 41.94 26.43 42.04 25.62 42.06 25.47 42.24 25.35 42.36 25.49 42.88 26.08 43.3 26.74 43.6 27.47 44.6 29.87 44.43 32.55 44.37 35.12 44.55 34.69 44.63 34.21 44.69 33.76 44.79 33.09 44.86 32.42 45.14 31.8 45.2 31.67 45.4 31.68 45.47 31.8 45.84 32.46 46 33.21 46.08 33.95 46.24 35.36 46.13 36.79 46.02 38.21 45.88 39.97 45.64 41.74 45.11 43.43 45.06 43.58 44.84 43.63 44.76 43.48 44.48 42.94 44.21 42.4 43.92 41.87 44.07 42.72 44.1 43.6 44.01 44.46 43.78 46.59 42.89 48.61 41.59 50.3 40.97 51.86 40.07 53.31 39.07 54.65 38.54 55.36 37.94 56.01 37.4 56.7 36.93 57.29 36.44 57.95 35.74 58.28 35.61 58.34 35.46 58.27 35.45 58.12 35.43 57.77 35.46 57.43 35.44 57.08 35.43 56.91 35.43 56.69 35.38 56.5 35.23 57.15 35.13 57.82 34.92 58.46 34.68 59.2 34.29 59.98 33.5 60.23 33.41 60.26 33.29 60.19 33.27 60.1 33.07 59.14 33.17 58.11 32.73 57.21 32.61 56.97 32.48 56.75 32.34 56.52 32.39 56.94 32.4 57.37 32.35 57.79 32.2 59.19 31.43 60.43 30.12 61.02 28.24 61.87 26.1 61.47 24.11 61.42 23.93 61.42 23.88 61.22 23.98 61.1 24.64 60.28 25.38 59.48 25.86 58.53 26.13 58.01 26.36 57.46 26.55 56.9 26.72 56.41 26.94 55.81 26.86 55.28 26.82 55.06 26.71 54.92 26.48 54.93 26.15 54.95 25.82 55.11 25.52 55.23 24.72 55.55 23.85 55.7 23 55.82 22 55.96 20.99 56 19.98 56.03 18.96 56.06 17.94 56.08 16.92 56.04 16.17 56.01 15.41 55.96 14.74 55.61 14.56 55.51 14.4 55.39 14.26 55.25 14.21 55.59 14.19 55.94 14.19 56.28 14.2 57.28 14.45 58.26 14.88 59.17 15.72 60.94 17.15 62.43 18.65 63.66 19.44 64.31 20.3 64.87 21.27 65.2 22.34 65.57 23.49 65.64 24.61 65.62 26.62 65.58 28.61 65.17 30.49 64.47 34.28 63.05 37.55 60.52 40.15 57.45 40.82 56.65 41.45 55.83 42.04 54.97 42.73 54.1 43.37 53.21 43.92 52.24 44.31 51.56 44.64 50.86 45.05 50.2 45.3 49.8 45.56 49.41 45.83 49.03 45.4 49.93 44.95 50.81 44.47 51.68 46.23 50.88 47.79 49.66 48.99 48.13 50.31 46.44 51.06 44.48 51.45 42.38 51.91 39.89 52.1 37.4 51.62 34.95Z" fill="#E4DFDA"/><path d="M26.27 32.27C26.11 32.2 25.96 32.14 25.8 32.08 25.45 31.96 25.08 31.89 24.71 31.97 24.5 32.02 24.3 32.1 24.11 32.2 23.52 32.59 23.1 33.2 22.78 33.82 22.33 34.7 22.01 35.65 21.83 36.61 21.65 37.57 21.59 38.56 21.69 39.53 21.77 40.27 21.98 41.12 22.64 41.57 23.33 42.04 24.22 41.87 24.88 41.45 25.56 41.01 26 40.32 26.33 39.59 26.7 38.68 27.02 37.75 27.19 36.78 27.36 35.81 27.36 34.76 27.16 33.79 27 33.16 26.67 32.69 26.27 32.27Z" fill="#95766D"/><path d="M26.93 36.39C26.82 37 26.64 37.61 26.44 38.2 26.18 38.98 25.92 39.81 25.43 40.48 24.97 41.1 24.2 41.59 23.4 41.37 21.92 40.97 22.01 38.72 22.11 37.54 22.18 36.71 22.35 35.89 22.62 35.11 22.88 34.36 23.21 33.55 23.74 32.94 24.32 32.27 25.34 31.95 26.07 32.6 26.09 32.62 26.11 32.64 26.13 32.66 26.66 33.04 26.97 33.71 27.07 34.35 27.17 35.02 27.12 35.72 26.93 36.39Z" fill="#FFFFFF"/><path d="M35.81 44C35.77 44.04 35.75 44.07 35.73 44.1 36.77 43.37 37.89 42.73 39.13 42.42 40.42 42.1 41.7 42.05 43 42 42.98 41.98 42.96 41.96 42.91 41.95 42.17 41.81 41.42 41.79 40.68 41.86 41.44 40.77 41.81 39.34 41.94 38.06 42.08 36.65 41.94 35.19 41.44 33.86 41.02 32.74 40.29 31.6 39.08 31.24 39.06 31.23 39.03 31.23 39 31.24 38.09 30.85 37.05 30.84 36.13 31.24 35.1 31.69 34.31 32.56 33.79 33.54 33.21 34.63 32.91 35.9 32.81 37.13 32.7 38.37 32.85 39.65 33.38 40.78 33.99 42.07 35.13 43.11 36.46 43.47 36.25 43.64 36.02 43.81 35.81 44Z" fill="#95766D"/><path d="M34.3 41.29C32.98 39.43 33.05 36.96 33.68 34.86 34.02 33.7 34.62 32.58 35.65 31.9 36.71 31.21 38.05 31.24 39.12 31.88 39.16 31.91 39.21 31.9 39.27 31.88 40.92 32.76 41.48 35.19 41.54 36.89 41.58 37.97 41.45 39.07 41.13 40.1 40.94 40.74 40.65 41.38 40.23 41.91 39.1 42.08 38.01 42.49 37.04 43.09 35.96 42.89 34.94 42.2 34.3 41.29Z" fill="#FFFFFF"/><path d="M32.74 59.28C32.69 59.06 32.25 59.38 32.3 59.58 32.61 60.85 31.06 61.39 30.12 61.63 29.05 61.91 27.94 61.97 26.84 61.98 25.75 62 24.65 61.97 23.56 62.04 22.74 62.09 21.97 62.25 21.18 62.43 21.18 62.43 21.18 62.42 21.17 62.41 20.6 61.67 20.16 60.83 19.87 59.94 19.8 59.72 19.37 60.04 19.43 60.24 19.7 61.07 20.1 61.85 20.61 62.56 20.52 62.58 20.42 62.61 20.33 62.63 19.2 62.91 17.85 63.05 16.96 62.13 16.81 61.97 16.41 62.35 16.57 62.51 17.34 63.3 18.49 63.38 19.52 63.21 20.18 63.1 20.81 62.89 21.46 62.74 22.11 62.59 22.78 62.51 23.45 62.47 25.9 62.32 28.44 62.67 30.8 61.8 31.86 61.44 33.05 60.56 32.74 59.28Z" fill="#95766D"/><g><path d="M25.51 57.02C25.3 56.66 24.68 56.83 24.36 56.91 23.38 57.14 22.39 57.35 21.39 57.5 20.31 57.66 19.21 57.78 18.11 57.68 17.11 57.6 16.13 57.36 15.15 57.15 14.91 57.1 14.09 56.82 14.12 57.32 14.12 57.36 14.13 57.39 14.14 57.43 14.14 57.43 14.15 57.43 14.15 57.43 15.04 58.73 16.38 59.69 17.89 60.12 19.57 60.61 21.37 60.37 22.97 59.7 23.76 59.37 24.52 58.91 25.11 58.28 25.17 58.22 25.23 58.15 25.29 58.09 25.45 57.75 25.68 57.32 25.51 57.02Z" fill="#5E4B44"/></g><g><path d="M25.39 56.89C24.88 57.45 24.3 57.94 23.64 58.32 21.91 59.32 19.77 59.57 17.82 59.3 16.9 59.18 16.1 58.84 15.32 58.36 14.99 58.16 14.67 57.94 14.38 57.7 15.26 58.85 16.51 59.71 17.91 60.11 19.59 60.6 21.39 60.36 22.99 59.69 23.78 59.36 24.54 58.9 25.13 58.27 25.19 58.21 25.25 58.14 25.31 58.08 25.46 57.74 25.69 57.31 25.52 57.01 25.48 56.96 25.44 56.92 25.39 56.89Z" fill="#5E4B44"/></g><path d="M26.37 29.36C26.64 29.48 26.85 29.69 27.04 29.91 27.1 29.98 27.17 30.05 27.24 30.12 27.27 29.85 27.29 29.59 27.28 29.32 27.2 29.03 27.09 28.74 26.91 28.48 26.58 27.99 26.03 27.69 25.44 27.67 24 27.63 23.31 29.06 22.94 30.23 22.91 30.31 22.98 30.36 23.05 30.35 23.14 30.34 23.22 30.24 23.24 30.16 23.24 30.16 23.24 30.16 23.24 30.15 23.7 29.45 24.48 28.97 25.34 29.02 25.69 29.04 26.03 29.16 26.33 29.35 26.35 29.36 26.36 29.36 26.37 29.36Z" fill="#58453F"/><path d="M23.48 29.53C23.84 28.67 24.42 27.86 25.48 28 26.25 28.11 26.67 28.66 26.91 29.32 26.51 28.94 25.96 28.72 25.4 28.72 24.67 28.7 23.99 29.03 23.48 29.53Z" fill="#79695D"/><path d="M40.44 27.61C39.77 26.7 38.84 25.97 37.62 26.12 36.41 26.27 35.29 27.01 34.57 27.97 34.3 28.33 34.09 28.73 33.93 29.15 33.95 29.17 33.97 29.19 33.99 29.21 34 29.21 34 29.22 34 29.22 34.01 29.23 34.03 29.24 34.05 29.25 34.08 29.27 34.12 29.29 34.15 29.3 34.15 29.3 34.15 29.3 34.15 29.3 34.15 29.3 34.14 29.3 34.14 29.3 34.15 29.3 34.16 29.31 34.16 29.31 34.17 29.31 34.18 29.32 34.19 29.32 34.19 29.32 34.2 29.32 34.2 29.32 34.23 29.31 34.25 29.32 34.28 29.32 34.28 29.32 34.28 29.32 34.28 29.32 35.08 28.56 36.09 28.02 37.17 27.79 38.31 27.54 39.78 27.56 40.59 28.55 40.61 28.57 40.63 28.58 40.65 28.58 40.6 28.24 40.53 27.93 40.44 27.61Z" fill="#58453F"/><path d="M37.19 27.5C36.09 27.75 35.08 28.29 34.26 29.04 34.68 27.99 35.51 27.12 36.57 26.68 37.33 26.37 38.13 26.3 38.88 26.68 39.32 26.9 39.68 27.23 39.98 27.61 39.12 27.24 38.06 27.3 37.19 27.5Z" fill="#79695D"/><g><path d="M68.98 31.92C67.83 30.52 66.36 29.38 64.69 28.69 62.62 27.83 60.35 27.64 58.12 27.63 54.2 27.6 49.8 28.12 46.3 26.03 46.56 26.36 46.81 26.69 47.1 26.99 47.7 27.63 48.22 28.33 48.78 29.01 48.92 29.18 48.75 29.4 48.55 29.31 48.45 29.26 48.35 29.2 48.26 29.13 48.38 29.69 48.67 30.22 48.92 30.72 49.28 31.43 49.6 32.15 49.94 32.86 50 32.99 49.9 33.21 49.73 33.14 48.87 32.8 48.24 32.01 47.7 31.26 47.97 31.73 48.24 32.2 48.52 32.67 49.59 34.46 50.75 36.25 52.46 37.5 54.05 38.66 56.01 39.32 57.99 39.35 60.17 39.38 62.22 38.57 64.2 37.76 65.22 37.34 66.24 36.9 67.3 36.59 67.89 36.42 68.49 36.35 69.07 36.62 69.56 36.85 69.96 37.24 70.34 37.61 70.44 37.71 70.73 37.78 70.67 37.54 70.58 37.19 70.43 36.86 70.25 36.56 70.55 36.81 70.82 37.1 71.04 37.43 71.1 37.51 71.46 37.71 71.43 37.47 71.14 35.44 70.29 33.51 68.98 31.92Z" fill="#95766D"/><path d="M48.5 31.98C47.42 30.14 46.43 28.24 45.9 26.17 47.63 27.29 49.66 27.8 51.7 28 55.97 28.41 60.49 27.4 64.58 29.05 67.79 30.34 70.2 33.33 70.86 36.72 70.48 36.31 70.03 35.97 69.52 35.72 69.25 35.59 69.28 35.9 69.41 36.03 69.66 36.29 69.86 36.58 70 36.9 69.34 36.34 68.6 35.91 67.69 36.02 67.1 36.09 66.53 36.3 65.98 36.5 65.42 36.7 64.86 36.93 64.31 37.15 62.33 37.96 60.31 38.84 58.13 38.9 56.09 38.96 54.05 38.3 52.42 37.07 50.7 35.77 49.58 33.82 48.5 31.98Z" fill="#F7F0EA"/><path d="M62.54 28.44C63.23 28.58 63.92 28.78 64.59 29.05 65.56 29.44 66.46 29.99 67.26 30.65 65.79 29.71 64.2 28.95 62.54 28.44Z" fill="#E4DFDA"/><path d="M51.71 28C52.27 28.05 52.84 28.08 53.41 28.1 53.2 28.19 53 28.3 52.81 28.43 52.65 28.54 52.62 28.8 52.81 28.9 53.86 29.46 55.04 29.66 56.21 29.73 57.33 29.8 58.45 29.77 59.56 29.81 60.63 29.85 61.67 30.01 62.7 30.33 64.46 30.88 65.99 31.87 67.12 33.29 65.81 32.92 64.49 32.58 63.11 32.71 62.85 32.73 62.72 33.07 62.97 33.22 63.56 33.56 64.19 33.82 64.8 34.11 63.41 34.01 62.02 33.82 60.63 34.05 60.37 34.09 60.4 34.43 60.57 34.55 61.2 35 61.92 35.27 62.63 35.58 61.09 36.21 59.39 36.52 57.74 36.36 56.84 36.28 55.79 36.15 54.98 35.72 54.24 35.33 53.63 34.69 52.78 34.54 52.65 34.52 52.47 34.58 52.45 34.73 52.32 35.5 52.69 36.25 53.08 36.89 53.3 37.25 53.54 37.59 53.79 37.92 53.32 37.68 52.86 37.4 52.44 37.08 50.71 35.77 49.59 33.83 48.51 31.99 47.43 30.15 46.44 28.25 45.91 26.18 47.63 27.3 49.66 27.8 51.71 28Z" fill="#E4DFDA"/><path d="M48.24 28.47C49.48 29.29 50.77 30.04 52.26 30.27 53.76 30.5 55.31 30.33 56.82 30.27 59.52 30.16 62.32 30.19 64.83 31.3 65.6 31.77 66.33 32.34 66.93 33.01 65.36 31.63 63.23 30.97 61.16 30.76 59.66 30.61 58.15 30.66 56.65 30.72 55.21 30.78 53.74 30.92 52.31 30.68 52.05 30.64 51.79 30.57 51.54 30.5 52.25 32.67 53.71 34.55 55.62 35.79 55.13 35.58 54.66 35.32 54.24 34.98 53.77 34.6 53.34 34.18 52.92 33.75 52.13 32.75 51.5 31.62 51.1 30.39 51.1 30.38 51.1 30.37 51.1 30.36 50.04 29.99 49.06 29.4 48.12 28.77 47.9 28.64 47.94 28.27 48.24 28.47Z" fill="#95766D"/></g><g><defs><path d="M26.93 36.39C26.82 37 26.64 37.61 26.44 38.2 26.18 38.98 25.92 39.81 25.43 40.48 24.97 41.1 24.2 41.59 23.4 41.37 21.92 40.97 22.01 38.72 22.11 37.54 22.18 36.71 22.35 35.89 22.62 35.11 22.88 34.36 23.21 33.55 23.74 32.94 24.32 32.27 25.34 31.95 26.07 32.6 26.09 32.62 26.11 32.64 26.13 32.66 26.66 33.04 26.97 33.71 27.07 34.35 27.17 35.02 27.12 35.72 26.93 36.39Z" id="SVGID_1_"/></defs><clipPath id="SVGID_2_"><use width="100%" height="100%" xlink:href="#SVGID_1_" overflow="visible"></use></clipPath><g clip-path="url(#SVGID_2_)"><g><path d="M29.16 37.81C29.16 39.63 27.68 41.11 25.86 41.11 24.04 41.11 22.56 39.63 22.56 37.81 22.56 35.99 24.04 34.51 25.86 34.51 27.68 34.51 29.16 35.99 29.16 37.81Z" fill="#885A54"/><path d="M28.04 37.81C28.04 39.01 27.07 39.99 25.86 39.99 24.66 39.99 23.68 39.02 23.68 37.81 23.68 36.61 24.66 35.63 25.86 35.63 27.06 35.63 28.04 36.61 28.04 37.81Z" fill="#3A0000"/></g><path d="M25.19 36.66C25.19 37.11 24.83 37.47 24.38 37.47 23.93 37.47 23.57 37.11 23.57 36.66 23.57 36.21 23.93 35.85 24.38 35.85 24.83 35.85 25.19 36.21 25.19 36.66Z" fill="#FFFFFF"/></g></g><g><defs><path d="M34.3 41.29C32.98 39.43 33.05 36.96 33.68 34.86 34.02 33.7 34.62 32.58 35.65 31.9 36.71 31.21 38.05 31.24 39.12 31.88 39.16 31.91 39.21 31.9 39.27 31.88 40.92 32.76 41.48 35.19 41.54 36.89 41.58 37.97 41.45 39.07 41.13 40.1 40.94 40.74 40.65 41.38 40.23 41.91 39.1 42.08 38.01 42.49 37.04 43.09 35.96 42.89 34.94 42.2 34.3 41.29Z" id="SVGID_3_"/></defs><clipPath id="SVGID_4_"><use width="100%" height="100%" xlink:href="#SVGID_3_" overflow="visible"></use></clipPath><g clip-path="url(#SVGID_4_)"><g><path d="M42.21 37.81C42.21 39.63 40.73 41.11 38.91 41.11 37.09 41.11 35.61 39.63 35.61 37.81 35.61 35.99 37.09 34.51 38.91 34.51 40.73 34.51 42.21 35.99 42.21 37.81Z" fill="#885A54"/><path d="M41.09 37.81C41.09 39.01 40.12 39.99 38.91 39.99 37.71 39.99 36.73 39.02 36.73 37.81 36.73 36.61 37.7 35.63 38.91 35.63 40.11 35.63 41.09 36.61 41.09 37.81Z" fill="#3A0000"/></g><path d="M38.24 36.66C38.24 37.11 37.88 37.47 37.43 37.47 36.98 37.47 36.62 37.11 36.62 36.66 36.62 36.21 36.98 35.85 37.43 35.85 37.88 35.85 38.24 36.21 38.24 36.66Z" fill="#FFFFFF"/></g></g></g></g></svg>