<svg width="103.95" height="108.64" viewBox="0 0 103.95 108.64" xmlns="http://www.w3.org/2000/svg" xmlns:xlink="http://www.w3.org/1999/xlink" xml:space="preserve" overflow="hidden"><defs></defs><g><path d="M33.91 71.04C30.86 67.99 27.44 65.31 23.74 63.08 24.84 70.28 24.26 77.73 22.06 84.67 21.76 85.61 21.28 86.69 20.31 86.88 19.52 87.04 14.6 87.32 15.72 90.7 16.3 92.45 20.53 92.22 22.37 92.07 25.37 91.83 25.56 90.11 26.97 87.46 28.38 84.8 28.94 81.8 29.74 78.9 30.54 76 31.68 73.05 33.91 71.04Z" fill="#A2582E" fill-rule="evenodd" clip-rule="evenodd"/><path d="M42.03 32.88C38.43 32.2 34.17 31.16 32.95 27.71 32.17 25.52 32.97 23.13 33.59 20.89 35.39 14.38 35.33 2.99 33.89 1.48 32.45-0.04 27.85 6.98 25.94 9.46 23.71 9.2 21.32 9.02 19.37 9.3 16.49 7.52 14.92 0.57 11.57 0.02 9.9-0.27 9.54 8.18 9.4 9.85 8.24 24.21 11.83 25.64 12.63 33.12 13.33 39.67 13.13 44.79 15.24 51.03 17.35 57.28 20.99 63.21 26.48 66.86 28.11 67.95 29.93 68.86 31.1 70.43 32.99 72.95 32.73 76.48 31.87 79.51 30.72 83.58 30.96 86.07 28.17 89.24 27.16 90.39 23.71 91.39 23.68 92.92 23.63 95.17 26.08 96.53 28.33 96.44 33.5 96.22 34.76 95.21 35.99 90.18 37.23 85.16 39.74 76.71 43.36 73.01 45.78 79.45 50.52 84.99 56.52 88.37 54.16 89.02 51.72 87.94 49.3 87.58 46.88 87.22 43.76 88.17 43.47 90.59 43.29 92.15 44.47 93.61 45.9 94.27 47.33 94.93 48.95 94.95 50.52 94.97 58.46 95.06 74.92 95.51 82.76 94.39 88.51 93.58 85.78 91.74 91.03 89.23 93.51 88.75 95.89 91.21 95.9 93.74 95.91 96.27 94.07 98.52 91.84 99.7 89.61 100.88 87.02 101.18 84.5 101.37 72.16 102.29 55.95 100.55 51.18 100.01 46.41 99.47 47.08 102.73 48.17 103.82 49.26 104.92 50.79 105.43 52.27 105.85 66.29 109.88 81.54 109.47 95.32 104.69 99.21 103.34 103.55 100.91 103.92 96.81 104.14 94.34 102.77 91.98 101.04 90.2 99.32 88.42 97.22 87.03 95.46 85.28 88.71 78.56 86.17 68.91 82.12 60.28 78.47 52.49 73.83 45.36 66.35 41.11 58.88 36.9 50.49 34.47 42.03 32.88Z" fill="#AD6739" fill-rule="evenodd" clip-rule="evenodd"/><path d="M95.47 85.32C88.72 78.6 86.18 68.95 82.13 60.32 78.48 52.53 73.84 45.4 66.36 41.15 58.88 36.9 50.48 34.48 42.03 32.88 38.61 32.23 34.59 31.25 33.15 28.18 32.95 30.41 33.19 32.6 34.28 34.54 35.95 37.5 39.24 39.14 42.49 40.12 48.63 41.98 55.32 42.12 61.05 45 68.43 48.71 72.97 56.29 76.68 63.67 80.39 71.05 83.88 78.91 90.24 84.18 92.3 85.88 94.61 87.27 96.58 89.07 98.55 90.87 100.22 93.21 100.45 95.87 100.73 99.13 98.89 101.92 96.48 104.3 100.03 102.89 103.59 100.55 103.92 96.85 104.14 94.38 102.77 92.02 101.04 90.24 99.32 88.45 97.23 87.07 95.47 85.32Z" fill="#A2582E"/><path d="M19.37 9.29C16.49 7.51 14.92 0.56 11.57 0.01 9.9-0.27 9.54 8.18 9.4 9.85 8.84 16.82 9.39 20.74 10.21 23.79 10.39 22.75 10.64 21.72 11.06 20.76 11.72 19.25 12.83 17.87 14.35 17.21 15.12 16.88 16.02 16.71 16.58 16.08 17.09 15.51 17.19 14.69 17.34 13.93 17.49 13.18 17.8 12.35 18.5 12.04 18.82 11.89 19.19 11.88 19.52 11.74 19.97 11.56 20.31 11.19 20.64 10.82 21.14 10.26 21.64 9.7 22.14 9.14 21.17 9.13 20.22 9.17 19.37 9.29Z" fill="#A2582E"/><path d="M29.59 50.56C31.25 48.72 30.8 45.85 30.07 43.48 29.34 41.11 28.44 38.5 29.48 36.25 29.85 35.45 30.44 34.77 30.86 33.98 31.27 33.2 31.49 32.22 31.06 31.44 30.63 30.66 29.37 30.39 28.86 31.12 25.9 32.85 22.27 33.4 18.93 32.62 16.02 31.94 13.37 30.26 11.49 27.94 11.97 29.47 12.4 31.07 12.62 33.12 13.32 39.67 13.12 44.79 15.23 51.03 16.3 54.2 17.77 57.29 19.67 60.05 19.78 59.47 19.91 58.91 20.09 58.35 20.73 56.32 21.95 54.39 23.81 53.35 25.7 52.3 28.15 52.16 29.59 50.56Z" fill="#A2582E" fill-rule="evenodd" clip-rule="evenodd"/><path d="M26.48 66.88C28.11 67.97 29.93 68.88 31.1 70.45 31.74 71.31 32.12 72.29 32.33 73.32 32.28 69.26 30.79 65.22 28.15 62.13 25.44 58.96 21.55 56.85 17.43 56.23 19.57 60.46 22.55 64.26 26.48 66.88Z" fill="#D7914C" fill-rule="evenodd" clip-rule="evenodd"/><g><path d="M19.32 17.96C19.01 17.35 19.07 16.62 18.91 15.96 18.72 15.16 18.19 14.45 17.48 14.04 16.77 13.63 15.89 13.53 15.1 13.77 13.66 14.2 12.7 15.65 11.27 16.09 11.33 16.72 11.82 17.22 12.29 17.65 12.86 18.18 13.45 18.72 14.11 19.12 14.78 19.53 15.55 19.8 16.33 19.76 17.39 19.7 18.33 19.09 19.21 18.5 19.29 18.45 19.37 18.07 19.32 17.96Z" fill="#D7914C" fill-rule="evenodd" clip-rule="evenodd"/><path d="M18.67 17.95C18.63 18.29 17.34 19.02 15.71 19.02 14.07 19.02 12.79 17.31 12.75 16.63 12.71 15.96 14.08 14.24 15.71 14.24 17.34 14.24 18.67 15.96 18.67 17.95Z" fill="#844B2A" fill-rule="evenodd" clip-rule="evenodd"/><path d="M18.25 17.83C18.22 18.13 17.16 18.77 15.82 18.77 14.48 18.77 13.42 17.26 13.39 16.66 13.35 16.07 14.48 14.55 15.82 14.55 17.16 14.56 18.25 16.08 18.25 17.83Z" fill="#FFAA5F" fill-rule="evenodd" clip-rule="evenodd"/><path d="M17.53 16.6C17.53 17.47 16.85 18.17 16.02 18.17 15.18 18.17 14.51 17.47 14.51 16.6 14.51 15.73 15.19 15.03 16.02 15.03 16.86 15.03 17.53 15.73 17.53 16.6Z" fill-rule="evenodd" clip-rule="evenodd"/><path d="M16.96 16.71C16.96 17 16.75 17.23 16.49 17.23 16.23 17.23 16.02 17 16.02 16.71 16.02 16.42 16.23 16.19 16.49 16.19 16.75 16.19 16.96 16.42 16.96 16.71Z" fill="#FFFFFF" fill-rule="evenodd" clip-rule="evenodd"/></g><g><path d="M23.51 19.17C24.19 19.44 24.62 20.13 25.28 20.43 26.14 20.82 27.13 20.46 27.99 20.08 29.27 19.51 30.51 18.86 31.72 18.15 32.3 17.81 30.97 15.77 30 15.22 29.03 14.67 27.99 14.17 26.87 14.12 25.76 14.07 24.55 14.57 24.07 15.58 23.7 16.36 23.78 17.33 23.25 18.01 23.07 18.24 23.27 19.08 23.51 19.17Z" fill="#D7914C" fill-rule="evenodd" clip-rule="evenodd"/><path d="M23.67 17.96C23.62 18.3 24.68 19.34 26.26 19.72 27.83 20.11 29.49 18.71 29.69 18.05 29.9 17.39 29 15.36 27.43 14.98 25.85 14.59 24.16 15.98 23.67 17.96Z" fill="#844B2A" fill-rule="evenodd" clip-rule="evenodd"/><path d="M24.02 17.91C23.98 18.21 24.85 19.09 26.15 19.41 27.45 19.73 28.83 18.51 29.01 17.94 29.19 17.37 28.46 15.63 27.16 15.31 25.86 14.99 24.44 16.2 24.02 17.91Z" fill="#FFAA5F" fill-rule="evenodd" clip-rule="evenodd"/><path d="M28.27 17.29C28.27 18.16 27.59 18.86 26.76 18.86 25.92 18.86 25.25 18.16 25.25 17.29 25.25 16.42 25.93 15.72 26.76 15.72 27.6 15.72 28.27 16.42 28.27 17.29Z" fill-rule="evenodd" clip-rule="evenodd"/><path d="M27.7 17.4C27.7 17.69 27.49 17.92 27.23 17.92 26.97 17.92 26.76 17.69 26.76 17.4 26.76 17.11 26.97 16.88 27.23 16.88 27.49 16.87 27.7 17.11 27.7 17.4Z" fill="#FFFFFF" fill-rule="evenodd" clip-rule="evenodd"/></g><g><path d="M31.47 4.44C30.26 6.13 29.3 8.01 28.64 9.98 28.46 10.51 28.3 11.08 28.41 11.64 28.56 12.42 29.21 13.01 29.83 13.5 30.66 14.15 31.53 14.76 32.43 15.31 32.71 15.48 33.07 15.65 33.35 15.49 33.56 15.37 33.64 15.11 33.69 14.87 34.56 11.23 34.45 7.44 34.33 3.7 34.32 3.38 34.29 3.01 34.02 2.83 33.79 2.67 33.47 2.72 33.21 2.83 32.47 3.14 31.94 3.79 31.47 4.44Z" fill="#F39E83" fill-rule="evenodd" clip-rule="evenodd"/><path d="M11.13 14.79C10.95 14.95 10.76 15.11 10.54 15.2 10.31 15.29 10.04 15.29 9.85 15.14 9.67 15 9.63 10.87 9.79 7.25 9.9 4.84 10.72 1.27 11.37 0.51 12.02-0.25 13.49 2.35 14 3.48 14.78 5.23 15.46 7.02 16.03 8.85 16.17 9.28 16.29 9.75 16.13 10.17 16.01 10.47 15.76 10.7 15.52 10.91 14.06 12.2 12.59 13.49 11.13 14.79Z" fill="#F39E83" fill-rule="evenodd" clip-rule="evenodd"/></g><g><path d="M21.6 28.8C21.01 29.11 20.31 29.22 19.65 29.1 18.99 28.98 18.38 28.63 17.93 28.13 17.24 27.35 17.01 26.27 16.54 25.34 17.89 25.11 19.22 24.73 20.59 24.66 21.96 24.58 23.41 24.84 24.46 25.73 24.1 26.19 23.73 26.65 23.37 27.11 22.86 27.75 22.33 28.41 21.6 28.8Z" fill="#FFFFFF" fill-rule="evenodd" clip-rule="evenodd"/><path d="M20.58 26.46C21.15 26.53 21.68 26.76 22.23 26.92 22.6 27.03 23.73 26.64 23.92 26.41 23.92 26.25 23.92 26.09 23.92 25.92 21.73 24.87 19.02 24.99 16.93 26.23 16.94 26.24 16.94 26.26 16.95 26.27 17.48 26.56 18.12 26.58 18.72 26.54 19.34 26.49 19.97 26.38 20.58 26.46Z" fill="#E8D1D3" fill-rule="evenodd" clip-rule="evenodd"/><path d="M19.19 21.48C19.63 21.71 20.23 21.79 20.71 21.9 21.45 22.07 22.2 21.76 22.93 21.59 23.79 21.39 24.73 21.38 25.54 21.73 27.04 22.38 27.07 24.33 25.78 25.69 25.34 26.16 24.6 26.21 23.97 26.34 23.34 26.47 22.87 26.44 22.28 26.18 21.89 26.01 21.54 25.72 21.17 25.52 20.79 25.32 20.37 25.35 19.97 25.5 19.64 25.63 19.19 25.84 18.9 26.04 18.42 26.37 17.79 26.44 17.23 26.31 16.66 26.18 16.16 25.86 15.72 25.47 15.26 25.06 14.86 24.55 14.7 23.95 14.42 22.85 15.09 21.64 16.11 21.13 17.12 20.62 18.18 20.96 19.19 21.48Z" fill="#FFFFFF" fill-rule="evenodd" clip-rule="evenodd"/><path d="M23.28 26.2C22.77 26.43 22.18 25.91 21.78 25.66 21.47 25.46 21.15 25.32 20.78 25.28 20.77 24.71 20.76 24.15 20.74 23.58 20.74 23.44 20.28 23.53 20.29 23.7 20.3 24.24 20.31 24.77 20.32 25.31 19.49 25.51 18.67 26.39 17.91 25.87 17.8 25.79 17.4 25.97 17.48 26.03 17.88 26.3 18.28 26.32 18.73 26.19 19.29 26.02 19.79 25.53 20.37 25.49 20.54 25.46 20.65 25.5 20.71 25.51 21.26 25.64 21.7 26.09 22.21 26.33 22.65 26.54 23.11 26.47 23.54 26.28 23.82 26.16 23.39 26.15 23.28 26.2Z" fill="#9E9E9E"/></g><g><path d="M20.49 23.93C21.03 23.97 22.76 22.56 22.83 21.88 22.9 21.2 22 20.55 21.1 20.47 20.2 20.4 18.36 20.47 18.43 21.41 18.51 22.35 19.95 23.9 20.49 23.93Z" fill="#703518" fill-rule="evenodd" clip-rule="evenodd"/><path d="M22.49 21.98C21.48 23.53 19.76 23.16 18.64 22.07 19.07 22.94 20.06 23.9 20.48 23.93 21.02 23.97 22.75 22.56 22.82 21.88 22.83 21.74 22.81 21.6 22.75 21.47 22.66 21.64 22.55 21.81 22.49 21.98Z" fill="#56250F" fill-rule="evenodd" clip-rule="evenodd"/><path d="M19.35 21.01C19.4 21.14 19.58 21.16 19.72 21.16 20.37 21.15 21.02 21.14 21.66 21.12 21.67 21.01 21.6 20.91 21.51 20.84 21.42 20.78 21.31 20.75 21.2 20.73 20.73 20.64 20.25 20.61 19.77 20.64 19.66 20.65 19.55 20.66 19.46 20.72 19.37 20.79 19.31 20.9 19.35 21.01Z" fill="#844B2A" fill-rule="evenodd" clip-rule="evenodd"/></g><g><path d="M39.57 26.36C39.43 26.26 39.28 26.16 39.12 26.04 39.04 25.98 38.96 25.93 38.87 25.87 38.78 25.82 38.7 25.76 38.61 25.7 38.43 25.59 38.25 25.47 38.06 25.35 37.87 25.24 37.67 25.13 37.48 25.02 37.38 24.97 37.28 24.91 37.19 24.86L37.04 24.78 36.89 24.71C36.69 24.61 36.5 24.52 36.31 24.42 36.22 24.37 36.12 24.33 36.03 24.28 35.94 24.24 35.85 24.2 35.76 24.16 35.58 24.08 35.41 24.01 35.26 23.94 34.51 23.63 33.83 23.38 33.14 23.17 32.8 23.05 32.45 22.97 32.09 22.87 31.73 22.77 31.36 22.7 30.96 22.61 30.56 22.52 30.1 22.46 29.62 22.39 29.56 22.38 29.5 22.37 29.44 22.36 29.38 22.35 29.32 22.35 29.26 22.34 29.14 22.33 29.01 22.32 28.89 22.3 28.76 22.29 28.64 22.28 28.51 22.26L28.32 22.24 28.13 22.23C27.88 22.22 27.62 22.21 27.37 22.2 27.31 22.2 27.24 22.19 27.18 22.19 27.12 22.19 27.05 22.19 26.99 22.19 26.87 22.19 26.74 22.19 26.62 22.19 26.38 22.19 26.14 22.19 25.91 22.2 25.68 22.21 25.47 22.22 25.26 22.23 24.94 22.23 24.14 22.34 23.83 22.37 23.66 22.39 23.72 22.4 23.97 22.4 24.09 22.4 24.26 22.39 24.47 22.38 24.57 22.37 24.69 22.37 24.81 22.36 24.93 22.35 25.07 22.35 25.21 22.34 25.37 22.34 25.55 22.33 25.73 22.32 25.82 22.32 25.92 22.32 26.02 22.31 26.12 22.31 26.22 22.31 26.33 22.32 26.54 22.32 26.76 22.33 26.99 22.33 27.05 22.33 27.11 22.33 27.16 22.33 27.22 22.33 27.28 22.34 27.34 22.34 27.46 22.35 27.58 22.35 27.71 22.36 28.71 22.41 29.69 22.51 30.83 22.73 31.58 22.88 32.36 23.08 33.12 23.32 33.5 23.44 33.87 23.56 34.23 23.7 34.59 23.84 34.94 23.96 35.25 24.1 35.49 24.21 35.76 24.31 36.04 24.44 36.32 24.57 36.61 24.71 36.9 24.85 37.19 25 37.48 25.16 37.77 25.31 37.84 25.35 37.91 25.39 37.99 25.43 38.06 25.47 38.13 25.51 38.2 25.56 38.34 25.64 38.48 25.72 38.61 25.81 38.74 25.89 38.88 25.97 39 26.05 39.12 26.13 39.24 26.21 39.36 26.29 39.59 26.45 39.81 26.58 39.99 26.72 40.36 26.99 40.62 27.19 40.73 27.28 40.86 27.38 40.84 27.35 40.66 27.18 40.57 27.1 40.43 26.98 40.26 26.83 40.17 26.76 40.07 26.67 39.96 26.58 39.83 26.56 39.71 26.46 39.57 26.36Z" fill="#FFFFFF" fill-rule="evenodd" clip-rule="evenodd"/><path d="M36.78 28.62C36.67 28.52 36.55 28.42 36.43 28.31 36.31 28.2 36.16 28.09 36.02 27.98 35.88 27.87 35.73 27.75 35.58 27.63 35.43 27.52 35.27 27.41 35.11 27.29 34.8 27.06 34.47 26.85 34.16 26.66 34.08 26.61 34.01 26.56 33.93 26.52 33.85 26.48 33.78 26.43 33.71 26.39 33.56 26.31 33.43 26.23 33.3 26.15 32.69 25.81 32.13 25.54 31.56 25.29 31.28 25.16 30.99 25.05 30.69 24.93 30.39 24.81 30.08 24.71 29.75 24.6 29.42 24.48 29.03 24.39 28.62 24.28 28.57 24.27 28.52 24.25 28.47 24.24 28.42 24.23 28.37 24.22 28.31 24.21 28.21 24.19 28.1 24.17 27.99 24.14 27.88 24.12 27.78 24.09 27.67 24.07L27.51 24.04 27.35 24.01C26.92 23.94 26.48 23.87 26.06 23.83 25.85 23.81 25.65 23.78 25.46 23.77 25.26 23.76 25.08 23.74 24.9 23.73 24.63 23.7 23.93 23.71 23.66 23.7 23.51 23.7 23.56 23.72 23.77 23.74 23.87 23.75 24.02 23.77 24.2 23.78 24.29 23.79 24.39 23.79 24.49 23.8 24.6 23.8 24.71 23.82 24.83 23.83 24.97 23.84 25.12 23.86 25.28 23.87 25.36 23.88 25.44 23.89 25.53 23.89 25.61 23.9 25.7 23.91 25.79 23.93 25.97 23.96 26.16 23.98 26.35 24.01 26.45 24.02 26.55 24.04 26.65 24.06 26.75 24.08 26.86 24.1 26.96 24.12 27.81 24.26 28.64 24.44 29.59 24.74 30.21 24.94 30.87 25.19 31.49 25.47 31.8 25.61 32.11 25.75 32.4 25.9 32.69 26.05 32.98 26.19 33.24 26.34 33.44 26.45 33.66 26.57 33.89 26.71 34.11 26.85 34.35 26.99 34.59 27.14 34.83 27.29 35.06 27.46 35.3 27.61 35.36 27.65 35.42 27.69 35.48 27.73 35.54 27.77 35.59 27.81 35.65 27.86 35.76 27.94 35.87 28.03 35.98 28.11 36.09 28.19 36.2 28.27 36.3 28.35 36.4 28.43 36.5 28.51 36.59 28.59 36.77 28.75 36.95 28.88 37.1 29.01 37.39 29.28 37.6 29.47 37.69 29.55 37.79 29.65 37.78 29.62 37.64 29.46 37.57 29.38 37.47 29.27 37.33 29.13 37.26 29.06 37.18 28.98 37.1 28.89 36.99 28.81 36.89 28.72 36.78 28.62Z" fill="#FFFFFF" fill-rule="evenodd" clip-rule="evenodd"/><path d="M31.98 29.9C31.84 29.73 31.67 29.54 31.48 29.35 31.39 29.25 31.29 29.15 31.19 29.05 31.09 28.95 30.98 28.85 30.88 28.75 30.47 28.35 30.03 27.97 29.69 27.69 28.88 27.04 28.21 26.56 27.32 26.03 27.1 25.89 26.83 25.76 26.56 25.61 26.42 25.53 26.28 25.47 26.13 25.4 25.98 25.33 25.84 25.25 25.69 25.19 25.39 25.06 25.09 24.92 24.8 24.81 24.65 24.75 24.51 24.69 24.38 24.64 24.24 24.59 24.11 24.54 23.99 24.5 23.8 24.42 23.3 24.28 23.11 24.22 23.01 24.19 23.04 24.22 23.18 24.29 23.25 24.32 23.35 24.37 23.47 24.42 23.59 24.47 23.74 24.53 23.91 24.59 24.3 24.74 24.8 24.96 25.38 25.23 25.97 25.5 26.54 25.77 27.18 26.14 28.02 26.64 28.91 27.3 29.61 27.87 30.15 28.3 30.85 28.91 31.42 29.48 31.49 29.55 31.56 29.62 31.63 29.69 31.7 29.76 31.76 29.83 31.82 29.89 31.94 30.02 32.06 30.14 32.16 30.25 32.35 30.47 32.5 30.63 32.55 30.7 32.62 30.78 32.62 30.75 32.53 30.62 32.49 30.55 32.42 30.46 32.33 30.34 32.28 30.28 32.23 30.22 32.18 30.14 32.12 30.06 32.05 29.99 31.98 29.9Z" fill="#FFFFFF" fill-rule="evenodd" clip-rule="evenodd"/><path d="M2.06 26.23C2.19 26.14 2.34 26.04 2.49 25.93 2.57 25.88 2.65 25.83 2.73 25.77 2.81 25.72 2.9 25.67 2.98 25.61 3.15 25.5 3.33 25.4 3.51 25.28 3.69 25.18 3.88 25.08 4.07 24.97 4.16 24.92 4.26 24.87 4.35 24.82L4.49 24.74 4.63 24.67C4.81 24.6 5 24.51 5.18 24.42 5.27 24.38 5.36 24.33 5.45 24.29 5.54 24.25 5.63 24.21 5.71 24.18 5.88 24.11 6.04 24.04 6.19 23.98 6.9 23.69 7.55 23.46 8.21 23.26 8.54 23.15 8.87 23.08 9.21 22.99 9.55 22.89 9.91 22.83 10.29 22.75 10.67 22.66 11.1 22.61 11.56 22.53 11.62 22.52 11.67 22.51 11.73 22.5 11.79 22.49 11.85 22.49 11.91 22.48 12.03 22.47 12.15 22.45 12.27 22.44 12.39 22.43 12.51 22.41 12.63 22.4L12.81 22.38 12.99 22.37C13.23 22.35 13.48 22.34 13.72 22.32 13.78 22.32 13.84 22.31 13.9 22.31 13.96 22.31 14.02 22.31 14.08 22.31 14.2 22.31 14.32 22.31 14.43 22.31 14.66 22.31 14.89 22.3 15.1 22.31 15.32 22.32 15.52 22.33 15.72 22.34 16.02 22.34 16.79 22.43 17.09 22.45 17.25 22.47 17.2 22.44 16.97 22.4 16.86 22.38 16.7 22.35 16.5 22.32 16.4 22.31 16.29 22.29 16.17 22.27 16.05 22.25 15.92 22.25 15.79 22.24 15.63 22.23 15.47 22.22 15.29 22.2 15.2 22.19 15.11 22.19 15.01 22.18 14.91 22.18 14.82 22.18 14.71 22.17 14.51 22.17 14.29 22.16 14.07 22.16 14.01 22.16 13.96 22.16 13.9 22.16 13.84 22.16 13.79 22.16 13.73 22.17 13.61 22.18 13.49 22.18 13.37 22.19 12.4 22.23 11.46 22.37 10.36 22.58 9.64 22.72 8.88 22.89 8.14 23.11 7.77 23.22 7.41 23.33 7.06 23.46 6.71 23.59 6.37 23.7 6.07 23.84 5.83 23.94 5.57 24.05 5.31 24.18 5.05 24.31 4.77 24.45 4.49 24.6 4.21 24.75 3.94 24.92 3.66 25.07 3.59 25.11 3.52 25.15 3.45 25.19 3.38 25.23 3.32 25.28 3.25 25.32 3.12 25.41 2.99 25.49 2.86 25.57 2.73 25.65 2.61 25.73 2.49 25.82 2.37 25.91 2.26 25.99 2.15 26.07 1.93 26.23 1.73 26.37 1.56 26.51 1.22 26.79 0.97 26.99 0.87 27.07 0.75 27.17 0.78 27.16 0.98 27.03 1.08 26.96 1.22 26.87 1.39 26.73 1.48 26.66 1.58 26.59 1.69 26.51 1.8 26.41 1.92 26.32 2.06 26.23Z" fill="#FFFFFF" fill-rule="evenodd" clip-rule="evenodd"/><path d="M1.33 30.23C1.61 30.03 1.93 29.79 2.29 29.56 2.47 29.44 2.65 29.32 2.83 29.19 3.02 29.07 3.21 28.95 3.4 28.83 4.16 28.34 4.96 27.9 5.56 27.58 6.28 27.2 6.94 26.88 7.6 26.58 7.93 26.42 8.27 26.29 8.61 26.14 8.95 25.99 9.32 25.86 9.7 25.71 10.08 25.55 10.52 25.41 10.99 25.24 11.22 25.15 11.46 25.09 11.7 25 11.94 24.92 12.19 24.84 12.43 24.77 12.93 24.63 13.42 24.48 13.9 24.37 14.14 24.31 14.37 24.25 14.59 24.2 14.81 24.15 15.03 24.11 15.23 24.07 15.54 24 16.35 23.86 16.66 23.8 16.83 23.77 16.77 23.76 16.52 23.78 16.4 23.79 16.23 23.81 16.01 23.83 15.8 23.86 15.55 23.89 15.26 23.95 15.1 23.98 14.92 24.01 14.73 24.05 14.64 24.07 14.54 24.08 14.44 24.1 14.34 24.12 14.24 24.14 14.14 24.17 13.72 24.26 13.26 24.36 12.77 24.5 11.78 24.76 10.84 25.1 9.73 25.51 9 25.78 8.23 26.09 7.49 26.42 7.12 26.59 6.75 26.75 6.4 26.93 6.05 27.1 5.71 27.27 5.4 27.44 5.16 27.57 4.9 27.71 4.63 27.87 4.36 28.03 4.08 28.2 3.8 28.37 3.24 28.73 2.66 29.11 2.15 29.49 2.02 29.58 1.89 29.67 1.77 29.76 1.65 29.85 1.53 29.94 1.42 30.03 1.19 30.2 0.98 30.36 0.8 30.51 0.44 30.8 0.18 31.02 0.07 31.11-0.06 31.21-0.02 31.2 0.18 31.06 0.28 30.99 0.43 30.89 0.62 30.75 0.71 30.68 0.82 30.6 0.93 30.51 1.06 30.42 1.19 30.33 1.33 30.23Z" fill="#FFFFFF" fill-rule="evenodd" clip-rule="evenodd"/><path d="M5.53 32.52C5.62 32.4 5.72 32.28 5.82 32.14 5.92 32 6.04 31.87 6.16 31.73 6.28 31.59 6.4 31.44 6.52 31.3 6.65 31.16 6.78 31.01 6.91 30.87 7.17 30.58 7.45 30.31 7.71 30.05 7.77 29.99 7.84 29.92 7.9 29.86 7.97 29.8 8.03 29.74 8.09 29.68 8.21 29.57 8.33 29.46 8.44 29.36 8.96 28.89 9.45 28.49 9.95 28.11 10.19 27.91 10.46 27.74 10.72 27.55 10.98 27.36 11.26 27.18 11.56 26.99 11.85 26.79 12.2 26.59 12.56 26.37 12.65 26.31 12.74 26.26 12.84 26.21 12.93 26.16 13.03 26.11 13.13 26.05 13.23 26 13.32 25.94 13.42 25.89 13.52 25.84 13.61 25.78 13.71 25.74 14.11 25.54 14.5 25.34 14.89 25.18 15.08 25.1 15.27 25.01 15.45 24.94 15.63 24.87 15.81 24.8 15.98 24.74 16.23 24.63 16.9 24.41 17.16 24.33 17.3 24.28 17.25 24.28 17.04 24.33 16.94 24.35 16.79 24.39 16.61 24.44 16.43 24.49 16.22 24.55 15.99 24.64 15.86 24.69 15.71 24.74 15.56 24.79 15.48 24.82 15.4 24.85 15.32 24.87 15.24 24.9 15.16 24.94 15.07 24.97 14.9 25.04 14.72 25.11 14.53 25.19 14.34 25.26 14.15 25.36 13.95 25.45 13.15 25.82 12.4 26.27 11.54 26.81 10.97 27.17 10.38 27.57 9.82 27.99 9.54 28.2 9.26 28.41 9.01 28.63 8.75 28.85 8.5 29.05 8.28 29.27 8.11 29.43 7.92 29.6 7.73 29.79 7.54 29.98 7.35 30.19 7.15 30.39 6.95 30.6 6.77 30.83 6.57 31.04 6.52 31.09 6.47 31.15 6.43 31.2 6.39 31.26 6.34 31.31 6.3 31.37 6.21 31.48 6.12 31.59 6.04 31.7 5.95 31.81 5.87 31.91 5.79 32.02 5.71 32.13 5.64 32.23 5.57 32.33 5.43 32.53 5.29 32.71 5.18 32.88 4.96 33.22 4.8 33.46 4.73 33.56 4.65 33.68 4.68 33.66 4.81 33.49 4.88 33.41 4.97 33.28 5.09 33.12 5.15 33.04 5.22 32.95 5.29 32.85 5.35 32.75 5.44 32.64 5.53 32.52Z" fill="#FFFFFF" fill-rule="evenodd" clip-rule="evenodd"/></g><path d="M61.84 62.12C58.54 61.9 55.05 62.19 52.26 63.96 50.4 65.14 48.93 67.01 48.49 69.17 48.05 71.33 48.74 73.75 50.43 75.15 51.78 76.26 53.56 76.66 55.09 77.51 58.37 79.35 60.16 83.13 63.32 85.16 65.94 86.84 69.19 87.13 72.3 87.37 74.69 87.56 77.4 87.63 79.12 85.96 80.18 84.93 80.64 83.38 80.64 81.9 80.64 80.42 80.24 78.96 79.8 77.55 78.54 73.42 76.89 69.19 73.65 66.33 70.45 63.52 66.08 62.4 61.84 62.12Z" fill="#AE6C3E"/><path d="M46.61 61.41C48.78 58.01 50.89 54.18 50.38 50.19 49.92 46.58 47.12 43.38 43.6 42.45 42.05 42.04 40.33 42.06 38.92 42.82 36.78 43.98 35.81 46.59 35.76 49.02 35.71 51.45 36.4 53.83 36.75 56.23 37.18 59.18 37.09 62.21 36.49 65.14 36.15 66.77 35.78 68.77 37.07 69.83 37.95 70.55 39.29 70.43 40.27 69.85 41.25 69.27 41.94 68.32 42.6 67.39 43.98 65.42 45.32 63.43 46.61 61.41Z" fill="#AE6C3E" fill-rule="evenodd" clip-rule="evenodd"/></g></svg>