<svg width="78.52" height="100" viewBox="0 0 78.52 100" xmlns="http://www.w3.org/2000/svg" xmlns:xlink="http://www.w3.org/1999/xlink" xml:space="preserve" overflow="hidden"><defs></defs><g><g><path d="M24.52 92.3C24.52 92.3 23.99 89.64 22.99 89.11 21.99 88.58 21.63 88.24 22.53 87.48 23.43 86.71 24.36 86.48 25.06 87.38 25.76 88.28 26.09 90.71 26.09 90.71 26.09 90.71 25.89 91.71 24.52 92.3Z" fill="#DC7A1F"/><g opacity="0.5"><path d="M25.64 88.67C25.83 90.4 24.96 91.32 24.79 90.55 24.59 89.63 24.46 88.97 23.01 88.08 22.62 87.84 22.54 87.6 22.63 87.38 22.59 87.41 22.55 87.44 22.51 87.47 21.61 88.24 21.98 88.57 22.97 89.1 23.97 89.63 24.5 92.29 24.5 92.29 25.86 91.7 26.06 90.69 26.06 90.69 26.06 90.69 25.94 89.66 25.64 88.67Z" fill="#DC7A1F"/></g><path d="M30.18 83.05C30.18 83.05 28.62 86.61 28.55 89.74 31.45 87.78 32.78 87.04 35.64 87.94 37.3 88.44 37.63 89.24 36.4 89.47 35.17 89.7 32.84 90.07 31.54 91.73 34.34 90.86 38.03 90.57 39.03 91.73 40.03 92.89 39.39 94.19 36.9 93.73 34.4 93.27 31.84 93.2 29.58 94.23 27.32 95.26 26.65 95.73 25.32 95.69 23.99 95.66 22.36 95.76 20.89 96.92 19.86 97.78 19.19 97.32 19.83 95.89 20.46 94.46 22.16 92.93 24.52 92.13 25.62 91.63 25.89 91.26 25.95 89.7 26.01 88.14 26.61 84.44 27.45 82.74 28.28 82.42 29.55 82.25 30.18 83.05Z" fill="#FBA31D"/><g opacity="0.5"><path d="M20.44 94.89C20.44 94.89 20.58 94.85 20.8 94.87 20.91 94.88 21.04 94.9 21.17 94.94 21.23 94.97 21.3 94.99 21.37 95.02 21.44 95.06 21.5 95.09 21.56 95.14 21.62 95.18 21.67 95.24 21.73 95.29 21.79 95.34 21.82 95.41 21.86 95.47 21.9 95.53 21.93 95.59 21.96 95.64 21.99 95.7 22 95.76 22.02 95.81 22.04 95.86 22.05 95.91 22.06 95.95 22.07 95.99 22.07 96.03 22.08 96.06 22.08 96.13 22.09 96.16 22.09 96.16 22.09 96.16 22.08 96.13 22.05 96.07 22.04 96.04 22.03 96.01 22.01 95.97 22 95.93 21.97 95.89 21.94 95.84 21.92 95.8 21.9 95.74 21.86 95.69 21.83 95.64 21.8 95.59 21.76 95.54 21.72 95.49 21.68 95.44 21.63 95.39 21.58 95.35 21.53 95.3 21.48 95.26 21.43 95.22 21.37 95.18 21.31 95.15 21.25 95.11 21.19 95.09 21.14 95.06 21.08 95.04 21.02 95.01 20.96 94.99 20.9 94.97 20.85 94.95 20.8 94.94 20.58 94.9 20.44 94.89 20.44 94.89Z" fill="#CE7B0D"/><path d="M22.06 93.37C22.06 93.37 22.12 93.35 22.22 93.35 22.27 93.35 22.33 93.34 22.41 93.35 22.48 93.35 22.57 93.35 22.66 93.37 22.75 93.38 22.85 93.41 22.95 93.43 23.05 93.46 23.16 93.49 23.26 93.55 23.37 93.59 23.47 93.66 23.57 93.73 23.67 93.8 23.76 93.88 23.85 93.96 23.93 94.05 24.02 94.14 24.09 94.24 24.16 94.34 24.23 94.44 24.28 94.54 24.33 94.64 24.38 94.74 24.43 94.83 24.46 94.93 24.5 95.02 24.53 95.11 24.54 95.15 24.56 95.19 24.57 95.23 24.58 95.27 24.59 95.31 24.59 95.34 24.6 95.41 24.62 95.47 24.63 95.52 24.65 95.62 24.66 95.68 24.66 95.68 24.66 95.68 24.64 95.62 24.6 95.53 24.58 95.49 24.56 95.42 24.53 95.36 24.51 95.29 24.47 95.22 24.43 95.14 24.39 95.06 24.35 94.97 24.31 94.88 24.26 94.79 24.21 94.71 24.15 94.61 24.1 94.51 24.02 94.43 23.96 94.33 23.89 94.24 23.8 94.16 23.73 94.07 23.65 93.99 23.56 93.92 23.47 93.85 23.38 93.79 23.29 93.72 23.19 93.67 23.1 93.61 23 93.58 22.91 93.54 22.81 93.51 22.73 93.47 22.64 93.45 22.47 93.4 22.32 93.38 22.22 93.38 22.12 93.37 22.06 93.37 22.06 93.37Z" fill="#CE7B0D"/><path d="M24.64 92.02C24.64 92.02 24.71 92.03 24.82 92.06 24.88 92.08 24.94 92.1 25.02 92.14 25.1 92.17 25.18 92.21 25.27 92.26 25.36 92.3 25.45 92.37 25.56 92.43 25.66 92.5 25.76 92.57 25.85 92.66 25.9 92.7 25.95 92.75 26 92.79 26.04 92.83 26.09 92.88 26.14 92.94 26.24 93.04 26.31 93.15 26.4 93.26 26.48 93.38 26.55 93.5 26.62 93.61 26.68 93.73 26.74 93.85 26.79 93.97 26.83 94.09 26.87 94.21 26.91 94.32 26.95 94.43 26.96 94.54 26.99 94.65 27.01 94.75 27.03 94.84 27.04 94.92 27.05 95.01 27.06 95.07 27.06 95.14 27.07 95.26 27.07 95.32 27.07 95.32 27.07 95.32 27.06 95.26 27.03 95.14 27.02 95.08 27 95.01 26.98 94.93 26.96 94.85 26.93 94.76 26.9 94.67 26.87 94.58 26.84 94.47 26.8 94.36 26.76 94.25 26.71 94.14 26.66 94.03 26.6 93.92 26.54 93.81 26.49 93.69 26.42 93.58 26.35 93.47 26.28 93.36 26.2 93.26 26.13 93.14 26.04 93.05 26 93 25.95 92.95 25.91 92.9 25.87 92.86 25.82 92.81 25.78 92.77 25.69 92.68 25.6 92.61 25.51 92.53 25.42 92.47 25.33 92.4 25.25 92.34 25.08 92.23 24.93 92.15 24.83 92.1 24.7 92.05 24.64 92.02 24.64 92.02Z" fill="#CE7B0D"/><path d="M25.65 91.35C25.65 91.35 25.73 91.33 25.86 91.31 25.93 91.31 26.01 91.3 26.11 91.3 26.16 91.3 26.21 91.3 26.26 91.3 26.31 91.3 26.37 91.31 26.43 91.32 26.49 91.32 26.55 91.34 26.61 91.35 26.67 91.37 26.74 91.37 26.81 91.4 26.88 91.42 26.94 91.44 27.01 91.47 27.08 91.49 27.14 91.54 27.21 91.56 27.24 91.58 27.28 91.6 27.31 91.61 27.34 91.63 27.38 91.65 27.41 91.67 27.48 91.71 27.54 91.76 27.61 91.8 27.67 91.86 27.73 91.91 27.79 91.96 27.85 92.01 27.91 92.07 27.96 92.13 28.06 92.26 28.17 92.37 28.24 92.52 28.32 92.65 28.41 92.79 28.46 92.93 28.52 93.07 28.58 93.2 28.62 93.33 28.66 93.46 28.69 93.58 28.73 93.7 28.77 93.81 28.78 93.92 28.79 94.01 28.81 94.11 28.82 94.19 28.83 94.26 28.85 94.39 28.86 94.48 28.86 94.48 28.86 94.48 28.84 94.4 28.8 94.27 28.78 94.21 28.76 94.13 28.74 94.03 28.71 93.94 28.69 93.83 28.64 93.72 28.6 93.61 28.56 93.49 28.51 93.37 28.46 93.24 28.39 93.12 28.33 92.99 28.28 92.86 28.18 92.74 28.11 92.61 28.04 92.47 27.93 92.36 27.84 92.24 27.8 92.18 27.74 92.13 27.68 92.07 27.62 92.02 27.57 91.97 27.51 91.92 27.38 91.84 27.28 91.73 27.15 91.68 27.08 91.65 27.03 91.61 26.96 91.58 26.9 91.56 26.83 91.53 26.77 91.5 26.71 91.47 26.65 91.46 26.59 91.44 26.53 91.42 26.47 91.4 26.41 91.4 26.35 91.39 26.3 91.38 26.25 91.37 26.2 91.36 26.15 91.36 26.1 91.35 26.01 91.34 25.92 91.34 25.86 91.34 25.73 91.35 25.65 91.35 25.65 91.35Z" fill="#CE7B0D"/><path d="M28.82 89.61C28.82 89.61 28.89 89.63 29.01 89.7 29.06 89.74 29.13 89.78 29.21 89.83 29.29 89.88 29.36 89.95 29.45 90.03 29.53 90.11 29.62 90.2 29.7 90.3 29.79 90.4 29.87 90.51 29.94 90.63 30.02 90.75 30.09 90.88 30.16 91.02 30.21 91.16 30.29 91.3 30.33 91.44 30.38 91.58 30.43 91.73 30.46 91.88 30.49 92.03 30.53 92.17 30.54 92.31 30.56 92.45 30.57 92.59 30.58 92.72 30.58 92.85 30.58 92.98 30.59 93.09 30.59 93.14 30.59 93.2 30.59 93.25 30.59 93.3 30.58 93.35 30.58 93.39 30.57 93.48 30.57 93.56 30.56 93.63 30.55 93.76 30.54 93.83 30.54 93.83 30.54 93.83 30.54 93.76 30.53 93.63 30.52 93.5 30.53 93.31 30.5 93.08 30.49 92.97 30.48 92.85 30.47 92.72 30.45 92.59 30.43 92.46 30.4 92.33 30.39 92.19 30.34 92.05 30.31 91.91 30.28 91.77 30.23 91.63 30.18 91.49 30.14 91.34 30.07 91.21 30.02 91.08 29.95 90.95 29.9 90.82 29.82 90.7 29.75 90.58 29.68 90.47 29.6 90.37 29.53 90.26 29.45 90.17 29.38 90.09 29.3 90.01 29.24 89.94 29.17 89.87 29.1 89.81 29.04 89.76 28.99 89.72 28.88 89.65 28.82 89.61 28.82 89.61Z" fill="#CE7B0D"/><path d="M30.59 88.47C30.59 88.47 30.64 88.47 30.73 88.48 30.77 88.48 30.83 88.49 30.89 88.51 30.95 88.53 31.02 88.54 31.09 88.57 31.16 88.59 31.24 88.63 31.32 88.67 31.4 88.71 31.48 88.76 31.56 88.82 31.64 88.87 31.72 88.94 31.79 89.01 31.87 89.08 31.93 89.16 32 89.24 32.06 89.33 32.12 89.41 32.18 89.5 32.23 89.59 32.28 89.68 32.32 89.76 32.35 89.85 32.39 89.94 32.42 90.02 32.45 90.11 32.47 90.19 32.48 90.26 32.5 90.33 32.51 90.41 32.52 90.47 32.53 90.53 32.54 90.58 32.54 90.63 32.55 90.72 32.56 90.77 32.56 90.77 32.56 90.77 32.54 90.72 32.52 90.64 32.51 90.6 32.49 90.55 32.47 90.49 32.45 90.43 32.43 90.37 32.4 90.3 32.37 90.23 32.34 90.15 32.31 90.07 32.27 90 32.23 89.92 32.19 89.83 32.15 89.74 32.09 89.67 32.05 89.58 32 89.5 31.94 89.42 31.88 89.34 31.81 89.27 31.76 89.19 31.68 89.12 31.61 89.05 31.54 88.99 31.47 88.93 31.4 88.87 31.33 88.82 31.26 88.78 31.18 88.74 31.12 88.7 31.05 88.66 30.92 88.59 30.8 88.54 30.72 88.51 30.63 88.48 30.59 88.47 30.59 88.47Z" fill="#CE7B0D"/><path d="M33.58 87.59C33.58 87.59 33.62 87.59 33.7 87.6 33.78 87.61 33.89 87.63 34.02 87.68 34.08 87.7 34.15 87.74 34.22 87.77 34.29 87.81 34.36 87.85 34.43 87.9 34.5 87.95 34.57 88.01 34.63 88.07 34.7 88.14 34.75 88.21 34.81 88.28 34.86 88.36 34.91 88.43 34.96 88.52 35 88.6 35.04 88.68 35.07 88.76 35.1 88.84 35.12 88.92 35.15 89 35.17 89.07 35.18 89.15 35.19 89.22 35.2 89.29 35.21 89.35 35.21 89.4 35.21 89.45 35.21 89.5 35.22 89.54 35.22 89.62 35.22 89.66 35.22 89.66 35.22 89.66 35.21 89.62 35.19 89.54 35.18 89.5 35.17 89.46 35.15 89.4 35.14 89.35 35.12 89.29 35.1 89.23 35.08 89.17 35.06 89.1 35.03 89.03 35 88.96 34.97 88.89 34.94 88.81 34.91 88.73 34.86 88.66 34.82 88.59 34.78 88.52 34.72 88.45 34.68 88.37 34.62 88.31 34.58 88.23 34.51 88.17 34.48 88.14 34.45 88.11 34.42 88.08 34.39 88.05 34.36 88.02 34.33 88 34.27 87.94 34.2 87.9 34.15 87.85 34.08 87.81 34.03 87.77 33.97 87.74 33.85 87.68 33.75 87.63 33.68 87.6 33.62 87.6 33.58 87.59 33.58 87.59Z" fill="#CE7B0D"/><path d="M32.87 91.37C32.87 91.37 33 91.44 33.13 91.61 33.16 91.65 33.2 91.7 33.22 91.75 33.25 91.8 33.28 91.86 33.31 91.92 33.34 91.99 33.36 92.05 33.38 92.12 33.4 92.18 33.41 92.25 33.42 92.33 33.42 92.4 33.43 92.47 33.43 92.54 33.43 92.61 33.43 92.68 33.42 92.74 33.41 92.81 33.4 92.87 33.4 92.93 33.39 92.99 33.37 93.04 33.36 93.1 33.34 93.2 33.3 93.28 33.28 93.34 33.26 93.4 33.24 93.43 33.24 93.43 33.24 93.43 33.24 93.39 33.24 93.33 33.24 93.27 33.26 93.19 33.26 93.09 33.26 93.04 33.27 92.98 33.27 92.93 33.27 92.87 33.27 92.81 33.27 92.75 33.27 92.69 33.27 92.62 33.27 92.56 33.27 92.5 33.26 92.43 33.25 92.36 33.24 92.3 33.23 92.23 33.22 92.17 33.2 92.1 33.2 92.04 33.17 91.98 33.15 91.92 33.13 91.87 33.11 91.81 33.09 91.76 33.07 91.71 33.05 91.66 32.96 91.48 32.87 91.37 32.87 91.37Z" fill="#CE7B0D"/><path d="M34.86 91.05C34.86 91.05 34.9 91.07 34.96 91.12 35.02 91.16 35.1 91.23 35.17 91.34 35.25 91.44 35.33 91.57 35.39 91.71 35.42 91.78 35.45 91.86 35.47 91.94 35.49 92.02 35.51 92.1 35.52 92.18 35.53 92.27 35.54 92.35 35.55 92.43 35.55 92.51 35.56 92.59 35.55 92.67 35.54 92.83 35.52 92.97 35.5 93.09 35.48 93.22 35.44 93.31 35.42 93.38 35.4 93.45 35.38 93.49 35.38 93.49 35.38 93.49 35.38 93.45 35.39 93.38 35.39 93.31 35.4 93.21 35.41 93.09 35.41 93.03 35.41 92.96 35.42 92.89 35.42 92.82 35.42 92.75 35.42 92.67 35.42 92.59 35.41 92.52 35.41 92.43 35.41 92.36 35.39 92.28 35.38 92.2 35.37 92.12 35.35 92.04 35.34 91.96 35.32 91.89 35.3 91.81 35.28 91.74 35.25 91.67 35.23 91.6 35.2 91.54 35.17 91.48 35.14 91.42 35.11 91.37 35.08 91.32 35.05 91.27 35.02 91.23 34.99 91.19 34.96 91.15 34.94 91.12 34.89 91.08 34.86 91.05 34.86 91.05Z" fill="#CE7B0D"/><path d="M36.97 90.98C36.97 90.98 37.01 91.01 37.07 91.07 37.12 91.13 37.21 91.22 37.28 91.34 37.32 91.4 37.36 91.47 37.4 91.54 37.43 91.61 37.47 91.69 37.5 91.78 37.53 91.87 37.56 91.96 37.58 92.05 37.6 92.14 37.61 92.24 37.62 92.33 37.62 92.43 37.62 92.52 37.62 92.62 37.61 92.71 37.6 92.81 37.59 92.9 37.57 92.99 37.55 93.07 37.53 93.15 37.51 93.23 37.48 93.3 37.46 93.37 37.44 93.44 37.41 93.5 37.38 93.55 37.36 93.6 37.33 93.64 37.31 93.68 37.27 93.75 37.25 93.79 37.25 93.79 37.25 93.79 37.26 93.75 37.28 93.66 37.29 93.62 37.3 93.57 37.32 93.52 37.34 93.47 37.35 93.4 37.36 93.34 37.37 93.27 37.39 93.2 37.4 93.12 37.41 93.04 37.42 92.96 37.44 92.87 37.44 92.78 37.45 92.7 37.45 92.61 37.45 92.52 37.45 92.43 37.44 92.34 37.43 92.25 37.43 92.16 37.4 92.08 37.38 91.99 37.37 91.91 37.34 91.82 37.32 91.73 37.29 91.66 37.27 91.58 37.24 91.51 37.22 91.44 37.18 91.38 37.13 91.25 37.07 91.16 37.02 91.09 36.99 91.02 36.97 90.98 36.97 90.98Z" fill="#CE7B0D"/><path d="M24.11 90.8C24.11 90.8 24.15 90.66 24.26 90.47 24.29 90.42 24.32 90.37 24.35 90.32 24.39 90.27 24.42 90.21 24.47 90.16 24.52 90.1 24.56 90.05 24.61 90 24.66 89.94 24.72 89.9 24.78 89.85 24.84 89.81 24.91 89.77 24.97 89.73 25.04 89.7 25.1 89.67 25.17 89.65 25.24 89.63 25.3 89.61 25.37 89.6 25.44 89.6 25.5 89.58 25.55 89.59 25.61 89.6 25.66 89.6 25.7 89.61 25.74 89.62 25.78 89.64 25.81 89.65 25.87 89.67 25.9 89.68 25.9 89.68 25.9 89.68 25.86 89.68 25.8 89.68 25.77 89.68 25.73 89.68 25.69 89.68 25.64 89.68 25.6 89.69 25.55 89.69 25.5 89.69 25.44 89.71 25.39 89.72 25.33 89.73 25.28 89.76 25.21 89.78 25.15 89.8 25.1 89.85 25.03 89.87 24.97 89.9 24.92 89.94 24.86 89.98 24.8 90.02 24.75 90.06 24.7 90.11 24.65 90.16 24.6 90.2 24.56 90.25 24.47 90.34 24.39 90.44 24.32 90.52 24.2 90.68 24.11 90.8 24.11 90.8Z" fill="#CE7B0D"/><path d="M23.2 89.21C23.2 89.21 23.21 89.17 23.22 89.09 23.24 89.02 23.27 88.91 23.32 88.78 23.37 88.66 23.43 88.52 23.52 88.37 23.56 88.3 23.61 88.22 23.67 88.15 23.72 88.08 23.79 88.02 23.85 87.95 23.92 87.89 23.98 87.83 24.06 87.77 24.14 87.73 24.2 87.67 24.29 87.64 24.37 87.61 24.44 87.57 24.52 87.55 24.6 87.53 24.67 87.51 24.74 87.51 24.81 87.51 24.87 87.5 24.92 87.5 24.98 87.51 25.02 87.51 25.06 87.52 25.14 87.53 25.18 87.54 25.18 87.54 25.18 87.54 25.13 87.55 25.06 87.55 25.02 87.55 24.98 87.56 24.92 87.56 24.87 87.57 24.81 87.58 24.75 87.6 24.69 87.61 24.63 87.64 24.56 87.66 24.49 87.68 24.43 87.72 24.36 87.76 24.29 87.79 24.23 87.85 24.16 87.89 24.09 87.94 24.03 88 23.97 88.05 23.92 88.11 23.85 88.17 23.8 88.24 23.75 88.31 23.7 88.37 23.65 88.44 23.56 88.57 23.48 88.7 23.41 88.81 23.35 88.92 23.29 89.02 23.26 89.09 23.21 89.17 23.2 89.21 23.2 89.21Z" fill="#CE7B0D"/><path d="M25.94 90.14C25.94 90.14 25.98 90.16 26.05 90.19 26.12 90.22 26.22 90.25 26.34 90.3 26.4 90.32 26.47 90.34 26.54 90.35 26.61 90.37 26.69 90.39 26.76 90.4 26.84 90.42 26.92 90.42 27 90.43 27.08 90.43 27.16 90.45 27.24 90.44L27.36 90.44C27.4 90.44 27.44 90.43 27.48 90.42 27.56 90.41 27.64 90.4 27.71 90.38 27.79 90.37 27.85 90.34 27.92 90.32 27.99 90.3 28.05 90.27 28.11 90.24 28.17 90.21 28.22 90.19 28.27 90.16 28.31 90.13 28.35 90.1 28.38 90.09 28.44 90.05 28.48 90.03 28.48 90.03 28.48 90.03 28.45 90.06 28.4 90.12 28.37 90.14 28.34 90.18 28.3 90.21 28.26 90.25 28.21 90.28 28.16 90.32 28.13 90.34 28.1 90.36 28.07 90.38 28.04 90.4 28.01 90.41 27.97 90.43 27.9 90.46 27.83 90.5 27.75 90.52 27.67 90.55 27.59 90.58 27.5 90.58 27.45 90.58 27.41 90.59 27.37 90.6L27.24 90.6C27.15 90.61 27.06 90.59 26.97 90.59 26.88 90.58 26.8 90.56 26.72 90.54 26.56 90.5 26.41 90.44 26.3 90.38 26.07 90.26 25.94 90.14 25.94 90.14Z" fill="#CE7B0D"/><path d="M26.14 87.86C26.14 87.86 26.17 87.88 26.24 87.93 26.3 87.97 26.39 88.03 26.5 88.09 26.55 88.12 26.62 88.16 26.68 88.18 26.74 88.21 26.82 88.24 26.89 88.27 26.97 88.29 27.04 88.32 27.12 88.34 27.16 88.35 27.2 88.36 27.24 88.37L27.37 88.38C27.45 88.4 27.53 88.4 27.61 88.4 27.69 88.4 27.77 88.39 27.85 88.39 27.93 88.39 28 88.37 28.07 88.36 28.14 88.35 28.21 88.32 28.27 88.31 28.33 88.29 28.39 88.29 28.44 88.26 28.49 88.24 28.53 88.23 28.57 88.22 28.64 88.2 28.69 88.18 28.69 88.18 28.69 88.18 28.65 88.2 28.59 88.24 28.56 88.26 28.52 88.28 28.47 88.31 28.43 88.34 28.37 88.36 28.31 88.39 28.25 88.41 28.18 88.45 28.11 88.46 28.04 88.48 27.96 88.5 27.88 88.52 27.8 88.53 27.71 88.54 27.62 88.54 27.53 88.54 27.44 88.54 27.36 88.53L27.23 88.51C27.19 88.5 27.14 88.49 27.1 88.47 27.01 88.45 26.93 88.41 26.86 88.38 26.71 88.31 26.57 88.23 26.47 88.15 26.36 88.07 26.29 87.99 26.24 87.93 26.17 87.89 26.14 87.86 26.14 87.86Z" fill="#CE7B0D"/><path d="M26.86 84.31C26.86 84.31 26.9 84.33 26.97 84.37 27.04 84.41 27.14 84.45 27.26 84.51 27.32 84.53 27.39 84.56 27.46 84.59 27.53 84.62 27.61 84.64 27.69 84.67 27.77 84.7 27.85 84.71 27.93 84.74 28.01 84.76 28.1 84.78 28.19 84.8 28.28 84.81 28.36 84.83 28.45 84.83 28.53 84.83 28.62 84.85 28.7 84.83 28.78 84.83 28.86 84.82 28.94 84.81 29.01 84.8 29.09 84.79 29.15 84.77 29.21 84.75 29.27 84.73 29.33 84.72 29.38 84.7 29.42 84.68 29.46 84.66 29.53 84.63 29.58 84.62 29.58 84.62 29.58 84.62 29.54 84.65 29.48 84.69 29.44 84.71 29.41 84.74 29.36 84.77 29.31 84.8 29.25 84.83 29.19 84.86 29.13 84.89 29.06 84.91 28.98 84.93 28.9 84.95 28.82 84.97 28.73 84.98 28.64 84.99 28.55 84.99 28.46 84.99 28.37 84.99 28.28 84.97 28.18 84.97 28 84.93 27.82 84.88 27.66 84.82 27.58 84.79 27.5 84.75 27.43 84.71 27.36 84.68 27.3 84.63 27.24 84.6 27.12 84.52 27.03 84.45 26.97 84.4 26.89 84.34 26.86 84.31 26.86 84.31Z" fill="#CE7B0D"/></g><g><path d="M35.76 88.97C33.59 89.01 31.5 90.38 31.55 91.74 32.85 90.07 35.18 89.71 36.41 89.48 37.24 89.32 37.36 88.91 36.85 88.51 36.73 88.76 36.42 88.96 35.76 88.97Z" fill="#E5880C"/><path d="M39.34 92.2C39.32 92.42 39.15 92.57 38.72 92.6 37.14 92.68 33.05 91.85 30.22 93.1 27.38 94.35 24.93 94.85 23.3 94.93 21.86 95.01 20.1 97.52 19.65 96.4 19.37 97.43 19.99 97.69 20.89 96.93 22.36 95.77 23.99 95.66 25.32 95.7 26.65 95.74 27.32 95.27 29.58 94.24 31.84 93.21 34.4 93.28 36.9 93.74 39.07 94.14 39.83 93.21 39.34 92.2Z" fill="#E5880C"/></g><g opacity="0.5"><path d="M39.03 91.74C38.03 90.58 34.34 90.87 31.54 91.74 32.84 90.07 35.17 89.71 36.4 89.48 37.63 89.25 37.3 88.45 35.64 87.95 32.78 87.05 31.44 87.78 28.55 89.75 28.62 86.62 30.18 83.06 30.18 83.06 29.55 82.26 28.28 82.43 27.45 82.76 27 83.68 26.62 85.16 26.36 86.59L26.37 86.59C26.37 86.59 27.03 83.58 28.18 83.74 29.33 83.89 28.16 86.08 27.86 88.4 27.53 90.9 26.13 91.82 25.94 90 25.85 91.33 25.56 91.69 24.52 92.16 24.01 92.33 23.53 92.54 23.08 92.77 23.64 92.52 24.36 92.26 24.76 92.41 25.46 92.68 24.85 93.32 23.11 94.17 21.53 94.95 20.22 96.6 19.96 95.64 19.91 95.73 19.87 95.82 19.83 95.91 19.2 97.34 19.86 97.81 20.89 96.94 22.36 95.78 23.99 95.67 25.32 95.71 26.65 95.75 27.32 95.28 29.58 94.25 31.84 93.22 34.4 93.29 36.9 93.75 39.4 94.2 40.03 92.9 39.03 91.74Z" fill="#FBA31D"/></g><path d="M23.65 92.74C23.65 92.74 21.79 93.57 20.32 95.43 19.97 95.88 21.15 93.3 23.65 92.74Z" fill="#FBA31D"/></g><g><path d="M48.05 85.47C48.05 85.47 49.16 89.2 50.93 92.29 52.41 94.85 52.21 94.9 50.81 95.9 49.41 96.9 47.92 99.11 48.53 99.87 49.05 100.55 50.78 98.42 53.14 98.27 55.51 98.11 55.79 97.91 56.67 97.59 57.55 97.27 58.51 97.75 60.24 97.91 61.96 98.07 66.54 97.99 68.42 97.79 70.3 97.59 70.99 97.11 70.47 96.23 69.95 95.34 69.67 95.34 67.26 95.3 64.85 95.26 61.04 94.74 61.04 94.74 61.04 94.74 63.12 93.42 64.49 93.62 65.85 93.82 67.94 94.22 68.1 93.5 68.26 92.78 67.14 91.9 64.13 90.93 61.12 89.97 60.36 90.93 58.31 91.97 59.43 90.37 60.32 89.36 59.8 88.8 59.28 88.24 57.87 89.16 56.23 90.56 54.59 91.96 53.66 92.41 53.66 92.41 53.66 92.41 52.14 87.2 51.78 84.99 51.01 84.83 49.1 84.15 48.05 85.47Z" fill="#FBA31D"/><g opacity="0.5"><path d="M49.71 96.97C49.71 96.97 49.75 96.96 49.83 96.95 49.91 96.95 50.02 96.94 50.15 96.96 50.22 96.97 50.29 96.98 50.36 97.01 50.4 97.02 50.43 97.03 50.47 97.05 50.51 97.07 50.55 97.09 50.58 97.1 50.66 97.13 50.73 97.18 50.8 97.23 50.87 97.28 50.94 97.34 51 97.4 51.06 97.47 51.13 97.53 51.17 97.6 51.22 97.67 51.28 97.73 51.31 97.81 51.35 97.88 51.39 97.95 51.42 98.02 51.45 98.09 51.47 98.16 51.5 98.22 51.53 98.28 51.54 98.34 51.55 98.39 51.56 98.44 51.57 98.49 51.58 98.52 51.6 98.59 51.6 98.63 51.6 98.63 51.6 98.63 51.58 98.59 51.55 98.52 51.51 98.45 51.47 98.35 51.41 98.24 51.38 98.18 51.35 98.13 51.31 98.06 51.27 98 51.23 97.94 51.19 97.87 51.15 97.8 51.09 97.74 51.04 97.67 50.99 97.6 50.93 97.55 50.87 97.49 50.82 97.43 50.75 97.38 50.69 97.33 50.62 97.29 50.56 97.23 50.49 97.2 50.46 97.18 50.42 97.16 50.39 97.14 50.36 97.12 50.33 97.11 50.29 97.09 50.23 97.06 50.16 97.04 50.1 97.02 50.04 97 49.98 96.99 49.93 96.97 49.88 96.96 49.83 96.95 49.8 96.95 49.75 96.98 49.71 96.97 49.71 96.97Z" fill="#CE7B0D"/><path d="M51.29 95.56C51.29 95.56 51.35 95.56 51.46 95.57 51.57 95.58 51.72 95.6 51.89 95.65 52.07 95.7 52.27 95.78 52.48 95.89 52.53 95.91 52.58 95.95 52.63 95.98 52.68 96.01 52.74 96.04 52.78 96.09 52.87 96.17 52.97 96.24 53.05 96.34 53.09 96.39 53.14 96.43 53.17 96.48 53.21 96.53 53.24 96.59 53.28 96.63L53.33 96.71C53.34 96.74 53.36 96.77 53.37 96.79 53.39 96.85 53.42 96.9 53.44 96.95 53.49 97.06 53.51 97.17 53.54 97.27 53.58 97.37 53.58 97.47 53.59 97.56 53.6 97.65 53.61 97.73 53.6 97.81 53.6 97.88 53.59 97.95 53.59 98.01 53.58 98.12 53.58 98.18 53.58 98.18 53.58 98.18 53.57 98.11 53.56 98.01 53.56 97.95 53.55 97.89 53.54 97.82 53.54 97.75 53.51 97.67 53.5 97.58 53.48 97.49 53.47 97.4 53.43 97.3 53.41 97.25 53.39 97.2 53.38 97.15 53.36 97.1 53.35 97.05 53.32 97 53.26 96.9 53.23 96.8 53.16 96.71 53.13 96.66 53.09 96.61 53.06 96.57 53.03 96.52 52.98 96.48 52.94 96.44 52.87 96.35 52.78 96.27 52.69 96.2 52.6 96.13 52.51 96.07 52.42 96 52.32 95.94 52.23 95.89 52.14 95.85 52.05 95.8 51.96 95.76 51.88 95.73 51.71 95.67 51.57 95.61 51.47 95.59 51.35 95.57 51.29 95.56 51.29 95.56Z" fill="#CE7B0D"/><path d="M51.28 92.95C51.28 92.95 51.32 92.96 51.39 92.97 51.46 92.98 51.56 92.99 51.67 92.99 51.79 92.99 51.92 92.99 52.07 92.97 52.14 92.97 52.21 92.95 52.29 92.94 52.36 92.93 52.44 92.91 52.51 92.89 52.59 92.87 52.66 92.85 52.73 92.82 52.8 92.8 52.87 92.77 52.94 92.74 53.01 92.71 53.07 92.68 53.13 92.65 53.19 92.62 53.24 92.59 53.29 92.56 53.34 92.53 53.39 92.51 53.43 92.48 53.47 92.46 53.51 92.43 53.53 92.41 53.59 92.37 53.62 92.35 53.62 92.35 53.62 92.35 53.59 92.38 53.55 92.43 53.5 92.47 53.43 92.56 53.34 92.63 53.29 92.67 53.24 92.71 53.18 92.75 53.12 92.78 53.06 92.82 52.99 92.86 52.92 92.89 52.85 92.93 52.77 92.96 52.7 92.98 52.62 93.02 52.54 93.04 52.46 93.06 52.38 93.08 52.3 93.09 52.22 93.1 52.14 93.11 52.06 93.11 51.98 93.11 51.91 93.11 51.84 93.11 51.77 93.1 51.71 93.1 51.64 93.08 51.52 93.06 51.42 93.02 51.36 93 51.32 92.97 51.28 92.95 51.28 92.95Z" fill="#CE7B0D"/><path d="M50.18 90.96C50.18 90.96 50.23 90.96 50.31 90.97 50.39 90.98 50.51 90.98 50.66 90.98 50.8 90.98 50.96 90.98 51.14 90.96 51.23 90.95 51.32 90.94 51.41 90.93 51.5 90.92 51.6 90.91 51.69 90.88 51.78 90.86 51.87 90.84 51.96 90.81 52.05 90.79 52.14 90.76 52.22 90.73 52.3 90.7 52.38 90.67 52.46 90.64 52.54 90.61 52.61 90.58 52.67 90.55 52.73 90.52 52.8 90.5 52.85 90.47 52.9 90.44 52.95 90.42 52.98 90.4 53.05 90.36 53.1 90.34 53.1 90.34 53.1 90.34 53.06 90.37 53 90.43 52.97 90.46 52.93 90.49 52.88 90.53 52.83 90.57 52.78 90.6 52.72 90.64 52.66 90.68 52.59 90.73 52.52 90.76 52.44 90.8 52.37 90.84 52.28 90.87 52.19 90.9 52.11 90.94 52.02 90.97 51.93 90.99 51.83 91.03 51.74 91.04 51.65 91.06 51.55 91.07 51.45 91.08 51.36 91.1 51.26 91.09 51.17 91.1 50.99 91.1 50.82 91.09 50.67 91.07 50.52 91.05 50.41 91.02 50.33 90.99 50.23 90.98 50.18 90.96 50.18 90.96Z" fill="#CE7B0D"/><path d="M49.2 88.76C49.2 88.76 49.25 88.77 49.35 88.79 49.44 88.81 49.58 88.83 49.74 88.86 49.9 88.88 50.09 88.9 50.29 88.91 50.39 88.92 50.49 88.92 50.6 88.92 50.71 88.93 50.81 88.92 50.92 88.92 51.03 88.92 51.13 88.9 51.24 88.89 51.34 88.87 51.45 88.86 51.54 88.84 51.64 88.81 51.73 88.8 51.82 88.76 51.9 88.72 51.99 88.7 52.06 88.67 52.13 88.63 52.19 88.6 52.26 88.57 52.32 88.54 52.36 88.5 52.4 88.47 52.48 88.42 52.53 88.38 52.53 88.38 52.53 88.38 52.49 88.42 52.42 88.49 52.39 88.53 52.35 88.57 52.29 88.61 52.24 88.65 52.18 88.7 52.11 88.74 52.04 88.78 51.96 88.82 51.87 88.86 51.78 88.9 51.68 88.93 51.58 88.97 51.48 89 51.37 89.02 51.27 89.04 51.16 89.05 51.05 89.07 50.94 89.07 50.83 89.07 50.72 89.08 50.61 89.07 50.5 89.07 50.39 89.06 50.29 89.04 50.18 89.03 50.09 89.01 49.99 89 49.89 88.98 49.81 88.96 49.73 88.94 49.57 88.9 49.44 88.85 49.35 88.81 49.25 88.78 49.2 88.76 49.2 88.76Z" fill="#CE7B0D"/><path d="M48.4 86.63C48.4 86.63 48.46 86.65 48.56 86.69 48.66 86.73 48.8 86.76 48.98 86.81 49.07 86.83 49.16 86.85 49.27 86.87 49.37 86.89 49.48 86.91 49.59 86.92 49.7 86.94 49.82 86.94 49.93 86.95 50.05 86.95 50.17 86.96 50.28 86.95 50.4 86.94 50.52 86.94 50.63 86.91 50.69 86.9 50.74 86.89 50.8 86.89 50.86 86.87 50.91 86.86 50.96 86.85 51.01 86.83 51.07 86.82 51.12 86.81 51.17 86.79 51.22 86.77 51.27 86.76 51.32 86.74 51.36 86.72 51.41 86.71 51.45 86.69 51.5 86.67 51.54 86.65 51.62 86.61 51.69 86.58 51.76 86.54 51.82 86.5 51.88 86.46 51.92 86.43 52.01 86.37 52.06 86.34 52.06 86.34 52.06 86.34 52.02 86.38 51.94 86.45 51.9 86.49 51.85 86.53 51.8 86.58 51.74 86.62 51.67 86.67 51.59 86.72 51.55 86.74 51.51 86.77 51.47 86.8 51.42 86.82 51.38 86.84 51.33 86.87 51.28 86.89 51.23 86.91 51.18 86.94 51.13 86.96 51.07 86.97 51.02 86.99 50.96 87.01 50.91 87.03 50.85 87.04 50.79 87.05 50.73 87.06 50.67 87.07 50.55 87.1 50.43 87.1 50.3 87.11 50.18 87.12 50.05 87.11 49.93 87.11 49.81 87.1 49.69 87.09 49.58 87.07 49.35 87.03 49.14 86.97 48.97 86.91 48.6 86.77 48.4 86.63 48.4 86.63Z" fill="#CE7B0D"/><path d="M51.99 94.56C51.99 94.56 52.03 94.57 52.1 94.58 52.17 94.59 52.26 94.6 52.37 94.61 52.48 94.62 52.61 94.62 52.75 94.62 52.82 94.62 52.89 94.61 52.96 94.61 53.03 94.6 53.11 94.6 53.18 94.58 53.25 94.57 53.33 94.56 53.4 94.54 53.47 94.52 53.54 94.5 53.6 94.47 53.66 94.45 53.73 94.42 53.78 94.39 53.84 94.37 53.89 94.34 53.94 94.31 53.99 94.28 54.04 94.26 54.07 94.23 54.11 94.21 54.14 94.18 54.17 94.16 54.22 94.12 54.26 94.1 54.26 94.1 54.26 94.1 54.24 94.13 54.19 94.19 54.17 94.21 54.14 94.25 54.11 94.28 54.08 94.32 54.04 94.35 53.99 94.39 53.97 94.41 53.95 94.43 53.92 94.45 53.89 94.47 53.86 94.49 53.83 94.5 53.77 94.54 53.71 94.58 53.64 94.6 53.57 94.63 53.5 94.66 53.42 94.68 53.35 94.7 53.27 94.72 53.19 94.73 53.11 94.75 53.03 94.75 52.95 94.76 52.87 94.76 52.8 94.76 52.72 94.76 52.57 94.75 52.44 94.73 52.33 94.69 52.13 94.64 51.99 94.56 51.99 94.56Z" fill="#CE7B0D"/><path d="M53.84 94.48C53.84 94.48 53.91 94.49 54.02 94.53 54.08 94.55 54.14 94.57 54.22 94.61 54.29 94.64 54.38 94.68 54.47 94.73 54.56 94.78 54.66 94.83 54.76 94.9 54.86 94.96 54.96 95.04 55.06 95.12 55.16 95.2 55.27 95.28 55.36 95.38 55.41 95.43 55.46 95.48 55.5 95.53 55.55 95.58 55.59 95.64 55.63 95.69 55.72 95.8 55.79 95.91 55.86 96.03 55.94 96.14 55.98 96.27 56.04 96.39 56.1 96.5 56.13 96.63 56.17 96.74 56.21 96.85 56.23 96.96 56.25 97.07 56.27 97.17 56.29 97.26 56.29 97.34 56.29 97.43 56.3 97.5 56.3 97.56 56.3 97.68 56.3 97.75 56.3 97.75 56.3 97.75 56.29 97.68 56.26 97.57 56.25 97.51 56.24 97.44 56.22 97.36 56.21 97.28 56.17 97.19 56.15 97.09 56.12 97 56.1 96.89 56.05 96.78 56.03 96.73 56.01 96.67 55.98 96.62 55.97 96.59 55.96 96.56 55.95 96.53L55.9 96.45C55.84 96.34 55.79 96.22 55.71 96.11 55.64 96 55.57 95.89 55.49 95.79 55.45 95.74 55.41 95.68 55.36 95.63 55.32 95.59 55.27 95.54 55.23 95.49 55.14 95.39 55.04 95.31 54.95 95.23 54.85 95.15 54.76 95.07 54.67 95 54.58 94.93 54.49 94.87 54.4 94.81 54.23 94.7 54.08 94.62 53.98 94.57 53.9 94.5 53.84 94.48 53.84 94.48Z" fill="#CE7B0D"/><path d="M56.78 92.74C56.78 92.74 56.88 92.76 57.04 92.81 57.12 92.84 57.22 92.88 57.34 92.92 57.39 92.94 57.45 92.97 57.51 93 57.57 93.03 57.63 93.06 57.7 93.1 57.83 93.17 57.96 93.27 58.11 93.37 58.24 93.48 58.39 93.59 58.52 93.73 58.58 93.8 58.66 93.87 58.72 93.94 58.78 94.02 58.84 94.1 58.9 94.18 58.96 94.26 59.02 94.35 59.06 94.43L59.22 94.69C59.3 94.88 59.39 95.06 59.45 95.25 59.48 95.34 59.51 95.44 59.53 95.53 59.55 95.62 59.59 95.71 59.6 95.81 59.63 96 59.66 96.18 59.68 96.35 59.69 96.52 59.69 96.68 59.7 96.83 59.7 96.9 59.7 96.98 59.7 97.05 59.7 97.12 59.69 97.18 59.68 97.24 59.67 97.36 59.66 97.47 59.65 97.56 59.63 97.73 59.63 97.83 59.63 97.83 59.63 97.83 59.63 97.73 59.62 97.56 59.62 97.47 59.62 97.36 59.62 97.24 59.62 97.18 59.62 97.12 59.62 97.05 59.62 96.98 59.61 96.91 59.6 96.84 59.59 96.69 59.57 96.53 59.56 96.36 59.53 96.19 59.49 96.02 59.45 95.84 59.41 95.66 59.34 95.48 59.29 95.3 59.23 95.12 59.14 94.94 59.06 94.76L58.91 94.51C58.86 94.42 58.81 94.34 58.75 94.27 58.69 94.19 58.64 94.12 58.58 94.04 58.52 93.96 58.45 93.9 58.39 93.83 58.27 93.69 58.13 93.58 58.01 93.46 57.88 93.36 57.76 93.25 57.63 93.17 57.51 93.09 57.39 93.02 57.28 92.96 57.17 92.9 57.08 92.86 57 92.82 56.92 92.79 56.86 92.76 56.81 92.74 56.8 92.75 56.78 92.74 56.78 92.74Z" fill="#CE7B0D"/><path d="M55.33 91.3C55.33 91.3 55.48 91.29 55.69 91.34 55.74 91.35 55.8 91.37 55.86 91.39 55.92 91.41 55.98 91.44 56.04 91.47 56.1 91.51 56.16 91.54 56.22 91.58 56.28 91.62 56.34 91.67 56.39 91.71 56.45 91.75 56.5 91.81 56.55 91.86 56.6 91.91 56.64 91.97 56.68 92.03 56.72 92.08 56.75 92.14 56.78 92.2 56.81 92.25 56.83 92.31 56.85 92.36 56.87 92.41 56.89 92.46 56.89 92.5 56.9 92.54 56.91 92.58 56.91 92.61 56.92 92.67 56.93 92.71 56.93 92.71 56.93 92.71 56.91 92.68 56.88 92.62 56.87 92.59 56.85 92.55 56.83 92.52 56.81 92.48 56.78 92.44 56.76 92.4 56.74 92.36 56.71 92.31 56.67 92.26 56.64 92.22 56.6 92.16 56.56 92.11 56.52 92.06 56.48 92.01 56.43 91.96 56.39 91.91 56.34 91.87 56.28 91.82 56.18 91.73 56.06 91.66 55.96 91.58 55.9 91.55 55.85 91.52 55.8 91.49 55.75 91.46 55.7 91.44 55.65 91.42 55.47 91.34 55.33 91.3 55.33 91.3Z" fill="#CE7B0D"/><path d="M56.73 90.07C56.73 90.07 56.77 90.05 56.85 90.04 56.89 90.04 56.94 90.03 56.99 90.03 57.04 90.03 57.11 90.02 57.18 90.03 57.25 90.03 57.32 90.04 57.4 90.06 57.48 90.08 57.56 90.1 57.64 90.13 57.68 90.15 57.72 90.17 57.76 90.19 57.8 90.21 57.84 90.24 57.88 90.26 57.96 90.31 58.02 90.39 58.09 90.45 58.14 90.53 58.2 90.6 58.24 90.68 58.28 90.76 58.33 90.84 58.35 90.92 58.37 91 58.4 91.08 58.41 91.16 58.42 91.24 58.43 91.31 58.43 91.38 58.44 91.45 58.44 91.51 58.43 91.56 58.43 91.62 58.42 91.67 58.42 91.7 58.42 91.78 58.41 91.82 58.41 91.82 58.41 91.82 58.4 91.78 58.39 91.7 58.37 91.62 58.37 91.51 58.33 91.39 58.31 91.32 58.3 91.26 58.28 91.19 58.26 91.12 58.23 91.05 58.2 90.97 58.18 90.9 58.12 90.83 58.09 90.75 58.05 90.68 58 90.61 57.95 90.55 57.89 90.49 57.84 90.42 57.77 90.38 57.73 90.36 57.7 90.33 57.67 90.31 57.63 90.29 57.6 90.27 57.56 90.25 57.49 90.21 57.42 90.18 57.35 90.16 57.28 90.14 57.21 90.12 57.15 90.11 57.09 90.09 57.03 90.09 56.98 90.08 56.92 90.08 56.88 90.07 56.84 90.07 56.77 90.07 56.73 90.07 56.73 90.07Z" fill="#CE7B0D"/><path d="M58.36 89.02C58.36 89.02 58.39 89 58.44 88.99 58.49 88.98 58.57 88.97 58.66 88.99 58.71 89 58.76 89.01 58.81 89.03 58.86 89.05 58.91 89.08 58.96 89.11 59 89.15 59.06 89.18 59.1 89.22L59.16 89.29 59.22 89.36C59.26 89.41 59.28 89.47 59.31 89.52 59.34 89.57 59.36 89.63 59.38 89.68 59.42 89.79 59.44 89.89 59.46 89.98 59.47 90.02 59.47 90.07 59.47 90.1 59.47 90.14 59.47 90.17 59.48 90.2 59.48 90.25 59.48 90.28 59.48 90.28 59.48 90.28 59.47 90.25 59.45 90.2 59.44 90.18 59.43 90.15 59.42 90.11 59.4 90.08 59.4 90.04 59.38 90 59.36 89.96 59.34 89.92 59.33 89.87 59.31 89.82 59.29 89.78 59.27 89.73 59.25 89.68 59.22 89.63 59.19 89.58 59.16 89.54 59.14 89.48 59.1 89.44L59.05 89.37 58.99 89.31C58.96 89.27 58.92 89.23 58.88 89.2 58.84 89.17 58.8 89.14 58.76 89.12 58.72 89.1 58.68 89.08 58.64 89.06 58.48 89.02 58.36 89.02 58.36 89.02Z" fill="#CE7B0D"/><path d="M58.6 91.78C58.6 91.78 58.67 91.78 58.78 91.79 58.84 91.79 58.91 91.8 58.99 91.81 59.07 91.83 59.16 91.83 59.26 91.86 59.31 91.88 59.36 91.89 59.41 91.9 59.46 91.92 59.51 91.93 59.57 91.95 59.68 91.98 59.79 92.04 59.91 92.08 59.97 92.11 60.02 92.14 60.08 92.17 60.14 92.2 60.2 92.23 60.25 92.27 60.31 92.31 60.36 92.35 60.41 92.38 60.46 92.42 60.51 92.47 60.57 92.51 60.68 92.6 60.77 92.7 60.85 92.79L60.91 92.86 60.97 92.94C61.01 92.99 61.04 93.05 61.08 93.09 61.15 93.2 61.2 93.31 61.25 93.41 61.31 93.51 61.34 93.61 61.37 93.71 61.4 93.8 61.44 93.89 61.45 93.97 61.46 94.05 61.48 94.12 61.49 94.17 61.51 94.28 61.52 94.35 61.52 94.35 61.52 94.35 61.5 94.29 61.46 94.18 61.44 94.13 61.42 94.06 61.39 93.99 61.37 93.91 61.32 93.83 61.28 93.74 61.24 93.65 61.2 93.55 61.14 93.46 61.11 93.41 61.08 93.36 61.05 93.31 61.02 93.26 60.99 93.21 60.95 93.16 60.87 93.07 60.81 92.96 60.72 92.87 60.63 92.78 60.55 92.68 60.45 92.61 60.4 92.57 60.36 92.52 60.31 92.48 60.26 92.44 60.2 92.41 60.15 92.37 60.05 92.3 59.94 92.24 59.83 92.18 59.72 92.13 59.62 92.07 59.52 92.03 59.47 92.01 59.42 91.99 59.37 91.97 59.32 91.95 59.27 91.94 59.23 91.92 59.14 91.89 59.05 91.87 58.98 91.84 58.9 91.82 58.84 91.8 58.78 91.79 58.66 91.79 58.6 91.78 58.6 91.78Z" fill="#CE7B0D"/><path d="M62.29 90.52C62.29 90.52 62.35 90.54 62.44 90.58 62.54 90.62 62.67 90.69 62.83 90.78 62.91 90.83 62.99 90.88 63.07 90.95 63.16 91.01 63.24 91.08 63.32 91.16 63.41 91.23 63.48 91.32 63.57 91.41 63.64 91.51 63.73 91.6 63.79 91.7 63.86 91.8 63.92 91.91 63.97 92.02 63.99 92.08 64.02 92.13 64.05 92.18 64.07 92.24 64.08 92.29 64.1 92.35 64.12 92.41 64.14 92.46 64.15 92.51 64.16 92.56 64.17 92.62 64.17 92.67 64.18 92.72 64.19 92.77 64.19 92.82 64.19 92.87 64.19 92.92 64.19 92.96 64.19 93.05 64.19 93.14 64.18 93.21 64.17 93.28 64.16 93.34 64.15 93.4 64.13 93.51 64.12 93.56 64.12 93.56 64.12 93.56 64.12 93.5 64.12 93.39 64.12 93.34 64.12 93.28 64.12 93.21 64.12 93.14 64.1 93.06 64.1 92.97 64.1 92.93 64.09 92.88 64.09 92.84 64.08 92.8 64.07 92.75 64.05 92.69 64.04 92.65 64.03 92.59 64.02 92.54 64.01 92.49 63.98 92.44 63.97 92.39 63.95 92.34 63.93 92.28 63.91 92.24 63.88 92.19 63.86 92.14 63.83 92.09 63.79 91.98 63.72 91.89 63.66 91.79 63.6 91.69 63.52 91.6 63.45 91.51 63.37 91.43 63.3 91.34 63.22 91.26 63.14 91.18 63.07 91.11 62.99 91.04 62.91 90.97 62.84 90.91 62.77 90.86 62.63 90.75 62.51 90.66 62.42 90.61 62.34 90.55 62.29 90.52 62.29 90.52Z" fill="#CE7B0D"/><path d="M65.74 91.48C65.74 91.48 65.78 91.49 65.84 91.53 65.9 91.57 65.99 91.62 66.08 91.71 66.13 91.75 66.17 91.8 66.22 91.86 66.26 91.92 66.31 91.98 66.35 92.06 66.39 92.13 66.42 92.21 66.45 92.28 66.48 92.36 66.49 92.44 66.52 92.52 66.53 92.61 66.54 92.69 66.54 92.77 66.54 92.86 66.54 92.94 66.52 93.01 66.51 93.09 66.5 93.16 66.48 93.23 66.46 93.3 66.44 93.36 66.42 93.42 66.4 93.48 66.38 93.53 66.36 93.58 66.34 93.62 66.32 93.67 66.3 93.7 66.27 93.76 66.25 93.8 66.25 93.8 66.25 93.8 66.26 93.76 66.27 93.69 66.29 93.62 66.32 93.52 66.33 93.4 66.34 93.34 66.35 93.27 66.36 93.21 66.37 93.14 66.37 93.07 66.38 92.99 66.39 92.92 66.38 92.84 66.38 92.76 66.38 92.69 66.36 92.61 66.36 92.53 66.34 92.45 66.33 92.38 66.31 92.31 66.29 92.24 66.27 92.16 66.23 92.1 66.2 92.03 66.17 91.97 66.13 91.91 66.09 91.86 66.06 91.8 66.02 91.76 65.95 91.67 65.88 91.59 65.83 91.54 65.77 91.51 65.74 91.48 65.74 91.48Z" fill="#CE7B0D"/><path d="M61.57 94.83C61.57 94.83 61.62 94.86 61.69 94.92 61.76 94.98 61.86 95.07 61.95 95.21 62 95.27 62.05 95.35 62.1 95.43 62.14 95.52 62.2 95.6 62.23 95.69 62.27 95.78 62.31 95.89 62.33 95.99 62.36 96.09 62.38 96.2 62.4 96.31 62.42 96.42 62.41 96.53 62.42 96.64 62.42 96.75 62.41 96.86 62.4 96.96 62.38 97.06 62.36 97.16 62.34 97.25 62.32 97.34 62.28 97.42 62.26 97.5 62.24 97.58 62.21 97.65 62.17 97.71 62.14 97.77 62.12 97.82 62.09 97.86 62.05 97.95 62.02 97.99 62.02 97.99 62.02 97.99 62.03 97.94 62.06 97.85 62.08 97.81 62.09 97.75 62.11 97.69 62.13 97.63 62.14 97.56 62.16 97.48 62.17 97.4 62.2 97.32 62.21 97.23 62.22 97.14 62.23 97.05 62.25 96.95 62.25 96.85 62.26 96.75 62.26 96.65 62.25 96.54 62.26 96.44 62.24 96.34 62.22 96.24 62.21 96.13 62.18 96.03 62.17 95.98 62.16 95.93 62.14 95.89 62.12 95.84 62.11 95.79 62.09 95.75 62.06 95.66 62.02 95.57 61.98 95.49 61.94 95.41 61.9 95.33 61.86 95.27 61.78 95.13 61.71 95.03 61.65 94.95 61.6 94.86 61.57 94.83 61.57 94.83Z" fill="#CE7B0D"/><path d="M64.1 95.07C64.1 95.07 64.15 95.09 64.21 95.15 64.27 95.2 64.37 95.28 64.47 95.39 64.52 95.44 64.57 95.51 64.62 95.58 64.66 95.65 64.72 95.73 64.75 95.81 64.79 95.89 64.83 95.98 64.86 96.07 64.9 96.16 64.91 96.26 64.94 96.36 64.96 96.46 64.97 96.56 64.98 96.65 64.98 96.75 64.98 96.85 64.98 96.94 64.97 97.03 64.96 97.12 64.95 97.2 64.94 97.28 64.91 97.36 64.9 97.43 64.88 97.5 64.87 97.57 64.85 97.62 64.83 97.68 64.81 97.73 64.79 97.77 64.76 97.85 64.74 97.89 64.74 97.89 64.74 97.89 64.74 97.84 64.76 97.76 64.77 97.72 64.78 97.67 64.79 97.61 64.8 97.55 64.81 97.49 64.81 97.41 64.81 97.34 64.83 97.26 64.83 97.18 64.83 97.1 64.83 97.01 64.84 96.92 64.84 96.84 64.83 96.74 64.82 96.65 64.81 96.56 64.8 96.47 64.78 96.38 64.76 96.29 64.75 96.2 64.71 96.11 64.7 96.07 64.68 96.02 64.67 95.98 64.65 95.94 64.64 95.9 64.62 95.85 64.59 95.77 64.54 95.7 64.51 95.62 64.47 95.55 64.43 95.48 64.39 95.42 64.31 95.3 64.24 95.2 64.19 95.14 64.14 95.1 64.1 95.07 64.1 95.07Z" fill="#CE7B0D"/><path d="M66.46 95.31C66.46 95.31 66.5 95.33 66.56 95.37 66.62 95.42 66.71 95.49 66.79 95.59 66.83 95.64 66.88 95.7 66.92 95.77 66.96 95.84 67 95.91 67.03 95.99 67.07 96.07 67.09 96.15 67.12 96.23 67.14 96.32 67.16 96.4 67.18 96.49 67.19 96.58 67.2 96.67 67.2 96.76 67.2 96.85 67.2 96.93 67.19 97.02 67.18 97.1 67.16 97.18 67.15 97.26 67.13 97.33 67.11 97.4 67.09 97.47 67.07 97.53 67.05 97.59 67.03 97.64 67.01 97.69 66.99 97.73 66.98 97.77 66.95 97.84 66.93 97.88 66.93 97.88 66.93 97.88 66.94 97.84 66.95 97.76 66.97 97.68 66.99 97.58 67.01 97.45 67.02 97.39 67.03 97.32 67.04 97.25 67.04 97.18 67.05 97.1 67.06 97.02 67.07 96.94 67.06 96.86 67.06 96.78 67.06 96.7 67.05 96.61 67.04 96.53 67.03 96.45 67.02 96.37 67 96.29 66.98 96.21 66.96 96.13 66.93 96.06 66.91 95.99 66.87 95.92 66.84 95.85 66.81 95.79 66.78 95.72 66.74 95.67 66.68 95.56 66.61 95.47 66.56 95.42 66.49 95.34 66.46 95.31 66.46 95.31Z" fill="#CE7B0D"/><path d="M69 95.33C69 95.33 69.03 95.35 69.09 95.4 69.14 95.44 69.21 95.51 69.29 95.6 69.36 95.69 69.44 95.81 69.5 95.94 69.53 96.01 69.57 96.08 69.59 96.15 69.62 96.23 69.64 96.3 69.66 96.38 69.68 96.45 69.68 96.53 69.69 96.61 69.7 96.69 69.69 96.76 69.69 96.84 69.69 96.91 69.68 96.99 69.67 97.05 69.66 97.12 69.64 97.18 69.63 97.24 69.62 97.3 69.6 97.35 69.58 97.39 69.56 97.43 69.54 97.48 69.53 97.5 69.5 97.56 69.49 97.6 69.49 97.6 69.49 97.6 69.49 97.56 69.51 97.49 69.51 97.46 69.52 97.42 69.53 97.37 69.54 97.33 69.54 97.27 69.54 97.22 69.54 97.16 69.56 97.1 69.55 97.04 69.55 96.98 69.55 96.91 69.55 96.84 69.54 96.77 69.54 96.7 69.53 96.62 69.52 96.55 69.51 96.48 69.49 96.4 69.47 96.26 69.42 96.12 69.37 95.98 69.32 95.85 69.26 95.74 69.21 95.64 69.16 95.54 69.1 95.46 69.07 95.4 69.02 95.36 69 95.33 69 95.33Z" fill="#CE7B0D"/></g><g><path d="M58.3 91.99C58.3 91.99 58.18 92.16 57.94 92.36 57.82 92.46 57.67 92.56 57.49 92.65 57.4 92.69 57.31 92.74 57.22 92.78 57.13 92.82 57.02 92.84 56.92 92.87 56.82 92.89 56.73 92.92 56.64 92.94 56.54 92.96 56.45 92.98 56.36 93.01 56.31 93.02 56.27 93.03 56.22 93.04 56.18 93.05 56.14 93.06 56.1 93.07 56.02 93.09 55.95 93.11 55.87 93.13 55.73 93.17 55.61 93.21 55.52 93.23 55.43 93.26 55.38 93.27 55.38 93.27 55.38 93.27 55.39 93.26 55.41 93.25 55.43 93.23 55.45 93.21 55.49 93.18 55.52 93.15 55.57 93.11 55.62 93.08 55.67 93.04 55.73 93 55.8 92.96 55.87 92.92 55.94 92.88 56.02 92.84 56.06 92.82 56.1 92.8 56.15 92.78 56.19 92.76 56.24 92.75 56.28 92.73 56.37 92.71 56.46 92.67 56.55 92.64 56.6 92.63 56.65 92.61 56.69 92.6L56.84 92.55C56.93 92.53 57.03 92.51 57.11 92.48 57.2 92.45 57.29 92.43 57.37 92.39 57.45 92.35 57.54 92.33 57.61 92.3 57.69 92.26 57.76 92.23 57.83 92.21 57.97 92.14 58.08 92.1 58.16 92.06 58.26 92.01 58.3 91.99 58.3 91.99Z" fill="#A55D07"/><path d="M53.57 92.2C53.57 92.2 53.67 92.31 53.78 92.49 53.89 92.66 54.01 92.91 54.11 93.17 54.21 93.42 54.28 93.69 54.31 93.89 54.35 94.1 54.34 94.24 54.34 94.24 54.34 94.24 54.24 94.13 54.13 93.96 54.02 93.78 53.9 93.54 53.8 93.29 53.7 93.03 53.63 92.77 53.6 92.57 53.57 92.35 53.57 92.2 53.57 92.2Z" fill="#A55D07"/></g><g><path d="M66.92 93.21C64.64 92.66 62.11 92.5 61.03 94.74 61.03 94.74 63.11 93.42 64.48 93.62 65.84 93.82 67.93 94.22 68.09 93.5 68.11 93.4 68.11 93.3 68.08 93.19 67.91 93.32 67.56 93.36 66.92 93.21Z" fill="#E5880C"/><path d="M56.02 92.84C57.1 92.6 57.8 92.29 58.32 91.94 59.43 90.35 60.3 89.36 59.79 88.8 59.72 88.73 59.64 88.68 59.55 88.66 59.89 89.15 58.19 91.19 56.02 92.84Z" fill="#E5880C"/><path d="M58.56 96.62C56.18 95.98 55.14 97.36 53.11 97.51 51.08 97.66 49.35 99.59 48.76 99.24 48.59 99.14 48.55 98.91 48.58 98.61 48.36 99.13 48.31 99.59 48.53 99.86 49.05 100.54 50.78 98.41 53.14 98.26 55.51 98.1 55.79 97.9 56.67 97.58 57.55 97.26 58.51 97.74 60.24 97.9 61.96 98.06 66.54 97.98 68.42 97.78 70.1 97.6 70.82 97.19 70.59 96.48 69.08 97.6 60.56 97.16 58.56 96.62Z" fill="#E5880C"/></g><g opacity="0.5"><path d="M70.45 96.22C69.93 95.33 69.65 95.33 67.24 95.29 64.83 95.25 61.02 94.73 61.02 94.73 61.02 94.73 63.1 93.41 64.47 93.61 65.83 93.81 67.92 94.21 68.08 93.49 68.24 92.77 67.12 91.89 64.11 90.92 61.1 89.96 60.34 90.92 58.29 91.96 59.41 90.36 60.3 89.35 59.78 88.79 59.26 88.23 57.85 89.15 56.21 90.55 54.57 91.95 53.64 92.4 53.64 92.4 53.64 92.4 52.12 87.19 51.76 84.98 51 84.82 49.1 84.15 48.04 85.46 48.04 85.46 48.66 87.54 49.71 89.88 49.47 88.76 49.04 86.26 50.04 86.07 51.33 85.82 51.67 88.94 52.51 91.61 53.31 94.15 52.68 94.99 51.76 93.87 52.21 94.93 51.82 95.15 50.8 95.89 50.57 96.05 50.34 96.25 50.12 96.46 50.46 96.15 51.3 95.49 52.05 95.52 53.01 95.56 51.97 96.6 51.05 97.2 50.24 97.73 48.64 98.82 48.75 98.25 48.4 98.91 48.26 99.52 48.53 99.85 49.05 100.53 50.78 98.4 53.14 98.25 55.51 98.09 55.79 97.89 56.67 97.57 57.55 97.25 58.51 97.73 60.24 97.89 61.96 98.05 66.54 97.97 68.42 97.77 70.29 97.58 70.98 97.1 70.45 96.22Z" fill="#FBA31D"/></g><path d="M51.04 96.06C51.04 96.06 49.8 97.14 49.16 98.03 48.52 98.9 49.6 96.58 51.04 96.06Z" fill="#FBA31D"/></g><g><path d="M77.93 55.89C79.52 50.28 77.36 47.48 77.36 47.48 77.36 47.48 77.87 47.86 78.38 48.37 78.45 44.42 75.64 42.89 75.64 42.89 75.64 42.89 76.72 43.4 77.3 43.85 76.35 38.69 70.34 36.6 70.34 36.6 70.34 36.6 45.88 32.86 40.1 33.58 34.33 34.3 30.88 38.63 30.88 38.63 31.48 43.04 31.66 48.27 33.56 53.68 31.13 49.71 30.85 49.62 30.4 50.07 29.95 50.52 29.14 54.08 30.7 56.08 29.03 55.63 28.69 55.69 28.69 55.69 28.69 55.69 29.36 57.31 30.36 57.92 27.63 58.03 26.57 59.03 26.52 59.42 26.46 59.81 28.58 61.87 32.09 61.92 31.09 62.98 30.7 63.43 31.03 63.59 31.36 63.76 33.7 63.03 33.7 63.03 33.7 63.03 33.26 66.32 33.92 66.43 34.59 66.54 36.09 64.09 36.09 64.09 36.09 64.09 35.7 71.63 34.42 69.28 33.83 73.4 32.26 74.19 31.57 74.19 30.88 74.19 29.8 72.13 29.8 69.08 29.11 72.32 27.44 72.61 26.56 70.35 26.07 73.49 23.91 74.87 23.91 72.9 22.73 74.67 17.92 74.37 19.19 72.02 18.96 72.14 18.69 72.27 18.39 72.41 16.42 74.3 16.6 75.35 16.6 75.35 16.6 75.35 17.66 74.44 18.34 74.48 16.78 76.86 18.15 79.7 18.15 79.7 18.15 79.7 19.32 78.38 20.46 77.51 20.42 78.42 21.82 81.56 22.62 81.56 23.42 81.56 25.13 78.78 25.13 78.78 25.13 78.78 26.48 79.76 26.8 80.12 27.13 80.49 25.78 82.21 25.78 82.21 25.78 82.21 27.45 81.75 27.59 81.89 27.73 82.03 27.13 83.14 27.13 83.14 27.13 83.14 28.94 82.45 29.4 82.86 29.86 83.28 30.79 84.16 30.79 84.16 30.79 84.16 31.07 82.54 31.76 82.72 36.73 86.06 45.54 84.71 45.54 84.71 45.54 84.71 45.96 86.2 46.19 86.15 46.42 86.1 47.16 85.27 47.16 85.27 47.16 85.27 48.28 86.1 48.55 86.2 48.83 86.29 49.06 85.69 49.2 84.95 52.36 85.55 53.28 84.95 53.28 84.95L52.66 83.85C75.44 77.97 76.95 66.58 76.5 59.26 77.77 56.65 77.07 54.48 77.07 54.48 77.07 54.48 77.75 54.94 77.93 55.89Z" fill="#EB8C3C"/><path d="M23.91 72.92C23.91 74.89 26.07 73.51 26.56 70.37 27.44 72.63 29.11 72.34 29.8 69.1 29.8 72.14 30.88 74.21 31.57 74.21 32.26 74.21 33.83 73.42 34.42 69.3 35.7 71.66 36.09 64.11 36.09 64.11 36.09 64.11 34.59 66.56 33.92 66.45 33.25 66.34 33.7 63.05 33.7 63.05 33.7 63.05 31.36 63.78 31.03 63.61 30.7 63.44 31.09 63 32.09 61.94 28.58 61.89 26.46 59.83 26.52 59.44 26.58 59.05 27.63 58.05 30.36 57.94 29.36 57.33 28.69 55.71 28.69 55.71 28.69 55.71 29.03 55.65 30.7 56.1 29.14 54.09 29.96 50.54 30.4 50.09 30.85 49.64 31.12 49.73 33.56 53.7 31.67 48.29 31.49 43.05 30.88 38.65 30.88 38.65 30.06 32.93 30 30.1 29.95 27.27 30.4 25.3 28.43 24.44 26.46 23.58 24.54 23.89 23.78 25.3 23.02 26.72 23.27 31.17 23.27 31.17 23.27 31.17 22.26 26.67 22.06 25.36 21.86 24.05 18.42 24.75 17.41 25.61 16.4 26.47 17.91 31.47 17.91 31.47 17.91 31.47 16.14 25.86 14.32 25.2 12.5 24.54 9.16 25.81 7.7 27.98 6.23 30.15 9.47 35.56 9.47 35.56 9.47 35.56 7.25 32.38 5.73 30.1 4.22 27.82 1.54 30.6 1.03 32.83 0.52 35.06 3.71 39.6 3.71 39.6 3.71 39.6 2.19 38.18 1.74 37.28 1.29 36.37 0.98 36.78 0.28 39.15-0.42 41.53 0.03 43.55 3.82 47.24 7.61 50.93 15.25 56.27 15.25 56.27 15.25 56.27 12.83 56.42 12.71 56.58 12.6 56.73 13.47 58.7 14.83 59.68 13.77 59.94 12.03 61.24 12.03 61.57 12.03 61.91 13.09 62.25 15.33 62.18 13.78 63.54 12.72 66.99 12.68 67.4 12.64 67.82 14.61 68.23 16.09 67.89 15.41 69.07 14.92 72.51 15.33 72.7 15.75 72.89 18.55 72.32 18.55 72.32 18.5 72.37 18.45 72.41 18.41 72.45 18.7 72.31 18.97 72.18 19.21 72.06 17.92 74.39 22.73 74.69 23.91 72.92Z" fill="#D36D22"/><g opacity="0.5"><path d="M71.62 68.79C70.98 72 67.61 76.17 67.93 72.16 62.79 77.45 51.25 83.39 41.94 78.58 32.64 73.77 37.61 60.78 37.13 61.42 36.65 62.06 34.57 64.63 34.4 63.67 34.24 62.71 35.2 60.62 34.56 61.42 33.92 62.22 32.79 62.87 32.79 61.9 32.79 60.94 35.84 59.82 31.99 59.97 28.14 60.13 29.74 58.04 32.63 58.04 31.03 57.4 30.7 56.6 33.11 57.24 30.86 54.99 31.18 52.26 32.47 53.71 33.75 55.16 35.68 56.76 34.39 53.55 31.55 44.96 31.69 39.89 32.6 36.94 31.47 37.88 30.86 38.64 30.86 38.64 31.46 43.05 31.64 48.28 33.54 53.69 31.11 49.72 30.83 49.63 30.38 50.08 29.93 50.53 29.12 54.09 30.68 56.09 29.01 55.64 28.67 55.7 28.67 55.7 28.67 55.7 29.34 57.32 30.34 57.93 27.61 58.04 26.55 59.04 26.5 59.43 26.44 59.82 28.56 61.88 32.07 61.93 31.07 62.99 30.68 63.44 31.01 63.6 31.34 63.77 33.68 63.04 33.68 63.04 33.68 63.04 33.24 66.33 33.9 66.44 34.57 66.55 36.07 64.1 36.07 64.1 36.07 64.1 35.68 71.64 34.4 69.29 33.81 73.41 32.24 74.2 31.55 74.2 30.86 74.2 29.78 72.14 29.78 69.09 29.09 72.33 27.42 72.62 26.54 70.36 26.05 73.5 23.89 74.88 23.89 72.91 22.71 74.68 17.9 74.38 19.17 72.03 18.94 72.15 18.67 72.28 18.37 72.42 16.4 74.31 16.58 75.36 16.58 75.36 16.58 75.36 17.64 74.45 18.32 74.49 16.76 76.87 18.13 79.71 18.13 79.71 18.13 79.71 19.3 78.39 20.44 77.52 20.4 78.43 21.8 81.57 22.6 81.57 23.4 81.57 25.11 78.79 25.11 78.79 25.11 78.79 26.46 79.77 26.78 80.13 27.11 80.5 25.76 82.22 25.76 82.22 25.76 82.22 27.43 81.76 27.57 81.9 27.71 82.04 27.11 83.15 27.11 83.15 27.11 83.15 28.92 82.46 29.38 82.87 29.84 83.29 30.77 84.17 30.77 84.17 30.77 84.17 31.05 82.55 31.74 82.73 36.71 86.07 45.52 84.72 45.52 84.72 45.52 84.72 45.94 86.21 46.17 86.16 46.4 86.11 47.14 85.28 47.14 85.28 47.14 85.28 48.26 86.11 48.53 86.21 48.81 86.3 49.04 85.7 49.18 84.96 52.34 85.56 53.26 84.96 53.26 84.96L52.64 83.86C75.42 77.98 76.93 66.59 76.48 59.27 76.32 65.47 73.38 71.03 71.62 68.79Z" fill="#EB8C3C"/></g></g><path d="M71.99 45.64C71.99 45.64 74.29 44.84 75.36 47.99 76.43 51.15 75.41 55.27 74.88 54.62 74.82 56.01 73.49 59.7 72.69 59.86 71.51 67.45 67.13 69.75 66.92 69.7 66.7 69.65 66.49 69.54 67.72 68.31 63.92 71.62 60.54 72.15 59.62 72.15 58.7 72.15 58.92 71.71 59.88 70.57 58.52 71.31 53.44 73.51 51.9 73.6 50.37 73.69 50.28 73.29 52.08 72.15 50.54 72.9 46.25 74.34 45.46 73.12 44.67 71.89 47.08 68.28 47.08 68.28 47.08 68.28 44.74 68.89 44.34 68.69 43.93 68.49 44.24 67.37 45.56 64.52 42.31 65.13 45.15 59.14 49.62 54.77 49.62 54.77 46.07 57.41 46.17 56.39 47.59 49.59 54.9 45.42 54.9 45.42 54.9 45.42 61.25 41.87 60.19 45.07 68.49 41.19 72.82 41.54 71.99 45.64Z" fill="#D36D22"/><g><path d="M54.76 52.66C54.76 52.66 54.5 52.97 54.1 53.42 53.9 53.65 53.67 53.91 53.44 54.2 53.32 54.34 53.2 54.49 53.09 54.64 52.97 54.79 52.86 54.95 52.76 55.12 52.67 55.27 52.58 55.46 52.61 55.56 52.61 55.6 52.62 55.58 52.62 55.58 52.62 55.58 52.63 55.59 52.64 55.6 52.66 55.62 52.68 55.63 52.71 55.64 52.77 55.67 52.86 55.68 52.94 55.69 53.11 55.7 53.29 55.69 53.45 55.67 53.62 55.65 53.78 55.63 53.92 55.6 54.21 55.55 54.46 55.5 54.63 55.46 54.8 55.42 54.9 55.4 54.9 55.4 54.9 55.4 54.81 55.44 54.65 55.51 54.49 55.58 54.26 55.68 53.96 55.77 53.82 55.81 53.66 55.86 53.48 55.9 53.31 55.94 53.12 55.97 52.92 55.97 52.82 55.97 52.71 55.96 52.59 55.92 52.53 55.9 52.47 55.87 52.41 55.82 52.39 55.8 52.36 55.77 52.34 55.73 52.32 55.7 52.3 55.64 52.3 55.62 52.27 55.48 52.3 55.35 52.34 55.24 52.38 55.13 52.43 55.04 52.48 54.95 52.7 54.59 52.96 54.28 53.22 54.01 53.48 53.73 53.74 53.49 53.97 53.29 54.43 52.89 54.76 52.66 54.76 52.66Z" fill="#D36D22"/><path d="M51.15 58.22C51.15 58.22 51.03 58.39 50.85 58.62 50.76 58.74 50.66 58.88 50.57 59.02 50.52 59.09 50.48 59.17 50.45 59.24 50.42 59.32 50.41 59.39 50.42 59.42 50.42 59.42 50.42 59.43 50.43 59.44 50.43 59.44 50.43 59.44 50.44 59.45L50.45 59.46 50.45 59.46 50.45 59.46 50.45 59.46C50.44 59.46 50.46 59.47 50.44 59.45L50.44 59.45C50.48 59.47 50.53 59.52 50.55 59.52 50.57 59.53 50.61 59.54 50.65 59.56 50.69 59.57 50.73 59.58 50.77 59.59 50.85 59.59 50.93 59.6 51.01 59.6 51.09 59.6 51.17 59.59 51.24 59.59 51.38 59.57 51.51 59.55 51.59 59.54 51.68 59.52 51.73 59.52 51.73 59.52 51.73 59.52 51.69 59.55 51.61 59.6 51.53 59.64 51.42 59.71 51.28 59.76 51.13 59.82 50.96 59.87 50.75 59.87 50.64 59.87 50.54 59.87 50.41 59.8 50.34 59.77 50.31 59.74 50.27 59.72L50.25 59.71 50.25 59.71 50.24 59.71 50.23 59.7 50.21 59.68C50.2 59.66 50.18 59.65 50.17 59.64 50.15 59.6 50.13 59.57 50.12 59.53 50.08 59.37 50.12 59.24 50.17 59.13 50.22 59.03 50.28 58.94 50.34 58.87 50.47 58.72 50.6 58.6 50.72 58.5 50.96 58.3 51.15 58.22 51.15 58.22Z" fill="#D36D22"/><path d="M52.37 62.61C52.2 62.87 52.04 63.14 51.88 63.42 51.8 63.55 51.73 63.7 51.66 63.84 51.59 63.98 51.52 64.12 51.46 64.26 51.43 64.33 51.4 64.4 51.37 64.47 51.34 64.54 51.31 64.61 51.29 64.69L51.22 64.91 51.17 65.13C51.15 65.2 51.14 65.28 51.13 65.35 51.12 65.42 51.11 65.5 51.11 65.57 51.11 65.64 51.1 65.72 51.11 65.79 51.12 65.86 51.12 65.94 51.13 66.01L51.12 65.99C51.12 65.99 51.11 65.98 51.12 65.98 51.12 65.98 51.12 65.98 51.13 65.98 51.13 65.98 51.14 65.98 51.15 65.98 51.19 65.99 51.26 65.98 51.32 65.97 51.45 65.95 51.58 65.91 51.71 65.86 51.97 65.77 52.22 65.66 52.48 65.54 52.73 65.42 52.99 65.3 53.24 65.16 53.49 65.03 53.74 64.89 53.98 64.74 53.78 64.94 53.55 65.12 53.32 65.29 53.08 65.45 52.84 65.61 52.6 65.75 52.35 65.89 52.09 66.02 51.82 66.13 51.69 66.18 51.54 66.23 51.39 66.26 51.31 66.28 51.23 66.29 51.13 66.28 51.11 66.28 51.08 66.27 51.05 66.26 51.02 66.26 50.99 66.24 50.96 66.23 50.93 66.22 50.9 66.19 50.87 66.16 50.85 66.13 50.83 66.1 50.82 66.06L50.82 66.05 50.82 66.03C50.81 65.94 50.8 65.86 50.8 65.78 50.79 65.69 50.81 65.61 50.81 65.53 50.81 65.44 50.82 65.36 50.84 65.28 50.86 65.2 50.86 65.11 50.89 65.04 50.91 64.96 50.93 64.88 50.96 64.8L51.05 64.57C51.08 64.49 51.11 64.42 51.15 64.35 51.18 64.28 51.22 64.2 51.26 64.13 51.33 63.99 51.42 63.85 51.5 63.71 51.59 63.58 51.68 63.45 51.77 63.32 51.86 63.19 51.97 63.07 52.07 62.95 52.14 62.84 52.25 62.72 52.37 62.61Z" fill="#D36D22"/><path d="M62.15 64.98C62.15 64.98 62.13 65.08 62.09 65.24 62.05 65.41 61.99 65.65 61.96 65.93 61.95 66 61.95 66.07 61.95 66.15 61.95 66.22 61.95 66.3 61.97 66.35 61.98 66.37 61.99 66.38 61.99 66.38 61.99 66.38 62 66.38 62.04 66.37 62.07 66.36 62.1 66.35 62.13 66.34 62.17 66.32 62.21 66.31 62.25 66.29 62.41 66.22 62.57 66.13 62.73 66.03 62.89 65.93 63.05 65.83 63.21 65.72 63.37 65.61 63.53 65.51 63.68 65.39 63.83 65.28 63.99 65.17 64.13 65.06 64.42 64.84 64.68 64.62 64.89 64.43 65.1 64.24 65.27 64.06 65.38 63.93 65.43 63.86 65.48 63.82 65.51 63.78 65.54 63.74 65.55 63.73 65.55 63.73 65.55 63.73 65.54 63.75 65.52 63.79 65.5 63.83 65.48 63.9 65.43 63.97 65.34 64.12 65.21 64.33 65.02 64.56 64.83 64.79 64.59 65.04 64.31 65.28 64.17 65.4 64.02 65.52 63.87 65.64 63.72 65.76 63.55 65.88 63.39 65.99 63.06 66.2 62.72 66.4 62.36 66.54 62.32 66.56 62.27 66.57 62.22 66.59 62.17 66.6 62.13 66.61 62.05 66.62 62.01 66.62 61.92 66.62 61.85 66.58 61.78 66.53 61.75 66.46 61.73 66.41 61.68 66.19 61.73 66.03 61.77 65.88 61.85 65.59 61.95 65.37 62.02 65.21 62.1 65.06 62.15 64.98 62.15 64.98Z" fill="#D36D22"/><path d="M69.53 57.08C69.53 57.08 69.52 57.47 69.51 58.06 69.51 58.21 69.51 58.37 69.51 58.53 69.51 58.69 69.52 58.87 69.55 59.03 69.56 59.07 69.57 59.1 69.58 59.12L69.58 59.12C69.58 59.11 69.57 59.11 69.56 59.1 69.55 59.1 69.55 59.1 69.54 59.1L69.54 59.1 69.52 59.1 69.52 59.1 69.53 59.1C69.54 59.1 69.55 59.1 69.55 59.1 69.55 59.09 69.55 59.1 69.55 59.09L69.57 59.08C69.58 59.07 69.6 59.06 69.62 59.05 69.65 59.03 69.69 59 69.72 58.97 69.86 58.86 69.99 58.72 70.11 58.57 70.24 58.43 70.36 58.28 70.47 58.13 70.58 57.98 70.69 57.82 70.78 57.67 70.97 57.36 71.13 57.06 71.25 56.8 71.31 56.67 71.36 56.54 71.4 56.43 71.44 56.32 71.48 56.22 71.5 56.14 71.55 55.97 71.58 55.88 71.58 55.88 71.58 55.88 71.58 55.9 71.58 55.95 71.58 56 71.58 56.06 71.57 56.15 71.55 56.32 71.52 56.57 71.43 56.86 71.35 57.15 71.21 57.48 71.04 57.81 70.95 57.98 70.85 58.14 70.74 58.31 70.63 58.47 70.5 58.63 70.37 58.79 70.23 58.94 70.09 59.09 69.93 59.22 69.89 59.25 69.85 59.29 69.8 59.31 69.78 59.32 69.75 59.34 69.73 59.35L69.69 59.37C69.68 59.37 69.65 59.38 69.63 59.39 69.6 59.4 69.59 59.4 69.58 59.4L69.57 59.4 69.57 59.4C69.53 59.4 69.55 59.4 69.55 59.4L69.53 59.4C69.51 59.4 69.49 59.39 69.48 59.38 69.44 59.37 69.42 59.35 69.4 59.33 69.39 59.31 69.37 59.29 69.36 59.27 69.32 59.2 69.31 59.15 69.3 59.09 69.27 58.89 69.28 58.7 69.3 58.53 69.31 58.36 69.33 58.2 69.35 58.05 69.42 57.46 69.53 57.08 69.53 57.08Z" fill="#D36D22"/></g><g><path d="M23.92 34.67C23.92 34.67 24.2 35.53 24.61 36.83 24.82 37.48 25.06 38.23 25.32 39.04 25.45 39.44 25.58 39.86 25.72 40.28 25.85 40.71 26 41.13 26.14 41.57 26.28 42 26.43 42.42 26.57 42.85 26.71 43.27 26.86 43.68 26.99 44.09 27.13 44.49 27.27 44.88 27.4 45.24 27.54 45.6 27.66 45.95 27.78 46.27 27.9 46.58 28.01 46.88 28.11 47.13 28.21 47.39 28.3 47.61 28.38 47.79 28.53 48.15 28.62 48.36 28.62 48.36 28.62 48.36 28.51 48.16 28.32 47.81 28.23 47.63 28.11 47.42 28 47.17 27.88 46.92 27.74 46.64 27.6 46.33 27.47 46.02 27.31 45.68 27.17 45.32 27.03 44.96 26.87 44.57 26.72 44.18 26.57 43.78 26.41 43.37 26.27 42.95 26.12 42.53 25.97 42.1 25.83 41.67 25.69 41.24 25.55 40.81 25.42 40.38 25.28 39.95 25.16 39.53 25.04 39.12 24.92 38.71 24.81 38.31 24.71 37.94 24.6 37.57 24.51 37.21 24.43 36.88 24.26 36.22 24.14 35.67 24.05 35.28 23.97 34.9 23.92 34.67 23.92 34.67Z" fill="#D36D22"/><path d="M18.68 50.07C18.68 50.07 19.01 50.41 19.48 50.93 19.6 51.06 19.72 51.21 19.86 51.36 19.99 51.51 20.13 51.67 20.27 51.84 20.41 52.01 20.56 52.18 20.71 52.36 20.86 52.54 21.01 52.72 21.16 52.9 21.31 53.08 21.45 53.27 21.6 53.44 21.75 53.62 21.89 53.8 22.02 53.97 22.16 54.15 22.29 54.31 22.42 54.47 22.55 54.63 22.66 54.78 22.77 54.92 22.88 55.06 22.97 55.18 23.06 55.3 23.15 55.41 23.23 55.51 23.29 55.59 23.41 55.75 23.49 55.85 23.49 55.85 23.49 55.85 23.4 55.77 23.25 55.64 23.1 55.5 22.87 55.31 22.63 55.05 22.38 54.8 22.09 54.5 21.8 54.17 21.66 54 21.5 53.84 21.35 53.66 21.2 53.49 21.05 53.3 20.9 53.12 20.75 52.93 20.6 52.75 20.46 52.57 20.31 52.39 20.18 52.21 20.04 52.03 19.77 51.68 19.53 51.35 19.33 51.06 18.93 50.48 18.68 50.07 18.68 50.07Z" fill="#D36D22"/><path d="M10.77 46.65C10.77 46.65 11.55 47.43 12.72 48.6 13.31 49.18 13.99 49.86 14.73 50.59 15.1 50.95 15.48 51.33 15.87 51.71 16.25 52.09 16.66 52.47 17.05 52.85 17.45 53.23 17.85 53.61 18.24 53.99 18.64 54.36 19.03 54.72 19.4 55.08 19.78 55.43 20.15 55.76 20.5 56.08 20.85 56.39 21.19 56.69 21.5 56.97 21.81 57.24 22.1 57.49 22.35 57.7 22.6 57.92 22.83 58.1 23.02 58.26 23.39 58.57 23.6 58.74 23.6 58.74 23.6 58.74 23.38 58.59 22.98 58.31 22.78 58.17 22.54 58 22.28 57.8 22.01 57.6 21.71 57.37 21.38 57.11 21.06 56.85 20.71 56.56 20.35 56.27 19.99 55.96 19.6 55.63 19.22 55.29 18.84 54.94 18.43 54.59 18.03 54.22 17.64 53.85 17.23 53.47 16.83 53.09 16.43 52.7 16.04 52.32 15.65 51.93 15.26 51.55 14.89 51.16 14.53 50.79 14.17 50.42 13.82 50.05 13.5 49.71 13.17 49.37 12.87 49.03 12.59 48.73 12.03 48.12 11.58 47.6 11.26 47.23 10.94 46.87 10.77 46.65 10.77 46.65Z" fill="#D36D22"/><path d="M20.71 40.87C20.71 40.87 20.88 41.06 21.09 41.36 21.2 41.51 21.32 41.69 21.44 41.89 21.56 42.08 21.69 42.29 21.81 42.51 21.93 42.72 22.04 42.94 22.15 43.15 22.25 43.36 22.34 43.55 22.42 43.72 22.57 44.06 22.64 44.3 22.64 44.3 22.64 44.3 22.47 44.11 22.26 43.81 22.15 43.66 22.03 43.48 21.91 43.28 21.79 43.08 21.66 42.88 21.54 42.66 21.42 42.45 21.31 42.23 21.2 42.02 21.1 41.81 21.01 41.62 20.93 41.45 20.79 41.12 20.71 40.87 20.71 40.87Z" fill="#D36D22"/><path d="M24.03 47.29C24.03 47.29 24.3 47.6 24.68 48.09 24.87 48.33 25.08 48.62 25.3 48.93 25.41 49.09 25.53 49.25 25.64 49.42 25.75 49.59 25.87 49.75 25.98 49.92 26.09 50.09 26.21 50.26 26.32 50.43 26.43 50.6 26.53 50.77 26.64 50.93 26.85 51.26 27.03 51.56 27.18 51.83 27.49 52.36 27.67 52.73 27.67 52.73 27.67 52.73 27.4 52.42 27.03 51.93 26.84 51.69 26.63 51.4 26.41 51.08 26.3 50.92 26.18 50.76 26.07 50.6 25.96 50.43 25.84 50.26 25.73 50.09 25.62 49.92 25.51 49.75 25.4 49.58 25.29 49.41 25.18 49.24 25.08 49.08 24.88 48.75 24.69 48.45 24.54 48.18 24.21 47.66 24.03 47.29 24.03 47.29Z" fill="#D36D22"/><path d="M19.22 61.2C19.22 61.2 18.9 60.95 18.48 60.51 18.38 60.4 18.26 60.28 18.15 60.15 18.04 60.02 17.92 59.88 17.8 59.73 17.57 59.43 17.33 59.1 17.17 58.7 17.13 58.6 17.1 58.49 17.09 58.37 17.09 58.34 17.09 58.31 17.09 58.27 17.09 58.24 17.1 58.2 17.1 58.17 17.11 58.14 17.12 58.11 17.14 58.07L17.16 58.02 17.16 58.02 17.17 58 17.17 58 17.17 57.99 17.18 57.98 17.2 57.95 17.24 57.91C17.27 57.88 17.3 57.86 17.33 57.85 17.39 57.82 17.44 57.79 17.5 57.78 17.62 57.75 17.72 57.75 17.83 57.76 18.04 57.77 18.22 57.82 18.39 57.87 18.56 57.92 18.71 57.98 18.85 58.04 19.13 58.16 19.35 58.29 19.5 58.38 19.65 58.47 19.73 58.53 19.73 58.53 19.73 58.53 19.63 58.5 19.47 58.44 19.31 58.38 19.07 58.31 18.78 58.22 18.5 58.14 18.16 58.04 17.81 58.04 17.64 58.04 17.48 58.08 17.41 58.17 17.35 58.23 17.38 58.42 17.45 58.59 17.52 58.76 17.6 58.94 17.7 59.09 17.8 59.25 17.9 59.42 18 59.57 18.21 59.87 18.42 60.16 18.59 60.4 18.98 60.87 19.22 61.2 19.22 61.2Z" fill="#D36D22"/><path d="M23.17 60.98C23.05 61 22.93 61.03 22.81 61.07 22.69 61.1 22.58 61.14 22.46 61.18 22.35 61.22 22.23 61.27 22.12 61.32 22.01 61.37 21.9 61.41 21.79 61.47 21.68 61.53 21.57 61.58 21.47 61.65 21.37 61.72 21.26 61.78 21.17 61.85L20.88 62.06 20.61 62.3C20.52 62.37 20.44 62.47 20.36 62.55 20.28 62.63 20.19 62.72 20.12 62.81L19.89 63.09 19.69 63.39 19.59 63.54C19.56 63.59 19.53 63.64 19.5 63.69L19.33 64.01C19.27 64.11 19.23 64.23 19.18 64.34L19.04 64.67 18.96 64.47 19.28 64.62C19.39 64.67 19.49 64.72 19.6 64.76L19.93 64.88C20.04 64.93 20.15 64.95 20.27 64.98 20.38 65.01 20.49 65.05 20.61 65.07L20.96 65.14C21.07 65.16 21.19 65.17 21.31 65.18L21.48 65.2 21.66 65.21C21.77 65.21 21.89 65.23 22.01 65.22L22.36 65.22 22.71 65.2C22.83 65.19 22.94 65.17 23.06 65.16 23.3 65.13 23.53 65.09 23.76 65.03 23.99 64.97 24.22 64.91 24.45 64.83 24.34 64.89 24.23 64.94 24.12 64.98 24.01 65.03 23.89 65.07 23.78 65.11 23.55 65.19 23.32 65.25 23.08 65.31 22.96 65.33 22.84 65.35 22.72 65.38L22.36 65.42C22.24 65.43 22.12 65.44 22 65.45 21.88 65.46 21.76 65.45 21.64 65.45L21.46 65.45 21.28 65.44C21.16 65.43 21.04 65.42 20.91 65.41L20.55 65.35C20.43 65.33 20.31 65.3 20.19 65.27 20.07 65.24 19.95 65.22 19.84 65.18L19.49 65.06C19.37 65.02 19.26 64.97 19.15 64.92L18.81 64.77 18.68 64.71 18.74 64.57 18.89 64.22C18.94 64.11 18.98 63.99 19.05 63.88L19.23 63.55C19.26 63.5 19.29 63.44 19.33 63.39L19.44 63.23 19.66 62.92 19.91 62.63C19.99 62.53 20.08 62.45 20.18 62.36 20.27 62.28 20.36 62.18 20.46 62.11L20.76 61.88 21.07 61.68C21.18 61.61 21.29 61.56 21.4 61.5 21.51 61.44 21.63 61.39 21.74 61.34 21.85 61.29 21.97 61.25 22.09 61.21 22.21 61.17 22.33 61.14 22.45 61.1 22.57 61.08 22.69 61.04 22.82 61.03 22.93 61 23.05 60.98 23.17 60.98Z" fill="#D36D22"/><path d="M25.85 64.08C25.78 64.14 25.72 64.2 25.65 64.25 25.59 64.32 25.53 64.38 25.47 64.44 25.41 64.51 25.36 64.57 25.31 64.64 25.29 64.67 25.27 64.71 25.24 64.75 25.22 64.78 25.2 64.82 25.18 64.86 25.16 64.9 25.14 64.93 25.12 64.97 25.11 65.01 25.09 65.05 25.07 65.08 25.04 65.16 25.01 65.23 24.99 65.31 24.97 65.39 24.96 65.47 24.94 65.55 24.93 65.63 24.93 65.71 24.92 65.79L24.78 65.63C24.96 65.65 25.14 65.67 25.32 65.68L25.59 65.69C25.68 65.69 25.77 65.7 25.86 65.69 25.95 65.69 26.04 65.68 26.13 65.68L26.39 65.64C26.43 65.64 26.48 65.62 26.52 65.61 26.56 65.6 26.61 65.59 26.65 65.58 26.74 65.55 26.83 65.52 26.9 65.47 26.87 65.51 26.84 65.54 26.8 65.58L26.69 65.67C26.65 65.7 26.61 65.71 26.57 65.74 26.53 65.76 26.49 65.78 26.44 65.8L26.17 65.89C26.08 65.91 25.98 65.93 25.89 65.95 25.84 65.96 25.8 65.97 25.75 65.97L25.61 65.98 25.32 66C25.13 65.98 24.94 65.97 24.75 65.95L24.6 65.94 24.61 65.79C24.62 65.7 24.62 65.6 24.63 65.5L24.66 65.36C24.67 65.31 24.69 65.27 24.7 65.22 24.73 65.13 24.77 65.04 24.81 64.96L24.88 64.84C24.9 64.8 24.93 64.76 24.96 64.72 24.99 64.68 25.02 64.65 25.05 64.61 25.08 64.58 25.11 64.54 25.15 64.51 25.22 64.45 25.28 64.38 25.36 64.33 25.52 64.23 25.68 64.13 25.85 64.08Z" fill="#D36D22"/><path d="M20.93 68.14C20.93 68.14 20.82 68.39 20.64 68.75 20.55 68.93 20.45 69.14 20.34 69.36 20.28 69.47 20.23 69.59 20.17 69.71 20.11 69.83 20.06 69.95 20 70.07 19.94 70.19 19.89 70.31 19.84 70.43 19.79 70.55 19.73 70.66 19.69 70.78 19.64 70.9 19.59 71 19.55 71.11 19.51 71.21 19.46 71.31 19.43 71.41 19.4 71.5 19.36 71.58 19.33 71.66 19.3 71.74 19.28 71.8 19.26 71.86 19.22 71.97 19.19 72.03 19.19 72.03 19.19 72.03 19.19 71.96 19.19 71.84 19.19 71.78 19.19 71.71 19.21 71.62 19.22 71.54 19.23 71.45 19.25 71.35 19.26 71.24 19.29 71.14 19.32 71.02 19.35 70.91 19.38 70.79 19.42 70.67 19.5 70.43 19.6 70.17 19.71 69.92 19.83 69.68 19.96 69.44 20.09 69.22 20.22 69 20.35 68.8 20.48 68.64 20.73 68.33 20.93 68.14 20.93 68.14Z" fill="#D36D22"/><path d="M25.26 58.69C25.26 58.69 25.01 58.73 24.66 58.78 24.48 58.81 24.27 58.84 24.07 58.89 24.02 58.9 23.97 58.92 23.93 58.94 23.92 58.95 23.9 58.96 23.9 58.96 23.9 58.96 23.91 58.96 23.91 58.94 23.91 58.94 23.91 58.94 23.91 58.93L23.91 58.93 23.91 58.93C23.91 58.93 23.91 58.88 23.91 58.9L23.91 58.9 23.91 58.92C23.91 58.93 23.91 58.96 23.91 58.96 23.91 58.96 23.92 58.96 23.92 58.97 23.92 58.97 23.94 59.01 23.95 59.03 23.97 59.07 24 59.12 24.03 59.17 24.09 59.27 24.16 59.36 24.23 59.45 24.3 59.54 24.37 59.63 24.44 59.72 24.51 59.81 24.58 59.89 24.65 59.96 24.72 60.03 24.78 60.1 24.85 60.17 24.98 60.3 25.09 60.4 25.17 60.47 25.25 60.54 25.3 60.57 25.3 60.57 25.3 60.57 25.29 60.57 25.26 60.56 25.23 60.55 25.19 60.54 25.14 60.52 25.09 60.5 25.03 60.48 24.96 60.43 24.89 60.4 24.82 60.35 24.74 60.3 24.59 60.2 24.41 60.06 24.24 59.9 24.16 59.82 24.07 59.73 23.99 59.64 23.91 59.55 23.83 59.44 23.76 59.34 23.72 59.28 23.69 59.23 23.66 59.16 23.65 59.12 23.63 59.11 23.62 59.05 23.61 59.02 23.61 59 23.6 58.97 23.6 58.94 23.6 58.94 23.6 58.92L23.6 58.9 23.6 58.9C23.6 58.93 23.6 58.87 23.6 58.87L23.6 58.86 23.6 58.84C23.6 58.83 23.61 58.82 23.61 58.81 23.63 58.78 23.65 58.75 23.67 58.73 23.71 58.69 23.75 58.68 23.79 58.66 23.86 58.63 23.92 58.62 23.99 58.61 24.11 58.59 24.23 58.59 24.33 58.58 24.44 58.58 24.54 58.58 24.63 58.59 25.02 58.63 25.26 58.69 25.26 58.69Z" fill="#D36D22"/></g><g opacity="0.5"><path d="M39.5 37.86C39.11 40.31 41.27 40.12 42.93 38.84 42.93 43.84 46.36 41.49 47.54 40.7 46.85 44.03 49.7 42.86 50.58 42.17 50.87 45.31 54.4 44.43 56.07 42.96 57.64 44.14 59.21 42.86 59.7 42.28 61.07 44.14 63.62 44.53 64.41 42.48 65.88 43.56 66.86 42.18 67.35 41.4 68.43 42.18 70.39 41.5 70.39 40.91 70.39 40.91 71.57 41.5 71.76 39.64 71.88 38.46 72.63 38.11 73.49 38.33 71.86 37.15 70.34 36.62 70.34 36.62 70.34 36.62 45.88 32.88 40.1 33.6 37.71 33.9 35.72 34.82 34.2 35.79 35.07 35.65 36.03 35.53 36.85 35.53 35.68 37.96 37.44 39.04 39.5 37.86Z" fill="#EB8C3C"/></g><g><g><path d="M38.56 33.54C38.56 33.54 37.67 34.57 37.08 34.79 36.49 35.01 36.6 30.66 38.7 27.56 42.09 22.54 48.96 12.58 52.72 8.81 56.48 5.04 62.54 4.97 64.83 11.02 66.21 13.92 61.62 22.26 66.75 30.44 70.12 34.4 71.35 36.54 70.92 39.16 70.97 40.76 70.49 40.44 69.8 39.69 69.85 41.18 69.43 41.35 68.84 40.97 68.25 40.6 67.4 39.21 67.4 39.21 67.4 39.21 67.03 41.51 65.64 42.41 64.89 41.5 64.3 40.38 64.3 40.38 64.3 40.38 63.61 43.05 62.96 43.27 62.32 43.48 60.39 42.31 59.81 41.02 58.74 42.35 58.1 42.57 57.3 42.89 57.14 41.87 57.08 41.13 57.08 41.13 57.08 41.13 55.53 43.37 52.05 43.48 51.36 41.93 51.2 40.7 51.2 40.7 51.2 40.7 50.02 42 49.16 42 48.31 42 49.32 38.9 49.32 38.9 49.32 38.9 46.65 41.09 44.94 41.04 43.23 40.99 43.92 36.98 43.92 36.98 43.92 36.98 42.1 38.58 41.19 38.64 40.28 38.69 40.98 36.45 40.98 36.45 40.98 36.45 39.27 37.52 38.2 37.26 37.13 36.97 38.56 33.54 38.56 33.54Z" fill="#FCEDD8"/><g><path d="M58.27 18C58.6 19.79 61.24 21.12 58.22 24.28 54.77 27.89 54.45 30.82 56.13 33.74 57.34 35.83 55.73 35.67 54.2 33.82 52.68 31.98 53.08 35.18 51.31 36.38 49.55 37.59 50.75 33.9 50.83 32.37 50.91 30.85 48.51 34.94 47.06 35.18 45.62 35.42 46.82 31.65 47.3 30.37 47.78 29.09 44.57 32.62 42.89 32.69 41.2 32.77 41.77 28.52 42.57 26.44 40.49 28.52 39.7 26.95 40.58 24.78 39.88 25.8 39.24 26.74 38.69 27.55 36.59 30.66 36.48 35.01 37.07 34.78 37.66 34.56 38.55 33.53 38.55 33.53 38.55 33.53 37.12 36.97 38.19 37.24 39.26 37.5 40.97 36.43 40.97 36.43 40.97 36.43 40.27 38.68 41.18 38.62 42.09 38.57 43.91 36.96 43.91 36.96 43.91 36.96 43.22 40.97 44.93 41.02 46.64 41.07 49.31 38.88 49.31 38.88 49.31 38.88 48.3 42 49.16 42 50.02 42 51.19 40.72 51.19 40.72 51.19 40.72 51.35 41.95 52.04 43.5 55.51 43.39 57.07 41.15 57.07 41.15 57.07 41.15 57.13 41.9 57.29 42.91 58.09 42.59 58.73 42.37 59.8 41.04 60.39 42.32 62.31 43.5 62.95 43.29 63.59 43.07 64.29 40.4 64.29 40.4 64.29 40.4 64.88 41.52 65.63 42.43 67.02 41.52 67.39 39.23 67.39 39.23 67.39 39.23 68.24 40.62 68.83 40.99 69.42 41.37 69.85 41.2 69.79 39.71 70.49 40.46 70.97 40.78 70.91 39.18 71.34 36.56 70.11 34.42 66.74 30.46 61.61 22.28 66.21 13.94 64.82 11.04 64.73 10.8 64.63 10.58 64.53 10.36 64.63 10.85 64.04 11.12 63.1 12.55 62.11 14.05 60.53 14.66 60.1 14.09 59.7 13.57 59.49 13.57 59.49 13.57 59.49 13.57 60.72 10.94 59.75 10.5 58.83 10.19 58.17 11.73 58.39 13.04 57.34 12.78 56.42 13.79 56.42 13.79 56.42 13.79 58.96 12.65 59.89 14.97 60.02 15.35 57.89 15.9 58.27 18Z" fill="#FADBBF"/></g><g><path d="M59.8 12.04C59.65 12.75 59.28 13.27 58.99 13.2 58.7 13.13 58.58 12.49 58.74 11.78 58.89 11.07 59.25 10.55 59.55 10.62 59.84 10.69 59.95 11.32 59.8 12.04Z"/><path d="M59.74 11.59C59.7 11.87 59.56 12.08 59.43 12.06 59.3 12.04 59.22 11.8 59.27 11.51 59.31 11.22 59.45 11.01 59.58 11.04 59.7 11.06 59.78 11.3 59.74 11.59Z" fill="#FFFFFF"/></g><path d="M60.6 19.91C63.09 21.73 64.18 21.03 65.07 20.76 65.95 20.5 66.65 19.85 67.05 20.07 67.45 20.28 68.57 20.35 69.19 20.43 69.81 20.51 71.12 21.21 71.14 20.58 70.46 13.21 66.25 10.83 64.83 11.2 63.83 11.46 63.11 13.65 62.15 14.07 61.19 14.5 59.48 15.25 58.89 17.04 58.38 18.37 60.36 19.76 60.6 19.91Z" fill="#FBA31D"/><path d="M61.67 20.55C61.67 20.55 61.91 22.63 58.86 25.04 55.81 27.45 55.77 30.85 58.74 31.98 61.71 33.1 63.63 31.42 64.19 30.77 65.4 31.53 67.48 30.01 67.4 27.33 67.32 24.64 64.75 23.4 64.79 20.91 64 21.14 62.91 21.31 61.67 20.55Z" fill="#EB383B"/><path d="M56.15 13.9C56.15 13.9 56.2 13.86 56.3 13.81 56.4 13.76 56.55 13.68 56.73 13.62 56.91 13.56 57.13 13.49 57.37 13.45 57.49 13.43 57.62 13.41 57.75 13.41 57.88 13.41 58.01 13.41 58.15 13.43 58.28 13.45 58.41 13.47 58.54 13.52 58.67 13.55 58.78 13.61 58.89 13.67 58.94 13.7 59 13.73 59.04 13.77 59.08 13.81 59.13 13.84 59.18 13.88 59.22 13.92 59.26 13.96 59.3 13.99 59.34 14.03 59.37 14.07 59.4 14.1 59.46 14.17 59.52 14.25 59.56 14.32 59.6 14.39 59.64 14.45 59.66 14.5 59.71 14.6 59.73 14.66 59.73 14.66 59.73 14.66 59.69 14.61 59.63 14.51 59.6 14.47 59.55 14.41 59.51 14.36 59.46 14.3 59.4 14.23 59.34 14.17 59.3 14.14 59.27 14.1 59.23 14.07 59.19 14.04 59.15 14 59.11 13.97 59.07 13.94 59.02 13.91 58.97 13.88 58.92 13.85 58.87 13.82 58.82 13.79 58.72 13.74 58.6 13.7 58.49 13.66 58.37 13.62 58.25 13.6 58.13 13.58 57.89 13.55 57.63 13.56 57.4 13.58 57.17 13.61 56.95 13.65 56.76 13.7 56.39 13.8 56.15 13.9 56.15 13.9Z" fill="#E2AD6D"/><g><path d="M61.07 16.42C61.07 16.42 60.94 16.51 60.81 16.66 60.77 16.7 60.74 16.74 60.7 16.79 60.67 16.83 60.63 16.88 60.6 16.93 60.57 16.98 60.54 17.04 60.51 17.09 60.48 17.15 60.45 17.21 60.43 17.27 60.41 17.33 60.38 17.39 60.37 17.46 60.35 17.52 60.33 17.58 60.32 17.64 60.3 17.7 60.29 17.76 60.28 17.82 60.27 17.88 60.26 17.93 60.25 17.98 60.23 18.09 60.22 18.18 60.21 18.24 60.2 18.3 60.19 18.34 60.19 18.34 60.19 18.34 60.17 18.31 60.15 18.25 60.14 18.22 60.13 18.18 60.11 18.14 60.1 18.09 60.08 18.05 60.07 17.99 60.06 17.93 60.05 17.87 60.04 17.81 60.04 17.74 60.04 17.68 60.04 17.6 60.04 17.53 60.06 17.45 60.07 17.38 60.08 17.3 60.11 17.23 60.13 17.16 60.16 17.09 60.2 17.01 60.24 16.95 60.28 16.88 60.33 16.82 60.38 16.77 60.43 16.71 60.48 16.67 60.54 16.63 60.59 16.59 60.65 16.56 60.7 16.53 60.8 16.48 60.9 16.46 60.96 16.44 61.03 16.42 61.07 16.42 61.07 16.42Z" fill="#BF7008"/><path d="M60.4 17.04C60.4 17.04 60.49 17.17 60.66 17.39 60.74 17.5 60.85 17.63 60.98 17.78 61.04 17.85 61.11 17.93 61.19 18.01 61.26 18.09 61.34 18.17 61.43 18.25 61.6 18.42 61.79 18.58 62 18.74 62.21 18.9 62.46 19.04 62.72 19.16 62.79 19.19 62.85 19.21 62.92 19.23L63.02 19.26C63.05 19.27 63.09 19.28 63.13 19.28 63.2 19.29 63.27 19.31 63.34 19.32 63.42 19.33 63.49 19.33 63.57 19.34 63.87 19.36 64.18 19.36 64.5 19.34 64.81 19.32 65.12 19.28 65.43 19.23 65.74 19.18 66.05 19.14 66.38 19.15 66.46 19.16 66.54 19.16 66.63 19.19 66.67 19.2 66.71 19.21 66.75 19.23L66.81 19.26 66.83 19.27 66.85 19.29C66.98 19.35 67.1 19.42 67.22 19.49 67.34 19.56 67.46 19.61 67.57 19.67 67.68 19.72 67.8 19.78 67.9 19.83 68.11 19.94 68.32 20.02 68.49 20.1 68.67 20.18 68.82 20.25 68.95 20.31 69.21 20.42 69.36 20.48 69.36 20.48 69.36 20.48 69.21 20.44 68.93 20.36 68.8 20.32 68.63 20.27 68.45 20.21 68.26 20.15 68.05 20.08 67.83 19.99 67.61 19.9 67.35 19.82 67.1 19.7 66.97 19.64 66.85 19.58 66.72 19.52L66.7 19.51C66.68 19.5 66.68 19.5 66.67 19.5L66.63 19.48C66.61 19.47 66.58 19.46 66.54 19.46 66.48 19.44 66.41 19.44 66.35 19.44 66.07 19.44 65.77 19.5 65.46 19.55 65.15 19.6 64.83 19.65 64.5 19.67 64.18 19.69 63.85 19.69 63.52 19.66 63.44 19.65 63.36 19.64 63.29 19.63 63.21 19.62 63.13 19.6 63.05 19.58 63.01 19.57 62.97 19.56 62.93 19.55L62.82 19.5C62.74 19.47 62.67 19.45 62.6 19.42 62.32 19.29 62.07 19.11 61.85 18.93 61.74 18.84 61.64 18.75 61.55 18.65 61.46 18.55 61.37 18.47 61.29 18.37 61.13 18.19 61 18.01 60.89 17.84 60.78 17.68 60.69 17.53 60.62 17.41 60.46 17.18 60.4 17.04 60.4 17.04Z" fill="#BF7008"/></g><g><path d="M61.89 22.04C62.36 21.21 62.6 21.61 63.03 21.8 63.46 22 63.98 21.84 64.29 21.6 64.61 21.36 64.84 22.82 66.02 24 66.02 24 66.02 24 66.03 24.01 65.39 23.06 64.77 22.13 64.79 20.9 63.99 21.14 62.91 21.3 61.66 20.54 61.66 20.54 61.79 21.66 60.66 23.2 61.13 22.92 61.6 22.54 61.89 22.04Z" fill="#D32932"/><path d="M65.63 28.15C65.77 26.91 64.52 24.91 64.52 24.91 65.42 29.54 60.74 31.86 58.54 29.84 57.15 28.56 57.58 26.85 58.21 25.61 55.83 27.96 56.01 30.93 58.74 31.97 61.71 33.09 63.63 31.41 64.19 30.76 65.4 31.52 67.48 30 67.4 27.32 67.39 26.92 67.32 26.56 67.22 26.22 67.82 28.71 65.5 29.32 65.63 28.15Z" fill="#D32932"/></g><path d="M66.12 25.45C66.12 25.45 66.91 26.48 66.61 27.76 66.46 28.55 67.25 27.66 67.1 26.63 66.95 25.6 66.02 24.61 66.12 25.45Z" fill="#EB383B"/><path d="M63.76 25.76C63.76 25.76 63.56 29.37 60.59 29.37 59.43 29.45 61.83 30.66 63.24 28.93 64.64 27.2 64.08 25 63.76 25.76Z" fill="#EB383B"/><path d="M65.52 11.48C65.52 11.48 68.88 13.35 69.92 17.68 70.17 19.12 70.17 12.84 65.52 11.48Z" fill="#FBA31D"/><path d="M56.26 14.01C56.26 14.01 58.4 13.2 59.7 14.81 59.35 13.84 58.15 13.01 56.26 14.01Z" fill="#FFFFFF"/><g><path d="M69.91 34.66C70.92 37.17 70.43 38.66 70.09 38.39 69.69 38.07 68.73 36.22 68.73 36.22 68.73 36.22 69.61 40.07 68.81 39.59 68.01 39.11 66.81 36.78 66.81 36.78 66.81 36.78 66.17 41.35 65.61 41.03 65.05 40.71 63.44 38.38 63.44 38.38 63.44 38.38 63.6 43.11 62.24 42.07 60.87 41.03 60.07 39.1 60.07 39.1 60.07 39.1 58.31 42.15 57.98 41.43 57.66 40.71 57.9 38.94 57.9 38.94 57.9 38.94 53.09 42.95 52.77 41.75 52.45 40.54 52.29 38.54 52.29 38.54 52.29 38.54 49.88 41.91 49.8 40.63 49.72 39.34 50.68 37.18 50.68 37.18 50.68 37.18 48.19 39.27 45.39 39.51 44.67 37.75 45.07 35.42 45.07 35.42 45.07 35.42 41.94 38.07 42.02 36.95 42.18 35.5 42.74 34.3 42.74 34.3 42.74 34.3 38.89 36.95 38.81 35.83 38.73 34.22 39.69 32.14 39.69 32.14 39.69 32.14 37.68 33.98 37.44 32.94 37.33 32 37.35 31.03 37.4 30.23 36.58 32.68 36.63 34.96 37.07 34.8 37.66 34.58 38.55 33.55 38.55 33.55 38.55 33.55 37.12 36.99 38.19 37.26 39.26 37.52 40.97 36.45 40.97 36.45 40.97 36.45 40.27 38.7 41.18 38.64 42.09 38.59 43.91 36.98 43.91 36.98 43.91 36.98 43.22 40.99 44.93 41.04 46.64 41.09 49.31 38.9 49.31 38.9 49.31 38.9 48.3 42 49.16 42 50.02 42 51.19 40.72 51.19 40.72 51.19 40.72 51.35 41.95 52.04 43.5 55.51 43.39 57.07 41.15 57.07 41.15 57.07 41.15 57.13 41.9 57.29 42.91 58.09 42.59 58.73 42.37 59.8 41.04 60.39 42.32 62.31 43.5 62.95 43.29 63.59 43.07 64.29 40.4 64.29 40.4 64.29 40.4 64.88 41.52 65.63 42.43 67.02 41.52 67.39 39.23 67.39 39.23 67.39 39.23 68.24 40.62 68.83 40.99 69.42 41.37 69.85 41.2 69.79 39.71 70.49 40.46 70.97 40.78 70.91 39.18 71.17 37.65 70.86 36.3 69.91 34.66Z" fill="#EABC96"/></g><g><path d="M63.68 9.52C63.69 9.22 63.74 9.17 63.83 9.08 61.12 4.87 56.07 5.46 52.73 8.81 52.21 9.33 51.63 9.97 51.01 10.69 52.7 9.03 58.47 4.18 63.68 9.52Z" fill="#FADBBF"/></g><path d="M50.76 10.93C50.76 10.93 48.69 10 49.37 8.02 49.83 6.96 50.8 7.3 50.8 7.3 50.8 7.3 50.13 5.57 51.48 4.34 52.62 3.46 53.51 4.72 53.51 4.72 53.51 4.72 53.85 0.62 57.86 0.03 61.03-0.35 61.03 2.18 60.86 2.9 63.65 1.21 65.76 1.04 66.39 2.82 67.02 4.6 65.8 7.97 63.56 8.82 62.58 8.69 58.91 2.57 50.76 10.93Z" fill="#EB383B"/><g opacity="0.5"><path d="M66.08 18.34C64.56 18.5 62.82 18.09 61.99 17.13 60.22 14.4 63.51 15.13 63.76 13.6 63.99 12.1 64.6 11.43 65.25 11.17 65.1 11.16 64.95 11.17 64.83 11.2 63.83 11.46 63.11 13.65 62.15 14.07 61.19 14.5 59.48 15.25 58.89 17.04 58.38 18.35 60.36 19.74 60.6 19.9 60.98 20.18 61.32 20.4 61.64 20.57 60.62 19.43 61.27 19.08 61.83 19.48 62.47 19.94 62.92 20.07 64.02 20.17 65.12 20.28 66.21 19.57 66.35 19.96 66.37 20.03 66.35 20.1 66.31 20.19 66.61 20.05 66.85 19.96 67.04 20.06 67.44 20.27 68.56 20.34 69.18 20.42 69.76 20.49 70.94 21.11 71.11 20.68 68.7 20.13 67.21 18.22 66.08 18.34Z" fill="#FBA31D"/></g><g><path d="M66.38 2.82C66.15 2.17 65.71 1.78 65.12 1.63 65.85 2.28 66.24 3.41 65.4 5.1 63.53 8.47 61.12 3.28 55.75 6.27 51.81 8.46 51.41 9.59 50.32 10.66 50.57 10.84 50.77 10.92 50.77 10.92 58.92 2.56 62.59 8.68 63.56 8.81 65.79 7.97 67.01 4.6 66.38 2.82Z" fill="#D32932"/></g><g><path d="M53.52 5.54C53.49 5.26 53.48 4.97 53.49 4.7 53.38 4.56 52.72 3.76 51.84 4.12 52.53 4.23 53.17 4.84 53.52 5.54Z" fill="#D32932"/><path d="M51.34 8.06C51.1 7.8 50.92 7.54 50.78 7.29 50.65 7.25 49.89 7.07 49.45 7.86 49.98 7.61 50.64 7.54 51.34 8.06Z" fill="#D32932"/></g><path d="M65 1.99C65 1.99 63.44 1.72 61.51 3.42 62.09 2.22 64.38 1.22 65 1.99Z" fill="#FFFFFF"/><path d="M57.85 0.49C57.85 0.49 54.74 1.25 54.1 4.91 53.75 2.88 55.58 0.56 57.85 0.49Z" fill="#FFFFFF"/><path d="M51.95 4.61C51.95 4.61 50.56 5.77 51.53 7.68 50.85 6.97 50.56 5.19 51.95 4.61Z" fill="#FFFFFF"/></g><path d="M52.29 10.72C52.29 10.72 46.36 17.78 42.43 24.35 43.3 21.55 48.36 13.6 52.29 10.72Z" fill="#FFFFFF"/></g><g opacity="0.5"><path d="M33.92 66.44C33.25 66.33 33.7 63.04 33.7 63.04 33.7 63.04 31.36 63.77 31.03 63.6 30.7 63.43 31.09 62.99 32.09 61.93 28.58 61.88 26.46 59.82 26.52 59.43 26.58 59.04 27.63 58.04 30.36 57.93 29.36 57.32 28.69 55.7 28.69 55.7 28.69 55.7 29.03 55.64 30.7 56.09 29.14 54.08 29.96 50.53 30.4 50.08 30.85 49.63 31.12 49.72 33.56 53.69 31.67 48.28 31.49 43.04 30.88 38.64 30.88 38.64 30.06 32.92 30 30.09 29.95 27.26 30.4 25.29 28.43 24.43 26.46 23.57 24.54 23.88 23.78 25.29 23.02 26.71 23.27 31.16 23.27 31.16 23.27 31.16 22.26 26.66 22.06 25.35 21.86 24.04 18.42 24.74 17.41 25.6 16.4 26.46 17.91 31.46 17.91 31.46 17.91 31.46 16.14 25.85 14.32 25.19 12.5 24.53 9.16 25.8 7.7 27.97 6.23 30.14 9.47 35.55 9.47 35.55 9.47 35.55 7.25 32.37 5.73 30.09 4.22 27.81 1.54 30.59 1.03 32.82 0.52 35.05 3.71 39.59 3.71 39.59 3.71 39.59 2.19 38.17 1.74 37.27 1.29 36.36 0.98 36.77 0.28 39.14-0.42 41.52 0.03 43.54 3.82 47.23 3.82 47.23 1.06 42.35 1.47 40.19 1.88 38.02 3.12 39.77 6.63 43.59 10.14 47.41 0.95 35.64 2.71 32.45 4.46 29.25 5.8 34.41 11.58 40.08 17.36 45.76 6.84 29.87 10.24 27.28 13.65 24.7 15.3 30.58 18.5 36.57 21.7 42.56 18.6 33.27 17.78 27.49 17.37 25.53 20.15 25.74 20.77 25.84 21.39 25.94 23.66 41.63 27.79 49.78 29.54 52.77 27.07 49.99 23.97 46.27 20.88 42.56 24.18 48.33 27.17 52.87 30.16 57.41 23.57 55.43 19.49 50.95 15.41 46.48 19.95 53.18 21.91 55.86 23.87 58.54 19.84 54.42 14.74 50.6 9.64 46.78 17.89 55.14 21.5 58.13 25.11 61.12 25.52 62.88 27.79 62.98 30.06 63.09 28.08 65.68 26.54 65.62 25.01 65.56 25.62 65.04 26.24 64.01 26.86 62.98 25.1 64.73 21.9 64.84 18.7 64.94 20.04 63.09 22.32 61.74 23.76 60.91 20.46 60.71 18.4 63.49 17.06 65.35 17.26 66.07 14.38 66.9 14.9 64.22 15.72 62.36 17.06 61.53 15.14 61.47 13.47 61.44 12.3 61.16 12.14 61.32 12.04 61.46 12.04 61.54 12.04 61.88 13.1 62.22 15.34 62.15 13.79 63.51 12.73 66.96 12.69 67.37 12.65 67.79 14.62 68.2 16.1 67.86 15.42 69.04 14.93 72.48 15.34 72.67 15.76 72.86 18.56 72.29 18.56 72.29 18.51 72.34 18.46 72.38 18.42 72.42 18.71 72.28 18.98 72.15 19.22 72.03 17.95 74.39 22.76 74.68 23.94 72.91 23.94 74.88 26.1 73.5 26.59 70.36 27.47 72.62 29.14 72.33 29.83 69.09 29.83 72.13 30.91 74.2 31.6 74.2 32.29 74.2 33.86 73.41 34.45 69.29 35.73 71.65 36.12 64.1 36.12 64.1 36.12 64.1 34.58 66.55 33.92 66.44Z" fill="#D36D22"/></g><g opacity="0.5"><path d="M33.92 66.44C33.25 66.33 33.7 63.04 33.7 63.04 33.7 63.04 31.36 63.77 31.03 63.6 30.7 63.43 31.09 62.99 32.09 61.93 28.58 61.88 26.46 59.82 26.52 59.43 26.58 59.04 27.63 58.04 30.36 57.93 29.36 57.32 28.69 55.7 28.69 55.7 28.69 55.7 29.03 55.64 30.7 56.09 29.14 54.08 29.96 50.53 30.4 50.08 30.85 49.63 31.12 49.72 33.56 53.69 31.67 48.28 31.49 43.04 30.88 38.64 30.88 38.64 30.06 32.92 30 30.09 29.95 27.26 30.4 25.29 28.43 24.43 27.82 24.17 27.21 24.01 26.65 23.97 26.84 28.64 27.6 40.57 30.49 47.45 28.6 45.56 27.97 50.97 29.23 54.12 27.21 51.73 29.86 57.01 25.83 56.01 21.8 55 25.83 57.52 27.34 57.9 28.85 58.28 24.39 59.3 25.3 60.61 26.21 61.93 30.49 62.56 30.49 62.56 30.49 62.56 29.61 63.82 30.11 64.95 30.61 66.08 32.38 64.45 32.38 64.45 32.38 64.45 33.13 68.85 32 70.49 30.87 72.13 30.11 67.09 30.11 67.09 30.11 67.09 28.85 73.01 26.33 67.85 26.83 72.25 24.82 72.88 24.82 69.36 23.81 74.9 18.37 73.22 20.34 69.4 19.18 69.86 16.89 71.53 15.17 71.77 15.15 72.28 15.19 72.65 15.32 72.7 15.74 72.89 18.54 72.32 18.54 72.32 18.49 72.37 18.44 72.41 18.4 72.45 18.69 72.31 18.96 72.18 19.2 72.06 17.93 74.42 22.74 74.71 23.92 72.94 23.92 74.91 26.08 73.53 26.57 70.39 27.45 72.65 29.12 72.36 29.81 69.12 29.81 72.16 30.89 74.23 31.58 74.23 32.27 74.23 33.84 73.44 34.43 69.32 35.71 71.68 36.1 64.13 36.1 64.13 36.1 64.13 34.58 66.55 33.92 66.44Z" fill="#D36D22"/></g><path d="M4.01 43.74C4.01 43.74 6.66 48.93 16.07 55.11 19.21 57.37 5.29 51.69 4.01 43.74Z" fill="#D36D22"/><path d="M5.29 36.39C5.29 36.39 10.98 45.02 15.98 49.82 19.41 53.35 8.52 45.41 5.29 36.39Z" fill="#D36D22"/><path d="M12.1 30.94C12.1 30.94 15.52 42.58 22.18 50.31 26.09 54.81 13.17 44.24 12.1 30.94Z" fill="#D36D22"/><g><path d="M50.98 82.8C51.73 83.55 51.73 84.3 50.34 83.66 48.95 83.02 47.99 83.34 47.99 83.34 47.99 83.34 46.49 85.16 46.38 84.41 46.27 83.66 48.63 82.48 46.17 83.02 38.9 85.27 32.48 82.17 31.41 80.35 31.09 81.42 30.23 83.66 29.7 81.1 27.45 83.03 28.42 81.74 28.74 80.14 26.92 81.1 27.99 79.29 28.63 78.64 26.17 77.15 26.28 75.97 26.28 75.97 24.14 77.79 22.64 78.54 22.64 78.54 22.64 78.54 20.93 76.61 21.78 74.79 19.75 75.33 19.32 74.69 18.57 73.62 17.97 73.84 17.32 74.26 16.71 74.74 16.56 75.16 16.6 75.38 16.6 75.38 16.6 75.38 17.66 74.47 18.34 74.51 16.78 76.89 18.15 79.73 18.15 79.73 18.15 79.73 19.32 78.41 20.46 77.54 20.42 78.45 21.82 81.59 22.62 81.59 23.42 81.59 25.13 78.81 25.13 78.81 25.13 78.81 26.48 79.79 26.8 80.15 27.13 80.52 25.78 82.24 25.78 82.24 25.78 82.24 27.45 81.78 27.59 81.92 27.73 82.06 27.13 83.17 27.13 83.17 27.13 83.17 28.94 82.48 29.4 82.89 29.86 83.31 30.79 84.19 30.79 84.19 30.79 84.19 31.07 82.57 31.76 82.75 36.73 86.09 45.54 84.74 45.54 84.74 45.54 84.74 45.96 86.23 46.19 86.18 46.42 86.13 47.16 85.3 47.16 85.3 47.16 85.3 48.28 86.13 48.55 86.23 48.83 86.32 49.06 85.72 49.2 84.98 52.36 85.58 53.28 84.98 53.28 84.98L52.66 83.88C64.39 80.85 70.49 76.36 73.57 71.72 73.55 71.71 73.53 71.7 73.51 71.7 67.23 81.19 50.23 82.05 50.98 82.8Z" fill="#CE6719"/></g><g opacity="0.5"><path d="M71.17 59.79C70 62.67 66.48 65.76 65.95 62.88 61.47 68.53 59.45 65.33 62.11 61.17 57.95 65.11 54.44 66.93 57.21 60.85 54.97 63.41 51.67 66.18 51.14 65.33 50.61 64.48 51.77 62.45 54.22 59.78 51.56 61.06 48.57 61.06 55.71 54.77 53.9 55.73 50.91 55.94 56.67 50.82 54.43 52.1 50.27 54.87 50.59 51.99 50.81 50 53.74 46.83 55.52 45.07 55.13 45.27 54.89 45.4 54.89 45.4 54.89 45.4 47.58 49.56 46.16 56.37 46.06 57.39 49.61 54.75 49.61 54.75 45.14 59.12 42.3 65.11 45.55 64.5 44.23 67.35 43.92 68.46 44.33 68.67 44.73 68.87 47.07 68.26 47.07 68.26 47.07 68.26 44.66 71.87 45.45 73.1 46.24 74.33 50.53 72.88 52.07 72.13 50.27 73.27 50.36 73.67 51.89 73.58 53.42 73.49 58.51 71.3 59.87 70.55 58.91 71.69 58.69 72.13 59.61 72.13 60.53 72.13 63.92 71.61 67.71 68.29 66.48 69.52 66.69 69.63 66.91 69.68 67.12 69.73 71.26 67.56 72.57 60.48 71.78 61.02 71.17 60.66 71.17 59.79Z" fill="#D36D22"/></g><path d="M72.26 47.13C72.26 47.13 75.47 47.45 73.38 54.67 72.58 57.72 78.03 47.45 72.26 47.13Z" fill="#D36D22"/></g></svg>