<svg width="68.4" height="68.4" viewBox="0 0 68.4 68.4" xmlns="http://www.w3.org/2000/svg" xmlns:xlink="http://www.w3.org/1999/xlink" xml:space="preserve" overflow="hidden"><defs></defs><g><linearGradient x1="0" y1="34.1992" x2="68.3984" y2="34.1992" gradientUnits="userSpaceOnUse" id="SVGID_1_"><stop offset="0" stop-color="#0071BC"/><stop offset="0.4802" stop-color="#009FE2"/><stop offset="1" stop-color="#00BBFF"/></linearGradient><circle cx="34.2" cy="34.2" r="34.2" fill="url(#SVGID_1_)"/><path d="M58.21 28.73C50.28 22.05 35.87 9.61 35.73 9.49L34.2 8.17 32.67 9.49C32.53 9.61 18.12 22.05 10.07 28.79 9.05 29.71 8.46 31 8.46 32.32 8.46 34.9 10.56 37 13.14 37L15.48 37 15.48 51.04C15.48 53.62 17.58 55.72 20.16 55.72L27.18 55.72 48.24 55.72C50.82 55.72 52.92 53.62 52.92 51.04L52.92 36.99 55.26 36.99C57.84 36.99 59.94 34.89 59.94 32.31 59.94 30.92 59.29 29.6 58.21 28.73ZM38.88 51.03 29.52 51.03 29.52 39.33 38.88 39.33 38.88 51.03ZM48.24 32.32 48.25 51.04C48.24 51.04 41.23 51.04 41.23 51.04L41.23 36.99 27.18 36.99 27.18 51.03 20.16 51.03 20.16 32.32 13.14 32.32C19.61 26.91 30.26 17.75 34.2 14.35 38.14 17.75 48.79 26.91 55.26 32.32 55.26 32.32 48.24 32.32 48.24 32.32Z" fill="#FFFFFF"/></g></svg>