<svg width="88.33" height="100" viewBox="0 0 88.33 100" xmlns="http://www.w3.org/2000/svg" xmlns:xlink="http://www.w3.org/1999/xlink" xml:space="preserve" overflow="hidden"><defs></defs><g><g><path d="M86.54 63.57C86.84 63.52 87.13 63.47 87.42 63.37 87.53 63.33 87.58 63.19 87.51 63.09 86.9 62.21 86.07 61.36 85.01 61.05 84.35 60.86 83.48 60.6 82.77 60.79 82.89 60.56 83 60.33 83.13 60.11 83.2 59.98 83.06 59.87 82.94 59.9 82.36 60.04 81.67 60.32 81.2 60.77 81.03 60.32 80.86 59.89 80.82 59.53 80.81 59.4 80.64 59.35 80.56 59.45 79.84 60.23 79.33 61.2 78.8 62.12 78.27 62.58 77.87 63.28 77.56 63.84 77.3 64.31 77.07 64.8 76.84 65.29 76.15 66.79 75.53 68.32 74.99 69.87 74.49 71.29 74.01 72.77 73.85 74.28 73.79 74.83 73.71 76.15 74.5 76.27 75.54 76.73 76.64 76.79 77.73 76.45 78.37 76.25 78.99 75.92 79.6 75.62 79.82 75.52 80.04 75.41 80.27 75.31 80.14 75.52 80.01 75.71 79.87 75.91 79.78 76.04 79.86 76.27 80.04 76.23 81.68 75.94 83.6 75.93 84.97 74.87 85.46 74.49 85.85 73.97 86.17 73.44 86.65 72.67 87.11 71.87 87.52 71.06 88.72 68.72 88.74 65.34 86.54 63.57Z" fill="#C0C3C2"/><path d="M86.54 63.57C86.84 63.52 87.13 63.47 87.42 63.37 87.53 63.33 87.58 63.19 87.51 63.09 87.49 63.06 87.47 63.03 87.45 63 86.82 63.05 86.19 63 85.57 63.13 87.11 64.02 88.46 66.14 87.85 67.88 87.7 68.31 86.53 71.21 85.89 70.05 85.43 70.38 85.02 70.77 84.57 71.12 84.51 71.16 84.4 71.16 84.39 71.07 84.27 70.51 84.34 69.94 84.25 69.39 83.37 69.88 81.41 71.39 81.57 69.45 81.61 69 81.69 68.57 81.76 68.13 81.84 67.62 81.81 67.1 81.86 66.59 81.97 65.52 82.32 64.58 82.83 63.64 82.4 63.65 81.98 63.75 81.55 63.81 81.48 63.82 81.41 63.78 81.41 63.7 81.44 63.1 81.65 62.53 81.98 62.04 81.5 62.15 80.72 62.36 80.5 61.94 80.13 61.24 80.37 60.22 80.62 59.43 80.6 59.44 80.59 59.45 80.58 59.46 79.86 60.24 79.35 61.21 78.82 62.13 78.29 62.59 77.89 63.29 77.58 63.85 77.32 64.32 77.09 64.81 76.86 65.3 76.17 66.8 75.55 68.33 75.01 69.88 74.51 71.3 74.03 72.78 73.87 74.29 73.81 74.84 73.73 76.16 74.52 76.28 75.56 76.74 76.66 76.8 77.75 76.46 78.39 76.26 79.01 75.93 79.62 75.63 79.84 75.53 80.06 75.42 80.29 75.32 80.16 75.53 80.03 75.72 79.89 75.92 79.8 76.05 79.88 76.28 80.06 76.24 81.7 75.95 83.62 75.94 84.99 74.88 85.48 74.5 85.87 73.98 86.19 73.45 86.67 72.68 87.13 71.88 87.54 71.07 88.72 68.72 88.74 65.34 86.54 63.57Z" fill="#8D7B63" opacity="0.3"/><path d="M86.55 72.76C85.89 73.56 85.13 74.37 84.12 74.72 83.17 75.04 82.18 75.32 81.17 75.4 81.08 75.41 81.04 75.3 81.08 75.23 81.57 74.31 82.16 73.45 82.61 72.5 81.94 73.06 81.32 73.68 80.6 74.17 80.04 74.56 79.32 75.01 78.63 75.12 77.47 75.29 79.16 72.35 79.27 72.08 80.22 69.88 81.09 67.41 80.58 65 80.34 63.87 79.95 62.77 79.79 61.62 79.73 61.18 79.79 60.74 79.9 60.32 79.5 60.9 79.16 61.53 78.8 62.14 78.27 62.6 77.87 63.3 77.56 63.86 77.3 64.33 77.07 64.82 76.84 65.31 76.15 66.81 75.53 68.34 74.99 69.89 74.49 71.31 74.01 72.79 73.85 74.3 73.79 74.85 73.71 76.17 74.5 76.29 75.54 76.75 76.64 76.81 77.73 76.47 78.37 76.27 78.99 75.94 79.6 75.64 79.82 75.54 80.04 75.43 80.27 75.33 80.14 75.54 80.01 75.73 79.87 75.93 79.78 76.06 79.86 76.29 80.04 76.25 81.68 75.96 83.6 75.95 84.97 74.89 85.46 74.51 85.85 73.99 86.17 73.46 86.36 73.15 86.56 72.82 86.74 72.5 86.68 72.6 86.62 72.68 86.55 72.76Z" fill="#8D7B63" opacity="0.3"/><path d="M79.7 62.18C79.11 59.37 77.85 56.73 76.04 54.5 75.09 53.34 73.98 52.28 72.88 51.27 72.31 50.74 71.7 50.24 71.06 49.79 71.04 49.77 71.02 49.75 71 49.73 68.89 47.48 66.44 45.63 63.76 44.12 61.08 42.6 58 41.48 54.88 41.95 53.36 42.18 51.86 42.8 50.49 43.49 49.12 44.18 47.95 45.13 46.65 45.94 45.48 46.67 44.22 47.21 42.91 47.65 42.22 47.36 41.51 47.09 40.78 46.87 39.18 46.39 37.54 46.1 35.88 45.93 32.66 45.6 29.36 45.7 26.15 45.97 23.17 46.23 20.2 46.87 17.63 48.47 15.75 49.64 14.04 51.28 12.6 52.95 11.29 54.46 10.23 56.16 9.47 58.01 9.17 58.37 8.86 58.72 8.56 59.08 7.93 59.84 7.12 60.54 6.6 61.37 6.11 62.17 5.93 63.12 5.56 63.98 5.55 64.01 5.56 64.03 5.57 64.05 5.57 64.08 5.59 64.11 5.63 64.11 5.85 64.11 6.06 64.04 6.26 63.95 5.5 64.78 4.95 65.8 4.51 66.84 4.16 67.66 3.58 68.56 3.76 69.48 3.84 69.9 4.08 70.28 4.26 70.67 4.5 71.17 4.68 71.69 4.9 72.19 4.91 72.21 4.91 72.23 4.91 72.25 4.92 72.27 4.93 72.28 4.94 72.28 4.95 72.31 4.96 72.33 4.97 72.36 5 72.43 5.11 72.41 5.11 72.33 5.11 72.24 5.09 72.15 5.07 72.06 5.16 71.75 5.26 71.48 5.39 71.21 5.32 72.62 5.73 73.99 6.77 75.02 7.48 75.73 8.34 76.29 9.2 76.79 9.45 76.93 9.71 77.07 9.96 77.2 10.27 78.55 10.79 79.86 11.33 81.13 11.92 82.51 12.58 83.92 13.55 85.07 14.54 86.24 15.78 87.21 16.87 88.29 17.5 88.91 18.14 89.53 18.65 90.25 18.9 90.61 19.13 90.98 19.36 91.36 19.15 91.63 19.06 91.97 18.9 92.28 18.38 91.74 17.76 91.33 17.07 91 16.47 90.72 15.75 90.46 15.09 90.7 14.63 90.87 14.42 91.31 14.3 91.78 13.21 91.72 12.23 91.73 11.63 92.87 11.12 93.84 11.2 95.2 11.41 96.23 11.62 97.28 12.18 98.34 13.18 98.83 13.81 99.14 14.58 98.94 15.24 98.58 15.37 98.66 15.52 98.73 15.71 98.77 16.1 98.87 17.03 99.05 17.67 98.91 18.2 99.32 18.9 99.55 19.55 99.59 20.13 99.63 20.69 99.51 21.21 99.3 21.23 99.33 21.28 99.34 21.32 99.32 23.37 98.13 25.34 96.16 26.07 93.85 26.21 93.39 26.22 92.91 26.19 92.44 26.73 92.87 27.24 93.32 27.83 93.67 28.25 93.92 28.67 94.09 29.11 94.19 28.85 94.63 28.64 95.09 28.41 95.57 28.04 96.36 27.9 97.15 28.35 97.95 28.79 98.73 29.47 99.32 30.27 99.71 30.86 100 31.48 99.97 32.05 99.77 32.39 100.01 32.82 100.09 33.39 99.98 34 99.85 34.51 99.55 35 99.18 35.1 99.11 35.2 99.03 35.3 98.96 37.25 100.15 39.93 99 41.16 97.26 41.87 96.26 41.98 95.2 41.85 94.02 41.81 93.67 41.74 93.28 41.62 92.91 42.89 93.56 44.39 93.99 45.73 93.57 46.59 93.3 47.35 92.75 48.14 92.34 48.74 92.03 49.37 91.83 50.02 91.68 49.61 92.65 49.51 93.73 49.95 94.58 50.38 95.41 51.33 95.88 52.08 96.37 52.74 96.79 53.42 96.76 54.06 96.5 54.15 96.59 54.24 96.68 54.33 96.76 54.99 97.37 55.8 97.18 56.59 96.93 56.87 97.3 57.28 97.55 57.88 97.59 58.62 97.63 59.37 97.45 60.09 97.29 61.02 97.09 61.96 96.97 62.9 96.85 64.58 96.63 66.27 96.4 67.88 95.86 69.33 95.37 70.48 94.52 71.36 93.26 71.39 93.22 71.39 93.19 71.38 93.16 71.53 93 71.67 92.83 71.79 92.66 72.29 91.99 72.36 91.15 72.62 90.37 73.18 88.66 73.73 86.95 73.95 85.16 74.05 84.35 74.14 83.52 74.17 82.7 74.2 82.02 74.16 81.19 73.72 80.62 73.43 80.24 73.01 80.22 72.59 80.33 73.17 79.59 73.94 79.01 74.46 78.22 75.02 77.36 75.57 76.49 76.12 75.63 76.27 75.4 76.44 75.16 76.6 74.93 76.8 74.75 76.99 74.58 77.18 74.39 78.22 73.35 78.7 72.08 79.11 70.69 79.52 69.3 79.95 67.98 80.05 66.52 80.15 65.06 79.99 63.6 79.7 62.18Z" fill="#C0C3C2"/><path d="M46.32 49.98C48.82 51.38 51.4 52.63 54 53.84 53.68 53.59 53.35 53.36 53.02 53.17 51.88 52.52 50.72 51.98 49.66 51.19 48.96 50.67 48.17 50.06 47.85 49.21 47.18 47.42 48.8 45.44 50.12 44.41 51.23 43.54 52.48 42.9 53.7 42.2 52.59 42.5 51.51 42.98 50.5 43.48 49.13 44.17 47.96 45.12 46.66 45.93 45.49 46.66 44.23 47.2 42.92 47.64 42.23 47.35 41.52 47.08 40.79 46.86 40.71 46.83 40.62 46.81 40.53 46.79 42.53 47.69 44.41 48.91 46.32 49.98Z" fill="#8D7B63" opacity="0.3"/><path d="M79.7 62.18C79.21 59.84 78.25 57.62 76.9 55.66 77.24 56.25 77.55 56.85 77.82 57.46 78.77 59.62 79.36 62.17 78.5 64.46 77.99 65.79 77.05 66.9 76.19 68.02 75.27 69.22 74.31 70.4 73.32 71.55 71.26 73.91 69.03 76.15 66.54 78.07 64.38 79.74 62.08 81.68 59.45 82.54 58.82 82.75 58.17 82.9 57.51 82.92 57.13 82.93 56.62 82.94 56.31 82.68 55.7 82.16 56.28 81.08 56.5 80.5 57.63 77.59 59.45 75.1 61.31 72.63 62.2 71.44 63.12 70.29 64.07 69.15 64.46 68.68 64.84 68.21 65.21 67.72 64.64 68.36 64.03 68.96 63.38 69.51 62.74 70.05 62.08 70.59 61.38 71.05 60.87 71.38 60.31 71.71 59.68 71.59 59.62 71.58 59.58 71.51 59.6 71.46 59.78 70.99 59.95 70.52 60.05 70.03 59.36 70.74 58.71 71.82 57.75 72.04 56.61 72.3 55.87 71.18 55.47 70.28 55.16 69.59 54.88 69 54.33 68.47 53.85 68.01 53.57 67.39 53.33 66.78 52.72 65.25 52.35 63.63 51.23 62.36 51.15 62.27 51.23 62.16 51.34 62.17 52.05 62.27 52.56 62.75 53.1 63.18 52.08 61.09 49.85 59.35 47.47 59.79 48.84 60.17 50.61 60.38 51.33 61.71 51.38 61.79 51.3 61.89 51.2 61.87 50.5 61.72 49.86 61.37 49.15 61.35 52.84 63.97 48.96 69.11 46.29 70.99 46.23 71.03 46.14 70.99 46.13 70.92 45.78 69 46.04 66.11 44.11 64.99 44.9 69.06 44.24 74.66 39.72 76.16 39.65 76.18 39.58 76.12 39.58 76.05 39.52 74.9 39.63 73.73 39.34 72.61 38.23 73.96 37.22 75.38 35.86 76.5 35.79 76.56 35.67 76.53 35.67 76.42 35.67 75.55 35.71 74.69 35.57 73.83 34.85 74.91 34.04 75.94 33.14 76.87 32.65 77.38 32.14 77.88 31.6 78.35 31.05 78.84 30.41 79.28 29.89 79.81 29.2 80.5 28.51 81.22 27.48 80.78 26.61 80.4 25.83 79.84 24.97 79.43 22.11 78.08 17.3 76.25 17.17 72.5 16.62 73.53 16.21 74.63 15.77 75.71 15.74 75.78 15.68 75.81 15.61 75.77 14.45 75.24 13.48 74.4 12.4 73.75 11.48 73.19 10.51 72.67 9.66 72.01 8.83 71.37 7.98 70.51 7.77 69.44 7.61 68.64 7.79 67.9 8.1 67.18 7.11 67.93 6.3 68.88 5.61 69.91 5.56 69.98 5.43 69.99 5.41 69.89 4.76 66.73 6.69 63.82 9.2 62.06 8.29 62.33 7.4 62.65 6.6 63.18 6.51 63.24 6.39 63.12 6.45 63.03 7.06 62.07 7.67 61.05 8.51 60.27 8.85 59.95 9.22 59.66 9.68 59.52 9.91 59.45 10.26 59.27 10.46 59.51 10.56 59.63 10.59 59.79 10.67 59.92 10.85 60.2 11.05 60.47 11.22 60.75 11.62 61.42 11.99 62.06 12.51 62.64 13.5 63.75 14.81 64.46 16.18 65.01 17.6 65.57 19.04 66.07 20.47 66.59 22.05 67.17 23.68 67.57 25.35 67.15 28.08 66.48 30.13 64.33 32.4 62.81 34.99 61.07 37.79 59.73 39.94 57.42 41.12 56.15 42.19 54.77 43.19 53.35 43.63 52.72 44.09 52.1 44.53 51.47 44.9 50.93 45.27 50.35 45.37 49.69 43.33 48.49 41.28 47.2 39.05 46.41 38.01 46.19 36.95 46.03 35.89 45.92 32.67 45.59 29.37 45.69 26.16 45.96 23.18 46.22 20.21 46.86 17.64 48.46 15.76 49.63 14.05 51.27 12.61 52.94 11.3 54.45 10.24 56.15 9.48 58 9.18 58.36 8.87 58.71 8.57 59.07 7.94 59.83 7.13 60.53 6.61 61.36 6.12 62.16 5.94 63.11 5.57 63.97 5.56 64 5.57 64.02 5.58 64.04 5.58 64.07 5.6 64.1 5.64 64.1 5.86 64.1 6.07 64.03 6.27 63.94 5.51 64.77 4.96 65.79 4.52 66.83 4.17 67.65 3.59 68.55 3.77 69.47 3.85 69.89 4.09 70.27 4.27 70.66 4.51 71.16 4.69 71.68 4.91 72.18 4.92 72.2 4.92 72.22 4.92 72.24 4.93 72.26 4.94 72.27 4.95 72.27 4.96 72.3 4.97 72.32 4.98 72.35 5.01 72.42 5.12 72.4 5.12 72.32 5.12 72.23 5.1 72.14 5.08 72.05 5.17 71.74 5.27 71.47 5.4 71.2 5.33 72.61 5.74 73.98 6.78 75.01 7.49 75.72 8.35 76.28 9.21 76.78 9.46 76.92 9.72 77.06 9.97 77.19 10.28 78.54 10.8 79.85 11.34 81.12 11.93 82.5 12.59 83.91 13.56 85.06 14.55 86.23 15.79 87.2 16.88 88.28 17.51 88.9 18.15 89.52 18.66 90.24 18.91 90.6 19.14 90.97 19.37 91.35 19.16 91.62 19.07 91.96 18.91 92.27 18.63 91.98 18.31 91.72 17.97 91.5 17.89 91.53 17.81 91.54 17.71 91.54 16.72 91.5 16.48 91.96 16.3 92.86 16.16 93.57 16.03 94.28 15.64 94.9 15.45 95.19 15.02 95.36 14.71 95.15 13.16 94.07 14.16 92.47 14.63 91.03 14.47 91.24 14.37 91.5 14.3 91.77 14.18 91.76 14.06 91.76 13.94 91.76 13.61 92.18 13.39 92.64 13.45 93.21 13.53 93.97 13.68 95.11 12.74 95.42 12.01 95.67 11.49 95.09 11.26 94.46 11.23 95.07 11.31 95.68 11.41 96.22 11.62 97.27 12.18 98.33 13.18 98.82 13.81 99.13 14.58 98.93 15.24 98.57 15.37 98.65 15.52 98.72 15.71 98.76 16.1 98.86 17.03 99.04 17.67 98.9 18.2 99.31 18.9 99.54 19.55 99.58 20.13 99.62 20.69 99.5 21.21 99.29 21.23 99.32 21.28 99.33 21.32 99.31 23.37 98.12 25.34 96.15 26.07 93.84 26.21 93.38 26.22 92.9 26.19 92.43 26.73 92.86 27.24 93.31 27.83 93.66 28.25 93.91 28.67 94.08 29.11 94.18 28.85 94.62 28.64 95.08 28.41 95.56 28.04 96.35 27.9 97.14 28.35 97.94 28.79 98.72 29.47 99.31 30.27 99.7 30.86 99.99 31.48 99.96 32.05 99.76 32.39 100 32.82 100.08 33.39 99.97 34 99.84 34.51 99.54 35 99.17 35.1 99.1 35.2 99.02 35.3 98.95 37.25 100.14 39.93 98.99 41.16 97.25 41.87 96.25 41.98 95.19 41.85 94.01 41.81 93.66 41.74 93.27 41.62 92.9 42.89 93.55 44.39 93.98 45.73 93.56 46.59 93.29 47.35 92.74 48.14 92.33 48.74 92.02 49.37 91.82 50.02 91.67 49.61 92.64 49.51 93.72 49.95 94.57 50.38 95.4 51.33 95.87 52.08 96.36 52.74 96.78 53.42 96.75 54.06 96.49 54.15 96.58 54.24 96.67 54.33 96.75 54.99 97.36 55.8 97.17 56.59 96.92 56.87 97.29 57.28 97.54 57.88 97.58 58.62 97.62 59.37 97.44 60.09 97.28 61.02 97.08 61.96 96.96 62.9 96.84 64.58 96.62 66.27 96.39 67.88 95.85 69.33 95.36 70.48 94.51 71.36 93.25 71.39 93.21 71.39 93.18 71.38 93.15 71.53 92.99 71.67 92.82 71.79 92.65 72.29 91.98 72.36 91.14 72.62 90.36 73.18 88.65 73.73 86.94 73.95 85.15 74.05 84.34 74.14 83.51 74.17 82.69 74.2 82.01 74.16 81.18 73.72 80.61 73.43 80.23 73.01 80.21 72.59 80.32 73.17 79.58 73.94 79 74.46 78.21 75.02 77.35 75.57 76.48 76.12 75.62 76.27 75.39 76.44 75.15 76.6 74.92 76.8 74.74 76.99 74.57 77.18 74.38 78.22 73.34 78.7 72.07 79.11 70.68 79.52 69.29 79.95 67.97 80.05 66.51 80.15 65.06 79.99 63.6 79.7 62.18ZM20.49 93.8C20.25 94.54 19.83 95.37 19.22 95.87 18.66 96.33 17.98 96.05 17.7 95.44 17.42 94.83 17.46 93.94 18.06 93.53 18.19 93.45 18.33 93.38 18.47 93.33 18.47 93.33 18.47 93.33 18.47 93.33 18.47 93.33 18.47 93.33 18.48 93.33 18.54 93.31 18.61 93.29 18.67 93.27 18.7 93.27 18.73 93.26 18.76 93.25 19.25 93.16 19.79 93.23 20.27 93.33 20.4 93.36 20.44 93.46 20.43 93.56 20.49 93.63 20.52 93.73 20.49 93.8ZM31.82 93.77C31.52 94.28 31.08 94.98 30.44 95.12 30.04 95.21 29.74 94.98 29.76 94.55 29.8 93.5 30.43 92.05 31.44 91.65 31.55 91.61 31.63 91.65 31.68 91.72 31.93 91.67 32.17 91.76 32.25 92.06 32.39 92.63 32.1 93.28 31.82 93.77ZM36.89 92.55C36.41 93.39 35.63 95.39 34.41 95.31 32.49 95.18 34.97 91.02 36.04 90.7 36.12 90.68 36.18 90.69 36.23 90.73 37.16 90.41 37.35 91.74 36.89 92.55ZM41.68 93.86C41.65 94.39 41.59 94.99 41.15 95.36 40.8 95.66 40.41 95.34 40.26 94.99 39.9 94.19 39.61 92.62 40.61 92.14 40.79 92.06 40.94 92.2 40.97 92.34 41.08 92.32 41.2 92.35 41.31 92.45 41.68 92.81 41.7 93.39 41.68 93.86Z" fill="#8D7B63" opacity="0.3"/><path d="M74.61 76.74C73.18 78.62 71.78 80.52 70.17 82.26 68.6 83.96 66.91 85.55 65.16 87.07 66.88 86.41 68.5 85.49 69.91 84.28 70.55 83.73 71.15 83.15 71.72 82.53 72.08 82.13 72.45 81.67 72.94 81.41 73.96 80.88 73.54 83.49 73.51 83.84 73.4 85.5 73.22 87.21 72.66 88.78 72.25 89.93 71.65 91.03 70.69 91.81 69.69 92.62 68.37 92.93 67.13 93.14 65.58 93.4 64.03 93.69 62.48 93.9 61.64 94.01 60.8 94.11 59.95 94.16 59.42 94.19 58.71 94.38 58.19 94.23 57.21 93.95 56.93 92.86 57.33 91.99 57.85 90.86 58.85 90.33 60.09 90.44 61.44 90.56 62.72 91.04 64.06 91.24 65.35 91.43 66.65 91.4 67.82 90.86 67.08 90.99 66.32 90.97 65.56 90.86 65.45 90.84 65.46 90.67 65.56 90.65 67.4 90.25 69.26 89.64 70.73 88.43 69.45 88.9 68.1 89.18 66.73 89.3 64.07 89.55 61.35 89.44 58.69 89.35 57.02 89.29 54.81 89.2 53.65 87.79 53.03 87.03 53.04 85.97 53.17 85.04 53.38 83.53 53.95 82.1 54.56 80.7 55.67 78.13 56.81 75.63 58.33 73.29 57.42 74.25 56.54 75.25 55.42 75.96 55.36 76 55.3 75.97 55.27 75.92 54.41 74.73 54.59 72.84 54.51 71.46 54.43 70.06 54.41 67.73 52.76 67.21 52.71 67.2 52.68 67.15 52.68 67.1 52.72 65.71 52.12 64.44 51.82 63.11 51.65 62.84 51.46 62.57 51.24 62.32 51.16 62.23 51.24 62.12 51.35 62.13 52.06 62.23 52.57 62.71 53.11 63.14 52.09 61.05 49.86 59.31 47.48 59.75 48.85 60.13 50.62 60.34 51.34 61.67 51.39 61.75 51.31 61.85 51.21 61.83 50.65 61.71 50.14 61.47 49.59 61.36 51.04 62.55 51.86 64.59 51.61 66.43 51.32 68.54 49.83 70.2 48.96 72.1 50.29 71.27 51.39 70.14 52.62 69.16 52.66 69.12 52.74 69.11 52.78 69.16 53.18 69.66 53.28 70.35 53.37 70.96 53.48 71.7 53.6 72.44 53.66 73.18 53.7 73.72 53.69 74.28 53.75 74.81 53.81 75.33 53.91 75.84 53.95 76.36 54.01 77.15 53.98 77.94 53.56 78.63 53.12 79.37 52.49 79.95 51.9 80.56 51.24 81.24 50.58 81.91 49.88 82.55 48.44 83.84 46.91 85.03 45.31 86.11 43.98 87.01 42.62 87.86 41.23 88.67 40.56 89.06 39.89 89.5 39.17 89.82 38.75 90.01 38.28 90.07 37.85 89.87 37.02 89.49 36.08 88.54 36.03 87.56 35.99 86.76 36.52 86.09 37.08 85.57 38.61 84.16 40.64 83.46 42.17 82.07 44.36 80.07 45.46 77.26 46.59 74.59 45.38 75.88 44.51 77.59 42.8 78.22 42.31 78.61 41.76 78.94 41.22 79.26 39.68 80.19 38.09 81.01 36.47 81.8 36.38 81.84 36.28 81.77 36.31 81.67 36.44 81.09 36.59 80.51 36.51 79.92 36.02 80.81 35.59 81.82 34.8 82.48 33.94 83.19 32.93 83.7 31.93 84.18 31.24 84.51 30.52 84.76 29.83 85.1 29.24 85.39 28.29 85.8 28.13 86.51 28.12 86.59 28.03 86.6 27.97 86.58 27.04 86.18 26.19 85.63 25.27 85.22 24.31 84.79 23.29 84.56 22.32 84.16 21.49 83.82 20.65 83.43 19.94 82.86 19.4 82.42 19.1 81.88 18.79 81.29 18.17 80.8 17.54 80.26 17.14 79.58 16.74 78.9 16.51 78.11 16.34 77.33 16.22 78.15 16.33 79.01 15.99 79.79 15.97 79.83 15.9 79.86 15.86 79.84 14.55 79.31 13.5 78.36 12.42 77.47 11.18 76.45 9.85 75.42 8.47 74.6 7.33 73.92 6.05 73.28 5.81 71.85 5.66 70.95 6.08 70.04 6.52 69.21 6.01 69.83 5.56 70.49 5.12 71.17 5.07 71.25 4.98 71.24 4.93 71.17 4.43 70.47 4.01 69.74 3.75 68.93 3.74 69.08 3.75 69.24 3.77 69.39 3.85 69.81 4.09 70.19 4.27 70.58 4.51 71.08 4.69 71.6 4.91 72.1 4.92 72.12 4.92 72.14 4.92 72.16 4.93 72.18 4.94 72.19 4.95 72.19 4.96 72.22 4.97 72.24 4.98 72.27 5.01 72.34 5.12 72.32 5.12 72.24 5.12 72.15 5.1 72.06 5.08 71.97 5.17 71.66 5.27 71.39 5.4 71.12 5.33 72.53 5.74 73.9 6.78 74.93 7.49 75.64 8.35 76.2 9.21 76.7 9.46 76.84 9.72 76.98 9.97 77.11 10.28 78.46 10.8 79.77 11.34 81.04 11.55 81.53 11.77 82.03 12.01 82.52 11.67 81.63 11.27 80.41 11.71 79.59 12.32 78.45 13.78 79.59 14.45 80.08 15.03 80.5 15.69 80.88 16.15 81.45 16.64 82.06 16.92 82.82 17.35 83.47 17.37 83.26 17.37 83.04 17.37 82.83 17.37 82.72 17.52 82.68 17.58 82.77 17.7 82.97 17.82 83.15 17.95 83.33 17.96 83.12 17.96 82.92 17.93 82.69 17.91 82.56 18.11 82.49 18.14 82.63 18.62 84.74 21.37 84.42 22.4 86.08 23.48 87.81 23.32 90 24.1 91.85 24.14 91.94 24.02 92.02 23.94 91.98 23.21 91.56 22.42 91.46 21.6 91.35 21.12 91.29 20.62 91.24 20.19 90.99 19.66 90.69 19.13 90.38 18.61 90.09 18.63 90.11 18.64 90.13 18.66 90.15 18.91 90.51 19.14 90.88 19.37 91.26 19.16 91.53 19.07 91.87 18.91 92.18 18.83 92.09 18.74 92.02 18.65 91.94 18.64 92 18.56 92.07 18.48 92.03 17.01 91.35 16.22 93.68 16.25 94.75 16.26 95.45 16.37 97.49 15.12 97.19 14.64 97.08 14.32 96.39 14.17 95.98 13.94 95.34 13.83 94.66 13.83 93.98 13.83 93.2 13.94 92.42 14.18 91.68 14.11 91.68 14.05 91.67 13.98 91.67 13.68 92.26 13.41 92.88 13.4 93.55 13.39 94.07 13.5 94.58 13.55 95.09 13.6 95.62 13.68 96.85 12.81 96.76 11.96 96.67 11.55 95.66 11.39 94.94 11.28 94.47 11.28 93.98 11.36 93.51 11.16 94.36 11.24 95.35 11.4 96.14 11.61 97.19 12.17 98.25 13.17 98.74 13.8 99.05 14.57 98.85 15.23 98.49 15.36 98.57 15.51 98.64 15.7 98.68 16.09 98.78 17.02 98.96 17.66 98.82 18.19 99.23 18.89 99.46 19.54 99.5 20.12 99.54 20.68 99.42 21.2 99.21 21.22 99.24 21.27 99.25 21.31 99.23 23.36 98.04 25.33 96.07 26.06 93.76 26.2 93.3 26.21 92.82 26.18 92.35 26.72 92.78 27.23 93.23 27.82 93.58 28.24 93.83 28.66 94 29.1 94.1 28.84 94.54 28.63 95 28.4 95.48 28.03 96.27 27.89 97.06 28.34 97.86 28.78 98.64 29.46 99.23 30.26 99.62 30.85 99.91 31.47 99.88 32.04 99.68 32.38 99.92 32.81 100 33.38 99.89 33.99 99.76 34.5 99.46 34.99 99.09 35.09 99.02 35.19 98.94 35.29 98.87 37.24 100.06 39.92 98.91 41.15 97.17 41.86 96.17 41.97 95.11 41.84 93.93 41.8 93.58 41.73 93.19 41.61 92.82 42.88 93.47 44.38 93.9 45.72 93.48 46.58 93.21 47.34 92.66 48.13 92.25 48.73 91.94 49.36 91.74 50.01 91.59 49.6 92.56 49.5 93.64 49.94 94.49 50.37 95.32 51.32 95.79 52.07 96.28 52.73 96.7 53.41 96.67 54.05 96.41 54.14 96.5 54.23 96.59 54.32 96.67 54.98 97.28 55.79 97.09 56.58 96.84 56.86 97.21 57.27 97.46 57.87 97.5 58.61 97.54 59.36 97.36 60.08 97.2 61.01 97 61.95 96.88 62.89 96.76 64.57 96.54 66.26 96.31 67.87 95.77 69.32 95.28 70.47 94.43 71.35 93.17 71.38 93.13 71.38 93.1 71.37 93.07 71.52 92.91 71.66 92.74 71.78 92.57 72.28 91.9 72.35 91.06 72.61 90.28 73.17 88.57 73.72 86.86 73.94 85.07 74.04 84.26 74.13 83.43 74.16 82.61 74.19 81.93 74.15 81.1 73.71 80.53 73.42 80.15 73 80.13 72.58 80.24 73.16 79.5 73.93 78.92 74.45 78.13 75.01 77.27 75.56 76.4 76.11 75.54 76.26 75.31 76.43 75.07 76.59 74.84 76.79 74.66 76.98 74.49 77.17 74.3 78.21 73.26 78.69 71.99 79.1 70.6 79.3 69.93 79.5 69.28 79.67 68.62 78.42 71.59 76.5 74.24 74.61 76.74ZM21.56 93.84C21.55 93.83 21.54 93.83 21.53 93.83 21.52 93.84 21.5 93.84 21.48 93.85 19.71 93.96 20.15 95.88 19.42 97 18.73 98.04 17.84 97.38 17.52 96.41 17.19 95.43 17.28 93.76 18.39 93.27 19.42 92.82 20.64 93.27 21.63 93.63 21.75 93.68 21.69 93.89 21.56 93.84ZM31.49 95.28C31.25 95.85 30.95 96.69 30.32 96.96 29.84 97.17 29.2 97.08 29 96.52 28.62 95.47 29.39 94.05 29.9 93.15 30.29 92.45 31.15 91.08 32.08 91.79 33.36 92.33 31.79 94.54 31.49 95.28ZM37.01 93.27C36.71 94.17 36.34 95.06 35.86 95.88 35.45 96.57 34.95 97.29 34.21 97.64 33.7 97.88 33.02 97.85 32.77 97.28 32.48 96.64 32.72 95.75 32.9 95.12 33.37 93.42 34.17 91.32 35.99 90.73 36.04 90.71 36.08 90.74 36.11 90.77 36.29 90.71 36.48 90.67 36.72 90.7 36.97 90.73 37.2 90.91 37.29 91.15 37.53 91.82 37.23 92.63 37.01 93.27ZM41.71 93.96C41.67 94.85 41.53 96.31 40.62 96.78 40.28 96.96 39.74 97.05 39.51 96.66 39.41 96.48 39.46 96.22 39.48 96.03 39.53 95.66 39.56 95.3 39.54 94.93 39.5 94.27 39.33 93.45 39.71 92.85 40.01 92.37 40.45 92.11 41.03 92.14 41.08 92.15 41.11 92.17 41.12 92.21 41.71 92.35 41.73 93.44 41.71 93.96ZM51.76 92.88C51.19 93.21 50.48 93.2 50.39 92.41 50.28 91.41 50.98 90.43 51.71 89.83 52.48 89.19 53.41 89.31 54.17 89.89 54.27 89.97 54.19 90.13 54.09 90.1 54.08 90.12 54.07 90.13 54.06 90.14 53.09 90.86 52.82 92.26 51.76 92.88ZM57.07 91.02C56.43 91.99 55.6 93.1 54.58 93.67 53.93 94.03 53.04 94.01 53.24 93.04 53.41 92.19 53.85 90.92 54.6 90.42 55.32 89.94 56.41 90.25 57.07 90.76 57.1 90.77 57.12 90.78 57.13 90.8 57.14 90.81 57.16 90.82 57.17 90.83 57.27 90.91 57.17 91.04 57.07 91.02Z" fill="#8D7B63" opacity="0.3"/><path d="M51.74 89.16C52.1 88.87 52.58 88.62 53.04 88.8 53.29 88.9 53.49 89.09 53.71 89.25 54.04 89.49 54.4 89.64 54.79 89.78 56.29 90.31 57.78 90.41 59.34 90.48 59.58 90.45 59.83 90.44 60.09 90.46 61.44 90.58 62.72 91.06 64.06 91.26 64.25 91.29 64.43 91.31 64.62 91.32 63.92 91.18 63.22 90.98 62.67 90.58 62.6 90.53 62.6 90.4 62.7 90.38 63.16 90.27 63.62 90.32 64.1 90.29 64.72 90.26 65.35 90.09 65.97 89.98 66.45 89.89 66.9 89.75 67.35 89.6 65.5 90 63.6 90.14 61.68 90.13 59.89 90.11 58.09 90.03 56.31 89.81 55.62 89.73 54.94 89.64 54.29 89.39 54.02 89.28 53.75 89.14 53.51 88.97 53.24 88.77 53.02 88.5 52.74 88.31 52.66 88.26 52.68 88.16 52.74 88.12 52.43 87.6 52.41 86.87 52.42 86.31 52.45 85.19 52.71 84.1 53.04 83.03 53.78 80.65 54.91 78.41 56.27 76.33 55.98 76.68 55.67 77 55.31 77.28 55.25 77.33 55.15 77.32 55.13 77.23 54.84 76.36 54.86 75.45 54.68 74.57 54.49 73.61 54.3 72.65 54.13 71.69 53.91 70.44 53.63 68.91 52.72 67.94 53.73 70.18 54.12 72.65 54.46 75.06 54.61 76.11 54.88 77.34 54.66 78.39 54.5 79.13 54.18 79.82 53.78 80.46 53.83 80.49 53.86 80.55 53.82 80.61 52.54 82.83 50.71 84.61 48.81 86.31 46.9 88.03 44.89 89.84 42.65 91.13 41.7 91.68 40.47 92.07 39.37 92.2 39.01 92.24 38.56 92.26 38.26 92 37.9 91.7 37.84 91.23 37.52 90.9 36.62 89.96 35.33 90.62 34.54 91.33 34.14 91.7 33.54 92.37 32.94 92.29 33.05 92.4 33.15 92.5 33.23 92.58 33.32 92.68 33.19 92.82 33.09 92.74 33.04 92.98 32.9 93.18 32.74 93.38 32.47 93.73 32.29 94.09 32.11 94.49 31.74 95.35 31.23 96.26 31.01 97.17 30.86 97.77 31.47 99.37 30.23 98.89 29.48 98.6 28.35 97.81 28.25 96.94 28.11 95.8 28.79 94.98 29.42 94.14 29.59 93.78 29.78 93.44 29.94 93.15 30.27 92.56 30.93 91.5 31.68 91.61 32.02 91.57 32.41 91.82 32.73 92.08 33.27 91.41 33.58 90.56 33.85 89.76 34.11 89 34.48 88.14 34.25 87.33 34.12 86.88 33.9 86.5 33.7 86.09 33.62 85.94 33.54 85.76 33.59 85.58 33.78 84.9 34.38 84.46 34.87 83.99 34.94 83.92 35.06 83.97 35.06 84.07 35.05 84.37 35.01 84.67 34.98 84.96 35.48 84.33 36.22 83.92 36.87 83.48 37.93 82.76 39.01 82.08 40.12 81.44 41.22 80.8 42.45 80.27 43.41 79.41 44.12 78.78 44.6 78.01 44.98 77.17 44.22 78.27 43.21 79.16 42.03 79.87 40.96 80.5 39.86 81.04 38.83 81.74 37.71 82.5 36.62 83.3 35.49 84.03 35.46 84.05 35.43 84.05 35.4 84.04 35.34 84.04 35.27 83.99 35.29 83.9 35.39 83.52 35.52 83.14 35.54 82.75 34.88 83.4 34.34 84.23 33.51 84.67 32.53 85.2 31.46 85.56 30.44 86 29.93 86.22 29.33 86.4 28.88 86.72 28.55 86.95 28.28 87.24 27.95 87.47 27.49 87.78 27.17 87.78 26.87 87.3 26.25 86.3 24.94 85.8 23.88 85.42 22.9 85.06 21.88 84.77 20.91 84.37 20.01 83.99 19.16 83.53 18.53 82.77 18.25 82.44 18.04 82.06 17.87 81.66 18.06 82.35 18.45 82.99 18.93 83.5 19.64 84.27 20.58 84.68 21.51 85.13 22.35 85.53 23.22 85.86 24.07 86.24 24.6 86.48 25.2 86.75 25.33 87.37 25.43 87.82 25.36 88.28 25.46 88.74 25.59 89.35 25.71 89.97 25.84 90.58 25.98 91.24 26.1 91.91 26.19 92.58 26.21 92.75 26.23 92.93 26.25 93.13 26.27 92.89 26.26 92.65 26.25 92.41 26.79 92.84 27.3 93.29 27.89 93.64 28.31 93.89 28.73 94.06 29.17 94.16 28.91 94.6 28.7 95.06 28.47 95.54 28.1 96.33 27.96 97.12 28.41 97.92 28.85 98.7 29.53 99.29 30.33 99.68 30.92 99.97 31.54 99.94 32.11 99.74 32.45 99.98 32.88 100.06 33.45 99.95 34.06 99.82 34.57 99.52 35.06 99.15 35.16 99.08 35.26 99 35.36 98.93 37.31 100.12 39.99 98.97 41.22 97.23 41.33 97.08 41.42 96.92 41.5 96.77 41.22 97.15 40.88 97.48 40.47 97.75 39.8 98.21 38.99 98.72 38.18 98.91 37.66 99.03 36.89 99.09 36.5 98.63 36.22 98.3 37.04 97.76 37.21 97.61 37.99 96.87 38.65 95.97 38.51 94.83 38.43 94.16 38.28 93.57 38.94 93.15 39.27 92.94 39.62 92.74 39.96 92.56 40.25 92.26 40.61 92.1 41.06 92.13 41.11 92.14 41.14 92.16 41.15 92.2 41.34 92.25 41.47 92.41 41.56 92.61 41.8 92.79 42.03 92.97 42.26 93.16 43.39 93.64 44.64 93.9 45.78 93.54 46.64 93.27 47.4 92.72 48.19 92.31 48.76 92.02 49.36 91.82 49.97 91.67 50.4 90.73 50.92 89.82 51.74 89.16ZM37.66 96.46C37.2 97.12 36.6 97.71 35.95 98.21 35.28 98.73 34.48 99.26 33.62 99.35 32.81 99.43 32.19 99.04 31.83 98.32 31.4 97.48 31.69 96.39 32 95.57 32.38 94.57 32.84 93.54 33.49 92.69 33.84 92.23 34.27 91.85 34.73 91.5 35.01 91.24 35.32 91.02 35.67 90.86 35.73 90.82 35.79 90.79 35.85 90.75 35.89 90.72 35.93 90.73 35.96 90.75 35.97 90.75 35.98 90.74 35.99 90.74 36.04 90.72 36.08 90.75 36.11 90.78 36.29 90.72 36.48 90.68 36.72 90.71 36.97 90.74 37.2 90.92 37.29 91.16 37.3 91.19 37.31 91.22 37.32 91.25 37.79 91.72 37.95 92.37 38.05 93.09 38.19 94.22 38.36 95.45 37.66 96.46Z" fill="#8D7B63" opacity="0.3"/><path d="M66.9 86.13C68.65 85 70.16 83.44 71.51 81.88 71.95 81.37 72.52 80.7 73.17 80.26 72.99 80.23 72.8 80.25 72.61 80.31 72.63 80.28 72.66 80.25 72.68 80.22 70.83 82.26 68.76 84.09 66.9 86.13Z" fill="#8D7B63" opacity="0.3"/><path d="M71.97 92.38C71.19 93.14 70.39 93.86 69.44 94.38 68.32 95 67.05 95.24 65.81 95.49 64.43 95.77 63.05 96.06 61.66 96.26 60.97 96.36 60.28 96.44 59.59 96.55 59.12 96.63 58.61 96.73 58.13 96.65 57.29 96.53 56.88 95.69 56.67 94.95 56.31 93.68 56.55 91.77 57.65 90.87 57.13 91.12 56.76 91.73 56.51 92.22 56.12 92.99 56.12 93.69 56.18 94.52 56.23 95.27 56.21 96.58 55.12 96.17 53.71 95.63 52.45 93.5 53.46 92.21 53.69 91.5 54.07 90.76 54.6 90.4 54.82 90.26 55.06 90.19 55.32 90.17 55.19 90.13 55.06 90.1 54.93 90.06 54.93 90.11 54.89 90.16 54.82 90.16 54 90.12 53.42 91.64 53.13 92.23 52.91 92.69 52.57 93.17 52.6 93.7 52.64 94.33 53.03 94.85 53.36 95.37 53.4 95.42 53.37 95.49 53.32 95.52 52.4 96.2 51.41 95.55 50.66 94.92 50.1 94.45 49.79 93.94 49.67 93.35 49.68 93.77 49.77 94.16 49.95 94.52 50.38 95.35 51.33 95.82 52.08 96.31 52.74 96.73 53.42 96.7 54.06 96.44 54.15 96.53 54.24 96.62 54.33 96.7 54.99 97.31 55.8 97.12 56.59 96.87 56.87 97.24 57.28 97.49 57.88 97.53 58.62 97.57 59.37 97.39 60.09 97.23 61.02 97.03 61.96 96.91 62.9 96.79 64.58 96.57 66.27 96.34 67.88 95.8 69.33 95.31 70.48 94.46 71.36 93.2 71.39 93.16 71.39 93.13 71.38 93.1 71.53 92.94 71.67 92.77 71.79 92.6 71.86 92.55 71.92 92.47 71.97 92.38Z" fill="#8D7B63" opacity="0.3"/><path d="M21.2 93.16C20.67 93.03 20.15 92.93 19.75 92.54 19.72 92.51 19.71 92.45 19.73 92.41 20.03 91.88 20.72 91.98 21.4 92.22 20.49 91.65 19.62 91.04 18.77 90.38 18.99 90.7 19.19 91.02 19.38 91.35 19.2 91.58 19.11 91.86 18.99 92.13 19.04 92.21 19.09 92.28 19.15 92.35 19.17 92.36 19.18 92.36 19.19 92.36 19.25 92.38 19.27 92.44 19.26 92.49 19.48 92.75 19.72 92.97 20.01 93.14 20.57 93.24 21.12 93.45 21.61 93.63 21.66 93.65 21.68 93.7 21.68 93.74 22.23 93.85 22.81 93.9 23.33 93.85 22.64 93.57 21.93 93.34 21.2 93.16Z" fill="#8D7B63" opacity="0.3"/><path d="M22.09 97.86C21.52 98.27 20.87 98.67 20.14 98.67 19.46 98.67 18.79 98.46 18.17 98.18 17.57 97.91 17.41 97.44 17.32 96.81 17.22 96.12 17.08 95.34 17.17 94.64 17.25 94.06 17.55 93.54 18.03 93.2 18.57 92.82 18.94 92.94 19.48 93.07 19.51 93.07 19.53 93.07 19.56 93.07 19.36 92.91 19.19 92.73 19.03 92.53 17.94 92.21 17.11 93.21 16.89 94.21 16.62 95.44 16.85 96.8 16.98 98.04 16.98 98.09 16.94 98.14 16.9 98.15 15.42 98.43 14.57 97.49 14.27 96.3 14.23 96.22 14.2 96.13 14.18 96.06 13.95 95.42 13.84 94.74 13.84 94.06 13.84 93.7 13.87 93.33 13.92 92.96 13.5 94.65 13.72 96.36 14.54 97.99 14.57 98.05 14.55 98.11 14.5 98.14 13.54 98.82 12.55 98.25 11.85 97.43 12.15 98.01 12.6 98.51 13.2 98.8 13.83 99.11 14.6 98.91 15.26 98.55 15.39 98.63 15.54 98.7 15.73 98.74 16.12 98.84 17.05 99.02 17.69 98.88 18.22 99.29 18.92 99.52 19.57 99.56 20.15 99.6 20.71 99.48 21.23 99.27 21.25 99.3 21.3 99.31 21.34 99.29 23.01 98.32 24.61 96.84 25.55 95.08 24.45 96.09 23.29 97 22.09 97.86Z" fill="#8D7B63" opacity="0.3"/><path d="M78.08 59.48C77.59 58.17 76.72 56.96 75.99 55.77 75.12 54.35 74.18 52.99 73.09 51.73 71.03 49.35 68.53 47.44 65.81 45.87 63.36 44.45 60.23 42.91 57.35 42.83 54.44 42.74 51.69 44.33 49.47 46.06 49.37 46.14 49.45 46.31 49.57 46.26 50.76 45.75 51.99 45.12 53.25 44.8 54.55 44.47 55.94 44.42 57.27 44.57 60.1 44.88 62.91 46.37 65.39 47.69 67.84 48.99 70.24 50.59 72.21 52.55 73.26 53.59 74.21 54.76 75.08 55.94 75.98 57.15 76.69 58.56 77.69 59.68 77.86 59.85 78.18 59.72 78.08 59.48Z" fill="#D1D1D1"/><path d="M82.88 60.07C82.18 59.85 81.36 60.88 80.96 61.33 80.88 61.42 81.01 61.56 81.1 61.49 81.4 61.28 81.67 61.03 81.97 60.82 82.26 60.61 82.7 60.6 82.93 60.33 83 60.24 82.98 60.1 82.88 60.07Z" fill="#D1D1D1"/><path d="M86.98 62.49C85.87 60.75 83.57 60.54 81.89 61.48 81.82 61.51 81.87 61.64 81.94 61.62 83.72 61.25 85.28 61.85 86.81 62.7 86.93 62.77 87.05 62.6 86.98 62.49Z" fill="#D1D1D1"/><path d="M87.02 64.75C86.34 63.57 85.2 63.6 84.01 63.43 83.87 63.41 83.84 63.61 83.97 63.64 86.17 64.24 87.53 66.06 87.18 68.38 87.17 68.44 87.26 68.47 87.28 68.41 87.75 67.17 87.67 65.89 87.02 64.75Z" fill="#D1D1D1"/><path d="M68.9 65.85C66.52 67.71 64.38 70.03 62.55 72.42 60.61 74.96 58.72 77.62 57.6 80.63 57.55 80.75 57.71 80.86 57.8 80.75 61.73 75.96 64.54 70.34 69.07 66.03 69.17 65.94 69.01 65.77 68.9 65.85Z" fill="#D1D1D1"/><path d="M47.75 58.13C46.02 56.79 44.35 57.16 42.71 58.45 42.64 58.51 42.69 58.62 42.78 58.59 44.45 58.07 45.84 57.94 47.52 58.48 47.74 58.56 47.96 58.29 47.75 58.13Z" fill="#D1D1D1"/><path d="M47.89 59.37C46.98 58.83 45.97 59.32 45.12 59.76 45 59.82 45.11 60 45.22 59.96 45.57 59.85 45.93 59.74 46.28 59.63 46.79 59.48 47.29 59.54 47.81 59.6 47.96 59.62 48.01 59.44 47.89 59.37Z" fill="#D1D1D1"/><path d="M47.13 60.98C47.16 60.98 47.19 60.98 47.21 60.98 47.21 60.99 47.21 61 47.21 61.01 47.42 61.08 47.61 61.17 47.8 61.27 48.08 61.38 48.32 61.54 48.54 61.74 49.56 62.54 50.18 63.78 50.18 65.4 50.18 65.6 50.18 65.8 50.18 66.01 50.43 65.2 50.53 64.36 50.41 63.57 50.28 62.66 49.82 61.82 49.13 61.33 49.48 61.4 49.83 61.47 50.18 61.5 50.28 61.51 50.37 61.38 50.27 61.31 48.92 60.36 47.59 60.05 46.03 60.72 46.41 60.78 46.78 60.86 47.13 60.98Z" fill="#D1D1D1"/><path d="M43.61 67.67C43.7 68.29 43.75 68.91 43.75 69.54 43.92 68.75 44.02 67.95 44.03 67.19 44.04 65.52 43.19 64.11 42.05 62.98 42.91 64.34 43.41 66.16 43.61 67.67Z" fill="#D1D1D1"/><path d="M39.78 70.99C40.09 70.36 40.29 69.69 40.29 68.99 40.3 67.55 39.6 66.31 38.57 65.37 39 66.11 39.33 66.89 39.54 67.71 39.49 67.72 39.45 67.75 39.41 67.8 38.87 68.51 38.04 69 37.16 69.14 37.08 69.15 37.09 69.27 37.17 69.27 38.14 69.23 38.94 68.83 39.66 68.22 39.8 68.92 39.86 69.65 39.83 70.42 39.81 70.6 39.79 70.79 39.78 70.99Z" fill="#D1D1D1"/><path d="M33.99 67.79C34.19 68.29 34.38 68.79 34.54 69.29 34.75 69.73 34.89 70.19 34.95 70.67 34.76 70.44 34.54 70.23 34.36 70.07 34.33 70.04 34.28 70.09 34.31 70.12 34.52 70.38 34.64 70.71 34.73 71.02 34.82 71.32 34.78 71.66 34.92 71.94 34.94 71.98 34.96 72 35 72.03 34.97 72.57 34.87 73.12 34.66 73.69 34.48 74.19 34.26 74.66 34.01 75.13 34.66 74.38 35.54 73.53 35.83 72.57 36.41 70.61 35.45 68.97 33.99 67.79Z" fill="#D1D1D1"/><path d="M32.02 75.7C31.2 76.85 30.1 77.78 29.33 78.98 29.25 79.1 29.38 79.27 29.51 79.17 30.7 78.27 31.49 77.09 32.15 75.78 32.19 75.71 32.07 75.63 32.02 75.7Z" fill="#D1D1D1"/><path d="M20.54 74.97C19.71 74.08 19.05 73.28 18.7 72.1 18.38 71.06 18.89 69.88 18.81 68.81 18.79 68.58 18.42 68.56 18.4 68.79 18.33 69.95 17.55 71.18 17.98 72.35 18.41 73.53 19.32 74.5 20.35 75.2 20.52 75.31 20.67 75.11 20.54 74.97Z" fill="#D1D1D1"/><path d="M15.45 69.44C14.45 69.35 13.61 69.37 12.73 68.82 12.23 68.51 11.78 68.25 11.18 68.28 10.73 68.31 10.32 68.8 10.01 69.05 9.2 69.69 9.19 67.55 9.14 67.25 9.14 67.25 9.14 67.24 9.14 67.24 9.39 66.65 9.71 66.08 9.93 65.61 9.97 65.53 9.85 65.46 9.79 65.53 9.06 66.33 7.28 68.62 8.44 69.67 8.49 69.79 8.56 69.9 8.62 70.02 9.12 70.84 10.04 71.17 10.74 71.79 10.84 71.88 10.98 71.74 10.91 71.64 10.5 71.08 10.09 70.51 9.63 69.99 9.61 69.96 9.59 69.94 9.57 69.92 9.69 69.93 9.83 69.92 9.98 69.88 10.23 69.82 10.44 69.56 10.6 69.37 10.79 69.16 10.93 68.94 11.15 68.75 11.54 68.4 12.26 68.95 12.54 69.14 13.33 69.65 14.54 69.61 15.45 69.53 15.5 69.54 15.51 69.45 15.45 69.44Z" fill="#D1D1D1"/><path d="M8.83 63.52C8.03 64.02 7.23 64.63 6.67 65.4 6.09 66.19 6.07 67.37 5.86 68.3 5.84 68.39 5.98 68.43 6.01 68.35 6.39 67.4 6.64 66.38 7.29 65.56 7.82 64.89 8.55 64.4 8.97 63.64 9.03 63.55 8.91 63.47 8.83 63.52Z" fill="#D1D1D1"/><path d="M29.59 71.74C28.73 71.74 28.08 71.5 27.27 71.2 26.96 71.09 26.83 71.06 26.51 71.16 26.2 71.26 25.92 71.55 25.67 71.74 24.99 72.25 24.47 71.58 24.03 71.16 23.65 70.8 23.22 70.74 22.82 71.13 22.64 71.31 21.88 72.22 21.94 72.26 21.25 71.72 20.93 70.85 20.62 70.06 20.35 69.38 19.41 69.75 19.57 70.44 19.74 71.14 19.64 71.89 19.83 72.62 20.02 73.34 20.39 73.95 20.95 74.44 21.06 74.53 21.23 74.38 21.14 74.27 20.77 73.79 20.33 72.87 20.22 72.02 20.6 72.68 21.12 73.25 21.84 73.45 23.02 73.79 22.91 70.75 23.83 71.7 24.37 72.25 25.03 72.69 25.76 72.21 25.88 72.13 25.98 71.99 26.08 71.89 26.52 71.39 27.14 71.37 27.7 71.76 28.22 72.13 29.04 71.99 29.61 71.87 29.69 71.86 29.68 71.74 29.59 71.74Z" fill="#D1D1D1"/><path d="M34.25 70.13C34.23 70.08 34.16 70.07 34.13 70.11 33.97 70.28 33.84 70.47 33.69 70.66 33.66 70.7 33.64 70.73 33.63 70.77 33.62 70.75 33.62 70.73 33.61 70.7 33.5 70.39 33.3 69.98 32.98 69.84 32.7 69.71 32.39 69.8 32.2 70.02 31.73 70.56 31.05 70.91 30.43 71.27 30.21 71.4 30.44 71.71 30.66 71.59 30.96 71.43 31.25 71.25 31.54 71.08 31.85 70.9 32.24 70.8 32.5 70.57 32.67 70.42 32.96 71.46 33.16 71.62 33.42 71.84 33.83 71.74 34.03 71.48 34.34 71.03 34.45 70.66 34.25 70.13Z" fill="#D1D1D1"/></g><g><path d="M11.37 59.9C12.52 60.69 13.75 61.36 15.04 61.88 15.1 61.9 15.14 61.95 15.12 62.02 14.55 64 17.72 64.22 18.96 64.28 20.42 64.35 21.9 64.29 23.35 64.12 24.72 63.96 26.09 63.76 27.44 63.49 28.3 63.32 29.16 63.13 30 62.87 30.76 62.64 31.54 62.41 32.13 61.84 32.49 61.48 32.77 60.99 33.2 60.71 33.71 60.38 34.33 60.27 34.89 60.07 36.19 59.61 37.45 59.02 38.6 58.26 39.21 57.87 39.78 57.44 40.32 56.97 41.35 55.82 42.29 54.6 43.18 53.35 43.62 52.72 44.08 52.1 44.52 51.47 44.89 50.93 45.26 50.35 45.36 49.69 43.32 48.49 41.27 47.2 39.04 46.41 38 46.19 36.94 46.03 35.88 45.92 32.66 45.59 29.36 45.69 26.15 45.96 23.17 46.22 20.2 46.86 17.63 48.46 15.75 49.63 14.04 51.27 12.6 52.94 11.29 54.45 10.23 56.15 9.47 58 9.42 58.06 9.37 58.12 9.32 58.18 10.03 58.72 10.64 59.39 11.37 59.9Z" fill="#8D7B63" opacity="0.3"/><path d="M44.96 29.42C48.52 25.57 50.34 20.31 51.42 15.27 52.16 11.8 53.46 8.17 53.14 4.58 53.06 3.64 52.83 2.54 52.21 1.8 51.65 1.12 50.94 1.33 50.39 1.82 47.35 3.05 44.38 4.42 41.46 5.92 39.05 7.15 36.64 8.4 34.42 9.96 32.26 11.47 30.33 13.32 28.99 15.62 27.47 18.22 26.83 21.29 26.41 24.24 26.13 26.2 25.98 28.16 25.83 30.13 25.14 29.94 24.4 29.9 23.63 29.97 23.39 29.99 23.16 30.02 22.92 30.05 22.75 28.65 22.48 27.25 22.29 25.85 22.05 24.06 21.84 22.27 21.65 20.47 21.49 18.95 21.27 17.47 20.76 16.01 20.26 14.6 19.51 13.29 18.57 12.13 16.6 9.72 14.03 7.66 11.52 5.83 10.15 4.84 8.71 3.94 7.3 3.02 6.27 2.34 5.38 1.54 4.38 0.84 3.64 0.32 2.7-0.15 1.87 0.05L1.87 0.05C1.21 0.11 0.78 0.44 0.64 1.1 0.58 1.45 0.56 1.81 0.55 2.18 0.05 5.55-0.1 8.95 0.07 12.36 0.16 14.15 0.35 15.92 0.62 17.69 0.87 19.33 1.25 20.95 1.55 22.57 1.81 24.02 2.11 25.48 2.72 26.83 3.28 28.07 4.17 29.09 5.24 29.91 6.31 30.73 7.54 31.32 8.75 31.88 10.18 32.54 11.6 33.19 13.11 33.68 14.13 34.01 15.16 34.27 16.21 34.47 15.91 34.94 15.64 35.43 15.38 35.92 14.6 37.38 13.97 38.89 13.35 40.42 12.7 40.08 11.93 39.9 11.29 39.8 9.75 39.58 8.25 40.04 6.95 40.86 6.94 40.87 6.94 40.88 6.94 40.89 6.87 40.91 6.8 40.93 6.73 40.95 6.68 40.97 6.7 41.05 6.75 41.04 7.17 40.96 7.57 41 7.96 41.11 7.65 41.17 7.34 41.24 7.04 41.32 5.53 41.7 4 42.44 2.94 43.64 2.92 43.65 2.89 43.66 2.87 43.67 2.81 43.7 2.82 43.81 2.9 43.8 3.4 43.7 3.93 43.7 4.47 43.76 2.9 44.95 1.51 46.76 1.12 48.7 0.68 50.9 2.98 52.45 4.41 53.69 5.35 54.51 6.25 55.4 7.25 56.15 8.28 56.93 9.41 57.56 10.48 58.28 11.5 58.96 12.38 59.82 13.41 60.49 14.15 60.97 14.95 61.39 15.77 61.72 15.75 62.14 15.83 62.53 16.15 62.79 16.47 63.05 16.99 63.12 17.38 63.17 18.02 63.26 18.67 63.3 19.31 63.35 20.23 63.43 21.14 63.65 21.88 62.97 22.27 62.61 22.56 62.13 22.88 61.7 23.06 61.46 23.25 61.23 23.44 61 24.1 61.64 24.86 62.16 25.7 62.54 26.81 63.03 27.85 63.03 29.03 62.86 29.88 62.73 31.02 62.61 31.52 61.8 31.64 61.61 31.74 61.41 31.84 61.21 32.44 60.83 33.07 60.5 33.68 60.13 34.46 59.66 35.18 59.09 35.94 58.59 37.48 57.56 39.07 56.57 40.53 55.44 41.92 54.36 43.14 53 44.23 51.61 45.27 50.28 46.33 48.86 46.77 47.21 46.8 47.12 46.75 47.05 46.68 47.02 46.71 46.88 46.71 46.72 46.66 46.57 46.48 45.96 46.21 45.34 45.88 44.79 45.39 43.99 44.69 43.18 43.81 42.79 44.35 42.74 44.88 42.76 45.43 42.74 45.59 42.73 45.64 42.53 45.53 42.43 43.83 40.99 41.16 40.25 38.95 40.85 39.25 40.57 39.6 40.34 39.95 40.12 40.08 40.04 40.02 39.84 39.88 39.82 38.8 39.65 37.65 40.1 36.68 40.53 36.38 40.66 36.1 40.82 35.81 40.98 35.33 39.89 34.76 38.83 34.2 37.77 33.79 36.99 33.33 36.25 32.99 35.44 32.93 35.31 32.87 35.18 32.82 35.06 37.37 34.51 41.76 32.87 44.96 29.42Z" fill="#C0C3C2"/><path d="M35.19 43.99C34.71 43.55 34.2 43.16 33.65 42.8 32.49 42.03 31.16 41.55 29.79 41.28 29.73 41.34 29.61 41.33 29.6 41.24 29.6 41.24 29.6 41.24 29.59 41.24 29.45 41.21 29.51 41.01 29.65 41.03 29.86 40.3 29.48 39.5 29 38.94 28.63 38.51 27.87 37.72 27.22 37.93 26.59 38.14 26.58 38.97 26.58 39.52 26.58 39.96 26.45 40.59 26.72 40.97 26.73 40.99 26.74 41 26.74 41.02 26.76 41.07 26.74 41.12 26.69 41.14 26.67 41.16 26.64 41.16 26.61 41.16 25.63 41 24.59 40.96 23.6 41.06 22.71 41.16 21.8 41.39 20.9 41.27 20.89 41.27 20.89 41.26 20.88 41.26 20.83 41.25 20.79 41.22 20.79 41.15 20.8 40.47 20.97 39.79 20.91 39.11 20.88 38.72 20.73 38.03 20.19 38.06 19.8 38.08 19.45 38.32 19.18 38.59 18.61 39.14 18.17 39.88 18.11 40.68 18.08 41.08 18.08 41.4 17.67 41.57 17.15 41.79 16.58 41.88 16.05 42.08 15.16 42.43 14.32 42.81 13.51 43.32 12.43 44.01 11.1 44.83 10.48 46.01 14.4 43.08 19.46 41.62 24.33 41.64 25.72 41.64 27.12 41.72 28.5 41.89 29.85 42.06 31.27 42.27 32.56 42.69 33.49 43.02 34.35 43.49 35.19 43.99 35.19 43.99 35.19 43.99 35.19 43.99Z" fill="#8D7B63" opacity="0.3"/><path d="M46.68 47.04C46.71 46.9 46.71 46.74 46.66 46.59 46.6 46.38 46.52 46.17 46.44 45.97 46.46 46.55 46.35 47.1 45.92 47.61 45.57 48.03 45.13 48.34 44.7 48.66 44.17 49.05 43.67 49.48 43.13 49.87 40.96 51.41 38.51 52.62 35.99 53.48 35.25 53.73 34.39 54.02 33.63 53.73 32.9 53.45 32.54 52.59 32.31 51.9 32.12 51.33 31.98 50.64 31.53 50.21 31.05 49.76 30.39 49.46 29.78 49.24 28.51 48.8 27.16 48.55 25.82 48.4 24.03 48.19 22.22 48.16 20.45 48.48 19.18 48.71 17.84 48.98 16.67 49.55 16.06 49.85 15.47 50.22 15.02 50.74 14.61 51.21 14.36 51.74 14.08 52.3 13.68 53.09 13.12 53.96 12.11 53.89 10.72 53.8 9.34 53.01 8.14 52.36 7.46 51.99 6.78 51.59 6.08 51.26 5.54 51 4.99 50.74 4.48 50.42 3.55 49.81 2.73 49 2.54 47.87 2.36 46.75 2.83 45.84 3.23 44.86 2.2 45.95 1.39 47.28 1.11 48.69 0.67 50.89 2.97 52.44 4.4 53.68 5.34 54.5 6.24 55.39 7.24 56.14 8.27 56.92 9.4 57.55 10.47 58.27 11.49 58.95 12.37 59.81 13.4 60.48 14.14 60.96 14.94 61.38 15.76 61.71 15.74 62.13 15.82 62.52 16.14 62.78 16.46 63.04 16.98 63.11 17.37 63.16 18.01 63.25 18.66 63.29 19.3 63.34 20.22 63.42 21.13 63.64 21.87 62.96 22.26 62.6 22.55 62.12 22.87 61.69 23.05 61.45 23.24 61.22 23.43 60.99 24.09 61.63 24.85 62.15 25.69 62.53 26.8 63.02 27.84 63.02 29.02 62.85 29.87 62.72 31.01 62.6 31.51 61.79 31.63 61.6 31.73 61.4 31.83 61.2 32.43 60.82 33.06 60.49 33.67 60.12 34.45 59.65 35.17 59.08 35.93 58.58 37.47 57.55 39.06 56.56 40.52 55.43 41.91 54.35 43.13 52.99 44.22 51.6 45.26 50.27 46.32 48.85 46.76 47.2 46.79 47.13 46.74 47.06 46.68 47.04Z" fill="#8D7B63" opacity="0.3"/><path d="M35.74 58.34C35.01 58.7 34.22 59.09 33.46 58.62 32.82 58.22 32.32 57.66 31.75 57.19 31.97 57.57 32.14 58.01 32.08 58.45 32 59.05 31.63 59.55 31.24 60 30.3 61.1 29.31 61.65 27.87 61.82 26.84 61.95 25.66 61.85 24.97 60.98 24.29 60.14 24.12 59.05 24.02 58.01 24.02 57.95 24.07 57.9 24.13 57.9 26.2 57.88 28.26 57.16 29.67 55.59 30.98 54.12 31.57 52.22 31.61 50.28 31.59 50.26 31.57 50.23 31.54 50.2 31.06 49.75 30.4 49.45 29.79 49.23 28.52 48.79 27.17 48.54 25.83 48.39 24.04 48.18 22.23 48.15 20.46 48.47 19.19 48.7 17.85 48.97 16.68 49.54 16.07 49.84 15.48 50.21 15.03 50.73 14.98 50.79 14.93 50.85 14.88 50.91 14.93 52.74 15.66 54.47 17.07 55.7 18.64 57.08 20.67 57.79 22.74 57.98 22.8 57.98 22.85 58.02 22.85 58.09 22.8 59.34 22.98 60.21 22 61.26 21.32 61.98 20.73 62.02 19.86 62.03 18.91 62.04 17.48 62.34 16.76 61.54 16.24 60.96 16.15 60.02 16.14 59.18 16.03 59.51 15.87 59.83 15.6 59.97 15 60.29 14.12 60.02 13.5 59.89 13.05 59.79 12.6 59.68 12.15 59.56 12.56 59.89 12.97 60.21 13.42 60.49 14.16 60.97 14.96 61.39 15.78 61.72 15.76 62.14 15.84 62.53 16.16 62.79 16.48 63.05 17 63.12 17.39 63.17 18.03 63.26 18.68 63.3 19.32 63.35 20.24 63.43 21.15 63.65 21.89 62.97 22.28 62.61 22.57 62.13 22.89 61.7 23.07 61.46 23.26 61.23 23.45 61 24.11 61.64 24.87 62.16 25.71 62.54 26.82 63.03 27.86 63.03 29.04 62.86 29.89 62.73 31.03 62.61 31.53 61.8 31.65 61.61 31.75 61.41 31.85 61.21 32.45 60.83 33.08 60.5 33.69 60.13 34.47 59.66 35.19 59.09 35.95 58.59 36.67 58.11 37.4 57.63 38.13 57.15 37.34 57.57 36.54 57.95 35.74 58.34Z" fill="#8D7B63" opacity="0.3"/><path d="M53.14 4.58C53.1 4.1 53.02 3.57 52.86 3.07 52.68 2.9 52.49 2.76 52.25 2.68 51.06 2.31 49.97 3.03 48.9 3.44 45.71 4.66 42.63 6.24 39.82 8.17 37.33 9.88 34.61 11.3 32.7 13.73 31.78 14.9 30.94 16.18 30.49 17.61 30.05 18.99 29.86 20.43 29.87 21.88 29.88 24.58 30.19 27.58 28.76 30.01 28.73 30.06 28.66 30.08 28.61 30.05 27.73 29.5 27.48 28.36 27.35 27.41 27.18 26.14 27.24 24.83 27.33 23.56 27.42 22.23 27.52 20.94 27.85 19.64 28.14 18.48 28.53 17.29 28.74 16.1 27.42 18.59 26.82 21.47 26.43 24.23 26.15 26.19 26 28.15 25.85 30.12 25.16 29.93 24.42 29.89 23.65 29.96 23.41 29.98 23.18 30.01 22.94 30.04 22.77 28.64 22.5 27.24 22.31 25.84 22.07 24.05 21.86 22.26 21.67 20.46 21.51 18.94 21.29 17.46 20.78 16 20.77 15.96 20.75 15.93 20.74 15.89 20.84 17.27 20.89 18.65 20.94 20.02 21 21.75 21.07 23.44 21.3 25.16 21.48 26.49 21.75 28.12 21.05 29.35 21.01 29.42 20.93 29.42 20.87 29.37 19.67 28.26 19.32 26.39 19.06 24.85 18.9 23.9 18.78 22.95 18.66 22 18.56 21.21 18.51 20.37 18.3 19.6 17.55 16.88 16.37 14.3 14.72 11.99 13.08 9.71 11.09 7.71 8.99 5.85 7.41 4.48 6.11 2.82 4.43 1.58 3.7 1.04 2.8 0.44 1.86 0.46 1.42 0.46 1.05 0.6 0.73 0.82 0.7 0.9 0.67 0.99 0.64 1.1 0.58 1.45 0.56 1.81 0.55 2.18 0.05 5.55-0.1 8.95 0.07 12.36 0.16 14.15 0.35 15.92 0.62 17.69 0.87 19.33 1.25 20.95 1.55 22.57 1.81 24.02 2.11 25.48 2.72 26.83 3.28 28.07 4.17 29.09 5.24 29.91 6.31 30.73 7.54 31.32 8.75 31.88 10.18 32.54 11.6 33.19 13.11 33.68 14.13 34.01 15.16 34.27 16.21 34.47 15.91 34.94 15.64 35.43 15.38 35.92 14.6 37.38 13.97 38.89 13.35 40.42 12.7 40.08 11.93 39.9 11.29 39.8 10.96 39.75 10.63 39.74 10.3 39.75 11.37 39.99 12.54 40.33 13.48 40.87 13.55 40.43 13.79 39.99 13.99 39.61 14.34 38.95 14.75 38.32 15.1 37.66 15.88 36.22 16.49 34.76 17.5 33.46 18.45 32.23 19.7 31.17 21.18 30.65 21.95 30.38 22.69 30.26 23.44 30.25 23.46 30.23 23.49 30.21 23.53 30.22 23.61 30.23 23.69 30.24 23.77 30.25 23.93 30.25 24.09 30.26 24.26 30.27 24.84 30.27 25.43 30.21 26.02 30.33 26.76 30.48 27.47 30.73 28.14 31.08 29.41 31.73 30.47 32.66 31.34 33.78 32.19 34.86 32.84 36.09 33.46 37.32 33.76 37.93 34.09 38.53 34.35 39.16 34.54 39.63 34.72 40.12 34.95 40.58 35.24 40.9 35.42 41.31 35.54 41.73 35.87 41.28 36.27 40.88 36.72 40.53 36.7 40.54 36.68 40.55 36.67 40.55 36.37 40.68 36.09 40.84 35.8 41 35.32 39.91 34.75 38.85 34.19 37.79 33.78 37.01 33.32 36.27 32.98 35.46 32.92 35.33 32.86 35.2 32.81 35.08 37.36 34.51 41.74 32.87 44.95 29.41 48.51 25.56 50.33 20.3 51.41 15.26 52.16 11.8 53.45 8.17 53.14 4.58Z" fill="#8D7B63" opacity="0.3"/><path d="M31.84 61.21C31.88 61.18 31.92 61.16 31.96 61.14 32.09 60.9 32.22 60.66 32.33 60.42 32.56 59.97 33.09 59.26 32.91 58.73 32.73 58.2 32.34 57.77 31.96 57.38 31.89 57.31 31.82 57.23 31.75 57.16 32.03 57.68 32.31 58.19 32.59 58.7 32.87 59.21 32.21 59.93 31.95 60.33 31.59 60.88 31.12 61.67 30.47 61.92 29.76 62.19 28.92 62.19 28.18 62.23 27.32 62.28 26.51 62.26 25.72 61.87 25.18 61.6 24.4 61.26 23.98 60.81 23.58 60.38 23.68 59.56 23.62 59.01 23.54 58.15 23.48 57.29 23.45 56.43 23.31 56.44 23.18 56.45 23.04 56.44 23.03 57.43 23.18 58.4 23.2 59.39 23.21 59.95 23.36 60.24 23.07 60.66 22.78 61.08 22.3 61.78 21.92 62.1 21.54 62.42 21.55 62.45 21.01 62.76 20.67 62.96 19.9 62.93 19.52 62.93 18.83 62.93 17.95 62.89 17.29 62.58 17.1 62.52 16.92 62.44 16.77 62.3 16.32 61.9 16.36 61.31 16.37 60.76 16.38 59.98 16.41 59.2 16.45 58.42 16.28 59 16.11 59.58 15.99 60.17 15.89 60.65 15.79 61.13 15.79 61.61 15.79 61.72 15.79 61.82 15.78 61.92 15.8 62.26 15.9 62.57 16.16 62.79 16.48 63.05 17 63.12 17.39 63.17 18.03 63.26 18.68 63.3 19.32 63.35 20.24 63.43 21.15 63.65 21.89 62.97 22.28 62.61 22.57 62.13 22.89 61.7 23.07 61.46 23.26 61.23 23.45 61 24.11 61.64 24.87 62.16 25.71 62.54 26.82 63.03 27.86 63.03 29.04 62.86 29.89 62.73 31.03 62.61 31.53 61.8 31.64 61.61 31.74 61.41 31.84 61.21Z" fill="#8D7B63" opacity="0.7"/><path d="M51.92 4.32C51.79 3.7 51.24 3.82 50.8 4.04 47.96 5.26 45.21 6.68 42.51 8.19 40.17 9.5 37.89 10.98 35.93 12.81 34.03 14.59 32.42 16.71 31.67 19.23 30.77 22.25 30.97 25.43 31.15 28.53 31.2 29.4 31.28 30.27 31.33 31.13 31.34 31.24 31.48 31.23 31.51 31.14 31.83 31.47 32.42 31.45 32.84 31.41 33.77 31.32 34.7 31.03 35.58 30.75 37.66 30.08 39.77 29.33 41.62 28.16 44.16 26.54 45.75 23.99 47.08 21.35 47.81 19.89 48.61 18.44 49.27 16.95 49.93 15.47 50.35 13.89 50.68 12.31 50.88 11.35 51.04 10.37 51.24 9.41 51.41 8.63 51.55 7.84 51.63 7.05 51.68 6.83 51.73 6.6 51.78 6.37 51.91 5.72 52.05 4.98 51.92 4.32Z" fill="#D0725B"/><path d="M51.92 4.32C51.79 3.7 51.24 3.82 50.8 4.04 47.96 5.26 45.21 6.68 42.51 8.19 40.17 9.5 37.89 10.98 35.93 12.81 34.03 14.59 32.42 16.71 31.67 19.23 30.77 22.25 30.97 25.43 31.15 28.53 31.2 29.4 31.28 30.27 31.33 31.13 31.34 31.24 31.48 31.23 31.51 31.14 31.83 31.47 32.42 31.45 32.84 31.41 33.77 31.32 34.7 31.03 35.58 30.75 37.66 30.08 39.77 29.33 41.62 28.16 44.16 26.54 45.75 23.99 47.08 21.35 47.81 19.89 48.61 18.44 49.27 16.95 49.93 15.47 50.35 13.89 50.68 12.31 50.88 11.35 51.04 10.37 51.24 9.41 51.41 8.63 51.55 7.84 51.63 7.05 51.68 6.83 51.73 6.6 51.78 6.37 51.91 5.72 52.05 4.98 51.92 4.32ZM49.47 11.17C48.98 12.9 48.33 14.58 47.69 16.27 46.74 18.75 46 21.69 43.76 23.38 42.42 24.39 40.12 24.68 39.08 23.07 38.14 21.6 38.39 19.56 38.74 17.94 39.82 12.91 43.87 9.25 48.26 6.9 48.72 6.49 49.22 6.14 49.86 6.1 49.9 6.1 49.96 6.13 49.97 6.18 50.24 7.84 49.91 9.56 49.47 11.17Z" fill="#D0725B" opacity="0.4"/><path d="M17.08 26.17C16.96 25.19 16.82 24.22 16.7 23.24 16.64 22.82 16.62 22.39 16.53 21.97 16.51 21.91 16.5 21.84 16.48 21.77 16.44 21.23 16.39 20.68 16.34 20.14 16.08 17.55 15.29 15.16 13.85 12.98 12.33 10.68 10.49 8.63 8.57 6.66 6.62 4.67 4.42 2.98 2.33 1.16 2.29 1.12 2.21 1.18 2.25 1.23 2.31 1.31 2.38 1.39 2.44 1.47 2.06 1.75 1.96 2.17 1.91 2.64 1.83 3.43 1.82 4.24 1.82 5.03 1.82 6.81 1.82 8.6 1.8 10.38 1.76 13.72 1.98 17.04 2.73 20.3 3.06 21.76 3.57 23.18 4.35 24.47 5.09 25.71 6.18 26.73 7.36 27.55 8.58 28.4 9.95 28.95 11.3 29.53 12.79 30.18 14.31 30.77 15.93 31.03 16.1 31.06 16.28 31.06 16.45 31.07 16.53 31.08 16.59 31.04 16.63 30.99 16.61 31.08 16.6 31.17 16.58 31.26 16.55 31.4 16.76 31.46 16.82 31.33 17.52 29.79 17.27 27.79 17.08 26.17Z" fill="#D0725B"/><path d="M17.08 26.17C16.96 25.19 16.82 24.22 16.7 23.24 16.64 22.82 16.62 22.39 16.53 21.97 16.51 21.91 16.5 21.84 16.48 21.77 16.44 21.23 16.39 20.68 16.34 20.14 16.08 17.55 15.29 15.16 13.85 12.98 12.33 10.68 10.49 8.63 8.57 6.66 6.62 4.67 4.42 2.98 2.33 1.16 2.29 1.12 2.21 1.18 2.25 1.23 2.31 1.31 2.38 1.39 2.44 1.47 2.06 1.75 1.96 2.17 1.91 2.64 1.83 3.43 1.82 4.24 1.82 5.03 1.82 6.81 1.82 8.6 1.8 10.38 1.76 13.72 1.98 17.04 2.73 20.3 3.06 21.76 3.57 23.18 4.35 24.47 5.09 25.71 6.18 26.73 7.36 27.55 8.58 28.4 9.95 28.95 11.3 29.53 12.79 30.18 14.31 30.77 15.93 31.03 16.1 31.06 16.28 31.06 16.45 31.07 16.53 31.08 16.59 31.04 16.63 30.99 16.61 31.08 16.6 31.17 16.58 31.26 16.55 31.4 16.76 31.46 16.82 31.33 17.52 29.79 17.27 27.79 17.08 26.17ZM11.53 19.83C10.51 21.84 8.15 21.71 6.48 20.58 5.51 19.93 4.64 19.06 4.06 18.04 3.31 16.73 3.01 15.15 2.79 13.66 2.3 10.33 2.16 7.04 2.15 3.69 1.91 2.82 2.78 3.13 3.23 3.39 4.17 3.94 5.04 4.65 5.84 5.39 7.33 6.78 8.81 8.21 10.16 9.74 10.74 10.4 11.29 11.07 11.65 11.87 11.99 12.61 12.06 13.39 12.09 14.18 12.16 16.02 12.39 18.14 11.53 19.83Z" fill="#D0725B" opacity="0.4"/><path d="M34.56 30.93C33.7 30.33 33.45 29.09 33.3 28.12 32.83 25.13 32.64 21.81 33.52 18.88 34.32 16.22 36.08 13.89 38.07 11.99 39.58 10.55 41.51 9.49 42.94 7.96 42.79 8.04 42.65 8.12 42.5 8.2 40.16 9.51 37.88 10.99 35.92 12.82 34.02 14.6 32.41 16.72 31.66 19.24 30.76 22.26 30.96 25.44 31.14 28.54 31.19 29.41 31.27 30.28 31.32 31.14 31.33 31.25 31.47 31.24 31.5 31.15 31.82 31.48 32.41 31.46 32.83 31.42 33.46 31.36 34.09 31.21 34.71 31.03 34.67 30.99 34.61 30.96 34.56 30.93Z" fill="#D0725B" opacity="0.4"/><path d="M17.08 26.17C16.96 25.19 16.82 24.22 16.7 23.24 16.64 22.82 16.62 22.39 16.53 21.97 16.51 21.91 16.5 21.84 16.48 21.77 16.44 21.23 16.39 20.68 16.34 20.14 16.08 17.55 15.29 15.16 13.85 12.98 13.53 12.5 13.2 12.04 12.87 11.58 13.52 12.78 14.05 14.04 14.47 15.33 14.87 16.55 15.21 17.8 15.39 19.07 15.62 20.63 15.93 22.19 16.06 23.77 16.18 25.21 16.17 26.73 15.88 28.16 15.67 29.18 15.17 29.88 14.25 30.37 14.13 30.43 14.02 30.49 13.9 30.55 14.56 30.76 15.24 30.94 15.93 31.05 16.1 31.08 16.28 31.08 16.45 31.09 16.53 31.1 16.59 31.06 16.63 31.01 16.61 31.1 16.6 31.19 16.58 31.28 16.55 31.42 16.76 31.48 16.82 31.35 17.52 29.79 17.27 27.79 17.08 26.17Z" fill="#D0725B" opacity="0.4"/><path d="M31.51 50C30.28 48.53 28.24 47.77 26.4 47.4 24.37 47 22.15 47.11 20.16 47.65 18.98 47.97 17.8 48.39 16.72 48.95 16.04 49.3 14.65 50.02 14.87 50.99 14.78 52.47 15.88 53.86 16.92 54.82 18.42 56.21 20.24 57.06 22.27 57.31 24.54 57.59 26.85 56.98 28.68 55.61 30.01 54.61 31.33 53.02 31.47 51.3 31.62 50.78 31.77 50.11 31.51 50Z" fill="#D0725B"/><path d="M29.98 51.56C28.78 52.08 27.41 52.27 26.13 52.44 24.37 52.68 22.57 52.79 20.79 52.71 19.13 52.64 15.5 52.39 14.94 50.39 14.86 50.58 14.83 50.78 14.87 50.99 14.78 52.47 15.88 53.86 16.92 54.82 18.42 56.21 20.24 57.06 22.27 57.31 24.54 57.59 26.85 56.98 28.68 55.61 30.01 54.61 31.33 53.02 31.47 51.3 31.6 50.89 31.73 50.37 31.63 50.12 31.17 50.71 30.69 51.25 29.98 51.56Z" fill="#D0725B" opacity="0.4"/><path d="M20.27 40.76C20.34 39.61 20.31 38.79 19.79 39 19.26 39.21 18.67 41.04 18.94 41.54 19.22 42.04 19.56 42 19.85 41.88 20.15 41.75 20.24 41.15 20.27 40.76Z" fill="#151000"/><path d="M19.52 39.34C19.25 39.7 19.28 40.01 19.39 40.14 19.5 40.27 19.69 40.04 19.78 39.65 19.88 39.26 19.89 38.85 19.52 39.34Z" fill="#D1D1D1"/><path d="M20.64 36.12C20.64 36.12 20.16 34.53 19.41 34.67 18.66 34.81 18.33 36.77 18.34 36.99 18.35 37.21 18.39 37.98 18.61 37.54 18.83 37.09 19.74 36.53 20.18 37.04 20.62 37.56 21.25 37.7 20.64 36.12Z" fill="#A6A291" opacity="0.6"/><path d="M20.64 36.12C20.64 36.12 20.16 34.53 19.41 34.67 18.66 34.81 18.54 36.13 18.56 36.35 18.57 36.57 18.36 36.7 18.78 36.43 19.39 36.04 19.61 36.01 19.97 36.18 20.57 36.47 20.81 36.61 20.64 36.12Z" fill="#A6A291"/><path d="M26.97 40.65C26.9 39.5 26.92 38.68 27.45 38.89 27.98 39.1 28.57 40.93 28.3 41.43 28.03 41.93 27.68 41.89 27.38 41.77 27.09 41.64 26.99 41.04 26.97 40.65Z" fill="#151000"/><path d="M27.14 39.28C27.06 39.73 27.22 39.98 27.38 40.05 27.54 40.12 27.6 39.83 27.51 39.44 27.43 39.05 27.26 38.68 27.14 39.28Z" fill="#D1D1D1"/><path d="M26.6 36.01C26.6 36.01 27.08 34.42 27.83 34.56 28.58 34.7 28.92 36.66 28.9 36.88 28.89 37.1 28.85 37.87 28.63 37.43 28.41 36.99 27.5 36.42 27.06 36.93 26.62 37.45 25.99 37.59 26.6 36.01Z" fill="#A6A291" opacity="0.6"/><path d="M26.6 36.01C26.6 36.01 27.08 34.42 27.83 34.56 28.58 34.7 28.7 36.02 28.69 36.24 28.67 36.46 28.89 36.59 28.47 36.32 27.86 35.94 27.64 35.91 27.28 36.07 26.66 36.37 26.43 36.5 26.6 36.01Z" fill="#A6A291"/><path d="M33.26 42.83C29.63 41.7 25.75 41.34 21.97 41.61 18.37 41.86 14.93 42.78 12 44.98 11.94 45.02 12 45.12 12.07 45.08 13.52 44.19 15.02 43.44 16.64 42.9 18.38 42.32 20.18 42.09 22 41.95 25.8 41.67 29.51 42.25 33.24 42.92 33.28 42.93 33.32 42.85 33.26 42.83Z" fill="#A6A291"/><g><path d="M23.44 61C23.25 61.23 23.06 61.46 22.88 61.7 22.56 62.13 22.28 62.6 21.88 62.97 21.67 63.17 21.44 63.29 21.19 63.36 21.18 63.86 21.17 64.4 21.45 64.82 21.98 65.63 23.21 65.2 23.92 64.99 23.96 64.98 23.96 64.94 23.95 64.91 23.98 64.89 24.01 64.88 24.04 64.86 24.05 64.85 24.05 64.84 24.06 64.84 24.53 65.38 25.69 64.87 26.21 64.71 26.68 64.57 26.81 64.15 26.87 63.71 26.91 63.44 26.92 63.17 26.92 62.91 26.52 62.85 26.11 62.73 25.7 62.55 24.85 62.15 24.1 61.63 23.44 61Z" fill="#D1D1D1"/></g><g opacity="0.3"><path d="M21.32 64.32C21.27 64 21.67 63.69 21.88 63.51 22.18 63.25 22.6 62.83 23.03 62.83 23.37 62.83 23.52 63 23.72 63.21 24.23 61.79 25.57 63.66 26.54 63.42 26.6 63.4 26.66 63.44 26.67 63.5 26.72 63.66 26.78 63.82 26.83 63.99 26.85 63.9 26.87 63.8 26.88 63.7 26.92 63.43 26.93 63.16 26.93 62.9 26.53 62.84 26.12 62.72 25.71 62.54 24.86 62.16 24.11 61.64 23.45 61 23.26 61.23 23.07 61.46 22.89 61.7 22.57 62.13 22.29 62.6 21.89 62.97 21.68 63.17 21.45 63.29 21.2 63.36 21.19 63.86 21.18 64.4 21.46 64.82 21.5 64.88 21.54 64.92 21.58 64.97 21.44 64.77 21.35 64.52 21.32 64.32Z" fill="#8D7B63"/></g><g><path d="M26.55 62.87C26.55 63.28 26.6 64 26.26 64.29 26.15 64.39 25.87 64.4 25.73 64.43 25.55 64.47 25.39 64.6 25.2 64.65 24.87 64.73 24.26 64.73 24 64.48 23.92 63.79 23.83 63.1 23.81 62.39 23.8 62.03 23.79 61.68 23.79 61.32 23.67 61.22 23.56 61.12 23.44 61.01 23.42 62.23 23.45 63.51 23.85 64.63 23.72 64.67 23.59 64.75 23.47 64.81 23.31 64.9 23.15 64.96 22.99 64.99 22.43 65.02 21.84 64.94 21.61 64.46 21.45 64.13 21.44 63.67 21.45 63.25 21.37 63.29 21.28 63.32 21.18 63.35 21.17 63.85 21.16 64.39 21.44 64.81 21.97 65.62 23.2 65.19 23.91 64.98 23.95 64.97 23.95 64.93 23.94 64.9 23.97 64.88 24 64.87 24.03 64.85 24.04 64.84 24.04 64.83 24.05 64.83 24.52 65.37 25.68 64.86 26.2 64.7 26.67 64.56 26.8 64.14 26.86 63.7 26.9 63.43 26.91 63.16 26.91 62.9 26.78 62.88 26.66 62.85 26.53 62.82 26.55 62.84 26.55 62.85 26.55 62.87Z" fill="#A6A291"/></g><path d="M21.31 59.66C20.83 59.3 20.27 59.15 19.7 59.01 18.9 58.81 18.1 58.64 17.29 58.52 16.61 58.42 15.93 58.38 15.24 58.43 14.37 58.49 13.53 58.66 12.65 58.6 12.62 58.6 12.61 58.65 12.64 58.65 14.11 58.78 15.56 58.62 17.03 58.83 18.47 59.03 19.85 59.46 21.25 59.81 21.32 59.81 21.37 59.7 21.31 59.66Z" fill="#452C00"/><path d="M20.12 60.07C19.63 59.8 19.01 59.76 18.47 59.69 17.79 59.61 17.11 59.59 16.43 59.58 15.01 59.57 13.64 59.79 12.26 60.14 12.24 60.15 12.25 60.18 12.27 60.17 13.57 59.9 14.93 59.89 16.25 59.89 16.97 59.9 17.7 59.94 18.41 59.99 18.97 60.03 19.54 60.02 20.09 60.13 20.14 60.15 20.15 60.09 20.12 60.07Z" fill="#452C00"/><path d="M20.77 61.16C17.94 60.91 15.31 62.53 12.95 63.88 12.91 63.9 12.95 63.96 12.99 63.94 15.43 62.72 18 61.45 20.77 61.24 20.82 61.25 20.82 61.17 20.77 61.16Z" fill="#452C00"/><path d="M35.57 56.53C34.31 56.47 33.09 56.87 31.92 57.29 30.63 57.75 29.28 58.16 28.05 58.77 27.84 58.87 27.96 59.23 28.18 59.12 29.32 58.57 30.52 58.16 31.7 57.71 32.94 57.23 34.22 56.63 35.57 56.61 35.61 56.61 35.62 56.53 35.57 56.53Z" fill="#452C00"/><path d="M34.95 58.68C33.86 58.81 32.76 58.75 31.68 58.97 30.62 59.19 29.55 59.33 28.49 59.57 28.31 59.61 28.38 59.92 28.56 59.88 29.55 59.69 30.55 59.52 31.53 59.29 32.66 59.03 33.81 58.95 34.95 58.77 35.01 58.76 35.01 58.68 34.95 58.68Z" fill="#452C00"/><path d="M35.03 61.5C34.09 61.04 33.04 60.83 32.02 60.65 31.03 60.47 29.94 60.22 28.93 60.24 28.84 60.24 28.82 60.38 28.9 60.41 29.78 60.76 30.84 60.76 31.77 60.87 32.89 61 33.93 61.25 34.99 61.58 35.04 61.59 35.08 61.53 35.03 61.5Z" fill="#452C00"/><path d="M26.08 48.35C25.73 48.22 25.32 48.19 24.91 48.19 24.63 48.15 24.32 48.17 24.07 48.18 23.32 48.18 22.57 48.23 21.82 48.32 21.1 48.4 20.36 48.52 19.68 48.74 19.36 48.85 18.86 49.04 18.83 49.38 18.76 50.2 20.73 50.1 21.29 50.1 22.74 50.08 24.32 49.94 25.69 49.49 25.99 49.39 26.38 49.25 26.53 49 26.68 48.71 26.36 48.46 26.08 48.35Z" fill="#E88F7C"/><path d="M28.65 48.9C27.54 48.12 25.58 49.89 28.02 49.71 28.51 49.67 29.22 49.3 28.65 48.9Z" fill="#E88F7C"/><path d="M37.36 45.27C33.51 42.66 29.07 41.65 24.47 41.86 19.84 42.07 14.87 43.04 11.28 46.17 11.2 46.24 11.28 46.35 11.37 46.3 15.23 44.15 19.78 43.31 24.15 43.01 26.4 42.85 28.68 42.99 30.89 43.42 33.07 43.84 35.07 44.89 37.16 45.6 37.35 45.65 37.55 45.4 37.36 45.27Z" fill="#D1D1D1"/><path d="M39.26 40.18C37.7 40.19 36.21 40.99 35.45 42.37 35.41 42.44 35.52 42.5 35.57 42.44 36.54 41.3 37.92 40.81 39.3 40.34 39.38 40.31 39.35 40.18 39.26 40.18Z" fill="#D1D1D1"/><path d="M44.77 42.29C43.08 40.56 40.25 40.2 38.28 41.51 38.24 41.54 38.27 41.62 38.32 41.6 40.36 40.65 42.84 41.31 44.67 42.45 44.77 42.5 44.84 42.36 44.77 42.29Z" fill="#D1D1D1"/><path d="M44.73 43.55C43.96 42.75 43.1 42.67 42.06 42.66 41.99 42.66 41.99 42.77 42.05 42.79 42.84 42.98 43.65 43.2 44.27 43.75 45 44.38 45.52 45.22 45.86 46.11 45.9 46.23 46.09 46.19 46.08 46.07 45.95 45.12 45.38 44.23 44.73 43.55Z" fill="#D1D1D1"/><path d="M5.38 43.79C4.24 44 3.24 45.02 2.99 46.14 2.98 46.18 3.04 46.21 3.06 46.18 3.36 45.74 3.64 45.27 4.02 44.88 4.42 44.47 4.95 44.23 5.43 43.93 5.5 43.89 5.46 43.78 5.38 43.79Z" fill="#D1D1D1"/><path d="M8.91 41.46C7.03 40.88 4.71 42.22 3.39 43.47 3.34 43.52 3.42 43.59 3.47 43.56 5.15 42.51 6.92 41.91 8.89 41.73 9.06 41.7 9.05 41.5 8.91 41.46Z" fill="#D1D1D1"/><path d="M13.58 41.29C11.79 39.75 9.57 39.93 7.5 40.75 7.43 40.78 7.47 40.87 7.54 40.86 9.63 40.41 11.52 40.53 13.48 41.44 13.58 41.49 13.66 41.36 13.58 41.29Z" fill="#D1D1D1"/><path d="M20.14 16.04C19.77 14.45 18.66 13.02 17.62 11.81 16.49 10.51 15.24 9.3 13.99 8.13 12.48 6.71 10.69 5.62 8.98 4.45 8.95 4.43 8.91 4.47 8.94 4.5 11.63 6.94 14.28 9.33 16.73 12.03 17.8 13.21 18.73 14.49 19.31 15.98 20.05 17.89 20.28 20.04 20.32 22.07 20.32 22.14 20.43 22.13 20.43 22.06 20.46 20.07 20.59 18.01 20.14 16.04Z" fill="#D1D1D1"/><path d="M45.81 3.92C43.51 4.97 41.4 6.41 39.14 7.55 36.92 8.66 34.84 9.97 32.95 11.59 31.31 12.99 29.93 14.55 29.09 16.56 28.27 18.52 28.15 20.72 28.1 22.82 28.1 22.91 28.25 22.92 28.26 22.83 28.51 20.77 28.94 18.78 29.74 16.86 30.66 14.64 32.45 12.97 34.29 11.48 37.84 8.6 41.95 6.36 45.92 4.13 46.03 4.06 45.93 3.87 45.81 3.92Z" fill="#D1D1D1"/><path d="M23.25 31.19C25.2 30.97 27.06 31.64 28.81 32.47 29.49 32.79 30.14 33.16 30.76 33.56 30.09 32.78 29.34 32.08 28.44 31.58 27.04 30.79 25.41 30.44 23.81 30.41 21.57 30.37 19.73 31.52 18.41 33.17 19.83 32.06 21.59 31.37 23.25 31.19Z" fill="#D1D1D1"/></g></g></svg>