<svg width="255.63" height="224.28" viewBox="0 0 255.63 224.28" xmlns="http://www.w3.org/2000/svg" xmlns:xlink="http://www.w3.org/1999/xlink" xml:space="preserve" overflow="hidden"><defs></defs><g><path d="M221.73 142.5C218.86 141.23 216.24 139.69 214.03 137.44 212.03 135.39 217.07 134.3 218.7 133.34 220.82 132.09 221.81 130.22 220.45 128.06 218.35 124.73 213.53 123.05 210.85 120.19 207.69 116.82 205.24 112.84 205.92 108.08 206.65 103.03 212.6 99.26 216.37 96.68 216.75 96.42 217.05 96 216.57 95.68 214.7 94.42 213.43 92.49 211.59 91.24 210.6 91.54 210.53 91.55 211.39 91.28 212.01 91.09 212.64 90.97 213.27 90.83 216.86 90.05 220.53 89.59 224.15 88.95 227.95 88.28 236.06 87.78 238.48 84.08 241.29 79.78 230.26 77.23 227.9 77.21 220.85 77.15 215.4 82.19 208.12 79.03 200.62 75.78 203.64 63.33 205.06 57.46 205.21 56.85 204.25 56.79 203.49 57.05 204.15 55.96 204.8 54.99 205.06 54.47 207.3 50.03 209.42 45.53 211.03 40.82 213.02 35.01 213.51 27.35 205.15 29.22 200.82 30.19 196.75 31.8 194.26 35.63 192.72 38 192.1 40.75 190.26 42.96 184.26 50.18 180.16 40.28 178.33 37.12 176.98 34.79 171.14 34.71 168.86 34.39 168.46 34.33 167.17 34.3 166.09 34.48 163.66 32.49 161.61 30.55 162.45 27.08 163.51 22.69 164.65 18.46 165.28 13.97 166.12 8.07 164.44-0.12 156.7 0.54 144.99 1.54 147.81 19.36 145.07 27.98 141.77 27.19 138.96 28.22 135.94 30.23 130.56 33.82 129.87 24.34 130.18 21.46 130.62 17.39 129.58 14.01 127.85 10.35 121.99-2.06 111.22 4.48 109.63 15.81 108.76 22.04 113.8 27.83 116.74 32.82 118.45 35.74 119.55 38.8 118.85 42.2 118.26 45.05 111.91 53.05 109.56 48.78 105.62 41.64 102.08 44.74 98.66 49.38 93.5 52.44 88.11 55.15 84.13 59.77 80.6 63.86 81.28 67.69 82.66 72.47 84.44 78.66 84.5 87.26 75.63 85.98 72.39 85.51 69.14 84.98 65.86 85.24 57.86 85.87 64.72 94.12 68.34 96.07 70.42 97.19 73.51 95.69 75.56 95.16 77.81 94.58 79.44 94.7 79.31 97.56 79.18 100.2 76.31 100.74 74.08 101 72.25 101.21 70.09 101.35 68.44 102.27 63.65 104.97 60.65 114.51 67.32 116.59 73.28 118.45 82.38 112.78 86.55 117.7 90.04 121.82 94.05 127.66 93.2 133.38 92.91 135.33 90.52 137.28 89.8 139.16 88.55 142.4 86.23 144.36 84.75 147.34 83.12 150.65 88.09 155.49 90.83 156.4 94.69 157.68 99 155.54 102.67 154.33 106.05 153.22 109.33 151.78 112.84 151.16 115.99 150.61 116.88 152.06 116.74 154.13 112.06 160.14 106.24 167.32 109.1 174.12 111.75 180.42 120.37 180 122.79 174.27 123.69 172.14 124.08 169.88 125.1 167.78 127.89 162.02 132.81 165 133.77 168.81 134.49 171.65 134.33 175.14 137.35 176.59 139.53 177.64 142.41 176.67 144.02 175.11 145.03 174.12 145.29 172.39 145.57 171.1 145.83 169.87 146.02 168.74 146.56 167.57 148.04 164.38 153.23 166.25 154.17 169.13 155.75 173.96 155.45 177.12 158.75 181.36 160.13 183.13 162.57 186.3 165.26 185.26 167.37 184.45 167.63 182.08 167.95 180.1 168.87 174.35 168.97 168.93 174.21 165.23 179.51 161.49 187.13 161.57 193 158.9 199.4 155.99 199.4 145.64 209.16 150.4 211.58 151.58 213.18 155.07 214.92 157.01 216.19 158.42 217.71 159.76 219.15 160.98 222.28 163.62 225.86 165.8 229.63 167.35 233.67 169.01 239.55 169.38 240.48 163.97 242.58 151.83 230.5 146.4 221.73 142.5Z" stroke="#070707" stroke-miterlimit="10" fill="#FFFFFF"/><path d="M65.03 66.19C69.84 67.98 74.78 64.77 76.66 60.37 77.52 58.35 77.69 55.6 76.35 53.75 74.65 51.39 71.69 51 68.97 51.11 68.82 51.12 68.62 51.17 68.42 51.25 65.98 51.26 63.63 52.26 61.87 54.58 58.81 58.63 60.25 64.42 65.03 66.19Z" stroke="#070707" stroke-miterlimit="10" fill="#FFFFFF"/><path d="M52.45 105.05C50.91 103.16 47.89 103.12 45.25 103.45 39.88 102.5 34.51 104.32 32.01 109.66 31.92 109.84 31.87 110.09 32.04 110.25 37.4 115.43 46.08 116.82 51.51 110.85 52.92 109.3 53.94 106.88 52.45 105.05Z" stroke="#070707" stroke-miterlimit="10" fill="#FFFFFF"/><path d="M14.09 101.37C14.28 100.97 14.16 100.55 13.41 100.45 8.57 99.79 4.07 102.15 1.61 106.33-0.64 110.14 0.58 114.47 4.8 116 9.51 117.7 14.9 115.76 17.39 111.48 19.77 107.37 17.71 103.34 14.09 101.37Z" stroke="#070707" stroke-miterlimit="10" fill="#FFFFFF"/><path d="M140.18 186.97C140.37 186.76 140.34 186.57 139.86 186.49 135.34 185.73 130.44 187.67 128.33 191.88 125.85 196.84 131.5 200.71 135.92 200.83 139.91 200.94 143.77 198.75 145.2 194.94 146.77 190.81 143.68 188.11 140.18 186.97Z" stroke="#070707" stroke-miterlimit="10" fill="#FFFFFF"/><path d="M160.53 211.4C159.56 211.16 158.66 212.16 159.04 212.81 156.38 212.9 153.78 213.85 152.26 216.21 150.65 218.7 151.25 221.74 153.93 223.12 157.51 224.97 163.03 222.69 165.28 219.71 166.31 218.34 166.71 216.44 165.93 214.87 164.89 212.78 162.66 211.92 160.53 211.4Z" stroke="#070707" stroke-miterlimit="10" fill="#FFFFFF"/><path d="M253.11 154.69C253.36 154.57 254.13 154.19 253.75 153.86 253.52 153.66 253.13 153.66 252.77 153.73 252.62 153.6 252.43 153.51 252.2 153.48 252.18 153.37 252.15 153.26 252.15 153.14 252.13 152.59 250.25 152.87 249.81 153.5 249.09 153.37 248.04 153.76 248.03 154.42 248.01 155.76 247.41 157.07 247.5 158.39 247.62 160 249.51 160.5 250.81 160.78 252.25 161.08 253.11 161.1 254.13 159.96 254.76 159.26 255.19 158.47 255.13 157.52 255.05 156.28 253.53 155.76 253.11 154.69Z" stroke="#070707" stroke-miterlimit="10" fill="#FFFFFF"/><path d="M246.25 104.67C246.3 104.33 246.14 103.99 245.75 103.86 243.64 103.18 240.96 102.76 239.22 104.49 238.3 105.4 238.08 106.64 238.15 107.9 237.43 108.55 237.08 109.4 237.55 110.51 238.3 112.31 241.08 114.42 243.07 114.52 245.84 114.66 247.78 110.94 248.62 108.72 249.51 106.35 248.11 105.21 246.25 104.67Z" stroke="#070707" stroke-miterlimit="10" fill="#FFFFFF"/><path d="M184.97 24.31C184.97 24.49 185.38 24.48 185.67 24.45 185.63 24.96 185.7 25.5 185.81 26 185.93 26.53 186.85 26.4 187.2 26.31 188.39 26 189.63 25.61 190.55 24.74 191.23 24.1 191.57 23.19 192.22 22.52 192.38 22.35 192.61 22.03 192.37 21.81 192.12 21.59 191.86 21.39 191.58 21.22 191.65 21.12 191.63 21.03 191.41 21 190.71 20.92 190.09 20.18 189.41 19.83 189.24 19.44 189.11 19.04 189.1 18.6 189.09 18.23 186.64 18.6 186.66 19.25 186.66 19.43 186.71 19.6 186.75 19.78 186.29 19.93 185.86 20.14 185.49 20.4 184.79 20.89 184.98 21.44 184.98 22.23 184.97 22.93 184.97 23.62 184.97 24.31Z" stroke="#070707" stroke-miterlimit="10" fill="#FFFFFF"/><path d="M66.26 203.49C65.67 203.11 63.62 204.11 63.96 204.33 64.21 204.48 64.43 204.64 64.65 204.81 59.7 204.64 55.26 207.73 52.86 212.02 50.27 216.63 52.22 221.96 57.92 222.29 62.73 222.57 66.53 219.08 67.55 214.52 67.58 214.37 67.6 214.22 67.63 214.07 67.79 213.99 67.93 213.9 68 213.79 70.28 209.84 70.39 206.12 66.26 203.49Z" stroke="#070707" stroke-miterlimit="10" fill="#FFFFFF"/></g></svg>