<svg width="91.31" height="100" viewBox="0 0 91.31 100" xmlns="http://www.w3.org/2000/svg" xmlns:xlink="http://www.w3.org/1999/xlink" xml:space="preserve" overflow="hidden"><defs></defs><g><g><g><path d="M73.36 69.73C74.56 72.44 74.73 75.27 72.73 78.21 70.09 82.09 69.51 84.9 71.16 85.89 72.56 86.63 73.8 85.92 74.12 85.48 74.12 85.48 75.67 86.34 76.56 84.56 76.99 84.69 77.26 84.29 77.33 84.16 77.42 74.23 73.39 69.7 73.39 69.7L73.36 69.73Z" fill="#F9EFEF"/><path d="M73.36 69.73C74.56 72.44 74.73 75.27 72.73 78.21 70.09 82.09 69.51 84.9 71.16 85.89 72.56 86.63 73.8 85.92 74.12 85.48 74.12 85.48 75.67 86.34 76.56 84.56 76.99 84.69 77.26 84.29 77.33 84.16 77.42 74.23 73.39 69.7 73.39 69.7L73.36 69.73Z" fill="#D48042" opacity="0.7"/><g><path d="M73.39 69.7 73.35 69.73C74.55 72.44 74.72 75.27 72.72 78.21 72.5 78.54 72.3 78.85 72.1 79.16L72.14 79.16C72.14 79.16 74.33 77.92 74.66 75.53 74.99 73.14 75.82 75.7 76.15 78.17 76.48 80.65 76.36 82.84 74.46 82.71 72.56 82.58 72.39 81.64 72.35 81.92 72.31 82.21 72.43 82.83 73.22 83.16 74.01 83.49 73.84 84.03 73.68 84.73 73.51 85.43 72.69 85.93 71.74 85.47 70.86 85.05 70.12 84.17 70.48 82.56 70.01 84.16 70.22 85.32 71.16 85.88 72.56 86.62 73.8 85.91 74.12 85.47 74.12 85.47 75.67 86.33 76.56 84.55 76.99 84.68 77.26 84.28 77.33 84.15 77.42 74.22 73.39 69.7 73.39 69.7ZM75.33 85.14C74.09 85.39 74.5 84.56 74.63 83.41 74.63 83.41 75.7 83.37 76.2 83 76.7 82.62 76.57 84.89 75.33 85.14Z" fill="#994C17"/></g></g><g><path d="M54.71 74.41C54.71 74.41 52.33 78.28 52.03 81.86 49.85 79.58 49.05 73.22 49.05 73.22L54.71 74.41Z" fill="#F9EFEF"/><path d="M54.71 74.41C54.71 74.41 52.33 78.28 52.03 81.86 49.85 79.58 49.05 73.22 49.05 73.22L54.71 74.41Z" fill="#93440F"/><path d="M37.55 78.29C39.86 86.38 42.01 92.74 47.13 96.3 48.29 99.69 51.26 101.01 52.58 99.19 54.97 99.19 54.97 97.04 54.81 96.46 55.88 95.96 55.13 93.08 52.08 92.01 51.87 90.91 51.87 90.12 51.87 90.12 45.47 86.6 37.55 78.29 37.55 78.29Z" fill="#F9EFEF"/><path d="M37.55 78.29C39.86 86.38 42.01 92.74 47.13 96.3 48.29 99.69 51.26 101.01 52.58 99.19 54.97 99.19 54.97 97.04 54.81 96.46 55.88 95.96 55.13 93.08 52.08 92.01 51.87 90.91 51.87 90.12 51.87 90.12 45.47 86.6 37.55 78.29 37.55 78.29Z" fill="#D48042" opacity="0.7"/><g><path d="M52.08 92.01C51.87 90.91 51.87 90.12 51.87 90.12 45.46 86.6 37.54 78.28 37.54 78.28 38.8 82.68 40 86.56 41.67 89.76 41.53 89.36 39.76 84.45 41.06 83.8 42.42 83.12 44.64 87.69 49.46 89.73 51.25 90.59 51.81 91.89 49.95 91.21 48.1 90.53 50.51 91.95 52.17 92.75 53.84 93.55 55.38 95.84 54.02 95.03 52.66 94.23 54.82 96.7 53.59 97.68 52.36 98.67 50.75 97.25 50.5 97.62 50.25 97.99 51.67 98.79 51.18 99.1 50.69 99.41 48.71 98.67 48.03 96.63 47.35 94.59 45.87 95.33 43.59 92.8 43.54 92.75 43.5 92.71 43.46 92.66 44.5 94.07 45.69 95.28 47.12 96.27 48.28 99.66 51.25 100.98 52.57 99.16 54.96 99.16 54.96 97.01 54.8 96.43 55.88 95.96 55.13 93.08 52.08 92.01Z" fill="#994C17"/></g><path d="M41.65 85.98C41.65 85.98 42.04 91.06 46.93 94.02 48.53 95.12 41.9 93.83 41.65 85.98Z" fill="#CDB3B3"/></g><g><g><path d="M31.19 60.45C31.19 60.45 21.2 65.9 24.91 75.4 25.82 78.04 21.69 78.46 20.12 70.53 18.55 62.6 26.4 56.41 27.8 54.59 29.2 52.77 33.09 48.97 33.33 45.92 32.92 52.76 31.19 60.45 31.19 60.45Z" fill="#984706"/><g><path d="M25.07 62.18C24.41 61.02 26.31 60.94 25.07 59.21 24.75 58.77 24.65 58.34 24.66 57.95 22.07 60.91 19.09 65.35 20.11 70.52 21.68 78.45 25.81 78.04 24.9 75.39 23.56 71.97 24 69.07 25.11 66.77 23.74 65.58 25.67 63.22 25.07 62.18Z" fill="#F9EFEF"/></g><g opacity="0.5"><path d="M27.8 54.58C27.69 54.72 27.54 54.89 27.36 55.08 29.08 53.58 31.37 51.65 31.17 53.15 30.95 54.81 31.03 57.91 28.57 59.57 26.12 61.23 20.22 66.94 23.32 72.99 24.24 74.4 24.91 75.81 24.73 76.89 25.04 76.61 25.14 76.08 24.91 75.4 21.19 65.9 31.19 60.45 31.19 60.45 31.19 60.45 32.92 52.77 33.34 45.91 33.09 48.96 29.2 52.76 27.8 54.58Z" fill="#984706"/></g></g><path d="M26.33 57.32C26.33 57.32 19.6 63.55 21.03 71.2 18.96 67.34 21.61 59.83 26.33 57.32Z" fill="#FFFFFF"/></g><path d="M82.11 52.8C79.51 48.46 78.15 42.76 72.45 38.06 66.75 33.35 66.5 33.1 65.39 30.5L33.59 42.8C33.59 42.8 33.67 45.33 31.69 54.74 29.71 64.16 30.53 70.76 37.55 78.28 37.55 78.28 45.47 86.59 51.88 90.12 51.88 90.12 55.31 92.01 57.4 92.52 59.46 95.13 61.21 95.58 62.86 95.17 64.51 94.76 64.39 93.02 64.39 93.02 64.39 93.02 66.12 92.24 66.17 90.42 66.21 88.6 64.77 88.11 64.77 88.11 64.77 88.11 64.71 85.76 61.55 85.01 59.51 84.61 57.25 85.72 57.25 85.72 57.25 85.72 55.61 84.8 54.36 83.18 52.05 80.48 51.19 77.91 49.83 74.06 51.65 74.56 54.82 74.97 54.82 74.97 61.02 75.71 69.03 73.48 71.92 67.12 72.49 67.97 72.98 68.83 73.37 69.71L73.41 69.68C73.41 69.68 77.43 74.21 77.35 84.14 77.36 84.12 77.37 84.1 77.37 84.1L77.23 87.67C77.23 87.67 76.05 86.43 75 86.93 73.95 87.43 72.34 89.28 72.03 92.13 71.72 94.98 73.52 95.17 73.52 95.17 73.52 95.17 74.82 98.83 78.79 96.41 80.28 97.34 85.07 95.13 88.21 82.16 91.32 69.2 84.71 57.14 82.11 52.8Z" fill="#F9EFEF"/><g opacity="0.3"><path d="M81.39 51.52C81.37 51.63 81.35 51.74 81.32 51.85 90.79 68.61 82.7 74.11 79.62 68.12 76.54 62.13 74.44 61.81 76.06 57.76 77.68 53.71 75.29 54.24 73.51 57.8 64.5 79.91 44.81 70.07 41.74 68.29 38.66 66.51 36.72 65.86 41.9 70.88 47.08 75.9 47.08 81.46 40.28 78.22 31.88 73.6 30.91 64.25 30.75 62.03 30.64 67.91 32.47 72.86 37.54 78.29 37.54 78.29 45.46 86.6 51.87 90.13 51.87 90.13 55.3 92.02 57.39 92.53 59.45 95.14 61.2 95.59 62.85 95.18 64.5 94.77 64.38 93.03 64.38 93.03 64.38 93.03 66.11 92.25 66.16 90.43 66.2 88.61 64.76 88.12 64.76 88.12 64.76 88.12 64.7 85.77 61.54 85.02 59.5 84.62 57.24 85.73 57.24 85.73 57.24 85.73 55.6 84.81 54.35 83.19 52.04 80.49 51.18 77.92 49.82 74.07 51.64 74.57 54.81 74.98 54.81 74.98 61.01 75.72 69.02 73.49 71.91 67.13 72.48 67.98 72.97 68.84 73.36 69.72L73.4 69.69C73.4 69.69 77.42 74.22 77.34 84.15 77.35 84.13 77.36 84.11 77.36 84.11L77.22 87.68C77.22 87.68 76.04 86.44 74.99 86.94 73.94 87.44 72.33 89.29 72.02 92.14 71.71 94.99 73.51 95.18 73.51 95.18 73.51 95.18 74.81 98.84 78.78 96.42 80.27 97.35 85.06 95.14 88.2 82.17 91.34 69.2 84.73 57.14 82.13 52.81 81.86 52.39 81.62 51.96 81.39 51.52Z" fill="#D48042"/></g><g><path d="M33.09 65.05C34.23 64.97 34.91 69.06 37.33 68.38 39.75 67.7 38.09 60.58 39.15 59.14 40.21 57.7 39.91 57.4 40.29 55.28 40.67 53.16 42.41 52.63 42.41 50.13 42.24 46.14 39.82 42.48 38.58 40.87L33.59 42.8C33.59 42.8 33.67 45.33 31.69 54.74 31.05 57.77 30.71 60.5 30.76 63.07 31.37 64.44 32.36 65.1 33.09 65.05Z" fill="#2E3233"/><path d="M67.23 45.6C69.35 50.14 71.54 50.6 72.98 50.37 74.42 50.14 77.07 50.6 78.36 50.14 79.38 49.78 79.69 49.76 80.74 50.24 78.84 46.37 77.08 41.89 72.44 38.06 66.74 33.35 66.49 33.1 65.38 30.5L65.19 30.58C64.93 32.85 64.65 38.63 67.23 45.6Z" fill="#2E3233"/></g><path d="M35.52 47.85C37.5 46.86 38.99 59.25 50.39 60.73 53.98 61.1 39.74 56.57 43.05 52.06 45.14 49.21 49.1 52.14 54.18 56.95 57.09 59.7 63.68 58.69 65.63 53.6 68.18 46.93 62.26 42.24 65.63 38.93 67.38 37.21 75.05 42.27 81.32 51.86 81.87 52.7 82.41 53.49 82.94 54.24 82.63 53.7 82.35 53.22 82.11 52.81 79.51 48.47 78.15 42.77 72.45 38.07 66.75 33.36 66.5 33.11 65.39 30.51L33.59 42.81C33.59 42.81 33.67 45.34 31.69 54.75 31.4 56.14 31.17 57.47 31.01 58.75 31.52 56.79 33.78 48.72 35.52 47.85Z" fill="#D48042" opacity="0.5"/><g><g><path d="M49.68 11.2C51.17 12.39 52.64 13.41 52.64 13.41 54.3 8.55 56.86 6.91 58.73 7.14 53.98 5.06 50.78 9.37 49.68 11.2Z" fill="#682C03"/><path d="M88.28 0.98C83.94-1.22 79.76 0.6 70.97 3.39 62.18 6.17 59.93 2.1 55.59 2.53 51.25 2.96 47.55 9.34 47.55 9.34 48.14 9.92 48.91 10.58 49.68 11.2 50.78 9.37 53.97 5.06 58.73 7.15 59.27 7.22 59.76 7.44 60.14 7.79 65.71 12.61 76.91 16.53 84.41 13.95 93.1 10.57 92.62 3.17 88.28 0.98Z" fill="#984706"/></g><path d="M49.9 6.99C49.9 6.99 53.89 0.01 61 4.69 62.41 5.6 55.15 1.07 49.9 6.99Z" fill="#984706"/><g><path d="M88.28 0.98C83.94-1.22 79.76 0.6 70.97 3.39 66.26 4.89 63.42 4.41 61.14 3.71 61.83 4.02 62.55 4.4 63.28 4.86 70.28 8.52 81.18 8.64 85.27 6.41 87.94 4.8 79.26 7.09 73.25 5.85 67.24 4.61 84.71-1.21 88.49 2.13 92.27 5.48 88.06 12.35 80.07 12.47 72.08 12.59 67.06 10.36 62.29 7.58 58.41 5.32 55.6 5.91 53.35 7.38 54.8 6.55 56.61 6.21 58.73 7.14 59.27 7.21 59.76 7.43 60.14 7.78 65.71 12.6 76.91 16.52 84.41 13.94 93.1 10.57 92.62 3.17 88.28 0.98Z" fill="#984706" opacity="0.5"/></g><path d="M64.4 4.6C64.4 4.6 71.58 6.8 82.82 6.53 86.54 5.86 73.37 9.45 64.4 4.6Z" fill="#984706" opacity="0.7"/><path d="M67.61 8.95C67.61 8.95 76.53 13.91 85.08 10.19 84.09 11.8 75.29 15.39 67.61 8.95Z" fill="#984706"/><g opacity="0.5"><path d="M49.68 11.2C51.17 12.39 52.64 13.41 52.64 13.41 54.3 8.55 56.86 6.91 58.73 7.14 53.98 5.06 50.78 9.37 49.68 11.2ZM54.89 8.03C54.89 8.03 53.6 9.19 53.05 10.61 52.51 12.04 50.87 10.61 52.1 9.11 53.33 7.62 55.98 6.8 54.89 8.03Z" fill="#682C03"/></g></g><g><g><path d="M24.99 23.26C25 23.3 25.02 23.35 25.03 23.39 26.28 20.57 28 19.33 31.27 20.39 31.99 18.51 32.82 16.66 33.44 15.35 31.74 15.05 27.18 15.09 24.99 23.26Z" fill="#682C03"/><path d="M22.76 18.07C20.53 25.92 14.58 32.69 5.09 33.35-0.11 33.27-1.75 38.29 2.2 42.6 5.83 46.56 10.95 47.31 12.77 46.81 14.59 46.31 21.52 38.47 23.18 29.55 23.78 27.07 24.33 24.98 25.04 23.38 25.03 23.34 25.01 23.3 25 23.25 27.19 15.08 31.75 15.04 33.45 15.34 33.97 14.24 34.34 13.52 34.34 13.52 34.34 13.52 24.99 10.23 22.76 18.07Z" fill="#984706"/></g><g opacity="0.5"><path d="M22.76 18.07C22.74 18.14 22.72 18.22 22.69 18.29 23.33 16.93 24.99 13.92 27.44 13.65 30.63 13.3 25.4 16.48 23.99 21.79 22.57 27.1 18.95 38.78 11.16 40.81 3.37 42.84-0.78 34.97 4.61 35.06 10.01 35.15 14.7 33.38 18.85 26.04 18.84 26.03 18.82 26.02 18.81 26.01 15.68 30.06 11.09 32.94 5.07 33.36-0.13 33.28-1.77 38.3 2.18 42.61 5.81 46.57 10.93 47.32 12.75 46.82 14.57 46.32 21.5 38.48 23.16 29.56 23.76 27.08 24.31 24.99 25.02 23.39 25.01 23.35 24.99 23.31 24.98 23.26 27.17 15.09 31.73 15.05 33.43 15.35 33.95 14.25 34.32 13.53 34.32 13.53 34.32 13.53 24.99 10.23 22.76 18.07Z" fill="#984706"/></g><path d="M26.7 14.3C26.7 14.3 23.43 16.12 21.84 22.96 22.07 19.47 23.28 15.29 26.7 14.3Z" fill="#984706"/><path d="M18.48 27.57C18.48 27.57 13.7 35.14 6.37 35.22 1.36 34.89 12.43 40.15 18.48 27.57Z" fill="#984706"/><g><path d="M24.99 23.26C25 23.3 25.02 23.35 25.03 23.39 26.28 20.57 28 19.33 31.27 20.39 31.99 18.51 32.82 16.66 33.44 15.35 31.74 15.05 27.18 15.09 24.99 23.26ZM30.84 18.67C30.62 19.64 29.97 18.83 28.52 19.53 27.06 20.23 26.84 19.53 27.76 18.56 27.76 18.56 29.27 16.78 30.79 16.51 32.3 16.24 31.06 17.7 30.84 18.67Z" fill="#682C03" opacity="0.5"/><path d="M30.79 16.51C29.28 16.78 27.76 18.56 27.76 18.56 26.84 19.53 27.06 20.24 28.52 19.53 29.98 18.83 30.63 19.64 30.84 18.67 31.06 17.7 32.3 16.24 30.79 16.51Z" fill="#682C03"/></g></g><g><path d="M51.34 51.93C55.16 52.76 61.99 47.28 63.49 42.56 64.61 39.05 65.6 34.17 66.03 31.9 65.82 31.5 65.62 31.06 65.38 30.51L33.58 42.81C33.58 42.81 33.6 43.35 33.42 44.85 35.79 46.47 40.5 49.23 45.41 49.38 45.94 49.38 47.51 51.1 51.34 51.93Z" fill="#994C17"/></g><g><path d="M31.27 27.8C31.27 27.8 28.6 13.34 39.04 9.86 47.38 7.29 48.78 7.83 56.46 18.36 56.46 18.36 62.65 17.74 64.64 19.6 66.62 21.46 66.75 43.76 57.08 49.95 52.37 51.69 50.39 51.93 45.81 48.71 40.61 48.21 30.7 43.13 28.59 38.43 26.48 33.73 27.14 31.29 31.27 27.8Z" fill="#F9EFEF"/><g><path d="M33.09 39.05C33.5 35.17 32.92 33.68 35.07 33.02 37.22 32.36 38.29 29.47 39.28 25.67 40.27 21.87 39.61 18.81 39.61 17.25 39.61 15.68 40.36 15.28 39.39 14.44 38.42 13.6 38.64 12.49 39.43 12.8 40.23 13.11 40.36 11.39 41.24 12 42.12 12.62 41.77 13.59 42.43 14.92 43.09 16.25 42.51 16.19 44 17.3 45.49 18.41 45.86 20.95 48.09 21.51 50.32 22.07 52.8 22.81 54.28 24.24 55.77 25.66 57.5 26.97 58.99 26.35 60.48 25.73 61.59 25.48 62.83 26.91 63.78 28 64.77 28.58 65.66 28.34 65.85 23.84 65.37 20.29 64.63 19.6 62.65 17.74 56.45 18.36 56.45 18.36 48.77 7.83 47.37 7.29 39.03 9.86 28.58 13.34 31.26 27.8 31.26 27.8 27.13 31.29 26.47 33.72 28.58 38.43 28.93 39.21 29.5 40 30.22 40.78 31.46 41.2 32.86 41.17 33.09 39.05Z" fill="#D48042"/><path d="M36.03 26.95C36.03 26.95 36.87 25.75 38.54 25.53 38.36 25.24 37.88 25.49 37.88 25.49 37.88 25.49 37.88 22.47 36.61 22.58 35.34 22.69 36.17 25.46 36.65 26.04 36.03 26.51 36.03 26.95 36.03 26.95Z" fill="#D48042" opacity="0.7"/><path d="M51.97 21.38C51.97 21.38 50.59 20.88 49.1 21.67 49.08 21.33 49.61 21.26 49.61 21.26 49.61 21.26 47.87 18.79 48.98 18.14 50.08 17.5 50.99 20.24 50.94 20.99 51.72 21.02 51.97 21.38 51.97 21.38Z" fill="#D48042" opacity="0.7"/></g><g opacity="0.5"><path d="M64.64 19.6C62.66 17.74 56.46 18.36 56.46 18.36 50.6 10.33 48.4 8.11 43.99 8.65 47.23 8.59 48.96 10.17 51.19 12.69 53.76 15.59 55.25 18.32 53.26 18.74 51.27 19.15 51.11 19.65 53.26 19.49 57.82 18.83 58.56 21.64 55.66 21.56 40 20.15 31.64 33.57 31.31 31.5 30.81 28.6 36.11 25.87 34.37 26.36 32.63 26.86 32.13 27.27 32.13 24.12 31.85 15.84 35.37 12.07 36.5 11.07 29.05 15.86 31.26 27.81 31.26 27.81 27.13 31.3 26.47 33.73 28.58 38.44 30.69 43.15 40.6 48.23 45.8 48.72 50.38 51.94 52.37 51.69 57.07 49.96 66.74 43.76 66.62 21.46 64.64 19.6ZM62.02 37.18C60.51 36.8 62.4 32.73 63.53 30.84 64.66 28.95 64.51 26.46 62.25 26.77 59.99 27.07 62.1 27.83 61.87 28.73 61.27 31.15 57.72 38.39 55.3 38.39 52.88 38.39 51.98 36.5 55 31.45 58.02 25.56 48.43 27.15 42.85 30.7 37.27 34.25 44.06 37.34 47.53 36.89 51 36.44 51.15 41.27 45.42 41.49 39.68 41.72 35.75 39.64 37.27 36.51 38.48 34.02 31.61 39.98 36.29 41.64 40.97 43.3 42.4 44.36 42.25 46.09 42.1 47.83 30.78 43.3 31.84 37.71 32.7 33.18 33.86 28.75 43.91 24.28 50.7 21.26 62.4 21.49 64.44 25.03 66.87 29.26 63.53 37.55 62.02 37.18Z" fill="#D48042"/></g><path d="M36.39 37.19C36.39 37.19 34.28 39.79 36.76 41.03 39.49 41.81 42.87 42.81 46.59 42.76 50.31 42.72 51.34 39.66 50.76 37.64 50.18 35.62 50.18 35.62 50.18 35.62 50.18 35.62 51.25 38.63 53.07 39.38 54.89 40.12 57.7 39.92 59.1 37.32 60.5 34.72 62.11 31.62 62.73 30.38 63.35 29.14 63.47 27.82 62.03 27.32 62.98 26.99 64.26 28.39 63.27 30.33 62.28 32.27 60.55 35.24 60.34 37.68 60.13 40.12 60.23 40.57 61.02 41.14 61.81 41.72 62.53 42.9 62.53 42.9L50.18 49.81C50.18 49.81 44.06 43.44 39.92 42.54 37.26 42.09 32.89 40.98 36.39 37.19Z" fill="#984706"/><g><path d="M60.18 36.06C60.18 36.06 60.18 36.06 59.42 37.49 58.75 38.73 58.16 39.48 57.13 39.9 57.9 40.09 58.97 40.41 59.82 40.91 59.42 40.08 60.18 36.06 60.18 36.06Z" fill="#EB566C"/><path d="M60.09 41.18C59.98 41.14 59.87 41.08 59.76 41.02L59.87 40.8C59.87 40.8 59.99 40.85 60.19 40.96L60.09 41.18Z" fill="#E72600"/><path d="M46.49 43.32C44.16 43.31 41.75 42.7 41.75 42.7 46.68 45.28 48.69 46.75 49.95 49.35 48.87 45.83 47.52 44.13 46.49 43.32Z" fill="#EB566C"/><path d="M60.13 41.06C60.03 41.02 59.93 40.97 59.82 40.91 58.97 40.41 57.9 40.08 57.13 39.9 56.57 40.13 55.88 40.26 54.97 40.32 52.38 40.48 51.31 38.33 51.31 38.33 51.91 39.88 51.23 42.19 48.96 43.03 48.24 43.26 47.38 43.34 46.5 43.33 47.52 44.14 48.88 45.83 49.95 49.36 50.11 49.69 50.25 50.03 50.39 50.39 51.45 53.1 53.2 56.05 55.96 57.27 58.02 58.18 60.68 58.25 62.58 56.92 65.33 54.99 66.03 50.96 65.33 47.93 64.81 45.67 63.65 43.74 61.87 42.25 61.36 41.82 60.76 41.31 60.13 41.06Z" fill="#F79AA7"/></g><path d="M51.13 41.25C51.13 41.25 51.3 41.26 51.59 41.32 51.73 41.36 51.91 41.39 52.11 41.45 52.31 41.51 52.53 41.58 52.77 41.68 53.01 41.77 53.26 41.89 53.53 42.02 53.79 42.16 54.07 42.3 54.33 42.48 54.61 42.65 54.87 42.84 55.14 43.05 55.41 43.25 55.66 43.49 55.92 43.72 56.16 43.96 56.4 44.21 56.63 44.46 56.85 44.72 57.05 44.98 57.25 45.23 57.43 45.49 57.6 45.75 57.76 46 57.92 46.25 58.04 46.5 58.16 46.72 58.28 46.94 58.39 47.15 58.46 47.35 58.54 47.54 58.61 47.71 58.66 47.85 58.77 48.13 58.83 48.28 58.83 48.28 58.83 48.28 58.73 48.14 58.58 47.89 58.5 47.76 58.41 47.61 58.3 47.44 58.2 47.26 58.06 47.08 57.92 46.87 57.77 46.67 57.63 46.44 57.46 46.21 57.28 45.98 57.1 45.75 56.91 45.5 56.71 45.26 56.49 45.03 56.28 44.78 56.05 44.55 55.82 44.31 55.59 44.08 55.34 43.86 55.11 43.63 54.85 43.43 54.59 43.23 54.35 43.02 54.09 42.85 53.84 42.67 53.59 42.51 53.35 42.35 53.23 42.27 53.11 42.21 52.99 42.14 52.87 42.07 52.76 42 52.65 41.95 52.43 41.83 52.23 41.73 52.04 41.64 51.86 41.55 51.69 41.49 51.56 41.43 51.42 41.38 51.32 41.33 51.24 41.31 51.18 41.26 51.13 41.25 51.13 41.25Z" fill="#F79AA7"/><path d="M46.26 16.08C46.26 16.08 46.64 14.55 48.52 14.81 46.67 13.34 46.01 13.79 46.26 16.08Z" fill="#984706" opacity="0.5"/><path d="M35.1 21.2C35.1 21.2 35.67 19.67 36.94 20.15 35.51 18.72 35.1 18.85 35.1 21.2Z" fill="#984706" opacity="0.5"/><path d="M46.12 15.79C46.12 15.79 46.5 14.26 48.38 14.52 46.53 13.05 45.86 13.5 46.12 15.79Z" fill="#682C03"/><path d="M34.95 20.91C34.95 20.91 35.52 19.38 36.79 19.86 35.37 18.43 34.95 18.56 34.95 20.91Z" fill="#682C03"/><g><path d="M37.59 24.29C37.72 25.16 37.53 25.9 37.17 25.94 36.81 25.98 36.41 25.32 36.28 24.45 36.15 23.58 36.34 22.85 36.7 22.8 37.06 22.76 37.46 23.42 37.59 24.29Z"/><path d="M37.32 23.81C37.39 24.14 37.32 24.44 37.17 24.47 37.01 24.5 36.83 24.26 36.75 23.92 36.68 23.59 36.75 23.29 36.9 23.26 37.06 23.23 37.25 23.47 37.32 23.81Z" fill="#FFFFFF"/></g><g><path d="M50.37 19.49C50.72 20.29 50.74 21.05 50.4 21.19 50.06 21.33 49.51 20.79 49.15 19.99 48.8 19.19 48.78 18.43 49.12 18.29 49.46 18.15 50.02 18.69 50.37 19.49Z"/><path d="M49.99 19.1C50.15 19.4 50.16 19.71 50.02 19.78 49.88 19.85 49.63 19.66 49.47 19.36 49.31 19.06 49.3 18.75 49.44 18.68 49.59 18.61 49.83 18.8 49.99 19.1Z" fill="#FFFFFF"/></g><path d="M32.18 32.73C32.18 32.73 39.98 20.77 57.27 21.64 52.19 20.59 38.06 22.02 32.18 32.73Z" fill="#984706"/><g><path d="M46.18 27.28C46.18 27.28 51.76 24.99 53.92 26.41 56.09 27.83 55.22 33.41 49.96 35.58 44.69 37.75 41.6 35.46 40.54 33.23 39.49 31 42.58 28.71 46.18 27.28Z" fill="#2E3233"/><g><path d="M52.43 25.97C52.52 25.98 52.62 25.99 52.71 26 52.62 25.98 52.52 25.98 52.43 25.97Z" fill="none"/><path d="M52.43 25.97C52.31 25.96 52.19 25.95 52.07 25.95 52.12 25.95 52.17 25.96 52.22 25.96 52.29 25.96 52.35 25.96 52.43 25.97Z" fill="#2E3233"/><path d="M53.92 26.42C53.59 26.2 53.17 26.07 52.71 26 56.28 26.59 52.74 33.71 46.23 34.54 39.94 35.34 40.81 31.3 40.97 30.68 40.35 31.51 40.14 32.37 40.54 33.23 41.59 35.46 44.69 37.75 49.96 35.58 55.22 33.42 56.09 27.84 53.92 26.42Z" fill="#2E3233"/></g><path d="M51.97 27.49C52.45 28.68 50.47 30.61 47.54 31.78 44.61 32.96 41.85 32.94 41.37 31.75 40.89 30.56 42.87 28.63 45.8 27.46 48.73 26.28 51.49 26.3 51.97 27.49Z" fill="#2E3233"/><g><path d="M40.94 31.09C40.94 31.09 44.51 28.41 49.02 27.4 50.91 26.93 45.75 26.5 40.94 31.09Z" fill="#FFFFFF"/><path d="M51.03 26.87C51.03 26.98 50.81 27.08 50.53 27.09 50.25 27.1 50.02 27.02 50.01 26.91 50.01 26.8 50.23 26.7 50.51 26.69 50.8 26.68 51.03 26.76 51.03 26.87Z" fill="#FFFFFF"/></g></g><g opacity="0.5"><path d="M56.79 55.32C51.17 51.69 50.93 43.84 51.92 43.1 52.91 42.36 55.06 42.52 58.45 47.15 57.62 43.35 53.91 41.7 56.47 41.04 59.29 40.26 63.58 44.29 64.03 44.72 63.46 43.8 62.74 42.97 61.88 42.25 61.37 41.82 60.77 41.32 60.14 41.07 60.04 41.03 59.94 40.98 59.83 40.92 58.98 40.42 57.91 40.09 57.14 39.91 56.58 40.14 55.89 40.27 54.98 40.33 52.39 40.49 51.32 38.34 51.32 38.34 51.92 39.89 51.24 42.2 48.97 43.04 48.25 43.27 47.39 43.35 46.51 43.34 47.53 44.15 48.89 45.84 49.96 49.37 50.12 49.7 50.26 50.04 50.4 50.4 51.46 53.11 53.21 56.06 55.97 57.28 58.03 58.19 60.69 58.26 62.59 56.93 65.25 55.06 65.99 51.22 65.4 48.23 65.89 52.79 62.18 58.81 56.79 55.32Z" fill="#F79AA7"/></g><path d="M60.53 42.85C60.53 42.85 64.91 45.45 64.2 52.25 63.84 55.11 67.87 45.44 60.53 42.85Z" fill="#F79AA7"/><g><path d="M60.18 36.06C60.18 36.06 60.18 36.06 59.42 37.49 58.75 38.73 58.16 39.48 57.13 39.9 57.57 40.01 58.11 40.16 58.65 40.36 59.02 40.09 59.38 39.81 59.73 39.54 59.8 38.06 60.18 36.06 60.18 36.06Z" fill="#EB566C"/><path d="M46.49 43.32C44.16 43.31 41.75 42.7 41.75 42.7 43.41 43.57 44.73 44.31 45.81 45.01 46.14 44.77 46.73 44.6 47.72 44.61 47.29 44.03 46.87 43.62 46.49 43.32Z" fill="#EB566C"/></g><path d="M40.16 10C40.16 10 35.13 11.33 33.74 18.18 33.02 21.02 32.35 11.75 40.16 10Z" fill="#D48042"/><path d="M35.97 27.27C35.97 27.27 37.23 25.61 38.85 25.65 38.07 25.44 36.41 25.89 35.97 27.27Z" fill="#D48042"/><path d="M49.06 21.83C49.06 21.83 50.52 21.06 51.98 21.51 51.53 21.1 49.51 21.02 49.06 21.83Z" fill="#D48042"/></g><g opacity="0.5"><path d="M58.01 86.94C59.31 87.87 57.95 85.08 60.74 85.39 63.53 85.7 65.08 88.05 63.34 87.31 61.61 86.57 61.48 87.19 62.6 87.5 63.72 87.81 65.14 88.68 65.2 90.16 65.26 91.65 64.21 93.26 61.24 92.33 59.94 92.02 60.93 93.14 62.36 93.2 63.78 93.26 62.98 95 60.94 94.5 58.9 94 58.34 93.08 59.08 93.01 59.82 92.95 59.58 92.2 57.41 91.89 55.24 91.58 52.7 90.28 48.99 88.23 48.9 88.18 48.82 88.14 48.73 88.1 49.8 88.86 50.87 89.55 51.9 90.12 51.9 90.12 55.33 92.01 57.42 92.52 59.48 95.13 61.23 95.58 62.88 95.17 64.53 94.76 64.41 93.02 64.41 93.02 64.41 93.02 66.14 92.24 66.19 90.42 66.23 88.6 64.79 88.11 64.79 88.11 64.79 88.11 64.73 85.76 61.57 85.01 59.53 84.61 57.27 85.72 57.27 85.72 57.27 85.72 56.63 85.36 55.85 84.7 56.4 85.44 57.14 86.23 58.01 86.94Z" fill="#994C17"/></g><g opacity="0.5"><path d="M86.5 87.5C84.08 94.81 79.25 96.05 80 95.31 80.74 94.57 80.62 93.7 79.07 95.25 76.59 97.48 74.24 95.62 75.73 95.44 77.22 95.25 78.27 92.84 76.78 93.89 75.29 94.94 72.82 94.94 72.69 93.15 72.57 91.35 74.12 87.82 75.79 87.82 77.46 87.82 76.66 90.98 77.28 89.62 78.88 85.43 77.59 80.1 76.66 77.26 77.08 79.18 77.36 81.47 77.34 84.17 77.35 84.15 77.36 84.13 77.36 84.13L77.22 87.7C77.22 87.7 76.04 86.46 74.99 86.96 73.94 87.46 72.33 89.31 72.02 92.16 71.71 95.01 73.51 95.2 73.51 95.2 73.51 95.2 74.81 98.86 78.78 96.44 80.03 97.22 83.61 95.78 86.58 87.62 86.54 87.57 86.52 87.53 86.5 87.5Z" fill="#994C17"/></g><path d="M81.86 54.79C81.86 54.79 88.3 64.33 86.69 78.21 85.95 82.79 92.02 66.93 81.86 54.79Z" fill="#FFFFFF"/><path d="M41.34 66.19C41.34 66.19 58.19 77.71 70.21 63.09 66.87 71.02 52.99 76.59 41.34 66.19Z" fill="#FFFFFF"/><path d="M33.26 56.06C33.26 56.06 29.54 66.84 42.18 78.61 36.48 75.51 28.67 64.61 33.26 56.06Z" fill="#FFFFFF"/><g opacity="0.5"><path d="M88.94 73.13C88.93 73.25 88.93 73.37 88.92 73.5 87.54 91.06 80.48 94.88 80.91 94.11 81.34 93.34 80.74 92.57 80.23 93.43 79.72 94.28 78.09 95.99 77.24 95.31 76.39 94.63 78.86 93.52 78.01 93 77.16 92.49 77.07 94.37 74.59 93.94 72.11 93.51 74.33 88.39 75.96 88.73 77.58 89.07 76.56 91.29 77.5 90.44 81.34 86.34 78.87 72.85 74.93 64.96 73.5 62.1 77.78 53.69 75.55 55.54 73.31 57.39 71.93 70 60.53 72.1 49.13 74.21 37.64 65.94 40.96 69.07 44.28 72.2 47.87 72 48.33 74.14 49.67 80.32 53.36 85.8 58.13 87.79 59.79 88.37 58.62 85.36 61.1 85.79 63.58 86.23 63.63 87.25 62.41 86.91 61.19 86.57 61 87.06 62.02 87.4 63.04 87.74 64.89 88.76 64.16 90.66 63.43 92.56 58.08 92.54 51.16 88.37 37.18 79.95 32.72 70.95 32.05 69.96 33.12 72.74 34.88 75.44 37.53 78.28 37.53 78.28 45.45 86.59 51.86 90.12 51.86 90.12 55.29 92.01 57.38 92.52 59.44 95.13 61.19 95.58 62.84 95.17 64.49 94.76 64.37 93.02 64.37 93.02 64.37 93.02 66.1 92.24 66.15 90.42 66.19 88.6 64.75 88.11 64.75 88.11 64.75 88.11 64.69 85.76 61.53 85.01 59.49 84.61 57.23 85.72 57.23 85.72 57.23 85.72 55.59 84.8 54.34 83.18 52.03 80.48 51.17 77.91 49.81 74.06 51.63 74.56 54.8 74.97 54.8 74.97 61 75.71 69.01 73.48 71.9 67.12 72.47 67.97 72.96 68.83 73.35 69.71L73.39 69.68C73.39 69.68 77.41 74.21 77.33 84.14 77.34 84.12 77.35 84.1 77.35 84.1L77.21 87.67C77.21 87.67 76.03 86.43 74.98 86.93 73.93 87.43 72.32 89.28 72.01 92.13 71.7 94.98 73.5 95.17 73.5 95.17 73.5 95.17 74.8 98.83 78.77 96.41 80.26 97.34 85.05 95.13 88.19 82.16 88.93 79.07 89.12 76.03 88.94 73.13ZM60.56 94.06C59.05 93.53 59.56 92.65 60.13 92.82 60.13 92.82 60.89 93.32 61.87 93.42 62.85 93.51 62.06 94.58 60.56 94.06Z" fill="#D48042"/></g><path d="M43.88 70.18C43.88 70.18 63.25 81.92 72.99 63.61 69.83 72.05 60.55 79.92 43.88 70.18Z" fill="#994C17"/></g><path d="M38.48 46.97C38.48 46.97 39.84 54.99 47.75 59.17 45.37 59.51 37.69 53.19 38.48 46.97Z" fill="#994C17"/><path d="M66.12 34.84C66.12 34.84 75.54 41.9 79.87 50.33 78.02 45.12 73.68 39.3 66.12 34.84Z" fill="#994C17"/></g></svg>