<svg width="110.14" height="100" viewBox="0 0 110.14 100" xmlns="http://www.w3.org/2000/svg" xmlns:xlink="http://www.w3.org/1999/xlink" xml:space="preserve" overflow="hidden"><defs></defs><g><g><path d="M63.09 88.86C61.74 86.47 59.47 84.34 57.38 82.62 55.06 80.71 52.28 79.21 49.56 77.96 48.98 77.69 47.57 76.79 47.28 77.68 47.24 77.69 47.22 77.72 47.22 77.77 47.29 81.35 45.93 87.47 49.76 89.66 53.42 91.75 58.61 90.95 62.55 90.37 62.63 90.36 62.65 90.26 62.6 90.22 63.16 89.99 63.51 89.62 63.09 88.86Z" fill="#BA6700"/><path d="M63.09 88.86C61.74 86.47 59.47 84.34 57.38 82.62 55.06 80.71 52.28 79.21 49.56 77.96 48.98 77.69 47.57 76.79 47.28 77.68 47.24 77.69 47.22 77.72 47.22 77.77 47.29 81.35 45.93 87.47 49.76 89.66 53.42 91.75 58.61 90.95 62.55 90.37 62.63 90.36 62.65 90.26 62.6 90.22 63.16 89.99 63.51 89.62 63.09 88.86Z" fill="#A14801"/><path d="M63.09 88.86C61.74 86.47 59.47 84.34 57.38 82.62 55.06 80.71 52.28 79.21 49.56 77.96 48.98 77.69 47.57 76.79 47.28 77.68 47.24 77.69 47.22 77.72 47.22 77.77 47.29 81.35 45.93 87.47 49.76 89.66 53.42 91.75 58.61 90.95 62.55 90.37 62.63 90.36 62.65 90.26 62.6 90.22 63.16 89.99 63.51 89.62 63.09 88.86ZM61.26 89.95C61.09 89.99 61.07 90.17 61.13 90.3 57.67 90.6 53.73 90.91 50.58 89.58 46.62 87.91 47.73 81.73 47.45 78.15 47.49 78.14 47.53 78.11 47.55 78.06 47.99 76.83 55.74 82.13 56.58 82.76 58.13 83.92 59.5 85.32 60.78 86.77 61.34 87.41 61.87 88.08 62.4 88.74 63.3 89.89 61.74 89.83 61.26 89.95Z" fill="#692E02" opacity="0.4"/></g><path d="M96.6 79.8C97.51 77.73 98.73 75.78 99.86 73.83 102.33 69.56 105.15 65.36 106.77 60.67 108.3 56.28 108.58 51.44 108.42 46.82 108.25 41.94 107.17 37.08 105.21 32.6 104.8 31.65 104.34 30.71 103.86 29.78 103.23 28.04 102.07 26.39 101.11 24.85 99.92 22.96 98.64 21.12 97.22 19.39 94.48 16.03 91.39 12.93 88.03 10.19 84.89 7.63 81.55 5.08 77.84 3.41 76.29 2.71 74.65 2.18 72.98 1.82 70.97 1.15 68.68 1.19 66.62 1.18 63.82 1.16 61.01 1.28 58.23 1.61 56.12 1.86 54.04 2.34 51.97 2.85 47.74 2.35 43.74 0.51 39.49 0.08 35.51-0.32 31.54 0.92 28.25 3.1 22.77 6.73 18.6 11.87 14.51 16.96 12.46 19.28 10.4 21.59 8.55 24.07 6.22 27.2 4.39 30.54 2.9 34.15 1.4 37.78 0.13 41.53 0.02 45.49-0.04 47.41 0.35 49.24 0.9 51.07 1.43 52.82 1.88 54.51 2.14 56.3 2.13 56.45 2.12 56.61 2.1 56.76 2.06 57.1 2.06 57.64 1.83 57.92 1.81 57.95 1.85 57.99 1.87 57.97 1.92 57.95 1.96 57.9 2 57.85 2.46 57.57 2.96 57.17 3.26 56.68 3.2 57.71 3.26 58.74 3.48 59.73 3.87 61.43 4.72 62.92 5.54 64.44 6.4 66.04 7.24 67.64 7.84 69.35 8.49 71.18 8.88 73.1 9.21 75.01 9.49 76.63 9.66 78.27 10.06 79.87 10.45 81.45 11.11 82.95 11.93 84.36 13.32 86.77 16.08 88.53 16.11 91.54 16.11 91.55 16.12 91.56 16.12 91.57 16.11 91.61 16.09 91.65 16.08 91.69 16.07 91.75 16.14 91.76 16.17 91.73 16.49 91.43 16.82 90.98 17.05 90.57 17.07 90.75 17.11 90.93 17.16 91.11 17.35 91.71 17.86 92.31 18.29 92.75 18.92 93.39 19.65 93.84 20.45 94.1 20.47 94.12 20.49 94.14 20.52 94.15 22.59 94.92 25.79 95.07 27.56 93.46 28.76 93.7 29.89 93.76 31 93.17 31.25 93.04 31.49 92.86 31.71 92.66 32.87 93.18 34.5 92.87 35.39 91.9 36.23 92.16 36.97 92.04 37.66 91.4 38.42 90.69 38.9 89.72 38.73 88.67 38.57 87.66 37.66 86.91 36.77 86.53 36.22 86.29 35.52 86.28 34.93 86.24 33.82 86.17 32.69 85.59 31.76 84.99 30.66 84.28 30 82.96 29.5 81.8 28.59 79.66 29.46 77.56 30.02 75.46 30.08 75.95 30.18 76.44 30.26 76.88 30.26 76.89 30.27 76.89 30.27 76.9 30.27 76.94 30.26 76.99 30.26 77.03 30.25 77.09 30.34 77.11 30.35 77.05 30.55 76.14 30.71 75.35 31.17 74.51 31.55 73.82 31.96 73.16 32.38 72.49 33.22 71.13 33.65 69.74 33.92 68.19 34.84 68.7 35.77 69.22 36.69 69.73 36.73 69.75 36.76 69.76 36.79 69.76 38.12 71.99 39.65 74.08 41.42 76.07 43.71 78.65 46.21 81.03 48.63 83.5 50.35 85.25 52.15 87.09 53.69 89.08 53.72 89.19 53.76 89.3 53.83 89.42 54.1 89.89 54.32 90.34 54.47 90.87 54.78 91.93 54.77 92.94 54.83 94.01 54.39 94.69 53.67 95.2 53.32 95.97 53.02 96.64 53.01 97.4 53.24 98.09 53.7 99.45 55.74 99.89 56.85 99.07 57.84 99.92 59.46 100 60.56 99.16 60.68 99.26 60.81 99.35 60.95 99.44 61.71 99.91 62.72 99.71 63.54 99.47 63.71 99.47 63.87 99.41 64.04 99.37 64.06 99.37 64.07 99.36 64.08 99.35 65.15 100.1 66.62 100.23 67.8 99.69 69.06 99.11 70.03 97.45 70.32 96.14 70.34 96.06 70.31 96 70.27 95.95 70.3 95.6 70.29 95.23 70.23 94.84 70.14 94.24 69.96 93.66 69.87 93.05 69.8 92.59 69.74 92.16 69.58 91.73 69.63 90.79 69.58 89.84 69.51 88.91 69.37 87.14 69.17 85.36 68.97 83.6 68.64 80.76 68.15 77.94 67.47 75.16 67.96 73.07 70.04 71.31 71.68 70.13 73.18 69.05 74.85 68.19 76.56 67.43 76.39 68.7 76.33 70 76.19 71.27 76.03 72.68 75.85 74.08 75.78 75.5 75.65 78.05 75.91 80.57 76.81 82.96 78.5 87.44 81.84 91.29 85.28 94.54 85.55 94.9 85.78 95.29 86.05 95.64 86.67 96.43 87.39 97.09 88.31 97.5 89.82 98.16 92 98.22 93.45 97.41 93.62 97.32 93.75 97.21 93.88 97.09 94.77 97.47 95.92 97.36 96.68 96.75 96.73 96.71 96.78 96.66 96.82 96.61 97.46 97.08 98.47 96.9 99.15 96.59 99.24 96.55 99.33 96.49 99.41 96.43 99.44 96.45 99.47 96.47 99.5 96.48 101.1 96.77 102.17 95.09 102.01 93.69 101.93 93.02 101.56 92.3 101.07 91.83 100.84 91.61 100.61 91.42 100.29 91.34 99.91 91.25 99.44 91.28 99.06 91.14 99.05 91.11 99.03 91.08 99 91.05 97.96 90.04 96.87 89.31 96.28 87.93 95.8 86.84 95.62 85.62 95.44 84.45 95.44 84.06 95.46 83.66 95.52 83.25 95.66 82.05 96.12 80.89 96.6 79.8Z" fill="#BA6700"/><path d="M15.91 18.2C13.95 20.47 11.68 22.44 9.36 24.35 5.54 27.49 3.24 32.27 2.55 37.12 2.09 40.32 2.88 47 6.71 43.03 8.21 41.47 8.09 37.42 8.7 35.42 9.68 32.18 11.35 28.03 13.74 25.57 18.93 20.22 19.68 25.04 18.64 30.06 17.23 36.87 22.29 40.69 28.14 36.98 31.8 34.65 32.6 33.21 35.55 30.12 37.78 27.78 43.2 24.59 46.01 24.44 46.09 24.43 46.19 24.58 46.12 24.64 42.3 27.63 38.79 30.95 36.56 34.24 33.85 38.25 31.06 50.95 36.56 54.33 42.67 58.08 49.26 48.22 51.28 44.12 56.71 33.12 65.4 21.66 78.92 21.31 82.87 21.2 100.83 32.34 102.84 27.68 102.29 26.71 101.66 25.78 101.1 24.88 99.91 22.99 98.63 21.15 97.21 19.42 94.47 16.06 91.38 12.96 88.02 10.22 82.85 5.97 77.9 2.52 70.97 2.56 64.65 2.6 58.4 3.36 52.26 4.66 48.02 5.56 41.79 6.46 37.83 3.95 37.75 3.9 36.27 3.43 38.15 3.39 38.59 3.38 41.21 3.07 41.66 3.15 43.49 3.47 42.02 2.36 41.66 2.03 40.5 0.97 39.08 0.99 37.44 0.99 26.37 1.05 21.85 11.32 15.91 18.2Z" fill="#EFAC6F" opacity="0.2"/><path d="M37 0.4C38.93 0.64 41 1.11 42.81 1.83 43.3 2.02 44.23 2.33 44.31 2.96 44.39 3.6 43.59 3.86 43.1 3.93 42.25 4.06 41.36 4.05 40.48 3.97 41.26 4.16 42.05 4.32 42.84 4.45 44.92 4.77 46.94 4.74 49.01 4.45 52.78 3.92 56.48 3.04 60.21 2.25 62.28 1.81 64.37 1.43 66.45 1.17 63.71 1.16 60.96 1.28 58.24 1.6 56.13 1.85 54.05 2.33 51.98 2.84 47.75 2.34 43.75 0.5 39.5 0.07 38.06-0.07 36.63 0 35.24 0.25 35.84 0.27 36.44 0.33 37 0.4Z" fill="#A14801" opacity="0.5"/><path d="M101.06 91.81C100.83 91.59 100.6 91.4 100.28 91.32 99.9 91.23 99.43 91.26 99.05 91.12 99.04 91.09 99.02 91.06 98.99 91.03 97.95 90.02 96.86 89.29 96.27 87.91 95.79 86.82 95.61 85.6 95.43 84.43 95.43 84.04 95.45 83.64 95.51 83.23 95.67 82.05 96.13 80.89 96.61 79.8 97.12 78.64 97.73 77.51 98.37 76.41 97.68 77.18 96.96 77.93 96.21 78.64 94.95 79.82 93.48 81.35 91.72 81.69 90.83 81.86 89.8 81.38 89.35 80.59 88.24 78.64 89.26 75.83 90 73.94 90.66 72.24 91.44 70.37 92.55 68.87 92.13 69.08 91.74 69.32 91.34 69.56 91.21 69.64 91.04 69.48 91.13 69.34 94.48 64.06 100.02 60.69 103.56 55.54 105.23 53.11 106.53 50.32 106.56 47.32 106.57 46.57 106.63 43.14 105.25 43.83 104.6 44.16 103.49 43.89 103.02 43.32 102.1 42.19 102.01 40.33 101.87 38.94 101.66 36.93 101.6 34.74 100.66 32.9 99.66 30.96 97.74 29.43 96.01 28.16 94.22 26.84 92.29 25.7 90.22 24.89 88.17 24.09 86 23.54 83.8 23.46 81.57 23.38 79.33 23.73 77.14 24.16 74.9 24.6 72.65 25.19 70.58 26.17 69.51 26.68 68.38 27.24 67.52 28.07 66.85 28.72 66.23 29.43 65.42 29.92 65.37 29.95 65.33 29.95 65.29 29.93 62.87 32.58 60.5 35.29 57.71 37.57 54.73 40.01 52.9 43.83 53.8 47.7 53.84 47.87 53.59 47.99 53.51 47.82 53.21 47.15 52.86 46.53 52.42 45.94 50.6 50.91 52.83 55.9 56.45 59.46 59.67 62.62 62.58 66.74 61.88 71.48 61.86 71.61 61.64 71.64 61.59 71.52 61.24 70.75 60.89 69.98 60.35 69.34 60.64 71.78 61.06 74.75 59.57 76.84 57.9 79.18 55.06 79.23 52.55 78.34 46.62 76.23 41.65 71.5 38.34 66.26 30.92 54.5 28.25 36.9 41.85 27.97 39.16 29.25 36.55 30.5 34.67 32.84 32.02 36.14 30.85 40.33 30.1 44.43 29.66 46.83 29.9 51.07 26.63 51.45 23.72 51.79 20.67 49.66 18.61 47.83 12.63 42.52 14.45 34.09 16.69 27.36 15.4 28.8 14.24 30.34 13.4 32.08 13.33 32.23 13.1 32.15 13.11 32 13.11 31.09 13.17 30.18 13.24 29.28 12.88 30.21 12.52 31.13 12.38 32.14 12.2 33.42 12.22 34.7 12.11 35.99 11.92 38.38 10.8 40.63 10.76 43.02 10.72 45.41 11.35 47.7 11.83 50.02 12.23 51.95 12.53 53.93 12.2 55.9 12 57.15 11.64 58.39 11.13 59.56 10.39 61.25 8.64 63.91 6.66 61.98 3.96 59.33 4.36 55.3 3.41 51.89 3.36 52.98 3.24 54.06 3 55.13 2.96 55.32 2.7 55.26 2.69 55.09 2.43 52.3 1.09 49.91 0.4 47.24 0.23 46.57 0.12 45.89 0.05 45.22 0.05 45.31 0.04 45.4 0.04 45.5-0.02 47.42 0.37 49.25 0.92 51.08 1.45 52.83 1.9 54.52 2.16 56.31 2.15 56.46 2.14 56.62 2.12 56.77 2.08 57.11 2.08 57.65 1.85 57.93 1.83 57.96 1.87 58 1.89 57.98 1.92 57.95 1.96 57.9 2 57.85 2.46 57.57 2.96 57.17 3.26 56.68 3.2 57.71 3.26 58.74 3.48 59.73 3.87 61.43 4.72 62.92 5.54 64.44 6.4 66.04 7.24 67.64 7.84 69.35 8.49 71.18 8.88 73.1 9.21 75.01 9.49 76.63 9.66 78.27 10.06 79.87 10.45 81.45 11.11 82.95 11.93 84.36 13.32 86.77 16.08 88.53 16.11 91.54 16.11 91.55 16.12 91.56 16.12 91.57 16.11 91.61 16.09 91.65 16.08 91.69 16.07 91.75 16.14 91.76 16.17 91.73 16.49 91.43 16.82 90.98 17.05 90.57 17.07 90.75 17.11 90.93 17.16 91.11 17.35 91.71 17.86 92.31 18.29 92.75 18.92 93.39 19.65 93.84 20.45 94.1 20.47 94.12 20.49 94.14 20.52 94.15 22.59 94.92 25.79 95.07 27.56 93.46 28.76 93.7 29.89 93.76 31 93.17 31.25 93.04 31.49 92.86 31.71 92.66 32.87 93.18 34.5 92.87 35.39 91.9 36.23 92.16 36.97 92.04 37.66 91.4 38.42 90.69 38.9 89.72 38.73 88.67 38.57 87.66 37.66 86.91 36.77 86.53 36.22 86.29 35.52 86.28 34.93 86.24 33.82 86.17 32.69 85.59 31.76 84.99 30.66 84.28 30 82.96 29.5 81.8 28.59 79.66 29.46 77.56 30.02 75.46 30.08 75.95 30.18 76.44 30.26 76.88 30.26 76.89 30.27 76.89 30.27 76.9 30.27 76.94 30.26 76.99 30.26 77.03 30.25 77.09 30.34 77.11 30.35 77.05 30.55 76.14 30.71 75.35 31.17 74.51 31.55 73.82 31.96 73.16 32.38 72.49 33.22 71.13 33.65 69.74 33.92 68.19 34.84 68.7 35.77 69.22 36.69 69.73 36.73 69.75 36.76 69.76 36.79 69.76 38.12 71.99 39.65 74.08 41.42 76.07 43.71 78.65 46.21 81.03 48.63 83.5 50.35 85.25 52.15 87.09 53.69 89.08 53.72 89.19 53.76 89.3 53.83 89.42 54.1 89.89 54.32 90.34 54.47 90.87 54.78 91.93 54.77 92.94 54.83 94.01 54.39 94.69 53.67 95.2 53.32 95.97 53.02 96.64 53.01 97.4 53.24 98.09 53.7 99.45 55.74 99.89 56.85 99.07 57.84 99.92 59.46 100 60.56 99.16 60.68 99.26 60.81 99.35 60.95 99.44 61.71 99.91 62.72 99.71 63.54 99.47 63.71 99.47 63.87 99.41 64.04 99.37 64.06 99.37 64.07 99.36 64.08 99.35 65.15 100.1 66.62 100.23 67.8 99.69 69.06 99.11 70.03 97.45 70.32 96.14 70.34 96.06 70.31 96 70.27 95.95 70.3 95.6 70.29 95.23 70.23 94.84 70.14 94.24 69.96 93.66 69.87 93.05 69.8 92.59 69.74 92.16 69.58 91.73 69.63 90.79 69.58 89.84 69.51 88.91 69.37 87.14 69.17 85.36 68.97 83.6 68.64 80.76 68.15 77.94 67.47 75.16 67.96 73.07 70.04 71.31 71.68 70.13 73.18 69.05 74.85 68.19 76.56 67.43 76.39 68.7 76.33 70 76.19 71.27 76.03 72.68 75.85 74.08 75.78 75.5 75.65 78.05 75.91 80.57 76.81 82.96 78.5 87.44 81.84 91.29 85.28 94.54 85.55 94.9 85.78 95.29 86.05 95.64 86.67 96.43 87.39 97.09 88.31 97.5 89.82 98.16 92 98.22 93.45 97.41 93.62 97.32 93.75 97.21 93.88 97.09 94.77 97.47 95.92 97.36 96.68 96.75 96.73 96.71 96.78 96.66 96.82 96.61 97.46 97.08 98.47 96.9 99.15 96.59 99.24 96.55 99.33 96.49 99.41 96.43 99.44 96.45 99.47 96.47 99.5 96.48 101.1 96.77 102.17 95.09 102.01 93.69 101.92 93.01 101.55 92.28 101.06 91.81Z" fill="#A14801" opacity="0.5"/><path d="M105.88 43.86C105.71 43.73 105.49 43.7 105.22 43.84 104.57 44.17 103.46 43.9 102.99 43.33 102.07 42.2 101.98 40.34 101.84 38.95 101.63 36.94 101.57 34.75 100.63 32.91 99.63 30.97 97.71 29.44 95.98 28.17 94.19 26.85 92.26 25.71 90.19 24.9 88.14 24.1 85.97 23.55 83.77 23.47 81.54 23.39 79.3 23.74 77.11 24.17 76.84 24.22 76.57 24.28 76.3 24.34 75.55 24.78 74.81 25.23 74.08 25.71 72.15 26.96 70.17 28.34 68.63 30.07 67.17 31.71 66.03 33.62 64.36 35.08 61.25 37.8 56.55 39.78 55.01 43.89 53.63 47.57 55.56 51.36 58.65 53.48 60.45 54.71 62.56 55.38 64.59 56.14 66.63 56.91 68.68 57.7 70.57 58.79 72.61 59.96 74.44 61.32 76.75 61.96 78.98 62.58 81.39 62.74 83.67 62.33 87.61 61.61 90.57 58.73 93.71 56.47 95.27 55.35 96.89 54.51 98.62 53.7 99.42 53.32 100.22 52.93 101 52.49 101.01 52.34 101.03 52.19 101.04 52.04 101.05 51.9 101.26 51.8 101.34 51.96 101.38 52.04 101.42 52.13 101.45 52.21 102.05 51.83 102.61 51.42 103.12 50.93 104.61 49.51 105.71 47.55 105.88 45.47 105.92 44.91 105.91 44.38 105.88 43.86Z" fill="#A14801" opacity="0.5"/><path d="M38.73 88.88C38.63 89.3 38.41 89.64 38.05 89.85 37.43 90.19 36.59 89.76 36.39 89.12 36.13 88.31 35.86 87.63 34.98 87.34 34.39 87.15 33.78 87.08 33.16 87.07 33.02 87.07 32.95 86.89 33.05 86.79 33.44 86.41 33.93 86.24 34.48 86.18 33.51 86.01 32.56 85.51 31.75 84.99 30.65 84.28 29.99 82.96 29.49 81.8 28.58 79.66 29.45 77.56 30.01 75.46 30.07 75.95 30.17 76.44 30.25 76.88 30.25 76.89 30.26 76.89 30.26 76.9 30.26 76.94 30.25 76.99 30.25 77.03 30.24 77.09 30.33 77.11 30.34 77.05 30.54 76.14 30.7 75.35 31.16 74.51 31.54 73.82 31.95 73.16 32.37 72.49 33.21 71.13 33.64 69.74 33.91 68.19 34.83 68.7 35.76 69.22 36.68 69.73 36.72 69.75 36.75 69.76 36.78 69.76 37.04 70.2 37.31 70.64 37.59 71.06 36.89 69.54 36.22 67.99 35.45 66.52 34.69 65.06 34.13 63.51 33.62 61.94 33.12 60.39 32.59 58.85 32.19 57.27 30.75 51.51 30.83 45.55 32.46 39.88 32.04 40.82 31.66 41.78 31.37 42.77 30.59 45.46 30.36 48.32 30.4 51.11 30.44 53.78 30.72 56.44 31.21 59.07 31.42 60.18 32.21 62.24 30.91 62.95 29.76 63.58 28.03 62.38 27.04 61.88 25.07 60.88 23.11 59.93 21.31 58.62 17.92 56.17 15.32 53.01 13.83 49.08 13.09 47.12 12.46 44.99 12.32 42.88 12.21 41.15 12.41 39.44 12.69 37.73 12.52 38.12 12.35 38.51 12.22 38.91 11.87 39.95 11.74 41.06 11.72 42.16 11.68 44.24 11.87 46.33 12.33 48.37 13.21 52.29 14.86 55.97 17.1 59.3 18.25 61 19.55 62.62 21.07 64.01 22.23 65.07 23.5 66.01 24.73 66.99 27.02 68.83 28.74 70.92 28.85 73.98 28.85 74.03 28.83 74.08 28.79 74.1 28.84 74.25 28.6 74.37 28.5 74.22 28.39 74.07 28.29 73.93 28.18 73.82 28.47 74.9 28.16 76.01 28 77.11 27.74 78.94 27.79 80.74 28.74 82.38 29.4 83.51 30.55 84.63 30.87 85.9 31.01 86.48 30.58 86.94 30.08 87.14 29.16 87.52 28.12 87.53 27.15 87.72 25.63 88.02 24.12 88.43 22.57 88.58 21.2 88.71 19.73 88.79 18.44 88.19 17.41 87.71 16.63 86.93 15.79 86.19 15.78 86.44 15.8 86.69 15.86 86.94 15.89 87.1 15.72 87.21 15.59 87.1 14.28 85.91 13 84.69 11.71 83.47 11.53 83.3 11.35 83.12 11.17 82.95 11.4 83.42 11.64 83.88 11.9 84.33 13.29 86.74 16.05 88.5 16.08 91.51 16.08 91.52 16.09 91.53 16.09 91.54 16.08 91.58 16.06 91.62 16.05 91.66 16.04 91.72 16.11 91.73 16.14 91.7 16.46 91.4 16.79 90.95 17.02 90.54 17.04 90.72 17.08 90.9 17.13 91.08 17.32 91.68 17.83 92.28 18.26 92.72 18.89 93.36 19.62 93.81 20.42 94.07 20.44 94.09 20.46 94.11 20.49 94.12 22.56 94.89 25.76 95.04 27.53 93.43 28.73 93.67 29.86 93.73 30.97 93.14 31.22 93.01 31.46 92.83 31.68 92.63 32.84 93.15 34.47 92.84 35.36 91.87 36.2 92.13 36.94 92.01 37.63 91.37 38.34 90.73 38.8 89.85 38.73 88.88ZM28.05 91.17C27.91 91.69 27.26 91.87 26.79 91.93 25.95 92.05 25.09 92.1 24.24 92.06 23.35 92.01 22.41 91.93 21.61 91.5 21.28 91.33 20.42 90.95 20.56 90.44 20.69 89.94 21.72 90 22.08 89.98 23.15 89.92 24.14 89.47 25.21 89.46 25.25 89.46 25.28 89.47 25.3 89.49 25.97 89.45 26.64 89.59 27.23 89.96 27.6 90.2 28.19 90.65 28.05 91.17ZM31.79 91.4C31.21 91.93 30.1 91.88 29.51 91.39 29.17 91.1 28.98 90.75 28.95 90.31 28.85 89.1 27.77 89.23 26.93 88.79 26.82 88.74 26.83 88.57 26.93 88.51 27.72 88.07 28.82 88.14 29.66 88.39 29.68 88.39 29.7 88.41 29.71 88.42 30.51 88.45 31.35 88.58 31.92 89.21 32.53 89.87 32.47 90.78 31.79 91.4ZM35.22 90.78C34.55 91.19 33.47 91.18 33.24 90.29 33.14 89.91 33.3 89.51 33.07 89.15 32.86 88.83 32.57 88.68 32.2 88.6 31.73 88.5 31.26 88.44 30.83 88.19 30.76 88.15 30.72 88.04 30.78 87.97 31.12 87.52 31.95 87.54 32.45 87.53 33.11 87.52 33.95 87.49 34.56 87.81 34.61 87.83 34.63 87.87 34.64 87.91 35.69 88.44 36.43 90.05 35.22 90.78Z" fill="#A14801" opacity="0.5"/><path d="M102 93.68C101.99 93.59 101.97 93.5 101.95 93.41 101.95 93.41 101.95 93.42 101.95 93.42 101.92 93.28 101.88 93.13 101.82 92.99 101.83 93.38 101.79 93.77 101.68 94.07 101.68 94.08 101.68 94.08 101.67 94.09 101.53 94.28 101.36 94.43 101.18 94.49 100.9 94.49 100.61 94.27 100.45 93.95 100.26 93.4 100.2 92.67 99.74 92.3 99.49 92.1 99.02 91.86 98.86 91.55 98.89 91.5 98.94 91.45 99.03 91.41 99.23 91.31 99.43 91.26 99.62 91.24 99.42 91.22 99.22 91.19 99.04 91.13 99.03 91.1 99.01 91.07 98.98 91.04 97.94 90.03 96.85 89.3 96.26 87.92 95.78 86.83 95.6 85.61 95.42 84.44 95.42 84.05 95.44 83.65 95.5 83.24 95.54 82.92 95.61 82.6 95.7 82.28 95.09 83.1 95.36 89.95 94.32 90.06 89.54 90.59 88.34 91.45 85.39 89.74 74.97 83.68 78.1 79.64 78.56 75.7 78.66 74.87 79.02 73.49 79.53 72.9 79.55 72.99 79.95 73.96 79.92 74 81.15 71.85 82.47 69.68 84.48 68.17 86.98 66.28 90.03 65.38 92.84 64.06 95.25 62.93 97.5 61.38 99.26 59.36 100.89 57.49 102.15 55.08 101.29 52.66 101.11 54.57 100.99 56.48 99.47 57.87 99.38 57.96 99.18 57.91 99.2 57.76 99.26 57.21 99.26 56.67 99.11 56.14 98.13 58.48 96.26 59.81 94.26 61.32 94.15 61.4 93.97 61.27 94.03 61.14 94.27 60.54 94.35 59.96 94.22 59.36 93.13 61.21 91.17 62.23 89.15 62.82 86.74 63.53 84.21 63.84 81.75 64.33 79.83 64.71 77.88 65.01 75.97 65.41 74.53 65.71 72.93 65.92 71.6 66.59 71.08 66.85 70.21 67.47 69.61 67.16 69.07 66.88 68.91 66.02 68.8 65.33 68.61 65.95 68.46 66.58 68.28 67.21 68.24 67.34 68.06 67.37 67.99 67.25 67.03 65.65 65.87 64.2 64.5 62.94 63.21 61.76 61.78 60.78 60.38 59.73 58.42 58.27 56.18 56.35 56.01 53.77 55.72 54.59 55.61 55.44 55.54 56.32 55.53 56.48 55.33 56.54 55.25 56.4 54.46 55.16 53.5 53.93 53.07 52.49 52.74 51.4 52.8 50.39 52.84 49.34 52.59 50.76 52.33 52.17 52.85 53.6 53.49 55.36 54.68 56.92 55.98 58.24 57.31 59.58 58.83 60.7 60.21 61.98 61.48 63.15 62.57 64.46 63.46 65.95 65.41 69.22 66.6 72.85 67.46 76.54 67.89 78.37 68.3 80.23 68.54 82.1 68.8 84.06 68.82 86.04 68.96 88.01 69.05 89.27 69.29 91.19 68.18 92.11 67.21 92.91 65.86 93.14 64.64 93.25 61.9 93.51 58.64 93.69 56.59 91.55 55.45 90.36 54.67 88.91 53.61 87.66 52.24 86.06 50.59 84.74 48.83 83.58 48.72 83.51 48.61 83.44 48.5 83.36 48.54 83.4 48.59 83.45 48.63 83.49 50.35 85.24 52.15 87.08 53.69 89.07 53.72 89.18 53.76 89.29 53.83 89.41 54.1 89.88 54.32 90.33 54.47 90.86 54.78 91.92 54.77 92.93 54.83 94 54.71 94.18 54.57 94.35 54.43 94.51 54.89 94.32 55.39 94.21 55.81 94.18 56.25 94.15 57.35 93.95 57.62 94.46 57.78 94.76 57.16 95.02 57 95.12 56.54 95.4 55.91 95.71 55.68 96.23 55.54 96.54 55.53 96.99 55.3 97.26 54.86 97.78 54.26 97.96 53.6 97.8 53.4 97.75 53.25 97.68 53.12 97.6 53.15 97.77 53.19 97.93 53.24 98.09 53.7 99.45 55.74 99.89 56.85 99.07 57.84 99.92 59.46 100 60.56 99.16 60.68 99.26 60.81 99.35 60.95 99.44 61.71 99.91 62.72 99.71 63.54 99.47 63.71 99.47 63.87 99.41 64.04 99.37 64.06 99.37 64.07 99.36 64.08 99.35 65.15 100.1 66.62 100.23 67.8 99.69 69.06 99.11 70.03 97.45 70.32 96.14 70.34 96.06 70.31 96 70.27 95.95 70.3 95.6 70.29 95.23 70.23 94.84 70.14 94.24 69.96 93.66 69.87 93.05 69.8 92.59 69.74 92.16 69.58 91.73 69.63 90.79 69.58 89.84 69.51 88.91 69.37 87.14 69.17 85.36 68.97 83.6 68.64 80.76 68.15 77.94 67.47 75.16 67.96 73.07 70.04 71.31 71.68 70.13 73.18 69.05 74.85 68.19 76.56 67.43 76.39 68.7 76.33 70 76.19 71.27 76.1 72.1 76 72.92 75.92 73.75 75.92 73.76 75.92 73.77 75.92 73.78 75.89 74.05 75.87 74.31 75.85 74.57 75.82 74.88 75.8 75.19 75.79 75.5 75.66 78.05 75.92 80.57 76.82 82.96 78.51 87.44 81.85 91.29 85.29 94.54 85.56 94.9 85.79 95.29 86.06 95.64 86.68 96.43 87.4 97.09 88.32 97.5 89.83 98.16 92.01 98.22 93.46 97.41 93.63 97.32 93.76 97.21 93.89 97.09 94.78 97.47 95.93 97.36 96.69 96.75 96.74 96.71 96.79 96.66 96.83 96.61 97.47 97.08 98.48 96.9 99.16 96.59 99.25 96.55 99.34 96.49 99.42 96.43 99.45 96.45 99.48 96.47 99.51 96.48 101.08 96.76 102.16 95.09 102 93.68ZM58.51 97.33C58.35 97.75 58.08 98.17 57.57 98.21 56.48 98.27 55.65 97.16 56.32 96.18 56.89 95.35 57.94 94.77 58.95 94.62 59.32 94.46 59.73 94.36 60.11 94.49 60.48 94.61 60.44 94.99 60.19 95.21 59.42 95.86 58.87 96.35 58.51 97.33ZM61.88 97.33C61.71 97.99 60.92 98.46 60.29 97.98 59.67 97.51 59.4 96.63 59.9 95.96 60.44 95.23 61.25 94.83 62 94.35 62.07 94.31 62.13 94.32 62.17 94.36 62.68 94.13 63.28 94.03 63.75 94.29 63.82 94.33 63.86 94.44 63.81 94.51 63.52 94.92 63.07 95 62.69 95.29 61.95 95.87 62.09 96.53 61.88 97.33ZM68.42 95.89C67.79 96.67 67.07 97.49 66.08 97.83 64.99 98.2 63.1 98.27 62.72 96.88 62.28 95.24 65.15 94.19 66.33 94.15 66.34 94.15 66.34 94.15 66.34 94.15 67.19 93.81 68.18 93.59 68.67 94.12 69.19 94.67 68.83 95.38 68.42 95.89ZM97.97 91.7C98.05 91.68 98.1 91.71 98.14 91.76 98.64 91.91 99.12 92.45 99.36 92.88 99.64 93.4 99.92 94.72 98.96 94.76 98.72 94.77 98.49 94.69 98.27 94.56 97.87 94.02 97.62 93.22 97.51 92.65 97.47 92.41 97.43 92.02 97.55 91.79 97.67 91.73 97.79 91.71 97.92 91.71 97.93 91.72 97.95 91.71 97.97 91.7ZM96.79 94.11C96.68 94.92 96.08 95.51 95.3 94.99 95.14 94.88 94.98 94.76 94.84 94.61 94.27 93.73 94.13 92.41 94.64 91.84 95.85 91.54 96.96 92.87 96.79 94.11ZM92.8 95.41C91.66 95.94 89.93 95.65 88.93 94.94 88.5 94.64 88.18 94.06 88.38 93.53 88.4 93.46 88.44 93.4 88.47 93.34 88.52 93.08 88.68 92.85 88.89 92.66 88.9 92.66 88.91 92.66 88.92 92.65 89.42 92.51 90.01 92.05 90.52 91.92 91.14 91.83 91.78 91.95 92.31 92.34 93.24 93.04 94.3 94.71 92.8 95.41Z" fill="#A14801" opacity="0.5"/><path d="M72.98 1.82C70.97 1.15 68.68 1.19 66.62 1.18 63.82 1.16 61.01 1.28 58.23 1.61 56.12 1.86 54.04 2.34 51.97 2.85 47.74 2.35 43.74 0.51 39.49 0.08 37.92-0.08 36.36 0.02 34.84 0.33 35.86 0.27 36.88 0.3 37.9 0.48 38.12 0.52 38.33 0.56 38.55 0.61 39.03 0.62 39.5 0.65 39.98 0.71 43.7 1.14 47.2 2.68 50.91 3.1 50.62 3.17 50.32 3.24 50.03 3.31 47.16 3.99 44.17 4.08 41.23 4.13 41.17 4.13 41.17 4.23 41.23 4.24 43.8 4.37 46.39 4.39 48.95 4.01 51.78 3.58 54.53 2.72 57.37 2.29 60.02 1.88 62.75 1.78 65.43 1.75 65.46 1.75 65.49 1.74 65.53 1.74 68.1 1.44 70.71 1.5 73.27 1.89 73.16 1.86 73.07 1.84 72.98 1.82Z" fill="#692E02" opacity="0.4"/><path d="M101.06 91.81C100.83 91.59 100.6 91.4 100.28 91.32 99.9 91.23 99.43 91.26 99.05 91.12 99.04 91.09 99.02 91.06 98.99 91.03 97.95 90.02 96.86 89.29 96.27 87.91 95.79 86.82 95.61 85.6 95.43 84.43 95.43 84.04 95.45 83.64 95.51 83.23 95.67 82.05 96.13 80.89 96.61 79.8 97.52 77.73 98.74 75.78 99.87 73.83 101.04 71.81 102.28 69.81 103.44 67.77 103.02 68.43 102.59 69.07 102.15 69.71 101.04 71.33 99.9 72.94 98.82 74.58 97.78 76.37 96.72 78.16 95.92 80.06 95.1 82.01 94.79 84.11 95.36 86.13 95.44 86.86 95.59 87.58 95.87 88.28 96.39 89.56 97.57 90.72 98.74 91.43 98.81 91.47 98.87 91.47 98.92 91.45 99.06 91.54 99.23 91.59 99.42 91.65 100.15 91.85 100.62 91.99 101.07 92.66 101.49 93.28 101.62 94.11 101.37 94.81 101.12 95.55 100.45 95.77 99.79 95.97 100.01 95.6 100.13 95.15 100.17 94.74 100.38 92.8 98.85 91.44 96.92 91.74 96.86 91.75 96.85 91.84 96.92 91.85 97.66 91.99 98.32 91.98 98.96 92.45 99.48 92.83 99.65 93.55 99.71 94.16 99.84 95.72 98.61 96.63 97.16 96.18 97.48 95.63 97.57 94.95 97.55 94.33 97.51 93.41 97.12 92.48 96.39 91.9 95.6 91.27 94.32 91.62 93.47 91.92 93.42 91.94 93.44 92.01 93.49 92.01 94.3 91.99 95.02 91.73 95.81 92.06 96.53 92.36 96.85 93.32 96.96 94.02 97.24 95.8 96 97.1 94.25 96.62 94.84 95.59 94.42 94.14 93.8 93.15 93.41 92.52 92.73 91.74 91.99 91.54 90.86 91.24 89.98 91.97 89.03 92.5 88.97 92.53 89.02 92.64 89.09 92.61 90.07 92.17 91.14 91.53 92.19 92.2 92.83 92.61 93.31 93.29 93.64 93.96 94 94.67 94.15 95.51 93.81 96.25 93.47 96.99 92.51 97.24 91.78 97.34 90.29 97.54 88.58 97.22 87.41 96.26 86.77 95.73 86.28 95.01 85.76 94.37 85.44 93.98 85.02 93.63 84.6 93.29 84.26 92.92 83.91 92.56 83.57 92.2 82.7 91.29 81.93 90.33 81.17 89.33 79.69 87.36 78.3 85.3 77.36 83.02 76.3 80.46 76.12 77.69 76.26 74.95 76.33 73.63 76.45 72.32 76.57 71.01 76.69 69.8 76.86 68.54 76.79 67.31 77.67 66.93 78.54 66.57 79.41 66.22 82.12 65.13 84.98 64.7 87.81 64.06 89.5 63.68 91.25 63.13 92.65 62.11 92.65 62.11 92.65 62.11 92.65 62.11 94.34 62.19 95.92 61.26 97.16 60.2 97.57 59.85 97.98 59.43 98.35 58.98 98.36 58.98 98.38 58.97 98.39 58.97 100.35 57.59 102.02 55.09 101.17 52.63 101.15 52.59 101.09 52.6 101.09 52.65 101.17 53.91 100.99 55.02 100.39 56.14 100.05 56.78 99.57 57.34 99.07 57.87 99.38 57.26 99.56 56.61 99.53 55.93 99.53 55.87 99.42 55.86 99.42 55.93 99.24 57.57 98.09 58.79 96.9 59.83 95.79 60.79 94.48 61.51 93.04 61.8 93.5 61.42 93.9 60.98 94.25 60.47 94.33 60.35 94.16 60.21 94.07 60.33 92.34 62.62 88.89 63.27 86.25 63.82 84.81 64.12 83.36 64.39 81.93 64.77 80.45 65.16 79.03 65.76 77.62 66.37 75.05 67.49 72.44 68.66 70.32 70.55 69.51 71.26 68.76 72.12 68.14 73.01 67.81 73.48 67.47 74.05 67.32 74.64 67.2 74.17 67.07 73.69 66.94 73.22 66.02 69.99 64.78 66.85 62.78 64.14 61.86 62.89 60.74 61.88 59.56 60.89 58.89 60.33 58.24 59.75 57.67 59.07 56.98 58.25 56.84 57.23 56.65 56.21 56.64 56.14 56.53 56.15 56.54 56.22 56.62 56.93 56.64 57.63 56.82 58.32 56.84 58.39 56.86 58.45 56.88 58.51 54.5 56.25 52.52 53.36 52.86 49.95 52.87 49.9 52.79 49.88 52.78 49.94 52.41 51.68 52.74 53.56 53.57 55.12 54.44 56.75 55.62 57.93 57.09 58.95 57.31 59.32 57.6 59.63 57.89 59.95 59.03 61.18 60.45 62.1 61.57 63.35 63.82 65.88 65.12 69.08 66.12 72.27 67.19 75.69 67.85 79.23 68.3 82.77 68.77 86.48 69.44 89.46 69.18 93.19 69.17 93.37 69.16 94.18 69.21 94.01 69.33 93.59 69.42 93.15 69.47 92.71 69.5 93.26 69.53 93.82 69.65 94.38 69.79 95.1 69.77 95.74 69.62 96.39 69.14 97.22 68.85 98.14 68.08 98.82 67.16 99.63 65.82 99.58 64.76 99.1 63.68 98.62 62.75 97.33 63.23 96.14 63.64 95.13 64.88 94.74 65.79 94.35 65.84 94.33 65.83 94.25 65.77 94.26 64.66 94.42 63.4 94.96 62.81 95.94 62.19 96.97 62.83 98.22 63.63 98.98 62.97 99.1 62.33 99.29 61.66 99.15 60.9 98.99 60.36 98.35 60.08 97.67 59.77 96.93 59.97 96.13 60.49 95.55 60.89 95.1 61.52 94.9 62 94.56 62.04 94.53 62.01 94.48 61.97 94.5 60.57 94.97 59.04 95.89 59.56 97.63 59.69 98.09 59.91 98.48 60.21 98.81 58.77 99.21 57.1 99.47 56.55 97.67 55.99 95.86 57.72 95.23 59.01 94.61 59.07 94.58 59.04 94.49 58.97 94.51 57.36 95 55.49 95.77 56.07 97.84 56.16 98.16 56.31 98.43 56.5 98.68 55.85 98.81 55.21 98.95 54.55 98.7 53.83 98.42 53.58 97.61 53.62 96.91 53.66 96.03 54.16 95.33 54.73 94.69 54.82 94.59 54.89 94.49 54.96 94.39 54.99 94.39 55.03 94.39 55.06 94.37 55.79 93.88 55.24 92.48 55.04 91.81 54.86 91.21 54.7 90.63 54.42 90.07 54.8 90.61 55.16 91.15 55.49 91.71 55.58 91.86 55.69 91.94 55.62 91.78 54.71 89.81 53.34 87.83 51.92 86.2 50.43 84.48 48.81 82.86 47.2 81.25 43.95 78 40.67 74.74 38.1 70.91 35.48 67.01 33.61 62.37 32.39 57.85 31.05 52.9 31.3 47.92 32.1 42.9 32.54 40.13 33.11 37.51 34.64 35.12 36.04 32.93 37.99 31.1 39.95 29.41 40.01 29.36 39.94 29.26 39.88 29.31 36.87 31.53 34.14 34.07 32.74 37.62 31.94 39.63 31.67 41.84 31.35 43.97 30.99 46.33 30.79 48.72 30.82 51.11 30.89 55.89 32.41 60.51 34.29 64.86 34.88 66.22 35.53 67.52 36.23 68.78 32.6 66.66 28.78 64.88 25.16 62.74 21.95 60.85 19.16 58.28 16.99 55.26 14.73 52.11 13.16 48.36 12.66 44.51 12.1 40.14 13.06 35.68 14.35 31.52 14.35 31.51 14.34 31.51 14.33 31.52 13.76 33.01 13.26 34.55 12.88 36.11 12.88 35.85 12.88 35.59 12.88 35.32 12.87 34.4 12.93 33.52 13.1 32.62 13.11 32.55 13.01 32.54 12.99 32.6 12.61 33.99 12.38 35.7 12.65 37.14 12.15 39.48 11.93 41.88 12.11 44.28 12.4 48.17 14.09 52.01 16.26 55.21 18.34 58.29 21.12 60.88 24.25 62.87 26.09 64.04 28.06 65.01 29.98 66.03 31.14 66.65 32.3 67.28 33.45 67.92 33.25 68.77 33.13 69.62 32.83 70.45 32.57 71.17 32.16 71.84 31.76 72.49 31.36 73.16 30.94 73.83 30.63 74.55 30.56 74.72 30.5 74.89 30.46 75.06 30.45 74.68 30.4 74.31 30.33 73.96 30.35 73.82 30.37 73.68 30.38 73.54 30.39 73.46 30.28 73.42 30.25 73.5 30.21 73.59 30.17 73.69 30.13 73.78 30.12 73.79 30.11 73.79 30.11 73.8 30.1 73.82 30.1 73.84 30.09 73.86 29.56 75.13 29.12 76.5 28.82 77.84 28.49 79.3 28.62 80.53 29.22 81.9 29.7 83 30.2 84.28 31.11 85.1 31.64 85.58 32.36 85.98 33.07 86.31 34.48 86.96 36.05 86.5 37.38 87.5 39.32 88.97 37.62 91.61 35.6 91.63 35.77 91.39 35.89 91.12 35.96 90.82 36.17 89.9 35.92 88.92 35.3 88.2 34.68 87.5 33.54 87.64 32.74 87.81 32.71 87.82 32.71 87.86 32.74 87.86 33.68 87.83 34.48 87.78 35.1 88.62 35.54 89.21 35.64 90.17 35.42 90.85 34.98 92.19 33.28 92.53 32.04 92.3 32.41 91.84 32.66 91.28 32.66 90.72 32.65 88.66 30.51 88.17 28.82 88.4 28.78 88.41 28.79 88.46 28.83 88.46 30.15 88.45 32.06 88.96 32.16 90.54 32.22 91.48 31.43 92.27 30.69 92.72 29.88 93.22 28.91 93.15 28 92.99 28.11 92.85 28.21 92.69 28.3 92.53 28.9 91.44 28.06 90.38 27.17 89.81 25.89 89 24.57 89.34 23.26 89.86 23.21 89.88 23.23 89.95 23.29 89.94 24.48 89.6 25.62 89.48 26.75 90.08 27.17 90.3 27.51 90.63 27.77 91.02 28.29 91.79 27.7 92.58 27.12 93.07 26.29 93.78 25.16 94.05 24.09 94.1 23.08 94.14 22.11 93.87 21.12 93.79 20.84 93.72 20.57 93.64 20.31 93.55 19.6 93.3 19 92.8 18.49 92.24 18.09 91.8 17.74 91.3 17.51 90.75 17.39 90.47 17.34 90.19 17.27 89.9 17.28 89.62 17.21 89.34 17.04 89.1 17.02 89.07 16.98 89.1 16.99 89.13 16.99 89.15 16.99 89.17 17 89.19 16.98 89.16 16.97 89.14 16.95 89.11 16.94 89.1 16.91 89.1 16.91 89.12 16.94 89.32 16.96 89.52 16.97 89.72 16.89 90.04 16.71 90.36 16.59 90.64 16.53 90.77 16.46 90.9 16.39 91.03 16.55 88.76 14.4 86.8 13.13 85.17 10.93 82.37 10.41 78.94 9.85 75.54 9.28 72.1 8.38 68.78 6.76 65.68 5.93 64.1 4.97 62.55 4.29 60.89 3.66 59.36 3.46 57.75 3.49 56.12 3.5 56 3.51 55.87 3.5 55.72 3.5 55.71 3.49 55.7 3.49 55.69 3.5 55.56 3.5 55.43 3.51 55.3 3.51 55.24 3.42 55.22 3.41 55.28 3.38 55.46 3.36 55.65 3.33 55.83 3.16 56.12 3.04 56.44 2.86 56.73 2.69 57 2.48 57.25 2.26 57.49 2.97 55.81 2.37 53.93 1.87 52.25 1.28 50.28 0.68 48.39 0.6 46.32 0.6 46.19 0.6 46.05 0.6 45.91 0.48 44.62 0.51 43.3 0.73 41.97 0.87 41.13 0.93 40.26 1.02 39.4 0.46 41.38 0.08 43.41 0.01 45.49-0.05 47.41 0.34 49.24 0.89 51.07 1.42 52.82 1.87 54.51 2.13 56.3 2.12 56.45 2.11 56.61 2.09 56.76 2.05 57.1 2.05 57.64 1.82 57.92 1.8 57.95 1.84 57.99 1.86 57.97 1.92 57.95 1.96 57.9 2 57.85 2.46 57.57 2.96 57.17 3.26 56.68 3.2 57.71 3.26 58.74 3.48 59.73 3.87 61.43 4.72 62.92 5.54 64.44 6.4 66.04 7.24 67.64 7.84 69.35 8.49 71.18 8.88 73.1 9.21 75.01 9.49 76.63 9.66 78.27 10.06 79.87 10.45 81.45 11.11 82.95 11.93 84.36 13.32 86.77 16.08 88.53 16.11 91.54 16.11 91.55 16.12 91.56 16.12 91.57 16.11 91.61 16.09 91.65 16.08 91.69 16.07 91.75 16.14 91.76 16.17 91.73 16.49 91.43 16.82 90.98 17.05 90.57 17.07 90.75 17.11 90.93 17.16 91.11 17.35 91.71 17.86 92.31 18.29 92.75 18.92 93.39 19.65 93.84 20.45 94.1 20.47 94.12 20.49 94.14 20.52 94.15 22.59 94.92 25.79 95.07 27.56 93.46 28.76 93.7 29.89 93.76 31 93.17 31.25 93.04 31.49 92.86 31.71 92.66 32.87 93.18 34.5 92.87 35.39 91.9 36.23 92.16 36.97 92.04 37.66 91.4 38.42 90.69 38.9 89.72 38.73 88.67 38.57 87.66 37.66 86.91 36.77 86.53 36.22 86.29 35.52 86.28 34.93 86.24 33.82 86.17 32.69 85.59 31.76 84.99 30.66 84.28 30 82.96 29.5 81.8 28.59 79.66 29.46 77.56 30.02 75.46 30.08 75.95 30.18 76.44 30.26 76.88 30.26 76.89 30.27 76.89 30.27 76.9 30.27 76.94 30.26 76.99 30.26 77.03 30.25 77.09 30.34 77.11 30.35 77.05 30.55 76.14 30.71 75.35 31.17 74.51 31.55 73.82 31.96 73.16 32.38 72.49 33.22 71.13 33.65 69.74 33.92 68.19 34.84 68.7 35.77 69.22 36.69 69.73 36.73 69.75 36.76 69.76 36.79 69.76 38.12 71.99 39.65 74.08 41.42 76.07 43.71 78.65 46.21 81.03 48.63 83.5 50.35 85.25 52.15 87.09 53.69 89.08 53.72 89.19 53.76 89.3 53.83 89.42 54.1 89.89 54.32 90.34 54.47 90.87 54.78 91.93 54.77 92.94 54.83 94.01 54.39 94.69 53.67 95.2 53.32 95.97 53.02 96.64 53.01 97.4 53.24 98.09 53.7 99.45 55.74 99.89 56.85 99.07 57.84 99.92 59.46 100 60.56 99.16 60.68 99.26 60.81 99.35 60.95 99.44 61.71 99.91 62.72 99.71 63.54 99.47 63.71 99.47 63.87 99.41 64.04 99.37 64.06 99.37 64.07 99.36 64.08 99.35 65.15 100.1 66.62 100.23 67.8 99.69 69.06 99.11 70.03 97.45 70.32 96.14 70.34 96.06 70.31 96 70.27 95.95 70.3 95.6 70.29 95.23 70.23 94.84 70.14 94.24 69.96 93.66 69.87 93.05 69.8 92.59 69.74 92.16 69.58 91.73 69.63 90.79 69.58 89.84 69.51 88.91 69.37 87.14 69.17 85.36 68.97 83.6 68.64 80.76 68.15 77.94 67.47 75.16 67.96 73.07 70.04 71.31 71.68 70.13 73.18 69.05 74.85 68.19 76.56 67.43 76.39 68.7 76.33 70 76.19 71.27 76.03 72.68 75.85 74.08 75.78 75.5 75.65 78.05 75.91 80.57 76.81 82.96 78.5 87.44 81.84 91.29 85.28 94.54 85.55 94.9 85.78 95.29 86.05 95.64 86.67 96.43 87.39 97.09 88.31 97.5 89.82 98.16 92 98.22 93.45 97.41 93.62 97.32 93.75 97.21 93.88 97.09 94.77 97.47 95.92 97.36 96.68 96.75 96.73 96.71 96.78 96.66 96.82 96.61 97.46 97.08 98.47 96.9 99.15 96.59 99.24 96.55 99.33 96.49 99.41 96.43 99.44 96.45 99.47 96.47 99.5 96.48 101.1 96.77 102.17 95.09 102.01 93.69 101.92 93.01 101.55 92.28 101.06 91.81Z" fill="#692E02" opacity="0.4"/><g><g><path d="M63.93 16.9C62.04 17.07 60.14 18.56 58.96 19.95 58.1 20.96 57.65 22.19 57.42 23.46 57.2 24.16 57.08 24.88 57.13 25.64 57.2 26.76 57.91 27.83 58.74 28.54 60.76 30.27 64.01 29.65 66.25 28.75 66.29 28.73 66.32 28.71 66.35 28.68 66.79 28.66 67.23 28.12 67.46 27.83 67.69 27.53 67.88 27.22 68.05 26.89 68.07 26.85 68.09 26.81 68.12 26.76 68.19 26.73 68.25 26.67 68.26 26.57 68.53 23.66 68.44 16.49 63.93 16.9Z" fill="#BA6700"/><path d="M65.47 17.1C65.61 17.25 65.74 17.41 65.86 17.61 66.7 18.96 67.3 21.22 66.72 22.76 66.68 22.86 66.54 22.93 66.45 22.83 65.91 22.22 65.38 21.11 64.69 20.34 63.88 19.43 62.41 19.75 61.56 20.55 60.77 21.29 59.95 22.84 59.62 23.87 59.24 25.03 58.93 26.76 59.79 27.49 59.89 27.57 59.14 27.72 59.01 27.69 57.57 27.4 57.43 26.32 57.13 25.05 57.12 25.24 57.12 25.44 57.13 25.64 57.2 26.76 57.91 27.83 58.74 28.54 60.76 30.27 64.01 29.65 66.25 28.75 66.29 28.73 66.32 28.71 66.35 28.68 66.79 28.66 67.23 28.12 67.46 27.83 67.69 27.53 67.88 27.22 68.05 26.89 68.07 26.85 68.09 26.81 68.12 26.76 68.19 26.73 68.25 26.67 68.26 26.57 68.5 24.04 68.46 18.28 65.47 17.1Z" fill="#A14801" opacity="0.4"/><path d="M66.23 27.16C65.95 26.03 65.64 24.92 65.17 23.85 64.85 23.12 64.38 22.21 63.63 21.83 61.77 20.89 60.95 23.04 60.74 24.47 60.73 24.53 60.82 24.56 60.84 24.5 61.07 23.84 61.21 23.12 61.64 22.57 62.29 21.75 63.36 22.12 63.93 22.79 65.03 24.09 65.13 25.83 65.76 27.33 65.89 27.63 66.31 27.47 66.23 27.16Z" fill="#692E02"/><path d="M66.23 27.16C65.95 26.03 65.64 24.92 65.17 23.85 64.85 23.12 64.38 22.21 63.63 21.83 60.6 20.31 58.91 28.06 62.94 28.14 64.67 28.18 65.3 27.63 66.02 27.53 66.35 27.49 66.31 27.47 66.23 27.16Z" fill="#A14801" opacity="0.5"/><path d="M60.79 19.62C59.38 20.01 58.46 21.06 58.06 22.56 58.05 22.6 58.1 22.6 58.11 22.58 58.79 21.32 60.16 20.15 61.35 19.44 61.38 19.42 60.82 19.61 60.79 19.62Z" fill="#E29D55"/><path d="M62.69 18.77C61.52 18.49 60.48 18.8 59.75 19.71 59.59 19.91 59.46 20.11 59.49 20.07 60.18 19.31 62.07 18.84 63.13 18.89 63.15 18.88 62.71 18.78 62.69 18.77Z" fill="#E29D55"/><path d="M65.58 18.12C64.68 16.59 62.92 17.27 61.77 18.01 61.53 18.17 61.13 18.47 61.16 18.46 62.62 18.09 64.46 17.42 65.65 18.35 65.69 18.38 65.6 18.16 65.58 18.12Z" fill="#E29D55"/></g><g><path d="M94.99 25.95C95 26.05 95.06 26.11 95.13 26.14 95.16 26.19 95.18 26.23 95.2 26.27 95.37 26.59 95.57 26.91 95.79 27.21 96.01 27.51 96.46 28.05 96.9 28.06 96.93 28.09 96.95 28.11 97 28.13 99.24 29.02 102.49 29.65 104.51 27.92 105.34 27.21 106.04 26.14 106.12 25.02 106.17 24.26 106.05 23.54 105.83 22.84 105.61 21.56 105.16 20.34 104.3 19.33 103.12 17.94 101.21 16.45 99.32 16.28 94.8 15.85 94.72 23.02 94.99 25.95Z" fill="#BA6700"/><path d="M97.78 16.46C97.64 16.61 97.51 16.77 97.39 16.96 96.55 18.31 95.95 20.57 96.53 22.11 96.57 22.21 96.71 22.28 96.8 22.18 97.34 21.56 97.87 20.46 98.56 19.69 99.37 18.78 100.84 19.1 101.69 19.9 102.48 20.64 103.3 22.19 103.63 23.22 104.01 24.38 104.32 26.12 103.46 26.85 103.37 26.93 104.11 27.08 104.24 27.05 105.68 26.76 105.82 25.68 106.12 24.41 106.13 24.6 106.13 24.8 106.12 25 106.05 26.12 105.34 27.19 104.51 27.9 102.48 29.63 99.24 29.01 97 28.11 96.96 28.09 96.93 28.07 96.9 28.04 96.46 28.02 96.02 27.48 95.79 27.19 95.56 26.9 95.37 26.58 95.2 26.25 95.18 26.21 95.16 26.17 95.13 26.12 95.06 26.09 95 26.03 94.99 25.93 94.75 23.4 94.79 17.64 97.78 16.46Z" fill="#A14801" opacity="0.4"/><path d="M97.02 26.52C97.3 25.39 97.62 24.28 98.08 23.21 98.4 22.48 98.87 21.57 99.62 21.19 101.48 20.25 102.3 22.4 102.51 23.83 102.52 23.89 102.43 23.92 102.41 23.86 102.19 23.2 102.05 22.48 101.61 21.93 100.95 21.11 99.89 21.48 99.32 22.15 98.23 23.45 98.12 25.19 97.49 26.69 97.36 26.99 96.94 26.83 97.02 26.52Z" fill="#692E02"/><path d="M97.02 26.52C97.3 25.39 97.62 24.28 98.08 23.21 98.4 22.48 98.87 21.57 99.62 21.19 102.65 19.67 104.34 27.42 100.31 27.5 98.58 27.54 97.94 26.99 97.23 26.89 96.9 26.85 96.94 26.83 97.02 26.52Z" fill="#A14801" opacity="0.5"/><path d="M102.46 18.98C103.87 19.37 104.79 20.42 105.19 21.92 105.2 21.96 105.16 21.96 105.14 21.94 104.46 20.68 103.09 19.51 101.9 18.8 101.87 18.78 102.43 18.97 102.46 18.98Z" fill="#E29D55"/><path d="M100.56 18.13C101.73 17.85 102.77 18.16 103.5 19.07 103.66 19.27 103.8 19.47 103.76 19.43 103.07 18.67 101.18 18.2 100.12 18.25 100.1 18.25 100.53 18.14 100.56 18.13Z" fill="#E29D55"/><path d="M97.67 17.48C98.57 15.95 100.33 16.63 101.48 17.37 101.72 17.53 102.12 17.83 102.09 17.82 100.62 17.45 98.79 16.78 97.59 17.71 97.56 17.75 97.65 17.52 97.67 17.48Z" fill="#E29D55"/></g><path d="M109.31 39.08C108.71 37.85 107.67 36.77 106.58 36.03 105.83 35.53 105 35.2 104.13 34.97 99.46 26.07 89.8 17.9 79.34 20.41 74.74 20.17 70.27 23 67.04 26 65.25 27.67 63.75 29.59 62.53 31.71 61.47 33.55 60.63 35.5 59.71 37.41 58.52 38.03 57.4 38.78 56.46 39.74 55.78 40.43 55.26 41.26 54.91 42.16 54.6 42.95 54.31 44.12 54.77 44.9 54.79 44.93 54.81 44.94 54.83 44.94 54.83 45.02 54.84 45.09 54.86 45.17 54.87 45.22 54.94 45.23 54.96 45.17 55.12 44.55 55.36 43.98 55.71 43.46 55.1 44.85 55.12 46.31 56.06 47.76 57.23 49.56 59.37 50.9 61.18 51.98 63.44 53.33 65.9 54.3 68.32 55.31 70.3 56.13 72.27 57.01 74.26 57.83 76.69 60.39 80.4 61.17 83.86 60.59 86.47 60.15 88.82 58.61 90.62 56.6 92.41 55.4 94.25 54.35 96.25 53.45 98.53 52.42 100.8 51.31 103.01 50.14 104.98 49.09 106.9 47.82 108.2 45.97 108.85 45.04 109.26 43.87 109.19 42.76 109.33 43.09 109.44 43.45 109.52 43.81 109.5 43.91 109.48 44 109.45 44.1 109.44 44.15 109.51 44.17 109.53 44.12 110.4 42.46 110.22 40.64 109.31 39.08Z" fill="#BA6700"/><path d="M93.56 24.64C91.35 20.62 86.08 19.68 81.81 20.09 81.42 20.93 81.04 21.81 80.48 22.55 79.91 23.29 79.22 23.26 78.27 23.39 77.19 23.54 76.49 23.89 75.54 24.51 75.44 24.57 75.29 24.49 75.3 24.37 75.36 23.41 75.67 22.78 76.25 22.06 77.64 20.34 73.68 21.83 73.17 22.14 71.71 23.02 69.65 24.2 69.18 25.97 68.26 29.46 71.51 26.36 73.15 27.22 74.57 27.97 74.92 30.48 75.22 31.86 75.75 34.25 76.04 36.82 78.56 36.99 85.07 37.4 85.43 35.77 86.01 31.09 86.44 27.65 87.08 26.3 90.53 26.83 92.7 27.15 95.43 28.04 93.56 24.64Z" fill="#EFAC6F" opacity="0.2"/><path d="M67 39.78C64.11 38.09 62.32 37.18 59.93 38.29 57.54 39.41 56.9 40.26 56.32 41.42 55.74 42.59 56.21 42.01 56.96 41.74 57.7 41.47 57.49 41.63 57.23 42.64 56.96 43.65 56.86 43.97 57.92 43.38 58.98 42.8 58.82 43.96 60.1 44.92 61.38 45.88 64.62 47.31 67.97 44.5 71.31 41.7 68.28 40.53 67 39.78Z" fill="#EFAC6F" opacity="0.2"/><path d="M96.11 36.04C99.86 35.01 102.15 34.5 104.79 36.12 107.44 37.74 108.04 38.72 108.53 40 109.01 41.28 108.55 40.6 107.71 40.17 106.87 39.75 107.1 39.95 107.23 41 107.36 42.05 107.43 42.39 106.27 41.58 105.11 40.77 105.09 41.96 103.4 42.62 101.71 43.28 97.59 43.99 94.11 40.48 90.64 36.98 94.46 36.49 96.11 36.04Z" fill="#EFAC6F" opacity="0.2"/><path d="M109.26 39.11C108.66 37.88 107.61 36.8 106.53 36.06 105.78 35.56 104.95 35.23 104.08 35 102.28 31.57 99.74 28.26 96.7 25.62 97.75 26.78 98.72 28 99.64 29.28 100.91 31.03 102.28 32.74 103.02 34.79 103.05 34.88 102.97 35 102.87 34.99 102.23 34.91 101.61 34.97 101.01 35.12 102.88 35.35 104.68 35.87 106.2 37.02 107.48 37.99 108.85 39.48 109.17 41.09 109.2 41.23 109.01 41.38 108.9 41.25 108.66 40.96 108.45 40.65 108.18 40.4 108.35 41.19 108.54 41.96 108.28 42.75 108.08 43.36 107.42 43.79 106.87 44.04 106.13 44.37 105.35 44.57 104.56 44.74 103.56 44.96 102.57 45.24 101.56 45.41 99.82 45.71 97.19 46.2 95.7 44.97 94.93 44.34 94.33 43.53 93.61 42.85 93.04 42.32 92.29 41.99 91.74 41.44 91.65 41.39 91.56 41.32 91.47 41.27 89.63 40.15 87.63 39.21 85.53 38.74 83.15 38.21 80.92 38.13 78.57 38.83 77.35 39.2 76.13 39.57 74.98 40.12 74.39 40.4 73.78 40.92 73.13 41.06 71.02 42.55 69.2 44.44 67.62 46.48 66.94 47.35 66.4 48.52 65.54 49.23 64.94 49.72 63.96 49.41 63.31 49.22 61.41 48.69 59.35 47.99 57.86 46.63 57.22 46.05 56.62 45.3 56.52 44.41 56.41 43.42 56.76 42.6 57.26 41.81 56.82 42.01 56.4 42.25 56.05 42.6 55.95 42.7 55.72 42.6 55.78 42.44 56.34 41.08 57.12 39.82 58.29 38.9 59.45 37.98 60.92 37.82 62.35 37.76 61.94 37.62 61.53 37.52 61.08 37.5 60.98 37.5 60.89 37.4 60.93 37.3 61.38 35.9 62 34.58 62.68 33.28 63.4 31.92 64.08 30.51 64.88 29.2 65.6 28.01 66.52 27 67.41 25.94 67.69 25.61 67.96 25.28 68.24 24.94 67.81 25.3 67.4 25.66 67.01 26.02 65.22 27.69 63.73 29.62 62.5 31.73 61.44 33.57 60.59 35.52 59.67 37.43 58.48 38.05 57.36 38.8 56.42 39.76 55.74 40.45 55.22 41.28 54.87 42.18 54.56 42.97 54.27 44.14 54.73 44.92 54.75 44.95 54.77 44.96 54.79 44.96 54.79 45.04 54.8 45.12 54.81 45.19 54.82 45.24 54.89 45.25 54.91 45.19 55.07 44.57 55.31 44 55.66 43.48 55.05 44.87 55.07 46.33 56.01 47.78 57.18 49.58 59.32 50.92 61.13 52 63.39 53.35 65.85 54.32 68.27 55.33 70.25 56.15 72.22 57.03 74.21 57.85 76.64 60.41 80.35 61.19 83.81 60.61 86.42 60.18 88.77 58.63 90.57 56.62 92.36 55.42 94.2 54.37 96.2 53.46 98.48 52.43 100.75 51.32 102.96 50.15 104.93 49.1 106.85 47.83 108.15 45.98 108.8 45.05 109.21 43.88 109.14 42.77 109.28 43.11 109.39 43.46 109.47 43.82 109.45 43.92 109.43 44.01 109.4 44.11 109.39 44.16 109.46 44.18 109.48 44.14 110.35 42.48 110.16 40.66 109.26 39.11Z" fill="#A14801" opacity="0.4"/><path d="M93.73 45.15C92.8 43.56 91.47 41.93 90.08 40.72 90.06 40.7 90.04 40.73 90.05 40.75 90.08 40.79 90.1 40.82 90.13 40.86 88.88 39.91 87.34 39.2 85.96 38.67 84.98 38.29 83.96 37.94 82.92 37.76 82.37 37.67 81.81 37.63 81.26 37.56 81.18 37.55 81.1 37.55 81.03 37.54 81.02 37.52 81.01 37.5 80.98 37.5 79.15 37.44 77.16 37.8 75.48 38.53 73.9 39.22 72.53 40.39 71.33 41.61 70.08 42.88 69 44.36 68.1 45.9 67.26 47.34 66.71 49 66.91 50.68 67.31 53.98 70.64 56.13 73.43 57.32 74.8 57.91 76.29 58.42 77.8 58.39 79.32 58.36 80.34 57.56 81.21 56.4 81.66 56.97 82.32 57.4 83.13 57.8 84.04 58.25 84.94 58.26 85.87 57.89 86.98 57.44 88.11 57.06 89.19 56.54 89.22 56.52 89.23 56.5 89.23 56.48 90.15 56.02 91.02 55.4 91.64 54.64 92.18 53.97 92.54 53.12 92.9 52.35 93.31 51.46 93.77 50.6 94.12 49.69 94.69 48.13 94.56 46.57 93.73 45.15Z" fill="#EFAC6F"/><path d="M93.73 45.15C93.24 44.32 92.64 43.47 91.98 42.68 92.5 43.5 92.93 44.36 93.2 45.3 93.38 45.93 93.69 46.81 93.39 47.45 93.16 47.93 92.36 48.03 91.91 48.05 91.16 48.1 90.24 48.07 89.58 47.67 88.81 47.21 88.23 46.48 87.48 45.98 86.46 45.3 85.29 45.03 84.1 44.82 82.91 44.62 81.71 44.48 80.5 44.5 78.16 44.53 75.82 45.1 73.89 46.48 72.53 47.45 71.36 48.95 69.49 48.37 68.15 47.96 69.07 46 69.39 45.22 70.01 43.69 70.95 42.33 71.94 41.01 71.73 41.21 71.53 41.4 71.33 41.61 70.08 42.88 69 44.36 68.1 45.9 67.26 47.34 66.71 49 66.91 50.68 67.31 53.98 70.64 56.13 73.43 57.32 74.8 57.91 76.29 58.42 77.8 58.39 79.32 58.36 80.34 57.56 81.21 56.4 81.66 56.97 82.32 57.4 83.13 57.8 84.04 58.25 84.94 58.26 85.87 57.89 86.98 57.44 88.11 57.06 89.19 56.54 89.22 56.52 89.23 56.5 89.23 56.48 90.15 56.02 91.02 55.4 91.64 54.64 92.18 53.97 92.54 53.12 92.9 52.35 93.31 51.46 93.77 50.6 94.12 49.69 94.69 48.13 94.56 46.57 93.73 45.15Z" fill="#D6C16F"/><path d="M90.7 54.93C89.98 55.49 89.12 55.7 88.31 56.1 87.52 56.49 85.08 57.17 84.38 57 83.08 56.69 81.63 55.39 82.15 55.09 82.83 54.69 85.12 54.05 85.78 53.64 86.82 53 87.82 51.81 88.39 50.73 88.8 49.96 89.2 48.92 88.65 48.11 87.6 46.58 84.99 46.47 83.34 46.24 80.92 45.91 78.25 45.67 75.88 46.39 74.27 46.88 71.3 48.45 72.22 50.62 72.68 51.7 73.72 52.32 74.69 52.89 75.76 53.52 76.67 54.22 77.85 54.6 79.19 55.03 79.82 55.1 79.82 55.19 79.77 57.37 76.95 57.21 75.94 57.1 74.45 56.94 72.64 56.02 71.48 55.35 69.72 54.32 68.66 53.76 67.21 51.9 68.17 54.51 71.01 56.28 73.43 57.31 74.8 57.9 76.29 58.41 77.8 58.38 79.32 58.35 80.34 57.55 81.21 56.39 81.66 56.96 82.32 57.39 83.13 57.79 84.04 58.24 84.94 58.25 85.87 57.88 86.98 57.43 88.11 57.05 89.19 56.53 89.22 56.51 89.23 56.49 89.23 56.47 90.15 56.01 91.02 55.39 91.64 54.63 92.18 53.96 92.54 53.11 92.9 52.34 92.91 52.31 92.93 52.29 92.94 52.26 92.33 53.03 91.48 54.32 90.7 54.93Z" fill="#B79F51"/><path d="M93.73 45.15C92.8 43.56 91.47 41.93 90.08 40.72 90.06 40.7 91.87 42.6 92.79 44.11 93.25 44.86 93.72 46.07 93.9 46.94 94.09 47.87 93.86 48.83 93.54 49.71 93.01 51.2 92.29 52.8 91.44 54.13 90.99 54.84 90.46 55.42 89.75 55.88 89.06 56.32 88.31 56.53 87.58 56.88 87.56 56.89 87.55 56.9 87.54 56.92 86.23 57.39 84.86 57.88 83.6 57.43 82.84 57.16 82.02 56.72 81.5 56.09 81.06 55.56 80.97 54.84 80.81 54.19 80.78 54.1 80.63 54.11 80.62 54.21 80.57 54.88 80.67 55.42 80.89 55.88 80.86 55.9 80.83 55.92 80.81 55.95 79.85 57.23 78.81 57.98 77.15 57.89 75.78 57.82 74.4 57.25 73.17 56.69 70.41 55.46 67.3 53.2 67.34 49.87 67.36 48.2 68.18 46.62 69.07 45.25 69.9 43.99 70.84 42.8 71.9 41.73 73.05 40.56 74.46 39.3 75.93 38.57 77.92 37.57 81.04 37.5 80.97 37.5 79.14 37.44 77.15 37.8 75.47 38.53 73.89 39.22 72.52 40.39 71.32 41.61 70.07 42.88 68.99 44.36 68.09 45.9 67.25 47.34 66.7 49 66.9 50.68 67.3 53.98 70.63 56.13 73.42 57.32 74.79 57.91 76.28 58.42 77.79 58.39 79.31 58.36 80.33 57.56 81.2 56.4 81.65 56.97 82.31 57.4 83.12 57.8 84.03 58.25 84.93 58.26 85.86 57.89 86.97 57.44 88.1 57.06 89.18 56.54 89.21 56.52 89.22 56.5 89.22 56.48 90.14 56.02 91.01 55.4 91.63 54.64 92.17 53.97 92.53 53.12 92.89 52.35 93.3 51.46 93.76 50.6 94.11 49.69 94.69 48.13 94.56 46.57 93.73 45.15Z" fill="#582E02" opacity="0.4"/><g><path d="M71.29 33.13C70.77 33.29 70.41 33.85 70.1 34.28 69.85 34.64 69.3 35.88 69.43 37.1 69.67 35.15 70.33 34.37 70.71 34.09 71.09 33.81 70.72 34.4 70.66 34.55 70.01 36.26 70.29 38.08 71.26 37.7 72.24 37.34 72.17 35.33 72.18 34.77 72.19 34.18 72.18 32.85 71.29 33.13Z" fill="#A14801" opacity="0.7"/><path d="M72.17 28.32C71.98 28.21 71.79 28.15 71.61 28.16 70.58 28.21 70.1 29.57 69.63 30.63 69.56 30.88 69.26 31.59 69.21 31.84 69.22 31.84 69.68 31.28 69.69 31.27 70.33 30.74 70.71 30.36 71.5 30.34 72.35 30.31 73.01 30.52 73.79 31.05 73.36 30.04 72.9 29.07 72.17 28.32Z" fill="#A14801" opacity="0.4"/><path d="M72.01 28.44C71.86 28.36 71.7 28.32 71.55 28.32 70.71 28.34 70.34 29.28 69.98 30.01 69.93 30.18 69.7 30.67 69.66 30.85 69.66 30.85 70.03 30.47 70.04 30.46 70.55 30.1 70.86 29.85 71.5 29.84 72.19 29.83 72.73 29.99 73.38 30.37 73.02 29.65 72.62 28.97 72.01 28.44Z" fill="#582E02"/><path d="M72.05 35.78C71.92 37.23 71.48 37.6 71.13 37.55 70.77 37.5 70.49 37.04 70.64 36.01 70.8 34.98 71.33 33.77 71.69 33.82 72.05 33.88 72.15 34.75 72.05 35.78Z" fill="#582E02"/><path d="M71.55 34.83C71.37 35.53 71.17 35.73 70.99 35.71 70.81 35.68 70.88 35.35 70.97 35.03 71.08 34.65 71.34 34.16 71.51 34.09 71.67 34.03 71.65 34.44 71.55 34.83Z" fill="#FFFFFF"/></g><g><path d="M88.93 32.44C89.46 32.53 89.89 33.03 90.26 33.42 90.56 33.74 91.27 34.9 91.3 36.12 90.8 34.22 90.05 33.53 89.63 33.31 89.22 33.09 89.66 33.61 89.74 33.76 90.61 35.37 90.58 37.2 89.56 36.96 88.54 36.73 88.35 34.73 88.26 34.18 88.17 33.59 88.01 32.28 88.93 32.44Z" fill="#A14801" opacity="0.7"/><path d="M88.01 27.27C88.2 27.17 88.39 27.11 88.57 27.12 89.6 27.18 90.07 28.54 90.53 29.6 90.59 29.85 90.89 30.56 90.95 30.82 90.94 30.82 90.49 30.25 90.48 30.25 89.85 29.71 89.46 29.34 88.68 29.31 87.84 29.28 87.17 29.48 86.38 30 86.79 28.97 87.27 28.01 88.01 27.27Z" fill="#A14801" opacity="0.4"/><path d="M88.16 27.38C88.31 27.3 88.47 27.26 88.62 27.26 89.46 27.28 89.82 28.22 90.18 28.96 90.23 29.13 90.46 29.62 90.5 29.8 90.49 29.8 90.13 29.41 90.12 29.41 89.61 29.05 89.31 28.79 88.67 28.78 87.98 28.77 87.44 28.93 86.79 29.3 87.14 28.59 87.54 27.91 88.16 27.38Z" fill="#582E02"/><path d="M88.53 35.16C88.86 36.58 89.34 36.89 89.68 36.79 90.03 36.69 90.25 36.2 89.96 35.2 89.67 34.2 88.97 33.07 88.63 33.17 88.28 33.27 88.29 34.15 88.53 35.16Z" fill="#582E02"/><path d="M88.48 34.03C88.48 34.75 88.62 35 88.8 35.02 88.98 35.04 89 34.7 88.99 34.37 88.98 33.98 88.85 33.43 88.7 33.33 88.56 33.23 88.48 33.64 88.48 34.03Z" fill="#FFFFFF"/></g><path d="M82.67 20.22C82.51 20.18 82.34 20.14 82.17 20.1 82.07 20 81.92 19.96 81.8 19.99 81.17 19.78 80.56 19.46 80.46 18.83 80.34 18.06 80.75 17.48 81.24 16.95 80.94 17.01 80.62 17.1 80.4 17.19 79.36 17.61 78.58 18.76 78.5 19.86 78.42 19.84 78.33 19.82 78.24 19.8 77.41 19.62 76.36 20.01 75.65 20.41 76.13 20.36 76.75 20.42 77.31 20.79 77.55 20.95 77.7 21.06 77.96 21.32 77.26 21.28 76.67 21.8 76.46 22.1 76.09 22.65 75.89 23.3 75.92 23.96 75.9 23.5 76.55 23.13 77.23 23.03 77.46 23.05 77.71 23.05 77.97 23.05 78.01 23.06 78.04 23.07 78.08 23.08 78.1 23.08 78.09 23.07 78.07 23.05 79.88 22.99 82.09 22.31 82.27 20.4 82.27 20.37 82.26 20.35 82.26 20.32 82.27 20.32 82.28 20.32 82.29 20.32 82.35 20.33 82.72 20.24 82.67 20.22Z" fill="#BA6700"/><path d="M82.67 20.22C82.51 20.18 82.34 20.14 82.17 20.1 82.07 20 81.92 19.96 81.8 19.99 81.17 19.78 80.56 19.46 80.46 18.83 80.37 18.26 80.58 17.79 80.89 17.37 79.98 18.07 79.2 19.14 79.59 20.27 79.65 20.43 79.44 20.52 79.32 20.42 78.66 19.84 77.72 19.78 76.78 19.93 76.56 20 76.34 20.08 76.13 20.17 77.33 20.21 78.57 20.86 79.33 21.71 79.45 21.84 79.3 22.06 79.14 21.96 78.43 21.51 77.67 21.49 76.91 21.66 76.71 21.81 76.55 21.97 76.46 22.1 76.09 22.65 75.89 23.3 75.92 23.96 75.92 23.84 75.96 23.72 76.04 23.61 75.99 23.57 75.96 23.49 76 23.41 76.39 22.66 77.2 22.34 78.01 22.22 78.83 22.1 79.42 22.44 80.09 22.69 81.22 22.31 82.15 21.6 82.26 20.39 82.26 20.36 82.25 20.34 82.25 20.31 82.26 20.31 82.27 20.31 82.28 20.31 82.35 20.33 82.72 20.24 82.67 20.22Z" fill="#EFAC6F" opacity="0.2"/><path d="M82.67 20.22C81.86 20.03 80.6 19.76 80.46 18.83 80.34 18.06 80.75 17.48 81.24 16.95 80.94 17.01 80.62 17.1 80.4 17.19 79.36 17.61 78.58 18.76 78.5 19.86 78.42 19.84 78.33 19.82 78.24 19.8 77.41 19.62 76.36 20.01 75.65 20.41 76.13 20.36 76.75 20.42 77.31 20.79 77.55 20.95 77.7 21.06 77.96 21.32 77.26 21.28 76.67 21.8 76.46 22.1 76.09 22.65 75.89 23.3 75.92 23.96 75.9 23.31 77.23 22.81 78.08 23.07 78.13 23.09 77.97 22.95 77.91 22.91 77.53 22.65 76.9 22.66 76.46 22.91 76.57 22.58 76.83 22.19 77.11 21.98 77.47 21.71 78.04 21.5 78.54 21.66 78.26 21.04 77.06 20.19 76.82 20.18 77.08 20.14 77.46 20 77.75 20.01 78.6 20.05 79.71 20.65 80.24 21.17 80.29 21.22 80.14 20.96 80.11 20.9 79.84 20.42 79.4 20.15 78.9 19.98 78.9 19.97 78.9 19.97 78.9 19.97 78.78 18.8 79.94 17.61 80.59 17.38 80.23 17.76 80.05 18.28 80.06 18.86 80.07 19.26 80.28 19.64 80.56 19.91 81 20.33 81.74 20.28 82.29 20.32 82.35 20.33 82.72 20.24 82.67 20.22Z" fill="#A14801" opacity="0.4"/><path d="M88.42 47.97C88.11 46.65 86.72 45.42 84.96 44.64 83.51 44 81.92 43.73 80.34 43.79 78.15 43.87 75.85 44.71 74.22 46.22 73.03 47.19 72.03 48.55 72.69 49.85 73 50.99 74.19 51.89 75.14 52.47 76.73 53.45 78.59 54.52 80.46 54.56 82.74 54.6 85.04 53.31 86.66 51.79 88.03 50.48 88.7 49.19 88.42 47.97Z" fill="#582E02"/><path d="M88.42 47.97C88.38 47.83 88.34 47.68 88.28 47.54 88.1 48.34 87.76 49.13 86.91 48.59 86.31 48.21 85.96 47.8 85.17 47.91 84.56 47.99 84.01 48.19 83.48 48.5 82.71 48.95 81.97 49.46 81.07 49.61 80.03 49.79 78.99 49.24 78.1 48.76 77.55 48.46 76.96 48.08 76.34 47.94 75.46 47.75 75.15 48.09 74.59 48.7 74.27 49.04 73.31 49.47 72.89 49.07 72.6 48.8 72.61 48.41 72.69 48.04 72.42 48.63 72.36 49.25 72.67 49.85 72.98 50.99 74.17 51.89 75.12 52.47 76.71 53.45 78.57 54.52 80.44 54.56 82.72 54.6 85.02 53.31 86.64 51.79 88.03 50.48 88.7 49.19 88.42 47.97Z" fill="#692E02" opacity="0.4"/><path d="M88.42 47.97C88.11 46.65 86.72 45.42 84.96 44.64 83.51 44 81.92 43.73 80.34 43.79 78.15 43.87 75.85 44.71 74.22 46.22 73.03 47.19 72.03 48.55 72.69 49.85 73 50.99 74.19 51.89 75.14 52.47 76.73 53.45 78.59 54.52 80.46 54.56 82.74 54.6 85.04 53.31 86.66 51.79 88.03 50.48 88.7 49.19 88.42 47.97ZM87.81 49.53C87.44 50.47 86.32 51.38 85.56 52.01 84.02 53.29 82.15 54.01 80.14 53.79 78.62 53.62 77.01 52.92 75.66 52.23 74.64 51.7 73.49 50.89 73.04 49.79 72.18 47.68 74.94 46.04 76.5 45.33 78.51 44.42 82.11 44.66 84.2 45.31 84.45 45.39 83.96 44.99 83.15 44.62 82.94 44.53 82.72 44.48 82.51 44.41 84.09 44.68 85.69 45.29 86.78 46.33 86.65 46.37 86.28 46.05 86.37 46.18 87.02 47.05 88.53 47.7 87.81 49.53Z" fill="#692E02" opacity="0.4"/><path d="M86.44 49.21C86.52 49.15 86.56 49.05 86.51 48.92 85.57 46.53 82.37 49.13 82.12 50.75 82.08 50.81 82.11 50.88 82.17 50.89 82.22 50.92 82.29 50.92 82.33 50.85 82.33 50.85 82.34 50.84 82.34 50.84 83.67 50.28 84.72 49.62 86.24 49.59 86.4 49.59 86.53 49.39 86.47 49.24 86.45 49.23 86.45 49.23 86.44 49.21Z" fill="#692E02"/><path d="M79.52 51.01C79.04 49.72 77.83 48.98 76.67 48.36 76.35 48.19 75.25 47.82 75.24 48.36 75.18 48.4 75.14 48.47 75.13 48.56 75.12 49.17 75.05 50.09 75.85 50.22 76.81 50.38 78.22 50.18 79.06 50.83 79.14 50.93 79.22 51.02 79.29 51.13 79.38 51.24 79.57 51.14 79.52 51.01Z" fill="#692E02"/><path d="M81.9 45.3C81.45 44.85 80.68 44.96 80 45.01 78.57 45.12 76.35 45.2 75.65 46.44 75.48 46.73 78.12 46.29 78.18 46.28 79.31 46.16 80.47 46.25 81.6 46.32 82.35 46.36 82.23 45.69 81.94 45.36 81.93 45.33 81.91 45.32 81.9 45.3Z" fill="#FFFFFF"/><path d="M84.36 45.47C84.11 45.24 83.72 45.13 83.37 45.12 83.17 45.12 82.93 45.17 82.81 45.32 82.73 45.41 82.7 45.5 82.69 45.59 82.61 45.75 82.65 45.95 82.79 46.08 83.16 46.45 83.82 46.65 84.34 46.42 84.54 46.33 84.62 46.13 84.63 45.94 84.64 45.74 84.5 45.59 84.36 45.47Z" fill="#FFFFFF"/><path d="M63.08 38.5C61.79 38.27 60.86 38.03 59.57 38.46 58.39 38.85 57.77 39.92 57.05 40.85 57 40.92 57.09 41.03 57.16 40.97 58.78 39.68 60.92 38.53 63.07 38.63 63.15 38.63 63.15 38.51 63.08 38.5Z" fill="#E29D55"/><path d="M65.89 39.28C64.19 38.62 63.27 38.52 61.9 39.44 61.84 39.48 61.42 39.94 61.48 39.91 63.02 39.07 64.79 39 66.26 39.52 66.34 39.54 65.97 39.31 65.89 39.28Z" fill="#E29D55"/><path d="M98.65 35.63C99.94 35.39 100.87 35.16 102.16 35.58 103.34 35.96 103.96 37.04 104.68 37.98 104.73 38.05 104.64 38.16 104.57 38.1 102.95 36.81 100.81 35.66 98.66 35.76 98.58 35.76 98.58 35.64 98.65 35.63Z" fill="#E29D55"/><path d="M95.84 36.41C97.54 35.75 98.46 35.65 99.83 36.57 99.89 36.61 100.31 37.07 100.25 37.03 98.72 36.19 96.94 36.12 95.47 36.64 95.39 36.68 95.76 36.44 95.84 36.41Z" fill="#E29D55"/><path d="M81.18 20.35C80.74 20.11 80.03 19.65 79.97 19.13 79.91 18.7 80.06 18.09 80.22 17.71 80.22 17.71 80.22 17.71 80.22 17.71 79.72 18.18 79.44 18.61 79.54 19.32 79.63 19.99 80.06 20.25 80.67 20.3 80.77 20.31 81.27 20.39 81.18 20.35Z" fill="#E29D55"/><path d="M78.75 20.53C78.88 20.59 78.98 20.65 79.08 20.72 78.95 20.56 78.78 20.43 78.57 20.31 78.05 20.02 77.58 20.05 77.02 20.16 77.01 20.16 77.01 20.17 77.01 20.17 77.61 20.15 78.2 20.28 78.75 20.53Z" fill="#E29D55"/><path d="M78.71 21.94C78.49 21.83 78.24 21.76 77.99 21.75 77.41 21.73 77.04 22.18 76.73 22.6 77.29 22.11 78 21.89 78.71 21.94Z" fill="#E29D55"/></g><g opacity="0.4"><path d="M54.71 45.5C54.73 45.51 54.75 45.54 54.71 45.5L54.71 45.5Z" fill="#692E02"/><path d="M110.13 41.61C110.08 38.81 107.67 36.36 105.21 35.3 104.88 35.16 104.55 35.06 104.21 34.95 104.02 34.89 103.82 34.31 103.72 34.15 103.37 33.52 103 32.91 102.61 32.3 101.89 31.16 101.07 30.1 100.24 29.05 102.7 29.29 105.64 28.17 106.16 25.47 106.56 23.32 105.82 21.08 104.53 19.35 103.04 17.37 100.03 15.14 97.44 16.34 94.91 17.52 94.64 21.19 94.62 23.59 92.44 22.12 90.03 20.84 87.45 20.25 85.9 19.89 84.39 19.76 82.8 19.75 82.02 19.74 80.84 19.66 80.69 18.67 80.57 17.84 81.32 17.16 81.81 16.59 80.2 17.04 78.54 17.74 78.35 19.67 77.12 19.43 76.02 20.04 74.98 20.59 75.41 20.56 75.86 20.5 76.29 20.56 73.34 21.22 70.78 22.79 68.44 24.65 68.45 22.1 68.26 18.16 65.47 17.01 62.74 16.06 59.8 18.45 58.38 20.58 57.4 22.05 56.8 23.91 57 25.7 57.56 28.86 60.54 30.11 63.52 29.73 62.99 30.52 62.47 31.31 62.01 32.14 61.1 33.78 60.53 35.95 59.16 37.27 58.37 38.03 57.35 38.5 56.54 39.25 55.8 39.94 55.19 40.75 54.76 41.66 54.26 42.72 54.23 43.84 54.44 44.97 54.52 45.21 54.57 45.63 54.91 45.47 54.96 47.9 56.89 49.73 58.72 51.05 60.96 52.64 63.5 53.74 66.02 54.79 67.09 55.23 68.15 55.68 69.21 56.13 70.72 56.76 72.4 57.21 73.78 58.09 74.3 58.42 74.72 58.9 75.24 59.23 76 59.77 76.83 60.15 77.69 60.48 79.47 61.11 81.45 61.3 83.31 61.01 85.14 60.72 86.84 60.04 88.35 58.99 89.86 57.94 91.07 56.53 92.68 55.61 95.76 53.83 99.06 52.58 102.22 50.95 105.19 49.41 109.07 47.04 109.21 43.28 109.32 43.58 109.21 44.02 109.41 44.16 109.41 43.7 109.94 43.09 110.06 42.63 110.15 42.29 110.15 41.94 110.13 41.61ZM109.21 38.76 109.21 38.76C109.21 38.76 109.21 38.76 109.21 38.76ZM110.02 42.27C110 42.8 109.68 43.32 109.45 43.78 109.43 43.37 109.24 42.98 109.09 42.6 109.25 47.89 102.88 50.44 98.83 52.13 96.5 53.11 94.12 54.06 91.98 55.42 90.51 56.43 89.25 57.73 87.75 58.69 84.66 60.66 80.57 61.08 77.2 59.57 75.85 58.97 74.89 57.86 73.59 57.2 72.18 56.48 70.64 55.99 69.18 55.38 66.34 54.18 63.41 53.08 60.73 51.54 58.96 50.53 57.05 49.24 56.07 47.4 55.59 46.5 55.41 45.49 55.63 44.49 55.73 44.05 55.61 43.71 55.97 43.16 56.23 42.76 55.13 43.86 54.94 44.25 54.68 42.01 56.19 40.12 57.89 38.86 58.45 38.45 59.07 38.12 59.56 37.62 60.32 36.85 60.76 35.85 61.18 34.87 62.06 32.83 63.21 30.99 64.42 29.14 62.08 29.6 59.02 29.49 57.77 27.07 56.88 25.35 57.33 23.12 58.18 21.49 59.41 19.11 62.49 16.21 65.41 17.21 68.25 18.38 68.28 22.53 68.24 25.09 69.55 24.05 70.91 22.99 72.43 22.26 74.06 21.47 75.66 20.97 77.43 20.6 77.05 20.48 76.67 20.33 76.27 20.27 77.06 19.93 77.8 19.9 78.63 20.06 78.85 18.78 79.46 17.79 80.7 17.31 79.98 18.36 80.23 19.63 81.51 20.05 82.22 20.28 83.05 20.21 83.79 20.23 85.41 20.25 87 20.64 88.54 21.11 90.98 21.86 93.1 23.21 95.18 24.64 95.18 22.18 95.21 19.57 96.76 17.52 98.59 15.15 102.13 17.37 103.63 18.96 105.21 20.64 106.25 23.04 105.85 25.37 105.37 28.18 102.28 29.09 99.82 28.81 100.67 29.85 101.56 30.88 102.29 32.02 102.67 32.6 103.05 33.18 103.39 33.78 103.61 34.16 103.83 34.55 104.04 34.93 104.16 35.14 104.58 35.17 104.8 35.24 107.7 36.14 110.21 39.18 110.02 42.27 110.02 42.38 110.03 42.16 110.02 42.27Z" fill="#692E02"/></g><path d="M5.3 31.23C5.34 31.13 5.21 31.07 5.15 31.16 2.1 36.12-0.46 43.16 1.27 49 1.29 49.08 1.41 49.04 1.39 48.96 0.63 46.13 1.5 42.84 2.27 40.08 3.1 37.07 4.36 34.2 5.3 31.23Z" fill="#E29D55"/><path d="M21.9 8.99C19.46 11.63 17.27 14.53 14.9 17.24 12.62 19.84 10.18 22.4 8.39 25.38 8.37 25.41 8.42 25.44 8.44 25.41 12.91 19.89 18.42 15.27 22.05 9.09 22.11 8.99 21.97 8.92 21.9 8.99Z" fill="#E29D55"/><path d="M38.56 1.2C34.48-0.69 29.84 2.52 26.66 4.8 26.64 4.82 26.66 4.86 26.68 4.84 30.54 2.87 34.04 0.76 38.54 1.26 38.58 1.27 38.6 1.22 38.56 1.2Z" fill="#E29D55"/><path d="M89.86 12.9C86.03 8.48 81.09 5.27 75.58 3.39 70.17 1.54 64.9 1.64 59.48 3.37 59.37 3.41 59.43 3.58 59.54 3.54 70.52 0.45 81.55 6.12 89.75 13 89.82 13.06 89.92 12.97 89.86 12.9Z" fill="#E29D55"/><path d="M107.68 51.12C107.68 51.08 107.62 51.09 107.62 51.13 107.29 58.9 103.07 66.49 99.06 72.93 99.02 73 99.13 73.07 99.18 73.01 101.7 69.84 103.69 66.22 105.34 62.53 106.98 58.85 107.85 55.15 107.68 51.12Z" fill="#E29D55"/><path d="M37.93 32.61C36.1 35.07 34.48 37.76 33.76 40.77 32.88 44.45 33.06 48.55 34.33 52.13 34.35 52.19 34.45 52.17 34.44 52.1 33.99 48.55 33.9 45.08 34.47 41.53 35 38.22 36.35 35.52 38.08 32.7 38.12 32.62 37.98 32.53 37.93 32.61Z" fill="#E29D55"/><path d="M34.38 52.63C34.36 52.63 34.37 52.66 34.38 52.66 34.39 52.65 34.39 52.63 34.38 52.63Z" fill="#E29D55"/><path d="M17.9 27.09C15.88 31.84 14.63 36.78 16.88 41.72 16.92 41.81 17.05 41.76 17.02 41.67 15.85 36.86 16.75 31.85 18.13 27.16 18.17 27.02 17.95 26.96 17.9 27.09Z" fill="#E29D55"/></g></svg>