<svg width="68.4" height="68.4" viewBox="0 0 68.4 68.4" xmlns="http://www.w3.org/2000/svg" xmlns:xlink="http://www.w3.org/1999/xlink" xml:space="preserve" overflow="hidden"><defs></defs><g><linearGradient x1="0" y1="34.1992" x2="68.3984" y2="34.1992" gradientUnits="userSpaceOnUse" id="SVGID_1_"><stop offset="0" stop-color="#0071BC"/><stop offset="0.4802" stop-color="#009FE2"/><stop offset="1" stop-color="#00BBFF"/></linearGradient><circle cx="34.2" cy="34.2" r="34.2" fill="url(#SVGID_1_)"/><g><path d="M27.82 21.5C37.63 21.5 45.59 27.56 45.59 35.04 45.59 42.52 37.63 48.58 27.82 48.58 26.09 48.58 24.42 48.39 22.83 48.04 20.74 51.83 16.95 52.67 13.56 51.82 15.61 50.06 17.37 48.4 18.69 46.66 13.51 44.3 10.05 39.98 10.05 35.05 10.05 27.56 18 21.5 27.82 21.5Z" fill="#FFFFFF"/><path d="M40.66 13.97C34.57 13.97 29.2 16.31 26 19.86 33.95 17.73 53.34 26.27 46.02 40.54 48.11 44.33 51.53 45.14 54.92 44.28 52.88 42.53 51.11 40.86 49.79 39.12 54.96 36.75 58.43 32.44 58.43 27.5 58.42 20.03 50.47 13.97 40.66 13.97Z" fill="#FFFFFF"/></g></g></svg>