<svg width="113.89" height="100" viewBox="0 0 113.89 100" xmlns="http://www.w3.org/2000/svg" xmlns:xlink="http://www.w3.org/1999/xlink" xml:space="preserve" overflow="hidden"><defs></defs><g><g><g><path d="M65.95 82.75C65.95 83.92 66.05 85.61 65.72 86.65 65.65 86.87 65.59 87.16 65.54 87.46 64.32 89.73 62.85 91.85 61.63 94.13 60.59 96.06 59.66 98.04 58.69 100 58.52 100.03 58.39 99.83 58.39 99.68 58.43 96.48 59.86 92.78 61.2 89.91 61.78 88.64 61.97 87.52 62.16 86.16 62.18 85.99 62.31 85.81 62.43 85.69 63.21 84.97 62.97 83.9 62.86 82.97 62.63 80.85 62.44 78.8 61.91 76.73 61.64 75.69 62.06 74.64 62.57 73.77 63.16 72.73 64.51 72.15 65.33 72.96 66.2 73.46 66.25 74.49 66.1 75.81 65.84 78.08 65.93 80.46 65.95 82.75Z" fill="#351F02"/><path d="M70.06 72.6C70.12 72.89 70.19 73.14 70.26 73.32 70.28 73.36 70.32 73.4 70.36 73.43 71.48 76.16 73.96 79.15 74.62 80.55 75.56 82.54 74.74 83.85 73.66 85.79 72.66 87.58 71.01 90.27 70.89 92.36 70.88 92.49 71.08 92.75 71.22 92.6 72.67 91.04 73.6 88.98 75.11 87.41 76.2 86.26 78.02 85.27 78.56 83.75 78.82 83.01 78.28 82.05 77.9 81.48 76.71 79.68 76.25 77.71 75.31 75.81 74.25 73.67 74.11 71.43 73.36 69.22 73.16 68.63 72.6 67.91 71.95 67.77 70.26 67.43 69.82 69.01 69.85 70.63 69.75 71.24 69.85 71.91 70.06 72.6Z" fill="#351F02"/><path d="M74.11 56.35C74.69 54.77 76.09 54.56 77.12 55.17 77.52 55.34 77.87 55.67 78.08 56.11 78.84 57.73 79.28 59.39 79.67 61.13 80.06 62.86 80.69 64.23 81.64 65.72 82.14 66.51 83.04 67.05 83.51 67.82 83.74 68.18 85.34 68.63 85.58 69.18 86.42 71.08 86.93 71.44 88.56 72.62 91.54 74.79 93.53 77.29 94.45 80.91 94.47 80.99 94.45 81.04 94.41 81.08 92.85 78.84 91.02 77.03 88.92 75.58 87.84 74.62 86.67 73.78 85.38 73.18 84.89 72.95 83.59 72.6 83.34 71.94 83.32 71.89 80.71 71.16 80.39 70.77 80.15 70.47 80.1 69.84 80.01 69.42 79.94 69.12 78.63 68.54 78.43 68.34 75.38 65.25 72.47 60.84 74.11 56.35Z" fill="#351F02"/><path d="M65.95 82.75C65.95 83.78 66.03 85.23 65.82 86.26 64.52 86.94 63.19 87.54 61.83 88.08 61.98 87.47 62.07 86.84 62.17 86.16 62.19 85.99 62.32 85.81 62.44 85.69 63.22 84.97 62.98 83.9 62.87 82.97 62.64 80.85 62.45 78.8 61.92 76.73 61.65 75.69 62.07 74.64 62.58 73.77 63.17 72.73 64.52 72.15 65.34 72.96 66.21 73.46 66.26 74.49 66.11 75.81 65.84 78.08 65.93 80.46 65.95 82.75Z" fill="#351F02"/><path d="M74.46 80.25C73.63 78.75 71.4 75.99 70.36 73.43 70.32 73.4 70.28 73.36 70.26 73.32 70.2 73.14 70.12 72.88 70.06 72.6 69.85 71.91 69.75 71.24 69.82 70.64 69.79 69.02 70.23 67.44 71.92 67.78 72.57 67.91 73.14 68.63 73.33 69.23 74.07 71.44 74.21 73.68 75.28 75.82 75.69 76.65 76.02 77.51 76.35 78.35 75.75 79 75.12 79.65 74.46 80.25Z" fill="#351F02"/><path d="M81.3 71.24C80.86 71.07 80.49 70.9 80.38 70.77 80.14 70.47 80.09 69.84 80 69.42 79.93 69.12 78.62 68.54 78.42 68.34 75.37 65.26 72.46 60.84 74.1 56.35 74.68 54.77 76.08 54.56 77.11 55.17 77.51 55.34 77.86 55.67 78.07 56.11 78.83 57.73 79.27 59.39 79.66 61.13 80.05 62.86 80.68 64.23 81.63 65.72 82.03 66.35 82.68 66.83 83.17 67.39 82.6 68.7 81.99 69.99 81.3 71.24Z" fill="#351F02"/><path d="M86.62 71.72C88.09 72.84 89.63 73.71 90.96 75.02 92.04 76.09 92.92 77.71 93.4 79.15 93.42 79.2 93.35 79.19 93.34 79.16 91.93 75.93 89.16 74.01 86.58 71.81 86.53 71.76 86.55 71.67 86.62 71.72Z" fill="#7E6153"/><path d="M75.94 85.75C77.03 84.5 78.26 83.66 77.43 81.74 77.41 81.7 77.46 81.7 77.48 81.73 79.23 84.76 75.3 86.39 73.75 88.38 73.74 88.4 73.7 88.36 73.71 88.34 74.36 87.33 75.15 86.65 75.94 85.75Z" fill="#7E6153"/><path d="M65.54 84.31C65.55 84.27 65.61 84.31 65.6 84.34 64.95 89.5 61.45 93.37 59.31 98 59.28 98.06 59.2 97.98 59.22 97.94 60.93 93.12 64.48 89.38 65.54 84.31Z" fill="#7E6153"/></g><g><path d="M32.07 91.34C32.09 91.24 32.11 91.13 32.12 91.02 32.41 88.96 32.72 86.85 33.25 84.84 33.98 82.1 35.04 79.63 36.48 77.31 37.31 76.14 38.27 75.08 39.4 74.14 40.08 74.18 40.73 74.7 41.23 75.7 41.68 76.61 42.32 78.04 42.1 79.09 42.08 79.2 42.06 79.3 42.02 79.4 37.22 84.02 34.32 89.93 31.82 96.06 31.86 94.51 31.93 92.93 32.07 91.34Z" fill="#929191"/><path d="M38 82.74C38 82.74 33.36 89.17 32.32 93.73 32.32 93.73 32.5 87.73 38 82.74Z" fill="#FFFFFF"/><path d="M42.03 79.4C40.02 81.34 38.34 83.49 36.89 85.8 36.87 85.76 36.84 85.72 36.81 85.67 35.95 84.19 35.18 82.65 34.56 81.04 35.1 79.74 35.74 78.5 36.49 77.31 37.32 76.14 38.28 75.08 39.41 74.14 40.09 74.18 40.74 74.7 41.24 75.7 41.69 76.61 42.33 78.04 42.11 79.09 42.09 79.2 42.06 79.29 42.03 79.4Z" fill="#929191"/></g><path d="M37.89 82.07C39.52 84.52 41.8 84.82 44.44 85.59 46.12 86.08 47.82 86.44 49.55 86.62 56.64 87.35 63.86 84.91 69.47 80.62 75.73 75.83 79.74 68.62 82.28 61.29 83.05 59.1 83.67 56.86 84.33 54.64 84.63 53.65 84.99 52.5 85.46 51.42 85.49 51.41 85.52 51.4 85.55 51.38 86.94 50.23 88.07 48.2 87.71 46.34 87.33 44.38 85.21 43.09 83.56 42.34 81.27 41.3 78.9 40.46 76.36 40.3 70.3 39.91 64.09 40.09 58.12 41.29 55.92 41.72 53.64 42.44 51.63 43.44 49.09 44.69 46.55 46.65 44.46 48.54 39.7 52.85 36.49 58.92 35.37 65.31 34.4 70.76 34.72 77.33 37.89 82.07Z" fill="#452F27"/><g><path d="M79.42 60.18C76.4 59.15 73.54 57.41 71.34 55.07 67.7 51.19 65.13 45.49 66.21 40.26 67.78 40.16 69.35 40.12 70.92 40.12 71.04 44.66 73.62 49.43 76.58 52.46 78.59 54.52 81.09 55.77 83.72 56.76 83.3 58.19 82.88 59.61 82.38 61.02 81.31 60.8 80.28 60.48 79.42 60.18Z" fill="#F5C464"/><path d="M74.15 73.82C69.05 72.19 64.54 68.66 61.45 64.31 58.53 60.19 56.74 55.19 56.04 50.2 55.64 47.33 55.62 44.36 56.46 41.66 57.01 41.52 57.57 41.39 58.12 41.28 59.24 41.05 60.37 40.87 61.51 40.72 59.99 47.35 62.7 54.75 67.22 59.78 70.01 62.89 73.4 65.56 77.49 66.62 78.17 66.79 78.99 67 79.87 67.18 78.68 69.66 77.28 72.04 75.65 74.24 74.97 74.07 74.42 73.91 74.15 73.82Z" fill="#FDC531"/><path d="M63.96 83.98C61.68 83.66 59.37 83.2 57.38 82.01 53.07 79.43 49.83 74.98 47.66 70.53 45.4 65.87 43.97 60.68 43.86 55.48 43.82 53.45 43.91 50.92 44.45 48.54 44.46 48.54 44.46 48.53 44.47 48.53 46.24 46.93 48.33 45.29 50.46 44.06 49.79 46.21 49.48 48.5 49.41 50.7 49.26 55.77 50.04 61.13 52.37 65.68 55.03 70.87 59.33 75.49 64.59 78.11 66.33 78.98 68.15 79.66 70.03 80.15 69.85 80.29 69.67 80.46 69.49 80.6 67.77 81.92 65.9 83.05 63.96 83.98Z" fill="#FDC531"/><path d="M43.69 85.37C43.23 84.92 42.82 84.49 42.47 84.14 40.32 82.02 38.69 79.68 37.58 76.86 36.23 73.43 35.4 70.01 35.18 66.53 35.24 66.11 35.3 65.7 35.37 65.3 35.83 62.64 36.66 60.04 37.82 57.59 37.78 58.67 37.8 59.75 37.88 60.83 38.22 65.37 39.37 69.87 41.42 73.95 44.04 79.16 47.88 83.44 52.53 86.71 51.54 86.73 50.55 86.7 49.56 86.59 47.83 86.41 46.12 86.05 44.45 85.56 44.19 85.51 43.94 85.44 43.69 85.37Z" fill="#FDC531"/></g><path d="M35.37 65.31C35.46 64.81 35.56 64.31 35.68 63.81 35.4 67.42 36.13 71 38.78 73.73 43.5 78.61 50.34 77.84 55.95 75.02 59.35 73.32 62.53 71.07 65.09 68.22 66.88 66.22 69.82 62.92 69.59 59.99 69.23 55.27 64.6 57.58 61.99 59.26 62.55 57.26 63.72 55.49 64.69 53.67 64.81 53.45 64.41 53.22 64.24 53.29 62.55 53.89 61.03 54.79 59.49 55.67 59.84 52.9 61.65 50.51 63.02 48.14 63.15 47.91 62.86 47.68 62.64 47.69 60.02 47.83 57.5 48.56 55.38 50.1 55.96 47.76 57.13 45.7 58.77 43.9 58.94 43.71 58.58 43.41 58.4 43.45 57.54 43.62 56.77 43.94 56.04 44.36 56.84 43.24 57.71 42.2 58.63 41.18 64.44 40.08 70.47 39.9 76.35 40.28 78.9 40.44 81.26 41.28 83.55 42.32 85.2 43.07 87.32 44.36 87.7 46.32 88.06 48.18 86.93 50.21 85.54 51.36 85.51 51.38 85.48 51.39 85.45 51.4 84.98 52.48 84.61 53.63 84.32 54.62 83.66 56.84 83.04 59.08 82.27 61.27 79.73 68.6 75.72 75.81 69.46 80.6 63.85 84.89 56.63 87.32 49.54 86.6 47.81 86.42 46.1 86.06 44.43 85.57 41.79 84.8 39.52 84.5 37.88 82.05 34.72 77.33 34.4 70.76 35.37 65.31Z" fill="#C9C9C9"/><path d="M44.65 81.14C52.34 82.28 59.78 78.87 65.43 73.8 71.49 68.36 75.78 60.58 75.68 52.26 75.64 48.37 74.97 43.59 72.65 40.14 73.89 40.17 75.12 40.22 76.35 40.3 78.9 40.46 81.26 41.3 83.55 42.34 85.2 43.09 87.32 44.38 87.7 46.34 88.06 48.2 86.93 50.23 85.54 51.38 85.51 51.4 85.48 51.41 85.45 51.42 84.98 52.5 84.61 53.65 84.32 54.64 83.66 56.86 83.04 59.1 82.27 61.29 79.73 68.62 75.72 75.83 69.46 80.62 63.85 84.91 56.63 87.34 49.54 86.62 47.81 86.44 46.1 86.08 44.43 85.59 41.79 84.82 39.52 84.52 37.88 82.07 36.92 80.64 36.23 79.05 35.75 77.37 38.34 79.32 41.39 80.65 44.65 81.14Z" fill="#C9C9C9"/><path d="M53.68 43.5C53.68 43.5 39.58 49.7 36.79 64.12 36.79 64.12 35.86 69.39 39.42 72.65 39.42 72.65 36.17 67.53 39.27 60.25 42.37 52.96 53.68 43.5 53.68 43.5Z" fill="#F5C464"/><g><path d="M66.3 55.71C67.5 54.77 68.67 55.28 69.18 56.24 69.41 56.56 69.52 56.99 69.47 57.43 69.28 59.04 68.82 60.51 68.29 62.03 67.76 63.54 67.59 64.9 67.6 66.5 67.6 67.35 68.03 68.2 68.03 69.01 68.04 69.39 69.05 70.5 68.97 71.04 68.7 72.9 68.92 73.42 69.6 75.1 70.85 78.19 71.19 81.06 70.16 84.28 70.14 84.35 70.1 84.38 70.04 84.4 69.92 81.93 69.38 79.67 68.46 77.56 68.1 76.3 67.6 75.1 66.89 74.01 66.63 73.61 65.8 72.72 65.92 72.09 65.93 72.04 64.28 70.23 64.22 69.78 64.18 69.43 64.45 68.93 64.57 68.56 64.66 68.29 63.94 67.22 63.88 66.98 63.02 63.16 62.9 58.37 66.3 55.71Z" fill="#533409"/><path d="M68.41 71.44C68.46 71.02 68.4 70.6 68.13 70.27 67.93 70.01 67.69 69.81 67.42 69.61 66.93 69.24 66.76 68.8 66.67 68.27 66.65 68.02 66.65 67.79 66.65 67.62 66.67 64.27 68.15 61.38 68.43 58.12 68.43 58.08 68.49 58.11 68.49 58.14 68.35 61.42 66.95 64.4 66.96 67.72 66.98 69.34 69.07 70 68.41 71.44Z" fill="#7E6153"/><path d="M68.54 72.96C69.24 75.9 70.72 78.28 70.28 81.41 70.27 81.49 70.16 81.42 70.15 81.37 70.04 79.83 69.98 78.41 69.54 76.9 69.17 75.63 68.61 74.28 68.49 72.96 68.5 72.92 68.53 72.94 68.54 72.96Z" fill="#7E6153"/></g><g><path d="M51.69 81.92C51.69 83.08 51.78 84.79 51.45 85.82 51.38 86.04 51.32 86.32 51.27 86.62 50.05 88.88 48.58 91.01 47.35 93.29 46.32 95.21 45.38 97.2 44.42 99.16 44.26 99.18 44.12 98.99 44.12 98.84 44.16 95.64 45.59 91.95 46.92 89.06 47.51 87.8 47.7 86.67 47.89 85.31 47.92 85.14 48.04 84.96 48.16 84.85 48.95 84.13 48.7 83.06 48.6 82.12 48.37 80 48.18 77.95 47.64 75.88 47.37 74.85 47.8 73.8 48.3 72.92 48.89 71.88 50.24 71.3 51.06 72.11 51.93 72.61 51.98 73.64 51.83 74.95 51.58 77.25 51.68 79.62 51.69 81.92Z" fill="#533409"/><path d="M50.58 86.58C51.61 84.89 50.85 81.85 50.86 79.97 50.87 78.07 50.97 76.15 51.04 74.24 51.04 74.21 51.08 74.24 51.08 74.25 51.15 76.19 51.11 78.12 51.15 80.06 51.19 82.05 51.63 84.08 51.24 86.05 50.99 87.32 49.75 88.57 49.15 89.71 48.06 91.75 46.91 93.84 45.65 95.78 45.59 95.84 48.77 89.54 50.58 86.58Z" fill="#7E6153"/></g><g><path d="M55.79 71.77C55.86 72.06 55.93 72.31 55.99 72.49 56.01 72.53 56.04 72.57 56.09 72.6 57.21 75.34 59.69 78.32 60.35 79.72 61.28 81.71 60.47 83.02 59.38 84.96 58.38 86.74 56.73 89.44 56.6 91.54 56.59 91.67 56.8 91.92 56.93 91.78 58.39 90.22 59.31 88.17 60.81 86.6 61.91 85.45 63.73 84.46 64.26 82.94 64.52 82.2 63.98 81.23 63.6 80.66 62.41 78.87 61.95 76.9 61 74.99 59.95 72.85 59.79 70.62 59.05 68.4 58.85 67.81 58.29 67.09 57.64 66.95 55.94 66.61 55.51 68.2 55.54 69.81 55.49 70.42 55.58 71.08 55.79 71.77Z" fill="#533409"/><path d="M58.18 68.2C58.17 68.2 58.19 68.19 58.18 68.2 59.03 69.54 59.32 70.97 59.75 72.48 60.44 74.87 61.55 77.24 62.66 79.46 63.56 81.27 65.18 82.87 62.74 84.16 62.65 84.2 62.53 84.04 62.6 83.98 64.66 82.06 62.09 79.06 61.19 77.09 59.93 74.3 59.62 70.86 58.18 68.2Z" fill="#7E6153"/></g><path d="M51.98 54.19C50.52 55.84 50.19 57.94 51.25 58.89 52.31 59.84 54.37 59.27 55.84 57.62 57.31 55.98 57.64 53.87 56.57 52.92 55.51 51.98 53.45 52.54 51.98 54.19Z" fill="#A7A8A8"/><path d="M59.12 43.4C56.92 43.45 55.16 44.65 55.19 46.08 55.23 47.5 57.04 48.62 59.25 48.57 61.46 48.52 63.21 47.32 63.18 45.89 63.14 44.46 61.33 43.35 59.12 43.4Z" fill="#A7A8A8"/><g><path d="M47.06 11.74C45.62 17.28 46.75 23.1 48.08 28.54 49.45 34.14 52.35 39.98 56.09 44.54 56.97 45.61 57.83 46.71 59.08 46.67 60.66 46.83 62.21 45.23 63.22 44.08 64.04 43.14 64.72 42.13 65.35 41.08 67.01 38.62 68.36 35.85 69.56 33.37 71.91 28.53 73.37 22.69 73.59 17.31 73.77 12.76 72.86 6.44 69.16 3.3 65.42 0.12 60.81-0.9 56.17 0.87 51.51 2.64 48.29 6.98 47.06 11.74Z" fill="#FFFFFF" opacity="0.5"/><path d="M47.06 11.74C45.62 17.28 46.75 23.1 48.08 28.54 49.45 34.14 52.35 39.98 56.09 44.54 56.97 45.61 57.83 46.71 59.08 46.67 60.66 46.83 62.21 45.23 63.22 44.08 64.04 43.14 64.72 42.13 65.35 41.08 67.01 38.62 68.36 35.85 69.56 33.37 71.91 28.53 73.37 22.69 73.59 17.31 73.77 12.76 72.86 6.44 69.16 3.3 65.42 0.12 60.81-0.9 56.17 0.87 51.51 2.64 48.29 6.98 47.06 11.74ZM59.63 0.81C58.94 3.56 58.54 6.37 58.07 9.17 57.38 7.9 56.62 6.59 55.79 5.35 55.78 5.33 55.77 5.31 55.75 5.3 55.2 4.45 54.61 3.64 54 2.88 55.67 1.83 57.58 1.11 59.63 0.81ZM65.21 21.88C64.48 23.5 63.7 25.12 62.84 26.71 61.57 24.4 61.05 21.92 60.29 19.44 60.36 18.73 60.44 18.01 60.53 17.3 63.09 14.34 64.68 10.75 66.75 7.48 65.81 12.22 65.14 16.99 65.21 21.88ZM65.7 17.26C65.82 15.83 65.95 14.39 66.11 12.96 67.26 12.15 68.23 10.94 69.06 9.81 69.43 9.29 69.86 8.74 70.21 8.15 69.78 9.73 69.38 11.32 68.83 12.87 67.98 15.27 67.07 17.65 66.06 19.98 65.86 20.42 65.67 20.87 65.47 21.32 65.66 19.98 65.58 18.61 65.7 17.26ZM66.79 7.29C65.79 8.44 65.03 10.02 64.23 11.29 63.05 13.16 61.92 15.09 60.59 16.86 61.11 12.91 61.89 8.95 63.07 5.17 64.54 4.51 66.12 4.04 67.61 3.4 67.33 4.69 67.05 5.98 66.79 7.29ZM62.72 26.94C61.76 28.71 60.72 30.42 59.56 32 59.6 28.93 59.76 25.88 59.97 22.91 60.03 22.07 60.1 21.22 60.19 20.36 60.31 21.18 60.46 21.99 60.73 22.76 61.04 23.64 61.44 24.49 61.81 25.35 61.84 25.42 62.43 26.51 62.72 26.94ZM60.6 31.19C62.53 30.27 64.31 29.13 66.03 27.86 67.71 26.62 68.87 24.89 70.36 23.52 67.73 29.9 64.18 36.01 59.93 41.31 59.64 38.42 59.54 35.48 59.56 32.55 59.57 32.54 59.58 32.53 59.6 32.52 59.94 32.09 60.27 31.65 60.6 31.19ZM59.72 42.84C58.8 40.06 57.49 37.43 56.7 34.58 56.46 33.7 56.22 32.81 55.99 31.92 56.3 32.44 56.69 32.93 57.02 33.38 57.83 34.51 58.55 35.7 59.38 36.81 59.42 38.75 59.45 40.84 59.72 42.84ZM55.78 31.16C55.54 30.24 55.31 29.32 55.09 28.39 56.78 26.96 58.27 25.4 59.52 23.6 59.24 27.71 59.2 31.78 59.34 35.9 59.35 36.11 59.35 36.33 59.36 36.54 58.95 35.65 58.23 34.83 57.7 34.05 57.05 33.1 56.37 32.15 55.78 31.16ZM55.03 28.16C54.77 27.06 54.53 25.96 54.3 24.84 55.66 21.66 56.59 18.31 57.31 14.91 57.92 14.25 58.44 12.79 58.88 12.17 59.33 11.53 59.81 10.9 60.22 10.23 60.8 9.29 61.46 8.35 62.03 7.4 60.65 12.5 59.92 17.83 59.54 23 59.53 23.15 59.53 23.29 59.51 23.44 58.81 24.21 58.2 25.07 57.46 25.82 56.67 26.63 55.86 27.4 55.03 28.16ZM54.2 24.38C54.2 24.37 54.2 24.35 54.2 24.34 53.52 20.81 52.97 17.19 52.67 13.6 52.63 13.08 52.57 12.55 52.52 12.01 53.17 10.94 53.79 9.9 54.36 8.78 54.8 7.9 55.35 6.89 55.66 5.92 56.4 7.06 57.16 8.26 58.05 9.29 57.85 10.49 57.64 11.68 57.38 12.87 57.21 13.68 57.02 14.49 56.83 15.3 56.82 15.31 56.82 15.32 56.81 15.33 56.8 15.35 56.8 15.38 56.8 15.41 56.06 18.43 55.2 21.43 54.2 24.38ZM64.09 1.22C63.34 3.08 62.7 5 62.16 6.95 60.51 9.22 58.86 11.46 57.52 13.92 58.4 9.56 58.98 5.11 59.7 0.79 59.71 0.79 59.71 0.79 59.72 0.79 61.19 0.58 62.68 0.76 64.09 1.22ZM67.67 3.14C67.66 3.2 67.64 3.27 67.63 3.33 66.75 3.5 65.91 3.79 65.08 4.1 64.47 4.33 63.75 4.5 63.17 4.83 63.55 3.64 63.96 2.46 64.43 1.32 65.6 1.75 66.7 2.37 67.67 3.14ZM70.67 6.53C70.6 6.78 70.53 7.03 70.46 7.28 69.47 9.36 67.71 11.24 66.13 12.83 66.17 12.5 66.2 12.18 66.24 11.86 66.62 8.99 67.47 6.09 67.77 3.22 68.94 4.15 69.94 5.27 70.67 6.53ZM72.6 12.89C71.24 14.38 69.44 16.01 67.71 16.93 68.91 13.8 69.91 10.67 70.62 7.4 70.71 7.21 70.78 7.02 70.84 6.82 71.13 7.37 71.38 7.94 71.56 8.52 72.02 10.01 72.36 11.45 72.6 12.89ZM72.91 16.35C72.21 18.7 71.37 21.05 70.43 23.36 68.81 24.49 67.58 26.4 65.93 27.56 64.29 28.73 62.63 29.83 60.86 30.8 63.11 27.56 64.9 23.74 66.39 20.2 66.8 19.21 67.2 18.22 67.59 17.23 68.57 16.84 69.55 16.01 70.31 15.34 71.1 14.65 71.93 13.87 72.62 13.03 72.78 14.13 72.89 15.24 72.91 16.35ZM71.79 24.88C70.84 25.88 69.81 26.81 68.73 27.67 70.44 24.14 71.93 20.54 72.92 16.73 72.93 18.54 72.76 20.37 72.38 22.29 72.2 23.17 72 24.03 71.79 24.88ZM68.02 35.08C66.44 35.96 64.79 36.61 63.15 37.36 63.31 37.1 63.48 36.84 63.64 36.59 65.05 34.45 66.41 32.29 67.57 30.02 67.9 29.36 68.23 28.7 68.56 28.04 69.72 27.26 70.8 26.33 71.7 25.27 70.83 28.67 69.65 31.91 68.02 35.08ZM60.56 45.87C60.3 44.4 60.1 42.91 59.94 41.39 61.1 40.5 62.03 39.1 62.9 37.74 62.92 37.75 62.93 37.75 62.96 37.74 64.65 36.96 66.36 36.35 67.9 35.31 67.87 35.37 67.84 35.43 67.81 35.49 66.52 37.93 65.27 40.58 63.6 42.86 63.49 42.99 63.39 43.13 63.28 43.25 62.55 44.34 61.62 45.39 60.56 45.87ZM57.72 45.58C57.71 45.23 57.59 44.4 57.59 44.28 57.58 43.63 57.54 42.98 57.48 42.32 57.42 41.47 57.47 40.54 57.37 39.68 57.72 40.06 58.08 40.41 58.5 40.68 58.9 41.59 59.32 42.48 59.79 43.37 59.93 44.26 60.12 45.13 60.39 45.94 59.82 46.16 59.22 46.22 58.59 46.03 58.28 45.94 57.99 45.78 57.72 45.58ZM51.06 35.55C52.34 36.72 54.1 37.67 55.64 37.56 55.83 37.78 56.01 38.01 56.19 38.23 56.48 38.6 56.78 39 57.1 39.37 56.87 40.43 57.16 41.73 57.24 42.77 57.31 43.68 57.38 44.59 57.58 45.48 57.27 45.23 56.99 44.91 56.74 44.56 56.58 44.4 56.43 44.22 56.28 44.03 54.7 42.03 53.19 39.92 52.03 37.65 51.69 36.97 51.36 36.26 51.06 35.55ZM48.32 26.69C49.41 29.03 50.82 31.29 52.27 33.35 53.3 34.8 54.47 36.14 55.59 37.51 53.67 37.2 52.14 36.02 50.73 34.78 49.69 32.16 48.92 29.43 48.32 26.69ZM47.08 18.44C47.76 20.26 48.96 21.97 50.01 23.53 51.37 25.57 52.89 28.15 54.94 29.63 55.81 33.3 56.88 36.91 58.37 40.35 57.32 39.31 56.46 38.05 55.54 36.92 54.51 35.64 53.37 34.41 52.47 33.04 50.77 30.43 49.33 27.77 47.98 24.99 47.9 24.58 47.82 24.18 47.75 23.78 47.41 22 47.16 20.22 47.08 18.44ZM48.68 9C49.04 10.61 49.96 12.22 50.55 13.71 51.24 15.44 52.14 17.08 52.88 18.78 53.1 20.46 53.37 22.13 53.69 23.78 54.05 25.64 54.43 27.5 54.86 29.35 51.75 26.08 48.73 21.77 47.05 17.57 47.01 14.82 47.38 12.1 48.49 9.44 48.55 9.3 48.62 9.15 48.68 9ZM52.23 4.19C51.63 7.27 52 10.6 52.29 13.67 52.43 15.2 52.6 16.74 52.81 18.28 52.28 16.9 51.59 15.56 51.06 14.19 50.33 12.32 49.65 10.42 48.88 8.57 49.71 6.87 50.85 5.4 52.23 4.19ZM53.77 3.05C54.24 3.97 54.88 4.77 55.47 5.63 54.94 6.58 54.65 7.7 54.16 8.66 53.62 9.72 52.98 10.8 52.51 11.89 52.27 9.27 52.05 6.51 52.52 3.95 52.91 3.63 53.33 3.32 53.77 3.05Z" fill="#D1E0E8"/><path d="M56.18 0.86C60.82-0.91 65.43 0.11 69.17 3.29 71.59 5.34 72.81 8.75 73.32 12.14 72.82 10.74 72.22 9.39 71.48 8.15 70.41 6.37 68.93 4.57 66.86 3.92 64.31 3.13 61.61 4.07 59.55 5.64 54.85 9.22 53.42 16.47 53.47 22.04 53.5 25.33 53.98 28.64 54.95 31.79 55.77 34.45 56.6 37.44 58.44 39.6 61.64 43.32 64.56 41.61 66.97 38.4 66.46 39.31 65.92 40.21 65.34 41.07 64.71 42.12 64.03 43.13 63.21 44.07 62.19 45.22 60.64 46.83 59.07 46.66 57.82 46.71 56.96 45.61 56.08 44.53 52.34 39.97 49.43 34.13 48.07 28.53 46.74 23.09 45.61 17.27 47.05 11.73 48.29 6.98 51.51 2.64 56.18 0.86Z" fill="#D7E3EA"/><path d="M61.36 43.89C61.36 43.89 76.59 24.54 70.67 9.15 70.67 9.15 67 2.36 62.17 4.86 62.17 4.86 68.03 6.14 68.87 13.58 70.04 23.87 61.36 43.89 61.36 43.89Z" fill="#FFFFFF" opacity="0.8"/><path d="M58.37 1.72C58.37 1.72 51.96 3.36 49.01 11.3 46.06 19.23 50.29 31.43 50.29 31.43 50.29 31.43 46.94 15.81 50.65 9.8 55.08 2.63 58.37 1.72 58.37 1.72Z" fill="#D7E3EA"/></g><g><path d="M12.31 35.56C15.9 41.82 22.05 46.09 28.05 49.83 34.22 53.68 42 56.39 49.39 57.21 51.14 57.4 52.89 57.63 53.97 56.49 55.54 55.24 55.53 52.42 55.42 50.5 55.33 48.93 55.06 47.41 54.71 45.91 54.03 42.21 52.82 38.53 51.71 35.23 49.56 28.79 45.74 22.23 41.19 17.18 37.34 12.91 30.94 8 24.82 8.43 18.65 8.85 13.59 12 10.95 17.69 8.31 23.4 9.23 30.17 12.31 35.56Z" fill="#FFFFFF" opacity="0.5"/><path d="M12.31 35.56C15.9 41.82 22.05 46.09 28.05 49.83 34.22 53.68 42 56.39 49.39 57.21 51.14 57.4 52.89 57.63 53.97 56.49 55.54 55.24 55.53 52.42 55.42 50.5 55.33 48.93 55.06 47.41 54.71 45.91 54.03 42.21 52.82 38.53 51.71 35.23 49.56 28.79 45.74 22.23 41.19 17.18 37.34 12.91 30.94 8 24.82 8.43 18.65 8.85 13.59 12 10.95 17.69 8.31 23.4 9.23 30.17 12.31 35.56ZM14.02 14.6C15.82 17.69 17.94 20.58 19.99 23.52 18.25 22.97 16.4 22.48 14.56 22.08 14.54 22.07 14.51 22.06 14.48 22.06 13.23 21.79 11.99 21.58 10.77 21.43 11.35 19 12.43 16.68 14.02 14.6ZM37.64 28.7C38.41 30.81 39.13 32.97 39.77 35.15 36.58 34.18 33.92 32.41 31.06 30.84 30.49 30.13 29.94 29.42 29.38 28.69 29.09 23.76 27.35 19.12 26.34 14.34 29.67 19.46 33.27 24.35 37.64 28.7ZM34.01 24.09C32.87 22.7 31.71 21.28 30.59 19.85 30.92 18.11 30.73 16.15 30.48 14.42 30.37 13.61 30.26 12.74 30.06 11.9 31.07 13.7 32.1 15.5 32.97 17.39 34.32 20.3 35.61 23.26 36.74 26.26 36.95 26.83 37.17 27.41 37.38 27.99 36.38 26.6 35.1 25.41 34.01 24.09ZM26.2 14.13C26.31 16.05 27.02 18.15 27.41 20.01 27.99 22.73 28.68 25.47 29.04 28.24 26.03 24.22 23.24 19.95 20.97 15.5 21.73 13.6 22.73 11.79 23.52 9.89 24.4 11.31 25.29 12.73 26.2 14.13ZM39.87 35.47C40.56 37.91 41.13 40.37 41.48 42.83 38.8 40.03 36.25 37.12 33.84 34.26 33.16 33.45 32.47 32.61 31.79 31.76 32.61 32.4 33.47 33 34.39 33.46 35.45 33.99 36.56 34.4 37.64 34.85 37.73 34.88 39.22 35.33 39.87 35.47ZM41.7 41.17C42.64 38.64 43.23 36.04 43.67 33.37 44.09 30.77 43.6 28.19 43.75 25.63 46.99 33.72 49.19 42.36 50.03 50.9 47.22 48.54 44.53 45.98 41.96 43.31 41.96 43.29 41.96 43.28 41.96 43.26 41.89 42.57 41.81 41.88 41.7 41.17ZM51.17 52.47C47.89 50.78 44.39 49.56 41.16 47.68 40.16 47.1 39.16 46.51 38.17 45.92 38.91 46.1 39.69 46.21 40.39 46.33 42.11 46.63 43.82 47.07 45.54 47.34 47.3 49.04 49.18 50.9 51.17 52.47ZM37.32 45.4C36.29 44.78 35.27 44.15 34.25 43.51 34.52 40.73 34.48 38.01 34.01 35.27 37.38 39.22 40.95 42.94 44.71 46.53 44.91 46.72 45.1 46.9 45.3 47.09 44.14 46.65 42.76 46.54 41.6 46.31 40.17 46.03 38.73 45.77 37.32 45.4ZM34 43.35C32.79 42.59 31.6 41.81 30.42 40.99 28.84 36.92 26.73 33.08 24.38 29.36 24.35 28.24 23.53 26.45 23.38 25.5 23.23 24.53 23.1 23.53 22.88 22.57 22.57 21.21 22.34 19.78 22.01 18.41 25.27 24.23 29.3 29.7 33.52 34.7 33.64 34.84 33.77 34.98 33.88 35.12 33.93 36.44 34.13 37.75 34.13 39.08 34.13 40.51 34.07 41.93 34 43.35ZM29.92 40.67C29.9 40.66 29.89 40.65 29.88 40.64 26.15 38.05 22.47 35.26 19.02 32.3 18.52 31.87 18.01 31.43 17.49 30.99 17.13 29.45 16.78 27.97 16.29 26.45 15.91 25.26 15.53 23.87 14.94 22.72 16.62 23.09 18.36 23.51 20.08 23.65 20.95 24.91 21.82 26.17 22.63 27.46 23.19 28.35 23.73 29.25 24.26 30.15 24.26 30.16 24.27 30.18 24.27 30.19 24.28 30.22 24.3 30.25 24.33 30.28 26.35 33.65 28.21 37.13 29.92 40.67ZM18.41 11.03C19.37 13.37 20.49 15.66 21.72 17.9 22.24 21.4 22.72 24.89 23.68 28.29 20.62 23.58 17.23 19.06 14.07 14.52 14.08 14.52 14.08 14.51 14.08 14.51 15.23 13.01 16.73 11.86 18.41 11.03ZM23.35 9.61C23.39 9.68 23.43 9.75 23.48 9.82 22.84 10.75 22.34 11.75 21.86 12.77 21.52 13.52 21.01 14.31 20.78 15.11 20.07 13.7 19.41 12.27 18.82 10.83 20.24 10.18 21.78 9.78 23.35 9.61ZM29.04 10.03C29.19 10.32 29.35 10.61 29.51 10.89 30.46 13.63 30.52 16.89 30.49 19.72 30.23 19.4 29.99 19.07 29.74 18.74 27.54 15.82 25.76 12.45 23.49 9.59 25.37 9.4 27.27 9.53 29.04 10.03ZM36.39 14.07C36.48 16.62 36.29 19.66 35.54 22.03 33.86 18.16 32 14.44 29.76 10.86 29.67 10.62 29.57 10.38 29.46 10.15 30.21 10.39 30.93 10.68 31.61 11.05 33.33 11.98 34.91 12.98 36.39 14.07ZM39.73 16.92C41.17 19.66 42.49 22.52 43.67 25.44 43.2 27.88 43.77 30.7 43.32 33.21 42.87 35.71 42.34 38.17 41.6 40.6 40.77 35.69 39.02 30.66 37.23 26.15 36.73 24.89 36.22 23.64 35.69 22.41 36.24 21.19 36.39 19.58 36.49 18.3 36.59 16.97 36.65 15.54 36.53 14.18 37.66 15.03 38.73 15.93 39.73 16.92ZM46.24 25.6C46.25 27.35 46.15 29.09 45.94 30.83 44.37 26.12 42.54 21.56 40.07 17.25 41.68 18.88 43.14 20.69 44.49 22.76 45.09 23.7 45.67 24.65 46.24 25.6ZM51.83 38.15C51.17 40.33 50.26 42.38 49.44 44.51 49.36 44.13 49.28 43.75 49.21 43.38 48.6 40.21 47.91 37.07 46.96 33.98 46.69 33.09 46.4 32.2 46.11 31.32 46.47 29.59 46.62 27.8 46.5 26.04 48.71 29.88 50.5 33.84 51.83 38.15ZM54.61 54.47C53.07 53.38 51.58 52.2 50.11 50.98 50.37 49.16 49.97 47.07 49.56 45.07 49.58 45.06 49.6 45.04 49.61 45.01 50.45 42.81 51.46 40.75 51.93 38.46 51.95 38.54 51.99 38.62 52.01 38.7 52.99 42.04 54.2 45.53 54.72 49.07 54.74 49.28 54.75 49.5 54.77 49.71 55.05 51.33 55.14 53.1 54.61 54.47ZM51.79 56.71C51.47 56.4 50.64 55.75 50.52 55.64 49.95 55.06 49.32 54.51 48.7 53.97 47.89 53.26 47.13 52.38 46.26 51.69 46.91 51.73 47.55 51.72 48.17 51.59 49.33 52.05 50.51 52.49 51.71 52.88 52.62 53.56 53.56 54.18 54.52 54.68 54.2 55.37 53.71 55.95 52.98 56.35 52.61 56.54 52.2 56.65 51.79 56.71ZM36.93 53.53C39.11 53.46 41.55 52.76 42.84 51.3 43.2 51.35 43.56 51.39 43.93 51.43 44.52 51.5 45.14 51.59 45.76 51.65 46.48 52.81 47.89 53.72 48.89 54.6 49.75 55.36 50.61 56.12 51.58 56.74 51.08 56.78 50.55 56.74 50.02 56.65 49.73 56.64 49.44 56.62 49.13 56.58 45.93 56.17 42.72 55.6 39.66 54.57 38.75 54.26 37.83 53.9 36.93 53.53ZM26.63 47.94C29.68 49.1 32.95 49.89 36.07 50.47 38.28 50.87 40.51 51.04 42.74 51.29 40.74 52.71 38.31 52.99 35.94 53.11 32.7 51.68 29.6 49.89 26.63 47.94ZM18.24 41.58C20.46 42.62 23.05 43.11 25.37 43.6 28.4 44.24 32.04 45.23 35.21 44.77 39.23 47.32 43.38 49.63 47.76 51.43 45.9 51.42 44.01 51.04 42.19 50.83 40.13 50.59 38.01 50.48 35.99 50.03 32.15 49.18 28.5 48.04 24.83 46.73 24.4 46.44 23.98 46.14 23.55 45.84 21.69 44.51 19.89 43.12 18.24 41.58ZM11.37 31.65C13.11 32.78 15.36 33.44 17.21 34.25 19.36 35.21 21.62 35.89 23.78 36.78 25.46 38.09 27.18 39.36 28.92 40.57 30.89 41.94 32.88 43.28 34.89 44.56 29.19 44.36 22.66 43.13 17.44 40.81 14.98 38.37 12.92 35.58 11.57 32.21 11.5 32.03 11.44 31.84 11.37 31.65ZM10.32 24.17C12.5 27.48 15.78 30.15 18.74 32.68 20.22 33.94 21.74 35.18 23.28 36.39 21.58 35.6 19.78 35.01 18.09 34.25 15.79 33.21 13.5 32.09 11.17 31.1 10.42 28.82 10.15 26.48 10.32 24.17ZM10.7 21.79C11.94 22.2 13.23 22.36 14.51 22.63 14.87 23.95 15.6 25.22 16.01 26.52 16.47 27.96 16.83 29.48 17.37 30.89 14.84 28.73 12.21 26.44 10.38 23.72 10.45 23.06 10.56 22.42 10.7 21.79Z" fill="#D1E0E8"/><path d="M10.95 17.69C13.58 12 18.65 8.86 24.83 8.43 28.82 8.15 32.94 10.15 36.39 12.76 34.71 11.93 32.97 11.25 31.21 10.79 28.67 10.12 25.75 9.8 23.31 11.04 20.29 12.58 18.69 15.8 18.22 19.04 17.14 26.42 22.24 34.23 27.19 39.21 30.12 42.15 33.48 44.72 37.12 46.71 40.21 48.38 43.59 50.36 47.17 50.67 53.34 51.22 54.47 47.1 53.83 42.06 54.17 43.33 54.48 44.62 54.71 45.91 55.06 47.4 55.33 48.92 55.42 50.5 55.53 52.43 55.54 55.24 53.97 56.49 52.89 57.63 51.14 57.4 49.39 57.21 42 56.39 34.22 53.68 28.05 49.83 22.05 46.09 15.9 41.82 12.31 35.56 9.23 30.17 8.31 23.4 10.95 17.69Z" fill="#D7E3EA"/><path d="M53.58 51.98C53.58 51.98 50.27 21.08 31.36 12.4 31.36 12.4 22.05 9.51 19.89 16.02 19.89 16.02 26.31 12.01 33.63 17.98 43.76 26.24 53.58 51.98 53.58 51.98Z" fill="#FFFFFF" opacity="0.8"/><path d="M13.7 16.53C13.7 16.53 9.35 23.66 13.7 33.43 18.04 43.19 32.61 50.48 32.61 50.48 32.61 50.48 15.8 39.33 13.84 30.64 11.52 20.25 13.7 16.53 13.7 16.53Z" fill="#D7E3EA"/></g><g><path d="M64.46 45.82C64.49 45.82 64.51 45.83 64.54 45.84 63.14 47.26 61.25 51.58 61.51 51.39 62.83 50.43 64.72 49.75 66.26 49.36 66.68 49.26 67.09 49.19 67.5 49.13 66.42 50.42 65.38 54.51 65.7 54.63 66.19 54.8 68.64 53.14 69.45 52.55 69.77 52.32 70.12 52.06 70.49 51.77 70.07 52.65 69.62 55.07 69.91 55.09 70.88 55.16 72.05 53.7 72.72 52.89 72.67 53.34 72.65 53.79 72.67 54.23 72.73 55.72 74.37 59.77 74.43 59.64 74.89 58.65 75.66 56.35 76.76 55 76.67 55.7 76.62 56.4 76.53 56.93 76.36 57.87 75.96 61.59 76.16 61.39 76.64 60.92 77.03 60.39 77.39 59.83 77.44 60.77 77.53 61.72 77.6 62.62 77.72 64.42 77.75 66.38 78.13 68.15 78.17 68.31 78.43 68.62 78.61 68.44 79.54 67.48 80.1 66.24 80.44 64.91 80.53 65.22 80.63 65.52 80.74 65.81 81.26 67.19 81.8 69.17 83.22 69.92 83.35 69.99 83.51 69.94 83.54 69.79 83.62 69.35 83.48 69 83.27 68.59 83.1 68.27 82.96 67.92 82.83 67.55 82.93 67.65 83.03 67.76 83.12 67.85 84.52 69.21 86.93 71.6 89 71.47 89.26 71.45 89.18 71.14 89.08 70.99 87.7 68.94 86.52 67.3 85.65 64.9 85.2 63.68 87.31 66.63 87.38 66.72 87.75 67.21 88.12 67.69 88.5 68.17 88.89 68.66 88.83 68.62 89.35 68.91 89.51 69 89.73 68.91 89.71 68.69 89.5 67.1 88.48 65.64 88.48 64.02 90.29 65.78 92.26 67.44 93.7 69.47 93.82 69.65 94.33 69.93 94.36 69.52 94.43 68.65 94.43 67.84 94.33 67.04 94.96 68.12 95.55 69.21 96.26 70.27 96.38 70.47 96.75 70.57 96.75 70.24 96.73 67.13 97.1 64.44 95.77 61.45 95.62 61.11 95.45 60.7 95.27 60.26 97.38 59.83 98.99 58.26 99.33 55.48 99.55 53.64 98.71 48.2 101.31 49.06 102.67 49.5 103.38 50.67 104.65 51.1 104.77 51.14 104.87 51.08 104.94 50.98 105.89 49.57 104.6 46.49 103.86 45.2 103.42 44.42 102.59 43 101.97 42.94 103.6 43.1 104.75 43.97 106.17 44.66 106.28 44.71 106.38 44.66 106.39 44.53 106.39 43.6 105.66 42.27 105.01 41.68 104.36 41.08 103.49 40.28 102.6 40.09 103.21 40.22 104.82 39.2 105.6 38.97 105.66 38.95 105.63 38.87 105.6 38.83 104.72 37.73 102.5 37.35 100.78 37.76 101.31 36.46 101.57 34.97 101.66 33.77 101.67 33.58 101.39 33.23 101.24 33.49 100.65 34.5 100.04 35.46 99.28 36.33 99.53 34.75 99.78 33.22 99.71 31.59 99.68 30.99 99.67 30.31 99.6 29.63 99.36 28.77 98.99 27.97 98.5 27.25 98.49 27.28 98.48 27.3 98.47 27.33 98.27 29.13 97.91 31.08 97.19 32.75 97.13 31.54 96.92 30.37 96.64 29.21 96.29 28.61 95.97 27.99 95.58 27.42 95.57 27.4 95.56 27.38 95.55 27.37 95.33 28.34 95.04 29.29 94.72 30.23 94.38 28.39 93.27 26.85 92.02 25.5 91.29 24.92 90.51 24.42 89.7 24.01 89.85 25.41 89.96 26.79 90.01 28.19 89.65 27.7 89.28 27.23 88.87 26.79 87.89 25.73 86.82 24.64 85.61 23.82 84.83 23.47 84 23.23 83.15 23.06 82.97 24.03 83.84 25.26 84.11 26.12 84.22 26.47 84.32 26.82 84.43 27.18L84.41 27.17C83.64 26.31 81.19 23.94 79.89 24.58 79.85 24.61 79.8 24.65 79.8 24.71 79.74 25.8 80.4 26.94 80.93 28.01 80.26 27.48 79.54 27.03 78.78 26.69 77.24 26.42 75.72 26.21 74.2 26.28 74.34 26.96 74.8 27.61 75.16 28.15 75.42 28.56 75.67 28.98 75.91 29.4 74.33 28.79 70.66 29.21 70.95 29.55 71.58 30.3 72.44 31.03 73.09 31.86 71.8 31.1 68.69 31.3 68.78 31.48 69.27 32.52 70.43 33.27 71.17 34.08 71.25 34.17 71.33 34.26 71.42 34.35 70.73 34.17 70.04 34.01 69.33 33.94 67.87 33.78 63.44 35.23 63.6 35.43 64 35.93 64.53 36.02 65.06 36.34 65.6 36.68 66.14 37.03 66.67 37.38 64.72 36.96 60.96 38.4 61.06 38.57 61.5 39.35 63.93 39.54 64.36 39.7 62.7 39.7 59.82 41.77 60.06 41.86 60.36 41.98 60.65 42.11 60.94 42.23 60.84 42.28 60.75 42.32 60.65 42.37 59.14 43.17 56.99 46.37 57.14 46.33 58.59 45.95 60.02 45.45 61.55 45.46 62.51 45.46 63.49 45.56 64.46 45.82Z" fill="#F9E169"/><path d="M74.93 42.81C73.53 42.75 72.21 43.02 70.87 43.3 71.71 42.43 72.67 41.73 73.73 41.12 73.97 40.98 73.65 40.63 73.46 40.63 72.22 40.65 71 40.71 69.82 41 71.6 39.3 74.12 38.92 76.54 38.52 76.72 38.49 76.69 38.27 76.59 38.17 75.9 37.43 75.03 36.97 74.19 36.45 76.25 35.92 78.12 36.85 80.04 37.58 80.25 37.66 80.35 37.48 80.27 37.3 79.33 35.23 77.97 33.42 76.3 31.9 78.05 32.31 79.51 33.36 80.91 34.47 81.1 34.61 81.44 34.57 81.28 34.27 80.07 31.98 78.5 29.96 76.76 28.06 80.04 29.22 82.54 31.55 84.89 34.1 84.99 34.21 85.36 34.38 85.36 34.09 85.32 31.61 83.85 29.41 82.44 27.4 84.58 29.02 86.47 30.86 87.64 33.33 87.72 33.49 88.15 33.7 88.15 33.39 88.16 31.41 87.76 29.52 87.1 27.7 88.52 29.2 89.65 30.98 90.32 33.19 90.36 33.33 90.67 33.62 90.82 33.41 92 31.73 92.28 29.59 91.96 27.52 93.09 29.58 93.59 31.82 93.88 34.21 93.91 34.41 94.31 34.75 94.42 34.45 94.89 33.17 95.24 31.9 95.38 30.57 95.8 32.24 95.83 33.98 96.22 35.66 96.26 35.85 96.55 36.04 96.72 35.89 98.6 34.18 99.38 31.52 99.37 28.94 99.46 29.16 99.52 29.39 99.59 29.61 99.67 30.29 99.67 30.98 99.7 31.57 99.77 33.2 99.52 34.74 99.27 36.31 100.03 35.44 100.64 34.48 101.23 33.47 101.38 33.21 101.67 33.56 101.65 33.75 101.56 34.95 101.3 36.44 100.77 37.74 102.49 37.33 104.71 37.71 105.59 38.81 105.62 38.85 105.65 38.93 105.59 38.95 104.8 39.18 103.2 40.19 102.59 40.07 103.48 40.25 104.35 41.06 105 41.66 105.65 42.26 106.38 43.59 106.38 44.51 106.38 44.64 106.27 44.69 106.16 44.64 104.74 43.94 103.59 43.07 101.96 42.92 102.58 42.98 103.4 44.4 103.85 45.18 104.59 46.48 105.87 49.56 104.93 50.96 104.86 51.06 104.75 51.12 104.64 51.08 103.37 50.65 102.66 49.48 101.3 49.04 98.7 48.18 99.55 53.62 99.32 55.46 98.99 58.24 97.37 59.81 95.26 60.24 95.44 60.68 95.61 61.09 95.76 61.43 97.09 64.42 96.72 67.11 96.74 70.22 96.74 70.56 96.37 70.45 96.25 70.25 95.54 69.2 94.95 68.1 94.32 67.02 94.43 67.82 94.43 68.64 94.35 69.5 94.32 69.91 93.81 69.63 93.69 69.45 92.24 67.41 90.28 65.75 88.47 64 88.47 65.62 89.49 67.08 89.7 68.67 89.73 68.9 89.5 68.99 89.34 68.89 88.82 68.6 88.88 68.64 88.49 68.15 88.11 67.67 87.74 67.19 87.37 66.7 87.3 66.61 85.19 63.66 85.64 64.88 86.49 67.23 87.64 68.85 88.99 70.84 87.91 70.21 86.85 68.77 86.1 67.97 84.94 66.73 83.92 65.41 83.06 63.94 82.99 63.8 82.55 63.55 82.56 63.89 82.63 65.35 82.95 66.83 83.51 68.22 83.37 68.09 83.24 67.96 83.12 67.83 83.02 67.74 82.93 67.63 82.83 67.53 82.96 67.9 83.11 68.25 83.27 68.57 83.48 68.99 83.62 69.33 83.54 69.77 83.52 69.92 83.35 69.98 83.22 69.9 81.81 69.15 81.26 67.18 80.74 65.79 80.63 65.5 80.53 65.2 80.44 64.89 80.22 65.77 79.89 66.59 79.42 67.33 79.09 66.36 78.86 65.34 78.63 64.35 78.06 61.98 78.06 59.72 78.38 57.32 78.41 57.12 78.02 56.83 77.87 57.03 77.06 58.09 76.56 59.27 76.13 60.5 76.2 59.38 76.42 57.54 76.53 56.91 76.62 56.38 76.67 55.67 76.76 54.98 75.83 56.13 75.13 57.98 74.66 59.11 74.56 58.32 74.52 57.54 74.49 56.83 74.4 54.12 74.98 51.56 75.82 49 75.88 48.8 75.55 48.49 75.36 48.62 74.9 48.92 74.5 49.27 74.12 49.64 74.54 48.51 75.13 47.46 75.66 46.37 75.77 46.15 75.38 45.9 75.2 45.98 74.03 46.5 72.92 47.14 71.83 47.81 72.64 46.07 73.99 44.69 75.25 43.24 75.39 43.09 75.1 42.82 74.93 42.81Z" fill="#F9E169"/><path d="M80.5 39.99C82.05 38.39 84.16 37.45 86.33 37.01 90.79 36.1 95.78 37.18 99.72 39.35 101.69 40.43 103.7 42.01 105.08 43.83 107.87 48.38 109.02 54.07 107.73 58.92 106.42 63.83 103.27 69.11 98.9 72.29 98.86 71.46 98.99 70.47 98.96 70.07 98.57 64.71 92.61 65.23 88.58 64.74 84.05 64.19 80.19 61.02 78.32 57.08 75.79 51.73 75.84 44.76 80.5 39.99Z" fill="#664123"/><path d="M98.5 56.9C97.05 58.47 95.09 59.05 93.05 59.39 92.51 59.39 91.97 59.33 91.42 59.37 91.36 59.38 91.31 59.42 91.29 59.47 91.2 59.95 91.05 60.38 90.82 60.77 90.13 56.73 85.33 53.64 81.42 54.8 81.58 54.61 81.75 54.44 81.93 54.29 82.48 53.83 83.21 53.6 83.56 52.94 83.77 52.54 83.04 50.79 83.01 50.48 82.88 49.42 82.8 48.35 82.81 47.28 82.86 43.75 83.57 40 85.68 37.15 85.9 37.1 86.11 37.04 86.33 37 90.79 36.09 95.78 37.17 99.72 39.34 101.69 40.42 103.7 42 105.08 43.82 107.87 48.37 109.02 54.06 107.73 58.91 107.49 59.81 107.19 60.74 106.83 61.65 103.66 61.61 100.7 59.73 98.99 57.04 98.9 56.93 98.66 56.73 98.5 56.9Z" fill="#452F27" opacity="0.3"/><path d="M84.09 60.44C85.29 59.97 86.15 58.65 85.53 57.36 85.32 56.93 85.04 56.59 84.72 56.29 86.49 57.04 87.83 58.38 86.85 60.61 86.79 60.75 86.94 60.91 87.05 60.97 88.25 61.64 89.45 61.79 90.68 61.79 90.71 61.8 90.74 61.8 90.78 61.79 92.01 61.78 93.26 61.64 94.54 61.73 96.95 62.23 99.33 64.41 99.8 66.66 100.18 68.53 99.88 70.44 98.91 72.01 98.9 71.25 99 70.43 98.98 70.08 98.59 64.72 92.63 65.24 88.6 64.75 84.87 64.29 81.6 62.05 79.52 59.09 80.8 60.32 82.43 61.1 84.09 60.44Z" fill="#452F27" opacity="0.3"/><g><path d="M99.26 52.38C100.1 55.87 102.77 60.67 107.16 60.69 108.55 60.69 110.52 59.7 111.49 58.75 115.27 55.02 113.93 46.97 111.84 42.72 110.47 39.94 106.94 37.24 103.94 38.02 98.3 39.49 98.27 48.24 99.26 52.38Z" fill="#D5D5D5"/><path d="M100.68 51.34C101.41 54.42 103.78 58.65 107.65 58.67 108.88 58.67 110.62 57.8 111.48 56.96 114.82 53.67 113.64 46.57 111.79 42.83 110.58 40.38 107.46 37.99 104.81 38.68 99.82 39.97 99.8 47.69 100.68 51.34Z" fill="#FFFFFF"/><path d="M85.2 49.23C86.03 52.72 88.7 57.52 93.09 57.53 94.48 57.54 96.46 56.55 97.43 55.59 101.21 51.85 99.88 43.81 97.78 39.56 96.41 36.79 92.88 34.08 89.88 34.86 84.23 36.34 84.21 45.08 85.2 49.23Z" fill="#D5D5D5"/><path d="M86.46 48.4C87.21 51.53 89.6 55.82 93.53 55.84 94.78 55.85 96.54 54.96 97.41 54.11 100.8 50.77 99.6 43.57 97.73 39.77 96.5 37.28 93.34 34.86 90.65 35.56 85.6 36.87 85.58 44.69 86.46 48.4Z" fill="#FFFFFF"/></g><g><path d="M92.27 45.91C92.33 48.64 93.61 50.8 95.1 50.72 96.62 50.65 97.78 48.37 97.72 45.63 97.66 42.91 96.38 40.74 94.88 40.82 93.38 40.89 92.21 43.17 92.27 45.91Z" fill="#5A2502"/><path d="M95.34 43.68C95.45 44.51 95.89 45.13 96.35 45.08 96.8 45.03 97.09 44.32 96.98 43.5 96.87 42.68 96.42 42.06 95.95 42.1 95.53 42.15 95.23 42.86 95.34 43.68Z" fill="#FFFFFF"/></g><g><path d="M106.12 47.25C106.18 49.98 107.47 52.14 108.95 52.06 110.47 51.98 111.63 49.71 111.57 46.98 111.51 44.25 110.23 42.09 108.73 42.17 107.22 42.24 106.06 44.52 106.12 47.25Z" fill="#5A2502"/><path d="M109.19 45.02C109.29 45.84 109.74 46.46 110.19 46.41 110.65 46.36 110.93 45.65 110.83 44.83 110.71 44.01 110.27 43.39 109.81 43.43 109.37 43.49 109.08 44.2 109.19 45.02Z" fill="#FFFFFF"/></g><path d="M106.19 62.16C106.19 62.16 103.55 68.36 99.68 71.25 99.68 71.25 103.14 67.38 106.19 62.16Z" fill="#FFFFFF"/><path d="M82.99 38.9C82.99 38.9 78.23 41.74 77.46 48.72 76.68 55.7 80.92 59.67 80.92 59.67 80.92 59.67 77.15 53.32 78.03 48.25 78.91 43.19 82.99 38.9 82.99 38.9Z" fill="#FFFFFF"/><path d="M84.73 61.06C85.85 60.71 86.27 59.58 86.35 58.46 86.49 59.31 86.31 60.26 85.74 60.9 87.44 63.42 91.16 62.15 93.65 62.42 95.08 62.58 97.02 63.77 97.98 64.81 99.95 66.92 99.9 69.58 98.81 72.21 98.81 72.23 98.79 72.21 98.79 72.19 99 70.25 99.56 68.38 98.64 66.48 97.15 63.4 93.46 62.94 90.53 63.01 88.52 63.06 86.56 62.79 85.53 61.1 85.49 61.14 85.45 61.18 85.4 61.22 84.43 61.94 83.43 61.57 82.67 60.89 83.28 61.2 83.98 61.3 84.73 61.06Z" fill="#272724"/><path d="M90.95 59.33C90.84 58.31 90.32 57.49 89.64 56.81 89.18 56.18 88.62 55.63 87.86 55.22 86.93 54.72 85.95 54.29 84.9 54.12 84.16 53.99 83.5 54.08 82.83 54.22 86.05 52.73 91.07 55.6 90.99 59.33 90.99 59.37 90.95 59.35 90.95 59.33Z" fill="#272724"/><g><path d="M94.49 33.07C94.36 31.03 93.78 29.06 92.7 27.31 92.24 26.56 91.66 25.9 91.02 25.29 93.46 27.12 94.99 29.78 94.53 33 94.52 33.03 94.51 33.05 94.49 33.07Z" fill="#F8E5A2"/><path d="M84.98 24.16C87 25.15 88.7 26.77 89.42 28.92 88.16 27.11 86.7 25.48 84.98 24.16Z" fill="#F8E5A2"/><path d="M80.53 25.11C81.86 25.51 82.94 26.18 83.79 27.18 83.96 27.52 84.07 27.9 84.12 28.29 82.93 27.24 81.88 26.05 80.52 25.2 80.49 25.18 80.48 25.09 80.53 25.11Z" fill="#F8E5A2"/><path d="M72.39 29.64C72.41 29.59 72.45 29.55 72.54 29.55 74.95 29.41 77.68 30.18 79.27 32.09 77.23 30.9 74.79 29.9 72.39 29.64Z" fill="#F8E5A2"/><path d="M73.76 32.46C74.39 32.82 74.92 33.26 75.4 33.76 73.77 33.14 72.11 32.62 70.4 32.19 71.52 31.93 72.62 31.82 73.76 32.46Z" fill="#F8E5A2"/><path d="M68.43 35.02C67.37 35.22 66.29 35.38 65.24 35.63 65.15 35.57 65.06 35.45 65.16 35.38 66.52 34.35 68.89 34.23 70.53 34.93 69.84 34.84 69.13 34.89 68.43 35.02Z" fill="#F8E5A2"/><path d="M63.78 42.4C65.01 42.24 66.37 42.14 67.57 42.57 67.81 42.66 68.04 42.74 68.28 42.83 66.49 42.52 65.04 42.57 63.21 43.09 62.08 43.41 60.88 43.82 59.78 44.29 60.86 43.25 62.24 42.6 63.78 42.4Z" fill="#F8E5A2"/><path d="M62.91 49.14C63.29 48.26 63.78 47.6 64.64 46.94 65.43 46.33 66.66 45.62 67.67 45.61 67.68 45.61 67.68 45.62 67.68 45.62 66.73 45.86 65.85 46.85 65.13 47.47 64.24 48.24 63.47 49.04 62.81 50.02 62.8 50.03 62.79 50.03 62.77 50.04 62.79 49.74 62.84 49.44 62.91 49.14Z" fill="#F8E5A2"/><path d="M67.28 50.84C67.67 50.26 68.21 49.85 68.77 49.47 68.08 50.74 67.43 52.14 66.53 53.25 66.49 52.44 66.87 51.43 67.28 50.84Z" fill="#F8E5A2"/><path d="M70.64 52.49C70.86 52.03 71.14 51.64 71.46 51.27 71.26 52.23 71.21 53.35 70.52 54.1 70.49 54.13 70.46 54.14 70.42 54.14 70.38 53.57 70.39 53.02 70.64 52.49Z" fill="#F8E5A2"/><path d="M83.21 64.74C83.97 66.93 86.08 68.52 87.55 70.21 87.6 70.27 87.62 70.43 87.49 70.4 86.54 70.11 85.63 69.33 85.05 68.52 84.19 67.33 83.29 66.24 83.06 64.74 83.05 64.62 83.19 64.68 83.21 64.74Z" fill="#F8E5A2"/><path d="M78.7 67.16C78.32 66.21 78.1 65.26 78.02 64.3 78.15 62.9 78.66 61.47 78.96 60.18 78.97 60.13 79.04 60.16 79.04 60.2 79.14 62.33 79.31 65 78.75 67.09 78.74 67.12 78.73 67.15 78.7 67.16Z" fill="#F8E5A2"/><path d="M74.34 57.85C74.34 57.86 74.33 57.87 74.33 57.88 74.04 57.58 73.82 57.24 73.67 56.85 73.44 55.98 73.46 55.06 73.47 54.16 73.48 53.33 73.71 52.68 74 52.02 74.22 51.66 74.45 51.32 74.7 50.98 74.48 53.27 74.23 55.51 74.34 57.85Z" fill="#F8E5A2"/></g></g></g><g><path d="M5.12 15.88C5.12 15.88-0.29 20.45 2.75 26.36 2.76 26.36 1.74 21.97 5.12 15.88Z" fill="#A7A8A8"/><path d="M1.74 17.11C1.74 17.11-1.12 19.52 0.49 22.65 0.49 22.64-0.04 20.32 1.74 17.11L1.74 17.11Z" fill="#A7A8A8"/></g><g><path d="M75.85 12.72C75.85 12.72 78.06 6 72.36 2.55 72.37 2.55 75.54 5.76 75.85 12.72Z" fill="#A7A8A8"/><path d="M78.09 9.9C78.09 9.9 79.25 6.35 76.25 4.53 76.25 4.53 77.93 6.23 78.09 9.9L78.09 9.9Z" fill="#A7A8A8"/></g></g></svg>