<svg width="29.01" height="20.31" viewBox="0 0 29.01 20.31" xmlns="http://www.w3.org/2000/svg" xmlns:xlink="http://www.w3.org/1999/xlink" xml:space="preserve" overflow="hidden"><defs></defs><g id="g59735_1_" transform="matrix(1.11163 -1.11163 1.11163 1.11163 -25.8982 4.78308)"><path d="M20.97 22.21C20.46 19.88 16.15 19.61 13.18 18.8 11.6 18.37 9.5 17.47 7.86 17.58 7.51 17.6 4.73 18.51 4.73 18.57 4.73 18.99 6.2 19.85 6.52 20.06 8.4 21.29 10.77 21.85 12.91 22.56 15.66 23.45 18.88 24.94 20.97 22.21Z" id="path47950_1_" fill="#9CA220"/><circle cx="17.88" cy="21.7" r="1.37" id="circle49928_1_" fill="#6E7217"/><path d="M16.21 21.06C16.21 21.82 15.6 22.43 14.84 22.43 14.08 22.43 13.47 21.82 13.47 21.06 13.47 20.3 14.08 19.69 14.84 19.69 15.59 19.69 16.21 20.31 16.21 21.06Z" id="circle49930_1_" fill="#6E7217"/><path d="M13.2 20.18C13.2 20.94 12.59 21.55 11.83 21.55 11.07 21.55 10.46 20.94 10.46 20.18 10.46 19.42 11.07 18.81 11.83 18.81 12.59 18.81 13.2 19.42 13.2 20.18Z" id="circle49932_1_" fill="#6E7217"/><path d="M10.23 19.38C10.23 20.05 9.69 20.59 9.02 20.59 8.35 20.59 7.81 20.05 7.81 19.38 7.81 18.71 8.35 18.17 9.02 18.17 9.69 18.17 10.23 18.71 10.23 19.38Z" id="path47974_1_" fill="#6E7217"/><path d="M23.85 22.46C23.79 22.46 23.62 22.6 23.52 22.64 23.49 22.65 23.47 22.66 23.45 22.66 23.38 22.65 23.3 22.64 23.22 22.64 22.94 22.63 22.63 22.59 22.3 22.52 22 22.45 21.68 22.34 21.39 22.18 21.11 22.03 20.85 21.83 20.64 21.57 20.54 21.44 20.45 21.3 20.39 21.14 20.32 20.99 20.28 20.82 20.26 20.63 20.25 20.55 20.24 20.44 20.23 20.33 20.22 20.22 20.23 20.1 20.24 19.98 20.26 19.86 20.29 19.73 20.37 19.62 20.41 19.56 20.45 19.51 20.5 19.46 20.55 19.41 20.62 19.37 20.69 19.34 20.85 19.27 21.01 19.23 21.16 19.22 21.31 19.21 21.46 19.23 21.59 19.27 21.72 19.31 21.84 19.37 21.95 19.45 22.05 19.53 22.14 19.62 22.2 19.73 22.26 19.84 22.31 19.96 22.31 20.09 22.32 20.22 22.29 20.35 22.22 20.47 22.15 20.59 22.05 20.69 21.91 20.77 21.78 20.85 21.61 20.91 21.42 20.95 21.17 21 20.93 21 20.71 20.95 20.49 20.9 20.29 20.8 20.12 20.68 19.95 20.55 19.8 20.4 19.67 20.23 19.54 20.06 19.44 19.87 19.37 19.69 19.29 19.5 19.24 19.3 19.21 19.11 19.18 18.92 19.18 18.73 19.2 18.55 19.22 18.37 19.28 18.2 19.37 18.06 19.42 17.99 19.48 17.92 19.55 17.87 19.62 17.81 19.7 17.77 19.79 17.74 19.94 17.69 20.09 17.68 20.22 17.7 20.29 17.71 20.35 17.74 20.41 17.77 20.47 17.8 20.52 17.85 20.56 17.9 20.6 17.95 20.63 18.01 20.66 18.07 20.68 18.13 20.7 18.19 20.7 18.25 20.71 18.37 20.7 18.5 20.66 18.62 20.58 18.88 20.4 19.11 20.16 19.27 20.03 19.36 19.88 19.43 19.72 19.47 19.54 19.52 19.36 19.53 19.16 19.52 18.87 19.5 18.63 19.41 18.44 19.29 18.41 19.27 18.37 19.24 18.34 19.22 18.2 19.11 18.07 18.96 17.96 18.79 17.85 18.61 17.77 18.4 17.72 18.17 17.67 17.96 17.65 17.74 17.66 17.52 17.66 17.32 17.69 17.11 17.74 16.93 17.76 16.84 17.8 16.76 17.83 16.68 17.87 16.6 17.91 16.53 17.96 16.47 18.01 16.41 18.08 16.35 18.15 16.31 18.23 16.27 18.32 16.25 18.41 16.25 18.5 16.25 18.59 16.29 18.67 16.33 18.75 16.38 18.82 16.44 18.89 16.52 18.96 16.6 19.01 16.68 19.05 16.77 19.09 16.86 19.11 16.95 19.12 17.04 19.13 17.13 19.12 17.22 19.1 17.3 19.08 17.38 19.05 17.46 19 17.54 18.92 17.69 18.79 17.82 18.65 17.93 18.51 18.04 18.34 18.12 18.15 18.18 17.97 18.24 17.77 18.27 17.56 18.26 17.36 18.25 17.15 18.21 16.95 18.13 16.75 18.04 16.56 17.91 16.39 17.73 16.22 17.55 16.07 17.32 15.95 17.03 15.79 16.63 15.72 16.19 15.74 15.76 15.76 15.31 15.87 14.89 16.05 14.53 16.07 14.5 16.09 14.46 16.12 14.42 16.15 14.38 16.18 14.33 16.21 14.28 16.28 14.17 16.36 14.07 16.43 13.96 16.47 13.9 16.5 13.85 16.53 13.79 16.56 13.73 16.59 13.68 16.61 13.63 16.63 13.58 16.65 13.53 16.65 13.49 16.65 13.47 16.65 13.45 16.65 13.43 16.65 13.41 16.64 13.39 16.64 13.38 16.65 13.39 16.65 13.41 16.65 13.43 16.65 13.45 16.65 13.47 16.65 13.49 16.65 13.53 16.64 13.58 16.62 13.63 16.6 13.68 16.58 13.73 16.55 13.79 16.52 13.85 16.49 13.9 16.46 13.97 16.4 14.09 16.33 14.19 16.27 14.31 16.24 14.36 16.21 14.41 16.19 14.45 16.17 14.49 16.15 14.53 16.14 14.56 15.99 14.92 15.92 15.33 15.92 15.75 15.93 16.15 16.02 16.56 16.19 16.91 16.31 17.17 16.44 17.36 16.59 17.51 16.74 17.66 16.9 17.76 17.06 17.82 17.22 17.88 17.39 17.91 17.55 17.91 17.71 17.91 17.87 17.88 18.02 17.82 18.17 17.77 18.3 17.69 18.4 17.61 18.51 17.52 18.59 17.43 18.63 17.33 18.65 17.28 18.67 17.23 18.68 17.19 18.69 17.14 18.69 17.1 18.68 17.06 18.67 17.02 18.66 16.97 18.64 16.93 18.62 16.89 18.59 16.84 18.54 16.79 18.49 16.74 18.45 16.71 18.42 16.69 18.39 16.67 18.38 16.67 18.37 16.68 18.36 16.68 18.36 16.68 18.35 16.69 18.34 16.7 18.32 16.71 18.3 16.74 18.28 16.77 18.26 16.81 18.23 16.86 18.21 16.91 18.19 16.97 18.17 17.04 18.13 17.18 18.12 17.34 18.12 17.51 18.12 17.69 18.14 17.87 18.18 18.04 18.22 18.22 18.29 18.38 18.37 18.51 18.45 18.63 18.53 18.73 18.62 18.8 18.64 18.82 18.66 18.83 18.68 18.84 18.8 18.91 18.95 18.97 19.15 18.99 19.29 19 19.42 18.99 19.54 18.96 19.65 18.93 19.74 18.89 19.82 18.83 19.97 18.73 20.07 18.59 20.12 18.46 20.14 18.4 20.15 18.34 20.14 18.3 20.14 18.28 20.13 18.26 20.13 18.25 20.13 18.24 20.12 18.23 20.12 18.23 20.12 18.23 20.11 18.22 20.11 18.22 20.1 18.22 20.09 18.21 20.08 18.21 20.05 18.2 19.99 18.2 19.89 18.23 19.86 18.24 19.83 18.25 19.81 18.27 19.79 18.29 19.77 18.31 19.74 18.34 19.7 18.4 19.66 18.49 19.65 18.62 19.63 18.74 19.64 18.88 19.66 19.03 19.68 19.18 19.73 19.34 19.79 19.49 19.85 19.64 19.93 19.79 20.03 19.93 20.13 20.06 20.24 20.18 20.36 20.27 20.48 20.36 20.62 20.43 20.77 20.46 20.92 20.49 21.08 20.5 21.27 20.46 21.42 20.43 21.52 20.39 21.6 20.34 21.67 20.3 21.71 20.25 21.73 20.21 21.75 20.17 21.76 20.14 21.76 20.1 21.76 20.06 21.75 20.01 21.72 19.97 21.69 19.92 21.65 19.87 21.59 19.83 21.53 19.79 21.47 19.75 21.39 19.73 21.31 19.71 21.23 19.7 21.13 19.7 21.04 19.71 20.94 19.73 20.83 19.78 20.8 19.79 20.78 19.81 20.76 19.82 20.74 19.84 20.73 19.85 20.71 19.88 20.68 19.93 20.66 19.99 20.65 20.07 20.64 20.15 20.63 20.24 20.64 20.33 20.64 20.42 20.65 20.51 20.66 20.6 20.68 20.74 20.71 20.87 20.76 20.98 20.81 21.1 20.87 21.2 20.95 21.3 21.11 21.5 21.32 21.66 21.55 21.79 21.8 21.93 22.08 22.02 22.35 22.09 22.65 22.16 22.93 22.19 23.18 22.2 23.28 22.2 23.38 22.22 23.45 22.22 23.47 22.22 23.49 22.23 23.51 22.25 23.66 22.31 23.78 22.46 23.85 22.46L23.85 22.46Z" id="path59245_1_" fill="#9CA220"/><path d="M20.44 21.59C20.44 21.59 22.86 22.27 26.11 21.81 26.64 22.46 26.09 23.29 26.09 23.29 26.09 23.29 21.38 22.37 20.39 22.5 20.3 21.87 20.44 21.59 20.44 21.59L20.44 21.59Z" id="path59446_1_" fill="#9CA220"/><path d="M25.14 22.95C25.14 22.95 22.53 23.04 22.09 23.86 21.65 24.68 22.18 25.9 22.18 25.9 22.18 25.9 20.89 25.35 21.05 24.1 21.2 22.85 22.96 22.32 22.96 22.32L25.14 22.95Z" id="path59618_1_" fill="#9CA220"/></g></svg>