<svg width="115.57" height="100" viewBox="0 0 115.57 100" xmlns="http://www.w3.org/2000/svg" xmlns:xlink="http://www.w3.org/1999/xlink" xml:space="preserve" overflow="hidden"><defs></defs><g><g><path d="M103.58 51C103.58 51 102.76 53.43 101.12 58.98 99.49 64.53 96.08 82.09 81.12 92.94 85.44 93.47 87.83 95.89 88.03 96.52 83.39 99.57 83.24 101.08 74.6 98.52 68.43 96.33 66.48 100.48 61.05 99.96 56.24 99.5 52.14 97.6 49.47 96.61 46.8 95.62 46.59 95.89 42.86 97.64 39.13 99.39 34.52 100.1 26.8 95.49 23.18 93.32 20.01 94.67 14.7 95.64 8.64 96.61 4.46 94.92 2.08 93.04-0.3 91.16-0.57 90.33 0.95 89.11 3.58 87.01 4.12 88.73 6.2 86.69 8.28 84.65 12.22 82.7 15.46 82.39 18.69 82.08 42.36 93.73 60.53 78.1 74.66 65.59 75.16 57.48 80.8 56.3 86.45 55.12 88.28 51.31 89.83 48.69 92.73 50.11 98.39 52.29 103.58 51Z" fill="#F9C2A5"/><g opacity="0.5"><path d="M89.83 48.69C88.29 51.31 86.46 55.12 80.8 56.3 75.15 57.48 74.66 65.59 60.51 78.09 42.34 93.71 18.68 82.07 15.44 82.38 12.21 82.69 8.27 84.64 6.18 86.68 4.11 88.72 3.58 87 0.95 89.1-0.57 90.32-0.31 91.15 2.08 93.03 4.46 94.91 8.64 96.6 14.7 95.63 20 94.66 23.18 93.31 26.8 95.48 34.52 100.09 39.14 99.38 42.86 97.63 46.59 95.88 46.8 95.61 49.47 96.6 52.14 97.59 56.25 99.49 61.05 99.95 66.48 100.47 68.44 96.31 74.6 98.51 79.32 99.91 81.51 100.09 83.28 99.47 77.62 98.02 78.21 94.72 81.31 93.93 83.72 93.31 86.46 95.23 87.99 96.54 88 96.54 88.01 96.53 88.03 96.52 87.83 95.9 85.45 93.47 81.12 92.94 81.21 92.87 81.31 92.8 81.4 92.73 69.62 97.45 66.46 90.22 73.29 87.93 79.83 85.74 81.08 84.11 85.04 76.03 89.92 66.1 90.28 56.34 97.93 54.22 100.27 53.57 101.27 55.12 101.53 57.59 102.89 53.02 103.58 51 103.58 51 98.39 52.29 92.73 50.11 89.83 48.69Z" fill="#F9C2A5"/></g><g><path d="M54.14 96.22C61.29 97.02 63.16 92.78 64.75 89.86 66.34 86.94 66.53 85.94 70.84 84.88 75.16 83.83 78.93 82.58 81.47 76.47 84.01 70.35 83.66 68.61 88.42 60.22 91.24 55.25 94.94 52.55 97.48 51.17 94.39 50.7 91.59 49.55 89.83 48.69 88.29 51.31 86.46 55.12 80.8 56.3 75.15 57.48 74.66 65.59 60.51 78.09 42.34 93.71 18.68 82.07 15.44 82.38 12.21 82.69 8.27 84.64 6.18 86.68 4.11 88.72 3.58 87 0.95 89.1-0.57 90.32-0.31 91.15 2.08 93.03 4.46 94.91 8.64 96.6 14.7 95.63 20 94.66 23.18 93.31 26.8 95.48 34.52 100.09 39.14 99.38 42.86 97.63 44.2 97 45.08 96.57 45.79 96.31 47.49 95.34 49.98 95.77 54.14 96.22Z" fill="#DA9474"/></g><path d="M68.21 95.69C68.21 95.69 68.42 95.68 68.8 95.67 69.17 95.66 69.7 95.62 70.34 95.57 70.66 95.54 71 95.52 71.36 95.47 71.73 95.43 72.11 95.38 72.5 95.33 72.89 95.29 73.3 95.21 73.71 95.15 74.12 95.08 74.54 94.99 74.95 94.91 75.36 94.82 75.78 94.74 76.18 94.63 76.58 94.52 76.98 94.43 77.36 94.3 77.73 94.17 78.11 94.08 78.45 93.94 78.79 93.81 79.12 93.7 79.41 93.57 79.7 93.44 79.97 93.32 80.2 93.22 80.44 93.11 80.63 92.99 80.8 92.91 81.13 92.74 81.32 92.64 81.32 92.64 81.32 92.64 81.14 92.75 80.83 92.96 80.67 93.06 80.48 93.19 80.25 93.31 80.02 93.43 79.76 93.57 79.47 93.71 79.19 93.86 78.86 93.98 78.52 94.13 78.18 94.28 77.81 94.4 77.44 94.53 77.06 94.67 76.66 94.76 76.25 94.88 75.84 95 75.43 95.08 75.01 95.18 74.59 95.26 74.16 95.33 73.75 95.4 73.33 95.45 72.93 95.53 72.53 95.57 72.13 95.62 71.74 95.65 71.38 95.67 71.01 95.7 70.67 95.71 70.35 95.72 69.06 95.76 68.21 95.69 68.21 95.69Z" fill="#E29572"/><g><path d="M82.73 64.6C82.46 65.04 81.97 65.22 81.64 65.02 81.31 64.82 81.25 64.29 81.53 63.86 81.8 63.42 82.28 63.23 82.62 63.44 82.95 63.64 83 64.16 82.73 64.6Z" fill="#DA9474" opacity="0.8"/><path d="M80.36 70.98C80.19 71.26 79.87 71.38 79.66 71.25 79.44 71.12 79.41 70.78 79.58 70.5 79.75 70.22 80.06 70.1 80.28 70.23 80.5 70.36 80.53 70.7 80.36 70.98Z" fill="#DA9474" opacity="0.8"/><path d="M79.69 75.56C79.5 75.87 79.15 76 78.93 75.85 78.7 75.7 78.66 75.34 78.85 75.04 79.04 74.73 79.38 74.6 79.62 74.75 79.84 74.89 79.88 75.25 79.69 75.56Z" fill="#DA9474" opacity="0.8"/><path d="M74.85 79.45C74.58 79.88 74.11 80.06 73.78 79.86 73.45 79.66 73.4 79.15 73.66 78.72 73.92 78.29 74.41 78.11 74.73 78.31 75.07 78.52 75.12 79.03 74.85 79.45Z" fill="#DA9474" opacity="0.8"/><path d="M71.23 82.27C71.06 82.55 70.74 82.67 70.52 82.54 70.31 82.41 70.28 82.07 70.45 81.79 70.62 81.51 70.94 81.39 71.15 81.52 71.37 81.65 71.41 81.99 71.23 82.27Z" fill="#DA9474" opacity="0.8"/><path d="M75.95 74.31C75.78 74.59 75.46 74.71 75.25 74.58 75.04 74.45 75 74.11 75.17 73.83 75.34 73.55 75.66 73.43 75.87 73.56 76.09 73.69 76.13 74.03 75.95 74.31Z" fill="#DA9474" opacity="0.8"/><path d="M75.81 81.61C75.63 81.89 75.32 82.01 75.1 81.88 74.89 81.75 74.85 81.41 75.03 81.13 75.2 80.85 75.52 80.73 75.74 80.86 75.94 80.99 75.98 81.33 75.81 81.61Z" fill="#DA9474" opacity="0.8"/><path d="M84.67 62.5C84.5 62.78 84.18 62.9 83.97 62.77 83.75 62.64 83.72 62.3 83.9 62.02 84.08 61.74 84.39 61.62 84.6 61.75 84.82 61.89 84.85 62.22 84.67 62.5Z" fill="#DA9474" opacity="0.8"/><path d="M66.65 84.14C66.5 84.38 66.22 84.49 66.04 84.37 65.86 84.26 65.83 83.97 65.98 83.72 66.13 83.48 66.4 83.37 66.59 83.49 66.77 83.61 66.8 83.9 66.65 84.14Z" fill="#DA9474" opacity="0.8"/><path d="M64.79 87.28C64.64 87.53 64.37 87.63 64.18 87.51 64 87.39 63.97 87.11 64.12 86.86 64.27 86.62 64.54 86.52 64.73 86.63 64.91 86.74 64.93 87.03 64.79 87.28Z" fill="#DA9474" opacity="0.8"/><path d="M62.14 90.34C61.99 90.59 61.72 90.69 61.53 90.57 61.34 90.46 61.32 90.17 61.47 89.92 61.61 89.68 61.89 89.57 62.08 89.69 62.26 89.81 62.28 90.1 62.14 90.34Z" fill="#DA9474" opacity="0.8"/><path d="M61.23 88.36C61 88.73 60.58 88.89 60.3 88.72 60.02 88.55 59.97 88.1 60.2 87.73 60.43 87.36 60.84 87.2 61.13 87.37 61.42 87.54 61.46 87.99 61.23 88.36Z" fill="#DA9474" opacity="0.8"/><path d="M56.03 94.45C55.75 94.63 55.41 94.61 55.27 94.39 55.13 94.17 55.25 93.85 55.53 93.67 55.81 93.49 56.16 93.51 56.3 93.73 56.43 93.94 56.31 94.27 56.03 94.45Z" fill="#DA9474" opacity="0.8"/><path d="M48.68 93.93C48.28 94.09 47.87 93.97 47.75 93.68 47.63 93.38 47.85 93.01 48.24 92.85 48.63 92.69 49.05 92.8 49.17 93.1 49.3 93.39 49.08 93.76 48.68 93.93Z" fill="#DA9474" opacity="0.8"/><path d="M46.21 94.41C45.98 94.5 45.75 94.44 45.68 94.27 45.61 94.1 45.73 93.89 45.95 93.8 46.17 93.71 46.41 93.77 46.48 93.94 46.54 94.11 46.42 94.32 46.21 94.41Z" fill="#DA9474" opacity="0.8"/><path d="M40.32 96.08C40.1 96.17 39.86 96.1 39.79 95.94 39.72 95.77 39.84 95.56 40.06 95.47 40.28 95.38 40.52 95.44 40.59 95.61 40.67 95.77 40.55 95.98 40.32 96.08Z" fill="#DA9474" opacity="0.8"/><path d="M37.63 96.97C37.22 97.14 36.8 97.02 36.67 96.71 36.54 96.4 36.77 96.02 37.18 95.85 37.58 95.69 38.01 95.8 38.13 96.11 38.27 96.42 38.04 96.8 37.63 96.97Z" fill="#DA9474" opacity="0.8"/><path d="M32.2 96.26C31.98 96.35 31.74 96.28 31.68 96.12 31.61 95.95 31.73 95.74 31.95 95.65 32.17 95.56 32.4 95.63 32.47 95.79 32.55 95.96 32.42 96.17 32.2 96.26Z" fill="#DA9474" opacity="0.8"/><path d="M30.72 94.65C30.5 94.74 30.26 94.67 30.2 94.51 30.13 94.34 30.25 94.13 30.47 94.05 30.69 93.96 30.93 94.02 30.99 94.19 31.06 94.35 30.95 94.56 30.72 94.65Z" fill="#DA9474" opacity="0.8"/><path d="M12.75 93.24C12.41 93.44 12.03 93.39 11.87 93.14 11.73 92.89 11.87 92.53 12.2 92.33 12.53 92.13 12.92 92.18 13.07 92.43 13.22 92.68 13.08 93.04 12.75 93.24Z" fill="#DA9474" opacity="0.8"/><path d="M9.17 94.21C8.84 94.41 8.45 94.36 8.3 94.11 8.15 93.86 8.3 93.5 8.62 93.3 8.95 93.11 9.34 93.15 9.49 93.4 9.65 93.66 9.5 94.02 9.17 94.21Z" fill="#DA9474" opacity="0.8"/><path d="M8.96 91.17C8.71 91.32 8.41 91.28 8.3 91.09 8.19 90.9 8.29 90.62 8.55 90.47 8.81 90.32 9.1 90.36 9.21 90.55 9.32 90.74 9.21 91.02 8.96 91.17Z" fill="#DA9474" opacity="0.8"/><path d="M5.48 92.74C5.23 92.89 4.93 92.85 4.82 92.66 4.71 92.47 4.82 92.19 5.07 92.04 5.32 91.89 5.62 91.93 5.73 92.12 5.84 92.31 5.73 92.59 5.48 92.74Z" fill="#DA9474" opacity="0.8"/><path d="M15.76 93.68C15.63 93.75 15.5 93.73 15.44 93.64 15.39 93.55 15.44 93.42 15.56 93.35 15.68 93.28 15.82 93.3 15.88 93.39 15.94 93.47 15.89 93.6 15.76 93.68Z" fill="#DA9474" opacity="0.8"/><path d="M14.38 94.32C14.26 94.39 14.12 94.37 14.07 94.28 14.01 94.19 14.07 94.06 14.19 93.99 14.31 93.92 14.45 93.93 14.51 94.02 14.56 94.12 14.5 94.25 14.38 94.32Z" fill="#DA9474" opacity="0.8"/><path d="M4.91 90.82C4.79 90.89 4.65 90.87 4.59 90.78 4.54 90.69 4.59 90.56 4.71 90.49 4.83 90.42 4.97 90.44 5.02 90.53 5.08 90.62 5.03 90.75 4.91 90.82Z" fill="#DA9474" opacity="0.8"/><path d="M19.7 92.77C19.21 92.97 18.69 92.83 18.54 92.46 18.39 92.09 18.66 91.62 19.15 91.42 19.64 91.22 20.15 91.36 20.3 91.73 20.46 92.11 20.19 92.57 19.7 92.77Z" fill="#DA9474" opacity="0.8"/><path d="M51.35 94.01C51.24 94.17 51.05 94.24 50.93 94.16 50.81 94.08 50.79 93.88 50.9 93.72 51.01 93.56 51.19 93.49 51.32 93.57 51.44 93.65 51.45 93.85 51.35 94.01Z" fill="#DA9474" opacity="0.8"/><path d="M59.08 93.49C58.9 93.61 58.68 93.59 58.59 93.45 58.5 93.31 58.58 93.11 58.76 92.99 58.94 92.87 59.16 92.89 59.24 93.03 59.33 93.17 59.26 93.38 59.08 93.49Z" fill="#DA9474" opacity="0.8"/></g><g opacity="0.5"><path d="M89.83 48.69C88.46 50.99 86.89 54.22 82.69 55.76 83.09 55.93 83.3 56.24 83.02 56.78 82.13 58.49 83.32 60.12 85.99 57.45 88.66 54.78 89.99 54.71 90.51 54.71 91.03 54.71 84.88 60.55 82.51 66.34 78.02 77.31 75 81.98 67.3 82.12 59.6 82.26 64.69 94.49 52.73 92.7 40.76 90.92 39.94 100 31 93.67 22.07 87.35 12.44 96.01 7.22 92.02 2 88.03 14.64 83.36 18.76 87.21 22.88 91.06 31.41 88.04 33.6 89.41 35.8 90.79 49 92.57 61.64 81.99 72.62 72.8 76.76 67.13 79.55 56.71 74.98 58.78 73.54 66.57 60.5 78.1 42.33 93.72 18.67 82.08 15.43 82.39 12.2 82.7 8.26 84.65 6.17 86.69 4.11 88.72 3.58 87 0.95 89.1-0.57 90.32-0.31 91.15 2.08 93.03 4.46 94.91 8.64 96.6 14.7 95.63 20 94.66 23.18 93.31 26.8 95.48 34.52 100.09 39.14 99.38 42.86 97.63 44.2 97 45.08 96.57 45.79 96.31 47.5 95.33 49.98 95.77 54.14 96.21 61.29 97.01 63.16 92.77 64.75 89.85 66.34 86.93 66.53 85.93 70.84 84.87 75.16 83.82 78.93 82.57 81.47 76.46 84.01 70.34 83.66 68.6 88.42 60.21 91.24 55.24 94.94 52.54 97.48 51.16 94.39 50.7 91.6 49.56 89.83 48.69Z" fill="#DA9474"/></g><path d="M9.16 58.41C9.16 58.41 3.6 65.16 9.4 73.83 8.5 78.49 12.21 84.35 18.72 84.23 20.7 87.76 29.18 88.29 32.59 87.4 32.59 87.4 45.2 93.31 63.71 77.64 78 65.18 87.63 48.13 67.38 34.93 58.86 30.44 39.89 25.77 28.98 35.39 25.41 35.48 19.35 39.24 17.62 45.65 13.5 47.3 9.68 53.29 9.16 58.41Z" fill="#9E6F2B"/><g><path d="M9.4 73.83C9.4 73.83 9.48 73.91 9.66 74.05 9.84 74.18 10.12 74.36 10.49 74.53 10.86 74.7 11.35 74.85 11.91 74.84 12.47 74.84 13.09 74.65 13.67 74.27 14.24 73.89 14.76 73.33 15.22 72.69 15.69 72.04 16.09 71.29 16.45 70.49 16.82 69.68 17.1 68.84 17.32 67.94 17.53 67.05 17.65 66.12 17.69 65.18 17.72 64.25 17.67 63.31 17.52 62.4 17.37 61.5 17.13 60.63 16.77 59.83 16.41 59.05 15.95 58.33 15.38 57.8 14.8 57.28 14.11 56.95 13.44 56.86 12.76 56.76 12.12 56.88 11.58 57.05 11.32 57.15 11.06 57.23 10.84 57.35 10.62 57.46 10.42 57.56 10.24 57.68 10.06 57.79 9.9 57.88 9.77 57.97 9.64 58.07 9.53 58.15 9.43 58.21 9.25 58.34 9.16 58.41 9.16 58.41 9.16 58.41 9.25 58.33 9.42 58.19 9.51 58.12 9.61 58.03 9.73 57.92 9.86 57.82 10.01 57.71 10.18 57.59 10.35 57.46 10.55 57.34 10.77 57.22 10.98 57.08 11.24 56.98 11.51 56.86 12.06 56.65 12.73 56.47 13.47 56.55 14.21 56.61 15 56.95 15.65 57.5 16.29 58.06 16.82 58.81 17.21 59.63 17.6 60.46 17.88 61.37 18.05 62.31 18.21 63.25 18.28 64.22 18.25 65.19 18.21 66.16 18.07 67.12 17.85 68.05 17.63 68.97 17.3 69.87 16.91 70.68 16.52 71.49 16.08 72.25 15.57 72.92 15.06 73.58 14.49 74.15 13.85 74.53 13.22 74.92 12.52 75.08 11.92 75.04 11.32 75.01 10.82 74.82 10.46 74.62 10.09 74.42 9.83 74.21 9.67 74.07 9.48 73.92 9.4 73.83 9.4 73.83Z" fill="#75470D"/><path d="M17.62 45.65C17.62 45.65 17.81 45.58 18.16 45.5 18.52 45.42 19.06 45.33 19.75 45.33 20.44 45.33 21.29 45.42 22.21 45.74 23.13 46.05 24.1 46.61 24.96 47.44 25.17 47.66 25.39 47.86 25.6 48.1 25.79 48.34 25.99 48.59 26.19 48.83 26.37 49.1 26.55 49.37 26.74 49.65 26.92 49.93 27.08 50.23 27.25 50.53 27.89 51.74 28.42 53.08 28.82 54.5 29.22 55.93 29.5 57.44 29.69 58.98 29.87 60.53 29.94 62.11 29.93 63.68 29.89 65.26 29.79 66.84 29.58 68.37 29.54 68.75 29.48 69.14 29.43 69.52 29.36 69.9 29.3 70.28 29.23 70.65 29.2 70.84 29.17 71.03 29.13 71.21 29.11 71.31 29.1 71.38 29.08 71.5L29.02 71.77C28.93 72.13 28.84 72.49 28.75 72.85 28.7 73.03 28.67 73.21 28.62 73.38 28.56 73.56 28.5 73.73 28.45 73.91 28.33 74.26 28.22 74.6 28.11 74.94 27.98 75.28 27.83 75.6 27.7 75.92 27.56 76.24 27.44 76.56 27.27 76.86 27.11 77.16 26.95 77.46 26.8 77.75 26.65 78.05 26.46 78.31 26.29 78.58 25.97 79.13 25.57 79.61 25.22 80.09 24.46 81 23.68 81.77 22.9 82.34 22.12 82.91 21.41 83.35 20.77 83.62 20.62 83.7 20.46 83.76 20.32 83.81 20.18 83.86 20.05 83.92 19.92 83.96 19.66 84.03 19.45 84.11 19.26 84.14 19.17 84.16 19.09 84.17 19.02 84.19 18.95 84.19 18.89 84.2 18.85 84.2 18.75 84.21 18.7 84.21 18.7 84.21 18.7 84.21 18.75 84.2 18.84 84.19 18.89 84.19 18.95 84.18 19.02 84.16 19.09 84.15 19.16 84.12 19.25 84.1 19.43 84.06 19.64 83.97 19.89 83.89 20.01 83.84 20.14 83.78 20.28 83.72 20.42 83.66 20.57 83.6 20.72 83.51 21.34 83.22 22.03 82.75 22.77 82.16 22.95 82.01 23.14 81.85 23.32 81.68 23.51 81.51 23.69 81.32 23.87 81.13 23.96 81.04 24.05 80.94 24.15 80.84 24.24 80.74 24.33 80.63 24.42 80.53 24.6 80.32 24.79 80.11 24.97 79.87 25.3 79.39 25.68 78.92 25.98 78.37 26.14 78.1 26.32 77.84 26.46 77.54 26.6 77.25 26.74 76.95 26.89 76.66 27.05 76.37 27.16 76.04 27.29 75.73 27.41 75.41 27.55 75.09 27.67 74.76 27.77 74.43 27.88 74.09 27.98 73.75 28.04 73.58 28.09 73.41 28.15 73.24 28.2 73.07 28.24 72.88 28.28 72.71 28.36 72.35 28.45 71.99 28.53 71.63L28.59 71.36C28.6 71.29 28.62 71.19 28.63 71.1 28.67 70.92 28.69 70.73 28.73 70.54 28.79 70.17 28.85 69.79 28.91 69.42 28.96 69.04 29 68.66 29.05 68.28 29.24 66.76 29.33 65.2 29.36 63.64 29.37 62.08 29.31 60.53 29.15 59 28.97 57.48 28.71 55.99 28.34 54.59 27.94 53.19 27.46 51.86 26.86 50.67 26.7 50.38 26.56 50.08 26.39 49.81 26.22 49.54 26.05 49.27 25.88 49.01 25.69 48.76 25.5 48.51 25.32 48.27 25.13 48.05 24.91 47.83 24.72 47.62 23.9 46.81 22.98 46.24 22.1 45.89 21.22 45.54 20.39 45.42 19.71 45.39 19.03 45.37 18.49 45.42 18.13 45.48 17.81 45.59 17.62 45.65 17.62 45.65Z" fill="#75470D"/><path d="M10.1 66.56C10.1 66.56 10.04 66.51 9.92 66.41 9.81 66.31 9.65 66.14 9.5 65.9 9.35 65.66 9.19 65.33 9.13 64.92 9.06 64.51 9.09 64.04 9.26 63.56 9.28 63.5 9.31 63.44 9.33 63.38 9.34 63.35 9.35 63.33 9.37 63.28L9.41 63.2C9.47 63.09 9.51 62.97 9.6 62.86 9.76 62.62 9.94 62.39 10.19 62.21 10.42 62.01 10.73 61.89 11.06 61.82 11.39 61.77 11.75 61.83 12.06 61.99 12.36 62.16 12.63 62.4 12.83 62.67 12.92 62.81 13.03 62.95 13.09 63.11 13.16 63.26 13.25 63.41 13.29 63.57 13.53 64.2 13.62 64.86 13.68 65.53 13.72 66.19 13.68 66.87 13.56 67.51 13.45 68.16 13.26 68.77 12.99 69.35 12.74 69.92 12.4 70.43 12 70.86 11.6 71.28 11.12 71.6 10.62 71.74 10.12 71.9 9.63 71.83 9.24 71.71 8.85 71.58 8.55 71.39 8.32 71.21 8.1 71.04 7.94 70.88 7.84 70.77 7.74 70.66 7.68 70.6 7.68 70.6 7.68 70.6 7.74 70.65 7.86 70.75 7.98 70.85 8.16 70.98 8.39 71.13 8.62 71.28 8.93 71.43 9.3 71.52 9.66 71.6 10.09 71.61 10.52 71.45 10.95 71.3 11.35 70.99 11.69 70.6 12.03 70.19 12.32 69.71 12.54 69.17 12.76 68.63 12.92 68.05 13.03 67.44 13.13 66.83 13.16 66.21 13.12 65.58 13.07 64.96 12.99 64.33 12.78 63.77 12.58 63.22 12.27 62.69 11.82 62.44 11.6 62.32 11.35 62.27 11.1 62.29 10.86 62.33 10.61 62.41 10.41 62.56 10.2 62.7 10.03 62.89 9.89 63.07 9.81 63.15 9.75 63.28 9.69 63.39L9.64 63.47 9.61 63.54C9.59 63.6 9.56 63.65 9.54 63.7 9.37 64.13 9.29 64.55 9.32 64.93 9.35 65.31 9.45 65.63 9.58 65.87 9.71 66.12 9.83 66.3 9.93 66.41 10.05 66.5 10.1 66.56 10.1 66.56Z" fill="#75470D"/><path d="M28.87 35.39C28.87 35.39 29.13 35.34 29.63 35.3 30.13 35.27 30.87 35.25 31.8 35.34 32.74 35.42 33.86 35.63 35.11 36.03 36.35 36.45 37.71 37.07 39.03 38.02 39.19 38.14 39.35 38.26 39.52 38.38 39.69 38.51 39.85 38.64 40.01 38.77 40.34 39.03 40.64 39.34 40.96 39.64 41.58 40.26 42.18 40.93 42.73 41.68 43.84 43.17 44.8 44.89 45.54 46.77 45.72 47.24 45.89 47.72 46.07 48.2 46.22 48.69 46.38 49.18 46.53 49.68 46.66 50.18 46.8 50.68 46.93 51.19 47.06 51.69 47.16 52.22 47.27 52.73 47.69 54.81 47.93 56.96 47.98 59.11 48.07 63.41 47.4 67.73 46.12 71.55 44.85 75.38 42.97 78.71 40.96 81.22 39.96 82.48 38.91 83.53 37.91 84.38 36.9 85.22 35.95 85.85 35.13 86.31 34.31 86.76 33.62 87.04 33.16 87.22 32.69 87.38 32.43 87.46 32.43 87.46 32.43 87.46 32.68 87.37 33.15 87.19 33.61 87 34.28 86.69 35.08 86.22 35.88 85.74 36.81 85.09 37.78 84.23 38.74 83.36 39.74 82.29 40.72 81.03 41.69 79.77 42.63 78.31 43.48 76.69 44.32 75.07 45.06 73.29 45.68 71.4 46.93 67.62 47.56 63.36 47.45 59.12 47.41 57 47.18 54.88 46.79 52.83 46.68 52.32 46.58 51.81 46.46 51.31 46.33 50.81 46.2 50.31 46.07 49.81 45.92 49.32 45.77 48.84 45.62 48.35 45.45 47.88 45.28 47.4 45.11 46.94 44.38 45.09 43.48 43.39 42.41 41.91 41.89 41.17 41.3 40.5 40.72 39.88 40.41 39.59 40.12 39.28 39.8 39.02 39.64 38.89 39.49 38.75 39.33 38.62 39.17 38.5 39.01 38.37 38.85 38.26 38.69 38.13 38.53 38.03 38.37 37.92 38.21 37.81 38.05 37.7 37.89 37.6 37.56 37.41 37.25 37.21 36.92 37.05 36.29 36.7 35.65 36.44 35.04 36.21 33.82 35.78 32.71 35.54 31.79 35.43 30.86 35.32 30.12 35.3 29.63 35.32 29.13 35.35 28.87 35.39 28.87 35.39Z" fill="#75470D"/></g><g opacity="0.5"><path d="M17.84 62.03C17.61 60.92 16.96 59.99 16.38 59.04 16.32 58.95 16.19 59.1 16.17 59.17 15.97 60.06 14.83 59.52 14.23 59.47 13.75 59.43 13.25 59.61 12.95 60.01 12.42 60.72 12.31 61.59 12.51 62.44 12.64 62.97 12.9 63.48 13.1 63.98 13.3 64.48 13.42 64.93 13.46 65.44 13.45 65.43 13.44 65.43 13.43 65.43 13.39 65.42 13.32 65.5 13.36 65.52 13.4 65.54 13.43 65.55 13.46 65.56 13.46 65.67 13.47 65.78 13.46 65.9 13.46 66.03 13.67 65.85 13.67 65.77 13.68 65.72 13.67 65.68 13.68 65.63 14.45 65.76 14.38 64.52 14.3 63.91 14.2 63.03 14.03 61.71 15.2 61.44 16.01 61.26 16.96 61.82 17.63 62.21 17.73 62.25 17.85 62.11 17.84 62.03Z" fill="#9E6F2B"/><path d="M10.79 61.89C10.86 61.84 10.94 61.65 10.79 61.73 10.76 61.74 10.74 61.76 10.71 61.78 10.14 60.99 10.34 60.08 10.52 59.15 10.63 58.57 10.73 57.92 10.21 57.51 10.15 57.46 10.07 57.59 10.02 57.62 9.14 58.18 7.72 60.46 7.41 61.98 7.32 62.43 7.23 62.56 7.65 62.78 8.25 63.09 8.81 63.29 9.22 63.87 9.27 63.95 9.41 63.76 9.42 63.73 9.66 63.04 10.01 62.44 10.6 62.02 10.64 62.06 10.67 62.1 10.71 62.14 10.77 62.19 10.91 62.04 10.86 61.99 10.84 61.95 10.82 61.91 10.79 61.89Z" fill="#9E6F2B"/><path d="M13.5 67.2C13.48 67.22 13.45 67.22 13.43 67.24 13.46 66.9 13.47 66.56 13.47 66.21 13.47 66.19 13.46 66.17 13.44 66.17 12.61 65.76 11.7 64.02 10.61 64.42 10.29 64.54 10.06 64.75 9.88 65.05 9.71 65.33 9.57 65.63 9.39 65.91 9.12 66.32 8.64 66.46 8.21 66.62 6.08 67.4 7.37 70.73 9.08 71.71 9.16 71.75 9.34 71.6 9.3 71.51 8.8 70.61 8.45 69.68 8.97 68.72 9.36 68 9.84 67.3 10.4 66.72 11.31 65.78 12.26 67.87 13.21 67.47 13.2 67.49 13.2 67.51 13.2 67.52 13.18 67.64 13.41 67.48 13.41 67.39 13.41 67.37 13.41 67.35 13.42 67.33 13.45 67.31 13.48 67.28 13.51 67.25 13.54 67.23 13.54 67.17 13.5 67.2Z" fill="#9E6F2B"/><path d="M17.35 68.54C16.46 68.73 15.98 68.42 15.47 67.73 15.15 67.3 14.7 66.79 14.11 66.85 13.72 66.89 13.54 67.39 13.46 67.69 13.37 68.01 13.33 68.36 13.26 68.69 13.14 69.26 12.81 69.81 12.4 70.23 12.34 70.26 12.27 70.29 12.21 70.33 12.18 70.35 12.11 70.47 12.18 70.45 12.08 70.54 12.09 70.73 12.24 70.6 12.33 70.52 12.43 70.43 12.51 70.34 13.19 70.13 13.99 70.13 14.55 70.56 15.21 71.07 15.05 72.19 15.13 72.92 15.14 73.02 15.25 72.94 15.28 72.9 16.38 71.75 17 70.12 17.4 68.6 17.41 68.58 17.4 68.53 17.35 68.54Z" fill="#9E6F2B"/><path d="M13.97 79.25C13.71 78.36 12.22 77.96 11.55 77.46 10.23 76.47 12.26 75.47 12.22 74.39 12.2 74.01 11.69 73.64 11.48 73.35 11.18 72.96 11.03 72.53 11.15 72.04 11.21 71.8 11.28 71.59 11.3 71.34 11.31 71.33 11.33 71.32 11.34 71.31 11.42 71.26 11.5 71.02 11.35 71.12 10.63 71.62 10.16 71.86 9.74 72.69 9.24 73.69 9.2 75.19 9.36 76.25 9.74 78.9 11.14 81.25 13.3 82.78 13.39 82.85 13.58 82.64 13.51 82.55 13.22 82.14 13.07 81.73 13.08 81.23 13.09 80.8 13.52 80.56 13.76 80.27 14 79.97 14.09 79.65 13.97 79.25Z" fill="#9E6F2B"/><path d="M28.44 35.28C27.16 35.71 25.86 36.1 24.63 36.68 23.48 37.23 22.5 38.05 21.58 38.92 20.57 39.87 19.69 40.95 18.95 42.13 18.21 43.3 17.75 44.59 17.32 45.91 17.31 45.93 17.31 45.95 17.31 45.96 16.39 46.5 15.34 47.02 15.1 48.15 14.97 48.77 14.4 48.71 13.95 48.85 13.69 48.93 13.49 49.06 13.28 49.24 12.89 49.57 12.61 50.03 12.58 50.55 12.55 51.17 12.87 51.79 12.86 52.43 12.84 53.31 11.86 53.46 11.26 53.84 10.11 54.58 10.38 56.17 10.82 57.23 10.85 57.3 10.94 57.22 10.97 57.19 11.66 56.5 12.91 56.7 13.77 56.84 13.86 56.85 14.01 56.64 13.92 56.63 13.89 56.63 13.86 56.62 13.83 56.61 13.6 55.78 13.37 54.94 13.35 54.07 13.33 53.45 13.49 52.78 14.2 52.64 14.75 52.53 15.3 52.8 15.85 52.7 16.47 52.59 16.61 51.97 16.62 51.44 16.63 50.96 16.58 50.48 16.62 50 16.7 49.02 17.5 48.08 18.39 47.73 19.57 47.26 20.73 48.89 21.94 48.18 22.92 47.62 22.62 46.62 22.14 45.8 21.79 45.2 21.42 44.66 21.3 43.97 21.17 43.25 21.6 42.82 22.16 42.47 22.89 42.02 23.63 41.61 24 40.8 24.04 40.73 23.99 40.73 23.95 40.75 24.22 40.27 24.41 39.77 24.62 39.26 25.01 38.31 25.73 37.94 26.62 37.59 27.72 37.15 28 36.37 28.5 35.37 28.53 35.32 28.52 35.26 28.44 35.28Z" fill="#9E6F2B"/><path d="M27.72 52.46C27.69 52.39 27.59 52.47 27.56 52.5 26.61 53.43 26.15 52.53 25.65 51.74 25.21 51.06 24.6 50.55 23.76 50.51 22.12 50.44 20.3 51.81 20.4 53.55 20.43 54.02 20.6 54.46 20.73 54.9 20.91 55.53 20.24 56.01 19.67 55.79 19.45 55.7 19.24 55.56 19.03 55.45 18.39 55.11 17.72 55.22 17.21 55.72 16.68 56.23 15.99 56.85 15.85 57.61 15.68 58.57 16.95 58.93 17.17 59.71 17.1 59.73 17.01 59.85 17.06 59.88 17.11 59.91 17.16 59.93 17.2 59.95 17.2 59.96 17.2 59.98 17.2 59.99 17.2 60.06 17.26 60.04 17.32 59.99 17.97 60.23 18.47 59.89 18.9 59.32 19.21 58.91 19.46 58.42 19.91 58.15 20.59 57.74 21.43 58.41 21.99 58.7 23.3 59.39 24.95 59.46 25.83 58.08 26.29 57.36 26.53 55.99 27.53 55.82 28.18 55.71 28.75 56.91 29.06 57.31 29.12 57.38 29.25 57.22 29.26 57.17 29.58 55.42 28.33 54 27.72 52.46Z" fill="#9E6F2B"/><path d="M46.12 71.12C46.1 71.1 46.08 71.08 46.07 71.06 46.08 70.98 46.09 70.9 46.11 70.82 46.12 70.76 46.01 70.84 46.01 70.87 46 70.9 45.99 70.92 45.99 70.95 45.48 70.24 45.53 69.29 44.6 68.89 44.33 68.78 43.96 68.9 43.72 69.03 43.19 69.32 42.72 69.68 42.15 69.9 41.45 70.18 40.81 70.02 40.46 69.34 40.12 68.68 40.73 67.92 40.99 67.33 41.27 66.7 41.36 65.88 40.73 65.45 40.05 65 39.2 65.34 38.62 65.75 38.05 66.15 37.53 66.5 36.82 66.62 36.18 66.72 35.56 66.45 35.02 66.14 34.09 65.6 33.31 64.67 32.19 64.57 31.33 64.49 30.5 65.11 29.82 65.61 29.83 64.75 29.77 63.79 29.58 62.96 29.57 62.9 29.46 63 29.46 63.04 29.46 63.05 29.46 63.05 29.46 63.05 29.09 62.96 28.77 63.09 28.5 63.37 28.34 63.53 28.22 63.73 28.08 63.9 27.7 64.37 27.16 64.01 26.78 63.75 26.12 63.31 25.46 62.8 24.64 63.06 24.11 63.23 23.84 63.78 23.66 64.26 23.54 64.59 23.45 64.92 23.3 65.24 23.02 65.84 22.33 65.97 21.81 65.61 21.23 65.2 21.03 64.28 20.67 63.7 20.38 63.22 19.76 62.79 19.17 62.96 18.67 63.11 18.34 63.49 18.13 63.94 18.1 63.94 18.04 64 18.04 64.02 18 64.08 18 64.12 18 64.15 17.98 64.19 17.96 64.23 17.96 64.26 17.93 64.31 17.97 64.3 18 64.29 18.02 65.21 17.83 66.13 18 67.04 18.02 67.11 18.13 67.03 18.14 67.01 19.29 65.64 20.21 68.31 20.62 68.93 21.02 69.53 21.82 69.74 22.41 69.31 22.91 68.94 23.12 68.29 23.89 68.71 24.37 68.97 24.54 68.76 25.03 68.65 26.14 68.4 26.09 70.01 26.26 70.68 26.03 71.8 27.11 71.69 27.86 71.33 28.55 70.99 29.17 70.56 29.74 70.06 30.37 69.51 30.87 68.83 31.57 68.37 32.39 67.83 33.43 68.17 33.34 69.25 33.28 69.93 32.82 70.5 32.74 71.18 32.6 72.38 33.77 73 34.78 72.52 36.24 71.83 35.76 69.55 37.55 69.25 38.28 69.13 38.51 70.1 38.62 70.63 38.75 71.29 38.79 71.92 39.2 72.49 39.59 73.02 40.27 73.22 40.81 73.55 41.51 73.96 40.82 74.98 40.94 75.59 41.21 76.89 42.57 76.78 43.52 76.3 43.5 76.32 43.48 76.35 43.46 76.37 43.4 76.45 43.42 76.58 43.52 76.47 44.89 75.24 45.67 73.16 46.02 71.33 46.09 71.27 46.17 71.17 46.12 71.12Z" fill="#9E6F2B"/><path d="M47.57 57.58C47.57 57.53 47.53 57.54 47.5 57.57 47.27 56.94 46.87 56.54 46.1 56.57 45.12 56.61 44.27 57.17 43.27 56.88 42.19 56.56 41.69 55.47 40.43 55.66 40.03 55.72 39.68 55.98 39.38 56.22 38.65 56.79 38.14 57.42 37.18 57.58 35.84 57.8 34.7 56.9 33.56 56.38 32.7 55.99 31.7 55.91 30.81 56.26 30.08 56.56 29.57 57.23 29.28 57.95 28.82 59.12 29.53 60.58 29.53 61.78 29.53 61.86 29.66 61.75 29.66 61.7 29.66 61.69 29.66 61.67 29.66 61.66 29.67 61.65 29.67 61.65 29.68 61.65 30.44 60.52 31.3 59.24 32.84 59.49 34 59.68 34.82 60.7 35.79 61.27 37.57 62.32 38.6 60.32 39.63 59.24 40.52 58.3 41.83 58.53 42.42 59.71 42.84 60.57 42.49 61.64 42.8 62.54 43.05 63.29 43.88 63.66 44.58 63.32 44.98 63.13 45.28 62.76 45.66 62.53 46.55 61.99 47.08 62.98 47.34 63.65 47.35 63.68 47.37 63.68 47.39 63.68 47.39 63.69 47.39 63.7 47.38 63.71 47.35 63.85 47.56 63.72 47.58 63.64 48.01 61.68 47.71 59.56 47.57 57.58Z" fill="#9E6F2B"/><path d="M46.29 49.17C46.22 49.05 46.15 48.94 46.08 48.82 46.08 48.81 46.09 48.81 46.09 48.81 46.16 48.7 46.1 48.68 46.03 48.72 45.69 48.11 45.41 47.48 45.17 46.83 44.88 46.08 44.71 45.27 44.4 44.53 44.39 44.5 44.35 44.52 44.32 44.55 43.52 44.24 42.3 43.82 41.51 44.38 40.58 45.03 40.73 46.53 39.47 46.83 38.83 46.98 38.27 46.57 37.7 46.37 37.3 46.23 36.85 46.3 36.46 46.42 35.8 46.61 35.2 47.2 35.16 47.9 35.12 48.51 35.85 49.6 34.97 49.99 34.55 50.17 34 49.98 33.58 49.85 32.69 49.56 31.88 49.05 30.97 48.81 29.11 48.31 28.24 50.47 27.39 51.65 27.37 51.68 27.35 51.72 27.37 51.76 27.76 52.26 28.31 52.81 28.32 53.49 28.32 53.57 28.44 53.46 28.45 53.42 28.46 53.34 28.46 53.27 28.46 53.2 29.04 52.25 29.46 51.23 30.77 51.3 32.15 51.37 33.46 52.17 34.71 52.68 35.34 52.94 36.4 53.45 37.08 53.03 37.54 52.74 37.71 52.25 37.83 51.74 38.13 50.58 38.4 49.6 39.75 49.31 40.4 49.17 41.07 49.37 41.47 49.9 41.76 50.28 41.87 50.74 42.23 51.08 42.78 51.61 43.82 51.71 44.45 51.25 44.8 51 45 50.69 45.19 50.3 45.34 49.97 45.35 49.69 45.61 49.38 45.71 49.27 45.81 49.17 45.91 49.08 45.98 49.19 46.04 49.3 46.11 49.41 46.14 49.45 46.35 49.26 46.29 49.17Z" fill="#9E6F2B"/><path d="M40.16 39.24C39.59 38.58 38.96 38.01 38.24 37.52 37.6 37.08 36.84 36.86 36.21 36.4 36.22 36.38 36.21 36.37 36.18 36.37L36.18 36.37C36.17 36.36 36.16 36.36 36.16 36.36 36.13 36.34 36.09 36.37 36.07 36.41 35.42 36.59 34.87 36.9 34.41 37.4 33.81 38.05 33.64 38.93 33.17 39.64 32.22 41.08 30.95 39.88 29.71 40.03 29.17 40.09 28.71 40.52 28.56 41.02 28.36 41.65 28.69 42.4 28.74 43.03 28.87 44.44 27.54 44.56 26.52 44.59 25.91 44.61 25.22 44.73 24.79 45.22 24.56 45.47 24.41 45.74 24.3 46.06 24.2 46.37 24.34 46.72 24.25 47.03 24.22 47.11 24.33 47.03 24.35 46.99 24.39 47.1 24.44 47.19 24.52 47.28 24.6 47.38 24.72 47.53 24.83 47.62 24.82 47.63 24.81 47.64 24.8 47.66 24.68 47.81 24.87 47.8 24.95 47.7 25.38 47.16 25.87 46.73 26.6 46.8 27.11 46.85 27.54 47.22 27.96 47.47 28.27 47.65 28.74 47.82 29.08 47.6 29.4 47.39 29.58 47.07 29.75 46.73 30.22 45.77 30.56 44.98 31.8 44.91 32.47 44.87 33.05 44.78 33.57 44.33 34.13 43.84 34.6 43.07 34.97 42.43 35.56 41.42 35.68 40.21 36.58 39.4 37.55 38.53 38.94 39.07 39.98 39.46 40.06 39.48 40.22 39.31 40.16 39.24Z" fill="#9E6F2B"/><path d="M26.75 75.53C26.22 74.67 25.4 74.87 24.62 75.29 23.62 75.84 22.72 76.93 21.47 76.75 20.39 76.59 20.15 75.03 19.78 74.22 19.03 72.6 16.34 72.12 15.02 73.31 15.03 73.26 14.95 73.31 14.93 73.34 14.91 73.38 14.9 73.41 14.89 73.45 14.84 73.5 14.79 73.54 14.76 73.59 14.67 73.7 14.74 73.72 14.82 73.7 14.68 74.51 15.56 74.9 16.28 75.23 16.77 75.45 17.36 75.71 17.52 76.27 17.74 77.04 16.82 77.82 16.62 78.52 16.42 79.2 17.15 79.65 17.69 79.82 18.28 80.01 19.42 79.66 19.75 80.33 19.91 80.66 19.72 81.14 19.69 81.5 19.66 81.81 19.68 82.13 19.73 82.43 19.86 83.13 20.42 83.48 21.11 83.34 21.15 83.33 21.22 83.27 21.25 83.21 22.18 83.21 23.02 82.35 23.61 81.73 24.49 80.8 25.35 79.78 26.14 78.76 26.82 77.85 27.42 76.61 26.75 75.53Z" fill="#9E6F2B"/><path d="M41 80.67C40.98 80.71 40.96 80.74 40.93 80.77 39.62 81.01 38.51 80.54 37.22 80.41 36.4 80.33 35.61 80.83 34.85 81.07 33.68 81.45 32.49 80.54 32.73 79.31 32.86 78.59 33.31 77.9 33.22 77.15 33.17 76.75 32.96 76.04 32.44 76.05 31.93 76.06 31.47 76.45 31.06 76.73 30.24 77.28 29.51 77.48 28.77 76.69 28.08 75.96 28.5 74.83 28.48 73.92 28.51 73.84 28.55 73.75 28.58 73.66 28.63 73.55 28.49 73.62 28.46 73.68 27.84 74.81 27.59 76.1 27.14 77.3 26.74 78.35 26.03 79.42 26.83 80.47 27.48 81.32 28.8 81.17 29.54 81.93 30.31 82.73 29.09 84.09 29.92 84.98 30.51 85.61 31.79 85.35 32.55 85.4 33.69 85.49 34.8 86.32 35.92 85.87 37.02 85.43 37.9 84.22 38.72 83.41 39.65 82.51 40.56 81.78 41.23 80.64 41.35 80.45 41.06 80.57 41 80.67Z" fill="#9E6F2B"/><path d="M45.47 29.68C43.96 29.99 42.39 29.63 40.88 30.06 39.81 30.37 38.7 31.38 39.29 32.54 39.49 32.93 40.52 34.09 39.57 34.22 38.83 34.31 38.03 33.92 37.3 33.86 35.99 33.76 34.82 35.09 34.48 36.24 34.44 36.38 34.63 36.24 34.66 36.18 34.67 36.15 34.68 36.13 34.7 36.1 35.58 36.35 36.44 36.56 37.27 36.97 38.18 37.41 39 38.03 39.71 38.75 39.79 38.82 39.91 38.64 39.91 38.59 40.16 37.04 42.08 37.85 42.85 36.72 43.58 35.67 42.88 34.77 42.17 33.95 41.62 33.31 40.98 31.87 42.37 31.62 42.97 31.51 43.58 31.66 44.19 31.54 45.08 31.36 45.47 30.58 45.55 29.74 45.53 29.7 45.5 29.68 45.47 29.68Z" fill="#9E6F2B"/><path d="M60.49 32.17C59.2 31.87 57.97 31.39 56.69 31.06 55.77 30.83 54.72 30.86 53.87 30.41 53.87 30.41 53.86 30.41 53.86 30.41 53.85 30.4 53.82 30.4 53.78 30.43 53.16 30.86 52.61 31.44 52.39 32.17 52.28 32.51 52.46 32.93 52.56 33.25 52.68 33.64 52.83 34.23 52.28 34.45 52.06 34.53 51.77 34.51 51.55 34.49 49.95 34.35 48.55 33.33 47.03 34.37 46.54 34.7 46.14 35.29 46.07 35.89 45.96 36.87 46.47 37.73 46.71 38.66 46.96 39.63 46.48 40.5 45.59 40.93 45.22 41.11 44.83 41.23 44.48 41.45 43.88 41.82 43.77 42.44 43.78 43.08 43.75 43.04 43.74 43 43.71 42.97 43.66 42.88 43.47 43.06 43.51 43.14 43.82 43.73 44.07 44.34 44.43 44.9 44.47 44.97 44.61 44.82 44.63 44.78 45.03 43.86 45.61 43.5 46.59 43.66 47.19 43.76 47.76 43.95 48.36 43.99 49.18 44.04 50.31 43.59 50.57 42.73 50.9 41.62 50.14 40.53 50.45 39.4 50.79 38.15 52.27 38.22 53.21 37.72 53.99 37.3 54.25 36.64 54.33 35.78 54.42 34.7 54.49 32.62 56.07 32.98 57.11 33.22 57.93 34.1 59.05 34.11 60.01 34.12 60.37 32.98 60.53 32.24 60.52 32.21 60.52 32.17 60.49 32.17Z" fill="#9E6F2B"/><path d="M71.2 38.01C71.18 37.97 71.15 37.93 71.12 37.89 71.15 37.85 71.15 37.81 71.1 37.82 71.09 37.82 71.08 37.82 71.08 37.82 70.78 37.43 70.37 37.12 69.99 36.83 69.56 36.49 69.06 36.07 68.52 35.91 68.56 35.85 68.57 35.78 68.5 35.78 67.29 35.76 66.18 36.26 65.43 37.23 64.61 38.29 63.99 40.32 62.27 39.86 61.66 39.69 61.17 39.14 60.61 38.85 60.02 38.54 59.35 38.66 58.74 38.85 57.52 39.23 56.44 40.12 55.68 41.13 54.86 42.22 54.39 43.54 53.73 44.73 53.22 45.66 52.59 46.31 51.52 46.48 50.93 46.57 50.33 46.55 49.74 46.63 48.61 46.8 47.74 47.6 47.09 48.5 46.78 48.94 46.61 49.45 46.56 49.99 46.49 50.79 46.94 51.54 47.07 52.32 47.06 52.35 47.06 52.36 47.08 52.37 47.08 52.39 47.09 52.41 47.09 52.42 47.09 52.49 47.26 52.37 47.25 52.31 47.25 52.28 47.24 52.25 47.24 52.22 47.89 51.34 48.17 50.13 49.02 49.43 49.65 48.91 50.5 49.08 51.24 49.16 51.81 49.22 52.41 49.22 52.96 49.08 55.28 48.49 55.97 46.04 56.74 44.06 56.98 43.45 57.27 42.85 57.73 42.36 58.31 41.73 59.11 41.61 59.91 41.62 61.08 41.63 62.34 41.98 63.49 41.69 64.7 41.38 65.43 40.47 66.14 39.51 66.71 38.73 67.4 38.15 68.35 37.94 69.19 37.75 70.02 38.14 70.87 38.04 70.91 38.1 70.96 38.15 71 38.22 71.04 38.26 71.24 38.08 71.2 38.01Z" fill="#9E6F2B"/><path d="M76.74 44.77C76.71 44.74 76.68 44.72 76.65 44.7 76.53 44.14 76.35 43.55 76.13 43.02 76.15 42.98 76.15 42.94 76.11 42.93 76.1 42.93 76.1 42.93 76.1 42.93 76.08 42.9 76.07 42.86 76.06 42.82 76.04 42.79 75.99 42.85 75.99 42.87 76 42.88 76 42.89 76 42.9 75.24 42.71 74.53 42.42 73.79 42.18 73.03 41.93 72.27 41.97 71.49 42.14 69.97 42.47 68.47 43.32 67.32 44.35 66.22 45.34 65.81 46.74 64.83 47.8 63.34 49.42 61.39 48.09 59.63 48.58 58.38 48.93 57.49 50.02 56.76 51.03 55.84 52.29 55.27 53.74 54.43 55.04 53.86 55.92 53.15 56.38 52.08 56.2 51.46 56.1 50.8 55.84 50.17 56.02 49.23 56.29 48.24 57.07 47.82 57.99 47.81 57.93 47.8 57.86 47.78 57.8 47.77 57.75 47.66 57.84 47.67 57.89 47.69 58 47.71 58.12 47.72 58.23 47.71 58.24 47.71 58.26 47.7 58.28 47.69 58.31 47.7 58.31 47.73 58.3 47.88 59.38 47.86 60.45 47.91 61.54 47.92 61.65 48.08 61.5 48.08 61.44 48.29 59.59 49.34 58.04 51.24 57.66 52.66 57.37 54.09 57.98 55.52 57.74 58.07 57.32 58.83 54.45 59.94 52.53 60.62 51.35 61.52 50.69 62.89 50.57 64.36 50.44 65.88 51.06 67.31 50.49 68.75 49.92 69.03 48.36 69.49 47.07 70.16 45.14 72.41 43.65 74.44 43.92 75.22 44.03 75.91 44.43 76.51 44.92 76.52 44.95 76.53 44.97 76.54 45 76.57 45.05 76.64 45 76.68 44.94 76.73 44.9 76.79 44.8 76.74 44.77Z" fill="#9E6F2B"/><path d="M78.24 57.72C78.23 57.72 78.23 57.71 78.22 57.71 78.22 57.68 78.2 57.68 78.17 57.7 77.39 57.53 76.84 57.17 76.17 56.72 75.72 56.42 75.15 56.18 74.6 56.35 73.32 56.77 72.42 58.74 70.95 57.89 69.84 57.25 69.2 55.74 67.76 55.82 67.07 55.86 66.38 56.29 65.77 56.6 65.05 56.97 64.33 57.42 63.74 57.97 62.66 58.97 62.28 60.28 61.47 61.46 60.25 63.23 58.49 61.95 56.84 62.07 55.16 62.2 54.5 64.43 52.68 64.1 51.21 63.83 50.34 62.33 48.71 62.92 47.6 63.32 47.15 64.72 46.9 65.74 46.53 67.24 46.55 68.82 46.18 70.32 46.16 70.4 46.26 70.36 46.3 70.3 46.82 71.76 48.58 71.87 49.72 71.03 51.32 69.86 51.99 67.84 53.98 67.13 55.11 66.72 56.22 67.16 57.37 67.22 58.29 67.28 59.2 67.07 60.01 66.63 60.79 66.21 61.24 65.47 61.62 64.7 62.21 63.49 62.97 62.62 63.94 61.7 63.98 61.66 63.99 61.62 63.99 61.59 64.56 61.21 65.01 60.68 65.64 60.38 66.49 59.97 67.4 60.11 68.15 60.62 68.99 61.2 69.88 62.44 71.07 62.05 71.98 61.76 72.61 60.91 73.34 60.33 73.96 59.85 74.82 59.42 75.62 59.58 76.23 59.7 76.57 60.39 77.04 60.74 77 60.81 76.97 60.88 76.94 60.95 76.89 61.05 77.02 61 77.05 60.95 77.09 60.9 77.12 60.85 77.16 60.79 77.22 60.77 77.29 60.69 77.26 60.64 77.76 59.84 77.93 58.81 78.16 57.91 78.25 57.86 78.32 57.73 78.24 57.72Z" fill="#9E6F2B"/><path d="M71.77 69.44C70.62 69.41 69.51 69.02 68.36 69.05 67.47 69.07 66.57 69.4 65.86 69.94 65.3 70.36 64.89 70.9 64.44 71.44 64.07 71.88 63.52 72.61 62.9 72.85 62.9 72.83 62.9 72.82 62.87 72.82 62.05 72.9 61.32 72.87 60.53 72.59 59.98 72.39 59.51 72.52 58.98 72.74 57.86 73.2 57.02 74.28 56.2 75.14 55.34 76.04 54.66 77.09 53.78 77.98 53.21 78.57 52.52 79.04 51.71 79.23 50.92 79.42 50.3 78.97 49.59 78.71 48.55 78.33 47.89 79.28 47.2 79.87 46.43 80.54 45.46 80.19 44.79 79.58 44.38 79.2 44.09 78.35 43.56 78.15 42.74 77.83 42.08 79.17 41.72 79.68 40.74 81.09 39.72 82.51 38.41 83.64 38.38 83.6 38.36 83.56 38.34 83.52 38.31 83.47 38.21 83.57 38.23 83.61 38.25 83.65 38.28 83.69 38.3 83.73 38.27 83.76 38.24 83.79 38.2 83.82 38.16 83.86 38.15 83.95 38.22 83.89 38.26 83.86 38.3 83.83 38.34 83.79 39.48 85.73 42.71 85.52 44.47 84.71 45.78 84.1 46.57 82.74 47.77 81.96 48.69 81.36 49.61 81.61 50.57 81.89 51.41 82.14 52.17 82.18 53.03 81.97 54.22 81.68 55.14 80.82 55.95 79.95 56.43 79.44 56.89 78.91 57.39 78.41 57.8 78.01 58.23 77.64 58.77 77.42 59.26 77.22 59.84 77.2 60.36 77.13 61.99 76.91 63.06 75.78 64.11 74.61 65.57 72.98 67.27 71.43 69.45 70.92 69.89 70.82 70.33 70.73 70.76 70.6 70.67 70.68 70.72 70.8 70.82 70.71 70.89 70.65 70.94 70.59 70.99 70.53 71.04 70.52 71.08 70.5 71.13 70.49 71.21 70.46 71.33 70.25 71.19 70.29 71.37 70.06 71.54 69.81 71.75 69.59 71.8 69.56 71.86 69.44 71.77 69.44Z" fill="#9E6F2B"/><path d="M74.82 65.22C74.78 65.25 74.74 65.27 74.69 65.3 74.68 65.27 74.61 65.31 74.58 65.35 73.76 65.73 73.3 65.11 72.62 64.61 72.23 64.32 71.76 64.17 71.27 64.24 70.37 64.36 69.81 65.28 69.03 65.63 67.74 66.21 66.79 64.3 65.42 64.65 64.34 64.93 64.05 65.81 64.23 66.84 64.24 66.91 64.36 66.82 64.38 66.8 65.28 65.81 66.38 65.39 67.49 66.23 68.03 66.64 68.46 67.2 69.11 67.45 69.64 67.66 70.27 67.4 70.65 67.02 71.02 66.66 71.31 66.23 71.7 65.9 72.51 65.21 73.41 66.14 73.45 66.94 73.45 67.02 73.56 66.93 73.58 66.9 73.87 66.52 74.49 65.98 74.65 65.46 74.7 65.43 74.75 65.4 74.8 65.37 74.89 65.35 74.97 65.12 74.82 65.22Z" fill="#9E6F2B"/><path d="M33.13 32.57C33.15 32.52 33.13 32.48 33.04 32.53 32.15 33 31.17 33.35 30.56 34.2 30.54 34.22 30.49 34.32 30.55 34.33 30.98 34.38 31.4 34.41 31.81 34.57 32.16 34.7 32.46 34.95 32.82 35.1 33.17 35.24 33.57 35.1 33.8 34.81 34.28 34.21 33.52 33.06 33.13 32.57Z" fill="#9E6F2B"/><path d="M66.51 34.36C65.48 33.93 64.46 33.64 63.48 33.08 63.43 33.05 63.38 33.1 63.35 33.13 62.78 33.68 60.9 34.9 62.04 35.85 62.29 36.06 62.68 35.88 62.88 35.69 63.3 35.28 63.65 34.85 64.22 34.63 64.82 34.39 65.49 34.42 66.13 34.48 66.21 34.51 66.28 34.54 66.36 34.57 66.43 34.61 66.61 34.4 66.51 34.36Z" fill="#9E6F2B"/><path d="M76.77 46.17C75.61 46.03 74.29 46.54 73.41 47.27 72.84 47.75 72.18 49.12 73.26 49.51 73.93 49.75 74.64 49.34 75.24 49.07 76.44 48.52 77.42 49.2 78.51 49.65 78.51 49.68 78.51 49.72 78.52 49.75 78.53 49.88 78.74 49.71 78.74 49.62 78.62 48.28 78.39 46.37 76.77 46.17Z" fill="#9E6F2B"/></g><g><path d="M99.13 59.01C98.46 64.15 97.06 69.1 94.86 73.8 92.73 78.35 89.87 82.43 87.12 86.61 86.78 87.12 87.34 87.06 87.6 86.73 93.65 78.74 99.13 69 99.51 58.79 99.51 58.56 99.15 58.87 99.13 59.01Z" fill="#F9C2A5"/><path d="M85.93 87.8C85.83 87.7 85.65 87.86 85.59 87.93 85.38 88.14 85.16 88.38 84.9 88.52 84.78 88.58 84.65 88.73 84.65 88.87 84.65 89.02 84.8 88.97 84.88 88.93 85.25 88.75 85.55 88.44 85.84 88.15 85.89 88.08 86.03 87.89 85.93 87.8Z" fill="#F9C2A5"/></g><g><path d="M103.21 52.14C103.46 51.37 103.58 51 103.58 51 98.39 52.29 92.73 50.11 89.83 48.69 89.54 49.18 89.24 49.71 88.91 50.26 91.09 51.37 96.85 53.75 103.21 52.14Z" fill="#F9C2A5"/></g><g><path d="M110.29 43.75C109.74 42.99 109.05 42.83 108.33 42.92 108.19 41.26 107.66 39.63 107.08 38.07 106.57 36.73 105.81 35.35 104.6 34.52 103.68 33.89 102.63 33.45 101.57 33.12 101.27 33.03 100.95 32.96 100.64 32.92 99.66 32.8 98.63 32.85 97.67 33.05 97.13 33.16 96.59 33.32 96.08 33.52 93.84 34.27 91.6 35.44 90.04 37.25 89.3 38.11 88.79 39.13 88.5 40.22 88.08 41.79 88.34 43.24 88.86 44.75 88.41 45.28 88.05 45.86 87.87 46.54 87.59 47.58 88.18 48.54 88.98 49.14 89.81 49.75 90.9 49.99 91.88 50.22 93.2 50.52 94.49 50.88 95.8 51.2 98.67 51.91 101.56 52.09 104.4 51.16 104.78 51.04 105.14 50.89 105.48 50.71 107.45 50.18 109.16 48.86 110.23 47.06 110.83 46.03 111.03 44.78 110.29 43.75Z" fill="#F9C2A5"/><path d="M89.05 24.87C88.41 22.87 87.71 20.88 86.78 19 85.95 17.32 84.93 15.2 83.51 13.96 83.38 13.84 83.07 14.17 83.13 14.31 83.95 16.18 85.04 17.89 85.79 19.81 86.56 21.78 87.26 23.78 87.92 25.79 88.55 27.73 89.13 29.69 89.66 31.65 90.26 33.82 90.33 36.07 90.86 38.24 90.98 38.72 91.81 37.85 91.82 37.56 91.99 33.3 90.32 28.88 89.05 24.87Z" fill="#F9C2A5"/><path d="M89.05 24.87C88.41 22.87 87.71 20.88 86.78 19 85.95 17.32 84.93 15.2 83.51 13.96 83.38 13.84 83.07 14.17 83.13 14.31 83.95 16.18 85.04 17.89 85.79 19.81 86.56 21.78 87.26 23.78 87.92 25.79 88.55 27.73 89.13 29.69 89.66 31.65 90.26 33.82 90.33 36.07 90.86 38.24 90.98 38.72 91.81 37.85 91.82 37.56 91.99 33.3 90.32 28.88 89.05 24.87Z" fill="#F9C2A5"/><path d="M107.97 11.5C105.19 14.61 104.45 19.12 103.47 23.04 102.89 25.39 102.5 27.79 102.29 30.2 102.08 32.49 101.9 35.09 102.53 37.32 102.65 37.75 103.37 36.97 103.38 36.72 103.45 34.49 103.25 32.27 103.39 30.03 103.53 27.71 103.92 25.4 104.43 23.13 105.32 19.17 106.19 15.09 108.29 11.59 108.47 11.29 108.1 11.35 107.97 11.5Z" fill="#F9C2A5"/><g><path d="M105.28 41.21C105.34 41.06 105.44 40.93 105.51 40.78 105.53 40.69 105.4 40.74 105.36 40.8 105.28 40.94 105.19 41.03 105.06 41.23 103.37 42.86 101.4 43.57 99.05 43.51 96.84 43.45 94.96 42.64 93.35 41.15 93.3 41.08 93.25 41.02 93.21 40.95 93.18 40.91 93.09 41.01 93.11 41.04 93.56 41.98 93.9 42.92 94.18 43.92 94.44 44.9 94.68 45.88 95.09 46.81 95.86 48.54 97.15 50.03 99.08 50.12 100.81 50.2 102.15 49.58 103.18 47.6 103.66 46.67 103.79 45.69 104.07 44.68 104.36 43.61 104.74 42.54 105.19 41.52 105.21 41.42 105.23 41.32 105.28 41.21Z" fill="#F9C2A5" opacity="0.5"/><path d="M103.52 42.71C101.19 44.56 97.07 44.43 94.52 42.97 94.52 42.97 94.51 42.97 94.51 42.97 94.19 42.65 94.66 43.74 94.7 43.89 95.38 46.77 96.88 50.16 100.43 49.02 102.93 48.21 103.61 44.99 103.79 42.73 103.81 42.55 103.59 42.66 103.52 42.71Z" fill="#821001"/><path d="M95.04 45.1C95.97 44.7 97.11 44.62 98 44.7 99.49 44.83 100.8 45.39 102.11 46.11 102.38 46.26 102.65 46.42 102.91 46.58 103.47 45.35 103.7 43.91 103.79 42.73 103.81 42.56 103.58 42.66 103.51 42.71 101.18 44.56 97.06 44.43 94.51 42.97 94.51 42.97 94.5 42.97 94.5 42.97 94.18 42.65 94.65 43.74 94.69 43.89 94.8 44.28 94.92 44.7 95.04 45.1Z" fill="#821001" opacity="0.5"/><g><path d="M102.51 43.34C100.13 44.5 96.74 44.24 94.53 42.97 94.53 42.97 94.52 42.97 94.52 42.97 94.2 42.65 94.67 43.74 94.71 43.89 94.78 44.19 94.86 44.5 94.96 44.8 100.55 47.27 102.09 44.72 102.51 43.34Z" fill="#FFFFFF"/><path d="M96.74 44.39C97.74 44.51 98.46 44.72 99.52 44.63 100.51 44.54 101.45 44.27 102.32 43.84 102.4 43.66 102.46 43.49 102.51 43.33 102 43.58 101.43 43.77 100.84 43.89 98.71 44.33 96.25 43.95 94.53 42.95 94.53 42.95 94.52 42.95 94.52 42.95 94.2 42.63 94.67 43.72 94.71 43.87 94.78 44.17 94.86 44.48 94.96 44.78 95.25 44.91 95.53 45.03 95.81 45.13 95.73 44.53 95.96 44.3 96.74 44.39Z" fill="#DEDEDE"/><path d="M95.74 46.81C96.58 48.43 97.89 49.59 99.95 49.14 99.54 45.69 97.01 46.27 95.74 46.81Z" fill="#F78982" opacity="0.8"/></g><path d="M98.86 47.26C98.8 47.4 98.5 47.41 98.2 47.28 97.89 47.15 97.69 46.93 97.75 46.79 97.81 46.65 98.1 46.64 98.41 46.77 98.71 46.9 98.91 47.12 98.86 47.26Z" fill="#F78982"/><g><path d="M95.38 43.22C94.57 42.91 93.99 42.3 93.51 41.58 93.49 41.55 93.43 41.62 93.44 41.65 93.76 42.4 94.39 43.3 95.27 43.37 95.32 43.38 95.45 43.26 95.38 43.22Z" fill="#E29572"/><path d="M104.93 41.41C104.56 42.07 104.02 42.56 103.33 42.86 103.31 42.87 103.25 42.95 103.31 42.93 104.07 42.7 104.71 42.1 105.05 41.39 105.11 41.28 104.96 41.35 104.93 41.41Z" fill="#E29572"/></g></g><g><path d="M89.05 24.87C88.41 22.87 87.71 20.88 86.78 19 85.95 17.32 84.93 15.2 83.51 13.96 83.38 13.84 83.07 14.17 83.13 14.31 83.5 15.13 83.91 15.93 84.32 16.72 84.49 16.44 84.56 16.4 84.89 16.75 85.78 17.69 89.91 27.14 90.76 32.8 91.21 35.71 91.61 37.09 91.72 37.82 91.78 37.72 91.83 37.63 91.83 37.57 91.99 33.3 90.32 28.88 89.05 24.87Z" fill="#F9C2A5" opacity="0.5"/></g><path d="M88.59 26.7C87.73 24.07 86.89 21.39 85.77 18.86 85.75 18.82 85.67 18.9 85.68 18.93 86.56 21.58 87.53 24.2 88.39 26.86 89.25 29.52 90.03 32.21 90.96 34.84 90.99 34.93 91.16 34.77 91.14 34.7 90.34 32.02 89.46 29.36 88.59 26.7Z" fill="#F9C2A5"/><path d="M105.57 16.34C104.51 18.98 103.9 21.86 103.35 24.64 102.81 27.34 102.22 30.2 102.41 32.97 102.42 33.08 102.58 32.93 102.58 32.87 102.68 31.46 102.67 30.05 102.85 28.64 103.03 27.19 103.32 25.75 103.6 24.31 104.14 21.6 104.93 18.99 105.62 16.32 105.64 16.27 105.58 16.32 105.57 16.34Z" fill="#F9C2A5"/><path d="M101.64 33.9C98.68 32.57 94.73 34.32 92.58 36.45 92.37 36.66 92.46 36.94 92.75 36.72 95.39 34.67 98.09 33.89 101.4 34.26 101.52 34.27 101.82 33.99 101.64 33.9Z" fill="#F9C2A5"/><g><path d="M110.29 43.75C109.74 42.99 109.05 42.83 108.33 42.92 108.19 41.26 107.66 39.63 107.08 38.07 106.57 36.73 105.81 35.35 104.6 34.52 104.21 34.25 103.81 34.02 103.38 33.82 103.35 32.55 103.33 31.28 103.41 30.01 103.55 27.69 103.94 25.38 104.45 23.11 105.34 19.15 106.21 15.07 108.31 11.57 108.49 11.27 108.11 11.34 107.98 11.48 106.39 13.26 105.47 15.49 104.79 17.82 105.17 16.75 105.88 14.87 106.18 14.82 106.59 14.75 105.15 18.02 104.25 21.92 103.35 25.82 102.83 30.69 102.93 33.45 103.02 35.81 103.53 37.04 103.85 35.81 104.17 34.58 107.65 37.3 107.13 43.5 106.74 45.44 107.65 42.98 109.12 43.5 110.6 44.02 110.81 48.18 104.69 50.42 101.15 51.71 95.69 51.2 91.31 48.74 88.42 46.99 89.19 45.38 92.08 45.7 90.02 44.58 88.29 43.02 88.94 38.97 88.75 39.38 88.6 39.8 88.48 40.23 88.06 41.8 88.32 43.25 88.84 44.76 88.39 45.29 88.03 45.87 87.85 46.55 87.57 47.59 88.16 48.55 88.96 49.15 89.79 49.76 90.88 50 91.86 50.23 93.18 50.53 94.47 50.89 95.78 51.21 98.65 51.92 101.54 52.1 104.38 51.17 104.76 51.05 105.12 50.9 105.46 50.72 107.43 50.19 109.14 48.87 110.21 47.07 110.83 46.03 111.03 44.78 110.29 43.75Z" fill="#F9C2A5" opacity="0.5"/></g><path d="M105.45 39.66C103.73 43.39 98.6 43.09 95.3 42.1 95.14 42.05 94.81 42.44 95.01 42.52 98.47 43.96 104.12 43.69 105.66 39.61 105.71 39.46 105.48 39.59 105.45 39.66Z" fill="#F9C2A5"/><path d="M92.53 47.12C92.5 46.87 92.08 47.32 92.06 47.41 91.55 49.03 90.95 50.51 89.97 51.9 89.54 52.51 88.98 53.03 88.43 53.52 87.8 54.08 87.05 54.62 86.21 54.78 86 54.82 85.88 54.74 85.69 54.67 84.98 54.4 84.26 54.97 84.28 55.71 84.29 56.02 84.44 56.33 84.66 56.55 84.94 56.84 85.33 56.77 85.62 56.51 85.87 56.29 86.02 56.08 86.08 55.89 86.35 55.78 86.61 55.61 86.91 55.42 87.94 54.75 88.96 54.16 89.83 53.28 91.29 51.77 92.82 49.29 92.53 47.12Z" fill="#F9C2A5"/><path d="M115.03 52.7C114.72 52.66 114.34 52.75 114.13 52.95 113.77 52.73 113.41 52.5 113.05 52.27 112.22 51.73 111.41 51.16 110.64 50.53 109.32 49.45 108.02 48.36 106.94 47.04 106.86 46.95 106.66 47.19 106.68 47.28 106.92 48.12 107.49 48.66 108.1 49.25 108.99 50.11 109.77 51.07 110.65 51.94 111.48 52.75 112.36 53.49 113.32 54.13 113.39 54.18 113.47 54.23 113.54 54.28 113.57 54.3 113.6 54.45 113.62 54.49 113.66 54.55 113.72 54.6 113.79 54.64 114.09 54.78 114.5 54.62 114.77 54.47 115.05 54.31 115.26 54.03 115.4 53.75 115.54 53.47 115.68 53 115.34 52.8 115.27 52.75 115.15 52.71 115.03 52.7Z" fill="#F9C2A5"/><g><path d="M90.58 36.39C90.57 36.37 90.54 36.41 90.54 36.42 90.67 37.17 90.84 37.94 90.99 38.69 91.01 38.75 91.12 38.64 91.11 38.59 91.03 37.88 90.94 37.01 90.58 36.39Z" fill="#E29572"/><path d="M91.85 35.47C91.84 35.41 91.75 35.49 91.75 35.53 91.68 36.39 91.7 37.42 92.05 38.22 92.08 38.28 92.18 38.17 92.18 38.12 92.01 37.24 91.94 36.38 91.85 35.47Z" fill="#E29572"/><path d="M102.14 33.22C102.13 33.18 102.04 33.26 102.04 33.3 102.08 34.11 102.02 34.93 102.11 35.73 102.12 35.79 102.25 35.68 102.25 35.64 102.24 34.84 102.31 34.01 102.14 33.22Z" fill="#E29572"/><path d="M103.42 33.7C103.41 33.64 103.32 33.73 103.32 33.76 103.24 34.45 103.35 35.25 103.48 35.93 103.49 35.99 103.6 35.88 103.6 35.85 103.65 35.14 103.47 34.4 103.42 33.7Z" fill="#E29572"/><path d="M92 47.28C91.64 48.22 91.46 49.22 90.84 50.05 90.81 50.1 90.87 50.09 90.89 50.06 91.55 49.25 91.82 48.22 92.11 47.24 92.14 47.15 92.02 47.24 92 47.28Z" fill="#E29572"/><path d="M92.66 47.74C92.53 48.76 92.19 49.64 91.78 50.57 91.74 50.67 91.85 50.62 91.89 50.57 92.41 49.74 92.74 48.68 92.75 47.69 92.74 47.64 92.66 47.71 92.66 47.74Z" fill="#E29572"/><path d="M108.11 49.27C107.77 48.94 107.43 48.61 107.14 48.23 107.12 48.21 107.06 48.27 107.08 48.3 107.36 48.68 107.66 49.07 108.03 49.37 108.05 49.39 108.14 49.3 108.11 49.27Z" fill="#E29572"/><path d="M109.03 48.8C108.78 48.6 108.51 48.43 108.28 48.21 108.06 47.99 107.87 47.75 107.69 47.49 107.67 47.46 107.59 47.53 107.61 47.56 107.92 48.08 108.36 48.66 108.93 48.93 108.97 48.95 109.07 48.83 109.03 48.8Z" fill="#E29572"/></g><path d="M102.25 48.68C101.42 49.31 100.64 49.96 99.55 50 98.97 50.02 98.34 49.87 97.81 49.65 97.25 49.41 96.81 48.95 96.31 48.62 96.27 48.6 96.2 48.68 96.23 48.7 97.13 49.67 98.1 50.19 99.44 50.22 100.56 50.25 101.48 49.48 102.28 48.79 102.35 48.72 102.36 48.59 102.25 48.68Z" fill="#E29572"/><g><g><path d="M105.2 8.36C104.98 11.11 106.33 13.34 108.23 13.35 110.12 13.35 111.83 11.13 112.06 8.38 112.27 5.63 110.92 3.4 109.03 3.39 107.13 3.39 105.42 5.61 105.2 8.36Z" fill="#FFFFFF"/><g><path d="M105.2 8.36C105.23 7.96 105.29 7.58 105.38 7.2 105.33 7.44 105.3 7.68 105.28 7.93 105.09 10.26 106.24 12.15 107.84 12.16 109.44 12.16 110.89 10.28 111.08 7.95 111.27 5.62 110.12 3.73 108.52 3.73 107.87 3.73 107.24 4.04 106.72 4.56 107.38 3.83 108.18 3.39 109.02 3.39 110.91 3.4 112.26 5.63 112.05 8.38 111.82 11.13 110.11 13.35 108.22 13.35 106.33 13.34 104.98 11.11 105.2 8.36Z" fill="#DEDEDE"/></g></g><g><path d="M105.58 8.56C105.39 10.42 106.24 12 107.48 12.09 108.72 12.18 109.87 10.74 110.06 8.88 110.25 7.02 109.4 5.44 108.16 5.35 106.92 5.26 105.77 6.7 105.58 8.56Z" fill="#B79A7A"/><path d="M105.58 8.56C105.39 10.42 106.24 12 107.48 12.09 108.72 12.18 109.87 10.74 110.06 8.88 110.25 7.02 109.4 5.44 108.16 5.35 106.92 5.26 105.77 6.7 105.58 8.56Z" fill="#00BFD1"/><path d="M106.1 8.72C105.95 10.14 106.61 11.35 107.55 11.41 108.49 11.48 109.37 10.38 109.51 8.96 109.65 7.54 109 6.33 108.06 6.27 107.12 6.2 106.24 7.3 106.1 8.72Z" fill="#68D3D8"/><path d="M106.89 8.87C106.8 9.77 107.21 10.54 107.81 10.58 108.41 10.62 108.97 9.93 109.06 9.02 109.15 8.12 108.74 7.35 108.14 7.31 107.54 7.27 106.98 7.96 106.89 8.87Z" fill="#00798E"/><g><path d="M110.08 8.34C110.08 8.51 110.08 8.69 110.05 8.88 109.86 10.74 108.71 12.18 107.47 12.09 106.23 12 105.38 10.42 105.57 8.56 105.59 8.39 105.62 8.22 105.65 8.06 106.9 9.16 108.85 9.54 110.08 8.34Z" fill="#00BFD1"/></g><path d="M107.84 7.74C107.83 8.49 108.23 9.08 108.73 9.06 109.23 9.04 109.64 8.42 109.65 7.67 109.66 6.92 109.26 6.33 108.76 6.35 108.27 6.37 107.86 6.99 107.84 7.74Z" fill="#FFFFFF"/><path d="M108.18 9.83C108.18 10.11 108.32 10.33 108.51 10.32 108.69 10.31 108.85 10.09 108.85 9.81 108.85 9.53 108.71 9.32 108.52 9.32 108.33 9.32 108.18 9.55 108.18 9.83Z" fill="#FFFFFF"/></g></g><g><g><path d="M78.84 11.95C79.24 14.64 81.04 16.48 82.86 16.06 84.68 15.64 85.83 13.12 85.42 10.43 85.02 7.74 83.22 5.9 81.4 6.32 79.59 6.74 78.44 9.26 78.84 11.95Z" fill="#FFFFFF"/><g><path d="M78.84 11.95C78.78 11.56 78.76 11.18 78.76 10.8 78.77 11.04 78.78 11.28 78.82 11.53 79.16 13.81 80.68 15.36 82.22 15.01 83.76 14.65 84.74 12.52 84.4 10.24 84.07 7.96 82.54 6.4 81 6.76 80.37 6.91 79.84 7.34 79.46 7.96 79.92 7.11 80.6 6.51 81.41 6.32 83.23 5.9 85.03 7.74 85.43 10.43 85.84 13.12 84.69 15.64 82.87 16.06 81.04 16.48 79.25 14.64 78.84 11.95Z" fill="#DEDEDE"/></g></g><g><path d="M79.32 11.8C79.51 13.59 80.62 14.91 81.81 14.75 82.99 14.59 83.79 13 83.6 11.21 83.41 9.42 82.3 8.1 81.11 8.26 79.94 8.42 79.13 10.01 79.32 11.8Z" fill="#B79A7A"/><path d="M79.32 11.8C79.51 13.59 80.62 14.91 81.81 14.75 82.99 14.59 83.79 13 83.6 11.21 83.41 9.42 82.3 8.1 81.11 8.26 79.94 8.42 79.13 10.01 79.32 11.8Z" fill="#00BFD1"/><path d="M79.84 11.85C79.98 13.22 80.83 14.22 81.73 14.1 82.63 13.97 83.25 12.77 83.1 11.4 82.96 10.03 82.1 9.03 81.2 9.15 80.31 9.27 79.7 10.48 79.84 11.85Z" fill="#68D3D8"/><path d="M80.62 11.82C80.71 12.69 81.25 13.33 81.82 13.25 82.39 13.17 82.78 12.4 82.7 11.53 82.6 10.66 82.07 10.02 81.49 10.1 80.92 10.19 80.53 10.96 80.62 11.82Z" fill="#00798E"/><g><path d="M83.52 10.7C83.56 10.86 83.59 11.04 83.6 11.21 83.79 13 82.99 14.59 81.81 14.75 80.62 14.91 79.51 13.59 79.32 11.8 79.3 11.63 79.3 11.47 79.3 11.31 80.69 12.1 82.59 12.07 83.52 10.7Z" fill="#00BFD1"/></g><path d="M81.3 10.57C81.44 11.28 81.93 11.75 82.39 11.64 82.86 11.52 83.13 10.86 82.98 10.15 82.85 9.44 82.36 8.97 81.89 9.08 81.42 9.2 81.16 9.87 81.3 10.57Z" fill="#FFFFFF"/><path d="M82.02 12.48C82.07 12.74 82.25 12.92 82.43 12.88 82.6 12.84 82.7 12.59 82.65 12.33 82.6 12.07 82.42 11.89 82.25 11.93 82.07 11.97 81.97 12.21 82.02 12.48Z" fill="#FFFFFF"/></g></g><path d="M79.32 6.34C79.32 6.34 79.9 4.32 81.62 5.55 82.36 5.96 81.46 4.25 80.43 4.43 79.41 4.62 78.58 7.31 79.32 6.34Z" fill="#353434"/><path d="M106.88 1.9C106.88 1.9 107.97-0.35 109.56 0.93 110.32 1.45 109.56-0.37 108.19 0.06 106.81 0.49 106.41 2.35 106.88 1.9Z" fill="#353434"/><path d="M92.04 47.88C91.58 49.16 91.12 50.39 90.38 51.54 89.62 52.71 88.6 53.68 87.48 54.5 87.42 54.54 87.39 54.7 87.5 54.63 89.79 53.06 91.54 50.59 92.13 47.84 92.14 47.78 92.05 47.85 92.04 47.88Z" fill="#F9C2A5"/><path d="M114.16 53.37C113.24 52.64 112.16 52.15 111.25 51.41 110.39 50.72 109.38 49.97 108.7 49.1 108.69 49.08 108.62 49.14 108.64 49.17 109.24 50.05 110.17 50.67 110.93 51.4 111.83 52.25 112.99 52.87 114.05 53.49 114.09 53.52 114.2 53.41 114.16 53.37Z" fill="#F9C2A5"/></g><g><path d="M86.65 95.98C85.53 94.86 84 94 82.39 93.92 82.27 93.91 82.13 94.15 82.28 94.15 83.85 94.23 85.35 95.07 86.45 96.16 86.54 96.26 86.74 96.07 86.65 95.98Z" fill="#F9C2A5"/><path d="M87.14 96.32C87.08 96.26 87.02 96.2 86.96 96.14 86.87 96.05 86.67 96.24 86.76 96.33 86.82 96.39 86.88 96.45 86.94 96.51 87.03 96.6 87.23 96.41 87.14 96.32Z" fill="#F9C2A5"/></g><path d="M18.44 53.9C18.44 53.9 23.83 65.39 16.28 75.22 13.49 78.64 28.16 81.02 28.16 62.69 29.44 48.95 15.51 42.35 18.44 53.9Z" fill="none"/><g><path d="M56.42 33.15C55.59 33.11 54.8 34.48 55.87 34.53 63.28 34.89 68.66 39.38 71.77 44.28 74.91 49.25 76.29 55.91 73 61.41 72.45 62.34 73.85 62.46 74.32 61.68 80.84 50.74 71.94 33.9 56.42 33.15Z" fill="#9E6F2B"/><path d="M72.03 63.96C71.62 64.15 71.38 64.49 71.37 64.84 71.37 64.85 71.36 64.87 71.34 64.91 71.31 65 71.26 65.08 71.2 65.17 71.06 65.39 70.89 65.59 70.71 65.8 70.36 66.2 70 66.59 69.53 66.88 69.19 67.09 68.91 67.56 69.13 67.86 69.36 68.19 69.88 68 70.19 67.81 70.88 67.39 71.43 66.78 71.91 66.22 72.44 65.61 73 64.91 72.95 64.16 72.93 63.78 72.34 63.81 72.03 63.96Z" fill="#9E6F2B"/></g><g><path d="M18.44 53.9C18.44 53.9 23.83 65.39 16.28 75.22 13.49 78.64 28.16 81.02 28.16 62.69 29.44 48.95 15.51 42.35 18.44 53.9Z" fill="none"/><path d="M17.18 64.1C16.76 58.75 14.29 57.21 11.74 57.81 9.96 58.4 10.81 59.51 11.66 59.68 11.66 59.68 15.15 61.12 14.47 66.65 13.78 72.18 17.61 69.53 17.18 64.1Z" fill="none"/><path d="M47.66 56.1C47.87 67.08 44.98 81.53 32.83 87.5 34.43 88.12 44 91.2 57.93 82 55.3 83.2 52.36 84.05 49.35 83.97 39.82 83.72 51.28 75.64 47.66 56.1Z" fill="#81531A" opacity="0.7"/></g><g><path d="M18.44 53.9C18.44 53.9 23.83 65.39 16.28 75.22 13.49 78.64 28.16 81.02 28.16 62.69 29.44 48.95 15.51 42.35 18.44 53.9Z" fill="none"/><path d="M17.18 64.1C16.76 58.75 14.29 57.21 11.74 57.81 9.96 58.4 10.81 59.51 11.66 59.68 11.66 59.68 15.15 61.12 14.47 66.65 13.78 72.18 17.61 69.53 17.18 64.1Z" fill="none"/><path d="M25.34 86.35C23.65 83.63 28.87 80.24 29.61 66.86 27.87 76.67 25.29 82.74 18.78 84.28 20.09 86.3 23.69 87.44 27.02 87.7 26.33 87.41 25.73 86.98 25.34 86.35Z" fill="#81531A" opacity="0.7"/></g><g><path d="M11.74 57.81C9.96 58.4 10.81 59.51 11.66 59.68 11.66 59.68 15.15 61.12 14.47 66.65 13.78 72.18 17.62 69.53 17.18 64.1 16.76 58.75 14.29 57.21 11.74 57.81Z" fill="none"/><path d="M18.44 53.9C18.44 53.9 23.83 65.39 16.28 75.22 13.49 78.64 28.16 81.02 28.16 62.69 29.44 48.95 15.51 42.35 18.44 53.9Z" fill="none"/><path d="M12.85 77.26C15.06 73.57 17.15 73.61 17.99 67.04 16.23 72.5 12.97 76.86 9.35 74.11 8.82 77.58 10.78 81.63 14.5 83.37 13.14 82.31 11.59 80.35 12.85 77.26Z" fill="#81531A" opacity="0.7"/></g></g><g><path d="M17.18 64.1C16.76 58.75 14.29 57.21 11.74 57.81 9.96 58.4 10.81 59.51 11.66 59.68 11.66 59.68 15.15 61.12 14.47 66.65 13.78 72.18 17.61 69.53 17.18 64.1Z" fill="none"/><path d="M18.44 53.9C18.44 53.9 23.83 65.39 16.28 75.22 13.49 78.64 28.16 81.02 28.16 62.69 29.44 48.95 15.51 42.35 18.44 53.9Z" fill="none"/><path d="M78.27 47.79C79.34 72.98 46.14 82.67 51.62 72.41 63.71 46.39 31.41 33.6 44.56 31.12 53.5 29.43 66.2 34.73 71.26 37.81 70.11 36.83 68.83 35.87 67.38 34.93 58.86 30.44 39.89 25.77 28.98 35.39 25.41 35.48 19.35 39.24 17.62 45.65 13.5 47.3 9.68 53.29 9.16 58.4 9.16 58.4 3.6 65.15 9.4 73.82 8.5 78.48 12.21 84.34 18.72 84.22 20.7 87.75 29.18 88.28 32.59 87.39 32.59 87.39 45.2 93.3 63.71 77.63 73.67 68.96 81.35 58.06 78.27 47.79ZM14.47 66.65C15.15 61.12 11.66 59.68 11.66 59.68 10.81 59.51 9.96 58.41 11.74 57.81 14.29 57.21 16.76 58.74 17.18 64.1 17.61 69.53 13.78 72.18 14.47 66.65ZM28.16 62.7C28.16 81.03 13.5 78.64 16.28 75.23 23.83 65.39 18.44 53.91 18.44 53.91 15.51 42.35 29.44 48.95 28.16 62.7ZM33.13 69.4C33.83 65.91 34.18 62.11 33.91 58.55 33.6 54.43 32.66 50.39 30.43 46.88 29.61 45.59 28.53 44.5 27.71 43.22 27.64 43.12 27.58 43.01 27.51 42.88 26.72 41.48 25.44 38.42 27.11 37.37 29.48 35.88 32.97 36.53 35.39 37.58 43.65 41.17 46.35 51.78 46.5 59.89 46.85 78.55 29.78 86.11 33.13 69.4Z" fill="#81531A" opacity="0.5"/></g></g></svg>