<svg width="142.25" height="100" viewBox="0 0 142.25 100" xmlns="http://www.w3.org/2000/svg" xmlns:xlink="http://www.w3.org/1999/xlink" xml:space="preserve" overflow="hidden"><defs></defs><g><g><path d="M80.95 47.07C80.95 47.07 79.39 51.1 78.19 55.57 76.99 60.03 77.84 61.38 81.16 63.86 84.49 66.34 85.27 67.12 88.46 69.31 91.65 71.51 93.99 73.49 94.13 75.05 94.27 76.61 94.2 77.39 93.07 79.16 91.94 80.93 85.84 90.21 84.78 92.41 84.78 92.41 83.65 91.28 83.43 91.35 83.22 91.42 83.5 92.41 83.5 92.41 83.5 92.41 82.79 91.77 82.58 92.06 82.36 92.34 82.93 93.19 82.93 93.19 82.93 93.19 81.87 93.61 80.81 92.9 79.75 92.19 78.97 92.12 78.33 92.83 77.76 91.77 76.41 92.12 75.85 92.9 74.78 92.19 73.51 93.11 73.3 95.45 73.09 97.79 74.79 98.99 75.78 98.35 76.49 98.64 76.85 98.28 76.85 98.28 76.85 98.28 79.7 98.53 83.68 98.31 87.66 98.09 89.04 97.45 88.52 95.68 88 93.91 88.22 93.82 89.73 90.75 91.24 87.68 94.66 82.88 97.73 80.38 100.88 77.83 101.01 77.96 100.62 76.06 102.05 77.01 102.26 76.62 101.05 75.06 103.08 75.58 102.69 74.93 101.83 74.15 100.96 73.37 100.58 72.9 100.36 71.9 100.14 70.9 98.72 66.32 98.72 66.32 98.72 66.32 89.31 60.02 86.97 57.31 84.62 54.6 84.99 52.11 86.45 48.74 87.92 45.37 89.53 42.14 86.97 42.8 84.39 43.49 80.95 47.07 80.95 47.07Z" fill="#F9B522"/><g><path d="M84.75 61.92C84.75 61.92 84.54 63.46 85.31 63.46 86.08 63.46 86.75 60.67 85.69 60.78 84.94 60.84 84.75 61.92 84.75 61.92Z" fill="#6D3303"/><path d="M90.62 63.67C90.62 63.67 90.48 64.82 91.15 65.1 91.82 65.39 92.13 64.43 91.87 63.62 91.6 62.8 90.9 62.69 90.62 63.67Z" fill="#6D3303"/><path d="M87.31 66.71C87.31 66.71 87.74 67.31 87.52 67.55 87.31 67.79 86.73 67.29 86.75 67.02 86.78 66.75 87.05 66.35 87.31 66.71Z" fill="#6D3303"/><path d="M90.06 67.88C90.06 67.88 89.96 69 90.42 69.51 90.88 70.01 91.5 69.46 91.36 68.6 91.21 67.73 90.21 66.73 90.06 67.88Z" fill="#6D3303"/><path d="M80.61 56.58C80.61 56.58 81.06 57.15 80.73 57.61 80.4 58.07 79.77 58.78 79.77 57.85 79.77 56.91 80.3 56.15 80.61 56.58Z" fill="#6D3303"/><path d="M96.66 68.84C96.66 68.84 97.1 69.31 97.03 69.97 96.96 70.63 96.48 71.18 96.01 70.41 95.53 69.64 95.93 68.25 96.66 68.84Z" fill="#6D3303"/><path d="M98.02 74.55C98.02 74.55 98.06 76.49 97.47 76.56 96.88 76.64 96.3 75.65 96.51 74.69 96.73 73.74 97.17 73.41 97.57 73.56 97.98 73.7 98.05 74.14 98.02 74.55Z" fill="#6D3303"/><path d="M99.7 71.73C99.7 71.73 99.88 72.5 99.56 72.72 99.23 72.94 98.9 72.47 98.97 71.95 99.04 71.43 99.52 71.21 99.7 71.73Z" fill="#6D3303"/><path d="M84.28 55.39C84.28 55.39 84.32 57.26 83.47 57.37 82.63 57.48 82.59 56.53 82.74 55.72 82.89 54.92 83.95 53.96 84.28 55.39Z" fill="#6D3303"/><path d="M84.54 49.42C84.54 49.42 84.61 50.67 83.81 50.74 83 50.81 84.32 48.54 84.54 49.42Z" fill="#6D3303"/></g><g><path d="M75.85 92.91C75.85 92.91 75.71 93.26 75.53 93.78 75.44 94.04 75.34 94.35 75.25 94.67 75.21 94.83 75.17 95.01 75.13 95.17 75.1 95.34 75.07 95.52 75.05 95.69 75.03 95.87 75.02 96.04 75.02 96.22 75.03 96.39 75.03 96.56 75.05 96.72 75.08 96.88 75.11 97.04 75.15 97.18 75.17 97.26 75.19 97.32 75.22 97.39 75.25 97.46 75.27 97.52 75.3 97.58 75.35 97.7 75.42 97.8 75.47 97.91 75.53 98 75.59 98.08 75.63 98.15 75.73 98.28 75.78 98.36 75.78 98.36 75.78 98.36 75.7 98.31 75.57 98.22 75.51 98.17 75.43 98.1 75.34 98.02 75.26 97.93 75.17 97.84 75.09 97.71 75 97.59 74.92 97.45 74.86 97.3 74.79 97.15 74.73 96.98 74.69 96.8 74.65 96.62 74.62 96.43 74.61 96.24 74.61 96.05 74.61 95.85 74.63 95.66 74.68 95.27 74.77 94.9 74.9 94.56 74.96 94.39 75.03 94.23 75.1 94.08 75.17 93.93 75.24 93.8 75.32 93.67 75.57 93.18 75.85 92.91 75.85 92.91Z" fill="#6D3303"/><path d="M78.32 92.84C78.32 92.84 78.1 93.16 77.82 93.63 77.68 93.86 77.51 94.14 77.36 94.45 77.28 94.6 77.21 94.76 77.14 94.92 77.06 95.08 77 95.25 76.94 95.42 76.88 95.59 76.83 95.76 76.79 95.93 76.75 96.1 76.72 96.27 76.7 96.43 76.68 96.59 76.67 96.76 76.67 96.91 76.66 96.99 76.67 97.06 76.67 97.13 76.67 97.2 76.68 97.27 76.69 97.34 76.7 97.48 76.73 97.6 76.74 97.71 76.77 97.82 76.79 97.92 76.8 97.99 76.85 98.15 76.87 98.24 76.87 98.24 76.87 98.24 76.81 98.16 76.72 98.02 76.68 97.95 76.63 97.86 76.58 97.75 76.53 97.64 76.48 97.52 76.44 97.38 76.39 97.24 76.36 97.09 76.34 96.92 76.32 96.75 76.3 96.57 76.31 96.39 76.32 96.21 76.34 96.02 76.38 95.83 76.42 95.64 76.46 95.45 76.53 95.27 76.6 95.09 76.67 94.91 76.76 94.74 76.84 94.57 76.94 94.41 77.03 94.25 77.22 93.95 77.43 93.68 77.63 93.47 78 93.05 78.32 92.84 78.32 92.84Z" fill="#6D3303"/></g><g><path d="M101.82 74.16C100.95 73.38 100.57 72.91 100.35 71.91 100.13 70.91 98.71 66.33 98.71 66.33 98.71 66.33 89.3 60.03 86.96 57.32 84.61 54.61 84.98 52.12 86.44 48.75 87.91 45.38 89.52 42.15 86.96 42.81 84.39 43.47 80.95 47.05 80.95 47.05 80.95 47.05 79.39 51.08 78.19 55.55 77.74 57.22 77.58 58.45 77.72 59.47 78.3 57.73 80.82 50.47 82.85 50.19 85.16 49.88 80.13 55.34 87.36 60.58 95.34 66.35 98.69 71.81 98.48 73.28 100.16 74.33 98.9 74.43 98.38 74.43 99.11 75.38 99.74 76.42 97.12 78.73 94.5 81.04 89.04 88.07 88.1 91.11 87.16 94.15 87.99 96.25 84.11 96.88 80.23 97.51 74.98 97.41 77.5 93.94 76.66 93.1 76.07 97.55 75.16 97.16 74.78 95.62 75.31 93.64 75.31 93.64 75.31 93.64 74.04 95.2 74.04 96.66 74.04 97.05 73.92 97.33 73.74 97.55 74.28 98.41 75.17 98.73 75.78 98.33 76.49 98.62 76.85 98.26 76.85 98.26 76.85 98.26 79.7 98.51 83.68 98.29 87.66 98.07 89.04 97.43 88.52 95.66 88 93.89 88.22 93.8 89.73 90.73 91.24 87.66 94.66 82.86 97.73 80.36 100.88 77.81 101.01 77.94 100.62 76.04 102.05 76.99 102.26 76.6 101.05 75.04 103.07 75.59 102.68 74.94 101.82 74.16Z" fill="#CC8C0D"/></g><path d="M80.95 47.07C80.95 47.07 79.39 51.1 78.19 55.57 76.99 60.03 77.84 61.38 81.16 63.86 84.49 66.34 85.27 67.12 88.46 69.31 91.65 71.51 93.99 73.49 94.13 75.05 94.27 76.61 94.2 77.39 93.07 79.16 91.94 80.93 85.84 90.21 84.78 92.41 84.78 92.41 83.65 91.28 83.43 91.35 83.22 91.42 83.5 92.41 83.5 92.41 83.5 92.41 82.79 91.77 82.58 92.06 82.36 92.34 82.93 93.19 82.93 93.19 82.93 93.19 81.87 93.61 80.81 92.9 79.75 92.19 78.97 92.12 78.33 92.83 77.76 91.77 76.41 92.12 75.85 92.9 74.78 92.19 73.51 93.11 73.3 95.45 73.09 97.79 74.79 98.99 75.78 98.35 76.49 98.64 76.85 98.28 76.85 98.28 76.85 98.28 79.7 98.53 83.68 98.31 87.66 98.09 89.04 97.45 88.52 95.68 88 93.91 88.22 93.82 89.73 90.75 91.24 87.68 94.66 82.88 97.73 80.38 100.88 77.83 101.01 77.96 100.62 76.06 102.05 77.01 102.26 76.62 101.05 75.06 103.08 75.58 102.69 74.93 101.83 74.15 100.96 73.37 100.58 72.9 100.36 71.9 100.14 70.9 98.72 66.32 98.72 66.32 98.72 66.32 89.31 60.02 86.97 57.31 84.62 54.6 84.99 52.11 86.45 48.74 87.92 45.37 89.53 42.14 86.97 42.8 84.39 43.49 80.95 47.07 80.95 47.07Z" fill="#CC8C0D"/></g><g><path d="M22.33 47.48C22.33 47.48 21.79 53.4 26.04 59.92 29.33 65.48 30.46 66.44 30.17 67.58 29.87 68.72 24.97 70.27 19.1 78.76 16.46 82.89 16.35 83.96 15.69 84.98 15.03 86 13.9 87.91 12.88 90.07 10.37 91.87 8.09 94.74 10.85 97.43 11.51 98.62 12.76 98.75 12.76 98.75 14.14 99.95 16.11 100.42 17.67 97.97 19.22 95.52 18.42 91.99 19.83 90.85 21.74 89.29 22.22 88.64 21.38 86.66 20.54 84.69 20.18 84.09 20.18 84.09 20.18 84.09 26.7 73.8 37.58 73.74 37.52 72.96 37.46 72.61 37.46 72.61L38.54 73.81C38.54 73.81 38.36 72.25 38.24 71.83 39.26 72.73 39.5 73.03 39.5 73.03 39.5 73.03 39.38 71.83 38.96 71.12 39.5 71.64 39.91 72 39.91 72 39.91 72 42.55 67.99 39.85 62.13 32.32 56.45 26.81 48.02 22.33 47.48Z" fill="#F9B522"/><g><path d="M26.68 55.57C26.68 55.57 27.74 56.14 27.81 57.02 27.89 57.9 27.42 58.46 26.93 58.49 26.44 58.51 25.72 57.64 25.66 56.86 25.61 56.09 25.43 55.21 25.84 55.11 26.26 55 26.44 55.37 26.68 55.57Z" fill="#6D3303"/><path d="M30.5 58.25C30.5 58.25 30.76 59.21 31.51 59.21 32.26 59.21 32.39 58.67 31.9 58.12 31.41 57.58 30.84 57.11 30.69 57.27 30.52 57.43 30.29 57.69 30.5 58.25Z" fill="#6D3303"/><path d="M32.44 61.38C32.44 61.38 32.64 62.43 33.01 62.98 33.37 63.52 33.97 63.32 33.84 62.28 33.65 60.91 32.25 59.99 32.44 61.38Z" fill="#6D3303"/><path d="M34.06 68.02C34.06 68.02 34.03 68.79 34.22 69.01 34.41 69.23 34.69 68.93 34.66 68.41 34.64 67.88 34.06 67.3 34.06 68.02Z" fill="#6D3303"/><path d="M30.68 71.34C30.68 71.34 31.34 71.34 31.2 71.86 31.06 72.38 30.29 73.65 29.66 73.56 29.03 73.48 28.95 72.74 29.47 72.13 30 71.53 30.38 71.34 30.68 71.34Z" fill="#6D3303"/><path d="M29.37 69.39C29.37 69.39 29.67 69.86 29.37 70.1 29.07 70.35 28.38 70.18 28.58 69.88 28.76 69.59 29.06 69.12 29.37 69.39Z" fill="#6D3303"/><path d="M25.82 74.64C25.82 74.64 25.63 76.16 25.08 76.21 24.53 76.26 24.23 75.63 24.78 74.84 25.33 74.03 25.8 73.98 25.82 74.64Z" fill="#6D3303"/><path d="M35.05 71.18C35.05 71.18 34.58 71.7 35.02 71.92 35.46 72.14 35.73 71.54 35.71 71.29 35.69 71.04 35.24 70.74 35.05 71.18Z" fill="#6D3303"/><path d="M38.62 66.51C38.62 66.51 37.96 67.66 38.51 68.6 39.06 69.54 39.61 68.32 39.5 66.9 39.39 65.46 38.79 65.74 38.62 66.51Z" fill="#6D3303"/><path d="M36.37 62.55C36.37 62.55 36.64 64.09 37.19 63.7 37.75 63.32 36.48 61.29 36.37 62.55Z" fill="#6D3303"/><path d="M24.61 53.05C24.61 53.05 25.27 54.15 24.72 54.2 24.18 54.26 24.18 52.77 24.61 53.05Z" fill="#6D3303"/><path d="M31.32 64.69C31.32 64.69 31.6 65.24 31.21 65.29 30.82 65.36 30.49 64.2 31.32 64.69Z" fill="#6D3303"/><path d="M25.16 72.55C25.16 72.55 24.94 73.04 24.5 72.93 24.06 72.83 25.16 71.89 25.16 72.55Z" fill="#6D3303"/></g><g><path d="M13.63 90.37C13.63 90.37 13.64 90.4 13.66 90.46 13.67 90.52 13.69 90.6 13.7 90.71 13.7 90.83 13.7 90.97 13.65 91.12 13.63 91.2 13.58 91.27 13.55 91.36 13.5 91.44 13.43 91.52 13.37 91.6 13.14 91.87 12.87 92.22 12.6 92.6 12.46 92.79 12.33 92.98 12.2 93.18 12.06 93.38 11.93 93.59 11.8 93.8 11.67 94.01 11.55 94.22 11.43 94.43 11.32 94.64 11.21 94.85 11.12 95.06 11.03 95.26 10.95 95.47 10.88 95.67 10.82 95.86 10.77 96.05 10.73 96.23 10.71 96.41 10.69 96.57 10.69 96.72 10.69 96.79 10.69 96.86 10.7 96.93 10.71 97 10.71 97.05 10.72 97.1 10.73 97.15 10.74 97.2 10.76 97.25 10.77 97.29 10.78 97.32 10.79 97.35 10.81 97.4 10.82 97.44 10.82 97.44 10.82 97.44 10.8 97.41 10.77 97.36 10.73 97.31 10.68 97.24 10.64 97.13 10.59 97.03 10.54 96.9 10.51 96.74 10.48 96.58 10.46 96.41 10.47 96.21 10.48 96.01 10.5 95.8 10.55 95.59 10.6 95.37 10.66 95.15 10.75 94.92 10.83 94.69 10.93 94.46 11.04 94.24 11.16 94.02 11.28 93.79 11.41 93.57 11.54 93.36 11.69 93.15 11.83 92.94 11.97 92.74 12.13 92.55 12.28 92.36 12.43 92.18 12.58 92.01 12.73 91.85 12.88 91.69 13.02 91.55 13.18 91.42 13.24 91.36 13.3 91.31 13.35 91.25 13.39 91.18 13.44 91.13 13.47 91.06 13.53 90.93 13.57 90.81 13.59 90.7 13.65 90.5 13.63 90.37 13.63 90.37Z" fill="#6D3303"/><path d="M14.99 91.09C15.07 91.53 15.13 91.96 15.19 92.4L15.2 92.45 15.15 92.5C14.94 92.71 14.73 92.93 14.53 93.15 14.33 93.38 14.14 93.6 13.96 93.84 13.78 94.08 13.6 94.31 13.44 94.57 13.28 94.82 13.13 95.07 13 95.34 12.93 95.47 12.88 95.61 12.82 95.74 12.77 95.88 12.71 96.01 12.67 96.15 12.62 96.29 12.59 96.43 12.56 96.57L12.52 96.78 12.48 97C12.47 97.14 12.46 97.29 12.47 97.44 12.47 97.59 12.49 97.73 12.51 97.88 12.54 98.02 12.56 98.17 12.61 98.31 12.65 98.46 12.71 98.59 12.76 98.74 12.68 98.61 12.58 98.49 12.52 98.35 12.44 98.22 12.39 98.07 12.33 97.92 12.28 97.77 12.24 97.62 12.22 97.46 12.19 97.31 12.18 97.14 12.18 96.99L12.18 96.75 12.21 96.51C12.23 96.36 12.26 96.2 12.3 96.04 12.34 95.89 12.39 95.73 12.43 95.58 12.49 95.43 12.55 95.29 12.61 95.15 12.68 95.01 12.75 94.87 12.83 94.73 12.91 94.59 12.99 94.47 13.07 94.33 13.25 94.07 13.43 93.82 13.63 93.59 13.84 93.36 14.04 93.13 14.28 92.91 14.5 92.7 14.74 92.5 14.99 92.31L14.94 92.41C14.95 91.97 14.96 91.53 14.99 91.09Z" fill="#6D3303"/></g><g opacity="0.5"><path d="M39.86 62.13C32.32 56.45 26.82 48.01 22.33 47.47 22.33 47.47 21.79 53.39 26.04 59.91 27.01 61.55 27.79 62.78 28.4 63.74L28.42 63.74C28.42 63.74 23 54.48 24.61 53.04 26.22 51.6 30.83 57.98 34.39 62.17 37.95 66.36 38.05 69.08 37.74 70.54 37.42 72.01 36.59 69.81 36.59 69.81 36.59 69.81 35.86 71.17 34.6 71.9 33.34 72.63 34.81 70.65 34.81 70.65 34.81 70.65 31.77 70.75 26.02 75.88 20.27 81.01 18.38 82.89 19.74 85.19 21.1 87.49 19.95 88.85 18.49 90.11 17.02 91.36 12.94 89.58 14.61 87.39 15.23 86.57 15.67 85.55 16.06 84.31 15.94 84.55 15.83 84.76 15.69 84.97 15.03 85.99 13.9 87.9 12.88 90.06 12.47 90.35 12.07 90.67 11.69 91.02 11.95 90.92 12.2 90.88 12.47 90.92 13.95 91.12 11.63 92.5 10.74 94.78 10.48 95.45 10.12 95.73 9.75 95.77 9.89 96.18 10.11 96.59 10.45 97 10.5 95.87 10.91 94.13 12.62 92.26 14.1 90.92 14.55 91.96 13.26 93.59 11.97 95.23 11.68 96.41 11.83 97.45 11.89 97.91 11.95 98.24 11.91 98.46 12.37 98.7 12.76 98.74 12.76 98.74 12.8 98.78 12.84 98.81 12.89 98.84 12.59 97.92 12.49 96.51 13.61 94.92 15.59 92.1 17.07 92.35 17.43 93.29 17.75 94.15 18.1 98.18 15.1 99.72 15.98 99.7 16.88 99.21 17.67 97.96 19.22 95.51 18.42 91.98 19.83 90.84 21.74 89.28 22.22 88.63 21.38 86.65 20.54 84.68 20.18 84.08 20.18 84.08 20.18 84.08 26.7 73.8 37.58 73.74 37.52 72.96 37.46 72.61 37.46 72.61L38.54 73.81C38.54 73.81 38.36 72.25 38.24 71.83 39.26 72.73 39.5 73.03 39.5 73.03 39.5 73.03 39.38 71.83 38.96 71.12 39.5 71.64 39.91 72 39.91 72 39.91 72 42.55 67.99 39.86 62.13Z" fill="#CC8C0D"/></g><path d="M22.33 47.48C22.33 47.48 21.79 53.4 26.04 59.92 29.33 65.48 30.46 66.44 30.17 67.58 29.87 68.72 24.97 70.27 19.1 78.76 16.46 82.89 16.35 83.96 15.69 84.98 15.03 86 13.9 87.91 12.88 90.07 10.37 91.87 8.09 94.74 10.85 97.43 11.51 98.62 12.76 98.75 12.76 98.75 14.14 99.95 16.11 100.42 17.67 97.97 19.22 95.52 18.42 91.99 19.83 90.85 21.74 89.29 22.22 88.64 21.38 86.66 20.54 84.69 20.18 84.09 20.18 84.09 20.18 84.09 26.7 73.8 37.58 73.74 37.52 72.96 37.46 72.61 37.46 72.61L38.54 73.81C38.54 73.81 38.36 72.25 38.24 71.83 39.26 72.73 39.5 73.03 39.5 73.03 39.5 73.03 39.38 71.83 38.96 71.12 39.5 71.64 39.91 72 39.91 72 39.91 72 42.55 67.99 39.85 62.13 32.32 56.45 26.81 48.02 22.33 47.48Z" fill="#CC8C0D"/></g><path d="M38.38 19.66C38.38 19.66 42.04 18.56 43.55 19.14 42.91 19.43 42.74 19.72 42.74 19.72 42.74 19.72 44.19 19.14 45.18 19.9 44.43 20.36 44.43 20.36 44.43 20.36 44.43 20.36 46.12 20.07 47.05 20.42 46.69 20.77 46.69 21 46.69 21 46.69 21 49.48 21.64 53.95 25.13 57.44 27.69 59.82 27.86 65.17 27.17 70.52 26.47 80.4 21.7 85.28 19.15 90.16 16.59 91.91 15.72 95.4 17.29 98.89 18.86 106.27 23.28 110.86 27.05 115.45 30.83 123.59 38.95 126.15 48.84 128.71 58.73 126.48 68 124.72 74.92 123.51 79.97 122.98 84.45 126.36 87.94 129.74 91.44 134.17 91.44 136.85 87.53 136.56 86.54 136.5 86.19 136.73 86.19 136.97 86.19 137.66 86.83 137.66 86.83 137.66 86.83 137.83 85.43 138.24 85.43 138.65 85.43 138.76 86.48 138.76 86.48 138.76 86.48 140.39 85.32 141.67 86.71 141.91 87 141.1 87 141.1 87 141.1 87 143.02 88.92 141.91 91.72 140.8 94.52 131.77 98.48 127.05 96.21 122.33 93.93 119.36 87.59 120 81.41 120.64 75.24 121.92 68.83 122.45 65.33 122.97 61.83 122.92 52.1 121.11 48.02 119.6 44.76 116.68 42.72 116.68 42.72 116.68 42.72 114.12 47.32 111.09 51.05 108.05 54.77 105.38 60.43 105.38 61.59 105.38 62.52 113.02 70.38 115.01 72.37 116.5 74.26 116.45 74.06 117.55 74.5 118.64 74.95 118.44 74.9 118.05 74.95 117.66 75 117.06 75.05 117.06 75.05 117.06 75.05 118.45 76.34 118.54 76.79 118.64 77.24 117.1 76.44 117.1 76.44 117.1 76.44 117.03 83.31 114.61 90.67 112.9 96.88 111.37 97.98 108.95 98.64 106.53 99.3 102.03 98.42 101.42 97.93 101.53 98.43 99.99 98.26 99.61 97.66 99.23 98.04 96.64 97 96.86 95.08 97.08 93.16 97.96 91.01 99.66 91.9 99.66 91.9 101.16 90.74 102.65 92.07 103.27 91.73 105.38 92.96 105.38 92.96 105.38 92.96 108.06 92.54 109.28 93.48 109.15 92.28 109.05 92.21 109.18 92.18 109.31 92.16 110.3 93.27 110.3 93.27 110.3 93.27 112.63 90.71 113.08 85.51 113.43 79.76 113.37 76.94 110.86 75.21 108.36 73.48 98.23 66.58 94.79 64.31 91.35 62.04 83.65 57.06 84.39 53.39 85.12 49.73 88.13 43.5 87.32 43.35 86.52 43.21 82.49 46.79 79.48 48.99 76.48 51.19 75.16 51.63 73.77 52.58 72.38 53.53 71.28 55.14 70.84 56.9 70.4 58.66 69.37 61.52 66.22 61.3 66.74 61.89 66.74 61.89 66.74 61.89L65.2 61.89 65.27 62.26 63.07 62.26 63.66 62.77C63.66 62.77 61.75 63.14 60.87 62.7 61.89 63.43 61.89 63.43 61.89 63.43 61.89 63.43 60.13 63.36 58.45 62.99 58.45 62.99 59.47 64.14 59.58 65.67 58.36 65.19 57.88 65.14 57.88 65.14 57.88 65.14 58.99 66.3 59.15 67.42 58.51 67.21 57.98 66.78 57.98 66.78 57.98 66.78 59.04 68.05 58.99 68.79 58.25 68.58 58.25 68.58 58.25 68.58 58.25 68.58 58.25 69.22 58.3 69.69 58.35 70.16 56.2 69.92 54.71 76.3 53.23 82.67 50.48 91.9 50.04 93.66 49.6 95.42 49.88 96.13 49.71 97.56 49.54 98.99 47.29 99.81 44.6 99.98 41.91 100.15 38.78 99.65 38.12 99.21 37.84 99.81 36.14 99.26 35.92 99.1 35.98 99.87 33.12 99.27 33.01 96.85 32.9 94.43 34.28 91.52 36.36 92.51 37.79 90.69 39.05 91.91 39.82 92.84 40.59 91.96 42.02 92.51 43.06 93.33 44.1 94.15 45.03 94.32 45.81 93.88 46.58 93.44 46.86 89.79 47.24 87.18 48.06 81.47 48.45 73.39 47.13 69.87 45.81 66.35 42.54 64.35 40.47 62.92 37.26 61.72 33.02 58.45 29.3 54.04 27.52 51.64 26.27 50.43 23 48.49 19.97 46.66 20.02 46.71 19.45 46.71 18.88 46.71 18.71 42.7 19.45 41.1 18.3 41.84 18.3 41.84 18.3 41.84 18.3 41.84 19.1 38.69 20.02 37.89 19.22 37.95 18.82 37.95 18.82 37.95 18.82 37.95 19.33 36.8 20.25 35.95 18.99 35.09 18.65 33.09 18.65 33.09 18.65 33.09 18.25 31.03 24.32 30.11 30.39 29.19 32.63 28.91 34.74 25.53 36.88 22.13 38.38 19.66 38.38 19.66Z" fill="#F9B522"/><path d="M39.27 61.8C34.29 57.26 29.74 51.54 28.86 50.08 27.98 48.61 28.13 45.83 29.45 40.7 30.16 37.09 27.54 33.25 24.39 30.08 24.37 30.08 24.35 30.09 24.33 30.09 18.26 31.01 18.66 33.07 18.66 33.07 18.66 33.07 19 35.07 20.26 35.93 19.34 36.79 18.83 37.93 18.83 37.93 18.83 37.93 19.23 37.93 20.03 37.87 19.11 38.67 18.31 41.82 18.31 41.82 18.31 41.82 18.31 41.82 19.46 41.08 18.72 42.68 18.89 46.69 19.46 46.69 20.03 46.69 19.98 46.64 23.01 48.47 26.28 50.42 27.53 51.62 29.31 54.02 32.94 58.33 37.07 61.53 40.24 62.8 39.94 62.44 39.61 62.1 39.27 61.8Z" fill="#FFEFDF"/><g><path d="M76.77 47.3C66.22 56.09 54.8 52.13 54.8 52.13 54.8 52.13 54.95 55.8 57 60.04 57.51 61.11 58.19 62.13 58.9 63.06 60.44 63.35 61.9 63.41 61.9 63.41 61.9 63.41 61.9 63.41 60.88 62.68 61.76 63.12 63.67 62.75 63.67 62.75L63.08 62.24 65.28 62.24 65.21 61.87 66.75 61.87C66.75 61.87 66.75 61.87 66.23 61.28 69.38 61.5 70.41 58.64 70.85 56.88 71.29 55.12 72.39 53.51 73.78 52.56 75.17 51.61 76.49 51.16 79.49 48.97 82.49 46.77 86.52 43.18 87.33 43.33 87.32 43.34 84.24 42.46 76.77 47.3Z" fill="#FFEFDF"/></g><g><path d="M30.02 37.73C30.02 37.73 31.23 38.68 31.16 39.31 31.1 39.95 29.7 41.22 29.32 41.15 28.94 41.09 28.24 40.13 28.75 38.8 29.25 37.48 29.38 37.22 30.02 37.73Z" fill="#6D3303"/><path d="M29.32 32.91C29.32 32.91 29.95 33.35 29.76 34.12 29.57 34.88 28.56 35.01 28.3 34.44 28.05 33.86 28.75 32.72 29.32 32.91Z" fill="#6D3303"/><path d="M33 31.92C33 32.36 32.8 32.72 32.56 32.72 32.31 32.72 32.11 32.36 32.11 31.92 32.11 31.48 32.31 31.13 32.56 31.13 32.8 31.13 33 31.48 33 31.92Z" fill="#6D3303"/><path d="M33.7 33.13C33.7 33.32 33.61 33.48 33.51 33.48 33.41 33.48 33.32 33.32 33.32 33.13 33.32 32.94 33.41 32.78 33.51 32.78 33.61 32.78 33.7 32.94 33.7 33.13Z" fill="#6D3303"/><path d="M32.87 35.25C32.87 35.46 32.79 35.63 32.68 35.63 32.58 35.63 32.49 35.46 32.49 35.25 32.49 35.04 32.58 34.87 32.68 34.87 32.79 34.87 32.87 35.04 32.87 35.25Z" fill="#6D3303"/><path d="M36.81 37.98C36.81 38.3 36.62 38.55 36.4 38.55 36.17 38.55 35.99 38.3 35.99 37.98 35.99 37.66 36.17 37.41 36.4 37.41 36.63 37.41 36.81 37.67 36.81 37.98Z" fill="#6D3303"/><path d="M35.79 32.91C35.79 32.91 34.9 34.31 35.72 34.82 36.55 35.33 37.24 33.74 36.93 32.98 36.62 32.21 36.05 32.27 35.79 32.91Z" fill="#6D3303"/><path d="M34.65 29.48C34.65 29.48 33.7 30.3 34.46 30.88 35.22 31.45 35.73 30.06 35.54 29.48 35.35 28.91 34.97 28.97 34.65 29.48Z" fill="#6D3303"/><path d="M39.29 27.76C39.29 27.76 39.42 29.67 38.53 29.73 37.64 29.8 37.64 28.46 38.09 27.64 38.52 26.81 39.1 27.25 39.29 27.76Z" fill="#6D3303"/><path d="M42.21 26.81C42.21 26.81 42.4 28.01 41.96 28.14 41.51 28.27 41.07 27.63 41.32 26.93 41.57 26.24 41.76 25.98 42.21 26.81Z" fill="#6D3303"/><path d="M43.54 31.83C43.54 31.83 43.16 32.72 42.27 32.78 41.38 32.85 41.13 32.02 42.01 31.64 42.91 31.25 43.6 31.19 43.54 31.83Z" fill="#6D3303"/><path d="M46.84 31.25C46.84 31.25 47.29 33.03 46.71 33.09 46.14 33.15 45.44 32.2 45.44 31.12 45.45 30.05 46.53 30.43 46.84 31.25Z" fill="#6D3303"/><path d="M33.38 41.16C33.38 41.16 34.59 42.11 34.4 42.81 34.21 43.51 32.81 44.08 32.24 43.64 31.67 43.19 31.48 42.43 32.05 41.8 32.62 41.16 33.06 40.72 33.38 41.16Z" fill="#6D3303"/><path d="M30.59 46.62C30.59 46.62 31.03 47.07 30.91 47.95 30.78 48.84 29.7 48.33 29.77 47.25 29.83 46.17 30.33 46.3 30.59 46.62Z" fill="#6D3303"/><path d="M34.14 51.38C34.14 51.38 34.78 52.21 34.33 52.97 33.89 53.73 32.94 52.9 32.94 52.02 32.94 51.13 33.19 49.92 34.14 51.38Z" fill="#6D3303"/><path d="M39.1 48.4C39.1 48.4 39.73 49.16 39.23 49.73 38.72 50.3 38.09 50.05 38.21 49.16 38.34 48.27 38.78 48.02 39.1 48.4Z" fill="#6D3303"/><path d="M35.16 45.16C35.16 45.16 35.35 46.11 34.78 46.24 34.21 46.37 33.83 45.98 34.02 45.35 34.21 44.71 34.65 44.15 35.16 45.16Z" fill="#6D3303"/><path d="M42.97 44.08C42.97 44.08 43.73 44.4 43.73 45.29 43.73 46.18 41.89 46.5 41.95 45.55 42.02 44.59 42.33 43.57 42.97 44.08Z" fill="#6D3303"/><path d="M39.41 43.45C39.41 43.45 39.73 44.08 39.15 44.08 38.58 44.08 38.52 43.64 38.64 43.19 38.78 42.75 39.41 43.13 39.41 43.45Z" fill="#6D3303"/><path d="M44.75 38.68C44.75 38.68 44.75 41.47 43.99 41.6 43.23 41.73 42.97 40.27 43.54 39.12 44.11 37.98 44.68 37.92 44.75 38.68Z" fill="#6D3303"/><path d="M41.17 35.63C41.17 35.63 41.58 37.23 41.03 37.83 40.49 38.43 37.83 37.04 38.86 36.01 39.9 34.98 40.82 34.47 41.17 35.63Z" fill="#6D3303"/><path d="M37.22 25.82C37.22 25.82 37.19 26.5 36.81 26.34 36.43 26.17 37.08 25.3 37.22 25.82Z" fill="#6D3303"/><path d="M39.4 22.3C39.4 22.3 39.04 23.12 38.64 22.95 38.23 22.79 38.53 22.02 38.83 21.75 39.13 21.48 39.48 22.03 39.4 22.3Z" fill="#6D3303"/><path d="M41.42 22.3C41.42 22.3 40.66 22.93 40.96 23.31 41.26 23.69 42.71 23.99 42.76 23.39 42.8 22.79 42.37 20.94 41.42 22.3Z" fill="#6D3303"/><path d="M47 26.61C47 26.61 46.56 27.29 46.89 27.65 47.22 28 48.34 27.59 48.06 27.02 47.79 26.44 47.22 26.15 47 26.61Z" fill="#6D3303"/><path d="M47.47 23.64C47.47 23.64 47.3 24.43 47.71 24.54 48.12 24.65 48.5 23.94 48.39 23.51 48.28 23.07 47.77 22.6 47.47 23.64Z" fill="#6D3303"/><path d="M50.05 28.87C50.05 28.87 50.6 29.91 50 30.41 49.4 30.9 48.19 29.91 48.57 29.03 48.96 28.16 49.89 28.33 50.05 28.87Z" fill="#6D3303"/><path d="M54.61 26.73C54.61 26.73 54.94 28 54.39 28.27 53.84 28.55 52.8 27.28 53.18 26.51 53.57 25.74 54.45 25.79 54.61 26.73Z" fill="#6D3303"/><path d="M52.96 31.29C52.96 31.29 51.92 32.94 52.8 33.27 53.68 33.6 54.44 32.56 54.39 31.57 54.34 30.57 53.63 29.8 52.96 31.29Z" fill="#6D3303"/><path d="M48.66 39.25C48.66 39.25 48.07 40.39 48.62 40.97 49.16 41.56 50.57 41.52 50.35 40.38 50.12 39.25 49.12 38.07 48.66 39.25Z" fill="#6D3303"/><path d="M47.03 47.38C47.03 47.38 48.07 47.74 48.16 48.52 48.25 49.29 46.98 50.15 46.53 49.93 46.08 49.7 46.03 48.7 46.17 47.93 46.3 47.16 46.62 47.16 47.03 47.38Z" fill="#6D3303"/><path d="M36.63 54.79C36.63 54.79 37.22 56.61 36.4 56.88 35.58 57.15 35.17 56.02 35.35 55.15 35.54 54.29 36.13 53.97 36.63 54.79Z" fill="#6D3303"/><path d="M42.26 53.24C42.26 53.24 42.94 54.37 42.58 54.92 42.22 55.47 41.35 55.19 41.12 54.15 40.9 53.11 41.35 51.84 42.26 53.24Z" fill="#6D3303"/><path d="M44.89 57.06C44.89 57.06 45.35 58.11 44.75 58.15 44.16 58.2 43.8 57.65 43.89 57.11 43.98 56.56 44.67 56.47 44.89 57.06Z" fill="#6D3303"/><path d="M43.76 61.05C43.76 61.05 44.03 62.64 43.58 62.82 43.12 63 42.58 61.68 42.62 60.91 42.67 60.15 43.62 60.19 43.76 61.05Z" fill="#6D3303"/><path d="M50.39 61.78C50.39 61.78 50.08 63.69 51.12 63.65 52.16 63.6 52.07 62.29 51.62 61.47 51.16 60.64 50.53 60.78 50.39 61.78Z" fill="#6D3303"/><path d="M50.21 55.6C50.21 55.6 50.98 55.74 50.84 56.55 50.7 57.37 50.34 58.01 49.88 57.91 49.43 57.82 49.34 56.69 49.38 56.14 49.44 55.6 49.66 55.33 50.21 55.6Z" fill="#6D3303"/><path d="M43.79 48.21C43.79 48.21 44.34 48.32 44.23 48.65 44.12 48.98 43.4 48.98 43.46 48.65 43.51 48.32 43.79 48.21 43.79 48.21Z" fill="#6D3303"/><path d="M51.87 52C51.87 52 52.69 52.44 52.09 52.77 51.49 53.1 51.32 52.44 51.32 52.22 51.32 52 51.54 51.79 51.87 52Z" fill="#6D3303"/><path d="M52.8 48.05C52.8 48.05 53.29 48.98 52.74 49.42 52.19 49.86 51.58 49.42 51.64 48.49 51.7 47.55 52.3 47.17 52.8 48.05Z" fill="#6D3303"/><path d="M49.72 45.58C49.72 45.58 49.94 46.13 49.61 46.4 49.28 46.68 48.68 46.29 48.79 45.8 48.9 45.3 49.45 44.86 49.72 45.58Z" fill="#6D3303"/><path d="M48.41 68.05C48.41 68.05 49.18 69.31 48.79 70.03 48.41 70.74 47.58 70.36 47.52 69.15 47.47 67.94 47.74 67.39 48.41 68.05Z" fill="#6D3303"/><path d="M52.03 72.5C52.03 72.5 51.59 75.08 50.76 75.08 49.94 75.08 50.32 73.6 50.71 72.55 51.1 71.51 52.14 71.34 52.03 72.5Z" fill="#6D3303"/><path d="M55 71.56C55 71.56 55.17 72.55 54.51 72.5 53.85 72.45 54.01 71.79 54.34 71.18 54.67 70.57 55 71.07 55 71.56Z" fill="#6D3303"/><path d="M52.25 77.55C52.25 77.55 52.3 79.86 51.65 79.91 50.99 79.96 51.21 79.03 51.27 78.15 51.32 77.28 52.25 76.23 52.25 77.55Z" fill="#6D3303"/><path d="M53.9 66.45C53.9 66.45 53.36 67.39 52.97 67.22 52.59 67.06 52.42 66.62 52.81 65.9 53.19 65.19 53.84 65.74 53.9 66.45Z" fill="#6D3303"/><path d="M54.12 57.5C54.12 57.5 54.34 58.27 53.84 58.33 53.35 58.38 53.02 58.22 53.18 57.62 53.35 57 54.01 56.89 54.12 57.5Z" fill="#6D3303"/><path d="M56.61 36.26C56.61 36.26 56.25 38.02 55.66 38.06 55.08 38.11 54.58 37.25 55.44 36.17 56.3 35.08 56.61 35.22 56.61 36.26Z" fill="#6D3303"/><path d="M53.63 39.68C53.63 39.68 53.95 40.35 53.54 40.49 53.14 40.63 53.27 39.14 53.63 39.68Z" fill="#6D3303"/><path d="M60.31 34.05C60.31 34.05 60.22 35.54 59.27 35.45 58.32 35.36 58.68 33.96 59.05 33.42 59.41 32.87 60.27 32.92 60.31 34.05Z" fill="#6D3303"/><path d="M60.36 39.86C60.36 39.86 59.77 42.25 60.54 42.39 61.31 42.53 62.66 40.9 62.57 40.05 62.48 39.19 60.45 37.65 60.36 39.86Z" fill="#6D3303"/><path d="M57.52 45.01C57.52 45.01 58.65 45.33 58.51 46.41 58.37 47.49 55.98 48.17 56.03 47.08 56.07 46 56.43 44.56 57.52 45.01Z" fill="#6D3303"/><path d="M59 51.28C59 51.28 59.95 53.04 58.59 53.58 57.24 54.12 56.92 52.4 57.46 51.41 58.01 50.43 58.37 50.65 59 51.28Z" fill="#6D3303"/><path d="M61.35 58.01C61.35 58.01 61.76 59.77 60.99 60 60.22 60.22 59.77 59.09 60.09 58.24 60.4 57.37 61.17 57.33 61.35 58.01Z" fill="#6D3303"/><path d="M64.1 55.62C64.1 55.62 64.46 56.88 64.01 56.97 63.56 57.06 62.83 56.97 63.15 55.93 63.47 54.89 63.92 55.03 64.1 55.62Z" fill="#6D3303"/><path d="M66.59 57.55C66.59 57.55 65.91 58.82 66.55 59.18 67.18 59.54 67.82 58.19 67.82 57.46 67.81 56.74 67.04 56.29 66.59 57.55Z" fill="#6D3303"/><path d="M64.06 51.46C64.06 51.46 63.88 52.9 63.16 52.95 62.44 52.99 62.12 52.18 62.49 51.32 62.84 50.47 63.88 50.47 64.06 51.46Z" fill="#6D3303"/><path d="M63.47 45.46C63.47 45.46 63.29 46.99 62.48 46.99 61.67 46.99 61.8 45.82 62.39 45.14 62.97 44.47 63.43 44.83 63.47 45.46Z" fill="#6D3303"/><path d="M67.4 46.68C67.4 46.68 66.95 47.54 66.99 48.21 67.03 48.89 68.34 49.11 68.93 48.57 69.52 48.03 69.25 46.81 68.84 46.27 68.44 45.73 67.94 45.82 67.4 46.68Z" fill="#6D3303"/><path d="M67.67 52.09C67.67 52.09 66.95 53.71 67.81 54.08 68.66 54.44 68.84 53.45 68.84 52.54 68.84 51.64 68.07 51.06 67.67 52.09Z" fill="#6D3303"/><path d="M66.54 39.37C66.54 39.37 65.82 40.64 66.27 41.09 66.72 41.54 67.53 40.41 67.67 39.42 67.81 38.42 66.99 38.6 66.54 39.37Z" fill="#6D3303"/><path d="M64.87 37.43C64.87 37.43 64.69 38.74 64.1 38.79 63.52 38.84 63.2 37.71 63.88 37.12 64.56 36.53 64.92 36.75 64.87 37.43Z" fill="#6D3303"/><path d="M69.15 34C69.15 34 69.15 35.67 68.3 35.94 67.44 36.21 66.54 36.03 67.3 34.63 68.07 33.23 69.07 32.64 69.15 34Z" fill="#6D3303"/><path d="M72 39.78C72 39.78 72.72 40.14 72.86 41.04 72.99 41.94 70.47 42.71 70.47 41.36 70.46 40 71.1 39.24 72 39.78Z" fill="#6D3303"/><path d="M74.66 33.64C74.66 33.64 74.07 35.44 75.61 35.58 77.14 35.72 77.19 34.05 76.51 33.51 75.84 32.96 75.16 32.24 74.66 33.64Z" fill="#6D3303"/><path d="M73.4 28.63C73.4 28.63 73.04 30.34 73.94 30.48 74.84 30.61 75.16 29.17 74.89 28.36 74.62 27.54 73.81 27.28 73.4 28.63Z" fill="#6D3303"/><path d="M60.22 30.39C60.22 30.39 60.13 31.39 59.68 31.3 59.23 31.21 58.87 30.62 59.32 30.22 59.77 29.8 60.18 29.76 60.22 30.39Z" fill="#6D3303"/><path d="M74.43 47.3C74.43 47.3 74.87 48.55 74.06 48.84 73.26 49.14 72.81 48.04 73.4 47.37 73.99 46.71 74.28 46.71 74.43 47.3Z" fill="#6D3303"/><path d="M76.77 47.3C76.77 47.3 75.6 48.77 76.4 48.91 77.2 49.06 78.45 48.32 78.23 47.45 78.02 46.56 77.29 46.56 76.77 47.3Z" fill="#6D3303"/><path d="M76.85 42.61C76.85 42.61 77.21 44.07 76.7 44.29 76.18 44.51 75.16 43.85 75.67 42.97 76.19 42.1 76.55 41.66 76.85 42.61Z" fill="#6D3303"/><path d="M88.28 35.36C88.28 35.36 87.99 37.56 87.1 37.7 86.22 37.85 86.08 36.75 86.96 35.5 87.83 34.26 88.13 34.41 88.28 35.36Z" fill="#6D3303"/><path d="M83.22 42.83C83.22 42.83 83.29 44.88 82.63 45.1 81.97 45.32 81.68 44.29 82.12 43.34 82.56 42.39 83 42.1 83.22 42.83Z" fill="#6D3303"/><path d="M82.05 32.06C82.05 32.06 82.42 32.94 81.61 33.23 80.8 33.52 80.95 32.43 81.24 32.06 81.53 31.69 81.97 31.33 82.05 32.06Z" fill="#6D3303"/><path d="M84.32 37.55C84.32 37.55 84.69 38.72 84.03 38.72 83.37 38.73 83.44 37.19 84.32 37.55Z" fill="#6D3303"/><path d="M79.85 26.34C79.85 26.34 79.78 27.59 79.26 27.73 78.75 27.88 78.75 25.1 79.85 26.34Z" fill="#6D3303"/><path d="M84.69 27.59C84.69 27.99 84.46 28.33 84.17 28.33 83.89 28.33 83.66 28 83.66 27.59 83.66 27.18 83.89 26.86 84.17 26.86 84.46 26.86 84.69 27.18 84.69 27.59Z" fill="#6D3303"/><path d="M88.86 26.79C88.86 27.32 88.61 27.74 88.31 27.74 88 27.74 87.76 27.31 87.76 26.79 87.76 26.26 88 25.84 88.31 25.84 88.61 25.83 88.86 26.26 88.86 26.79Z" fill="#6D3303"/><path d="M94.43 25.47C94.43 25.47 94.43 27.08 93.77 27.23 93.11 27.38 92.89 26.28 93.18 25.4 93.48 24.51 93.84 23.78 94.43 25.47Z" fill="#6D3303"/><path d="M92.01 41.51C92.01 41.51 91.94 43.56 90.84 43.93 89.74 44.3 89.81 42.76 90.4 41.88 90.99 41 92.01 40.56 92.01 41.51Z" fill="#6D3303"/><path d="M96.04 45.46C96.04 45.46 95.89 46.78 95.16 46.71 94.43 46.64 94.57 45.83 95.01 45.39 95.45 44.95 96.04 44.88 96.04 45.46Z" fill="#6D3303"/><path d="M97.29 36.6C97.29 36.6 97.36 39.09 96.26 39.16 95.16 39.24 93.7 37.84 94.65 36.6 95.6 35.36 97.14 35.43 97.29 36.6Z" fill="#6D3303"/><path d="M94.06 32.06C94.06 32.06 94.21 33.23 93.54 33.23 92.88 33.23 92.15 33.01 92.74 32.28 93.33 31.55 93.62 31.03 94.06 32.06Z" fill="#6D3303"/><path d="M82.34 39.9C82.34 39.9 82.34 40.78 81.76 40.71 81.17 40.63 81.68 38.87 82.34 39.9Z" fill="#6D3303"/><path d="M69.81 29.06C69.81 29.06 69.74 29.57 69.01 29.57 68.28 29.57 67.91 29.06 68.5 28.69 69.08 28.33 69.74 28.4 69.81 29.06Z" fill="#6D3303"/><path d="M65.2 29.35C65.2 29.35 64.91 30.08 64.25 29.79 63.59 29.5 64.1 28.33 65.2 29.35Z" fill="#6D3303"/><path d="M72.01 50.37C72.01 50.37 72.09 51.17 71.72 51.03 71.35 50.89 71.72 49.86 72.01 50.37Z" fill="#6D3303"/><path d="M90.99 21.88C90.99 21.88 90.91 23.42 90.33 23.49 89.74 23.57 90.04 22.32 90.26 21.81 90.47 21.29 90.99 21 90.99 21.88Z" fill="#6D3303"/><path d="M84.61 21.73C84.61 21.73 85.05 22.76 84.61 22.98 84.17 23.2 83.66 22.61 83.73 21.95 83.81 21.29 84.39 21.07 84.61 21.73Z" fill="#6D3303"/><path d="M99.41 29.86C99.41 29.86 99.26 31.69 98.46 31.55 97.66 31.4 97.58 30.3 98.31 29.42 99.04 28.54 99.26 29.13 99.41 29.86Z" fill="#6D3303"/><path d="M90.84 48.32C90.84 48.32 90.69 49.71 89.81 49.86 88.93 50 89.27 49 89.59 48.17 89.96 47.23 90.84 47.23 90.84 48.32Z" fill="#6D3303"/><path d="M93.48 50.81C93.48 50.81 94.94 50.89 95.09 51.98 95.24 53.08 94.36 52.64 93.7 52.27 93.03 51.91 92.96 50.81 93.48 50.81Z" fill="#6D3303"/><path d="M100 50.08C100 50.08 100 51.62 99.19 52.13 98.38 52.64 97.14 51.62 98.02 50.15 98.9 48.69 99.78 48.03 100 50.08Z" fill="#6D3303"/><path d="M98.02 41.36C98.02 41.36 97.94 42.68 97.21 42.61 96.48 42.53 96.7 41.58 97.21 41.07 97.72 40.56 98.09 40.41 98.02 41.36Z" fill="#6D3303"/><path d="M105.34 43.12C105.34 43.12 105.12 44.44 104.24 44 103.36 43.56 104.17 42.68 104.68 42.46 105.2 42.24 105.42 42.17 105.34 43.12Z" fill="#6D3303"/><path d="M103.22 35.94C103.22 35.94 103.29 38.36 101.68 38.07 100.07 37.78 100.51 36.53 101.24 35.58 101.97 34.62 102.92 34.99 103.22 35.94Z" fill="#6D3303"/><path d="M108.27 37.7C108.27 37.7 108.42 38.94 107.39 38.87 106.36 38.8 106.14 37.48 107.02 36.97 107.9 36.45 108.2 36.9 108.27 37.7Z" fill="#6D3303"/><path d="M109.67 38.73C109.67 38.73 109.01 40.2 109.74 40.41 110.47 40.63 110.62 39.83 110.76 38.94 110.91 38.07 110.18 37.92 109.67 38.73Z" fill="#6D3303"/><path d="M86.96 53.81C86.96 53.81 86.67 54.91 87.4 55.13 88.13 55.35 88.94 54.62 88.5 53.74 88.05 52.86 86.96 52.28 86.96 53.81Z" fill="#6D3303"/><path d="M92.08 56.38C92.08 56.38 92.3 57.99 91.5 58.06 90.69 58.14 90.48 57.25 90.99 56.23 91.5 55.21 92.01 55.65 92.08 56.38Z" fill="#6D3303"/><path d="M97.51 56.16C97.51 56.16 97.43 57.62 96.78 57.62 96.12 57.62 95.75 56.96 96.34 56.08 96.92 55.21 97.36 55.35 97.51 56.16Z" fill="#6D3303"/><path d="M98.53 59.9C98.53 59.9 98.24 61.73 97.51 61.73 96.78 61.73 96.85 60.63 97.36 59.82 97.87 59.02 98.46 58.94 98.53 59.9Z" fill="#6D3303"/><path d="M100.95 25.54C100.95 25.54 101.1 26.64 100.51 26.86 99.92 27.08 99.56 26.06 100.07 25.54 100.58 25.02 100.65 25.02 100.95 25.54Z" fill="#6D3303"/><path d="M105.93 48.62C105.93 48.62 105.86 50.38 104.9 50.16 103.95 49.94 104.68 49.06 105.12 48.47 105.56 47.88 105.78 48.25 105.93 48.62Z" fill="#6D3303"/><path d="M102.56 56.53C102.56 56.53 102.78 57.92 102.12 57.99 101.46 58.06 101.46 56.89 101.83 56.53 102.19 56.16 102.56 55.94 102.56 56.53Z" fill="#6D3303"/><path d="M78.97 23.2C78.97 23.2 78.68 25.91 77.36 25.98 76.04 26.06 75.82 24.44 76.63 23.93 77.43 23.42 78.75 22.24 78.97 23.2Z" fill="#6D3303"/><path d="M70.99 25.91C70.99 25.91 70.99 26.79 70.18 26.93 69.37 27.08 69.08 26.49 69.67 26.27 70.25 26.05 70.99 25.91 70.99 25.91Z" fill="#6D3303"/><path d="M105.27 31.03C105.27 31.03 104.91 32.79 104.17 32.64 103.44 32.5 104.02 30.88 104.46 30.37 104.9 29.86 105.2 29.93 105.27 31.03Z" fill="#6D3303"/><path d="M109.08 44C109.08 44 109.22 45.39 108.49 45.39 107.76 45.39 107.61 44.59 107.9 43.92 108.2 43.27 108.79 43.05 109.08 44Z" fill="#6D3303"/><path d="M108.05 52.28C108.05 52.28 107.1 53.53 107.76 54.04 108.42 54.55 109.08 53.16 109.08 52.36 109.08 51.54 108.27 51.76 108.05 52.28Z" fill="#6D3303"/><path d="M104.76 58.58C104.76 58.95 104.56 59.24 104.32 59.24 104.07 59.24 103.88 58.95 103.88 58.58 103.88 58.22 104.08 57.92 104.32 57.92 104.56 57.92 104.76 58.21 104.76 58.58Z" fill="#6D3303"/><path d="M105.89 56.61C105.68 57.07 105.33 57.36 105.09 57.26 104.85 57.15 104.82 56.69 105.02 56.23 105.23 55.77 105.58 55.48 105.83 55.59 106.06 55.68 106.09 56.15 105.89 56.61Z" fill="#6D3303"/><path d="M111.35 29.42C111.35 30.23 110.97 30.89 110.51 30.89 110.04 30.89 109.67 30.24 109.67 29.42 109.67 28.61 110.04 27.96 110.51 27.96 110.97 27.96 111.35 28.61 111.35 29.42Z" fill="#6D3303"/><path d="M116.01 33.94C116.2 34.56 116.13 35.13 115.84 35.22 115.55 35.31 115.16 34.89 114.96 34.27 114.76 33.66 114.84 33.08 115.13 32.99 115.42 32.9 115.81 33.33 116.01 33.94Z" fill="#6D3303"/><path d="M118.31 40.41C118.31 40.41 119.48 42.17 118.9 42.68 118.31 43.19 116.99 41.43 116.99 40.56 116.99 39.68 117.72 39.75 118.31 40.41Z" fill="#6D3303"/><path d="M112.45 45.76C112.45 45.76 112.38 46.57 111.94 46.42 111.49 46.27 112.16 44.88 112.45 45.76Z" fill="#6D3303"/><path d="M102.19 30.78C102.19 31 102.09 31.18 101.97 31.18 101.85 31.18 101.75 31 101.75 30.78 101.75 30.56 101.85 30.37 101.97 30.37 102.09 30.37 102.19 30.56 102.19 30.78Z" fill="#6D3303"/><path d="M109.96 34.81C109.96 35.11 109.81 35.36 109.63 35.36 109.45 35.36 109.3 35.11 109.3 34.81 109.3 34.5 109.45 34.26 109.63 34.26 109.81 34.26 109.96 34.5 109.96 34.81Z" fill="#6D3303"/><path d="M90.11 29.28C90.11 29.52 89.98 29.72 89.82 29.72 89.66 29.72 89.53 29.52 89.53 29.28 89.53 29.04 89.66 28.84 89.82 28.84 89.98 28.83 90.11 29.03 90.11 29.28Z" fill="#6D3303"/><path d="M100.33 21.4C100.52 21.97 100.42 22.53 100.12 22.63 99.81 22.73 99.41 22.34 99.22 21.77 99.03 21.19 99.12 20.64 99.43 20.54 99.74 20.44 100.14 20.82 100.33 21.4Z" fill="#6D3303"/><path d="M107.32 27.22C107.32 27.58 107.16 27.88 106.95 27.88 106.75 27.88 106.58 27.59 106.58 27.22 106.58 26.86 106.74 26.56 106.95 26.56 107.16 26.57 107.32 26.86 107.32 27.22Z" fill="#6D3303"/><path d="M97.36 23.01C97.36 23.23 97.25 23.41 97.1 23.41 96.96 23.41 96.84 23.23 96.84 23.01 96.84 22.79 96.96 22.61 97.1 22.61 97.24 22.61 97.36 22.79 97.36 23.01Z" fill="#6D3303"/><path d="M83.07 23.2C83.07 23.44 82.91 23.64 82.7 23.64 82.5 23.64 82.33 23.44 82.33 23.2 82.33 22.96 82.5 22.76 82.7 22.76 82.91 22.75 83.07 22.95 83.07 23.2Z" fill="#6D3303"/><path d="M91.94 44.4C91.94 44.62 91.82 44.8 91.68 44.8 91.54 44.8 91.42 44.62 91.42 44.4 91.42 44.18 91.54 44 91.68 44 91.82 44 91.94 44.18 91.94 44.4Z" fill="#6D3303"/><path d="M101.46 41C101.46 41.24 101.36 41.44 101.24 41.44 101.12 41.44 101.02 41.25 101.02 41 101.02 40.76 101.12 40.56 101.24 40.56 101.36 40.56 101.46 40.75 101.46 41Z" fill="#6D3303"/><path d="M103.07 52.83C103.07 53.09 102.92 53.31 102.74 53.31 102.56 53.31 102.42 53.1 102.42 52.83 102.42 52.57 102.57 52.36 102.74 52.36 102.92 52.35 103.07 52.57 103.07 52.83Z" fill="#6D3303"/><path d="M78.24 40.19C78.24 40.39 78.13 40.56 77.98 40.56 77.83 40.56 77.72 40.39 77.72 40.19 77.72 39.99 77.84 39.82 77.98 39.82 78.12 39.82 78.24 39.99 78.24 40.19Z" fill="#6D3303"/><path d="M100.95 65.39C100.95 65.79 100.77 66.12 100.55 66.12 100.33 66.12 100.15 65.79 100.15 65.39 100.15 64.98 100.33 64.66 100.55 64.66 100.77 64.66 100.95 64.99 100.95 65.39Z" fill="#6D3303"/><path d="M95.16 62.1C95.16 62.38 95.01 62.61 94.83 62.61 94.65 62.61 94.5 62.38 94.5 62.1 94.5 61.82 94.65 61.59 94.83 61.59 95.01 61.58 95.16 61.81 95.16 62.1Z" fill="#6D3303"/><path d="M94.94 34.29C94.94 34.47 94.86 34.62 94.76 34.62 94.66 34.62 94.58 34.47 94.58 34.29 94.58 34.11 94.66 33.96 94.76 33.96 94.86 33.96 94.94 34.11 94.94 34.29Z" fill="#6D3303"/><path d="M92.95 18.19C93.04 18.58 92.92 18.95 92.69 19.01 92.46 19.06 92.19 18.79 92.1 18.39 92.01 18 92.12 17.63 92.36 17.58 92.59 17.52 92.86 17.79 92.95 18.19Z" fill="#6D3303"/><path d="M122.1 46.76C122.26 47.28 122.2 47.76 121.97 47.83 121.74 47.9 121.42 47.54 121.26 47.01 121.1 46.49 121.16 46.01 121.39 45.93 121.62 45.88 121.94 46.24 122.1 46.76Z" fill="#6D3303"/><path d="M123.27 52.08C123.43 52.6 123.37 53.08 123.14 53.15 122.91 53.22 122.59 52.86 122.43 52.34 122.27 51.82 122.33 51.34 122.56 51.26 122.79 51.19 123.11 51.56 123.27 52.08Z" fill="#6D3303"/><path d="M123.38 43.99C123.5 44.38 123.46 44.74 123.29 44.79 123.11 44.84 122.88 44.57 122.75 44.18 122.63 43.79 122.67 43.43 122.85 43.38 123.02 43.33 123.27 43.61 123.38 43.99Z" fill="#6D3303"/><path d="M125.14 52.69C125.26 53.08 125.22 53.44 125.05 53.49 124.87 53.54 124.64 53.27 124.52 52.88 124.4 52.49 124.44 52.13 124.61 52.07 124.79 52.03 125.02 52.3 125.14 52.69Z" fill="#6D3303"/><path d="M125.15 57.71C125.26 58.28 125.12 58.8 124.82 58.85 124.52 58.91 124.19 58.49 124.07 57.92 123.96 57.35 124.1 56.84 124.4 56.78 124.7 56.72 125.04 57.14 125.15 57.71Z" fill="#6D3303"/><path d="M126.69 63.34C126.79 63.82 126.62 64.26 126.33 64.32 126.03 64.38 125.71 64.04 125.61 63.56 125.51 63.08 125.68 62.64 125.98 62.58 126.27 62.52 126.59 62.86 126.69 63.34Z" fill="#6D3303"/><path d="M124.14 66.7C124.26 67.3 124.12 67.84 123.82 67.9 123.52 67.96 123.18 67.52 123.06 66.92 122.94 66.32 123.08 65.78 123.38 65.72 123.68 65.67 124.02 66.1 124.14 66.7Z" fill="#6D3303"/><path d="M105.76 67.43C105.76 67.43 105.65 68.92 106.48 68.92 107.31 68.92 107.36 67.32 106.65 66.82 105.93 66.32 105.76 67.43 105.76 67.43Z" fill="#6D3303"/><path d="M110.79 71.02C110.79 71.02 110.52 72.45 111.34 72.51 112.17 72.56 112 70.96 111.56 70.41 111.12 69.86 110.84 70.52 110.79 71.02Z" fill="#6D3303"/><path d="M115.55 75.73C115.78 76.23 115.78 76.72 115.55 76.83 115.32 76.94 114.93 76.63 114.7 76.13 114.46 75.63 114.46 75.14 114.7 75.03 114.93 74.93 115.31 75.24 115.55 75.73Z" fill="#6D3303"/><path d="M109.63 72.84C109.63 73.09 109.53 73.28 109.41 73.28 109.29 73.28 109.19 73.08 109.19 72.84 109.19 72.6 109.29 72.4 109.41 72.4 109.53 72.4 109.63 72.6 109.63 72.84Z" fill="#6D3303"/><path d="M26.98 31.55C27.05 31.71 27 31.89 26.87 31.95 26.74 32.01 26.57 31.92 26.5 31.76 26.43 31.6 26.48 31.42 26.62 31.36 26.74 31.3 26.91 31.38 26.98 31.55Z" fill="#6D3303"/><path d="M125.94 50.55C125.94 50.82 125.84 51.04 125.71 51.04 125.58 51.04 125.48 50.82 125.48 50.55 125.48 50.28 125.58 50.06 125.71 50.06 125.83 50.06 125.94 50.28 125.94 50.55Z" fill="#6D3303"/><path d="M126.92 58.4C126.92 58.66 126.8 58.87 126.66 58.87 126.52 58.87 126.4 58.66 126.4 58.4 126.4 58.15 126.51 57.94 126.66 57.94 126.8 57.94 126.92 58.15 126.92 58.4Z" fill="#6D3303"/><path d="M122.97 73C123.03 73.22 122.97 73.43 122.84 73.47 122.7 73.51 122.54 73.37 122.48 73.15 122.41 72.93 122.48 72.72 122.61 72.68 122.74 72.64 122.91 72.78 122.97 73Z" fill="#6D3303"/><path d="M124.58 71.5C124.82 71.92 124.79 72.38 124.51 72.54 124.23 72.7 123.82 72.49 123.58 72.07 123.34 71.65 123.37 71.19 123.65 71.03 123.92 70.88 124.34 71.09 124.58 71.5Z" fill="#6D3303"/><path d="M124.08 75.25C124.2 75.69 124.07 76.1 123.81 76.17 123.55 76.24 123.24 75.94 123.12 75.5 123 75.06 123.12 74.65 123.39 74.58 123.65 74.5 123.96 74.8 124.08 75.25Z" fill="#6D3303"/><path d="M121.7 69.86C121.7 69.86 122.26 69.44 122.31 70.09 122.35 70.74 121.52 71.46 121.52 71.06 121.52 70.67 121.7 69.86 121.7 69.86Z" fill="#6D3303"/><path d="M120.86 74.93C120.86 74.93 122.4 75.1 122.44 76 122.48 76.9 122.18 77.28 121.67 77.66 121.16 78.04 120.43 78.81 120.43 78.39 120.44 77.96 120.86 74.93 120.86 74.93Z" fill="#6D3303"/><path d="M123.72 81.88C123.72 81.88 123.85 83.16 123.98 83.59 124.11 84.02 121.89 83.8 121.89 83.04 121.89 82.27 123.64 81.33 123.72 81.88Z" fill="#6D3303"/><path d="M120.86 83.04C120.86 83.04 120.14 83.29 120.18 84.49 120.22 85.68 121.29 86.03 121.59 84.96 121.89 83.89 121.21 82.74 120.86 83.04Z" fill="#6D3303"/><path d="M120.1 81.07C120.1 81.07 120.19 81.97 120.53 81.88 120.87 81.79 121.47 81.07 121.04 80.77 120.61 80.48 120.1 80.52 120.1 81.07Z" fill="#6D3303"/></g><g><path d="M36.37 92.5C36.37 92.5 36.29 92.59 36.16 92.74 36.03 92.9 35.85 93.13 35.66 93.41 35.57 93.55 35.47 93.72 35.38 93.88 35.29 94.05 35.2 94.24 35.12 94.43 35.04 94.62 34.97 94.83 34.93 95.04 34.88 95.25 34.85 95.47 34.83 95.69 34.81 95.91 34.82 96.13 34.84 96.35 34.85 96.46 34.87 96.56 34.88 96.67 34.9 96.78 34.93 96.88 34.95 96.98 35.01 97.18 35.06 97.37 35.14 97.56 35.17 97.65 35.22 97.74 35.25 97.82 35.29 97.9 35.32 97.98 35.36 98.06 35.44 98.21 35.51 98.36 35.58 98.48 35.65 98.6 35.71 98.71 35.76 98.8 35.87 98.98 35.93 99.08 35.93 99.08 35.93 99.08 35.84 99 35.7 98.86 35.62 98.79 35.54 98.69 35.45 98.58 35.35 98.47 35.25 98.34 35.15 98.2 35.05 98.05 34.94 97.89 34.85 97.7 34.8 97.61 34.75 97.51 34.71 97.41 34.67 97.31 34.63 97.2 34.59 97.09 34.52 96.87 34.46 96.64 34.43 96.4 34.4 96.16 34.39 95.91 34.41 95.66 34.43 95.41 34.47 95.17 34.53 94.93 34.59 94.69 34.69 94.47 34.78 94.27 34.98 93.86 35.23 93.51 35.47 93.24 35.71 92.97 35.94 92.79 36.11 92.66 36.27 92.55 36.37 92.5 36.37 92.5Z" fill="#6D3303"/><path d="M39.83 92.83C39.83 92.83 39.53 93.19 39.13 93.74 39.03 93.88 38.92 94.03 38.81 94.19 38.7 94.35 38.59 94.52 38.48 94.7 38.26 95.06 38.04 95.45 37.87 95.86 37.69 96.27 37.58 96.69 37.53 97.09 37.52 97.19 37.52 97.29 37.51 97.39 37.52 97.49 37.51 97.58 37.52 97.68 37.54 97.86 37.57 98.04 37.62 98.2 37.64 98.28 37.67 98.35 37.7 98.43 37.73 98.5 37.76 98.56 37.78 98.63 37.84 98.75 37.9 98.86 37.95 98.94 38.06 99.11 38.13 99.2 38.13 99.2 38.13 99.2 38.04 99.13 37.88 98.99 37.81 98.91 37.72 98.83 37.63 98.71 37.59 98.65 37.54 98.59 37.5 98.52 37.46 98.45 37.42 98.37 37.38 98.29 37.3 98.13 37.23 97.94 37.19 97.73 37.16 97.63 37.16 97.52 37.14 97.41 37.13 97.3 37.13 97.19 37.13 97.07 37.14 96.84 37.16 96.6 37.23 96.37 37.28 96.14 37.37 95.91 37.45 95.69 37.55 95.47 37.66 95.26 37.77 95.05 37.88 94.85 38.02 94.66 38.14 94.48 38.4 94.13 38.68 93.82 38.92 93.57 39.44 93.08 39.83 92.83 39.83 92.83Z" fill="#6D3303"/></g><g><path d="M99.67 91.89C99.67 91.89 99.62 91.98 99.54 92.13 99.46 92.28 99.35 92.5 99.24 92.77 99.19 92.91 99.12 93.05 99.07 93.21 99.01 93.36 98.97 93.53 98.92 93.7 98.87 93.87 98.84 94.05 98.8 94.23 98.78 94.41 98.74 94.6 98.75 94.79L98.74 95.07C98.75 95.16 98.75 95.25 98.76 95.34 98.77 95.53 98.81 95.7 98.84 95.87 98.86 96.05 98.94 96.2 98.98 96.36 99.02 96.52 99.1 96.66 99.16 96.79 99.19 96.86 99.22 96.92 99.25 96.98 99.27 97.04 99.3 97.1 99.34 97.15 99.4 97.25 99.45 97.34 99.5 97.42 99.59 97.57 99.63 97.66 99.63 97.66 99.63 97.66 99.56 97.59 99.43 97.47 99.36 97.41 99.28 97.34 99.2 97.25 99.11 97.16 99.04 97.05 98.95 96.92 98.91 96.86 98.86 96.79 98.81 96.72 98.75 96.65 98.73 96.57 98.68 96.49 98.61 96.33 98.51 96.17 98.47 95.98 98.42 95.79 98.35 95.6 98.34 95.39 98.32 95.29 98.31 95.18 98.3 95.08L98.31 94.77C98.31 94.56 98.36 94.36 98.39 94.16 98.4 94.06 98.44 93.97 98.46 93.87 98.49 93.78 98.51 93.68 98.55 93.59 98.61 93.41 98.69 93.24 98.77 93.09 98.84 92.93 98.94 92.79 99.02 92.66 99.19 92.41 99.35 92.22 99.47 92.09 99.59 91.95 99.67 91.89 99.67 91.89Z" fill="#6D3303"/><path d="M102.75 92C102.75 92 102.66 92.05 102.52 92.17 102.44 92.23 102.36 92.31 102.27 92.4 102.17 92.48 102.09 92.6 101.99 92.71 101.89 92.83 101.81 92.98 101.71 93.12 101.63 93.28 101.54 93.44 101.45 93.61 101.38 93.79 101.3 93.98 101.23 94.15 101.2 94.25 101.17 94.35 101.13 94.45L101.05 94.74 100.99 95.04C100.97 95.14 100.96 95.24 100.94 95.34 100.93 95.44 100.92 95.54 100.91 95.64 100.91 95.74 100.9 95.84 100.9 95.93 100.9 96.12 100.9 96.31 100.92 96.48 100.94 96.65 100.97 96.82 101 96.97 101.02 97.05 101.04 97.12 101.06 97.19 101.08 97.26 101.1 97.32 101.13 97.38 101.17 97.5 101.22 97.6 101.27 97.68 101.31 97.76 101.35 97.82 101.38 97.86 101.41 97.9 101.42 97.92 101.42 97.92 101.42 97.92 101.4 97.9 101.36 97.87 101.32 97.84 101.26 97.79 101.19 97.72 101.13 97.65 101.05 97.56 100.98 97.45 100.9 97.34 100.83 97.2 100.76 97.05 100.7 96.9 100.64 96.72 100.6 96.54 100.56 96.35 100.52 96.15 100.51 95.94 100.5 95.73 100.5 95.51 100.52 95.29 100.54 95.18 100.55 95.07 100.56 94.96 100.58 94.85 100.6 94.74 100.63 94.63L100.72 94.3C100.76 94.2 100.79 94.1 100.82 94 100.91 93.79 101.01 93.61 101.1 93.42 101.21 93.24 101.33 93.08 101.43 92.92 101.56 92.78 101.68 92.64 101.8 92.52 101.93 92.42 102.04 92.31 102.16 92.24 102.27 92.16 102.37 92.11 102.46 92.07 102.55 92.03 102.62 92 102.67 91.99 102.73 92.01 102.75 92 102.75 92Z" fill="#6D3303"/></g><g><path d="M126.08 92.52C126.63 92.15 126.38 91.42 126.32 90.82 126.26 90.21 127.54 90.45 127.54 89.97 127.54 89.7 127.33 89.13 127.15 88.68 126.88 88.45 126.62 88.21 126.36 87.94 125.83 87.39 125.4 86.82 125.05 86.22 124.59 86.47 123.95 86.84 123.84 86.99 123.66 87.23 123.42 89.24 123.42 89.24 123.42 89.24 122.63 89.24 122.63 89.97 122.63 90.51 121.84 89.96 121.54 90.29 122.19 91.65 123.01 92.88 123.98 93.9 124.71 92.34 125.59 92.85 126.08 92.52Z" fill="#6D3303"/><path d="M134.1 94.04C134.4 93.8 134.77 93.37 134.28 92.94 133.79 92.52 133.49 92.21 134.22 91.42 134.65 90.95 134.31 90.39 133.97 90.02 132.52 90.66 130.92 90.66 129.37 90.03 129.46 90.24 129.47 90.4 129.3 90.44 128.81 90.56 129.73 91.11 129.79 91.48 129.85 91.84 128.82 91.6 129.37 92.33 129.92 93.06 130.28 93.3 129.06 93.73 127.85 94.15 128.27 94.58 128.7 95.31 129.03 95.87 128.78 96.22 128.16 96.6 129.9 97.06 132.01 96.91 134.05 96.4 134.96 95.1 133.83 94.26 134.1 94.04Z" fill="#6D3303"/><path d="M141.1 87C141.1 87 141.91 87 141.68 86.71 140.4 85.31 138.77 86.48 138.77 86.48 138.77 86.48 138.65 85.43 138.25 85.43 137.84 85.43 137.67 86.83 137.67 86.83 137.67 86.83 136.97 86.19 136.74 86.19 136.51 86.19 136.57 86.54 136.86 87.53 136.49 88.07 136.09 88.52 135.67 88.91 135.89 89.09 136.12 89.24 136.31 89.24 136.8 89.24 136.25 89.54 136.8 90.28 137.34 91.01 138.08 91.13 137.47 92.04 136.86 92.95 136.86 93.01 137.47 93.5 137.94 93.88 137.83 94.36 137.64 95.15 139.81 94.14 141.49 92.85 141.93 91.73 143.02 88.93 141.1 87 141.1 87Z" fill="#6D3303"/></g><g><path d="M25.57 31.5C31.45 31.5 33.85 30.51 36.08 26.53 37.65 23.74 39.1 20.7 41.17 19.05 39.76 19.24 38.38 19.65 38.38 19.65 38.38 19.65 36.88 22.12 34.76 25.5 32.64 28.88 30.41 29.17 24.34 30.08 18.27 31 18.67 33.06 18.67 33.06 18.67 33.06 18.84 34.05 19.38 34.95 20.05 33.55 21.69 31.5 25.57 31.5Z" fill="#C18306"/></g><g opacity="0.5"><path d="M127.79 93.48C123.07 92.05 120.21 82.6 123.51 70.07 126.8 57.54 124.94 47.99 118.56 38.53 112.19 29.08 109.77 30.95 111.75 34.13 115.71 40.39 111.86 45.23 108.9 49.85 105.93 54.47 100.11 62.81 94.61 59.96 87.36 55.46 87.68 50.4 89.88 45.13 92.3 37.88 90.32 37.88 80.87 43.81 71.42 49.74 69.98 56.46 65.28 57.4 56.3 59.19 54.76 52.79 55.31 46.63 55.86 40.47 53.07 43.7 52.52 50.4 51.97 57.1 51.75 63.26 47.03 60.4 42.31 57.54 35.16 53.26 33.41 47.32 31.65 41.39 37.26 32.49 35.94 33.25 34.07 34.13 31.61 37 29.46 40.68 27.31 44.36 26.97 49.27 23.99 47.31 21.01 45.35 19.85 39.83 21.38 36.86 20.32 37.38 19.54 37.62 18.96 37.69 18.89 37.83 18.85 37.92 18.85 37.92 18.85 37.92 19.25 37.92 20.05 37.86 19.13 38.66 18.33 41.81 18.33 41.81 18.33 41.81 18.33 41.81 19.48 41.07 18.74 42.67 18.91 46.68 19.48 46.68 20.05 46.68 20 46.63 23.03 48.46 26.3 50.41 27.55 51.61 29.33 54.01 33.05 58.42 37.29 61.69 40.5 62.89 42.56 64.32 45.84 66.33 47.16 69.84 48.48 73.36 48.09 81.43 47.27 87.15 46.89 89.76 46.61 93.41 45.84 93.85 45.07 94.29 44.14 94.12 43.09 93.3 42.04 92.48 40.62 91.93 39.85 92.81 39.08 91.88 37.82 90.67 36.39 92.48 34.3 91.49 32.93 94.4 33.04 96.82 33.15 99.24 36.01 99.84 35.95 99.07 36.17 99.24 37.87 99.78 38.15 99.18 38.81 99.62 41.94 100.12 44.63 99.95 47.32 99.79 49.58 98.96 49.74 97.53 49.9 96.1 49.63 95.39 50.07 93.63 50.51 91.87 53.26 82.64 54.74 76.27 56.22 69.89 58.38 70.14 58.33 69.66 58.28 69.18 58.28 68.55 58.28 68.55 58.28 68.55 58.28 68.55 59.02 68.76 59.07 68.02 58.01 66.75 58.01 66.75 58.01 66.75 58.54 67.18 59.18 67.39 59.02 66.28 57.91 65.11 57.91 65.11 57.91 65.11 58.39 65.16 59.61 65.64 59.5 64.1 58.48 62.96 58.48 62.96 60.17 63.33 61.92 63.4 61.92 63.4 61.92 63.4 61.92 63.4 60.9 62.67 61.78 63.11 63.69 62.74 63.69 62.74L63.1 62.23 65.3 62.23 65.23 61.86 66.77 61.86C66.77 61.86 66.77 61.86 66.25 61.27 69.4 61.49 70.43 58.63 70.87 56.87 71.31 55.11 72.41 53.5 73.8 52.55 75.19 51.6 76.51 51.15 79.51 48.96 82.51 46.76 86.54 43.17 87.35 43.32 88.16 43.47 85.15 49.7 84.42 53.36 83.69 57.02 91.38 62 94.82 64.28 98.26 66.55 108.4 73.45 110.89 75.18 113.4 76.91 113.45 79.74 113.11 85.48 112.66 90.69 110.33 93.24 110.33 93.24 110.33 93.24 109.34 92.12 109.21 92.15 109.08 92.18 109.18 92.26 109.31 93.45 108.09 92.52 105.41 92.93 105.41 92.93 105.41 92.93 103.3 91.71 102.68 92.04 101.19 90.72 99.69 91.87 99.69 91.87 97.98 90.99 97.11 93.13 96.89 95.05 96.67 96.97 99.26 98.02 99.64 97.63 100.03 98.23 101.56 98.4 101.45 97.9 102.06 98.4 106.56 99.27 108.98 98.61 111.4 97.95 112.93 96.85 114.64 90.64 117.06 83.28 117.13 76.41 117.13 76.41 117.13 76.41 118.67 77.2 118.57 76.76 118.47 76.31 117.09 75.02 117.09 75.02 117.09 75.02 117.69 74.97 118.08 74.92 118.48 74.87 118.68 74.92 117.58 74.47 116.49 74.02 116.54 74.22 115.04 72.34 113.06 70.35 105.41 62.49 105.41 61.56 105.41 60.4 108.09 54.74 111.12 51.02 114.15 47.29 116.71 42.69 116.71 42.69 116.71 42.69 119.63 44.73 121.14 47.99 122.95 52.07 123.01 61.8 122.48 65.3 121.96 68.8 120.68 75.2 120.03 81.38 119.39 87.56 122.36 93.91 127.08 96.18 131.8 98.45 140.83 94.49 141.94 91.69 142.42 90.49 142.33 89.44 142.08 88.65 139.36 92.78 131.84 94.71 127.79 93.48Z" fill="#CC8C0D"/></g><g opacity="0.5"><path d="M53.08 25.22C55.59 28.59 62.06 32.69 66.62 32.16 70.25 31.63 65.63 30.58 63.25 29.52 60.87 28.46 68.93 28.2 76.98 23.18 77.02 23.16 77.05 23.13 77.09 23.11 72.83 25.01 68.24 26.76 65.16 27.17 59.81 27.87 57.43 27.69 53.94 25.13 52.94 24.35 52.03 23.71 51.21 23.2 51.85 23.75 52.48 24.42 53.08 25.22Z" fill="#CC8C0D"/></g><g><path d="M12.3 6.2C12.3 6.2 14.61 5.7 14.78 5.62 14.95 5.54 13.79 4.71 13.79 4.71L15.69 5.7C15.69 5.7 15.36 4.79 15.77 4.71 16.18 4.63 16.43 5.29 16.43 5.29 16.43 5.29 18.68 3.94 19.76 4.11 20.25 4.29 19.58 5.19 19.58 5.19 19.58 5.19 22.57 4.66 25.41 5.41 26.62 5.59 26.66 5.55 28.01 3.89 29.36 2.23 31.06-0.51 33.12 0.08 35.18 0.66 37.47 1.43 37.79 2.1 38.11 2.77 37.75 7.35 36.89 8.69 36.04 10.03 33.03 10.84 33.03 10.84 33.03 10.84 32.99 11.78 33.34 12.23 33.7 12.68 34.15 13.62 34.15 13.93 36.66 13.35 38.28 13.66 38.77 13.7 38.05 14.11 37.92 14.87 37.92 14.87 37.92 14.87 39.35 15 39.98 15.81 39.08 15.99 38.81 16.17 38.81 16.17 38.81 16.17 40.34 17.56 40.56 18.14 39.62 18.41 39.34 18.36 38.35 20.39 37.36 22.42 33.84 27.81 32.52 29.13 31.59 29.85 29.45 29.95 27.74 29.95 25.11 29.95 21.1 31.16 19.94 31.87 18.78 32.58 19.23 33.08 19.5 33.74 19.78 34.4 18.62 34.29 17.85 34.23 18.29 34.95 17.79 35.39 16.91 34.17 16.58 35.44 13.28 35.71 10.81 35.6L10.75 34.61C10.75 34.61 9.82 35.16 9.54 34.94 9.27 34.72 9.92 33.68 9.92 33.68 9.92 33.68 9.04 33.9 8.82 33.63 8.6 33.35 9.75 32.75 9.75 32.75 9.75 32.75 8.87 32.09 8.6 31.65 8.6 31.65 3.77 30.39 3.77 28.79 3.77 27.2 4.37 25.99 4.37 25.99 4.37 25.99 2.64 22.83 0 21.56 0.22 21.01 1.21 20.35 1.21 20.35L0.39 20.18C0.39 20.18 1.27 18.86 2.15 18.97 1.16 18.58 0.78 18.53 0.78 18.53 0.78 18.53 2.26 17.1 4.35 17.43 4.9 16.77 5.83 14.02 5.89 12.98 5.45 13.48 5.17 13.53 5.17 13.53L4.84 12.54C4.84 12.54 4.57 13.14 4.13 13.14 3.69 13.14 4.24 12.15 4.24 12.15 4.24 12.15 0.67 10.5 1 8.96 1.33 7.42 2.76 1.93 5.51 1.43 6.65 1.34 8.17 2.71 12.3 6.2Z" fill="#F9B522"/><g opacity="0.5"><path d="M38.81 16.18C38.81 16.18 39.08 16 39.98 15.82 39.35 15.01 37.92 14.88 37.92 14.88 37.92 14.88 38.05 14.12 38.77 13.71 38.28 13.67 36.66 13.35 34.15 13.94 34.15 13.62 33.7 12.68 33.34 12.24 32.98 11.79 33.03 10.85 33.03 10.85 33.03 10.85 36.04 10.04 36.89 8.7 37.26 8.12 37.53 6.95 37.7 5.75 37.68 5.86 37.65 5.97 37.64 6.1 37.18 9.55 33 9.75 34.26 8.96 36.65 7.37 37.91 3.05 36.98 2.13 34.59 0.54 31.54 2.19 30.48 3.19 29.42 4.19 29.75 2.73 31.48 1.14 32.17 0.5 33.36 0.41 34.54 0.52 34.07 0.37 33.6 0.23 33.13 0.1 31.05-0.5 29.35 2.23 28 3.89 26.66 5.55 26.61 5.59 25.4 5.41 22.56 4.66 19.57 5.19 19.57 5.19 19.57 5.19 20.24 4.29 19.75 4.11 19.68 4.11 19.6 4.1 19.51 4.1 19.11 4.8 18.07 5.71 18.95 5.49 23.58 4.63 28.86 7.13 28.36 8.55 28.86 7.91 30.43 6.98 30.21 9.19 30.99 8.34 31.49 9.76 30.71 10.9 32.49 11.26 33.7 15.18 33.92 15.96 35.2 15.18 35.77 16.32 35.77 16.32 35.77 16.32 34.63 16.04 33.92 17.96 34.13 17.46 35.77 16.61 36.77 17.68 34.92 17.32 33.84 20.89 28.5 24.17 23.15 27.45 20.3 22.32 20.02 20.25 19.66 17.66 22.23 16.69 20.7 16.7 19.17 16.72 16.74 16.83 17.24 18.25 17.74 19.67 18.02 22.17 16.17 21.24 14.32 20.31 10.54 20.31 8.9 20.88 7.26 21.45 8.68 18.53 9.4 17.67 10.11 16.81 9.04 16.67 6.9 17.02 8.61 17.15 7.83 18.74 6.83 20.17 5.83 21.6 4.98 24.73 3.9 22.95 2.83 21.17 4.19 20.17 4.19 20.17 4.19 20.17 2.33 20.6 2.48 20.17 2.62 19.74 4.34 19.17 4.34 19.17 4.34 19.17 3.84 18.53 2.91 18.1 3.76 17.53 5.26 18.25 5.26 18.25 5.26 18.25 5.55 17.68 6.69 16.68 5.69 16.89 5.41 16.68 6.41 14.04 7.48 10.9 11.18 6.13 12.25 7.23 12.75 6.05 14.89 5.92 14.89 5.92L14.6 5.68C14.03 5.83 12.3 6.2 12.3 6.2 8.17 2.7 6.65 1.34 5.5 1.45 5.4 1.47 5.3 1.5 5.21 1.53 6.08 1.64 7.21 2.1 8.52 3.38 11.3 6.69 9.18 5.77 7.79 4.44 6.4 3.11 5.33 2.18 4.41 3.04 3.48 3.9 1.42 7.55 3.35 8.68 5.27 9.81 7.46 9.01 6.66 9.94 5.87 10.87 5.8 12.52 5.2 11.53 4.75 10.78 2.48 11.12 1.26 10 2.06 11.17 4.23 12.17 4.23 12.17 4.23 12.17 3.68 13.16 4.12 13.16 4.56 13.16 4.83 12.56 4.83 12.56L5.16 13.55C5.16 13.55 5.44 13.5 5.88 13 5.82 14.05 4.89 16.79 4.34 17.45 2.25 17.12 0.77 18.55 0.77 18.55 0.77 18.55 1.15 18.6 2.14 18.99 1.26 18.88 0.38 20.2 0.38 20.2L1.2 20.37C1.2 20.37 0.21 21.03-0.01 21.58 2.63 22.85 4.39 26.03 4.39 26.03 4.39 26.03 3.79 27.24 3.79 28.83 3.79 30.42 8.62 31.69 8.62 31.69 8.89 32.13 9.77 32.79 9.77 32.79 9.77 32.79 8.62 33.39 8.84 33.67 9.06 33.94 9.94 33.72 9.94 33.72 9.94 33.72 9.28 34.76 9.56 34.98 9.84 35.2 10.77 34.65 10.77 34.65L10.83 35.64C13.3 35.75 16.6 35.48 16.93 34.21 17.81 35.42 18.3 34.98 17.87 34.27 18.64 34.32 19.79 34.44 19.52 33.78 19.25 33.12 18.8 32.63 19.96 31.91 21.11 31.2 25.13 29.99 27.76 29.99 29.47 29.99 31.61 29.88 32.54 29.17 33.86 27.85 37.38 22.47 38.37 20.43 39.36 18.4 39.64 18.45 40.58 18.18 40.34 17.58 38.81 16.18 38.81 16.18Z" fill="#CC8C0D"/></g><path d="M6.1 16.95C6.1 16.95 16.38 14.59 24.01 17.33 22.86 16.34 21.59 16.07 21.59 16.07 21.59 16.07 22.03 13.19 20.82 13.6 19.8 13.94 20.05 15.85 20.05 15.85 20.05 15.85 14.83 14.64 8.68 16.13 8.9 14.04 7.42 12.89 7.03 16.35 6.26 16.56 6.1 16.95 6.1 16.95Z" fill="#CC8B09"/><path d="M3.4 5.06C3.4 5.06 4.48 3.12 5.34 3.28 6.2 3.44 8.79 6.78 8.79 6.78 8.79 6.78 7.77 6.78 7.71 7 7.66 7.21 8.09 7.65 8.09 7.65 8.09 7.65 7.6 8.83 5.45 8.72 3.29 8.61 2.16 7.21 3.4 5.06Z" fill="#C65406"/><path d="M29.27 6.19C29.27 6.19 31.43 0.43 36.65 2.31 37.57 2.79 36.33 6.35 35.52 7.32 34.71 8.29 31.27 9.42 31.43 7.81 31.59 6.19 31.32 6.3 30.46 6.73 31.21 5.97 31.21 5.71 31.21 5.71L29.27 6.19Z" fill="#C65406"/><g><path d="M8.34 15.56C8.26 16.16 7.99 16.61 7.74 16.57 7.49 16.53 7.36 16.01 7.45 15.41 7.53 14.81 7.8 14.36 8.05 14.4 8.3 14.44 8.43 14.96 8.34 15.56Z"/><path d="M8.26 15.19C8.24 15.43 8.14 15.61 8.03 15.6 7.92 15.59 7.84 15.39 7.86 15.15 7.88 14.91 7.98 14.73 8.09 14.74 8.21 14.75 8.28 14.95 8.26 15.19Z" fill="#FFFFFF"/></g><g><path d="M21.3 15.01C21.23 15.61 20.97 16.07 20.72 16.03 20.47 15.99 20.33 15.47 20.41 14.87 20.48 14.27 20.74 13.81 20.99 13.85 21.24 13.89 21.38 14.41 21.3 15.01Z"/><path d="M21.22 14.64C21.21 14.88 21.1 15.06 20.99 15.05 20.88 15.04 20.8 14.84 20.81 14.61 20.83 14.37 20.93 14.19 21.03 14.2 21.15 14.21 21.23 14.41 21.22 14.64Z" fill="#FFFFFF"/></g><g><path d="M6.91 17.03C6.91 17.03 7.8 17.11 7.95 17.86 8.1 18.62 5.65 21.38 5.57 22.7 7.12 20.14 8.94 18.07 9.01 17.59 9.09 17.1 7.64 16.77 6.91 17.03Z" fill="#CC8B09"/><path d="M20.7 16.7C20.7 16.7 19.54 17.59 19.56 18.88 19.58 20.17 19.26 22.68 20.93 25.06 19.82 24.07 19.18 23.87 19.21 23.21 19.24 22.55 19.54 20.5 18.78 19.31 18.02 18.12 18.45 17.94 19.13 17.26 19.82 16.57 21.01 16.55 20.7 16.7Z" fill="#CC8B09"/></g><path d="M7.63 12.84C7.63 12.84 8.34 11.49 9.42 12.92 9.2 11.4 8.48 10.41 7.63 12.84Z" fill="#F9B522"/><path d="M19.51 12.89C19.51 12.89 20.67 11.21 21.99 12.64 21.44 11.54 20.7 10.9 20.36 11.32 20.04 11.74 19.51 12.89 19.51 12.89Z" fill="#F9B522"/><path d="M7.56 12.53C7.56 12.53 8.28 11.18 9.35 12.61 9.13 11.09 8.42 10.1 7.56 12.53Z" fill="#573220"/><path d="M19.45 12.58C19.45 12.58 20.61 10.9 21.93 12.33 21.38 11.23 20.64 10.59 20.3 11.01 19.97 11.43 19.45 12.58 19.45 12.58Z" fill="#573220"/><g><path d="M14.88 12.45C15.03 12.77 14.87 13.17 14.52 13.33 14.17 13.49 13.77 13.36 13.61 13.04 13.46 12.72 13.62 12.32 13.98 12.16 14.33 12 14.73 12.13 14.88 12.45Z" fill="#6D3303"/><path d="M10.59 9.73C10.59 9.73 11.26 9.25 11.59 9.52 11.91 9.79 12.15 10.38 12.18 10.73 12.21 11.08 11.62 11.08 10.97 10.89 10.32 10.7 10.32 10 10.59 9.73Z" fill="#6D3303"/><path d="M14.11 9.98C14.11 9.98 13.57 9.84 13.55 10.41 13.52 10.97 14.22 11.19 14.44 10.89 14.65 10.59 14.54 10.14 14.11 9.98Z" fill="#6D3303"/><path d="M12.39 7.64C12.39 7.64 12.36 8.23 11.77 8.39 11.1 8.58 10.32 8.25 10.53 7.96 10.74 7.67 11.04 7.45 11.33 7.18 11.63 6.91 12 7.1 12.24 7.23 12.5 7.37 12.39 7.64 12.39 7.64Z" fill="#6D3303"/><path d="M14.89 7.53C14.89 7.53 14.65 7.99 15 8.31 15.35 8.63 15.75 8.1 15.67 7.64 15.59 7.18 15.18 7.05 14.89 7.53Z" fill="#6D3303"/><path d="M17.36 7.93C17.36 7.93 16.31 8.69 16.42 9.28 16.56 9.76 17.52 9.87 18.06 9.28 18.6 8.69 18.55 8.37 18.3 8.04 18.06 7.72 17.79 7.56 17.36 7.93Z" fill="#6D3303"/><path d="M21.88 7.34C21.88 7.34 22.42 7.74 22.28 8.23 22.15 8.71 21.18 8.74 20.89 8.15 20.58 7.56 21.31 6.94 21.88 7.34Z" fill="#6D3303"/><path d="M18.52 10.57C18.52 10.57 18.49 11.11 17.93 11.22 17.37 11.32 17.37 10.68 17.74 10.36 18.11 10.03 18.6 10.19 18.52 10.57Z" fill="#6D3303"/><path d="M17.55 5.94C17.55 5.94 17.69 6.53 17.26 6.61 16.83 6.69 16.7 6.29 16.88 5.97 17.07 5.65 17.47 5.52 17.55 5.94Z" fill="#6D3303"/><path d="M19.65 6.97C19.65 6.97 19.86 7.48 19.35 7.48 18.84 7.48 19.08 6.89 19.33 6.75 19.57 6.62 19.59 6.89 19.65 6.97Z" fill="#6D3303"/><path d="M24.16 5.94C24.16 5.94 24.24 6.32 23.94 6.45 23.65 6.59 23.4 6.83 23.21 6.48 23.03 6.13 23.81 5.41 24.16 5.94Z" fill="#6D3303"/><path d="M29.83 13.95C29.83 13.95 30.34 14.14 30.29 14.65 30.24 15.16 29.86 15.48 29.51 15.24 29.16 15 29.24 14.46 29.35 14.17 29.46 13.87 29.75 13.84 29.83 13.95Z" fill="#6D3303"/><path d="M31.93 12.37C31.93 12.68 31.74 12.93 31.5 12.93 31.26 12.93 31.07 12.68 31.07 12.37 31.07 12.06 31.26 11.81 31.5 11.81 31.74 11.81 31.93 12.06 31.93 12.37Z" fill="#6D3303"/><path d="M33.02 15.9C32.9 16.19 32.64 16.37 32.43 16.29 32.22 16.21 32.14 15.9 32.26 15.6 32.38 15.31 32.64 15.13 32.85 15.21 33.06 15.29 33.14 15.6 33.02 15.9Z" fill="#6D3303"/><path d="M32.95 17.56C33.07 17.86 32.99 18.17 32.77 18.25 32.56 18.33 32.3 18.16 32.18 17.86 32.07 17.56 32.15 17.25 32.36 17.17 32.57 17.08 32.84 17.26 32.95 17.56Z" fill="#6D3303"/><path d="M3.36 18.75C3.36 18.75 3.77 19.01 3.66 19.57 3.55 20.13 2.84 19.91 2.8 19.38 2.77 18.86 2.99 18.56 3.36 18.75Z" fill="#6D3303"/><path d="M2.8 20.5C2.8 20.5 2.99 21.58 2.65 21.73 2.31 21.88 1.72 21.51 1.76 20.87 1.8 20.24 2.36 19.72 2.8 20.5Z" fill="#6D3303"/><path d="M3.18 22.29C3.18 22.29 3.63 22.63 3.37 22.82 3.1 23 2.69 22.14 3.18 22.29Z" fill="#6D3303"/><path d="M24.51 23.49C24.51 23.49 24.92 23.71 24.85 23.97 24.78 24.23 24.36 24.01 24.29 23.82 24.21 23.64 24.4 23.49 24.51 23.49Z" fill="#6D3303"/><path d="M27.23 24.27C27.23 24.27 28.42 24.04 28.27 25.39 28.12 26.73 26.56 26.55 26.26 26.02 25.97 25.5 25.89 24.57 27.23 24.27Z" fill="#6D3303"/><path d="M30.55 22.25C30.55 22.25 31.75 21.99 32.16 22.58 32.57 23.18 31.49 23.66 30.82 23.48 30.14 23.3 29.62 22.59 30.55 22.25Z" fill="#6D3303"/><path d="M33.5 20.5C33.5 20.5 34.1 20.87 33.76 21.25 33.42 21.63 32.79 20.99 32.97 20.69 33.16 20.39 33.5 20.5 33.5 20.5Z" fill="#6D3303"/><path d="M28.91 27.62C28.91 27.62 29.1 28.33 29.84 28.14 30.59 27.95 30.51 27.09 29.92 27.09 29.32 27.1 28.84 27.18 28.91 27.62Z" fill="#6D3303"/><path d="M25.74 28.15C25.74 28.15 25.59 29.27 26.37 29.34 27.15 29.42 26.74 27.89 26.33 27.7 25.93 27.51 25.7 27.93 25.74 28.15Z" fill="#6D3303"/><path d="M29.81 18.23C29.81 18.23 30.57 17.93 30.89 18.42 31.15 18.83 30.69 19.25 29.99 19.02 29.29 18.78 29.43 18.29 29.81 18.23Z" fill="#6D3303"/><path d="M34.03 22.44C34.03 22.44 34.16 22.21 34.51 22.36 34.86 22.51 34.75 22.98 34.39 22.93 34.04 22.87 33.92 22.49 34.03 22.44Z" fill="#6D3303"/><path d="M32.37 24.78C32.37 24.78 32.27 25.21 32.6 25.18 32.93 25.15 32.85 24.61 32.7 24.5 32.56 24.37 32.36 24.48 32.37 24.78Z" fill="#6D3303"/><path d="M28.4 21.42C28.4 21.42 28.42 21.67 28.18 21.74 27.95 21.8 27.76 21.54 27.93 21.37 28.1 21.2 28.32 21.2 28.4 21.42Z" fill="#6D3303"/><path d="M32.47 18.66C32.47 18.66 32.7 18.76 32.63 18.98 32.57 19.2 32.2 19.03 32.2 18.83 32.21 18.63 32.34 18.49 32.47 18.66Z" fill="#6D3303"/><path d="M35.64 18.22C35.64 18.22 35.11 18.4 35.18 18.93 35.25 19.46 36.11 19.74 36.39 18.97 36.67 18.2 36.02 18 35.64 18.22Z" fill="#6D3303"/><path d="M35.25 15.98C35.25 15.98 35.6 16.29 35.47 16.73 35.34 17.17 34.45 17.15 34.28 16.48 34.12 15.8 34.74 15.52 35.25 15.98Z" fill="#6D3303"/><path d="M38.79 16.24C38.79 16.24 37.77 16.04 37.66 17.32 37.54 18.6 39.11 18.23 39.25 17.52 39.38 16.81 39.18 16.39 38.79 16.24Z" fill="#6D3303"/><path d="M24.57 27.44C24.57 27.44 24.44 28 24.92 28.15 25.39 28.3 24.88 26.81 24.57 27.44Z" fill="#6D3303"/><path d="M23.84 25.86C23.84 25.86 23.28 25.75 23.39 25.99 23.49 26.22 24.29 26.12 23.84 25.86Z" fill="#6D3303"/></g><path d="M9.28 15.97C9.28 15.97 15.64 14.79 19.71 15.84 17.67 14.86 13.21 14.53 9.28 15.97Z" fill="#FFFFFF"/><path d="M8.79 6.78C8.79 6.78 6.21 3.44 5.34 3.28 5.29 3.27 5.24 3.27 5.2 3.27 5.71 3.6 6.38 4.24 7.03 5.54 7.63 6.67 7.36 7.51 6.06 7.94 5.2 8.23 3.84 8.03 3.01 7.37 3.32 8.18 4.22 8.66 5.45 8.73 7.6 8.83 8.09 7.65 8.09 7.65 8.09 7.65 7.66 7.21 7.71 7 7.77 6.78 8.79 6.78 8.79 6.78Z" fill="#E1650D" opacity="0.5"/><g opacity="0.5"><path d="M31.7 5.33C31.54 3.28 33.26 2.34 34.51 1.94 30.82 2.02 29.26 6.19 29.26 6.19L31.2 5.71C31.2 5.71 31.2 5.98 30.45 6.73 31.31 6.3 31.58 6.19 31.42 7.81 31.26 9.43 34.71 8.29 35.51 7.32 35.92 6.84 36.43 5.7 36.72 4.63 35.76 7.51 31.94 8.36 31.7 5.33Z" fill="#E1650D"/></g><path d="M4.47 3.69C4.62 3.49 4.83 3.33 5.08 3.25 5.2 3.22 5.34 3.21 5.47 3.25 5.6 3.29 5.72 3.35 5.82 3.44 5.92 3.52 6.01 3.6 6.1 3.69L6.37 3.94 6.9 4.48C7.24 4.84 7.59 5.2 7.92 5.57 8.09 5.75 8.25 5.94 8.41 6.13 8.49 6.22 8.57 6.32 8.65 6.42 8.69 6.47 8.72 6.52 8.76 6.57L8.81 6.65C8.83 6.68 8.85 6.71 8.86 6.75L8.93 6.88 8.78 6.87C8.63 6.84 8.47 6.83 8.31 6.83 8.23 6.83 8.15 6.83 8.08 6.84 8.01 6.85 7.94 6.87 7.87 6.9 7.84 6.92 7.82 6.94 7.8 6.97 7.78 6.99 7.76 7.02 7.76 7.05 7.75 7.08 7.76 7.12 7.77 7.15 7.78 7.19 7.79 7.22 7.81 7.26L7.87 7.36 7.94 7.46C7.98 7.52 8.04 7.58 8.09 7.64 8.03 7.59 7.97 7.54 7.91 7.48 7.86 7.42 7.81 7.36 7.76 7.29 7.74 7.26 7.72 7.22 7.7 7.18 7.7 7.13 7.67 7.09 7.68 7.05 7.68 7 7.7 6.95 7.72 6.91 7.75 6.87 7.78 6.83 7.82 6.81 7.9 6.76 7.98 6.74 8.06 6.72 8.14 6.71 8.23 6.7 8.31 6.69 8.47 6.68 8.64 6.69 8.8 6.7L8.71 6.81 8.67 6.75 8.61 6.68C8.58 6.63 8.54 6.59 8.5 6.54 8.42 6.44 8.34 6.35 8.26 6.26L7.76 5.71 6.75 4.62 6.24 4.08 5.99 3.81C5.91 3.72 5.82 3.62 5.73 3.55 5.65 3.46 5.54 3.41 5.44 3.36 5.33 3.33 5.21 3.32 5.1 3.34 4.86 3.38 4.65 3.52 4.47 3.69Z" fill="#7F5203"/><path d="M36.64 2.31C36.28 2.17 35.9 2.07 35.52 2.02 35.33 2 35.14 1.98 34.95 1.98 34.86 1.98 34.76 1.98 34.66 1.98 34.57 1.98 34.47 1.98 34.37 2 34.18 2.01 33.99 2.04 33.8 2.08L33.52 2.14 33.25 2.22 33.18 2.24 33.16 2.25C33.16 2.25 33.15 2.25 33.15 2.25L33.12 2.26 32.99 2.31C32.9 2.35 32.81 2.38 32.73 2.43L32.48 2.56 32.24 2.71C31.6 3.13 31.05 3.68 30.57 4.28 30.45 4.43 30.33 4.58 30.22 4.74 30.11 4.9 30 5.06 29.9 5.22 29.69 5.54 29.5 5.88 29.37 6.23L29.24 6.1C29.56 6.02 29.89 5.94 30.21 5.87L30.7 5.76C30.87 5.72 31.02 5.68 31.18 5.64L31.37 5.59 31.26 5.74C31 6.08 30.74 6.42 30.48 6.75L30.43 6.7C30.58 6.6 30.74 6.51 30.91 6.44 31 6.41 31.09 6.38 31.18 6.38 31.23 6.38 31.27 6.39 31.31 6.41 31.33 6.42 31.35 6.44 31.36 6.45L31.4 6.51 31.36 6.46C31.34 6.45 31.32 6.43 31.3 6.42 31.26 6.4 31.22 6.4 31.17 6.4 31.08 6.41 30.99 6.45 30.91 6.48 30.75 6.56 30.59 6.66 30.45 6.76L30.27 6.9 30.4 6.71C30.64 6.36 30.88 6.02 31.13 5.67L31.2 5.77C31.04 5.82 30.87 5.87 30.71 5.91L30.23 6.04C29.91 6.13 29.59 6.21 29.26 6.29L29.08 6.33 29.15 6.16C29.29 5.79 29.48 5.44 29.69 5.11 29.79 4.94 29.9 4.78 30.01 4.62 30.13 4.46 30.24 4.3 30.37 4.15 30.49 3.99 30.62 3.85 30.75 3.7 30.89 3.56 31.02 3.41 31.17 3.28 31.31 3.14 31.46 3.02 31.62 2.9 31.78 2.78 31.94 2.66 32.1 2.56L32.35 2.4 32.62 2.27C32.71 2.22 32.8 2.19 32.89 2.16L33.03 2.11 33.07 2.1 33.09 2.09 33.11 2.08 33.18 2.06 33.47 1.98 33.76 1.93C33.95 1.9 34.15 1.87 34.35 1.87 34.45 1.86 34.55 1.86 34.64 1.87 34.74 1.87 34.84 1.87 34.93 1.88 35.12 1.89 35.32 1.92 35.51 1.96 35.92 2.03 36.3 2.14 36.64 2.31Z" fill="#7F5203"/><path d="M9.74 20.34C9.74 20.34 12.01 19.68 14.65 20.34 16.55 20.85 16.12 16.16 14.28 16.02 12.45 15.87 8.72 19.68 9.74 20.34Z" fill="#F9B522" opacity="0.5"/><path d="M11.82 7.32C11.82 7.32 7.29 11 6.58 15.32 6.27 13.09 9.34 8.59 11.82 7.32Z" fill="#F9B522" opacity="0.5"/><g><path d="M21.32 25.25C19.67 23.38 16.7 22.61 12.42 21.95 8.07 21.95 5.53 24.22 4.28 25.81 4.36 25.94 4.4 26.02 4.4 26.02 4.4 26.02 3.8 27.23 3.8 28.82 3.8 30.41 8.63 31.68 8.63 31.68 8.9 32.12 9.78 32.78 9.78 32.78 9.78 32.78 8.63 33.38 8.85 33.66 9.07 33.93 9.95 33.71 9.95 33.71 9.95 33.71 9.29 34.75 9.57 34.97 9.85 35.19 10.78 34.64 10.78 34.64L10.84 35.63C13.31 35.74 16.61 35.47 16.94 34.2 17.82 35.41 18.31 34.97 17.88 34.26 18.65 34.31 19.8 34.43 19.53 33.77 19.26 33.11 18.81 32.62 19.97 31.9 20.49 31.58 21.6 31.15 22.9 30.79 23.41 28.43 22.4 26.34 21.32 25.25Z" fill="#FFEFDF"/><g><path d="M21.65 25.62C21.58 25.99 21.4 26.54 20.95 27.29 17.73 31.17 14.65 31.03 13.55 30.37 12.45 29.71 12.31 28.61 13.99 28.1 15.68 27.58 18.16 25.39 18.31 24.29 18.37 23.81 19.05 23.83 19.79 24.01 18.06 22.99 15.6 22.44 12.41 21.94 9.05 21.94 6.76 23.29 5.33 24.65 5.89 25.47 6.83 26.56 8.13 27.15 10.4 28.17 10.4 28.76 10.25 29.86 10.14 30.66 8.69 31.43 6.3 30.88 7.48 31.37 8.62 31.67 8.62 31.67 8.78 31.94 9.17 32.28 9.45 32.51 9.59 32.46 9.73 32.4 9.89 32.35 11.21 31.91 10.77 30.74 12.23 31.76 13.7 32.79 15.31 32.49 15.82 33.52 16.29 34.47 14.08 35.54 10.81 35.41L10.83 35.63C13.3 35.74 16.6 35.47 16.93 34.2 17.81 35.41 18.3 34.97 17.87 34.26 18.64 34.31 19.79 34.43 19.52 33.77 19.25 33.11 18.8 32.62 19.96 31.9 20.48 31.58 21.59 31.15 22.89 30.79 23.36 28.68 22.59 26.78 21.65 25.62Z" fill="#E2C5AA"/></g></g><g><path d="M10.84 27.81C10.84 27.81 11.95 30.94 8.63 31.68 9.43 32.31 10.63 31.32 11.16 30.36 12.62 31.32 13.91 32.12 15.94 31.93 17.97 31.74 20.48 29.12 21.38 27.77 22.06 26.47 21.38 25.74 21.38 25.74 21.38 25.74 22.06 26.98 20.25 28.56 18.44 30.14 17.15 31.6 15.06 31.6 12.97 31.6 11.51 30.23 11.4 29.22 11.29 28.21 11.35 27.82 11.35 27.82L10.84 27.81Z" fill="#A5733D"/><path d="M5.83 24.3C5.83 24.3 4.69 25.47 4.33 26.24 4.69 24.73 5.2 24.48 5.83 24.3Z" fill="#A5733D"/></g><g><g><path d="M7.32 30.23C7.32 30.23 7.28 30.32 7.22 30.48 7.15 30.64 7.07 30.87 6.95 31.13 6.83 31.4 6.7 31.71 6.55 32.04 6.4 32.37 6.23 32.72 6.07 33.07 5.9 33.42 5.73 33.77 5.56 34.09 5.4 34.41 5.23 34.72 5.1 34.97 4.97 35.23 4.84 35.44 4.76 35.58 4.67 35.73 4.63 35.81 4.63 35.81 4.63 35.81 4.67 35.72 4.73 35.56 4.79 35.41 4.88 35.18 5 34.91 5.12 34.64 5.25 34.33 5.4 34 5.55 33.67 5.72 33.31 5.88 32.97 6.05 32.62 6.22 32.27 6.39 31.94 6.56 31.61 6.72 31.31 6.85 31.06 6.98 30.8 7.11 30.59 7.19 30.44 7.27 30.31 7.32 30.23 7.32 30.23Z"/><path d="M6.32 29.83C6.32 29.83 6.29 29.91 6.22 30.04 6.15 30.17 6.06 30.36 5.93 30.58 5.69 31.04 5.36 31.63 5 32.22 4.65 32.8 4.28 33.37 3.99 33.8 3.85 34.01 3.72 34.18 3.63 34.3 3.55 34.42 3.49 34.49 3.49 34.49 3.49 34.49 3.53 34.41 3.59 34.28 3.66 34.15 3.75 33.96 3.88 33.74 4.12 33.29 4.46 32.7 4.81 32.11 5.17 31.53 5.53 30.96 5.82 30.54 5.96 30.33 6.09 30.16 6.18 30.03 6.27 29.9 6.32 29.83 6.32 29.83Z"/><path d="M5.37 28.66C5.37 28.66 5.31 28.72 5.2 28.83 5.09 28.94 4.94 29.09 4.75 29.27 4.56 29.45 4.34 29.66 4.1 29.88 3.86 30.1 3.6 30.33 3.33 30.56 3.06 30.79 2.8 31.02 2.55 31.22 2.3 31.43 2.06 31.62 1.85 31.78 1.64 31.94 1.47 32.07 1.35 32.16 1.22 32.25 1.15 32.3 1.15 32.3 1.15 32.3 1.21 32.24 1.32 32.13 1.43 32.02 1.58 31.87 1.77 31.69 1.96 31.51 2.18 31.29 2.42 31.08 2.66 30.86 2.92 30.63 3.18 30.4 3.45 30.17 3.71 29.95 3.97 29.74 4.22 29.53 4.46 29.34 4.67 29.18 4.88 29.02 5.05 28.89 5.17 28.8 5.29 28.71 5.37 28.66 5.37 28.66Z"/><path d="M4.71 28.14C4.71 28.14 4.66 28.18 4.57 28.25 4.48 28.32 4.35 28.42 4.19 28.53 3.87 28.75 3.44 29.03 3.01 29.3 2.57 29.57 2.12 29.81 1.77 29.99 1.6 30.08 1.45 30.14 1.35 30.2 1.25 30.25 1.19 30.28 1.19 30.28 1.19 30.28 1.24 30.24 1.33 30.17 1.42 30.1 1.55 30 1.71 29.89 2.03 29.67 2.46 29.39 2.9 29.12 3.34 28.85 3.79 28.61 4.14 28.43 4.31 28.34 4.46 28.28 4.56 28.22 4.65 28.16 4.71 28.14 4.71 28.14Z"/></g><g><path d="M15.32 29.57C15.32 29.57 15.38 29.66 15.49 29.82 15.6 29.98 15.76 30.2 15.93 30.48 16.1 30.76 16.31 31.08 16.53 31.43 16.75 31.78 16.97 32.16 17.19 32.53 17.41 32.91 17.63 33.29 17.84 33.65 18.04 34.01 18.22 34.35 18.38 34.63 18.54 34.92 18.66 35.17 18.75 35.33 18.84 35.5 18.89 35.6 18.89 35.6 18.89 35.6 18.82 35.51 18.72 35.35 18.62 35.19 18.46 34.97 18.28 34.69 18.1 34.41 17.89 34.09 17.68 33.74 17.46 33.39 17.24 33.01 17.01 32.64 16.79 32.26 16.57 31.89 16.37 31.53 16.17 31.17 15.99 30.83 15.83 30.54 15.67 30.25 15.55 30.01 15.46 29.84 15.37 29.67 15.32 29.57 15.32 29.57Z"/><path d="M16.32 29.48C16.32 29.48 16.39 29.54 16.52 29.64 16.64 29.75 16.81 29.9 17.02 30.08 17.22 30.27 17.46 30.48 17.7 30.71 17.95 30.95 18.21 31.2 18.47 31.46 18.72 31.72 18.98 31.98 19.22 32.22 19.46 32.47 19.67 32.71 19.86 32.91 20.04 33.11 20.19 33.29 20.3 33.41 20.4 33.53 20.46 33.6 20.46 33.6 20.46 33.6 20.39 33.54 20.26 33.44 20.14 33.33 19.97 33.19 19.77 33 19.57 32.81 19.33 32.6 19.08 32.36 18.83 32.12 18.57 31.87 18.32 31.61 18.07 31.35 17.81 31.09 17.57 30.84 17.33 30.59 17.12 30.35 16.93 30.15 16.74 29.95 16.6 29.77 16.49 29.65 16.38 29.56 16.32 29.48 16.32 29.48Z"/><path d="M17.8 28.4C17.8 28.4 17.91 28.41 18.09 28.45 18.28 28.49 18.54 28.53 18.85 28.63 19.01 28.67 19.18 28.72 19.35 28.78 19.53 28.84 19.72 28.9 19.91 28.97 20.1 29.05 20.29 29.12 20.49 29.21 20.69 29.3 20.89 29.39 21.08 29.49 21.27 29.59 21.46 29.7 21.65 29.8 21.84 29.9 22.01 30.02 22.18 30.14 22.35 30.25 22.51 30.36 22.65 30.48 22.8 30.59 22.94 30.7 23.06 30.81 23.18 30.92 23.29 31.02 23.39 31.11 23.48 31.21 23.56 31.29 23.63 31.36 23.76 31.5 23.83 31.58 23.83 31.58 23.83 31.58 23.75 31.51 23.6 31.39 23.53 31.33 23.44 31.26 23.34 31.17 23.24 31.09 23.11 31.01 22.99 30.91 22.86 30.81 22.72 30.71 22.56 30.61 22.41 30.51 22.25 30.4 22.07 30.3 21.9 30.19 21.72 30.09 21.53 29.99 21.35 29.88 21.16 29.78 20.97 29.69 20.59 29.49 20.2 29.32 19.83 29.16 19.64 29.09 19.46 29 19.29 28.94 19.12 28.88 18.96 28.81 18.8 28.76 18.49 28.65 18.24 28.56 18.06 28.51 17.9 28.43 17.8 28.4 17.8 28.4Z"/><path d="M18.19 27.62C18.19 27.62 18.28 27.62 18.45 27.63 18.62 27.64 18.85 27.65 19.13 27.67 19.41 27.69 19.74 27.72 20.09 27.75 20.44 27.79 20.81 27.83 21.18 27.88 21.55 27.93 21.92 27.97 22.27 28.03 22.62 28.08 22.94 28.14 23.22 28.18 23.5 28.23 23.73 28.28 23.89 28.31 24.05 28.34 24.14 28.36 24.14 28.36 24.14 28.36 24.05 28.36 23.88 28.35 23.72 28.34 23.48 28.33 23.2 28.31 22.92 28.28 22.59 28.26 22.24 28.22 21.89 28.19 21.52 28.14 21.15 28.1 20.78 28.05 20.41 28 20.06 27.95 19.71 27.9 19.39 27.84 19.11 27.79 18.83 27.75 18.6 27.7 18.44 27.67 18.28 27.63 18.19 27.62 18.19 27.62Z"/></g></g><g><path d="M7.02 22.19C7.77 21.89 8.66 21.71 9.31 21.6 10.92 21.3 12.62 21.34 14.23 21.64 16.94 22.16 19.2 23.24 16.32 25.66 13.84 27.62 12.83 28.33 10.85 27.81 9.35 27.41 4.7 24.93 5.74 23.15 5.97 22.73 6.45 22.42 7.02 22.19Z" fill="#573220"/><path d="M13.39 27.67C13.39 27.67 13.4 26.41 14.31 25.84 15.21 25.27 15.39 24.5 14.15 24.79 12.92 25.08 12.58 25.64 12.85 26.37 13.12 27.09 13.39 27.67 13.39 27.67Z" fill="#573220"/><path d="M9.5 27.29C9.5 27.29 9.19 26.28 8.27 25.94 7.35 25.6 7.6 25.21 8.33 25.31 9.05 25.4 9.56 26.58 9.75 27.41L9.5 27.29Z" fill="#573220"/><g opacity="0.5"><path d="M14.78 21.76C16.08 22.13 17.59 22.7 17.33 23.19 16.89 24.05 13.66 24.11 12.87 24.94 12.08 25.77 10.69 26.04 9.58 25.13 8.47 24.22 8.03 24.62 6.33 24.06 5.79 23.88 5.62 23.6 5.65 23.3 4.96 25.07 9.37 27.42 10.84 27.8 12.82 28.32 13.83 27.61 16.31 25.65 18.99 23.42 17.22 22.32 14.78 21.76Z" fill="#573220"/></g><g><path d="M15.93 22.63C15.89 22.73 15.62 22.73 15.34 22.64 15.06 22.55 14.86 22.39 14.91 22.29 14.95 22.19 15.21 22.19 15.5 22.28 15.77 22.38 15.97 22.53 15.93 22.63Z" fill="#FFFFFF"/><path d="M6.88 22.61C6.88 22.61 10.38 21.52 14.06 22.32 15.31 22.62 12.44 20.67 6.88 22.61Z" fill="#FFFFFF"/></g></g></g><path d="M78.3 25.04C78.3 25.04 89.48 16.97 93.83 18.68 98.18 20.39 103.61 23.49 107.96 27.06 112.3 30.63 108.27 25.35 101.9 21.47 95.53 17.59 93.52 16.5 90.56 17.12 87.62 17.75 72.71 27.22 78.3 25.04Z" fill="#F9B522" opacity="0.5"/><path d="M41.14 21.4C41.14 21.4 46.31 20.91 51.96 25.7 55.04 28.53 52.58 24.35 49.01 22.38 45.44 20.42 38.79 20.54 41.14 21.4Z" fill="#F9B522" opacity="0.5"/><g><path d="M128.57 95.79C123.18 94.25 119.78 87.55 121.21 77.66 122.64 67.77 123.88 64.73 123.44 54.84 123 44.95 118.39 44.22 117.58 41.43 116.77 38.65 113.33 33.01 112.67 33.22 112.01 33.44 115.82 38.57 115.89 40.92 115.97 43.26 114.43 44.07 110.4 50.59 106.37 57.11 102.86 60.04 105.13 62.97 107.4 65.9 111.28 69.32 113.56 71.6 115.84 73.88 117.86 76.01 117.56 76.16 117.26 76.31 116.65 76.06 116.65 77.17 116.65 82.38 114.17 91.5 113.3 91.39 112.42 91.28 112.64 90.51 113.96 83.26 115.28 76.01 115.5 73.59 113.19 73.92 110.35 74.32 105.04 70.25 96.58 63.78 88.12 57.32 84.62 55.74 86.13 50.79 87.64 45.84 90.3 41.37 89.15 40.95 88 40.53 85.83 41.79 81.72 45.42 77.61 49.05 73.81 50.98 71.45 53.88 69.09 56.78 68.73 59.08 66.92 60.16 65.11 61.25 61.36 59.32 62.94 60.65 64.51 61.98 60.28 62.52 57.93 59.92 54.24 55.21 54.61 45.79 54.49 48.45 53.7 54.24 56.24 60.41 56.24 60.41 57.69 63.07 58.66 65.06 57.33 64.1 55.22 62.47 55.03 63.19 56 65.18 56.97 67.17 58.18 68.44 57.15 68.02 56.13 67.6 55.46 68.02 56.43 68.5 57.39 68.98 57.88 69.52 56.97 69.95 56.07 70.37 55.28 70.79 53.93 75.77 52.37 81.52 49.2 93.68 48.12 92.98 47.04 92.28 48.82 86.08 49.52 77.09 50.22 68.1 47.58 67.01 42.7 62.98 37.82 58.95 34.72 55.46 30.76 50.81 26.8 46.16 32.93 37.63 32.93 37.63 32.93 37.63 32.23 38.1 30.06 41.97 27.89 45.85 29.63 51.55 26.99 50.08 23.5 48.07 19.05 44.53 19.5 41.08 18.76 42.68 18.93 46.69 19.5 46.69 20.07 46.69 20.02 46.64 23.05 48.47 26.32 50.42 27.57 51.62 29.35 54.02 33.07 58.43 37.31 61.7 40.52 62.9 42.58 64.33 45.86 66.34 47.18 69.85 48.5 73.37 48.11 81.44 47.29 87.16 46.91 89.77 46.63 93.42 45.86 93.86 45.39 94.13 44.86 94.17 44.28 93.98 44.29 93.99 44.3 94.01 44.32 94.03 46.02 96.06 42.86 97.95 41.46 98.42 40.06 98.89 36.95 98.39 37.99 95.54 38.49 94.23 39.18 93.36 39.83 92.77 39.6 92.5 39.33 92.2 39.02 91.97 39.14 92.22 39.11 92.52 38.79 92.87 37.69 94.03 36.77 95.36 36.71 96.7 36.65 98.03 34.84 98.07 34.81 95.9 34.79 94.58 35.61 93.26 36.25 92.43 35.46 92.12 34.77 92.38 34.24 92.94 34.55 92.78 34.85 92.67 35.13 92.69 36.19 92.76 34.05 94.69 34.45 96.41 34.75 97.7 34.23 98.46 33.38 98.04 34.15 99.44 36.01 99.71 35.96 99.09 36.18 99.26 37.88 99.8 38.16 99.2 38.82 99.64 41.95 100.14 44.64 99.97 47.33 99.81 49.59 98.98 49.75 97.55 49.91 96.12 49.64 95.41 50.08 93.65 50.52 91.89 53.27 82.66 54.75 76.29 56.23 69.91 58.39 70.16 58.34 69.68 58.29 69.2 58.29 68.57 58.29 68.57 58.29 68.57 58.29 68.57 59.03 68.78 59.08 68.04 58.02 66.77 58.02 66.77 58.02 66.77 58.55 67.2 59.19 67.41 59.03 66.3 57.92 65.13 57.92 65.13 57.92 65.13 58.4 65.18 59.62 65.66 59.51 64.12 58.49 62.98 58.49 62.98 60.18 63.35 61.93 63.42 61.93 63.42 61.93 63.42 61.93 63.42 60.91 62.69 61.79 63.13 63.7 62.76 63.7 62.76L63.11 62.25 65.31 62.25 65.24 61.88 66.78 61.88C66.78 61.88 66.78 61.88 66.26 61.29 69.41 61.51 70.44 58.65 70.88 56.89 71.32 55.13 72.42 53.52 73.81 52.57 75.2 51.62 76.52 51.17 79.52 48.98 82.52 46.78 86.55 43.19 87.36 43.34 88.17 43.49 85.16 49.72 84.43 53.38 83.7 57.04 91.39 62.02 94.83 64.3 98.27 66.57 108.41 73.47 110.9 75.2 113.41 76.93 113.46 79.76 113.12 85.5 112.67 90.71 110.34 93.26 110.34 93.26 110.34 93.26 109.35 92.14 109.22 92.17 109.09 92.2 109.19 92.28 109.32 93.47 108.1 92.54 105.42 92.95 105.42 92.95 105.42 92.95 105.41 92.94 105.41 92.94 106.59 94.15 107.53 94.87 107.14 95.83 106.65 97.03 106.05 97.8 103.09 97.09 100.13 96.38 101.5 93.15 101.5 93.15 101.5 93.15 100.95 93.75 100.59 94.98 100.23 96.2 99.7 97.86 98.87 95.88 98.44 94.51 99.14 92.86 99.67 91.88 99.31 91.7 98.99 91.66 98.7 91.72 98.84 91.83 98.85 92.03 98.66 92.39 97.84 93.87 97.84 94.85 98.17 96.06 98.34 96.68 97.96 96.89 97.46 96.73 98.19 97.56 99.39 97.92 99.65 97.67 100.04 98.27 101.57 98.44 101.46 97.94 102.07 98.44 106.57 99.31 108.99 98.65 111.41 97.99 112.94 96.89 114.65 90.68 117.07 83.32 117.14 76.45 117.14 76.45 117.14 76.45 118.68 77.24 118.58 76.8 118.48 76.35 117.1 75.06 117.1 75.06 117.1 75.06 117.7 75.01 118.09 74.96 118.49 74.91 118.69 74.96 117.59 74.51 116.5 74.06 116.55 74.26 115.05 72.38 113.07 70.39 105.42 62.53 105.42 61.6 105.42 60.44 108.1 54.78 111.13 51.06 114.16 47.33 116.72 42.73 116.72 42.73 116.72 42.73 119.64 44.77 121.15 48.03 122.96 52.11 123.02 61.84 122.49 65.34 121.97 68.84 120.69 75.24 120.04 81.42 119.4 87.6 122.37 93.95 127.09 96.22 131.78 98.48 140.74 94.57 141.93 91.78 139.12 94.72 133.1 97.09 128.57 95.79Z" fill="#CC8C0D"/></g><path d="M121.11 39.92C121.11 39.92 129.14 49.74 125.42 66.99 123.99 72.62 132.37 53.21 121.11 39.92Z" fill="#F9B522" opacity="0.5"/><path d="M37.42 37.54C37.42 37.54 31.84 46.84 41.12 54.15 48.34 59.69 41.25 55.85 36.82 51.72 32.4 47.58 33.14 41.97 37.42 37.54Z" fill="#F9B522" opacity="0.5"/><path d="M96.26 39.16C96.26 39.16 88.73 46.42 92.08 56.38 93.38 59.99 83.79 48.32 96.26 39.16Z" fill="#F9B522" opacity="0.5"/></g></svg>