<svg width="15.93" height="16.23" viewBox="0 0 15.93 16.23" xmlns="http://www.w3.org/2000/svg" xmlns:xlink="http://www.w3.org/1999/xlink" xml:space="preserve" overflow="hidden"><defs></defs><path d="M1.67 0C4.36 5.09 11.41 0.92 14.66 4.88 16.28 6.85 16.4 9.37 14.73 11.31 14.55 11.52 13.16 12.61 13.15 12.91 13.13 13.24 14.21 12.97 14.09 13.28 13.98 13.57 12.73 13.5 12.8 13.6 12.91 13.75 13.31 15.18 13.13 15.12 13.03 15.08 12.17 14.24 12.17 14.25 12.08 14.51 12.4 16.14 11.77 16.18 11.67 16.18 11.34 14.9 11.23 14.94 10.85 15.08 11.29 16.41 10.99 16.14 10.76 15.93 10.66 15.16 10.44 15.38 10.34 15.48 10.25 16.24 10.12 16.24 10.09 16.24 10.03 15.57 9.98 15.57 9.41 15.57 8.8 15.9 8.22 15.98 5.63 16.34 1.76 16.32 0.5 13.45-1.13 9.71 1.65 7.76 2.27 4.16 2.47 3.06 1.71 1.1 1.67 0L1.67 0ZM2.67 1.73C3.32 3.04 5.51 4.16 5.93 4.56 6.34 4.97 6.84 4.8 7.41 4.92 7.98 5.03 7.73 5.22 8.27 5.62 8.81 6.03 9.61 6.04 10.85 7.46 12.09 8.88 12.47 10.66 11.87 13.42 14.47 8.8 9.73 5.16 7.71 4.62 5.7 4.09 4.43 3.6 2.67 1.73L2.67 1.73ZM3.27 3.44C3.57 4.12 3.66 6.28 3.7 6.92 3.74 7.56 3.79 8.72 4.1 10.01 4.4 11.31 5.57 12.83 6.41 13.52 7.25 14.2 8.05 15.01 10.34 14.67 8.83 14.86 7.74 14.29 6.42 12.97 5.1 11.66 4.73 10.61 4.7 9.98 4.68 9.34 4.83 9.31 4.47 8.83 4.11 8.34 4.09 7.81 4.2 6.7 4.31 5.59 3.27 3.44 3.27 3.44L3.27 3.44Z" id="path59798_1_" fill="#D8C6B1"/></svg>