<svg width="31.82" height="31.4" viewBox="0 0 31.82 31.4" xmlns="http://www.w3.org/2000/svg" xmlns:xlink="http://www.w3.org/1999/xlink" xml:space="preserve" overflow="hidden"><defs></defs><g id="g78380_1_" transform="matrix(0.597663 0.597663 -0.597663 0.597663 321.092 -116.95)"><path d="M-158.14 368C-160.96 366.1-165.48 366.68-167.19 369.65-168.11 369.34-168.76 368.55-168.89 367.88-167 367.17-158.97 363.56-157.45 365.66-157.22 366-158.05 367.73-158.14 368Z" id="path76268_1_" fill="#9CA220"/><path d="M-159.53 368.75C-159.53 369.68-159.34 370.56-158.96 371.22-158.55 371.93-158.25 372.6-157.53 373.03-157.44 373.08-156.27 373.74-156.28 373.75-160.4 379.16-154.02 384.06-148.66 383.37-144.4 382.83-140.93 379.06-136.94 377.71-133.5 376.54-128.86 376.75-126.13 374.34-124.14 372.59-124.68 369.28-125 366.98-125.49 363.46-123.76 360.72-126.48 357.57-129.28 354.32-133.96 355.26-137.66 354.41-143.13 353.15-151.04 348.2-156.43 352.2-158.75 353.92-159.89 357.61-159.14 360.38-158.53 362.64-157.27 362.1-158.2 364.48-159.05 365.51-159.53 367.2-159.53 368.75L-159.53 368.75ZM-155.61 363.26C-152.79 360.59-144.28 360.36-141.1 361.43-137.92 362.5-135.5 361.93-132.49 361.63-129.47 361.33-126.69 362.44-126.95 364.51-127.83 361.29-135.31 362.51-137.85 362.76-140.39 363.01-142.55 362.2-146.3 361.82-150.06 361.44-151.51 361.8-155.61 363.26ZM-154.25 374.17C-150.09 375.88-144.17 373.11-144.17 373.11-144.17 373.11-143.49 372.34-142.06 372.23-140.63 372.12-139.29 371.41-137.9 370.59-136.51 369.77-135.42 370.25-133.91 370.68-132.41 371.11-130.94 370.8-129.61 370.71-131.42 372.18-132.62 371.1-136.22 371.47-139.82 371.84-144.94 374.85-148 375.35-151.07 375.87-154.25 374.17-154.25 374.17L-154.25 374.17Z" id="path75747_1_" fill="#6E7217"/></g></svg>