<svg width="131.74" height="139.77" viewBox="0 0 131.74 139.77" xmlns="http://www.w3.org/2000/svg" xmlns:xlink="http://www.w3.org/1999/xlink" xml:space="preserve" overflow="hidden"><defs></defs><g><path d="M125.25 69.19C116.98 57.23 99.8 54.73 86.61 52.45 77.2 50.83 67.95 49.1 65.49 38.43 63.15 28.28 65.63 18.44 69.58 9.11 69.79 8.61 69.39 8.34 69.01 8.44 68.75 8.27 68.39 8.25 68.01 8.51 65.31 10.4 63.57 12.7 62.35 15.25 62.44 12.76 62.45 10.26 62.47 7.81 62.49 5.3 63.21 2.27 61.51 0.14 61.36-0.05 61.16-0.04 61 0.07 60.71 0.06 60.4 0.22 60.3 0.5 58.21 6.46 57.37 12.26 57.17 18.3 56.21 15.51 55.03 12.79 53.75 10.12 53.03 8.61 51.89 6.27 50.23 5.27 50.25 5.09 50.16 4.91 49.94 4.88 49.4 4.8 48.86 4.66 48.31 4.73 48.04 4.77 47.84 4.94 47.77 5.2 47.72 5.41 47.85 5.58 48 5.7 50.17 12.12 51.61 18.52 53.1 25.02 52.72 24.35 52.32 23.68 51.87 23.02 49.3 19.24 46.73 17.84 42.57 16.41 42.23 16.29 41.96 16.56 41.93 16.85 41.93 16.85 41.93 16.86 41.93 16.86 41.92 17.03 41.98 17.2 42.17 17.3 42.22 17.33 42.26 17.35 42.3 17.37 48.33 24.75 53.24 32.31 51.6 42.36 49.9 52.76 41.78 57.71 32.78 61.37 19.2 66.92 4.37 72.45 0.62 88.36-2.64 102.2 7.4 116.81 17.61 125.06 23.78 130.04 31.14 133.14 38.82 134.88 46.55 136.63 53.94 135.96 61.58 134.69 61.11 135.23 60.69 135.82 60.41 136.47 60.03 137.35 60.07 138.85 61.36 138.88 62.15 138.89 62.69 138.26 62.7 137.5 62.69 137.85 62.73 137.41 62.73 137.18 62.78 137.07 62.86 136.89 62.89 136.84 63.36 136.11 63.95 135.44 64.57 134.84 65.23 134.2 65.93 133.64 66.68 133.16 65.42 135.88 64.22 139.6 66.7 139.78 67.52 139.84 68.55 139.04 68.37 138.15 68.34 138.01 68.03 137.18 68.13 137.42 68.09 137.33 68.19 136.75 68.23 136.5 68.52 134.82 69.05 133.1 69.59 131.48 69.65 131.49 69.71 131.5 69.77 131.5 69.85 131.59 69.93 131.68 70.04 131.75 70.1 133.15 70.08 134.55 70.81 135.82 71.61 137.23 73.71 135.45 72.94 134.12 72.63 133.58 72.41 133.01 72.23 132.42 72.7 132.52 73.14 132.65 73.49 132.88 74.98 133.86 75.6 136.16 77.66 135.96 78.3 135.9 78.87 135.02 78.6 134.41 78.24 133.61 77.58 133.23 76.96 132.63 76.89 132.56 76.83 132.49 76.76 132.43 77.83 132.95 78.9 133.46 80.06 133.49 80.74 133.51 81.6 132.56 81.02 131.92 80.1 130.89 78.7 130.22 77.22 129.8 79.79 129.42 82.42 129.31 85 128.86 90.38 127.93 95.76 126.61 100.99 125.07 109.1 122.69 118.15 118.42 123.89 112.02 134.32 100.39 133.92 81.71 125.25 69.19Z" fill="#231F20"/><path d="M98.11 123.95C94.67 124.82 91.17 125.69 87.65 126.35 88.41 126.08 89.18 125.81 89.93 125.51 95.11 123.44 99.45 119.42 102.29 114.7 102.72 113.99 101.65 113.48 101.19 114.09 97.9 118.34 94.3 121.67 89.44 124.04 86.74 125.36 83.75 126 80.9 126.91 80.4 127.07 79.85 127.26 79.27 127.47 77.65 127.61 76.05 127.78 74.5 128.16 78.17 124.8 79.53 119.29 78.52 114.26 78.48 114.07 78.17 114.19 78.2 114.36 79.29 120.6 76.82 125.51 71.96 128.68 63.99 129.38 57.09 125.94 51.22 120.63 51.21 120.62 51.2 120.64 51.21 120.65 55.54 125.15 61.86 129.82 68.44 130.22 68.36 130.27 68.29 130.33 68.22 130.41 67.33 130.26 66.36 130.65 65.45 131.22 56.08 133.13 44.97 133.33 37.35 126.98 37.22 126.87 37.05 127.1 37.17 127.21 41.26 130.78 47.49 133.26 53.75 133.94 53.53 133.97 53.31 134.01 53.09 134.04 47.66 134.82 41.85 133.75 36.6 132.43 28.87 130.48 21.82 126.49 15.92 121.18 3.01 109.54-1.96 88.99 11.31 75.66 21.59 65.33 37.67 64.47 47.74 54.11 57.13 44.45 55.36 28.28 45.83 19.5 47.58 20.71 49.09 22.1 50.55 24.09 52.99 27.42 54.2 31.17 55.08 35.13 56.93 43.41 58.39 51.64 55.52 59.88 55.33 60.42 56.05 60.66 56.26 60.15 59.33 52.79 58.54 43.24 56.9 35.62 56.52 33.85 56.08 32.17 55.54 30.54 55.82 22.04 51.88 13.25 48.38 5.69 48.38 5.68 48.39 5.66 48.38 5.65 48.37 5.6 48.37 5.54 48.37 5.49 48.49 5.48 48.63 5.5 48.75 5.53 51.34 6.29 52.69 11.14 53.58 13.3 55.06 16.88 56.37 20.47 57.2 24.26 57.42 25.25 58.71 24.5 58.73 23.76 58.83 19.51 58.71 15.23 59.47 11.04 60.01 8.05 61.02 5.14 61.39 2.13 61.94 4.55 61.13 7.78 60.95 10.01 60.7 13.09 60.55 16.31 60.82 19.39 59.96 22.33 59.42 25.46 58.67 28.59 58.62 28.78 58.92 28.83 58.98 28.66 59.87 25.94 60.7 23.07 61.76 20.32 61.93 20.22 62.06 20.07 62.08 19.84 62.09 19.7 62.1 19.56 62.11 19.42 62.84 17.65 63.69 15.96 64.74 14.41 62.5 19.1 61.56 24.61 61.28 29.53 60.83 37.36 62.69 44.3 68.65 49.51 73.98 54.16 82.7 54.45 89.35 55.6 97.03 56.93 104.68 58.58 111.79 61.88 128.76 69.76 135.36 92.17 124.74 107.82 118.79 116.58 107.99 121.44 98.11 123.95Z" fill="#FBB15E"/><path d="M98.11 123.95C94.67 124.82 91.17 125.69 87.65 126.35 88.41 126.08 89.18 125.81 89.93 125.51 95.11 123.44 99.45 119.42 102.29 114.7 102.72 113.99 101.65 113.48 101.19 114.09 97.9 118.34 94.3 121.67 89.44 124.04 86.74 125.36 83.75 126 80.9 126.91 80.4 127.07 79.85 127.26 79.27 127.47 77.65 127.61 76.05 127.78 74.5 128.16 78.17 124.8 79.53 119.29 78.52 114.26 78.48 114.07 78.17 114.19 78.2 114.36 79.29 120.6 76.82 125.51 71.96 128.68 63.99 129.38 57.09 125.94 51.22 120.63 51.21 120.62 51.2 120.64 51.21 120.65 55.54 125.15 61.86 129.82 68.44 130.22 68.36 130.27 68.29 130.33 68.22 130.41 67.33 130.26 66.36 130.65 65.45 131.22 56.08 133.13 44.97 133.33 37.35 126.98 37.22 126.87 37.05 127.1 37.17 127.21 41.26 130.78 47.49 133.26 53.75 133.94 53.53 133.97 53.31 134.01 53.09 134.04 47.66 134.82 41.85 133.75 36.6 132.43 28.87 130.48 21.82 126.49 15.92 121.18 3.01 109.54-1.96 88.99 11.31 75.66 21.59 65.33 37.67 64.47 47.74 54.11 57.13 44.45 55.36 28.28 45.83 19.5 47.58 20.71 49.09 22.1 50.55 24.09 52.99 27.42 54.2 31.17 55.08 35.13 56.93 43.41 58.39 51.64 55.52 59.88 55.33 60.42 56.05 60.66 56.26 60.15 59.33 52.79 58.54 43.24 56.9 35.62 56.52 33.85 56.08 32.17 55.54 30.54 55.82 22.04 51.88 13.25 48.38 5.69 48.38 5.68 48.39 5.66 48.38 5.65 48.37 5.6 48.37 5.54 48.37 5.49 48.49 5.48 48.63 5.5 48.75 5.53 51.34 6.29 52.69 11.14 53.58 13.3 55.06 16.88 56.37 20.47 57.2 24.26 57.42 25.25 58.71 24.5 58.73 23.76 58.83 19.51 58.71 15.23 59.47 11.04 60.01 8.05 61.02 5.14 61.39 2.13 61.94 4.55 61.13 7.78 60.95 10.01 60.7 13.09 60.55 16.31 60.82 19.39 59.96 22.33 59.42 25.46 58.67 28.59 58.62 28.78 58.92 28.83 58.98 28.66 59.87 25.94 60.7 23.07 61.76 20.32 61.93 20.22 62.06 20.07 62.08 19.84 62.09 19.7 62.1 19.56 62.11 19.42 62.84 17.65 63.69 15.96 64.74 14.41 62.5 19.1 61.56 24.61 61.28 29.53 60.83 37.36 62.69 44.3 68.65 49.51 73.98 54.16 82.7 54.45 89.35 55.6 97.03 56.93 104.68 58.58 111.79 61.88 128.76 69.76 135.36 92.17 124.74 107.82 118.79 116.58 107.99 121.44 98.11 123.95Z" fill="#FBB15E"/><path d="M111.78 61.89C108.6 60.41 105.3 59.27 101.95 58.33 113.93 68.02 125.53 79.29 122.51 96 122.39 96.66 121.24 97.21 120.75 96.6 115 89.43 111.38 77.64 102.7 73.28 104.77 76.3 106.8 79.55 105.65 83.26 105.45 83.89 104.44 84.49 103.89 83.86 101.09 80.67 98.77 77.05 95.81 74.04 100.04 82.79 106.93 92.86 100.92 101.75 100.54 102.31 99.6 102.33 99.25 101.76 96.29 96.98 96.15 91.39 94.2 86.24 92.97 82.98 91.07 80.01 88.92 77.22 93.86 87.47 98.33 98.41 92.84 109.36 92.54 109.96 91.39 110.33 91.03 109.57 85.98 98.8 85.34 86.17 77.94 76.71 79.98 86.05 84.38 94.89 81.4 104.63 81.22 105.21 80.13 105.93 79.64 105.24 74.89 98.58 74.68 88.63 68.68 82.87 68.95 90.7 71.43 98.55 68.17 106.08 67.89 106.73 66.73 107 66.36 106.29 64.43 102.53 63.56 98.35 62.02 94.44 62.04 101.5 62.75 108.51 63.74 115.51 63.84 116.23 62.73 116.88 62.14 116.46 50.52 108.32 48.5 94.95 47.59 81.82 42.42 91.43 41.18 102.65 41.13 113.46 41.13 114.3 39.64 115.07 39.24 114.1 36.95 108.54 35.03 101.7 35.03 95.65 35.03 90.61 36.47 85.68 36.71 80.68 28.97 91.93 26.62 106.77 29.21 120.03 29.4 121.02 27.82 121.4 27.32 120.67 14.98 102.66 24.94 81.73 37.62 66.64 29.94 72.72 23.95 80.47 18.3 88.6 17.89 89.19 16.29 89.17 16.58 88.19 18.48 81.87 21.35 76.08 25.13 70.88 15.91 79.86 9.49 91.06 12.35 104.82 12.54 105.73 10.86 106.32 10.46 105.46 6.1 96.29 5.71 86.43 9.61 77.54-1.48 90.86 3.6 110.08 15.91 121.18 21.81 126.5 28.86 130.48 36.59 132.43 41.84 133.76 47.65 134.82 53.08 134.04 53.3 134.01 53.52 133.97 53.74 133.94 47.48 133.26 41.25 130.78 37.16 127.21 37.04 127.1 37.21 126.87 37.34 126.98 44.96 133.33 56.07 133.12 65.44 131.22 66.35 130.65 67.32 130.27 68.21 130.41 68.28 130.33 68.35 130.26 68.43 130.22 61.84 129.82 55.53 125.15 51.2 120.65 51.19 120.64 51.2 120.63 51.21 120.63 57.09 125.94 63.98 129.37 71.95 128.68 76.81 125.51 79.28 120.6 78.19 114.36 78.16 114.19 78.47 114.07 78.51 114.26 79.52 119.28 78.15 124.79 74.49 128.16 76.05 127.78 77.65 127.62 79.26 127.47 79.84 127.26 80.4 127.07 80.89 126.91 83.74 126 86.73 125.36 89.43 124.04 94.29 121.67 97.9 118.34 101.18 114.09 101.65 113.49 102.71 113.99 102.28 114.7 99.43 119.42 95.1 123.44 89.92 125.51 89.17 125.81 88.41 126.08 87.64 126.35 91.16 125.69 94.66 124.82 98.1 123.95 107.98 121.45 118.79 116.58 124.73 107.83 135.35 92.17 128.75 69.76 111.78 61.89Z" fill="#FFFCDD" opacity="0.2"/><path d="M9.74 97.35C10.23 84.18 18.93 73.46 29.24 65.04 23.88 67.33 18.51 69.65 13.95 73.29 9.24 80.78 7.8 89.07 9.74 97.35Z" fill="#FBB15E"/><path d="M54.87 38.22C54.82 38.03 54.53 38.15 54.55 38.32 55.64 47.15 48.37 55.18 42.82 61.31 37.4 67.3 30.91 72.12 25.25 77.86 15.38 87.86 10.23 101.91 18.04 114.78 18.45 115.46 19.51 114.68 19.25 114.03 15.76 104.97 15.24 96.74 19.98 87.99 23.64 81.24 29.96 76.12 35.64 71.15 40.99 66.47 45.9 61.3 49.82 55.35 53.12 50.33 56.6 44.37 54.87 38.22Z" fill="#231F20"/><path d="M91.15 63.83C84.14 60.84 76.73 58.82 70.28 54.64 63.13 50.01 60.89 42.27 59.72 34.3 59.69 34.08 59.37 34.16 59.4 34.36 60.12 40.09 61.32 45.77 64.59 50.64 68.03 55.75 74.29 58.52 79.72 60.91 86.82 64.02 94.1 66.4 100.52 70.88 104.02 73.32 107.16 76.17 109.7 79.59 112.06 82.76 112.84 86.96 113.84 90.69 114.05 91.46 115.12 90.93 115.09 90.28 114.39 76.72 102.61 68.72 91.15 63.83Z" fill="#231F20"/><path d="M53.75 51.97C51.82 56.55 48.35 60.27 44.98 63.84 41.25 67.8 37.69 72.03 34.47 76.41 28.73 84.22 26.54 94.95 28.22 104.39 28.45 105.68 30.18 105.2 30.12 104.02 29.53 92.8 31.89 83.11 38.89 74.16 41.89 70.33 45.14 66.69 48.31 63 51.03 59.82 53.73 56.32 54.57 52.13 54.67 51.61 53.93 51.52 53.75 51.97Z" fill="#FFFCDD"/><path d="M40.65 60.11C37.25 63.43 32.23 65.33 28.24 67.91 23.87 70.73 19.83 74.26 16.16 77.93 10.04 84.03 5.12 92.09 5.09 100.95 5.09 101.79 6.26 101.54 6.39 100.87 8.12 91.43 12.11 84.03 19.09 77.42 22.49 74.2 26.17 71.27 30.01 68.61 33.71 66.04 38.18 64.11 41.2 60.69 41.52 60.32 41.02 59.75 40.65 60.11Z" fill="#FFFCDD"/><path d="M19.49 79.07C11.29 86.39 9.38 98.27 12.13 108.54 12.39 109.5 13.7 108.73 13.52 107.89 11.44 97.85 12.73 87.22 19.77 79.37 19.95 79.18 19.69 78.9 19.49 79.07Z" fill="#FFFCDD"/><path d="M57.23 119.19C53.1 110.38 50.01 101.87 49.61 92.04 49.41 87.15 49.78 82.12 50.49 77.28 51.29 71.9 53.42 67.39 55.34 62.39 55.5 61.98 54.94 61.8 54.78 62.18 52.79 66.87 50.49 71.12 49.27 76.12 48.06 81.03 47.67 86.31 47.55 91.36 47.31 101.2 49.42 112.3 55.47 120.27 56.14 121.17 57.68 120.16 57.23 119.19Z" fill="#FFFCDD"/><path d="M46.04 75.09C43.3 82.37 43.92 89.91 45.61 97.36 45.77 98.08 46.77 97.5 46.65 96.88 45.24 89.72 44.36 82.41 46.83 75.38 47.03 74.81 46.24 74.55 46.04 75.09Z" fill="#FFFCDD"/><path d="M96.03 98.56C92.64 88.88 86.63 80.3 80.15 72.44 77.14 68.8 73.93 65.4 70.62 62.04 66.83 58.18 63.01 53.81 62 48.33 61.89 47.7 60.98 47.94 61.07 48.51 62.45 57.83 70.94 64.33 76.53 71.27 83.55 79.98 89.34 89.35 94.25 99.39 94.79 100.5 96.41 99.65 96.03 98.56Z" fill="#FFFCDD"/><path d="M84.65 66.84C84.23 66.46 83.66 67.22 84.05 67.61 89.2 72.78 93.07 78.84 95.7 85.64 98.33 92.45 99.22 99.66 100.13 106.85 100.28 108.08 101.84 107.55 101.88 106.51 102.31 91.55 95.57 76.91 84.65 66.84Z" fill="#FFFCDD"/><path d="M108.56 92.9C108.44 92.31 107.52 92.7 107.59 93.22 108.57 100.24 106.88 105.98 103.94 112.26 103.49 113.22 104.71 113.78 105.33 113.03 109.76 107.66 109.91 99.38 108.56 92.9Z" fill="#FFFCDD"/><path d="M124.85 83.05C124.72 82.52 123.9 82.87 123.97 83.34 124.68 88.06 124.93 92.67 123.76 97.34 122.9 100.75 121.05 103.9 119.31 107.02 120.72 103.03 121.75 98.91 122.21 94.68 122.79 89.33 121.66 84.09 119.97 79.03 117 70.12 110.58 63.08 101.79 59.74 101.33 59.56 100.97 60.3 101.43 60.53 109.69 64.59 114.81 71.48 117.76 80.06 119.51 85.15 120.22 90.28 119.64 95.64 119.1 100.66 117.41 105.47 116.07 110.31 115.74 111.49 117.48 111.69 117.89 110.7 117.9 110.68 117.9 110.66 117.91 110.64 118.22 110.98 118.84 111.04 119.18 110.55 121.98 106.46 124.38 102.3 125.68 97.48 126.96 92.74 125.98 87.71 124.85 83.05Z" fill="#FFFCDD"/></g></svg>