<svg width="23.17" height="26.51" viewBox="0 0 23.17 26.51" xmlns="http://www.w3.org/2000/svg" xmlns:xlink="http://www.w3.org/1999/xlink" xml:space="preserve" overflow="hidden"><defs></defs><g id="g271040_1_" transform="matrix(-1 0 0 1 380.763 -7.47042)"><path d="M368.05 14.48C367.56 13.54 367.12 12.55 367.01 11.49 366.91 10.5 366.6 8.04 367.81 7.54 367.99 7.47 368.18 7.4 368.32 7.61 368.67 8.14 368.02 9.52 368.05 10.15 368.12 12.25 369.85 13.44 368.05 14.48L368.05 14.48Z" id="path271036_1_" fill="#805334"/><path d="M366.01 33.79C367.83 34.63 368.67 32.47 370.38 32.61 372.13 32.74 374.07 33.65 375.73 32.47 377.41 31.27 378.89 28.72 379.8 25.78 381.46 20.45 381.25 13.83 376.98 11.68 374.28 10.32 370.72 12.26 368 12.83 367.38 12.63 365.04 12.55 362.72 13.3 360.9 13.9 359.09 15.01 358.13 17 355.82 21.75 361.51 31.7 366.01 33.79Z" fill="#C23A2C"/><path d="M376.18 13.31C377.35 12.59 378.8 17.8 377.41 17.31 377.3 17.27 375.08 14.31 375.09 14.19 375.15 13.63 375.65 13.62 376.18 13.31Z" id="path274484_1_" fill="#EEF3F6"/></g></svg>