<svg width="118.56" height="100" viewBox="0 0 118.56 100" xmlns="http://www.w3.org/2000/svg" xmlns:xlink="http://www.w3.org/1999/xlink" xml:space="preserve" overflow="hidden"><defs></defs><g><g><g><path d="M56.32 98.44C56.44 97.75 56.51 96.95 56.85 96.32 57.16 95.74 57.64 95.31 58.18 94.94 58.74 94.56 59.33 94.23 60.02 94.3 60.75 94.37 61.43 94.97 62.08 95.26 63.27 95.23 64.52 95.4 65.61 95.87 66.07 96.07 66.48 96.36 66.78 96.75 67.17 97.24 67.27 97.9 67.35 98.5 67.37 98.62 67.26 98.69 67.17 98.67 66.84 98.81 66.44 98.81 66.08 98.81 66.09 98.83 66.09 98.85 66.08 98.87 66.08 98.88 66.08 98.89 66.08 98.9 66.07 98.95 66.04 98.99 66 99.01 65.66 99.37 63.47 99.43 63.21 99.44 62.17 99.48 61.11 99.42 60.07 99.38 59.34 99.35 58.6 99.33 57.87 99.26 57.26 99.2 56.83 98.97 56.38 98.58 56.36 98.56 56.35 98.54 56.34 98.52 56.32 98.51 56.31 98.48 56.32 98.44Z" fill="#5B4E3E"/><path d="M56.32 98.44C56.31 98.48 56.32 98.52 56.35 98.54 56.36 98.56 56.37 98.58 56.39 98.6 56.84 98.99 57.27 99.22 57.88 99.28 58.61 99.35 59.35 99.37 60.08 99.4 61.12 99.44 62.18 99.5 63.22 99.46 63.48 99.45 65.67 99.39 66.01 99.03 66.05 99.01 66.09 98.97 66.09 98.92 66.09 98.91 66.09 98.9 66.09 98.89 66.1 98.87 66.09 98.85 66.09 98.83 66.45 98.83 66.85 98.83 67.18 98.69 67.27 98.7 67.38 98.64 67.36 98.52 67.34 98.39 67.32 98.25 67.3 98.12 67.12 98.26 66.27 98.36 66.21 98.08 65.98 96.98 65.52 96.46 64.4 95.96 63.92 95.75 63.34 95.8 63.03 95.32 63.02 95.31 63.02 95.3 63.02 95.29 62.7 95.27 62.39 95.26 62.08 95.27 61.43 94.97 60.75 94.37 60.02 94.31 59.32 94.25 58.74 94.57 58.18 94.95 57.64 95.32 57.16 95.75 56.85 96.33 56.51 96.95 56.43 97.75 56.32 98.44ZM58.21 96.48C58.29 96.31 58.43 96.19 58.59 96.11 58.67 96.07 58.77 96.06 58.85 96.04 59.12 95.99 59.3 95.87 59.5 95.69 59.55 95.64 59.62 95.68 59.64 95.72 59.66 95.73 59.68 95.74 59.68 95.77 59.9 96.33 60.64 96.64 61.24 96.79 61.02 96.54 60.82 96.28 60.81 95.92 60.81 95.81 60.96 95.81 60.98 95.91 61.28 95.94 61.59 95.95 61.89 95.93 62.26 95.9 62.62 95.79 62.99 95.78 63.48 95.78 64.03 96.07 64.43 96.32 65.25 96.81 65.65 97.7 65.78 98.61 65.79 98.67 65.74 98.71 65.69 98.72 64.94 98.81 61.46 98.97 60.14 98.8 59.45 98.71 58.06 98.58 57.96 97.65 57.93 97.25 58.02 96.84 58.21 96.48Z" fill="#5B4E3E" opacity="0.4"/><path d="M56.34 98.54C56.35 98.56 56.36 98.58 56.38 98.6 56.83 98.99 57.26 99.22 57.87 99.28 58.6 99.35 59.34 99.37 60.07 99.4 61.11 99.44 62.17 99.5 63.21 99.46 63.47 99.45 65.66 99.39 66 99.03 66.04 99.01 66.08 98.97 66.08 98.92 66.08 98.91 66.08 98.9 66.08 98.89 66.09 98.87 66.08 98.85 66.08 98.83 66.44 98.83 66.84 98.83 67.17 98.69 67.26 98.7 67.37 98.64 67.35 98.52 67.26 97.92 67.16 97.26 66.78 96.77 66.47 96.38 66.07 96.08 65.61 95.89 64.52 95.42 63.27 95.25 62.08 95.28 61.43 94.98 60.75 94.38 60.02 94.32 59.32 94.26 58.74 94.58 58.18 94.96 57.64 95.33 57.16 95.76 56.85 96.34 56.51 96.97 56.44 97.76 56.32 98.46 56.31 98.48 56.32 98.51 56.34 98.54ZM57.2 98.85C56.97 98.75 56.78 98.59 56.59 98.44 56.71 97.73 56.79 96.89 57.19 96.27 57.49 95.81 57.9 95.45 58.35 95.15 59.03 94.71 59.73 94.34 60.53 94.72 60.94 94.92 61.33 95.19 61.77 95.3 61.77 95.32 61.77 95.34 61.79 95.34 62.91 95.63 64.07 95.6 65.17 96.01 65.65 96.19 66.15 96.44 66.47 96.85 66.84 97.33 66.95 97.91 67.03 98.49 66.69 98.48 66.34 98.54 66 98.54 66 98.54 66 98.54 65.99 98.54 65.97 98.36 65.93 98.11 65.93 98.08 65.88 97.89 65.83 97.69 65.76 97.5 65.64 97.21 65.5 96.92 65.28 96.69 64.7 96.1 63.84 95.88 63.05 95.69 63.03 95.69 63.02 95.71 63.04 95.73 63.7 96.04 64.59 96.28 65.08 96.86 65.55 97.43 65.69 98.19 65.76 98.91 65.76 98.92 65.76 98.94 65.77 98.95 65.45 99.05 64.68 99.09 64.56 99.1 64.03 99.14 63.5 99.18 62.96 99.19 61.94 99.21 60.91 99.17 59.89 99.13 59.26 99.1 58.63 99.09 58.01 99.03 57.76 99 57.46 98.97 57.2 98.85Z" fill="#33291D" opacity="0.5"/><path d="M56.32 98.44C56.44 97.75 56.51 96.95 56.85 96.32 57.16 95.74 57.64 95.31 58.18 94.94 58.74 94.56 59.33 94.23 60.02 94.3 60.75 94.37 61.43 94.97 62.08 95.26 63.27 95.23 64.52 95.4 65.61 95.87 66.07 96.07 66.48 96.36 66.78 96.75 67.17 97.24 67.27 97.9 67.35 98.5 67.37 98.62 67.26 98.69 67.17 98.67 66.84 98.81 66.44 98.81 66.08 98.81 66.09 98.83 66.09 98.85 66.08 98.87 66.08 98.88 66.08 98.89 66.08 98.9 66.07 98.95 66.04 98.99 66 99.01 65.66 99.37 63.47 99.43 63.21 99.44 62.17 99.48 61.11 99.42 60.07 99.38 59.34 99.35 58.6 99.33 57.87 99.26 57.26 99.2 56.83 98.97 56.38 98.58 56.36 98.56 56.35 98.54 56.34 98.52 56.32 98.51 56.31 98.48 56.32 98.44Z" fill="#5B4E3E" opacity="0.6"/></g><path d="M55.65 51.11C56.18 48.86 57.53 46.87 59.22 45.33 62.4 42.44 67.15 41.15 71.27 42.52 73.31 43.2 75.03 44.63 76.05 46.52 76.95 48.18 77.44 50.73 76.23 52.37 75.75 53.01 75.04 53.37 74.57 54.05 73.94 54.97 73.35 55.91 72.71 56.81 72.02 57.78 71.33 58.75 70.63 59.71 69.25 61.59 67.78 63.35 66.23 65.09 65.51 65.9 64.73 66.69 64.08 67.56 63.47 68.39 63.08 69.37 62.74 70.34 62.4 71.32 62.09 72.33 61.88 73.34 61.66 74.39 61.5 75.45 61.26 76.49 61.27 76.58 61.24 76.65 61.19 76.71 61.19 76.72 61.19 76.72 61.18 76.73 61.06 76.86 60.8 76.92 60.65 76.98 60.4 77.07 60.1 77.17 59.86 77.33 59.57 78.06 59.33 78.76 59.22 79.55 59.1 80.35 59.1 81.18 59.13 81.99 59.19 83.65 59.29 85.34 59.52 86.98 59.76 88.68 60.23 90.33 61.09 91.83 61.45 92.47 62.08 93.07 62.18 93.82 62.26 94.35 61.85 94.71 61.42 94.98 61.51 95.02 61.62 95.05 61.72 95.07 61.96 95.11 62.2 95.13 62.44 95.09 62.45 95.09 62.45 95.09 62.46 95.09 62.48 95.07 62.51 95.06 62.53 95.05 62.54 95.04 62.55 95.05 62.54 95.06 62.25 95.56 61.57 95.94 61.07 95.65 61.1 95.75 61.12 95.85 61.16 95.94 61.23 96.13 61.34 96.29 61.51 96.4 61.54 96.41 61.55 96.47 61.51 96.47 60.91 96.51 60.24 96.16 59.88 95.67 59.77 96 59.5 96.25 59.19 96.42 59.1 96.47 59.02 96.37 59.04 96.28 59.12 96 59.08 95.77 59 95.52 58.6 96.03 57.9 96.29 57.26 96.16 57.18 96.17 57.1 96.16 57.02 96.1 56.97 96.06 56.98 95.99 57.03 95.96 57.26 95.85 57.42 95.78 57.57 95.55 57.67 95.4 57.77 95.2 57.8 95.01 57.54 94.58 57.34 94.24 57.57 93.69 57.93 92.84 57.9 91.98 57.83 91.07 57.71 89.41 57.36 87.79 57.24 86.13 57.12 84.47 57.24 82.82 57.24 81.17 57.24 80.34 57.23 79.51 57.28 78.68 57.32 78.01 57.33 77.28 57.47 76.62 57.4 76.37 57.32 76.12 57.31 75.86 57.3 75.69 57.33 75.5 57.36 75.33 57.33 74.02 57.47 72.7 57.49 71.39 57.5 70.01 57.39 68.64 57.1 67.28 56.8 65.9 56.46 64.53 56.2 63.13 55.95 61.74 55.74 60.35 55.59 58.95 55.32 56.34 55.05 53.67 55.65 51.11Z" fill="#9F4E16"/></g><g><g><path d="M25.59 96.82C25.61 96.39 25.62 95.96 25.71 95.54 25.81 95.11 26.05 94.8 26.37 94.56 26.74 94.13 27.19 93.76 27.76 93.58 28.45 93.36 29.29 93.54 29.99 93.63 30.88 93.74 31.76 93.87 32.65 93.96 33.44 94.03 34.25 94.12 34.98 94.43 36 94.88 36.8 95.71 37.06 96.73 37.13 96.97 37.37 98.21 36.83 98.13 36.69 98.17 36.53 98.18 36.39 98.19 36.25 98.2 36.1 98.19 35.96 98.16 35.96 98.17 35.96 98.19 35.96 98.2 35.96 98.29 35.88 98.33 35.81 98.33 35.32 98.75 33.05 98.5 32.66 98.48 31.48 98.41 30.3 98.35 29.12 98.26 28.49 98.21 27.86 98.14 27.22 98.12 26.7 98.1 26.19 98.06 25.72 97.82 25.66 97.79 25.65 97.74 25.65 97.69 25.5 97.43 25.58 97.11 25.59 96.82Z" fill="#5B4E3E"/><path d="M25.66 97.69C25.65 97.74 25.67 97.79 25.73 97.82 26.2 98.06 26.7 98.1 27.23 98.12 27.86 98.15 28.5 98.21 29.13 98.26 30.31 98.35 31.49 98.41 32.67 98.48 33.05 98.5 35.33 98.75 35.82 98.33 35.9 98.34 35.97 98.3 35.97 98.2 35.97 98.19 35.97 98.17 35.97 98.16 36.11 98.19 36.25 98.2 36.4 98.19 36.54 98.18 36.7 98.17 36.84 98.13 37.24 98.19 37.21 97.55 37.14 97.1 37.09 97.2 37.01 97.29 36.89 97.36 36.43 97.61 36.16 96.96 36.05 96.67 35.73 95.88 35.13 95.2 34.37 94.75 33.41 94.17 32.28 94.21 31.2 93.99 31.1 93.97 31.13 93.86 31.2 93.83 31.23 93.82 31.26 93.81 31.29 93.8 30.86 93.74 30.43 93.68 30 93.63 29.3 93.55 28.46 93.36 27.77 93.58 27.21 93.76 26.75 94.13 26.38 94.56 26.06 94.8 25.82 95.11 25.72 95.54 25.63 95.96 25.62 96.39 25.6 96.82 25.58 97.11 25.5 97.43 25.66 97.69ZM28.01 95.08C28.02 95.04 28.07 95.01 28.12 95.02 28.66 95.17 29.16 95.42 29.72 95.44 29.45 95.29 29.2 95.13 29.05 94.85 29.02 94.79 29.07 94.7 29.15 94.73 29.78 94.94 31.42 95.17 31.71 94.4 31.73 94.34 31.81 94.33 31.85 94.36 33.16 94.4 34.26 94.79 34.98 95.83 35.36 96.38 35.78 97.39 34.88 97.69 34.55 97.8 34.15 97.76 33.81 97.77 33.31 97.78 32.8 97.78 32.3 97.77 31.4 97.75 30.51 97.66 29.63 97.53 29.07 97.44 28.49 97.35 28.08 96.96 27.54 96.43 27.81 95.68 28.01 95.08Z" fill="#5B4E3E" opacity="0.4"/><path d="M25.66 97.69C25.65 97.74 25.67 97.79 25.73 97.82 26.2 98.06 26.7 98.1 27.23 98.12 27.86 98.15 28.5 98.21 29.13 98.26 30.31 98.35 31.49 98.41 32.67 98.48 33.05 98.5 35.33 98.75 35.82 98.33 35.9 98.34 35.97 98.3 35.97 98.2 35.97 98.19 35.97 98.17 35.97 98.16 36.11 98.19 36.25 98.2 36.4 98.19 36.54 98.18 36.7 98.17 36.84 98.13 37.38 98.21 37.13 96.97 37.07 96.73 36.8 95.71 36 94.88 34.99 94.43 34.26 94.11 33.45 94.03 32.66 93.96 31.77 93.88 30.89 93.74 30 93.63 29.3 93.55 28.46 93.36 27.77 93.58 27.21 93.76 26.75 94.13 26.38 94.56 26.06 94.8 25.82 95.11 25.72 95.54 25.63 95.96 25.62 96.39 25.6 96.82 25.58 97.11 25.5 97.43 25.66 97.69ZM25.86 96.73C25.87 96.42 25.87 96.1 25.92 95.79 26 95.34 26.21 95 26.5 94.72 26.64 94.61 26.77 94.5 26.91 94.39 27.07 94.28 27.23 94.18 27.41 94.08 27.43 94.07 27.43 94.05 27.42 94.04 27.53 93.98 27.64 93.93 27.76 93.89 28.4 93.69 29.14 93.82 29.79 93.89 30.46 93.97 31.14 94.07 31.81 94.14 32.44 94.21 33.09 94.24 33.72 94.36 34.89 94.58 36.02 95.16 36.54 96.2 36.68 96.47 37.1 97.5 36.84 97.86 36.68 97.86 36.5 97.92 36.34 97.93 36.21 97.94 36.08 97.94 35.95 97.95 35.84 96.29 34.8 94.65 32.9 94.4 32.87 94.4 32.86 94.44 32.89 94.44 33.67 94.69 34.38 95.07 34.85 95.72 35.38 96.44 35.64 97.3 35.65 98.17 35.52 98.22 35.35 98.23 35.24 98.24 34.9 98.27 34.56 98.28 34.22 98.27 33.64 98.26 33.06 98.23 32.48 98.19 31.31 98.12 30.14 98.04 28.97 97.95 28.4 97.9 27.82 97.85 27.25 97.82 26.77 97.8 26.31 97.76 25.88 97.57 25.82 97.29 25.85 97.01 25.86 96.73Z" fill="#33291D" opacity="0.5"/><path d="M25.59 96.82C25.61 96.39 25.62 95.96 25.71 95.54 25.81 95.11 26.05 94.8 26.37 94.56 26.74 94.13 27.19 93.76 27.76 93.58 28.45 93.36 29.29 93.54 29.99 93.63 30.88 93.74 31.76 93.87 32.65 93.96 33.44 94.03 34.25 94.12 34.98 94.43 36 94.88 36.8 95.71 37.06 96.73 37.13 96.97 37.37 98.21 36.83 98.13 36.69 98.17 36.53 98.18 36.39 98.19 36.25 98.2 36.1 98.19 35.96 98.16 35.96 98.17 35.96 98.19 35.96 98.2 35.96 98.29 35.88 98.33 35.81 98.33 35.32 98.75 33.05 98.5 32.66 98.48 31.48 98.41 30.3 98.35 29.12 98.26 28.49 98.21 27.86 98.14 27.22 98.12 26.7 98.1 26.19 98.06 25.72 97.82 25.66 97.79 25.65 97.74 25.65 97.69 25.5 97.43 25.58 97.11 25.59 96.82Z" fill="#5B4E3E" opacity="0.6"/></g><path d="M14.96 40.13C16.5 36.79 20.33 35.01 23.89 35.24 27.76 35.49 31.35 37.8 33.87 40.63 35.14 42.05 36.17 43.7 36.83 45.49 38.47 49.98 35.74 55.72 33.02 59.21 31.79 60.79 30.35 62.21 28.8 63.46 27.11 64.83 25.2 65.88 23.48 67.19 22.92 67.96 22.63 68.88 22.38 69.79 22.06 70.95 21.69 72.08 21.33 73.22 21.12 73.87 20.94 74.53 20.81 75.21 20.7 75.78 20.51 76.45 20.9 76.95 21.15 77.27 21.41 77.52 21.44 77.94 21.46 78.28 21.31 78.66 21.15 79 21.1 80.14 21.58 81.18 22.14 82.17 22.82 83.37 23.55 84.56 24.29 85.73 25.05 86.92 25.81 88.13 26.65 89.27 27.02 89.77 27.69 90.48 28.06 90.98 28.33 91.35 28.1 91.43 28.12 91.83 28.4 91.83 28.78 91.77 28.93 91.97 29.13 92.23 29.1 92.53 29.07 92.84 29.4 92.88 29.75 92.88 30.03 93.06 30.39 93.28 30.71 93.55 31.05 93.8 31.18 93.84 31.32 93.88 31.44 93.94 31.48 93.96 31.47 94.02 31.42 94.02 30.71 93.89 29.9 94.04 29.22 93.79 29.24 93.82 29.25 93.86 29.27 93.89 29.37 94.06 29.5 94.22 29.61 94.39 29.63 94.4 29.65 94.42 29.66 94.43 29.69 94.46 29.65 94.51 29.61 94.5 29.02 94.27 28.12 94.25 27.66 93.75 27.32 94.41 26.63 94.88 25.91 95.05 25.78 95.21 25.62 95.31 25.41 95.28 25.38 95.28 25.36 95.23 25.4 95.21 25.78 95.04 25.99 94.47 25.83 94.09 25.72 93.82 25.42 93.62 25.23 93.4 24.77 92.88 25.02 92.32 25.39 91.84 25.48 91.53 25.35 91.27 25.1 91 24.67 90.52 24.24 90.09 23.9 89.53 23.1 88.23 22.49 86.82 21.77 85.47 21 84.03 20.19 82.61 19.42 81.16 19.05 80.46 18.69 79.89 17.93 79.63 15.74 78.86 15.9 78.99 16.3 76.94 16.64 75.18 17.26 73.49 17.61 71.73 17.86 70.44 17.79 69.19 17.67 67.89 17.54 66.52 17.39 65.16 17.21 63.8 16.85 61.06 16.4 58.33 15.89 55.61 15.57 53.9 15.15 52.2 14.79 50.49 14.11 47.17 13.47 43.36 14.96 40.13Z" fill="#B3641B"/><path d="M14.96 40.13C16.5 36.79 20.33 35.01 23.89 35.24 27.76 35.49 31.35 37.8 33.87 40.63 35.14 42.05 36.17 43.7 36.83 45.49 38.47 49.98 35.74 55.72 33.02 59.21 31.79 60.79 30.35 62.21 28.8 63.46 27.11 64.83 25.2 65.88 23.48 67.19 22.92 67.96 22.63 68.88 22.38 69.79 22.06 70.95 21.69 72.08 21.33 73.22 21.12 73.87 20.94 74.53 20.81 75.21 20.7 75.78 20.51 76.45 20.9 76.95 21.15 77.27 21.41 77.52 21.44 77.94 21.46 78.28 21.31 78.66 21.15 79 21.1 80.14 21.58 81.18 22.14 82.17 22.82 83.37 23.55 84.56 24.29 85.73 25.05 86.92 25.81 88.13 26.65 89.27 27.02 89.77 27.69 90.48 28.06 90.98 28.33 91.35 28.1 91.43 28.12 91.83 28.4 91.83 28.78 91.77 28.93 91.97 29.13 92.23 29.1 92.53 29.07 92.84 29.4 92.88 29.75 92.88 30.03 93.06 30.39 93.28 30.71 93.55 31.05 93.8 31.18 93.84 31.32 93.88 31.44 93.94 31.48 93.96 31.47 94.02 31.42 94.02 30.71 93.89 29.9 94.04 29.22 93.79 29.24 93.82 29.25 93.86 29.27 93.89 29.37 94.06 29.5 94.22 29.61 94.39 29.63 94.4 29.65 94.42 29.66 94.43 29.69 94.46 29.65 94.51 29.61 94.5 29.02 94.27 28.12 94.25 27.66 93.75 27.32 94.41 26.63 94.88 25.91 95.05 25.78 95.21 25.62 95.31 25.41 95.28 25.38 95.28 25.36 95.23 25.4 95.21 25.78 95.04 25.99 94.47 25.83 94.09 25.72 93.82 25.42 93.62 25.23 93.4 24.77 92.88 25.02 92.32 25.39 91.84 25.48 91.53 25.35 91.27 25.1 91 24.67 90.52 24.24 90.09 23.9 89.53 23.1 88.23 22.49 86.82 21.77 85.47 21 84.03 20.19 82.61 19.42 81.16 19.05 80.46 18.69 79.89 17.93 79.63 15.74 78.86 15.9 78.99 16.3 76.94 16.64 75.18 17.26 73.49 17.61 71.73 17.86 70.44 17.79 69.19 17.67 67.89 17.54 66.52 17.39 65.16 17.21 63.8 16.85 61.06 16.4 58.33 15.89 55.61 15.57 53.9 15.15 52.2 14.79 50.49 14.11 47.17 13.47 43.36 14.96 40.13Z" fill="#A64D25" opacity="0.4"/></g><g><path d="M19.54 97.9C19.56 97.44 19.57 96.98 19.66 96.52 19.75 96.06 20 95.73 20.32 95.47 20.69 95.01 21.14 94.61 21.7 94.42 22.39 94.18 23.23 94.38 23.93 94.47 24.82 94.59 25.7 94.73 26.59 94.82 27.38 94.9 28.19 94.99 28.92 95.33 29.94 95.81 30.74 96.71 31.01 97.81 31.07 98.07 31.32 99.41 30.78 99.32 30.64 99.37 30.48 99.37 30.34 99.38 30.2 99.39 30.05 99.38 29.92 99.35 29.92 99.37 29.92 99.38 29.92 99.4 29.92 99.5 29.85 99.54 29.77 99.54 29.28 99.99 27.01 99.73 26.63 99.7 25.45 99.63 24.26 99.56 23.08 99.46 22.45 99.41 21.82 99.34 21.18 99.31 20.66 99.29 20.15 99.24 19.68 98.99 19.62 98.96 19.61 98.9 19.62 98.85 19.45 98.55 19.52 98.21 19.54 97.9Z" fill="#5B4E3E"/><path d="M19.6 98.83C19.59 98.88 19.61 98.94 19.66 98.97 20.13 99.22 20.64 99.27 21.16 99.29 21.79 99.32 22.42 99.39 23.06 99.44 24.24 99.53 25.42 99.61 26.61 99.68 26.99 99.7 29.27 99.97 29.75 99.52 29.83 99.53 29.9 99.48 29.9 99.38 29.9 99.36 29.9 99.35 29.9 99.33 30.04 99.37 30.18 99.37 30.32 99.36 30.46 99.35 30.62 99.34 30.76 99.3 31.3 99.39 31.05 98.05 30.99 97.79 30.99 97.77 30.98 97.75 30.97 97.73 30.97 97.9 30.94 98.14 30.81 98.22 30.52 98.39 30.34 97.76 30.27 97.58 29.65 96.01 28.01 95.1 26.39 94.78 25.56 94.69 24.74 94.56 23.92 94.45 23.22 94.36 22.38 94.16 21.69 94.4 21.13 94.6 20.67 94.99 20.31 95.45 19.99 95.71 19.75 96.04 19.65 96.5 19.56 96.95 19.55 97.41 19.53 97.88 19.52 98.21 19.45 98.55 19.6 98.83ZM25.55 95.6C25.66 95.57 25.76 95.53 25.86 95.5 25.87 95.46 25.91 95.42 25.97 95.43 26.99 95.6 28.01 95.92 28.65 96.79 28.93 97.17 29.64 98.3 28.91 98.61 28.4 98.83 27.91 97.88 27.73 97.57 27.56 97.29 27.43 96.98 27.23 96.73 26.85 96.24 26.15 95.89 25.55 95.78 25.46 95.76 25.47 95.62 25.55 95.6Z" fill="#5B4E3E" opacity="0.4"/><path d="M19.6 98.83C19.59 98.88 19.61 98.94 19.66 98.97 20.13 99.22 20.64 99.27 21.16 99.29 21.79 99.32 22.42 99.39 23.06 99.44 24.24 99.53 25.42 99.61 26.61 99.68 26.99 99.7 29.27 99.97 29.75 99.52 29.83 99.53 29.9 99.48 29.9 99.38 29.9 99.36 29.9 99.35 29.9 99.33 30.04 99.37 30.18 99.37 30.32 99.36 30.46 99.35 30.62 99.34 30.76 99.3 31.16 99.36 31.13 98.67 31.06 98.19 31.01 98.3 30.93 98.4 30.81 98.47 30.35 98.74 30.08 98.04 29.97 97.73 29.65 96.88 29.05 96.15 28.29 95.66 27.33 95.04 26.2 95.08 25.12 94.84 25.03 94.82 25.05 94.7 25.12 94.67 25.15 94.66 25.18 94.65 25.21 94.64 24.78 94.58 24.35 94.52 23.92 94.46 23.22 94.37 22.38 94.17 21.69 94.41 21.13 94.61 20.67 95 20.31 95.46 19.99 95.72 19.75 96.05 19.65 96.51 19.56 96.96 19.55 97.42 19.53 97.89 19.52 98.21 19.45 98.55 19.6 98.83ZM21.96 96.01C21.97 95.97 22.02 95.93 22.07 95.95 22.61 96.11 23.11 96.39 23.67 96.4 23.39 96.24 23.15 96.07 23 95.77 22.97 95.71 23.02 95.61 23.1 95.64 23.73 95.86 25.37 96.12 25.66 95.28 25.68 95.21 25.76 95.2 25.8 95.24 27.1 95.29 28.21 95.7 28.93 96.83 29.31 97.42 29.73 98.51 28.83 98.84 28.5 98.96 28.1 98.92 27.76 98.93 27.26 98.95 26.75 98.95 26.24 98.94 25.34 98.92 24.45 98.82 23.57 98.68 23.01 98.59 22.43 98.49 22.02 98.06 21.49 97.48 21.76 96.67 21.96 96.01Z" fill="#5B4E3E" opacity="0.4"/><path d="M19.6 98.83C19.59 98.88 19.61 98.94 19.66 98.97 20.13 99.22 20.64 99.27 21.16 99.29 21.79 99.32 22.42 99.39 23.06 99.44 24.24 99.53 25.42 99.61 26.61 99.68 26.99 99.7 29.27 99.97 29.75 99.52 29.83 99.53 29.9 99.48 29.9 99.38 29.9 99.36 29.9 99.35 29.9 99.33 30.04 99.37 30.18 99.37 30.32 99.36 30.46 99.35 30.62 99.34 30.76 99.3 31.3 99.39 31.05 98.05 30.99 97.79 30.72 96.69 29.92 95.79 28.9 95.31 28.17 94.97 27.36 94.88 26.57 94.8 25.68 94.71 24.8 94.56 23.91 94.45 23.21 94.36 22.37 94.16 21.68 94.4 21.12 94.6 20.66 94.99 20.3 95.45 19.98 95.71 19.74 96.04 19.64 96.5 19.55 96.95 19.54 97.41 19.52 97.88 19.52 98.21 19.45 98.55 19.6 98.83ZM19.81 97.8C19.82 97.46 19.82 97.12 19.87 96.79 19.95 96.3 20.15 95.94 20.44 95.64 20.58 95.52 20.72 95.4 20.85 95.28 21.01 95.16 21.17 95.05 21.35 94.95 21.37 94.94 21.37 94.92 21.36 94.91 21.47 94.85 21.58 94.79 21.7 94.75 22.34 94.53 23.07 94.68 23.73 94.76 24.4 94.84 25.07 94.94 25.75 95.03 26.38 95.11 27.03 95.14 27.65 95.26 28.82 95.49 29.95 96.12 30.47 97.25 30.61 97.54 31.03 98.65 30.77 99.04 30.6 99.04 30.43 99.11 30.27 99.12 30.14 99.13 30.01 99.13 29.88 99.14 29.77 97.35 28.73 95.59 26.83 95.31 26.8 95.3 26.79 95.35 26.82 95.36 27.6 95.63 28.31 96.04 28.78 96.73 29.31 97.51 29.57 98.43 29.58 99.37 29.45 99.42 29.28 99.43 29.17 99.44 28.83 99.47 28.49 99.48 28.15 99.48 27.57 99.47 26.99 99.44 26.41 99.39 25.24 99.31 24.07 99.23 22.9 99.13 22.33 99.08 21.75 99.02 21.18 98.99 20.71 98.97 20.24 98.93 19.81 98.72 19.76 98.4 19.8 98.11 19.81 97.8Z" fill="#33291D" opacity="0.5"/></g><g><path d="M54.64 98.97C54.76 98.28 54.83 97.48 55.17 96.85 55.48 96.27 55.96 95.84 56.5 95.47 57.06 95.09 57.65 94.76 58.35 94.83 59.08 94.89 59.76 95.49 60.41 95.79 61.6 95.76 62.85 95.93 63.94 96.4 64.4 96.6 64.8 96.89 65.11 97.28 65.5 97.77 65.6 98.43 65.68 99.03 65.7 99.15 65.59 99.22 65.5 99.21 65.17 99.35 64.77 99.35 64.41 99.35 64.42 99.37 64.42 99.39 64.42 99.41 64.42 99.42 64.42 99.43 64.42 99.44 64.41 99.49 64.38 99.53 64.34 99.55 64 99.91 61.81 99.97 61.55 99.98 60.51 100.02 59.45 99.95 58.41 99.91 57.68 99.88 56.94 99.86 56.21 99.79 55.6 99.73 55.18 99.5 54.72 99.11 54.7 99.09 54.69 99.07 54.68 99.05 54.65 99.04 54.63 99.01 54.64 98.97Z" fill="#5B4E3E"/><path d="M54.64 98.97C54.63 99.01 54.64 99.05 54.67 99.07 54.68 99.09 54.69 99.11 54.71 99.13 55.16 99.52 55.59 99.75 56.2 99.81 56.93 99.88 57.67 99.9 58.4 99.93 59.44 99.97 60.5 100.03 61.54 100 61.8 99.99 63.99 99.93 64.33 99.57 64.38 99.55 64.41 99.51 64.41 99.46 64.41 99.45 64.41 99.44 64.41 99.43 64.41 99.41 64.41 99.39 64.4 99.37 64.76 99.37 65.16 99.37 65.49 99.23 65.58 99.24 65.69 99.17 65.67 99.05 65.63 98.74 65.58 98.42 65.49 98.11 65.48 98.16 65.46 98.21 65.44 98.26 65.3 98.51 65.03 98.36 64.89 98.19 64.76 98.02 64.7 97.78 64.63 97.58 64.48 97.17 64.21 96.93 63.85 96.7 63.25 96.31 62.51 96.14 61.84 95.92 61.81 95.91 61.79 95.89 61.79 95.87 61.33 95.82 60.86 95.8 60.4 95.81 59.75 95.51 59.07 94.91 58.34 94.85 57.64 94.79 57.06 95.11 56.49 95.49 55.95 95.86 55.47 96.29 55.16 96.87 54.84 97.48 54.76 98.27 54.64 98.97ZM59.52 96.63C61 96.62 62.11 96.4 63.28 97.46 63.57 97.72 63.78 98.24 63.75 98.51 63.67 99.31 62.82 98.63 62.54 98.22 61.83 97.18 60.72 96.93 59.52 96.8 59.41 96.8 59.4 96.63 59.52 96.63Z" fill="#5B4E3E" opacity="0.4"/><path d="M54.64 98.97C54.63 99.01 54.64 99.05 54.67 99.07 54.68 99.09 54.69 99.11 54.71 99.13 55.16 99.52 55.59 99.75 56.2 99.81 56.93 99.88 57.67 99.9 58.4 99.93 59.44 99.97 60.5 100.03 61.54 100 61.8 99.99 63.99 99.93 64.33 99.57 64.38 99.55 64.41 99.51 64.41 99.46 64.41 99.45 64.41 99.44 64.41 99.43 64.41 99.41 64.41 99.39 64.4 99.37 64.76 99.37 65.16 99.37 65.49 99.23 65.58 99.24 65.69 99.17 65.67 99.05 65.65 98.92 65.63 98.78 65.61 98.65 65.43 98.79 64.58 98.89 64.52 98.61 64.28 97.51 63.83 96.99 62.71 96.49 62.23 96.28 61.65 96.33 61.34 95.85 61.34 95.84 61.33 95.83 61.33 95.82 61.01 95.8 60.7 95.79 60.39 95.8 59.74 95.5 59.06 94.9 58.33 94.84 57.63 94.78 57.05 95.1 56.48 95.48 55.94 95.85 55.46 96.28 55.15 96.86 54.84 97.48 54.76 98.27 54.64 98.97ZM56.53 97.01C56.62 96.84 56.75 96.72 56.91 96.64 56.99 96.6 57.09 96.59 57.17 96.57 57.44 96.52 57.62 96.4 57.82 96.22 57.87 96.17 57.94 96.2 57.96 96.26 57.98 96.27 58 96.29 58.01 96.31 58.23 96.87 58.97 97.18 59.57 97.33 59.35 97.08 59.15 96.82 59.14 96.46 59.14 96.35 59.29 96.35 59.31 96.44 59.61 96.48 59.91 96.49 60.22 96.46 60.59 96.43 60.95 96.32 61.32 96.32 61.81 96.32 62.36 96.61 62.76 96.85 63.58 97.34 63.98 98.23 64.11 99.14 64.12 99.2 64.07 99.24 64.02 99.25 63.27 99.34 59.79 99.5 58.47 99.32 57.78 99.23 56.39 99.1 56.29 98.17 56.25 97.77 56.35 97.37 56.53 97.01Z" fill="#5B4E3E" opacity="0.4"/><path d="M54.67 99.07C54.68 99.09 54.69 99.11 54.71 99.13 55.16 99.52 55.59 99.75 56.2 99.81 56.93 99.88 57.67 99.9 58.4 99.93 59.44 99.97 60.5 100.03 61.54 100 61.8 99.99 63.99 99.93 64.33 99.57 64.38 99.55 64.41 99.51 64.41 99.46 64.41 99.45 64.41 99.44 64.41 99.43 64.41 99.41 64.41 99.39 64.4 99.37 64.76 99.37 65.16 99.37 65.49 99.23 65.58 99.24 65.69 99.17 65.67 99.05 65.59 98.45 65.48 97.79 65.1 97.3 64.79 96.91 64.39 96.61 63.93 96.42 62.84 95.95 61.59 95.78 60.4 95.81 59.75 95.51 59.07 94.91 58.34 94.85 57.64 94.79 57.06 95.11 56.49 95.49 55.95 95.86 55.47 96.29 55.16 96.87 54.83 97.5 54.75 98.29 54.63 98.99 54.63 99.01 54.65 99.04 54.67 99.07ZM55.53 99.38C55.3 99.28 55.11 99.12 54.92 98.97 55.04 98.26 55.12 97.42 55.52 96.8 55.82 96.34 56.23 95.98 56.69 95.68 57.37 95.24 58.07 94.87 58.87 95.25 59.28 95.44 59.67 95.72 60.11 95.82 60.11 95.84 60.11 95.86 60.13 95.86 61.25 96.15 62.41 96.12 63.51 96.53 63.99 96.71 64.49 96.96 64.81 97.37 65.18 97.85 65.29 98.42 65.37 99.01 65.03 99 64.68 99.06 64.34 99.06 64.34 99.06 64.33 99.06 64.33 99.06 64.31 98.87 64.27 98.63 64.27 98.6 64.22 98.4 64.17 98.21 64.1 98.02 63.98 97.73 63.84 97.44 63.62 97.21 63.04 96.62 62.18 96.4 61.4 96.21 61.38 96.21 61.37 96.23 61.39 96.24 62.05 96.56 62.94 96.79 63.43 97.37 63.91 97.94 64.04 98.7 64.11 99.42 64.11 99.43 64.12 99.45 64.12 99.46 63.81 99.56 63.03 99.6 62.91 99.61 62.38 99.66 61.84 99.69 61.31 99.7 60.29 99.72 59.26 99.68 58.24 99.64 57.61 99.62 56.98 99.6 56.36 99.54 56.08 99.53 55.78 99.5 55.53 99.38Z" fill="#33291D" opacity="0.5"/></g><path d="M0.02 60.08C-0.06 60 0.06 59.89 0.15 59.94 0.46 60.15 0.81 60.3 1.17 60.4 2.07 60.03 2.76 59.48 3.06 58.52 3.41 57.43 2.47 56.51 2.12 55.55 1.49 53.83 2.45 52.47 3.36 51.08 3.63 50.67 3.92 50.24 4.06 49.76 4.21 49.25 4.09 48.68 3.94 48.19 3.65 47.26 3.12 46.43 2.78 45.52 2.39 44.49 2.09 43.37 1.88 42.29 1.71 41.37 1.73 40.5 1.96 39.62 1.89 39.65 1.79 39.57 1.83 39.49 2.86 37.07 3.99 34.62 5.37 32.39 6.74 30.17 8.41 28.15 10.16 26.22 11.87 24.33 13.68 22.53 15.48 20.72 17.44 18.74 19.33 16.68 21.14 14.56 22.23 13.29 23.25 11.95 24.38 10.72 24.91 10.15 25.47 9.59 26.15 9.2 26.71 8.88 27.34 8.7 27.93 8.43 27.32 8.43 26.72 8.46 26.12 8.58 25.98 8.61 25.9 8.42 26 8.33 26.83 7.62 27.74 7.02 28.78 6.66 29.52 6.4 30.3 6.27 31.08 6.22 30.69 6.11 30.3 6.01 29.9 5.95 29.73 5.92 29.73 5.71 29.89 5.66 31.17 5.28 32.75 5.09 33.99 5.7 33.71 5.29 33.35 4.94 33.03 4.54 32.93 4.42 33.06 4.28 33.19 4.31 34.41 4.62 35.41 5.42 36.07 6.48 36.48 6.22 36.88 5.96 37.34 5.8 37.84 5.62 38.39 5.6 38.92 5.6 39.09 5.6 39.09 5.85 38.93 5.89 38.5 5.98 37.99 6.16 37.73 6.53 38.46 6.28 39.25 6.5 40 6.72 40.16 6.77 40.09 6.99 39.94 6.99 39.54 7 39.18 7.12 38.81 7.24 39.47 7.34 40.1 7.62 40.68 7.93 41.64 8.43 42.52 9.1 43.36 9.79 45.32 11.4 46.98 13.33 48.59 15.28 49.7 16.62 50.43 18.52 52.09 19.28 53.17 19.78 54.51 19.45 55.64 19.27 56.99 19.06 58.33 18.85 59.69 18.74 60.43 18.68 61.05 18.78 61.57 19.17 61.66 18.83 61.43 18.33 61.28 18.05 61.23 17.95 61.34 17.85 61.43 17.88 62.04 18.08 62.47 18.68 62.86 19.14 63.18 19.52 63.59 19.97 63.69 20.48 64.16 20.24 64.67 19.95 65.22 20.04 65.33 20.06 65.39 20.23 65.26 20.27 64.82 20.44 64.66 20.8 64.46 21.17 64.87 21.11 65.37 21.23 65.67 21.45 65.7 21.48 65.68 21.52 65.64 21.51 65.64 21.51 65.64 21.51 65.64 21.51 65.64 21.53 65.62 21.55 65.6 21.55 65.31 21.55 65.06 21.65 64.8 21.73 65.54 22.19 66.02 23.01 66.49 23.71 67.12 24.66 67.71 25.64 68.31 26.61 68.93 27.61 69.52 28.64 70.15 29.64 70.37 29.99 70.61 30.33 70.85 30.67 71.03 30.93 71.23 31.2 71.52 31.32 71.54 31.31 71.56 31.3 71.58 31.29 72.72 31.08 73.78 30.66 74.85 30.21 75.85 29.79 76.83 29.34 77.77 28.8 78.79 28.22 79.69 27.47 80.55 26.67 80.88 26.36 81.19 26.03 81.51 25.71 81.8 25.41 82.1 25.09 82.22 24.69 81.92 24.16 81.71 23.55 81.45 22.99 81.18 22.39 80.88 21.8 80.61 21.19 80.11 20.06 79.76 18.85 79.56 17.63 79.39 16.54 79.36 15.47 79.71 14.41 79.91 13.8 80.22 13.25 80.62 12.77 80.05 13.14 79.4 13.42 79.3 14.17 79.29 14.24 79.19 14.23 79.19 14.16 79.19 13.83 79.3 13.56 79.46 13.34 79.62 12.49 80.06 11.54 80.76 10.99 80.3 11.2 79.86 11.43 79.47 11.74 79.44 11.77 79.39 11.73 79.41 11.69 79.52 11.55 79.64 11.43 79.77 11.31 80.07 10.69 80.44 10.1 80.87 9.56 81.16 9.19 81.47 8.84 81.81 8.52 81.94 8.39 82.15 8.2 82.36 8.11 81.98 7.51 81.98 6.65 81.97 6 81.95 5.16 82 4.2 82.43 3.43 82.24 3.48 82.03 3.48 81.84 3.51 81.55 3.55 81.25 3.59 80.96 3.64 80.87 3.65 80.85 3.54 80.92 3.5 80.99 3.46 81.08 3.41 81.16 3.37L81.16 3.36C81.52 2.85 82.07 2.27 82.7 2 82.62 1.96 82.53 1.92 82.46 1.89 82.23 1.81 81.98 1.72 81.74 1.73 81.65 1.73 81.66 1.61 81.73 1.59 81.82 1.56 81.91 1.55 82.01 1.55 82.17 1.45 82.34 1.37 82.51 1.29 82.55 1.27 82.6 1.25 82.64 1.23 84.01 0.06 86.74-0.22 88.12 1.03 88.44 1.33 88.59 1.76 88.66 2.22 89.2 1.44 90.02 0.78 90.75 0.3 91.69-0.33 92.65 0.16 93.51 0.68 94.65 1.39 95.72 2.38 96.69 3.3 97.63 4.19 98.75 5.23 99.37 6.4 100.54 5.98 101.87 5.92 103.08 5.85 104.43 5.77 105.85 5.83 107.14 6.24 107.65 5.84 108.2 5.48 108.77 5.15 109.51 4.72 110.11 4.68 110.76 5.27 112.27 6.66 113.64 8.69 114.25 10.65 115.68 11.29 116.87 12.64 117.66 13.9 118.08 13.87 118.41 13.99 118.53 14.39 118.89 15.61 116.07 16.48 115.14 16.76 115.74 17.55 116.32 18.34 115.52 19.19 115.18 19.56 114.68 19.75 114.22 19.92 114.18 19.94 114.13 19.95 114.09 19.97 114.58 20.87 114.31 22.05 113.88 22.92 113.87 22.93 113.86 22.94 113.85 22.95 113.83 23.02 113.8 23.09 113.76 23.16 113.74 23.21 113.66 23.2 113.66 23.14 113.71 22.65 113.64 22.25 113.37 21.84 113.29 21.72 113.19 21.61 113.09 21.5 113.03 22.3 112.33 23.21 111.78 23.6 111.72 23.71 111.64 23.81 111.55 23.9 111.5 23.95 111.41 23.88 111.44 23.82 111.58 23.53 111.7 23.25 111.75 22.93 111.77 22.79 111.78 22.66 111.79 22.52 111.49 23.17 110.85 23.61 110.07 23.68 109.88 23.84 109.66 23.91 109.39 23.86 109.32 23.85 109.28 23.74 109.36 23.71 110.55 23.29 110.24 21.84 110.3 20.78 108.65 21.03 107.52 20.41 106.19 19.45 105.34 18.83 104.43 18.34 103.39 18.16 102.22 17.97 101.14 18.4 100.02 18.66 98.83 18.94 97.69 19.14 96.55 19.6 95.66 19.96 94.79 20.48 93.82 20.61 93.77 20.62 93.72 20.62 93.67 20.62 93.68 20.64 93.69 20.67 93.7 20.7 93.81 21.28 93.9 21.84 94.13 22.38 94.42 23.06 95.1 23.46 95.69 23.87 96.48 24.41 97.23 25.02 97.71 25.84 97.85 25.94 97.98 26.07 98.08 26.21 98.1 26.24 98.07 26.28 98.04 26.26 97.61 25.98 97.1 25.86 96.62 25.67 97.46 26.29 98.12 27.23 98.35 28.19 98.45 28.32 98.54 28.47 98.61 28.63 98.62 28.65 98.6 28.67 98.57 28.66 98.09 28.24 97.67 27.86 97.09 27.59 96.82 27.47 96.54 27.37 96.26 27.29 97.41 28.07 98.34 29.15 99.03 30.37 99.86 31.85 100.01 33.46 99.8 35.11 99.8 35.28 99.79 35.46 99.76 35.64 99.75 35.67 99.71 35.67 99.71 35.64 99.67 35.07 99.54 34.55 99.26 34.05 99.12 33.8 98.94 33.58 98.75 33.37 98.96 33.74 99.09 34.16 99.15 34.57 99.21 34.74 99.25 34.93 99.24 35.11 99.24 35.14 99.19 35.14 99.18 35.11 99.07 34.53 98.67 34.18 98.28 33.81 98.84 34.65 99.14 35.65 99.23 36.67 99.36 38.1 98.85 39.36 98.05 40.51 98 40.68 97.92 40.83 97.8 40.98 97.78 41.01 97.72 40.99 97.73 40.95 98.11 40.16 97.83 39.46 97.56 38.74 97.63 39.47 97.49 40.24 97 40.7 96.99 40.71 96.98 40.71 96.97 40.71 96.96 40.74 96.96 40.77 96.95 40.8 96.94 40.84 96.88 40.82 96.89 40.79 96.93 40.28 96.91 39.79 96.75 39.3 96.64 38.97 96.48 38.66 96.34 38.35 96.39 39.24 95.99 40.03 95.48 40.8 94.8 41.81 94 42.74 93.14 43.6 91.31 45.44 89.14 46.96 86.96 48.35 83.21 50.76 79.11 52.58 74.91 54.06 73.61 54.48 72.94 54.73 72.33 54.93 71.13 56.24 69.73 57.4 68.5 58.68 67.54 59.68 66.58 60.67 65.68 61.72 64.79 62.77 64.05 63.9 63.43 65.13 62.53 66.9 61.85 68.76 61.18 70.62 61.16 70.69 61.15 70.75 61.13 70.81 60.92 71.44 60.75 72.08 60.53 72.71 60.15 73.79 59.83 74.91 59.42 75.98 59.39 76.09 59.37 76.2 59.37 76.32 59.37 76.36 59.34 76.41 59.3 76.43 59.2 76.47 59.12 76.54 59.02 76.59 59.01 76.6 59 76.6 58.99 76.61 58.99 76.63 58.98 76.64 58.97 76.65 58.84 76.77 58.69 76.86 58.54 76.96 58.53 76.97 58.52 76.97 58.5 76.98 58.16 77.63 58.19 78.36 58.21 79.07 58.24 79.94 58.2 80.8 58.19 81.67 58.18 83.57 58.07 85.45 58.32 87.34 58.44 88.22 58.63 89.09 58.88 89.94 59.14 90.81 59.45 91.77 59.94 92.54 60.26 93.04 60.74 93.47 60.74 94.11 60.74 94.55 60.32 94.84 59.92 94.98 60.03 95.17 60.14 95.33 60.34 95.47 60.58 95.63 60.89 95.68 61.18 95.71 61.21 95.7 61.25 95.69 61.28 95.68 61.32 95.67 61.33 95.72 61.32 95.74 61.32 95.76 61.32 95.78 61.29 95.78 61.28 95.78 61.27 95.78 61.26 95.78 60.75 96.08 60.27 96.4 59.65 96.23 59.3 96.14 59.03 95.87 58.81 95.57 58.81 95.84 58.79 96.11 58.81 96.37 58.82 96.38 58.82 96.39 58.83 96.4 58.85 96.42 58.83 96.46 58.8 96.45 58.36 96.28 58.08 95.86 58 95.4 57.44 96.27 56.1 96.66 55.22 96.03 55.21 96.02 55.2 96.01 55.2 96 55.2 96 55.19 96 55.19 96 55.16 95.97 55.16 95.92 55.21 95.91 55.45 95.88 55.66 95.78 55.86 95.65 55.98 95.58 56.09 95.48 56.2 95.4 55.96 95.15 55.74 94.94 55.83 94.51 55.91 94.18 56.23 93.86 56.37 93.55 56.54 93.18 56.6 92.77 56.63 92.37 56.7 91.44 56.58 90.5 56.49 89.58 56.4 88.69 56.3 87.8 56.22 86.92 56.04 85.15 56.12 83.4 56.14 81.62 56.16 79.82 55.97 78.04 55.89 76.25 55.85 76.15 55.8 76.06 55.76 75.97 55.59 75.63 55.41 75.3 55.35 74.92 55.29 74.52 55.48 74.18 55.65 73.84 55.8 73.54 55.84 73.22 55.88 72.9 55.82 71.62 55.79 70.35 55.79 69.07 55.79 67.66 55.73 66.26 55.4 64.88 55.14 63.78 54.74 62.74 54.29 61.71 52.49 62.81 50.46 63.7 48.42 64.21 46.34 64.73 44.1 64.77 42.06 64.05 40.27 63.42 38.75 62.23 37.27 61.09 35.59 59.79 33.88 58.54 31.89 57.76 31.06 58.77 30.1 59.68 29.13 60.53 26.67 62.67 23.93 64.54 21.95 67.15 19.57 70.3 18.97 74.2 18.09 77.94 18.25 78.2 18.39 78.48 18.48 78.79 18.59 79.17 18.37 79.54 18.18 79.85 17.89 80.31 17.86 80.66 17.98 81.2 18.09 81.69 18.31 82.15 18.46 82.62 18.46 82.63 18.46 82.63 18.46 82.64 19.44 85.21 20.69 87.64 22.14 89.99 22.88 91.19 23.68 92.33 24.5 93.47 24.67 93.71 25.02 94.14 24.93 94.46 24.81 94.86 24.43 94.85 24.11 94.99 24.23 95.06 24.34 95.15 24.46 95.2 24.67 95.29 24.88 95.32 25.1 95.34 25.15 95.35 25.16 95.43 25.1 95.44 25.06 95.44 25.01 95.44 24.97 95.45 24.3 95.82 23.49 95.5 22.88 95.07 22.88 95.08 22.88 95.09 22.89 95.09 22.92 95.23 22.98 95.36 23.03 95.49 23.07 95.58 23.11 95.67 23.16 95.76 23.17 95.79 23.19 95.82 23.2 95.85 23.24 95.88 23.28 95.92 23.32 95.96 23.36 95.99 23.31 96.05 23.27 96.03 22.8 95.85 22.21 95.56 21.94 95.1 21.59 95.81 20.45 96.3 19.74 96.14L19.74 96.14C19.56 96.21 19.36 96.24 19.14 96.18 19.09 96.17 19.11 96.1 19.15 96.09 19.44 96.03 19.7 95.96 19.91 95.73 20.02 95.61 20.1 95.45 20.18 95.31 19.8 95 19.3 94.62 19.3 94.12 19.3 93.57 19.66 93.22 20.01 92.86 20.22 91.93 19.76 90.96 19.41 90.12 18.99 89.12 18.68 88.08 18.29 87.07 17.88 85.98 17.42 84.91 16.87 83.88 16.59 83.35 16.28 82.84 15.97 82.32 15.67 81.82 15.32 81.31 15.09 80.77 14.61 80.21 14.2 79.56 14.18 78.87 14.13 78.85 14.08 78.8 14.09 78.72 14.2 77.5 14.64 76.3 14.9 75.1 15.22 73.63 15.6 72.18 15.85 70.7 16.47 67.13 15.89 63.99 14.08 60.86 13.72 60.24 13.37 59.62 13.01 59 11.71 56.81 10.19 54.78 8.68 52.73 8.2 52.09 7.73 51.43 7.28 50.77 7.26 50.89 7.23 51.01 7.19 51.13 7.13 51.33 7.06 51.52 7.04 51.73 7 52.05 7.25 52.28 7.46 52.48 8.11 53.11 8.88 53.6 9.41 54.34 9.89 55.02 10.03 55.9 9.77 56.69 9.49 57.55 8.76 58.21 8.29 58.95 8.05 59.33 7.86 59.81 7.95 60.27 8.01 60.6 8.32 60.84 8.59 61.01 9.13 61.37 9.77 61.56 10.3 61.95 10.73 62.26 10.89 62.71 10.67 63.2 10.26 64.09 9.26 64.37 8.64 65.06 8.31 65.43 8.14 66.03 8.3 66.51 8.44 66.94 8.88 67.23 9.26 67.43 9.28 67.44 9.29 67.46 9.3 67.47 9.5 67.53 9.7 67.57 9.91 67.57 9.95 67.57 9.96 67.63 9.92 67.65 9.04 67.95 8.15 67.27 7.64 66.62 7.39 66.3 7.16 65.88 7.17 65.47 7.17 65.38 7.18 65.3 7.19 65.23 7.14 65.34 7.09 65.45 7.05 65.57 6.67 66.69 8.24 67.17 8.68 67.96 9.25 68.97 8.38 69.74 7.62 70.28 7.08 70.66 6.64 71.07 6.59 71.78 6.54 72.5 7.13 73.11 7.72 73.44 8.02 73.53 8.33 73.59 8.63 73.64 8.67 73.65 8.67 73.71 8.62 73.71 7.4 73.7 6.12 73.4 5.21 72.52 4.78 72.11 4.6 71.51 4.8 70.94 4.96 70.48 5.94 70.07 5.71 69.53 5.58 69.22 4.88 69.22 4.61 69.18 4.29 69.14 3.87 69.11 3.62 68.88 3.03 68.34 3.36 67.58 3.83 66.98 3.38 67.11 2.85 67.06 2.45 66.83 2.42 66.81 2.41 66.79 2.41 66.76 2.25 66.67 2.11 66.54 1.96 66.41 1.96 66.3 2 66.27 2.02 66.29 2.5 66.61 3.02 66.66 3.43 66.2 3.86 65.72 3.3 65.3 2.89 65.12 2.41 64.9 1.91 64.76 1.62 64.28 1.3 63.75 1.6 62.89 1.87 62.4 2.21 61.76 2.66 61.21 3.16 60.7 2.13 61.05 0.8 60.85 0.02 60.08Z" fill="#F2BB79"/><path d="M58.64 19.09C57.61 19.21 56.57 19.5 55.57 19.76 50.58 21.07 46.14 23.9 41.11 25.09 38.49 25.71 35.8 25.89 33.13 25.54 31.29 25.3 29.49 24.88 27.68 24.51 34.3 25.16 41.33 25.12 47.2 21.74 47.28 21.69 47.24 21.57 47.16 21.57 46.53 21.58 45.9 21.66 45.28 21.64 46.5 21.44 47.73 21.25 48.8 20.59 48.86 20.55 48.85 20.45 48.78 20.43 48.4 20.31 48 20.27 47.61 20.22 48.38 19.98 48.94 19.44 48.89 18.52 48.84 17.49 48.33 16.5 47.82 15.63 47.13 14.45 46.3 13.35 45.42 12.3 44.58 11.29 43.68 10.32 42.74 9.41 42.53 9.2 42.31 8.98 42.08 8.77 42.53 9.09 42.96 9.43 43.39 9.78 45.35 11.39 47.01 13.32 48.62 15.27 49.73 16.61 50.46 18.51 52.12 19.27 53.2 19.77 54.54 19.44 55.67 19.26 57.02 19.05 58.36 18.84 59.72 18.73 60.21 18.69 60.65 18.72 61.04 18.86 60.26 19.06 59.41 19 58.64 19.09Z" fill="#DBBB79" opacity="0.6"/><path d="M17.73 19.19C17.66 19.65 17.62 20.13 17.84 20.54 17.64 20.47 17.45 20.4 17.25 20.36 17.19 20.35 17.12 20.4 17.14 20.47 17.3 20.92 17.64 21.27 18.04 21.53 17.75 21.46 17.45 21.4 17.16 21.33 17.08 21.31 17 21.42 17.07 21.47 18 22.24 19.2 22.55 20.34 22.86 21.38 23.14 22.41 23.43 23.43 23.76 22.91 23.69 22.38 23.62 21.86 23.53 21.07 23.38 20.27 23.23 19.46 23.16 17.83 23.02 16.2 23.25 14.69 23.89 13.21 24.51 11.92 25.43 10.67 26.42 10.02 26.93 9.36 27.43 8.73 27.97 8.6 28.09 8.47 28.2 8.34 28.31 8.93 27.6 9.53 26.91 10.15 26.23 11.86 24.34 13.67 22.54 15.47 20.73 16.31 19.89 17.12 19.03 17.93 18.16 17.85 18.5 17.78 18.84 17.73 19.19Z" fill="#DBBB79" opacity="0.6"/><path d="M107.95 7.56C108.6 7.08 109.57 6.37 110.43 6.72 111.07 6.98 111.59 7.72 111.96 8.27 112.28 8.74 112.83 9.51 112.72 10.13 112.49 10.03 112.3 9.87 112.07 9.76 111.83 9.65 111.59 9.54 111.35 9.44 110.85 9.23 110.33 9.06 109.79 8.96 108.75 8.78 107.7 8.8 106.65 8.75 106.89 8.51 107.17 8.3 107.42 8.05 107.44 8.03 107.45 8 107.45 7.98 107.61 7.83 107.78 7.68 107.95 7.56Z" fill="#DBBB79"/><path d="M92.73 7.95C93.07 7.63 93.87 7.14 93.87 7.14 93.87 7.14 93.9 5.83 94.17 5.19 94.04 5.5 93.68 5.51 93.56 5.3 93.43 5.06 93.71 4.29 93.79 4.06 94.03 3.35 94.64 2.47 95.48 2.98 96.38 3.54 97 4.73 97.19 5.76 97.19 5.76 97.19 5.76 97.19 5.76 97.19 5.85 96.8 5.39 96.76 5.33 96.68 5.22 96.61 5.11 96.52 5.01 96.25 4.68 95.94 4.37 95.51 4.32 95.51 4.32 95.51 4.32 95.51 4.32 95.4 4.3 95.32 4.3 95.28 4.4 96.27 4.8 96.25 5.89 96.16 6.83 96.1 7.46 96.12 7.46 96.56 7.99 97.05 8.57 97.42 9.16 97.59 9.94 97.07 9.13 96.28 8.43 95.48 8.12 94.36 7.68 92.94 8.17 92.01 8.92 92.13 8.66 92.54 8.13 92.73 7.95Z" fill="#DBBB79"/><path d="M0.02 60.08C-0.06 60 0.06 59.89 0.15 59.94 0.46 60.15 0.81 60.3 1.17 60.4 2.07 60.03 2.76 59.48 3.06 58.52 3.41 57.43 2.47 56.51 2.12 55.55 1.49 53.83 2.45 52.47 3.36 51.08 3.63 50.67 3.92 50.24 4.06 49.76 4.21 49.25 4.09 48.68 3.94 48.19 3.65 47.26 3.12 46.43 2.78 45.52 2.39 44.49 2.09 43.37 1.88 42.29 1.72 41.42 1.73 40.59 1.92 39.77 1.89 41.57 2.09 43.13 3.5 45.77 3.54 45.84 4.62 47.92 3.9 45.9 3.29 44.19 2.9 42.72 2.97 40.88 3.08 38.16 5.62 34.48 7.08 32.3 8.32 30.46 8.7 31.66 8.11 33.94 7.79 35.19 7.49 36.45 7.31 37.73 7.17 38.67 7.14 39.64 7.33 40.58 7.69 42.27 8.72 43.63 10.01 44.74 11.3 45.85 12.72 46.86 14.13 47.81 16.28 49.25 18.65 50.42 21.03 51.42 22.45 52.01 23.91 52.55 25.41 52.94 26.68 53.26 28 53.52 29.32 53.45 30.29 53.4 31.33 53.16 32.05 52.46 32.9 51.62 33.09 50.41 33.05 49.26 32.86 44.75 29.75 41.21 27.12 37.8 28.56 38.39 29.91 39.19 31.23 40.02 34.71 42.22 38.77 45.1 43.12 43.97 47.15 42.92 49.96 39.42 52.77 36.6 52.84 36.53 52.77 36.43 52.68 36.45 52.27 36.53 51.86 36.49 51.44 36.46 54.5 34.33 58.48 33.33 62.19 33.64 60.43 34.12 58.77 34.87 57.12 35.64 57.02 35.69 57.1 35.82 57.19 35.8 57.81 35.7 58.43 35.61 59.06 35.65 57.76 36.21 56.38 36.65 55.34 37.65 55.28 37.7 55.33 37.8 55.4 37.8 56.15 37.79 56.9 37.71 57.65 37.69 57.58 37.76 57.51 37.83 57.44 37.9 54.42 41.05 51.58 45.27 52.66 49.83 53.02 51.35 53.53 52.83 54.16 54.26 54.84 55.77 55.66 57.28 56.8 58.5 57.72 59.48 58.93 60.35 60.33 60.38 61.93 60.41 63.37 59.41 64.61 58.5 66.28 57.29 67.82 55.87 69.17 54.31 70.42 52.86 71.6 51.26 72.28 49.45 73.05 47.41 72.77 45.24 72.26 43.17 71.7 40.87 69.09 37.63 69.53 36.3 70.89 32.23 69.51 29.51 68.12 26.45 68.2 26.55 68.28 26.65 68.36 26.74 68.46 26.9 68.56 27.07 68.66 27.23 68.82 27.54 68.98 27.85 69.15 28.16 69.79 29.36 70.41 30.7 71.3 31.74 72.65 33.31 74.97 32.95 76.89 33.08 76.08 33.25 75.28 33.47 74.51 33.8 74.42 33.84 74.48 33.95 74.55 33.96 75.52 34.07 76.49 34.23 77.46 34.25 78.29 34.27 79.1 34.08 79.92 34.08 79.5 34.37 79.05 34.62 78.62 34.9 78.48 34.98 78.35 35.06 78.24 35.17 78.17 35.24 78.27 35.37 78.35 35.31 78.45 35.23 78.56 35.16 78.66 35.09 79.04 34.87 79.51 34.76 79.92 34.64 80.48 34.47 81.02 34.24 81.56 33.99 82.86 33.4 84.06 32.69 85.24 31.89 86.06 31.34 87.04 30.73 87.45 29.8 87.93 28.72 87.65 27.5 87.49 26.36 87.81 26.74 88.15 27.13 88.35 27.59 88.39 27.7 88.42 27.8 88.46 27.91 88.5 28.02 88.66 27.97 88.63 27.86 88.6 27.74 88.56 27.63 88.52 27.53 88.13 26.35 87.73 25.18 87.23 24.04 87.63 24.35 87.98 24.71 88.29 25.11 88.36 25.2 88.5 25.13 88.44 25.02 87.33 22.85 86.14 20.7 84.71 18.72 84.07 17.83 83.23 17 82.75 16 82.27 15.01 82.44 14.04 82.86 13.06 82.89 12.98 82.82 12.89 82.74 12.94 82.1 13.34 81.42 13.67 80.81 14.11 81.27 12.97 81.98 11.94 82.69 10.94 82.74 10.86 82.64 10.78 82.57 10.82 82.06 11.07 81.53 11.28 80.99 11.46 81.72 10.72 82.48 9.97 83.51 9.69 83.6 9.66 83.59 9.52 83.49 9.52 82.59 9.53 81.74 9.77 80.88 9.99 81.1 9.69 81.32 9.4 81.52 9.1 81.56 9.04 81.73 8.71 81.86 8.48 81.88 8.46 81.91 8.44 81.93 8.41 81.96 8.49 82.1 8.48 82.1 8.37L82.1 8.27C82.17 8.21 82.25 8.16 82.33 8.13 81.95 7.53 81.95 6.67 81.94 6.02 81.95 5.16 82 4.2 82.43 3.43 82.24 3.48 82.03 3.48 81.84 3.51 81.55 3.55 81.25 3.59 80.96 3.64 80.87 3.65 80.85 3.54 80.92 3.5 80.99 3.46 81.08 3.41 81.16 3.37L81.16 3.36C81.52 2.85 82.07 2.27 82.7 2 82.62 1.96 82.53 1.92 82.46 1.89 82.23 1.81 81.98 1.72 81.74 1.73 81.65 1.73 81.66 1.61 81.73 1.59 81.82 1.56 81.91 1.55 82.01 1.55 82.17 1.45 82.34 1.37 82.51 1.29 82.55 1.27 82.6 1.25 82.64 1.23 84.01 0.06 86.74-0.22 88.12 1.03 88.44 1.33 88.59 1.76 88.66 2.22 89.2 1.44 90.02 0.78 90.75 0.3 91.21-0.01 91.69-0.05 92.15 0.06 91.67 0.17 91.32 0.51 90.99 0.87 90.56 1.34 90.07 1.77 89.84 2.38 89.59 3.04 89.45 3.8 89.43 4.51 89.41 5.09 89.48 5.59 89.83 6.07 90.1 6.45 90.46 6.75 90.77 7.09 89.8 6.69 88.83 6.19 88.65 5.04 88.47 3.83 88.83 2.57 88.04 1.5 87.53 0.81 86.79 0.67 85.98 0.69 85.06 0.69 84 0.76 83.21 1.27 83.13 1.32 83.17 1.43 83.25 1.43 84.35 1.46 85.96 1.07 86.85 1.9 87.83 2.82 87.51 4.3 87.57 5.49 87.62 6.48 88.13 7.02 88.98 7.46 90 7.99 90.97 8.92 91.57 9.92 90.88 9.68 90.26 9.25 89.53 9.12 88.85 9 88.23 9.36 87.65 9.65 87.23 9.86 86.81 10 86.34 10.01 85.94 10.02 85.55 10 85.16 10.04 84.46 10.11 84.29 10.51 83.86 10.98 83.86 10.98 83.86 10.98 83.86 10.99 83.84 11 83.84 11 83.84 11.01 83.84 11.01 83.84 11.01 83.84 11.01 83.84 11.02 83.84 11.03 83.84 11.04 83.84 11.04 83.84 11.05 83.84 11.05 83.84 11.06 83.85 11.07 83.85 11.07 83.85 11.07 83.85 11.08 83.85 11.08 83.86 11.1 83.87 11.11 83.89 11.12 83.89 11.12 83.89 11.12 83.9 11.12 83.91 11.12 83.91 11.13 83.91 11.13 83.92 11.13 83.93 11.13 83.94 11.13 83.95 11.13 83.96 11.13 83.98 11.12 85.62 10.13 88.01 10.85 89.11 12.37 88.1 11.86 87.12 11.23 85.94 11.4 85.85 11.41 85.86 11.56 85.94 11.57 86.7 11.71 87.47 11.95 88.14 12.35 87.07 12.24 85.73 11.81 85.04 12.85 85 12.92 85.07 12.99 85.14 12.98 85.65 12.87 86.14 12.76 86.65 12.82 85.84 13.08 85.19 13.47 84.94 14.37 84.92 14.44 85 14.52 85.07 14.47 85.56 14.1 86.07 13.52 86.71 13.44 86.21 14.33 86.39 15.85 87.32 16.37 87.37 16.4 87.44 16.37 87.45 16.32 87.49 16.06 87.76 14.37 88.19 15.02 88.48 15.46 88.71 15.92 89.17 16.2 89.22 16.23 89.31 16.19 89.3 16.12 89.26 15.71 89.19 15.26 89.4 14.9 89.82 15.32 90.23 15.84 90.76 16.11 91.29 16.38 91.92 16.38 92.49 16.21 93.44 15.93 94.39 15.6 95.36 15.41 95.97 15.29 96.62 15.23 97.2 14.99 97.6 14.83 98.05 14.55 98.09 14.07 98.12 13.69 97.94 13.3 97.99 12.93 98.07 12.26 98.67 11.81 99.22 11.81 99.91 11.81 100.51 11.86 101.2 11.9 101.79 11.93 102.65 12.25 103.19 12.54 102.64 12.58 102.09 12.55 101.53 12.59 101.07 12.62 100.55 12.65 100.17 12.94 99.57 13.39 99.81 14.19 100.3 14.6 100.34 14.63 100.39 14.64 100.42 14.6 100.59 14.41 100.68 14.22 100.72 13.97 100.75 13.75 100.69 13.39 100.97 13.33 101.48 13.21 102.09 13.34 102.59 13.44 103.01 13.52 103.42 13.61 103.83 13.7 103.59 13.86 103.36 14.02 103.15 14.21 103.1 14.25 103.12 14.35 103.19 14.36 104.68 14.6 106.19 13.93 107.65 14.35 108.3 14.53 108.9 14.85 109.49 15.18 110.03 15.48 110.59 15.85 111.21 15.98 112.43 16.23 113.74 15.98 114.93 15.68 115.86 15.44 117.05 15.25 117.74 14.51 117.78 14.46 117.77 14.38 117.7 14.36 117.01 14.21 116.3 14.5 115.65 14.7 115 14.9 114.34 15.08 113.67 15.2 114.54 14.95 115.52 14.33 116.21 13.74 116.92 13.13 116.73 12.93 116.39 12.27 116.87 12.79 117.29 13.35 117.63 13.9 118.05 13.87 118.38 13.99 118.5 14.39 118.86 15.61 116.04 16.48 115.11 16.76 115.71 17.55 116.29 18.34 115.49 19.19 115.15 19.56 114.65 19.75 114.19 19.92 114.15 19.94 114.1 19.95 114.06 19.97 114.55 20.87 114.28 22.05 113.85 22.92 113.84 22.93 113.83 22.94 113.82 22.95 113.8 23.02 113.77 23.09 113.73 23.16 113.71 23.21 113.63 23.2 113.63 23.14 113.68 22.65 113.61 22.25 113.34 21.84 113.26 21.72 113.16 21.61 113.06 21.5 113 22.3 112.3 23.21 111.75 23.6 111.69 23.71 111.61 23.81 111.52 23.9 111.47 23.95 111.38 23.88 111.41 23.82 111.55 23.53 111.67 23.25 111.72 22.93 111.74 22.79 111.75 22.66 111.76 22.52 111.46 23.17 110.82 23.61 110.04 23.68 109.85 23.84 109.63 23.91 109.36 23.86 109.29 23.85 109.25 23.74 109.33 23.71 110.52 23.29 110.21 21.84 110.27 20.78 108.62 21.03 107.49 20.41 106.16 19.45 105.31 18.83 104.4 18.34 103.36 18.16 102.19 17.97 101.11 18.4 99.99 18.66 98.8 18.94 97.66 19.14 96.52 19.6 95.63 19.96 94.76 20.48 93.79 20.61 93.74 20.62 93.69 20.62 93.64 20.62 93.65 20.64 93.66 20.67 93.67 20.7 93.78 21.28 93.87 21.84 94.1 22.38 94.39 23.06 95.07 23.46 95.66 23.87 96.45 24.41 97.2 25.02 97.68 25.84 97.82 25.94 97.95 26.07 98.05 26.21 98.07 26.24 98.04 26.28 98.01 26.26 97.58 25.98 97.07 25.86 96.59 25.67 97.43 26.29 98.09 27.23 98.32 28.19 98.42 28.32 98.51 28.47 98.58 28.63 98.59 28.65 98.57 28.67 98.54 28.66 98.06 28.24 97.64 27.86 97.06 27.59 96.79 27.47 96.51 27.37 96.23 27.29 97.38 28.07 98.31 29.15 99 30.37 99.83 31.85 99.98 33.46 99.77 35.11 99.77 35.28 99.76 35.46 99.73 35.64 99.72 35.67 99.68 35.67 99.68 35.64 99.64 35.07 99.51 34.55 99.23 34.05 99.09 33.8 98.91 33.58 98.72 33.37 98.93 33.74 99.06 34.16 99.12 34.57 99.18 34.74 99.22 34.93 99.21 35.11 99.21 35.14 99.16 35.14 99.15 35.11 99.04 34.53 98.64 34.18 98.25 33.81 98.81 34.65 99.11 35.65 99.2 36.67 99.33 38.1 98.82 39.36 98.02 40.51 97.97 40.68 97.89 40.83 97.77 40.98 97.75 41.01 97.69 40.99 97.7 40.95 98.08 40.16 97.8 39.46 97.53 38.74 97.6 39.47 97.46 40.24 96.97 40.7 96.96 40.71 96.95 40.71 96.94 40.71 96.93 40.74 96.93 40.77 96.92 40.8 96.91 40.84 96.85 40.82 96.86 40.79 96.9 40.28 96.88 39.79 96.72 39.3 96.61 38.97 96.45 38.66 96.31 38.35 96.36 39.24 95.96 40.03 95.45 40.8 94.77 41.81 93.97 42.74 93.11 43.6 91.28 45.44 89.11 46.96 86.93 48.35 83.18 50.76 79.08 52.58 74.88 54.06 73.58 54.48 72.91 54.73 72.3 54.93 71.1 56.24 69.7 57.4 68.47 58.68 67.51 59.68 66.55 60.67 65.65 61.72 64.76 62.77 64.02 63.9 63.4 65.13 62.5 66.9 61.82 68.76 61.15 70.62 61.13 70.69 61.12 70.75 61.1 70.81 60.89 71.44 60.72 72.08 60.5 72.71 60.12 73.79 59.8 74.91 59.39 75.98 59.36 76.09 59.34 76.2 59.34 76.32 59.34 76.36 59.31 76.41 59.27 76.43 59.17 76.47 59.09 76.54 58.99 76.59 58.98 76.6 58.97 76.6 58.96 76.61 58.96 76.63 58.95 76.64 58.94 76.65 58.81 76.77 58.66 76.86 58.51 76.96 58.5 76.97 58.49 76.97 58.47 76.98 58.13 77.63 58.16 78.36 58.18 79.07 58.21 79.94 58.17 80.8 58.16 81.67 58.15 83.57 58.04 85.45 58.29 87.34 58.41 88.22 58.6 89.09 58.85 89.94 59.11 90.81 59.42 91.77 59.91 92.54 60.23 93.04 60.71 93.47 60.71 94.11 60.71 94.55 60.29 94.84 59.89 94.98 60 95.17 60.11 95.33 60.31 95.47 60.55 95.63 60.86 95.68 61.15 95.71 61.18 95.7 61.22 95.69 61.25 95.68 61.29 95.67 61.3 95.72 61.29 95.74 61.29 95.76 61.29 95.78 61.26 95.78 61.25 95.78 61.24 95.78 61.23 95.78 60.72 96.08 60.24 96.4 59.62 96.23 59.27 96.14 59 95.87 58.78 95.57 58.78 95.84 58.76 96.11 58.78 96.37 58.79 96.38 58.79 96.39 58.8 96.4 58.82 96.42 58.8 96.46 58.77 96.45 58.33 96.28 58.05 95.86 57.97 95.4 57.41 96.27 56.07 96.66 55.19 96.03 55.18 96.02 55.17 96.01 55.17 96 55.17 96 55.16 96 55.16 96 55.13 95.97 55.13 95.92 55.18 95.91 55.42 95.88 55.63 95.78 55.83 95.65 55.95 95.58 56.06 95.48 56.17 95.4 55.93 95.15 55.71 94.94 55.8 94.51 55.88 94.18 56.2 93.86 56.34 93.55 56.51 93.18 56.57 92.77 56.6 92.37 56.67 91.44 56.55 90.5 56.46 89.58 56.37 88.69 56.27 87.8 56.19 86.92 56.01 85.15 56.09 83.4 56.11 81.62 56.13 79.82 55.94 78.04 55.86 76.25 55.82 76.15 55.77 76.06 55.73 75.97 55.56 75.63 55.38 75.3 55.32 74.92 55.26 74.52 55.45 74.18 55.62 73.84 55.77 73.54 55.81 73.22 55.85 72.9 55.79 71.62 55.76 70.35 55.76 69.07 55.76 67.66 55.7 66.26 55.37 64.88 55.11 63.78 54.71 62.74 54.26 61.71 52.46 62.81 50.43 63.7 48.39 64.21 46.31 64.73 44.07 64.77 42.03 64.05 40.24 63.42 38.72 62.23 37.24 61.09 35.56 59.79 33.85 58.54 31.86 57.76 31.03 58.77 30.07 59.68 29.1 60.53 26.64 62.67 23.9 64.54 21.92 67.15 19.54 70.3 18.94 74.2 18.06 77.94 18.22 78.2 18.36 78.48 18.45 78.79 18.56 79.17 18.34 79.54 18.15 79.85 17.86 80.31 17.83 80.66 17.95 81.2 18.06 81.69 18.28 82.15 18.43 82.62 18.43 82.63 18.43 82.63 18.43 82.64 19.41 85.21 20.66 87.64 22.11 89.99 22.85 91.19 23.65 92.33 24.47 93.47 24.64 93.71 24.99 94.14 24.9 94.46 24.78 94.86 24.4 94.85 24.08 94.99 24.2 95.06 24.31 95.15 24.43 95.2 24.64 95.29 24.85 95.32 25.07 95.34 25.12 95.35 25.13 95.43 25.07 95.44 25.03 95.44 24.98 95.44 24.94 95.45 24.27 95.82 23.46 95.5 22.85 95.07 22.85 95.08 22.85 95.09 22.86 95.09 22.89 95.23 22.95 95.36 23 95.49 23.04 95.58 23.08 95.67 23.13 95.76 23.14 95.79 23.16 95.82 23.17 95.85 23.21 95.88 23.25 95.92 23.29 95.96 23.33 95.99 23.28 96.05 23.24 96.03 22.77 95.85 22.18 95.56 21.91 95.1 21.56 95.81 20.42 96.3 19.71 96.14 19.53 96.21 19.33 96.24 19.11 96.18 19.06 96.17 19.08 96.1 19.12 96.09 19.41 96.03 19.67 95.96 19.88 95.73 19.99 95.61 20.07 95.45 20.15 95.31 19.77 95 19.27 94.62 19.27 94.12 19.27 93.57 19.63 93.22 19.98 92.86 20.19 91.93 19.73 90.96 19.38 90.12 18.96 89.12 18.65 88.08 18.26 87.07 17.85 85.98 17.39 84.91 16.84 83.88 16.56 83.35 16.25 82.84 15.94 82.32 15.64 81.82 15.29 81.31 15.06 80.77 14.58 80.21 14.17 79.56 14.15 78.87 14.1 78.85 14.05 78.8 14.06 78.72 14.17 77.5 14.61 76.3 14.87 75.1 15.19 73.63 15.57 72.18 15.82 70.7 16.44 67.13 15.86 63.99 14.05 60.86 13.69 60.24 13.34 59.62 12.98 59 11.68 56.81 10.16 54.78 8.65 52.73 8.17 52.09 7.7 51.43 7.25 50.77 7.23 50.89 7.2 51.01 7.16 51.13 7.1 51.33 7.03 51.52 7.01 51.73 6.97 52.05 7.22 52.28 7.43 52.48 8.08 53.11 8.85 53.6 9.38 54.34 9.86 55.02 10 55.9 9.74 56.69 9.46 57.55 8.73 58.21 8.26 58.95 8.02 59.33 7.83 59.81 7.92 60.27 7.98 60.6 8.29 60.84 8.56 61.01 9.1 61.37 9.74 61.56 10.27 61.95 10.7 62.26 10.86 62.71 10.64 63.2 10.23 64.09 9.23 64.37 8.61 65.06 8.28 65.43 8.11 66.03 8.27 66.51 8.41 66.94 8.85 67.23 9.23 67.43 9.25 67.44 9.26 67.46 9.27 67.47 9.47 67.53 9.67 67.57 9.88 67.57 9.92 67.57 9.93 67.63 9.89 67.65 9.01 67.95 8.12 67.27 7.61 66.62 7.36 66.3 7.13 65.88 7.14 65.47 7.14 65.38 7.15 65.3 7.16 65.23 7.11 65.34 7.06 65.45 7.02 65.57 6.64 66.69 8.21 67.17 8.65 67.96 9.22 68.97 8.35 69.74 7.59 70.28 7.05 70.66 6.61 71.07 6.56 71.78 6.51 72.5 7.1 73.11 7.69 73.44 7.99 73.53 8.3 73.59 8.6 73.64 8.64 73.65 8.64 73.71 8.59 73.71 7.37 73.7 6.09 73.4 5.18 72.52 4.75 72.11 4.57 71.51 4.77 70.94 4.93 70.48 5.91 70.07 5.68 69.53 5.55 69.22 4.85 69.22 4.58 69.18 4.26 69.14 3.84 69.11 3.59 68.88 3 68.34 3.33 67.58 3.8 66.98 3.35 67.11 2.82 67.06 2.42 66.83 2.39 66.81 2.38 66.79 2.38 66.76 2.22 66.67 2.08 66.54 1.93 66.41 1.96 66.3 2 66.27 2.02 66.29 2.5 66.61 3.02 66.66 3.43 66.2 3.86 65.72 3.3 65.3 2.89 65.12 2.41 64.9 1.91 64.76 1.62 64.28 1.3 63.75 1.6 62.89 1.87 62.4 2.21 61.76 2.66 61.21 3.16 60.7 2.13 61.05 0.8 60.85 0.02 60.08Z" fill="#DBBB79" opacity="0.8"/><path d="M83.8 3.35C83.84 3.3 83.83 3.22 83.76 3.2 83.61 3.17 83.48 3.17 83.35 3.19 83.74 2.86 84.24 2.63 84.71 2.48 85.22 2.32 85.86 2.17 86.39 2.36 87.33 3.27 87.36 4.84 87.33 6.12 87.1 5.64 86.79 5.21 86.41 4.83 86.35 4.77 86.4 4.99 86.42 5.22 86.46 5.97 86.62 6.36 86.68 6.5 86.79 6.77 86.81 6.86 86.97 6.99 86.56 6.85 86.17 6.92 85.72 7.03 85 7.21 84.48 7.02 83.89 6.57 83.33 6.14 83.03 5.57 83.08 4.85 83.12 4.22 83.42 3.82 83.8 3.35Z" fill="#DBBB79"/><path d="M0.02 60.08C-0.06 60 0.06 59.89 0.15 59.94 0.46 60.15 0.81 60.3 1.17 60.4 2.07 60.03 2.76 59.48 3.06 58.52 3.41 57.43 2.47 56.51 2.12 55.55 1.49 53.83 2.45 52.47 3.36 51.08 3.63 50.67 3.92 50.24 4.06 49.76 4.21 49.25 4.09 48.68 3.94 48.19 3.92 48.12 3.89 48.06 3.87 47.99 3.95 48.13 4.03 48.28 4.11 48.42 4.64 49.36 5.06 50.47 4.21 51.35 3.68 51.9 3.03 52.42 2.75 53.16 2.26 54.47 3.38 55.1 3.87 56.13 4.53 57.51 3.81 59.03 2.62 59.92 2.27 60.1 1.41 60.36 1.06 60.54 2.8 61.13 4.43 59.84 5.26 58.97 4.3 60.5 2.11 61.27 2.26 63.1 2.35 63.76 2.9 64.17 3.58 64.48 4.08 64.83 4.6 65.14 4.83 65.38 5.04 65.59 5.23 65.9 5.11 66.21 4.99 66.51 4.73 66.7 4.51 66.92 4.11 67.31 4.06 67.7 4.5 68.09 5.05 68.59 8.07 68.58 7.24 69.59 6.62 70.35 7.31 69.73 7.37 69.69 9.97 67.67 5.15 67.2 5.88 64.99 6.23 63.93 7 63.29 7.93 63.08 8.27 63 9.65 62.93 9.62 62.35 9.58 61.7 8.65 61.25 8.16 60.96 7.75 60.72 7.33 60.48 6.94 60.2 6.64 59.98 6.17 59.66 6.08 59.26 5.75 57.85 8 57.06 8.48 56.08 9.42 54.18 7.04 53.71 5.85 53.15 5.33 52.91 4.89 52.47 5.41 51.94 5.66 51.69 5.93 51.46 6.05 51.12 6.31 50.44 6.11 49.69 5.83 49.05 5.45 48.17 4.92 47.38 4.45 46.54 3.9 45.57 3.58 44.55 3.45 43.44 3.13 40.72 3.86 38.07 5.07 35.65 5.8 34.2 6.7 32.65 7.92 31.49 6.23 34.13 4.74 37.05 4.31 40.17 4.09 41.8 4.13 43.52 4.72 45.07 4.92 45.61 5.18 46.11 5.46 46.59 5.46 46.6 5.46 46.6 5.47 46.61 5.97 47.56 6.54 48.48 7.16 49.35 9.98 53.31 13.93 56.72 15.67 61.36 17.32 65.79 16.73 70.65 15.71 75.14 15.53 75.94 15.31 76.83 15.41 77.66 15.47 78.15 15.73 78.81 16.34 78.79 16.9 78.77 17.16 77.87 17.29 77.45 17.62 76.34 17.96 75.24 18.27 74.12 18.96 71.66 19.65 69.26 21.16 67.16 22.5 65.28 24.22 63.71 26.03 62.28 29.66 59.41 33.65 55.91 33.76 50.9 33.79 49.74 33.62 48.59 33.32 47.46 33.01 46.28 32.64 45.08 32.06 44 31.48 42.9 30.72 41.97 30.02 40.96 29.67 40.46 29.35 39.93 29.02 39.41 29.31 39.72 29.59 40.04 29.86 40.37 31.49 42.34 32.82 44.53 33.94 46.82 35.06 49.14 35.47 51.57 35.34 54.14 35.3 55.01 35.08 56.02 35.5 56.85 35.86 57.54 36.55 57.96 37.21 58.32 38.42 58.97 39.63 59.63 40.87 60.21 41.91 60.68 43.01 61.12 44.16 61.18 45.31 61.25 46.44 60.97 47.41 60.33 48.18 59.82 48.98 59.19 49.38 58.34 50.13 56.76 49.42 54.94 49 53.38 48.64 52.04 48.29 50.65 48.37 49.25 48.45 47.89 48.99 46.67 49.62 45.48 50.41 44.01 51.38 42.66 52.54 41.47 52.09 42.07 51.71 42.71 51.38 43.38 50.44 45.34 49.87 47.64 50.11 49.82 50.38 52.29 51.6 54.39 52.67 56.58 53.28 57.84 53.87 59.11 54.34 60.43 54.45 60.74 54.56 61.05 54.67 61.36 55.09 62.56 55.59 63.74 55.92 64.97 56.38 66.7 56.48 68.51 56.45 70.29 56.44 70.73 56.43 71.17 56.41 71.6 56.39 72.04 56.41 72.52 56.26 72.94 56.08 73.46 55.62 74.12 55.8 74.7 55.94 75.14 56.29 75.51 56.5 75.92 56.55 76.25 56.64 76.64 56.86 76.83 56.89 76.86 56.92 76.88 56.95 76.92 56.99 76.96 57.02 77 57.07 77.03 57.18 77.13 57.3 77.18 57.45 77.05 57.66 76.86 57.84 76.7 58.01 76.46 58.16 76.24 58.3 76.07 58.55 75.98 58.6 75.96 58.72 75.93 58.76 75.9 58.93 75.78 59.04 75.58 59.13 75.38 59.14 75.37 59.14 75.36 59.15 75.35 61 70.19 62.41 64.63 66 60.29 67.32 58.69 68.9 57.36 70.4 55.94 71.71 54.7 73.02 53.35 73.74 51.67 74.55 49.79 74.46 47.84 73.95 45.89 73.47 44.06 72.73 42.31 72.06 40.54 72.5 41.17 72.96 41.78 73.44 42.38 74.11 43.22 74.86 44.08 75.3 45.07 75.58 45.7 75.71 46.46 76.15 47 76.56 47.51 77.18 47.71 77.82 47.77 79.8 47.94 81.86 47.21 83.66 46.47 85.52 45.71 87.32 44.79 89.01 43.68 90.87 42.47 92.69 41.05 94.02 39.25 94.65 38.39 95.23 37.44 95.32 36.36 95.36 35.79 95.31 35.23 95.25 34.67 95.82 35.3 96.3 36.02 96.58 36.81 96.61 36.9 96.77 36.89 96.75 36.79 96.75 36.78 96.75 36.78 96.75 36.76 96.63 35.77 96.38 34.87 95.88 34.03 96.62 34.55 97.51 35.25 97.59 36.13 97.6 36.24 97.77 36.24 97.77 36.13 97.69 34.46 97.46 32.85 96.39 31.57 96.75 31.77 97.09 32 97.4 32.27 97.47 32.33 97.6 32.25 97.54 32.16 97.04 31.41 96.38 30.84 95.71 30.25 96.81 30.41 98.04 30.99 98.73 31.89 98.82 32.04 98.91 32.19 99.01 32.34 99.08 32.43 99.22 32.35 99.16 32.25 99.08 32.1 98.99 31.95 98.88 31.81 98.55 31.23 98.3 30.6 97.92 30.04 97.47 29.38 96.88 28.8 96.24 28.31 95.74 27.92 95.2 27.58 94.69 27.2 94.32 26.92 93.88 26.58 93.62 26.16 94.38 26.65 95.28 26.88 96.2 26.93 96.29 26.93 96.31 26.81 96.25 26.77 94.99 25.9 93.19 25.43 92.43 24.01 92.97 24.47 93.56 24.89 94.27 25.02 94.36 25.04 94.42 24.94 94.36 24.87 93.98 24.43 93.47 24.13 93.1 23.68 92.7 23.2 92.44 22.64 92.07 22.15 91.46 21.35 90.61 20.79 90.06 19.96 90.01 19.89 89.89 19.91 89.9 20 89.93 20.88 90.33 21.65 90.7 22.43 90.08 22.06 89.53 21.58 89 21.08 88.45 20.56 88.11 19.92 87.68 19.3 87.63 19.23 87.52 19.25 87.52 19.34 87.53 20 87.64 20.66 87.74 21.31 86.21 19.94 85.02 18.34 84.51 16.31 84.49 16.23 84.39 16.23 84.35 16.29 84.25 16.45 84.19 16.62 84.15 16.79 83.5 15.59 83.39 13.45 84.73 12.78 84.44 13.13 84.16 13.47 84.02 13.93 84 14 84.08 14.07 84.15 14.03 84.48 13.82 84.87 13.45 85.29 13.4 84.63 13.83 84.3 14.53 84.25 15.33 84.24 15.43 84.39 15.45 84.42 15.35 84.62 14.68 85.41 14.43 86.04 14.14 85.32 15.25 85.43 16.74 86.17 17.84 86.22 17.92 86.33 17.88 86.34 17.8 86.4 17.29 86.79 16.99 87.13 16.66 87.49 17.51 88.36 18.03 89.2 18.35 89.28 18.38 89.33 18.28 89.3 18.22 89.07 17.78 88.77 17.31 88.73 16.8 89.27 17.23 89.85 17.6 90.47 17.9 90.53 17.93 90.63 17.88 90.6 17.8 90.54 17.61 90.44 17.43 90.36 17.25 91.64 18.36 93.03 19.35 94.82 19.03 96.15 18.79 97.47 18.49 98.76 18.12 99.95 17.79 101.15 17.41 102.39 17.29 103.67 17.17 104.86 17.36 105.96 18.05 106.88 18.63 107.76 19.37 108.81 19.71 110.52 20.26 112.3 19.87 113.96 19.33 114.3 19.22 115.36 18.9 115.84 18.45 115.85 18.48 115.87 18.52 115.88 18.55 115.83 18.75 115.72 18.95 115.53 19.16 115.19 19.53 114.69 19.72 114.23 19.89 114.19 19.91 114.14 19.92 114.1 19.94 114.59 20.84 114.32 22.02 113.89 22.89 113.88 22.9 113.87 22.91 113.86 22.92 113.84 22.99 113.81 23.06 113.77 23.13 113.75 23.18 113.67 23.17 113.67 23.11 113.72 22.62 113.65 22.22 113.38 21.81 113.3 21.69 113.2 21.58 113.1 21.47 113.04 22.27 112.34 23.18 111.79 23.57 111.73 23.68 111.65 23.78 111.56 23.87 111.51 23.92 111.42 23.85 111.45 23.79 111.59 23.5 111.71 23.22 111.76 22.9 111.78 22.76 111.79 22.63 111.8 22.49 111.5 23.14 110.86 23.58 110.08 23.65 109.89 23.81 109.67 23.88 109.4 23.83 109.33 23.82 109.29 23.71 109.37 23.68 110.56 23.26 110.25 21.81 110.31 20.75 108.66 21 107.53 20.38 106.2 19.42 105.35 18.8 104.44 18.31 103.4 18.13 102.23 17.94 101.15 18.37 100.03 18.63 98.84 18.91 97.7 19.11 96.56 19.57 95.67 19.93 94.8 20.45 93.83 20.58 93.78 20.59 93.73 20.59 93.68 20.59 93.69 20.61 93.7 20.64 93.71 20.67 93.82 21.25 93.91 21.81 94.14 22.35 94.43 23.03 95.11 23.43 95.7 23.84 96.49 24.38 97.24 24.99 97.72 25.81 97.86 25.91 97.99 26.04 98.09 26.18 98.11 26.21 98.08 26.25 98.05 26.23 97.62 25.95 97.11 25.83 96.63 25.64 97.47 26.26 98.13 27.2 98.36 28.16 98.46 28.29 98.55 28.44 98.62 28.6 98.63 28.62 98.61 28.64 98.58 28.63 98.1 28.21 97.68 27.83 97.1 27.56 96.83 27.44 96.55 27.34 96.27 27.26 97.42 28.04 98.35 29.12 99.04 30.34 99.87 31.82 100.02 33.43 99.81 35.08 99.81 35.25 99.8 35.43 99.77 35.61 99.76 35.64 99.72 35.64 99.72 35.61 99.68 35.04 99.55 34.52 99.27 34.02 99.13 33.77 98.95 33.55 98.76 33.34 98.97 33.71 99.1 34.13 99.16 34.54 99.22 34.71 99.26 34.9 99.25 35.08 99.25 35.11 99.2 35.11 99.19 35.08 99.08 34.5 98.68 34.15 98.29 33.78 98.85 34.62 99.15 35.62 99.24 36.64 99.37 38.07 98.86 39.33 98.06 40.48 98.01 40.65 97.93 40.8 97.81 40.95 97.79 40.98 97.73 40.96 97.74 40.92 98.12 40.13 97.84 39.43 97.57 38.71 97.64 39.44 97.5 40.21 97.01 40.67 97 40.68 96.99 40.68 96.98 40.68 96.97 40.71 96.97 40.74 96.96 40.77 96.95 40.81 96.89 40.79 96.9 40.76 96.94 40.25 96.92 39.76 96.76 39.27 96.65 38.94 96.49 38.63 96.35 38.32 96.4 39.21 96 40 95.49 40.77 94.81 41.78 94.01 42.71 93.15 43.57 91.32 45.41 89.15 46.93 86.97 48.32 83.22 50.73 79.12 52.55 74.92 54.03 73.62 54.45 72.95 54.7 72.34 54.9 71.14 56.21 69.74 57.37 68.51 58.65 67.55 59.65 66.59 60.64 65.69 61.69 64.8 62.74 64.06 63.87 63.44 65.1 62.54 66.87 61.86 68.73 61.19 70.59 61.17 70.66 61.16 70.72 61.14 70.78 60.93 71.41 60.76 72.05 60.54 72.68 60.16 73.76 59.84 74.88 59.43 75.95 59.4 76.06 59.38 76.17 59.38 76.29 59.38 76.33 59.35 76.38 59.31 76.4 59.21 76.44 59.13 76.51 59.03 76.56 59.02 76.57 59.01 76.57 59 76.58 59 76.6 58.99 76.61 58.98 76.62 58.85 76.74 58.7 76.83 58.55 76.93 58.54 76.94 58.53 76.94 58.51 76.95 58.17 77.6 58.2 78.33 58.22 79.04 58.25 79.91 58.21 80.77 58.2 81.64 58.19 83.54 58.08 85.42 58.33 87.31 58.45 88.19 58.64 89.06 58.89 89.91 59.15 90.78 59.46 91.74 59.95 92.51 60.27 93.01 60.75 93.44 60.75 94.08 60.75 94.52 60.33 94.81 59.93 94.95 60.04 95.14 60.15 95.3 60.35 95.44 60.59 95.6 60.9 95.65 61.19 95.68 61.22 95.67 61.26 95.66 61.29 95.65 61.33 95.64 61.34 95.69 61.33 95.71 61.33 95.73 61.33 95.75 61.3 95.75 61.29 95.75 61.28 95.75 61.27 95.75 60.76 96.05 60.28 96.37 59.66 96.2 59.31 96.11 59.04 95.84 58.82 95.54 58.82 95.81 58.8 96.08 58.82 96.34 58.83 96.35 58.83 96.36 58.84 96.37 58.86 96.39 58.84 96.43 58.81 96.42 58.37 96.25 58.09 95.83 58.01 95.37 57.45 96.24 56.11 96.63 55.23 96 55.22 95.99 55.21 95.98 55.21 95.97 55.21 95.97 55.2 95.97 55.2 95.97 55.17 95.94 55.17 95.89 55.22 95.88 55.46 95.85 55.67 95.75 55.87 95.62 55.99 95.55 56.1 95.45 56.21 95.37 55.97 95.12 55.75 94.91 55.84 94.48 55.92 94.15 56.24 93.83 56.38 93.52 56.55 93.15 56.61 92.74 56.64 92.34 56.71 91.41 56.59 90.47 56.5 89.55 56.41 88.66 56.31 87.77 56.23 86.89 56.05 85.12 56.13 83.37 56.15 81.59 56.17 79.79 55.98 78.01 55.9 76.22 55.86 76.12 55.81 76.03 55.77 75.94 55.6 75.6 55.42 75.27 55.36 74.89 55.3 74.49 55.49 74.15 55.66 73.81 55.81 73.51 55.85 73.19 55.89 72.87 55.83 71.59 55.8 70.32 55.8 69.04 55.8 67.63 55.74 66.23 55.41 64.85 55.15 63.75 54.75 62.71 54.3 61.68 52.5 62.78 50.47 63.67 48.43 64.18 46.35 64.7 44.11 64.74 42.07 64.02 40.28 63.39 38.76 62.2 37.28 61.06 35.6 59.76 33.89 58.51 31.9 57.73 31.07 58.74 30.11 59.65 29.14 60.5 26.68 62.64 23.94 64.51 21.96 67.12 19.58 70.27 18.98 74.17 18.1 77.91 18.26 78.17 18.4 78.45 18.49 78.76 18.6 79.14 18.38 79.51 18.19 79.82 17.9 80.28 17.87 80.63 17.99 81.17 18.1 81.66 18.32 82.12 18.47 82.59 18.47 82.6 18.47 82.6 18.47 82.61 19.45 85.18 20.7 87.61 22.15 89.96 22.89 91.16 23.69 92.3 24.51 93.44 24.68 93.68 25.03 94.11 24.94 94.43 24.82 94.83 24.44 94.82 24.12 94.96 24.24 95.03 24.35 95.12 24.47 95.17 24.68 95.26 24.89 95.29 25.11 95.31 25.16 95.32 25.17 95.4 25.11 95.41 25.07 95.41 25.02 95.41 24.98 95.42 24.31 95.79 23.5 95.47 22.89 95.04 22.89 95.05 22.89 95.06 22.9 95.06 22.93 95.2 22.99 95.33 23.04 95.46 23.08 95.55 23.12 95.64 23.17 95.73 23.18 95.76 23.2 95.79 23.21 95.82 23.25 95.85 23.29 95.89 23.33 95.93 23.37 95.96 23.32 96.02 23.28 96 22.81 95.82 22.22 95.53 21.95 95.07 21.6 95.78 20.46 96.27 19.75 96.11 19.57 96.18 19.37 96.21 19.15 96.15 19.1 96.14 19.12 96.07 19.16 96.06 19.45 96 19.71 95.93 19.92 95.7 20.03 95.58 20.11 95.42 20.19 95.28 19.81 94.97 19.31 94.59 19.31 94.09 19.31 93.54 19.67 93.19 20.02 92.83 20.23 91.9 19.77 90.93 19.42 90.09 19 89.09 18.69 88.05 18.3 87.04 17.89 85.95 17.43 84.88 16.88 83.85 16.6 83.32 16.29 82.81 15.98 82.29 15.68 81.79 15.33 81.28 15.1 80.74 14.62 80.18 14.21 79.53 14.19 78.84 14.14 78.82 14.09 78.77 14.1 78.69 14.21 77.47 14.65 76.27 14.91 75.07 15.23 73.6 15.61 72.15 15.86 70.67 16.48 67.1 15.9 63.96 14.09 60.83 13.73 60.21 13.38 59.59 13.02 58.97 11.72 56.78 10.2 54.75 8.69 52.7 8.21 52.06 7.74 51.4 7.29 50.74 7.27 50.86 7.24 50.98 7.2 51.1 7.14 51.3 7.07 51.49 7.05 51.7 7.01 52.02 7.26 52.25 7.47 52.45 8.12 53.08 8.89 53.57 9.42 54.31 9.9 54.99 10.04 55.87 9.78 56.66 9.5 57.52 8.77 58.18 8.3 58.92 8.06 59.3 7.87 59.78 7.96 60.24 8.02 60.57 8.33 60.81 8.6 60.98 9.14 61.34 9.78 61.53 10.31 61.92 10.74 62.23 10.9 62.68 10.68 63.17 10.27 64.06 9.27 64.34 8.65 65.03 8.32 65.4 8.15 66 8.31 66.48 8.45 66.91 8.89 67.2 9.27 67.4 9.29 67.41 9.3 67.43 9.31 67.44 9.51 67.5 9.71 67.54 9.92 67.54 9.96 67.54 9.97 67.6 9.93 67.62 9.05 67.92 8.16 67.24 7.65 66.59 7.4 66.27 7.17 65.85 7.18 65.44 7.18 65.35 7.19 65.27 7.2 65.2 7.15 65.31 7.1 65.42 7.06 65.54 6.68 66.66 8.25 67.14 8.69 67.93 9.26 68.94 8.39 69.71 7.63 70.25 7.09 70.63 6.65 71.04 6.6 71.75 6.55 72.47 7.14 73.08 7.73 73.41 8.03 73.5 8.34 73.56 8.64 73.61 8.68 73.62 8.68 73.68 8.63 73.68 7.41 73.67 6.13 73.37 5.22 72.49 4.79 72.08 4.61 71.48 4.81 70.91 4.97 70.45 5.95 70.04 5.72 69.5 5.59 69.19 4.89 69.19 4.62 69.15 4.3 69.11 3.88 69.08 3.63 68.85 3.04 68.31 3.37 67.55 3.84 66.95 3.39 67.08 2.86 67.03 2.46 66.8 2.43 66.78 2.42 66.76 2.42 66.73 2.26 66.64 2.12 66.51 1.97 66.38 1.96 66.3 2 66.27 2.02 66.29 2.5 66.61 3.02 66.66 3.43 66.2 3.86 65.72 3.3 65.3 2.89 65.12 2.41 64.9 1.91 64.76 1.62 64.28 1.3 63.75 1.6 62.89 1.87 62.4 2.21 61.76 2.66 61.21 3.16 60.7 2.13 61.05 0.8 60.85 0.02 60.08Z" fill="#DBBB79"/><path d="M115.88 18.09C115.87 18.11 115.87 18.13 115.86 18.15 115.6 17.77 115.15 17.51 114.65 17.49 113.94 17.46 113.25 17.65 112.55 17.71 111.83 17.76 111.1 17.84 110.38 17.76 109.51 17.67 108.77 17.34 108.04 16.88 107.53 16.56 107.02 16.19 106.44 16 105.68 15.75 104.97 15.88 104.19 15.93 103.93 15.94 102.62 16.21 101.78 15.31 101.78 15.45 101.89 15.78 101.93 15.92 102.03 16.22 101.74 16.02 101.55 15.72 101.17 15.22 100.34 13.83 101.23 13.66 101.69 13.57 102.38 13.91 102.84 14.04 103.3 14.35 102.05 14.19 101.8 14.29 101.75 14.31 101.87 14.45 101.91 14.48 103.12 15.56 103.26 15.17 103.9 15.1 104.44 15.04 104.97 14.89 105.51 14.87 106.4 14.82 107.15 15.12 107.94 15.51 108.74 15.9 109.53 16.34 110.37 16.66 111.16 16.96 111.95 17.05 112.8 17 113.67 16.95 114.48 16.76 115.32 16.57 115.65 16.49 115.99 16.44 116.33 16.39 115.86 16.57 115.42 16.7 115.15 16.79 115.47 17.19 115.79 17.64 115.88 18.09Z" fill="#DBBB79"/><path d="M99.6 12.37C99.97 12.05 100.64 12.11 101.09 12.12 101.71 12.14 102.39 12.23 102.96 12.51 103.01 12.53 103 12.62 102.94 12.61 102.02 12.52 101.11 12.36 100.19 12.57 99.29 12.78 99.59 14.05 99.56 14.7 99.56 14.79 99.42 14.82 99.38 14.73 99.09 14.02 98.95 12.94 99.6 12.37Z" fill="#A64D25" opacity="0.4"/><path d="M112.66 10.51C112.68 10.51 112.68 10.54 112.66 10.54 112.64 10.54 112.64 10.51 112.66 10.51Z" fill="#A64D25"/><path d="M107.84 8.16C108.43 7.5 109.96 6.59 110.84 7.17 111.51 7.61 112.53 8.9 112.5 9.74 112.5 9.8 112.42 9.81 112.39 9.76 111.95 8.98 111.54 8.32 110.82 7.75 109.99 7.09 108.79 8.15 107.96 8.37 107.87 8.4 107.77 8.25 107.84 8.16Z" fill="#A64D25"/><path d="M83.18 5.51C83.92 7.07 85.26 6.74 86.63 6.71 86.34 6.04 86.3 5.12 86.26 4.46 86.26 4.4 86.34 4.36 86.37 4.43 86.38 4.47 86.39 4.5 86.41 4.54 86.42 4.54 86.42 4.54 86.42 4.55 86.6 4.85 86.81 5.13 87.02 5.41 87.06 5.46 87.09 5.51 87.13 5.56 87.01 4.98 86.94 4.39 86.8 3.82 86.72 3.46 86.63 3.09 86.48 2.75 86.25 2.25 85.38 2.49 84.97 2.51 84.9 2.51 84.87 2.41 84.95 2.39 85.66 2.27 86.44 2.01 86.86 2.77 87.1 3.2 87.17 3.82 87.28 4.29 87.41 4.91 87.49 5.58 87.46 6.22 87.46 6.29 87.4 6.3 87.35 6.28 87.29 6.33 87.18 6.32 87.15 6.24 87.02 5.98 86.95 5.7 86.81 5.44 86.75 5.33 86.68 5.23 86.61 5.12 86.67 5.31 86.73 5.51 86.79 5.7 86.9 6.04 87.03 6.41 87.08 6.77 87.14 6.84 87.15 6.95 87.09 7.02 87.08 7.11 86.96 7.15 86.89 7.12 85.35 7.67 83.88 7.3 83.24 5.75 83.2 5.65 83.15 5.43 83.18 5.51Z" fill="#A64D25" opacity="0.4"/><path d="M95.52 3.34C95.9 3.44 96.22 3.94 96.44 4.23 96.69 4.55 96.92 4.94 96.99 5.34 97 5.4 96.93 5.42 96.9 5.37 96.55 4.81 96.26 4.28 95.72 3.88 95.03 3.38 94.66 4.17 94.24 4.58 94.2 4.61 94.16 4.57 94.17 4.53 94.33 3.9 94.75 3.15 95.52 3.34Z" fill="#A64D25"/><path d="M83.9 14.04C84.03 13.01 84.84 12.24 85.8 12.09 85.29 12 84.78 11.84 84.28 11.98 84.24 11.99 84.22 11.93 84.25 11.91 84.29 11.88 84.33 11.86 84.37 11.84 84.36 11.82 84.37 11.79 84.39 11.78 85.59 10.79 87.19 11.06 88.42 11.82 88.47 11.85 88.43 11.92 88.38 11.9 87.77 11.67 87.18 11.46 86.53 11.41 85.96 11.37 85.44 11.52 84.92 11.71 85.44 11.71 85.99 12.01 86.49 12.08 86.5 12.08 86.51 12.09 86.51 12.09 86.64 12.11 86.77 12.14 86.9 12.18 86.92 12.19 86.91 12.22 86.89 12.21 86.24 12.15 85.63 12.29 85.07 12.64 84.6 12.94 84.33 13.35 84.1 13.82 84.32 13.66 84.63 13.58 84.94 13.51 85.01 13.48 85.08 13.46 85.15 13.46 85.4 13.4 85.62 13.33 85.78 13.22 85.82 13.19 85.86 13.24 85.83 13.27 85.67 13.4 85.49 13.49 85.3 13.56 84.85 13.77 84.67 14.11 84.54 14.58 84.49 14.79 84.48 14.99 84.48 15.2 84.78 14.78 85.43 14.54 85.86 14.22 85.88 14.2 85.9 14.21 85.92 14.22 85.97 14.17 86.02 14.13 86.08 14.09 86.12 14.06 86.17 14.11 86.14 14.15 85.58 14.88 85.21 15.64 85.31 16.59 85.4 17.36 85.84 18.01 86.24 18.66 86.26 18.14 86.82 17.64 87.02 17.15 87.03 17.12 87.08 17.14 87.07 17.17 86.99 17.51 86.79 17.78 86.66 18.09 86.5 18.49 86.46 18.77 86.56 19.21 86.57 19.26 86.5 19.29 86.47 19.25 86.41 19.18 86.36 19.12 86.33 19.05 85.2 17.91 84.59 16.12 85.45 14.78 85.34 14.85 85.23 14.92 85.12 14.99 84.69 15.26 84.45 15.52 84.46 16.05 84.46 16.08 84.41 16.09 84.4 16.06 84.38 16.01 84.37 15.97 84.36 15.92 84.33 15.92 84.31 15.91 84.29 15.88 84.02 15.44 84.16 14.37 84.59 13.81 84.51 13.84 84.43 13.88 84.35 13.91 84.12 14.03 84.01 14.22 83.87 14.42 83.85 14.45 83.8 14.43 83.8 14.39 83.79 14.26 83.83 14.14 83.9 14.04Z" fill="#A64D25"/><path d="M106.97 6.38C106.91 6.37 106.85 6.37 106.79 6.36 106.78 6.35 106.77 6.33 106.75 6.33 105.52 6.01 104.27 5.91 103.01 5.85 103.04 5.85 103.06 5.85 103.09 5.85 104.44 5.77 105.86 5.83 107.15 6.24 107.57 5.91 108.01 5.62 108.46 5.34 107.77 6.05 106.93 6.64 106.16 7.27 106.13 7.23 106.13 7.17 106.17 7.14 106.42 6.86 106.69 6.61 106.97 6.38Z" fill="#A64D25" opacity="0.4"/><path d="M89.16 2.29C89 2.49 88.85 2.7 88.72 2.9 88.72 3.04 88.73 3.19 88.73 3.32 88.74 4.07 88.55 4.85 88.82 5.57 89.05 6.19 89.92 6.51 90.44 6.84 90.49 6.87 90.44 6.95 90.39 6.93 89.71 6.63 88.96 6.39 88.5 5.77 88 5.09 88.26 3.96 88.27 3.16 88.24 3.12 88.22 3.06 88.24 3 88.25 2.98 88.26 2.96 88.27 2.94 88.25 2.39 88.18 1.76 87.84 1.32 87.46 0.83 86.63 0.7 86.06 0.63 84.96 0.5 84.02 0.92 83.03 1.26 82.88 1.34 82.74 1.41 82.59 1.48 82.54 1.51 82.48 1.53 82.43 1.56 82.43 1.56 82.44 1.56 82.44 1.56 82.65 1.6 82.99 1.64 83.1 1.84 83.1 1.85 83.1 1.85 83.11 1.86 83.23 1.84 83.35 1.83 83.48 1.84 83.52 1.84 83.52 1.89 83.48 1.9 82.93 2.02 82.57 2.37 82.21 2.78 82.13 2.87 82.04 2.97 81.95 3.06 82.17 3.02 82.39 3 82.58 3.03 82.62 3.03 82.65 3.05 82.67 3.07 82.72 3.01 82.77 2.95 82.83 2.9 82.86 2.86 82.92 2.91 82.9 2.95 82.45 4.05 82.38 5.1 82.4 6.28 82.41 6.88 82.49 7.51 82.82 8.01 83.25 8.66 84.3 8.59 84.97 8.53 86.12 8.43 87.24 8.11 88.39 7.98 89.17 7.89 89.78 8.41 90.24 8.97 90.3 9.05 90.19 9.13 90.12 9.07 89.35 8.3 88.72 8.13 87.67 8.49 87.05 8.7 86.42 8.81 85.77 8.9 84.74 9.04 83.53 9.2 82.67 8.49 82.64 8.46 82.61 8.43 82.58 8.4 82.37 8.56 82.14 8.68 81.94 8.86 81.68 9.1 81.45 9.36 81.23 9.64 81.04 9.83 80.85 10.01 80.65 10.18 80.48 10.33 80.32 10.47 80.16 10.63 80.38 10.27 80.62 9.92 80.88 9.59 81.17 9.22 81.48 8.87 81.82 8.55 81.95 8.42 82.16 8.23 82.37 8.14 81.99 7.54 81.99 6.68 81.98 6.03 81.95 5.16 82 4.2 82.43 3.43 82.24 3.48 82.03 3.48 81.84 3.51 81.55 3.55 81.25 3.59 80.96 3.64 80.87 3.65 80.85 3.54 80.92 3.5 80.99 3.46 81.08 3.41 81.16 3.37L81.16 3.36C81.52 2.85 82.07 2.27 82.7 2 82.62 1.96 82.53 1.92 82.46 1.89 82.23 1.81 81.98 1.72 81.74 1.73 81.65 1.73 81.66 1.61 81.73 1.59 81.82 1.56 81.91 1.55 82.01 1.55 82.17 1.45 82.34 1.37 82.51 1.29 82.55 1.27 82.6 1.25 82.64 1.23 84.01 0.06 86.74-0.22 88.12 1.03 88.44 1.33 88.59 1.76 88.66 2.22 89.2 1.44 90.02 0.78 90.75 0.3 90.96 0.16 91.18 0.08 91.39 0.03 91.06 0.21 90.75 0.46 90.49 0.69 89.97 1.16 89.48 1.67 89.16 2.29Z" fill="#A64D25" opacity="0.4"/><path d="M8.01 51.72C8.01 51.7 8.01 51.68 8 51.66 7.71 51.26 7.45 50.82 7.12 50.46 7.12 50.45 7.12 50.45 7.12 50.44 6.27 49.18 5.49 47.89 4.87 46.5 3.91 44.37 3.68 42.17 4.11 39.87 4.65 36.98 6.08 34.12 7.88 31.81 7.92 31.76 8 31.81 7.96 31.87 5.39 35.71 2.99 40.77 4.76 45.43 6.53 50.07 10.16 53.62 12.7 57.82 15.1 61.79 16.95 65.41 16.28 70.16 16.07 71.62 15.7 73.05 15.37 74.49 15.22 75.17 15.08 75.86 14.9 76.54 14.79 76.96 14.67 77.38 14.58 77.81 14.65 77.83 14.7 77.89 14.68 77.97 14.47 78.56 14.43 79.05 14.69 79.62 14.8 79.87 14.96 80.11 15.12 80.33 15.16 80.31 15.22 80.31 15.25 80.37 15.6 80.88 15.87 81.45 16.19 81.99 16.53 82.55 16.87 83.12 17.18 83.7 17.79 84.82 18.26 86 18.71 87.2 19.11 88.28 19.47 89.38 19.9 90.45 20.16 91.11 20.41 91.83 20.3 92.53 20.4 92.4 20.49 92.27 20.56 92.13 20.58 92.09 20.64 92.1 20.64 92.15 20.59 92.52 20.35 92.82 20.12 93.11 20.11 93.12 20.11 93.14 20.1 93.16 20.09 93.18 20.08 93.19 20.06 93.19 19.96 93.31 19.87 93.43 19.79 93.55 19.34 94.26 19.99 94.56 20.39 95 20.46 94.98 20.54 95.03 20.53 95.11 20.53 95.13 20.52 95.15 20.52 95.16 20.53 95.17 20.53 95.18 20.54 95.19 20.6 95.29 20.53 95.43 20.43 95.43 20.36 95.6 20.25 95.76 20.12 95.89 20.37 95.8 20.64 95.74 20.88 95.63 21.29 95.45 21.62 95.21 21.87 94.86 21.86 94.8 21.9 94.75 21.95 94.74 21.96 94.73 21.96 94.72 21.97 94.72 22 94.67 22.07 94.7 22.07 94.75 22.07 94.76 22.06 94.77 22.06 94.78 22.27 94.98 22.44 95.22 22.68 95.4 22.75 95.46 22.82 95.51 22.9 95.56 22.79 95.36 22.6 95.05 22.62 94.8 22.6 94.79 22.58 94.77 22.57 94.76 22.52 94.71 22.54 94.6 22.62 94.62 22.65 94.63 22.68 94.64 22.71 94.65 22.73 94.65 22.75 94.65 22.77 94.67 23.31 94.83 23.73 95.23 24.25 95.35 24.11 95.3 23.99 95.23 23.89 95.12 23.79 95.16 23.7 95.04 23.75 94.94 23.95 94.6 24.79 94.65 24.63 94.19 24.47 93.74 24.1 93.34 23.82 92.97 23 91.9 22.31 90.68 21.61 89.53 20.22 87.24 18.91 84.82 18.18 82.23 18.05 81.95 17.94 81.67 17.83 81.38 17.7 81.04 17.53 80.6 17.63 80.23 17.73 79.85 18.03 79.57 18.17 79.2 18.29 78.9 18.14 78.57 18.04 78.25 18.03 78.3 18.01 78.36 18 78.41 17.97 78.54 17.75 78.49 17.77 78.36 18.24 75.85 18.72 73.31 19.61 70.91 20.35 68.92 21.45 67.13 22.89 65.56 25.56 62.67 29.06 60.65 31.6 57.61 31.58 57.6 31.56 57.59 31.54 57.59 31.46 57.56 31.5 57.45 31.58 57.47 31.62 57.48 31.65 57.5 31.69 57.51 31.71 57.49 31.72 57.47 31.74 57.45 32.73 56.24 33.58 54.82 33.9 53.27 34.25 51.63 34 49.92 33.56 48.32 32.63 45.02 30.74 42.04 28.96 39.15 28.94 39.11 29 39.07 29.03 39.11 31.4 42.56 33.89 46.41 34.33 50.68 34.54 52.68 34.04 54.51 33.01 56.22 32.72 56.71 32.38 57.17 32.03 57.61 33.9 58.24 35.49 59.29 37.06 60.5 38.57 61.66 40.06 62.88 41.83 63.61 43.86 64.45 46.13 64.41 48.25 63.94 49.36 63.69 50.44 63.3 51.49 62.86 52.43 62.46 53.33 61.97 54.25 61.54 53.62 60.14 52.89 58.79 52.25 57.41 51.19 55.11 49.71 52.85 49.37 50.29 49.05 47.85 49.96 45.68 51.08 43.58 51.66 42.49 52.27 41.41 52.96 40.38 53.32 39.84 53.7 39.22 54.22 38.78 53.74 38.99 53.27 39.23 52.78 39.45 52.76 39.47 52.74 39.49 52.72 39.51 52.69 39.54 52.65 39.5 52.66 39.46 52.65 39.44 52.64 39.42 52.67 39.4 52.69 39.37 52.72 39.35 52.75 39.33 52.88 39.14 53.02 38.95 53.18 38.78 53.64 38.11 54.3 37.56 54.96 37.1 55.29 36.87 55.66 36.61 56.06 36.43 55.42 36.41 54.78 36.26 54.18 36.6 54.14 36.62 54.11 36.56 54.14 36.53 54.3 36.37 54.52 36.25 54.77 36.18 55.76 35.59 56.89 35 58.05 34.97 58.08 34.97 58.08 35.02 58.05 35.02 57.05 35.18 56.23 35.69 55.35 36.08 55.75 36.07 56.15 36.14 56.44 36.29 56.63 36.24 56.83 36.22 57.04 36.24 57.08 36.24 57.08 36.31 57.04 36.31 56.27 36.37 55.61 36.95 55 37.38 54.67 37.62 54.34 37.87 54.03 38.14 53.88 38.27 53.74 38.42 53.6 38.57 53.6 38.57 53.59 38.58 53.59 38.59 53.48 38.72 53.37 38.85 53.25 38.97 54.06 38.47 55.07 38.24 55.96 38.07 55.99 38.06 56 38.11 55.97 38.12 55.68 38.2 55.4 38.3 55.13 38.4 55.13 38.42 55.11 38.43 55.09 38.44 54.53 38.64 54.17 39.17 53.83 39.64 53.43 40.2 53.04 40.78 52.68 41.37 51.97 42.53 51.3 43.73 50.71 44.95 50.17 46.07 49.77 47.25 49.65 48.48 49.51 49.84 49.8 51.16 50.27 52.43 50.73 53.67 51.34 54.86 51.94 56.04 52.53 57.21 53.08 58.39 53.66 59.56 53.96 60.18 54.26 60.79 54.53 61.41 54.61 61.38 54.65 61.49 54.58 61.53 55.34 63.29 55.91 65.09 56.05 67.05 56.11 67.99 56.1 68.94 56.1 69.88 56.1 70.37 56.09 70.86 56.1 71.36 56.1 71.91 56.18 72.45 56.15 73 56.15 73.03 56.14 73.05 56.12 73.06 56.12 73.21 56.11 73.36 56.09 73.52 56.01 73.98 55.66 74.35 55.69 74.84 55.72 75.27 56.02 75.68 56.2 76.06 56.39 76.46 56.49 76.88 56.47 77.32 56.47 77.39 56.37 77.39 56.35 77.33 56.3 77.15 56.23 76.97 56.17 76.79 56.38 78.21 56.4 79.69 56.42 81.11 56.45 82.98 56.36 84.82 56.53 86.69 56.69 88.37 56.88 90.03 56.9 91.73 56.91 92.48 56.85 93.21 56.55 93.9 56.36 94.33 55.9 94.68 56.39 95.13 56.57 95.29 56.69 95.43 56.75 95.67 56.78 95.77 56.62 95.85 56.56 95.76 56.53 95.71 56.49 95.66 56.45 95.61 56.32 95.75 56.12 95.85 55.97 95.93 55.9 95.97 55.81 96.01 55.72 96.03 56.57 96.18 57.51 95.87 58.01 95.13 58.01 94.97 58.03 94.8 58.09 94.65 58.12 94.58 58.25 94.58 58.25 94.66 58.27 94.95 58.24 95.23 58.3 95.51 58.37 95.81 58.55 96.04 58.75 96.26 58.67 95.93 58.65 95.58 58.63 95.24 58.6 95.18 58.56 95.12 58.53 95.06 58.49 94.98 58.6 94.91 58.66 94.98 58.66 94.98 58.66 94.99 58.67 94.99 58.71 94.98 58.75 94.99 58.76 95.04 58.77 95.06 58.77 95.09 58.78 95.11 59.07 95.44 59.36 95.77 59.77 95.94 60.17 96.11 60.57 95.91 60.97 95.76 60.43 95.73 59.79 95.55 59.64 95.02 59.56 95.03 59.49 94.91 59.57 94.86 59.58 94.85 59.59 94.84 59.61 94.83 59.61 94.82 59.61 94.81 59.61 94.8 59.61 94.72 59.72 94.67 59.79 94.72 59.99 94.59 60.2 94.47 60.35 94.28 60.63 93.92 60.2 93.4 60 93.12 59.56 92.53 59.28 91.89 59.02 91.2 58.42 89.62 58.1 87.95 57.98 86.27 57.85 84.51 57.95 82.71 57.96 80.95 57.97 80.18 57.98 79.41 57.99 78.64 58 78.12 58.04 77.57 58.29 77.1 58.13 77.2 57.98 77.3 57.85 77.42 57.83 77.44 57.78 77.41 57.79 77.38 57.93 77.11 58.15 76.86 58.42 76.69 58.48 76.64 58.55 76.59 58.61 76.55 58.74 76.46 58.87 76.37 58.99 76.28 59.04 76.25 59.09 76.21 59.14 76.17 59.14 76.16 59.14 76.14 59.14 76.13 59.14 76.11 59.14 76.1 59.15 76.08 59.16 76.06 59.16 76.04 59.17 76.03 59.18 76 59.19 75.97 59.2 75.94 59.63 74.8 59.98 73.62 60.38 72.47 60.6 71.84 60.8 71.21 61.05 70.59 61.17 70.3 61.23 69.87 61.41 69.58 62.07 67.46 62.88 65.38 64.04 63.48 64.73 62.34 65.63 61.32 66.52 60.34 67.37 59.4 68.25 58.47 69.15 57.58 69.99 56.76 70.91 55.96 71.76 55.1 71.75 55.1 71.75 55.1 71.74 55.11 71.76 55.09 71.77 55.08 71.79 55.07 71.81 55.05 71.82 55.03 71.82 55.01 71.85 54.97 71.88 54.92 71.91 54.88 71.95 54.87 71.98 54.85 72.01 54.84 72.79 54.02 73.49 53.14 73.97 52.12 75.14 49.6 74.47 46.81 73.45 44.38 72.76 42.75 72.01 41.15 71.48 39.46 71.47 39.43 71.52 39.42 71.53 39.45 72.51 41.92 73.96 44.24 74.61 46.83 75.2 49.21 74.87 51.61 73.43 53.62 73.18 53.98 72.9 54.32 72.62 54.65 74.81 53.83 77 53.03 79.16 52.14 81.54 51.17 83.84 49.98 86.03 48.64 88.19 47.32 90.32 45.85 92.2 44.15 93.14 43.3 94 42.37 94.76 41.36 95.53 40.35 96.35 39.14 96.14 37.81 96.13 37.73 96.24 37.71 96.26 37.79 96.28 37.87 96.3 37.95 96.31 38.02 96.32 38.02 96.33 38.03 96.33 38.04 96.87 38.79 97.16 39.65 97.02 40.55 97.44 39.64 97.39 38.76 97.23 37.77 97.22 37.71 97.31 37.68 97.33 37.74 97.35 37.78 97.36 37.82 97.37 37.85 97.38 37.85 97.4 37.86 97.41 37.87 97.81 38.46 98.2 39.37 98.14 40.16 98.39 39.68 98.63 39.19 98.79 38.68 98.99 38.06 99.02 37.4 98.98 36.76 98.9 35.53 98.43 34.27 97.72 33.27 97.69 33.23 97.75 33.18 97.78 33.22 97.82 33.26 97.86 33.3 97.89 33.35 97.9 33.35 97.9 33.35 97.91 33.35 98.2 33.47 98.49 33.68 98.73 33.93 98.52 33.43 98.29 32.95 97.9 32.53 97.87 32.5 97.92 32.46 97.95 32.48 98.01 32.52 98.07 32.57 98.13 32.62 98.16 32.61 98.18 32.6 98.21 32.62 98.9 33.03 99.44 33.66 99.68 34.4 99.67 33.88 99.67 33.35 99.59 32.84 99.48 32.07 99.21 31.34 98.86 30.66 98.16 29.31 97.06 28.2 95.91 27.23 95.71 27.17 95.52 27.11 95.33 27.04 95.27 27.02 95.29 26.93 95.35 26.93 96.3 26.98 97.43 27.28 98.14 27.98 97.53 26.78 96.61 25.96 95.43 25.24 95.37 25.2 95.42 25.11 95.49 25.13 95.6 25.16 95.71 25.2 95.81 25.24 95.79 25.22 95.77 25.2 95.75 25.19 95.71 25.15 95.76 25.1 95.81 25.11 96.26 25.29 96.81 25.4 97.29 25.62 96.55 24.84 95.52 24.39 94.61 23.76 93.63 23.09 93.39 21.93 93.21 20.83 93.2 20.76 93.22 20.69 93.25 20.64 92.05 20.47 90.99 19.36 90.17 18.6 90.12 18.56 90.19 18.49 90.24 18.52 90.88 18.91 91.46 19.39 92.11 19.78 93.15 20.41 94.1 20.12 95.16 19.73 97.07 19.04 98.99 18.66 100.96 18.16 101.81 17.94 102.58 17.68 103.47 17.78 104.22 17.87 104.92 18.19 105.56 18.57 106.27 18.99 106.89 19.55 107.56 20.02 108.39 20.6 109.4 20.6 110.36 20.58 110.37 20.53 110.38 20.47 110.39 20.42 110.41 20.32 110.54 20.35 110.58 20.41 110.91 20.94 110.87 22.59 110.36 23.43 111.13 23.07 111.72 22.59 111.85 21.62 111.86 21.51 112.01 21.53 112.01 21.63 112.02 21.8 112 21.96 111.97 22.11 112 22.12 112.03 22.14 112.03 22.17 112.11 22.49 112.11 22.84 112.02 23.16 112.54 22.44 112.94 21.63 112.62 20.73 112.59 20.64 112.69 20.52 112.78 20.6 112.88 20.7 112.96 20.8 113.02 20.91 113.37 21.11 113.65 21.56 113.82 21.91 113.89 22.05 113.93 22.19 113.95 22.33 114.07 21.59 114.02 20.91 113.72 20.17 113.46 20.26 113.2 20.33 112.95 20.32 112.92 20.32 112.91 20.28 112.93 20.26 113.17 20.1 113.43 19.99 113.7 19.89 113.75 19.81 113.85 19.77 113.93 19.8 114.22 19.69 114.5 19.57 114.76 19.39 115.06 19.19 115.37 18.97 115.53 18.64 115.83 18.05 115.1 17.38 114.75 16.98 114.74 16.96 114.73 16.95 114.72 16.94 113.9 17.16 113.05 17.27 112.19 17.31 110.8 17.36 109.63 16.73 108.46 16.08 107.81 15.72 107.16 15.39 106.45 15.18 105.65 14.94 105.04 15.29 104.29 15.49 103.22 15.77 102.17 15.32 101.42 14.56 101.46 14.64 101.49 14.71 101.52 14.77 101.58 14.93 101.68 15.08 101.66 15.26 101.65 15.33 101.56 15.37 101.51 15.3 101.36 15.11 101.2 14.9 101.08 14.68 100.95 14.45 100.9 14.22 101.02 13.98 101.25 13.53 102.02 13.89 102.37 13.95 102.43 13.96 102.45 14.06 102.38 14.07 102.21 14.09 102.03 14.07 101.86 14.08 101.8 14.09 101.67 14.09 101.56 14.11 101.95 14.45 102.32 14.76 102.81 14.98 103.52 15.3 104.18 15.05 104.86 14.82 105.7 14.53 106.48 14.71 107.28 15.03 108.17 15.38 108.98 15.91 109.84 16.32 111.16 16.93 112.47 16.84 113.87 16.65 115.18 16.48 116.67 15.95 117.73 15.17 117.89 15.05 118.5 14.42 117.96 14.33 117.86 14.32 117.76 14.31 117.66 14.32 117.61 14.34 117.55 14.35 117.5 14.33 117.25 14.36 116.98 14.42 116.76 14.47 116.13 14.61 115.52 14.87 114.89 14.99 114.88 14.99 114.87 14.97 114.89 14.97 115.32 14.86 116.37 14.25 117.25 14.02 116.2 12.38 114.76 11.05 112.91 10.42 112.86 10.4 112.88 10.33 112.93 10.33 113.31 10.37 113.68 10.46 114.04 10.59 113.99 10.51 113.95 10.43 113.9 10.34 113.9 10.33 113.9 10.33 113.9 10.32 113.8 9.82 113.51 9.42 113.32 8.95 113.12 8.48 112.93 8.01 112.71 7.55 112.71 7.54 112.7 7.53 112.7 7.53 113.38 8.53 113.95 9.62 114.28 10.69 115.71 11.33 116.9 12.68 117.69 13.94 118.11 13.91 118.44 14.03 118.56 14.43 118.92 15.65 116.1 16.52 115.17 16.8 115.77 17.59 116.35 18.38 115.55 19.23 115.21 19.6 114.71 19.79 114.25 19.96 114.21 19.98 114.16 19.99 114.12 20.01 114.61 20.91 114.34 22.09 113.91 22.96 113.9 22.97 113.89 22.98 113.88 22.99 113.86 23.06 113.83 23.13 113.79 23.2 113.77 23.25 113.69 23.24 113.69 23.18 113.74 22.69 113.67 22.29 113.4 21.88 113.32 21.76 113.22 21.65 113.12 21.54 113.06 22.34 112.36 23.25 111.81 23.64 111.75 23.75 111.67 23.85 111.58 23.94 111.53 23.99 111.44 23.92 111.47 23.86 111.61 23.57 111.73 23.29 111.78 22.97 111.8 22.83 111.81 22.7 111.82 22.56 111.52 23.21 110.88 23.65 110.1 23.72 109.91 23.88 109.69 23.95 109.42 23.9 109.35 23.89 109.31 23.78 109.39 23.75 110.58 23.33 110.27 21.88 110.33 20.82 108.68 21.07 107.55 20.45 106.22 19.49 105.37 18.87 104.46 18.38 103.42 18.2 102.25 18.01 101.17 18.44 100.05 18.7 98.86 18.98 97.72 19.18 96.58 19.64 95.69 20 94.82 20.52 93.85 20.65 93.8 20.66 93.75 20.66 93.7 20.66 93.71 20.68 93.72 20.71 93.73 20.74 93.84 21.32 93.93 21.88 94.16 22.42 94.45 23.1 95.13 23.5 95.72 23.91 96.51 24.45 97.26 25.06 97.74 25.88 97.88 25.98 98.01 26.11 98.11 26.25 98.13 26.28 98.1 26.32 98.07 26.3 97.64 26.02 97.13 25.9 96.65 25.71 97.49 26.33 98.15 27.27 98.38 28.23 98.48 28.36 98.57 28.51 98.64 28.67 98.65 28.69 98.63 28.71 98.6 28.7 98.12 28.28 97.7 27.9 97.12 27.63 96.85 27.51 96.57 27.41 96.29 27.33 97.44 28.11 98.37 29.19 99.06 30.41 99.89 31.89 100.04 33.5 99.83 35.15 99.83 35.32 99.82 35.5 99.79 35.68 99.78 35.71 99.74 35.71 99.74 35.68 99.7 35.11 99.57 34.59 99.29 34.09 99.15 33.84 98.97 33.62 98.78 33.41 98.99 33.78 99.12 34.2 99.18 34.61 99.24 34.78 99.28 34.97 99.27 35.15 99.27 35.18 99.22 35.18 99.21 35.15 99.1 34.57 98.7 34.22 98.31 33.85 98.87 34.69 99.17 35.69 99.26 36.71 99.39 38.14 98.88 39.4 98.08 40.55 98.03 40.72 97.95 40.87 97.83 41.02 97.81 41.05 97.75 41.03 97.76 40.99 98.14 40.2 97.86 39.5 97.59 38.78 97.66 39.51 97.52 40.28 97.03 40.74 97.02 40.75 97.01 40.75 97 40.75 96.99 40.78 96.99 40.81 96.98 40.84 96.97 40.88 96.91 40.86 96.92 40.83 96.96 40.32 96.94 39.83 96.78 39.34 96.67 39.01 96.51 38.7 96.37 38.39 96.42 39.28 96.02 40.07 95.51 40.84 94.83 41.85 94.03 42.78 93.17 43.64 91.34 45.48 89.17 47 86.99 48.39 83.24 50.8 79.14 52.62 74.94 54.1 73.64 54.52 72.97 54.77 72.36 54.97 71.16 56.28 69.76 57.44 68.53 58.72 67.57 59.72 66.61 60.71 65.71 61.76 64.82 62.81 64.08 63.94 63.46 65.17 62.56 66.94 61.88 68.8 61.21 70.66 61.19 70.73 61.18 70.79 61.16 70.85 60.95 71.48 60.78 72.12 60.56 72.75 60.18 73.83 59.86 74.95 59.45 76.02 59.42 76.13 59.4 76.24 59.4 76.36 59.4 76.4 59.37 76.45 59.33 76.47 59.23 76.51 59.15 76.58 59.05 76.63 59.04 76.64 59.03 76.64 59.02 76.65 59.02 76.67 59.01 76.68 59 76.69 58.87 76.81 58.72 76.9 58.57 77 58.56 77.01 58.55 77.01 58.53 77.02 58.19 77.67 58.22 78.4 58.24 79.11 58.27 79.98 58.23 80.84 58.22 81.71 58.21 83.61 58.1 85.49 58.35 87.38 58.47 88.26 58.66 89.13 58.91 89.98 59.17 90.85 59.48 91.81 59.97 92.58 60.29 93.08 60.77 93.51 60.77 94.15 60.77 94.59 60.35 94.88 59.95 95.02 60.06 95.21 60.17 95.37 60.37 95.51 60.61 95.67 60.92 95.72 61.21 95.75 61.24 95.74 61.28 95.73 61.31 95.72 61.35 95.71 61.36 95.76 61.35 95.78 61.35 95.8 61.35 95.82 61.32 95.82 61.31 95.82 61.3 95.82 61.29 95.82 60.78 96.12 60.3 96.44 59.68 96.27 59.33 96.18 59.06 95.91 58.84 95.61 58.84 95.88 58.82 96.15 58.84 96.41 58.85 96.42 58.85 96.43 58.86 96.44 58.88 96.46 58.86 96.5 58.83 96.49 58.39 96.32 58.11 95.9 58.03 95.44 57.47 96.31 56.13 96.7 55.25 96.07 55.24 96.06 55.23 96.05 55.23 96.04 55.23 96.04 55.22 96.04 55.22 96.04 55.19 96.01 55.19 95.96 55.24 95.95 55.48 95.92 55.69 95.82 55.89 95.69 56.01 95.62 56.12 95.52 56.23 95.44 55.99 95.19 55.77 94.98 55.86 94.55 55.94 94.22 56.26 93.9 56.4 93.59 56.57 93.22 56.63 92.81 56.66 92.41 56.73 91.48 56.61 90.54 56.52 89.62 56.43 88.73 56.33 87.84 56.25 86.96 56.07 85.19 56.15 83.44 56.17 81.66 56.19 79.86 56 78.08 55.92 76.29 55.88 76.19 55.83 76.1 55.79 76.01 55.62 75.67 55.44 75.34 55.38 74.96 55.32 74.56 55.51 74.22 55.68 73.88 55.83 73.58 55.87 73.26 55.91 72.94 55.85 71.66 55.82 70.39 55.82 69.11 55.82 67.7 55.76 66.3 55.43 64.92 55.17 63.82 54.77 62.78 54.32 61.75 52.52 62.85 50.49 63.74 48.45 64.25 46.37 64.77 44.13 64.81 42.09 64.09 40.3 63.46 38.78 62.27 37.3 61.13 35.62 59.83 33.91 58.58 31.92 57.8 31.09 58.81 30.13 59.72 29.16 60.57 26.7 62.71 23.96 64.58 21.98 67.19 19.6 70.34 19 74.24 18.12 77.98 18.28 78.24 18.42 78.52 18.51 78.83 18.62 79.21 18.4 79.58 18.21 79.89 17.92 80.35 17.89 80.7 18.01 81.24 18.12 81.73 18.34 82.19 18.49 82.66 18.49 82.67 18.49 82.67 18.49 82.68 19.47 85.25 20.72 87.68 22.17 90.03 22.91 91.23 23.71 92.37 24.53 93.51 24.7 93.75 25.05 94.18 24.96 94.5 24.84 94.9 24.46 94.89 24.14 95.03 24.26 95.1 24.37 95.19 24.49 95.24 24.7 95.33 24.91 95.36 25.13 95.38 25.18 95.39 25.19 95.47 25.13 95.48 25.09 95.48 25.04 95.48 25 95.49 24.33 95.86 23.52 95.54 22.91 95.11 22.91 95.12 22.91 95.13 22.92 95.13 22.95 95.27 23.01 95.4 23.06 95.53 23.1 95.62 23.14 95.71 23.19 95.8 23.2 95.83 23.22 95.86 23.23 95.89 23.27 95.92 23.31 95.96 23.35 96 23.39 96.03 23.34 96.09 23.3 96.07 22.83 95.89 22.24 95.6 21.97 95.14 21.62 95.85 20.48 96.34 19.77 96.18 19.59 96.25 19.39 96.28 19.17 96.22 19.12 96.21 19.14 96.14 19.18 96.13 19.47 96.07 19.73 96 19.94 95.77 20.05 95.65 20.13 95.49 20.21 95.35 19.83 95.04 19.33 94.66 19.33 94.16 19.33 93.61 19.69 93.26 20.04 92.9 20.25 91.97 19.79 91 19.44 90.16 19.02 89.16 18.71 88.12 18.32 87.11 17.91 86.02 17.45 84.95 16.9 83.92 16.62 83.39 16.31 82.88 16 82.36 15.7 81.86 15.35 81.35 15.12 80.81 14.64 80.25 14.23 79.6 14.21 78.91 14.16 78.89 14.11 78.84 14.12 78.76 14.23 77.54 14.67 76.34 14.93 75.14 15.25 73.67 15.63 72.22 15.88 70.74 16.5 67.17 15.92 64.03 14.11 60.9 13.75 60.28 13.4 59.66 13.04 59.04 11.74 56.85 10.22 54.82 8.71 52.77 8.46 52.35 8.23 52.03 8.01 51.72Z" fill="#A64D25" opacity="0.2"/><path d="M110.09 8.21C109.41 8.2 108.66 8.26 107.98 8.37 107.91 8.38 107.85 8.39 107.78 8.41 108.55 7.78 109.39 7.07 110.35 7.28 111.47 7.54 111.92 8.58 112.33 9.57 111.77 8.85 110.97 8.23 110.09 8.21Z" fill="#DBBB79"/><g><path d="M94.69 7.5C94.55 7.24 94.52 6.85 94.55 6.5 94.67 5.41 94.99 4.71 95.21 4.77 95.54 4.86 95.7 5.7 95.66 6.71 95.64 7.24 95.5 7.52 95.32 7.62 95.11 7.48 94.92 7.51 94.69 7.5Z"/><path d="M95.08 5.6C95 6.18 94.94 6.32 94.85 6.41 94.76 6.49 94.71 6.07 94.84 5.56 94.97 5.05 95.21 4.63 95.08 5.6Z" fill="#FFFFFF"/></g><path d="M92.83 8.1C93.83 7.6 94.94 7.07 95.96 7.8 96.7 8.33 97.4 9.26 97.67 10.13 97.68 10.17 97.48 9.86 97.46 9.83 97.06 9.12 96.85 8.87 96.25 8.35 95.28 7.52 94.73 7.62 93.45 7.93 93.35 7.96 92.74 8.14 92.83 8.1Z" fill="#A64D25"/><path d="M107.08 6.76C107.77 5.97 109.31 4.59 110.42 5.27 111.79 6.11 112.86 8.02 113.45 9.46 113.47 9.5 113.42 9.51 113.4 9.48 112.71 8.35 111.92 7.27 111.01 6.31 110.43 5.69 110.02 5.43 109.17 5.7 108.42 5.93 107.8 6.38 107.18 6.85 107.12 6.89 107.03 6.82 107.08 6.76Z" fill="#FFE9D2"/><path d="M93.14 8.34C95.11 6.76 97.24 8.84 97.69 10.85 97.7 10.88 97.66 10.89 97.64 10.86 96.62 9.2 95.24 8.04 93.21 8.5 93.13 8.53 93.07 8.4 93.14 8.34Z" fill="#FFE9D2"/><path d="M109.42 14.74C109.98 15.03 110.55 15.35 111.16 15.52 111.77 15.69 112.41 15.68 113.04 15.6 114.21 15.46 115.34 15.07 116.46 14.73 116.48 14.72 116.48 14.75 116.47 14.76 115.36 15.32 114.2 15.77 112.96 15.94 112.42 16.01 111.83 16.03 111.3 15.89 110.6 15.7 109.98 15.24 109.38 14.84 109.32 14.8 109.36 14.71 109.42 14.74Z" fill="#FFE9D2"/><path d="M103.45 12.87C103.48 12.88 103.47 12.93 103.43 12.92 102.84 12.77 102.19 12.72 101.58 12.74 100.98 12.78 100.1 12.83 99.95 13.56 99.94 13.6 99.89 13.61 99.88 13.56 99.59 11.97 102.72 12.56 103.45 12.87Z" fill="#FFE9D2"/><path d="M84.45 0.82C85.43 0.57 86.47 0.4 87.39 0.89 88.07 1.25 88.29 2.03 88.35 2.73 88.42 3.59 88.23 4.47 88.49 5.3 88.76 6.14 89.57 6.65 90.32 6.99 90.37 7.01 90.34 7.09 90.29 7.07 89.64 6.82 89 6.56 88.54 6 88.07 5.43 88.02 4.65 88.04 3.95 88.06 3.13 88.14 2.19 87.62 1.49 86.9 0.53 84.93 1.03 83.89 1.05 83.83 1.06 83.95 0.94 84.45 0.82Z" fill="#FFE9D2"/><path d="M91.9 0.16C92.66 0.23 93.26 0.69 93.84 1.14 94.58 1.7 95.3 2.29 96 2.89 97.21 3.93 98.7 5.08 99.2 6.65 99.2 6.66 99.19 6.67 99.18 6.66 98.38 5.25 97.18 4.25 95.98 3.2 95.36 2.66 94.73 2.14 94.1 1.62 93.45 1.08 92.76 0.38 91.89 0.25 91.83 0.24 91.84 0.15 91.9 0.16Z" fill="#FFE9D2"/><path d="M85.37 11.54C85.98 11.12 86.99 11.36 87.63 11.56 88.44 11.81 89.17 12.29 89.66 12.98 89.68 13.01 89.64 13.03 89.62 13.01 89.12 12.4 88.42 12.02 87.68 11.78 87.02 11.56 86.05 11.37 85.38 11.58 85.37 11.59 85.35 11.55 85.37 11.54Z" fill="#FFE9D2"/><path d="M84.54 13.27C85.12 12.18 86.55 12.06 87.6 12.42 87.62 12.43 87.61 12.46 87.59 12.46 86.51 12.25 85.37 12.52 84.58 13.32 84.56 13.35 84.52 13.3 84.54 13.27Z" fill="#FFE9D2"/><path d="M86.35 13.11C86.38 13.1 86.4 13.16 86.37 13.17 85.72 13.4 85.16 13.64 84.68 14.16 84.65 14.19 84.6 14.17 84.62 14.13 84.86 13.41 85.7 13.24 86.35 13.11Z" fill="#FFE9D2"/><path d="M86.86 13.45C86.88 13.42 86.93 13.45 86.91 13.48 86.64 13.93 86.59 14.48 86.69 14.98 86.7 15.03 86.63 15.05 86.61 15 86.37 14.51 86.52 13.87 86.86 13.45Z" fill="#FFE9D2"/><path d="M88.42 14.15C88.44 14.12 88.5 14.15 88.48 14.18 88.34 14.46 88.41 14.75 88.45 15.04 88.46 15.12 88.36 15.13 88.33 15.06 88.24 14.76 88.22 14.42 88.42 14.15Z" fill="#FFE9D2"/><path d="M80.81 12.87C80.84 12.85 80.89 12.89 80.86 12.92 79.84 14.36 79.87 16.08 80.1 17.77 80.36 19.65 81.01 21.34 81.8 23.04 81.84 23.12 82.66 24.86 81.76 23.3 80.76 21.56 80.02 19.64 79.69 17.66 79.43 16.18 79.52 13.88 80.81 12.87Z" fill="#FFE9D2"/><path d="M81.52 10.65C81.57 10.62 81.61 10.7 81.57 10.73 80.77 11.35 80.08 12.5 79.69 13.43 79.66 13.49 79.76 13.09 79.76 13.03 79.77 11.98 80.64 11.1 81.52 10.65Z" fill="#FFE9D2"/><path d="M79.45 13.63C79.48 13.6 79.49 13.59 79.49 13.55 79.49 13.53 79.52 13.53 79.52 13.55 79.52 13.6 79.5 13.61 79.47 13.65 79.46 13.67 79.44 13.65 79.45 13.63Z" fill="#FFE9D2"/><path d="M81.61 21.84C81.88 22.87 82.6 23.68 83.15 24.57 83.73 25.5 84.29 26.42 85 27.25 85.02 27.27 84.99 27.31 84.96 27.29 84.14 26.62 83.48 25.73 82.93 24.83 82.37 23.93 81.68 22.93 81.56 21.85 81.55 21.81 81.6 21.81 81.61 21.84Z" fill="#FFE9D2"/><path d="M58.76 35.41C60.67 34.78 62.56 34.92 64.32 35.88 64.36 35.9 64.33 35.96 64.28 35.95 62.48 35.46 60.64 35.4 58.79 35.54 58.73 35.54 58.68 35.43 58.76 35.41Z" fill="#FFE9D2"/><path d="M62.43 34.74C63.51 34.67 64.44 35.36 65.15 36.12 65.17 36.14 65.14 36.16 65.13 36.15 64.68 35.86 64.27 35.57 63.78 35.35 63.34 35.16 62.88 35.03 62.43 34.87 62.36 34.85 62.37 34.74 62.43 34.74Z" fill="#FFE9D2"/><path d="M65.29 35.42C65.74 35.6 66.13 35.91 66.46 36.26 66.51 36.31 66.44 36.38 66.38 36.34 65.99 36.06 65.64 35.75 65.24 35.5 65.2 35.48 65.23 35.4 65.29 35.42Z" fill="#FFE9D2"/><path d="M56.22 37.31C56.77 36.96 57.37 36.53 58.01 36.36 58.73 36.17 59.46 36.17 60.2 36.18 60.24 36.18 60.24 36.24 60.2 36.25 58.88 36.43 57.39 36.65 56.23 37.33 56.22 37.34 56.21 37.32 56.22 37.31Z" fill="#FFE9D2"/><path d="M22.1 35.19C26.72 36.99 30.39 41.5 31.88 46.16 31.9 46.21 31.83 46.25 31.8 46.2 30.77 43.95 29.49 41.91 27.88 40.03 26.2 38.07 24.28 36.56 22.05 35.29 21.99 35.26 22.04 35.17 22.1 35.19Z" fill="#FFE9D2"/><path d="M19.5 34.75C21.25 34.87 22.98 35.93 24.12 37.22 24.16 37.26 24.1 37.33 24.06 37.29 22.66 36.13 21.14 35.57 19.47 34.92 19.37 34.88 19.4 34.74 19.5 34.75Z" fill="#FFE9D2"/><path d="M16.68 34.52C18.25 34.48 19.66 35.46 21.04 36.08 21.1 36.11 21.07 36.2 21.01 36.18 19.54 35.67 18.15 35.1 16.65 34.68 16.55 34.65 16.59 34.52 16.68 34.52Z" fill="#FFE9D2"/><path d="M63.84 21.77C65.16 22.23 65.96 23.56 66.7 24.67 67.6 26.03 68.51 27.43 69.04 28.98 69.05 29.01 69.01 29.03 68.99 29 68.33 27.6 67.5 26.35 66.53 25.15 65.61 24.02 64.87 22.91 63.77 21.92 63.7 21.85 63.75 21.73 63.84 21.77Z" fill="#FFE9D2"/><path d="M63.75 21.5C64.11 21.18 64.56 21.31 65 21.28 65.04 21.28 65.05 21.33 65.01 21.35 64.62 21.46 64.23 21.52 63.85 21.67 63.75 21.71 63.67 21.58 63.75 21.5Z" fill="#FFE9D2"/><path d="M63.68 20.89C63.82 20.47 64.29 20.33 64.69 20.28 64.77 20.27 64.82 20.39 64.73 20.42 64.39 20.55 64.09 20.69 63.85 20.98 63.78 21.06 63.64 21 63.68 20.89Z" fill="#FFE9D2"/><path d="M62.47 19.11C63.02 19.45 63.44 20.19 63.4 20.84 63.4 20.92 63.28 20.92 63.27 20.85 63.1 20.22 62.75 19.76 62.32 19.28 62.23 19.17 62.36 19.04 62.47 19.11Z" fill="#FFE9D2"/><path d="M61.13 19.24C61.64 19.32 62.16 19.56 62.51 19.95 62.58 20.02 62.46 20.12 62.39 20.05 62.04 19.69 61.56 19.53 61.11 19.35 61.06 19.32 61.07 19.23 61.13 19.24Z" fill="#FFE9D2"/><path d="M4.75 51.39C4.8 51.36 4.84 51.44 4.8 51.48 4.18 52.11 3.42 52.69 3.37 53.64 3.35 54.04 3.52 54.39 3.75 54.7 3.59 54.16 3.64 53.58 4.04 53.24 4.05 53.23 4.06 53.23 4.07 53.23 4.09 53.19 4.1 53.15 4.12 53.1 4.13 53.07 4.18 53.08 4.17 53.11 4.13 53.68 4.47 54.09 4.87 54.45 5.32 54.86 5.41 54.43 5.62 54.1 5.66 54.03 5.79 54 5.85 54.06 6.12 54.3 6.69 54.95 7.03 54.53 7.07 54.47 7.19 54.48 7.2 54.57 7.27 55.39 6.28 54.8 5.84 54.48 5.79 54.68 5.74 54.9 5.56 55 5.27 55.17 5.02 55.07 4.76 54.89 4.26 54.56 3.92 54 4.02 53.43 3.71 54.2 4.28 55.06 4.7 55.67 4.77 55.77 4.66 55.87 4.56 55.82 4.5 55.79 4.45 55.75 4.4 55.71 3.76 55.27 2.75 54.46 2.79 53.59 2.84 52.44 3.85 51.91 4.75 51.39Z" fill="#F2BB79"/><path d="M1.67 60.28C2.49 59.98 3.09 59.68 3.65 58.99 4.19 58.34 4.5 57.52 4.31 56.68 4.3 56.62 4.38 56.6 4.4 56.65 4.74 57.41 4.64 58.19 4.24 58.9 3.7 59.86 2.67 60.09 1.7 60.35 1.65 60.37 1.63 60.29 1.67 60.28Z" fill="#F2BB79"/><path d="M4.03 62.78C4.61 62.96 4.67 62.34 5.14 62.42 5.35 62.46 5.5 62.55 5.69 62.67 6.24 63.02 6.34 62.23 6.57 62.03 7.01 61.65 7.37 61.71 7.88 61.95 8.03 62.03 8.19 62.11 8.36 62.17 8.67 62.3 8.1 61.53 8.12 61.54 7.79 61.19 7.38 60.93 7.02 60.61 6.99 60.59 7.01 60.53 7.05 60.55 7.83 60.92 8.93 61.34 9.19 62.25 9.41 63.01 8.11 62.62 7.89 62.51 7.46 62.28 7 62.15 6.67 62.63 6.55 62.81 6.42 62.95 6.23 63.07 5.96 63.24 5.71 63.09 5.5 62.92 4.89 62.41 4.52 63.46 3.95 62.89 3.91 62.84 3.97 62.77 4.03 62.78Z" fill="#F2BB79"/><path d="M4.06 60.86C4.12 60.82 4.18 60.9 4.13 60.94 3.6 61.49 3.14 61.92 2.99 62.71 2.83 63.58 3.61 63.96 4.18 64.42 4.23 64.46 4.18 64.54 4.12 64.5 3.48 64.11 2.73 63.7 2.55 62.91 2.35 62.01 3.47 61.3 4.06 60.86Z" fill="#F2BB79"/><path d="M6.13 71.09C6.34 70.57 6.84 70.14 7.22 69.75 7.67 69.28 8.08 68.76 7.81 68.05 7.64 67.6 7.07 67.22 6.74 66.89 6.71 66.86 6.76 66.82 6.79 66.84 7.76 67.54 8.77 68.37 7.9 69.57 7.5 70.13 6.86 70.47 6.46 71.05 5.56 72.35 6.71 73.07 8.03 73.49 8.1 73.51 7.93 73.58 7.09 73.34 5.94 73.02 5.62 72.37 6.13 71.09Z" fill="#F2BB79"/><path d="M38.51 7.52C42.31 8.17 44.85 11.63 46.82 14.64 46.84 14.67 46.8 14.7 46.78 14.67 45.67 13.36 44.61 12.05 43.39 10.85 42.03 9.51 40.37 8.11 38.5 7.59 38.46 7.58 38.47 7.52 38.51 7.52Z" fill="#FFE9D2"/><path d="M36.96 7.11C37.87 6.44 38.74 6.64 39.79 6.82 39.83 6.83 39.83 6.89 39.78 6.89 38.81 6.85 37.97 7.08 37.02 7.24 36.95 7.25 36.9 7.15 36.96 7.11Z" fill="#FFE9D2"/><path d="M35.92 7.09C36.31 6.22 37.54 5.83 38.41 5.74 38.47 5.74 38.49 5.83 38.43 5.84 37.91 5.97 37.46 6.18 37.01 6.47 36.67 6.7 36.38 7 36.03 7.19 35.97 7.23 35.89 7.16 35.92 7.09Z" fill="#FFE9D2"/><path d="M33.68 4.68C34.81 5.17 35.62 6 35.93 7.2 35.94 7.23 35.9 7.24 35.88 7.21 35.28 6.22 34.42 5.57 33.61 4.77 33.57 4.74 33.63 4.66 33.68 4.68Z" fill="#FFE9D2"/><path d="M30.28 5.61C31.9 4.95 33.47 5.52 34.73 6.61 34.76 6.63 34.73 6.67 34.7 6.65 33.36 5.86 31.87 5.42 30.32 5.72 30.25 5.74 30.22 5.64 30.28 5.61Z" fill="#FFE9D2"/><path d="M26.34 8.12C27.21 7.33 28.51 6.81 29.63 6.5 30.99 6.13 32.38 6.76 33.63 7.27 33.66 7.28 33.65 7.32 33.62 7.32 32.37 7.08 31.29 6.68 30 6.89 28.73 7.09 27.58 7.72 26.43 8.25 26.34 8.28 26.28 8.18 26.34 8.12Z" fill="#FFE9D2"/><path d="M20.21 15.94C21.75 14.04 22.87 12.66 24.23 11.03 25.42 9.59 27.15 8.82 28.98 8.58 29.03 8.57 29.04 8.64 28.99 8.66 26.99 9.28 25.37 10.27 23.97 11.82 22.7 13.22 19.83 16.64 18.49 17.96 18.44 18.02 20.17 15.99 20.21 15.94Z" fill="#FFE9D2"/></g></svg>