<svg width="23.53" height="60.12" viewBox="0 0 23.53 60.12" xmlns="http://www.w3.org/2000/svg" xmlns:xlink="http://www.w3.org/1999/xlink" xml:space="preserve" overflow="hidden"><defs></defs><g id="g110569_1_" transform="matrix(0.477467 0.826997 -0.826997 0.477467 346.715 -122.996)"><path d="M-45.68 374.26C-46.05 372.06-53.52 371.91-53.87 370.76-54.36 369.17-51.16 370.81-51.73 369.43-51.82 369.21-59.45 366.63-56.75 366.23-55.84 366.09-55.13 366.89-54.2 366.85-52.15 366.76-60.66 362.27-59.09 359.93-58.36 358.84-50.74 368.15-49.97 368.24-48.51 368.4-53.18 362.27-52.09 361.62-50.97 360.96-48.83 368.9-47.58 368.66-46.64 368.48-49.55 363.9-47.01 363.82-45.4 363.77-46.07 366.81-45.99 367.83-45.94 368.49-46.14 369.62-45.35 369.95-44.77 370.19-44.73 367.95-43.55 368.73-42.23 369.6-44.63 371-44.63 371.73-44.64 372.32-43.85 372.61-43.81 373.15-43.74 373.88-45.02 373.94-45.68 374.26Z" id="path110565_1_" fill="#9CA220"/><path d="M-45.79 380.84C-45.32 379.99-44.7 379.22-43.95 378.61-43.38 378.15-42.69 377.88-42.17 377.35-42.04 377.22-40.15 376.04-40.32 376.67-40.39 376.93-43.8 379.11-44.3 379.49-44.68 379.78-45.47 380.66-45.63 381.15-45.72 381.43-45.89 382.61-46.1 382.71-46.27 382.79-46.45 382.85-46.63 382.93-46.44 382.21-46.16 381.5-45.79 380.84ZM-40.91 379.18C-40.2 378.25-39.15 377.7-38.21 377.04-37.66 376.65-37.14 376.25-36.6 375.84-35.79 375.21-34.95 374.7-33.91 375.11-33.87 375.13-33.53 375.25-33.53 375.3-33.53 375.41-34.21 375.44-34.29 375.44-34.9 375.49-35.7 375.72-36.19 376.09-36.98 376.69-40 379.48-40.91 379.18L-40.91 379.18ZM-42.52 386.09C-41.31 384.02-39.61 381.73-37.78 380.19-37.48 379.94-36.34 379.14-35.96 379.64-35.81 379.84-36.91 380.2-37.02 380.25-37.63 380.56-38.16 381.02-38.56 381.56-39.66 383.06-40.95 385.01-42.52 386.09ZM-36.46 384.48C-35.84 383.25-34.83 382.48-33.73 381.71-33.19 381.34-32.59 381.11-32.03 380.77-31.5 380.45-30.87 379.97-30.25 379.85-30.16 379.83-29.04 379.83-29.14 380.09-29.3 380.5-30.34 380.54-30.69 380.74-31.94 381.43-33.42 382.17-34.53 383.07-35.04 383.49-35.41 384.29-36.01 384.59-36.16 384.67-36.31 384.54-36.46 384.48L-36.46 384.48ZM-37.94 388.77C-37.01 387.07-35.68 385.56-33.92 384.75-33.89 385.79-35.94 386.01-36.29 387.23-36.35 387.43-36.02 386.92-35.87 386.78-35.62 386.55-34.17 385.29-33.81 385.78-33.8 385.79-34.64 386.38-34.68 386.42-35.26 386.96-35.95 387.48-36.4 388.14-37.04 389.09-37.78 390-38.19 391.11-38.26 391.3-38.35 392.23-38.65 392.24-39.15 392.25-38.59 390.11-38.53 389.97-38.35 389.56-38.15 389.16-37.94 388.77L-37.94 388.77ZM-31.52 390.84C-30.81 390.04-30.07 389.25-29.28 388.53-28.79 388.08-28.52 387.89-27.95 387.56-27.86 387.51-24.34 386.02-24.69 386.67-24.98 387.21-26.33 387.37-26.86 387.7-27.59 388.15-28.34 388.72-29.08 389.19-29.95 389.75-30.38 390.95-31.52 390.84ZM-31.17 395.78C-31.04 395.54-30.92 395.34-30.91 395.31-30.7 394.97-30.48 394.64-30.24 394.31-29.67 393.53-28.96 392.96-28.1 392.54-28.04 392.55-27.16 392.72-27.17 392.94-27.18 393.27-28.63 394.05-28.86 394.31-29.29 394.83-30.7 397.09-31.51 396.76-31.64 396.71-31.39 396.18-31.17 395.78L-31.17 395.78ZM-24.95 397.75C-24.69 397.37-24.35 397.07-24.01 396.77-23.85 396.62-21.58 395.1-21.29 395.56-21.11 395.85-22.56 396.14-22.71 396.22-23.61 396.65-23.81 397.57-24.95 397.75ZM-23.56 400.89C-23.53 400.83-23.5 400.78-23.47 400.72-23.06 400.01-22.58 399.42-21.77 399.18-21.67 399.23-20.74 399.19-20.72 399.31-20.66 399.69-22.03 400.24-22.24 400.44-22.61 400.79-24.82 404.94-24.05 402.13-23.92 401.69-23.76 401.28-23.56 400.89L-23.56 400.89ZM-15.83 398.51C-15.83 398.5-15.84 398.5-15.84 398.49-16.72 396.6-17.1 394.54-18.07 392.68-21.18 386.77-32.35 369.11-40.46 370.02-42.33 370.22-44.73 372.12-46.11 373.35-46.58 373.67-46.98 374.04-47.32 374.45-47.55 374.72-47.76 375.01-47.93 375.31-49.79 378.6-48.47 383.71-45.13 388.12-42.21 391.96-38.25 395.3-34.44 398.2-32.05 400.02-29.56 401.68-27.09 403.37-25.08 404.73-16.58 410.62-14.13 407.83-11.69 405.03-14.65 401.09-15.83 398.51Z" id="path110567_1_" fill="#D45729"/><path d="M-14.13 407.83C-16.58 410.61-25.08 404.73-27.09 403.37-29.56 401.69-32.05 400.02-34.44 398.2-38.26 395.29-42.22 391.96-45.13 388.12-48.48 383.72-49.8 378.61-47.93 375.31-47.76 375.01-47.55 374.72-47.32 374.45-45.49 376.3-44.12 379.3-42.36 380.99-37.38 385.8-32.17 390.38-26.77 394.73-24.78 396.33-22.69 397.94-20.23 398.6-18.81 398.98-17.21 398.97-15.82 398.51-14.65 401.09-11.69 405.03-14.13 407.83Z" fill="#D45729" opacity="0.27"/></g></svg>