<svg width="45.13" height="43.55" viewBox="0 0 45.13 43.55" xmlns="http://www.w3.org/2000/svg" xmlns:xlink="http://www.w3.org/1999/xlink" xml:space="preserve" overflow="hidden"><defs></defs><g id="g223632_1_" transform="matrix(-0.783734 0.966639 0.966639 0.783734 254.239 -168.502)"><path d="M224.02-46.07C224.63-47.65 220.23-49.22 220.25-49.49 220.25-49.57 221.28-49.52 221.12-49.93 220.53-51.49 219.73-52.83 220.08-54.57 220.2-55.15 220.25-55.72 220.3-56.31 220.31-56.44 220.27-56.8 220.35-56.7 220.73-56.23 220.86-55.21 220.91-55.3 222.15-57.22 220.74-56.87 221.74-55.63 221.91-55.42 221.92-56.14 222.04-56.38 222.45-57.17 223.14-57.65 223.73-58.28 224.7-59.3 223.39-57.3 223.82-56.9 223.99-56.74 224.17-57.19 224.35-57.34 224.84-57.74 225.32-57.78 225.92-57.86 227.42-58.07 229.02-57.2 230.42-57.56 231.2-57.76 232.05-58 232.67-58.51 232.8-58.61 233.02-59.03 233.02-58.86 233-58.54 232.63-58.14 232.67-57.86 232.71-57.54 233.52-58.54 233.56-58.22 233.61-57.8 233.34-57.25 233.37-56.78 233.44-55.66 233.95-54.45 234.19-53.35 234.37-52.49 234.46-51.62 234.44-51.61 234.14-51.58 233.72-52.41 233.7-52.12 233.6-50.35 234.4-49.24 233.17-47.35 232.58-46.44 231.51-45.38 230.43-45.1 230.01-44.99 228.76-44.64 228.37-44.92 228.33-44.95 228.06-44.99 228.09-45 228.14-45.02 229.68-44.05 229.78-43.91 229.83-43.83 229.15-43.64 229.07-43.62 227.33-43.37 225.54-45.4 224.02-46.07L224.02-46.07Z" id="path223667_1_" fill="#4B8056"/><path d="M212.42-44.12C212.45-43.85 216.52-44.34 217-44.32 217.1-44.32 217.21-44.31 217.31-44.31 218.38-44.03 219.41-43.62 220.46-43.28 221.24-43.02 221.86-42.47 222.62-42.19 222.76-42.14 226.44-41.19 225.15-42.46 224.3-43.29 221.37-43.94 218.86-44.3 219.17-44.31 219.48-44.32 219.79-44.35 220.96-44.46 222.09-44.96 223.3-44.89 224-44.79 225.75-45.68 224.34-46.23 223.31-46.63 218.28-44.34 217.85-45.04 217.84-45.06 218.25-45.21 218.29-45.23 218.71-45.42 219.05-45.73 219.44-45.96 219.93-46.24 226.41-49.39 224.22-50.07 224.13-50.1 219.62-46.91 218.18-46.33 217.56-46.09 212.36-44.6 212.42-44.12L212.42-44.12Z" id="path223434_1_" fill="#4B8056"/><g id="g223399_1_"><path d="M244.92-51.56C244.52-53.46 245.73-55.32 247.63-55.73 249.53-56.13 251.39-54.92 251.8-53.02 252.2-51.12 250.99-49.26 249.09-48.85 247.19-48.44 245.32-49.66 244.92-51.56Z" id="circle218303_1_" fill="#5A2E4B"/><ellipse cx="239.95" cy="-49.97" rx="4.37" ry="4.37" id="circle218305_1_" fill="#5A2E4B" transform="matrix(0.1039 -0.9946 0.9946 0.1039 264.708 193.877)"/><path d="M231.08-42.02C230.68-43.92 231.89-45.78 233.79-46.19 235.69-46.59 237.55-45.38 237.96-43.48 238.36-41.58 237.15-39.72 235.25-39.31 233.35-38.91 231.48-40.12 231.08-42.02Z" id="circle218307_1_" fill="#5A2E4B"/><path d="M222.52-44.6C222.12-46.5 223.33-48.36 225.23-48.77 227.13-49.17 228.99-47.96 229.4-46.06 229.8-44.16 228.59-42.3 226.69-41.89 224.79-41.49 222.93-42.7 222.52-44.6Z" id="circle218309_1_" fill="#5A2E4B"/><path d="M228.78-50.24C228.38-52.14 229.59-54 231.49-54.41 233.39-54.81 235.25-53.6 235.66-51.7 236.06-49.8 234.85-47.94 232.95-47.53 231.05-47.13 229.18-48.34 228.78-50.24Z" id="circle218311_1_" fill="#5A2E4B"/><path d="M239.37-41.68C238.97-43.58 240.18-45.44 242.08-45.85 243.98-46.25 245.84-45.04 246.25-43.14 246.65-41.24 245.44-39.38 243.54-38.97 241.64-38.56 239.77-39.78 239.37-41.68Z" id="circle218313_1_" fill="#5A2E4B"/><path d="M241.93-48.34C241.53-50.24 242.74-52.1 244.64-52.51 246.54-52.91 248.4-51.7 248.81-49.8 249.21-47.9 248-46.04 246.1-45.63 244.19-45.23 242.33-46.45 241.93-48.34Z" id="circle218315_1_" fill="#5A2E4B"/><path d="M235.06-45.67C234.66-47.57 235.87-49.43 237.77-49.84 239.67-50.24 241.53-49.03 241.94-47.13 242.34-45.23 241.13-43.37 239.23-42.96 237.33-42.55 235.46-43.77 235.06-45.67Z" id="circle218317_1_" fill="#5A2E4B"/><path d="M230.01-47.79C229.61-49.69 230.82-51.55 232.72-51.96 234.62-52.36 236.48-51.15 236.89-49.25 237.29-47.35 236.08-45.49 234.18-45.08 232.28-44.68 230.42-45.9 230.01-47.79Z" id="circle218319_1_" fill="#5A2E4B"/><path d="M227.2-45.66C226.8-47.56 228.01-49.42 229.91-49.83 231.81-50.23 233.67-49.02 234.08-47.12 234.48-45.22 233.27-43.36 231.37-42.95 229.47-42.55 227.6-43.76 227.2-45.66Z" id="circle218321_1_" fill="#5A2E4B"/><path d="M234.38-53.06C233.98-54.96 235.19-56.82 237.09-57.23 238.99-57.63 240.85-56.42 241.26-54.52 241.66-52.62 240.45-50.76 238.55-50.35 236.64-49.95 234.78-51.16 234.38-53.06Z" id="circle218323_1_" fill="#5A2E4B"/><path d="M243.69-44.07C243.29-45.97 244.5-47.83 246.4-48.24 248.3-48.64 250.16-47.43 250.57-45.53 250.97-43.63 249.76-41.77 247.86-41.36 245.95-40.95 244.09-42.17 243.69-44.07Z" id="circle218325_1_" fill="#5A2E4B"/><path d="M251.52-51.04C251.12-52.94 252.33-54.8 254.23-55.21 256.13-55.61 257.99-54.4 258.4-52.5 258.8-50.6 257.59-48.74 255.69-48.33 253.79-47.93 251.93-49.14 251.52-51.04Z" id="circle218327_1_" fill="#5A2E4B"/><path d="M245-44.77C244.6-46.67 245.81-48.53 247.71-48.94 249.61-49.34 251.47-48.13 251.88-46.23 252.28-44.33 251.07-42.47 249.17-42.06 247.26-41.66 245.4-42.87 245-44.77Z" id="path216397_1_" fill="#693766"/><path d="M243.75-39.17C243.35-41.07 244.56-42.93 246.46-43.34 248.36-43.74 250.22-42.53 250.63-40.63 251.03-38.73 249.82-36.87 247.92-36.46 246.02-36.06 244.15-37.27 243.75-39.17Z" id="circle216501_1_" fill="#894B9E"/><path d="M240.92-46.03C240.52-47.93 241.73-49.79 243.63-50.2 245.53-50.6 247.39-49.39 247.8-47.49 248.2-45.59 246.99-43.73 245.09-43.32 243.18-42.92 241.32-44.14 240.92-46.03Z" id="circle221340_1_" fill="#894B9E"/><path d="M235.48-39.1C235.08-41 236.29-42.86 238.19-43.27 240.09-43.67 241.95-42.46 242.36-40.56 242.76-38.66 241.55-36.8 239.65-36.39 237.74-35.98 235.88-37.2 235.48-39.1Z" id="circle216505_1_" fill="#894B9E"/><ellipse cx="235.24" cy="-47.49" rx="4.37" ry="4.37" id="circle216507_1_" fill="#894B9E" transform="matrix(0.1642 -0.9864 0.9864 0.1642 243.456 192.355)"/><path d="M226.23-40.52C225.83-42.42 227.04-44.28 228.94-44.69 230.84-45.09 232.7-43.88 233.11-41.98 233.51-40.08 232.3-38.22 230.4-37.81 228.49-37.41 226.63-38.62 226.23-40.52Z" id="circle216509_1_" fill="#894B9E"/><path d="M223.63-48.87C223.23-50.77 224.44-52.63 226.34-53.04 228.24-53.44 230.1-52.23 230.51-50.33 230.91-48.43 229.7-46.57 227.8-46.16 225.9-45.76 224.03-46.97 223.63-48.87Z" id="circle216511_1_" fill="#894B9E"/><path d="M229.1-54.07C228.7-55.97 229.91-57.83 231.81-58.24 233.71-58.64 235.57-57.43 235.98-55.53 236.38-53.63 235.17-51.77 233.27-51.36 231.37-50.95 229.5-52.17 229.1-54.07Z" id="circle216513_1_" fill="#894B9E"/><path d="M239.72-53.36C239.32-55.26 240.53-57.12 242.43-57.53 244.33-57.93 246.19-56.72 246.6-54.82 247-52.92 245.79-51.06 243.89-50.65 241.98-50.25 240.12-51.46 239.72-53.36Z" id="circle216515_1_" fill="#894B9E"/><path d="M248.47-47.78C248.07-49.68 249.28-51.54 251.18-51.95 253.08-52.35 254.94-51.14 255.35-49.24 255.75-47.34 254.54-45.48 252.64-45.07 250.74-44.67 248.87-45.89 248.47-47.78Z" id="circle216517_1_" fill="#894B9E"/><path d="M227.83-50.17C227.43-52.07 228.64-53.93 230.54-54.34 232.44-54.74 234.3-53.53 234.71-51.63 235.11-49.73 233.9-47.87 232-47.46 230.1-47.05 228.23-48.27 227.83-50.17Z" id="circle221334_1_" fill="#693766"/><path d="M230.39-41.64C229.99-43.54 231.2-45.4 233.1-45.81 235-46.21 236.86-45 237.27-43.1 237.67-41.2 236.46-39.34 234.56-38.93 232.65-38.53 230.79-39.74 230.39-41.64Z" id="circle221336_1_" fill="#693766"/><path d="M236.53-49.2C236.13-51.1 237.34-52.96 239.24-53.37 241.14-53.77 243-52.56 243.41-50.66 243.81-48.76 242.6-46.9 240.7-46.49 238.8-46.08 236.94-47.3 236.53-49.2Z" id="circle221338_1_" fill="#693766"/><path d="M223.61-43.81C223.21-45.71 224.42-47.57 226.32-47.98 228.22-48.38 230.08-47.17 230.49-45.27 230.89-43.37 229.68-41.51 227.78-41.1 225.88-40.7 224.01-41.91 223.61-43.81Z" id="circle216503_1_" fill="#693766"/></g></g></svg>