<svg width="93.16" height="76.12" viewBox="0 0 93.16 76.12" xmlns="http://www.w3.org/2000/svg" xmlns:xlink="http://www.w3.org/1999/xlink" xml:space="preserve" overflow="hidden"><defs></defs><g id="Layer_23_-_copie"><g><g><defs><path d="M17.9 23.88C19.32 18.2 24.28 14.16 29.28 11.12 36.09 6.99 43.83 3.86 51.78 4.26 61.22 4.74 70.22 10.56 74.51 18.99 76.66 23.22 77.65 28.33 75.89 32.74 74.97 35.05 73.03 40.73 67.4 44.87 58.37 51.51 46.29 54.63 35.44 51.8 33.77 51.36 32.13 50.8 30.57 50.05 21.19 45.56 15.33 34.16 17.9 23.88Z" id="SVGID_1_"/></defs><clipPath id="SVGID_2_"><use width="100%" height="100%" xlink:href="#SVGID_1_" overflow="visible"></use></clipPath><use width="100%" height="100%" xlink:href="#SVGID_1_" fill="#87601B" overflow="visible"></use><g clip-path="url(#SVGID_2_)"><path d="M54.82 4.29C55.54 5.3 56.69 6.07 57.63 6.89 58.57 7.71 59.58 8.48 60.55 9.27 62.67 11 65.06 12.32 66.88 14.41 70.13 18.15 70.8 23.52 70.13 28.27 69.4 33.49 67.51 38.46 63.32 41.83 61.27 43.48 59.03 45.04 56.74 46.36 54.29 47.76 51.18 48.89 49.33 51.09 48.68 51.86 48.84 53.18 49.95 53.45 52.44 54.06 55.37 53.38 57.79 52.73 60.35 52.04 63.2 51.24 65.51 49.91 70.18 47.22 73.72 42.84 75.7 37.89 79.71 27.88 79.5 14.92 70.87 7.34 68.47 5.23 65.9 3.71 62.94 2.54 60.62 1.63 57.19 0.43 55.07 2.36 54.59 2.8 54.43 3.74 54.82 4.29L54.82 4.29Z" fill="#916724"/></g><g clip-path="url(#SVGID_2_)"><path d="M55.97 3.47C53.93 0.65 46.17-0.31 43.1 0.08 39.77 0.5 36.58 1.34 33.46 2.57 27.32 4.98 21.81 8.88 18.23 14.5 14.47 20.4 14.17 27.33 15.18 34.07 16.11 40.3 18.91 46.6 23.81 50.72 26.72 53.17 30.08 54.78 33.79 55.61 35.65 56.03 37.54 56.27 39.42 56.52 41.42 56.78 43.78 56.92 45.52 55.73 45.03 55.86 44.54 55.99 44.06 56.13 44.94 56.03 45.62 55.93 46.39 55.47 47.81 54.62 48.95 53.35 48.02 52.17 47.63 51.67 43.29 51.12 42.72 50.84 43.07 51.19 33.3 47.57 31.05 46.27 26.99 43.93 24.56 39.66 23.42 35.2 22.22 30.52 21.79 24.7 24.02 20.28 26.31 15.74 30.85 12.73 35.27 10.44 37.91 9.07 40.07 8.21 42.87 7.24 45.74 6.25 51.33 5.14 56.47 4.31 57.09 4.21 56.02 3.34 55.64 2.82L55.97 3.47Z" fill="#664C12"/></g></g><g><defs><path d="M17.9 23.88C19.32 18.2 24.28 14.16 29.28 11.12 36.09 6.99 43.83 3.86 51.78 4.26 61.22 4.74 70.22 10.56 74.51 18.99 76.66 23.22 77.65 28.33 75.89 32.74 74.97 35.05 73.03 40.73 67.4 44.87 58.37 51.51 46.29 54.63 35.44 51.8 33.77 51.36 32.13 50.8 30.57 50.05 21.19 45.56 15.33 34.16 17.9 23.88Z" id="SVGID_3_"/></defs><clipPath id="SVGID_4_"><use width="100%" height="100%" xlink:href="#SVGID_3_" overflow="visible"></use></clipPath><path d="M81.07 32.5C80.9 30.05 78.68 27.89 76.08 28.7 65.98 31.86 54.45 35.4 44.92 28.81 43.3 27.69 41.54 26.3 40.19 24.76 39.46 23.3 38.83 21.79 38.27 20.25 38.2 19.42 38.2 18.58 38.2 17.77 38.2 15.24 38.43 12.8 39.49 10.46 40.05 9.22 40.85 8.15 41.53 6.99 41.88 6.39 42.6 4.15 43.48 4.06 45.49 3.86 46.39 0.56 44 0.19 41.42-0.22 39.75 1.14 37.99 2.84 37.89 2.94 37.8 3.04 37.7 3.13 37.66 3.1 37.62 3.06 37.58 3.03 36.14 1.95 33.64 1.78 32.38 3.34 30.75 5.36 29 7.28 27.12 9.07 26.03 10.1 24.91 11.07 23.86 12.12 23.27 12.48 22.72 12.94 22.23 13.47 20.93 13.42 19.62 13.97 18.86 15.36 14.58 23.16 14.61 32.55 18.71 40.14 19.36 42.05 20.17 43.87 21.13 45.58 26.15 54.45 37.04 56.74 46.46 57.51 52.58 58.01 58.14 55.65 63.59 53.16 65 52.5 65.77 50.58 65.52 49 66.58 48.85 67.64 48.65 68.67 48.39 70.73 47.87 71.97 45.57 71.42 43.55 71.31 43.15 71.15 42.8 70.94 42.48 72.51 41.89 74.04 41.17 75.45 40.3 78.23 38.59 81.33 36.12 81.07 32.5ZM73.23 32.3C73.33 32.13 73.52 32.11 73.23 32.3L73.23 32.3ZM59.9 52.84C59.95 52.77 59.99 52.72 59.99 52.72 59.99 52.8 59.96 52.84 59.9 52.84Z" fill="#664C12" clip-path="url(#SVGID_4_)" opacity="0.29"/><path d="M77.83 42.23C77.66 39.78 75.44 37.62 72.84 38.43 62.74 41.59 45.09 42.39 35.56 35.8 33.94 34.68 32.18 33.29 30.83 31.75 30.1 30.29 29.47 28.78 28.91 27.24 28.84 26.41 28.84 25.57 28.84 24.76 28.84 22.23 29.07 19.79 30.13 17.45 30.69 16.21 31.49 15.14 32.17 13.98 32.52 13.38 37.18 5.29 38.05 5.2 40.06 5 40.96 1.7 38.57 1.33 35.99 0.92 30.38 8.12 28.62 9.83 28.52 9.93 28.43 10.03 28.33 10.12 28.29 10.09 28.25 10.05 28.21 10.02 26.77 8.94 24.27 8.77 23.01 10.33 21.38 12.35 19.63 14.28 17.74 16.07 16.65 17.1 15.53 18.07 14.48 19.12 13.89 19.48 13.34 19.94 12.85 20.47 11.55 20.42 10.24 20.97 9.48 22.36 5.2 30.16 5.23 39.55 9.33 47.14 9.98 49.05 10.79 50.87 11.75 52.58 16.77 61.45 27.66 63.74 37.08 64.51 43.2 65.01 48.76 62.65 54.21 60.16 55.62 59.52 56.39 57.6 56.13 56.01 57.19 55.86 58.25 55.66 59.28 55.4 61.34 54.88 62.58 52.58 62.03 50.56 61.92 50.16 61.76 49.81 61.55 49.49 63.12 48.91 64.65 48.18 66.06 47.31 68.87 45.57 78.09 45.85 77.83 42.23ZM63.87 39.29C63.97 39.12 64.16 39.1 63.87 39.29L63.87 39.29ZM50.54 59.83C50.59 59.76 50.63 59.71 50.63 59.71 50.63 59.79 50.6 59.82 50.54 59.83Z" fill="#664C12" clip-path="url(#SVGID_4_)" opacity="0.29"/><path d="M71.54 47.2C71.37 44.75 74.63 43.57 72.04 44.38 61.94 47.54 41.49 48.15 31.96 41.56 30.34 40.44 28.01 37.8 26.66 36.26 22.85 30.63 24.22 21.53 25.29 19.19 25.85 17.95 26.65 16.88 27.33 15.72 27.68 15.12 33.41 7.2 34.29 7.11 36.3 6.91 34.68 6.66 32.3 6.28 29.72 5.87 24.11 13.07 22.35 14.78 22.25 14.88 22.16 14.98 22.06 15.07 22.02 15.04 21.98 15 21.94 14.97 20.5 13.89 18 13.72 16.74 15.28 15.11 17.3 13.36 19.23 11.47 21.02 10.38 22.05 9.26 23.02 8.21 24.07 7.62 24.43 7.07 24.89 6.58 25.42 5.28 25.37 3.97 25.92 3.21 27.31-1.07 35.11-1.04 44.5 3.06 52.09 3.71 54 4.52 55.82 5.48 57.53 10.5 66.4 21.39 68.69 30.81 69.46 36.93 69.96 42.49 67.6 47.94 65.11 49.35 64.47 50.12 62.55 49.86 60.96 50.92 60.81 51.98 60.61 53.01 60.35 55.07 59.83 56.31 57.53 55.76 55.51 55.65 55.11 55.49 54.76 55.28 54.44 56.85 53.85 58.38 53.13 59.79 52.26 62.58 50.54 71.8 50.82 71.54 47.2ZM57.58 44.25C57.68 44.09 57.86 44.06 57.58 44.25L57.58 44.25ZM44.25 64.79C44.3 64.72 44.34 64.67 44.34 64.67 44.34 64.75 44.3 64.79 44.25 64.79Z" fill="#664C12" clip-path="url(#SVGID_4_)" opacity="0.29"/></g><path d="M65.23 17.71C64.71 16.52 64.07 15.34 63.3 14.26 61.6 11.03 59 8.59 55.31 8.82 54.69 8.86 54.12 8.99 53.6 9.18 53.25 9.22 52.9 9.28 52.55 9.38 49.54 10.22 47.95 12.86 47.78 15.85 47.64 18.45 48.55 20.9 49.47 23.28 50.21 25.18 50.97 27.08 50.57 29.15 50.2 31.08 49.3 32.7 48.13 34.15 47.77 34.54 47.4 34.92 47.01 35.28 44.35 37.74 40.41 39.13 39.56 43.04 39.46 43.49 39.44 43.94 39.48 44.36 38.92 44.89 39.03 46.03 39.91 46.21 40 46.23 40.09 46.24 40.18 46.26 40.71 47.01 48.3 47.81 50.48 46.52 51.02 46.2 53.17 45.01 53.71 44.67 55.14 43.9 56.48 42.95 57.71 41.96 57.72 41.95 57.73 41.94 57.74 41.93 60.26 40.02 62.55 37.82 64.14 35.16 67.35 29.88 67.67 23.34 65.23 17.71Z" fill="#FFFFFF" opacity="0.16"/><path d="M22.31 36.54C21.95 35.05 21.38 33.2 20.58 32.2 19.59 30.97 18.38 31.22 18.08 32.95 17.71 35.03 18.46 38.32 19.68 39.96 19.84 40.5 20.03 41 20.28 41.42 21.2 43 22.5 42.67 22.72 40.85 22.88 39.58 22.64 37.89 22.31 36.54Z" fill="#543C11"/><path d="M20.91 36.74C20.55 35.25 19.98 33.4 19.18 32.4 18.19 31.17 16.98 31.42 16.68 33.15 16.31 35.23 17.06 38.52 18.28 40.16 18.44 40.7 18.63 41.2 18.88 41.62 19.8 43.2 21.1 42.87 21.32 41.05 21.48 39.78 21.24 38.09 20.91 36.74Z" fill="#623900"/><path d="M20.39 36.99C20.14 35.97 19.76 34.71 19.21 34.02 18.54 33.18 17.72 33.35 17.51 34.53 17.26 35.95 17.77 38.2 18.6 39.32 18.71 39.69 18.84 40.03 19.01 40.32 19.63 41.4 20.52 41.17 20.67 39.93 20.78 39.06 20.62 37.91 20.39 36.99Z" fill="#4F2E00"/><g><defs><path d="M38.51 38.93C38.51 38.93 36.94 48.63 40.14 55.89 42.52 61.3 50.59 69.3 57.34 70.3 64.09 71.3 72.01 71.99 79.07 66.36 86.14 60.73 93.32 42.32 89.74 39.51 86.18 36.71 38.51 38.93 38.51 38.93Z" id="SVGID_5_"/></defs><clipPath id="SVGID_6_"><use width="100%" height="100%" xlink:href="#SVGID_5_" overflow="visible"></use></clipPath><use width="100%" height="100%" xlink:href="#SVGID_5_" fill="#87601B" overflow="visible"></use><path d="M56.09 49.56C55.8 50.63 54.39 59.26 55.06 63.6 55.72 67.95 62.04 75.16 62.04 75.16 62.04 75.16 32.76 73.14 32.12 72.72 31.48 72.3 27.13 54.72 27.19 52.69 27.25 50.66 31.84 35.09 31.84 35.09L38.95 32.58 56.09 49.56Z" fill="#6D480D" clip-path="url(#SVGID_6_)"/><path d="M80.41 51.18C80.41 51.18 76.41 62.92 74.31 68 72.22 73.08 68.94 75.39 68.94 75.39 68.94 75.39 83.56 77.86 84.98 73.7 86.4 69.54 91.66 49.86 91.66 49.86L91.75 41.61 80.41 51.18Z" fill="#936721" clip-path="url(#SVGID_6_)"/></g><path d="M87.18 47.83C86.76 48.77 88.07 53.4 81.02 58.62 73.97 63.84 57.95 62.86 53.68 61.53 49.41 60.2 37.98 53.66 38.83 46.51 39.67 39.37 87.18 47.83 87.18 47.83Z" fill="#4F2E00" opacity="0.18"/><path d="M90.67 40.81C92.09 47.23 88.49 52.95 82.36 57.29 80.34 58.72 78.07 59.69 75.39 60.28 71.83 61.06 67.42 61.39 63.66 61.15 59.49 60.88 55.2 60.24 50.59 58.62 41.06 55.27 38.47 47.92 38.1 42.69 37.82 38.77 38.37 32.89 48.47 27.99 54.01 25.31 59.72 24.04 66.96 24.58 73.77 25.09 80.32 27.36 84.36 30.95 87.16 33.46 89.99 37.74 90.67 40.81Z" fill="#A36D1D"/><g><defs><path d="M17.9 23.88C19.32 18.2 24.28 14.16 29.28 11.12 36.09 6.99 43.83 3.86 51.78 4.26 61.22 4.74 70.22 10.56 74.51 18.99 76.66 23.22 77.65 28.33 75.89 32.74 74.97 35.05 73.03 40.73 67.4 44.87 58.37 51.51 46.29 54.63 35.44 51.8 33.77 51.36 32.13 50.8 30.57 50.05 21.19 45.56 15.33 34.16 17.9 23.88Z" id="SVGID_7_"/></defs><clipPath id="SVGID_8_"><use width="100%" height="100%" xlink:href="#SVGID_7_" overflow="visible"></use></clipPath><g clip-path="url(#SVGID_8_)" opacity="0.14"><path d="M40.55 60.76C41.29 57.81 40.49 54.85 40.1 51.9 39.71 48.96 39.63 45.94 40.51 43.08 42.01 38.2 46.09 34.54 50.48 32.21 55.44 29.58 61.44 27.99 67.07 28.36 69.6 28.53 71.94 29.28 74.03 30.62 75.98 31.87 78.68 34.81 81.19 34.06 80.75 34.06 80.32 34.06 79.88 34.06 79.95 34.09 80.02 34.12 80.09 34.14 81.3 34.91 82.85 33.9 82.87 32.54 82.87 32.56 81.76 34.53 82.8 32.75 83 32.41 83.09 32.04 83.15 31.66 83.26 30.94 83.05 30.28 82.84 29.61 82.38 28.09 81.67 26.93 80.57 25.78 78.69 23.82 76.02 22.55 73.5 21.65 67.86 19.66 61.53 20.31 55.87 21.87 45.46 24.75 34.81 31.77 33.07 43.26 32.56 46.62 32.84 50.1 33.89 53.34 34.88 56.41 36.34 59.58 39.2 61.31 39.7 61.61 40.41 61.33 40.55 60.76L40.55 60.76Z" fill="#664C12"/></g></g><path d="M89.72 40.16C91.19 44.41 90.96 47.57 86.68 52.45 85.29 54.03 83.18 55.82 81.05 56.93 79.12 57.93 77.38 58.6 75.15 59.25 68.64 61.17 60.61 60.62 53.9 58.87 50 57.86 47.1 56.15 45.37 54.81 43.05 53.01 42.02 51.67 40.73 49.43 39.89 47.97 39.14 45.27 38.96 43.69 38.16 36.43 42.32 31.46 49.34 27.9 55.32 24.87 62.7 24.36 69.84 25.42 72.17 25.77 80.25 27.88 84.08 31.87 86.47 34.36 88.7 37.22 89.72 40.16Z" fill="#98C101"/><g><path d="M57.58 38.83C56.34 36.79 54.4 35.19 52.59 33.67 51.44 32.7 49.65 31.46 48.1 31.4 47.69 31.38 47.45 31.74 47.4 32.1 47.19 33.81 50.02 34.23 51.05 35.03 53 36.54 54.69 38.41 56.98 39.42 57.35 39.59 57.82 39.23 57.58 38.83L57.58 38.83Z" fill="#93B914"/></g><g><path d="M55.62 40.07C54.75 39.41 54.1 38.82 53.09 38.36 52.05 37.89 50.98 37.5 49.94 37.03 48.43 36.35 46.48 34.79 44.76 34.99 43.46 35.14 43.02 36.62 44.11 37.41 45.61 38.5 47.74 39.12 49.46 39.77 50.43 40.13 51.41 40.5 52.42 40.74 53.55 41.01 54.27 40.89 55.42 40.8 55.83 40.76 55.93 40.3 55.62 40.07L55.62 40.07Z" fill="#93B914"/></g><g><path d="M55.62 42.54C53.84 41.33 52.01 41.96 49.96 41.98 48.03 42 45.73 41.43 43.87 41.99 42.38 42.43 42.75 44.5 44.23 44.61 46.2 44.76 48.29 44.85 50.27 44.69 52.32 44.52 53.85 43.97 55.62 43.05 55.83 42.94 55.79 42.65 55.62 42.54L55.62 42.54Z" fill="#93B914"/></g><g><path d="M56.01 44.54C53.56 44.68 51.51 45.63 49.28 46.61 47.62 47.34 44.83 47.98 44.4 50.04 44.3 50.53 44.62 51.02 45.15 51.02 46.97 51.04 48.98 49.58 50.58 48.83 52.69 47.84 54.65 46.93 56.3 45.25 56.55 45.01 56.39 44.52 56.01 44.54L56.01 44.54Z" fill="#93B914"/></g><g><path d="M55.43 46.82C53.83 48.19 52.45 49.67 51.17 51.34 50.28 52.5 48.96 53.86 49.27 55.41 49.34 55.75 49.7 55.87 50 55.82 51.51 55.58 52.44 53.69 53.24 52.54 54.37 50.9 55.37 49.24 56.26 47.46 56.53 46.92 55.89 46.43 55.43 46.82L55.43 46.82Z" fill="#93B914"/></g><g><path d="M56.88 48.27C54.88 50.26 54.13 53.13 53.28 55.74 52.66 57.64 55.79 58.51 56.27 56.56 56.92 53.89 57.78 51.07 57.14 48.33 57.12 48.22 56.96 48.19 56.88 48.27L56.88 48.27Z" fill="#93B914"/></g><g><path d="M60.78 49.34C58.78 51.33 58.03 54.2 57.18 56.81 56.56 58.71 59.69 59.58 60.17 57.63 60.82 54.96 61.68 52.14 61.04 49.4 61.01 49.3 60.86 49.26 60.78 49.34L60.78 49.34Z" fill="#93B914"/></g><g><path d="M61.8 48.71C60.99 50.2 61.4 52.21 61.42 53.84 61.44 55.41 60.87 57.59 62.12 58.78 62.4 59.04 62.89 59.16 63.23 58.92 64.79 57.84 64.44 55.53 64.3 53.84 64.16 52.15 64.03 49.77 62.63 48.6 62.38 48.39 61.97 48.39 61.8 48.71L61.8 48.71Z" fill="#93B914"/></g><g><path d="M59.3 37.46C59.58 35.51 59.3 33.88 58.58 32.04 58.06 30.71 57.52 28.74 56.31 27.9 56.02 27.7 55.5 27.76 55.28 28.03 54.16 29.36 55.24 30.84 55.88 32.18 56.79 34.11 57.34 35.95 58.74 37.61 58.88 37.8 59.26 37.71 59.3 37.46L59.3 37.46Z" fill="#93B914"/></g><g><path d="M61.5 35.37C62.53 34.39 62.94 32.88 63.21 31.54 63.51 30.05 63.94 28.04 62.97 26.74 62.63 26.29 61.95 26.06 61.51 26.55 60.31 27.87 60.45 30.06 60.29 31.76 60.18 32.93 59.9 34.65 60.99 35.44 61.14 35.55 61.37 35.49 61.5 35.37L61.5 35.37Z" fill="#93B914"/></g><g><path d="M64.73 36.3C65.84 35.6 66.72 34.38 67.52 33.35 68.5 32.08 69.56 30.7 70.07 29.17 70.53 27.77 68.63 26.75 67.64 27.76 66.44 28.99 65.62 30.75 64.96 32.32 64.45 33.52 63.77 34.8 64.26 36.11 64.32 36.29 64.54 36.42 64.73 36.3L64.73 36.3Z" fill="#93B914"/></g><g><path d="M68.84 37.11C70.37 37.12 71.68 35.8 72.78 34.86 74.19 33.65 75.7 32.55 76.66 30.93 77.12 30.15 76.33 28.86 75.37 29.26 73.59 30 72.31 31.31 70.99 32.69 69.95 33.77 68.47 35.17 68.5 36.78 68.5 36.95 68.65 37.11 68.84 37.11L68.84 37.11Z" fill="#93B914"/></g><g><path d="M72.44 39.36C74.4 39.63 76.4 38.25 78.18 37.55 79.78 36.92 82.67 36.71 83.48 34.98 83.62 34.67 83.65 34.23 83.35 33.98 81.62 32.56 78.89 34.01 77.11 34.74 75.29 35.49 72.65 36.52 71.99 38.55 71.88 38.86 72.1 39.31 72.44 39.36L72.44 39.36Z" fill="#93B914"/></g><g><path d="M73.43 42.35C75.21 43.51 77.93 43.11 79.96 43.11 81.24 43.11 82.52 43.09 83.8 43.08 84.93 43.07 85.72 43.15 86.51 42.25 86.94 41.77 86.92 41.15 86.51 40.67 85.75 39.77 84.93 39.82 83.8 39.82 82.42 39.83 81.01 39.88 79.64 40.03 77.61 40.25 74.86 40.31 73.37 41.87 73.24 42.03 73.27 42.25 73.43 42.35L73.43 42.35Z" fill="#93B914"/></g><g><path d="M74.19 44.4C76.15 45.78 78.17 46.85 80.35 47.85 82 48.61 84.32 50.15 86.17 49.54 86.82 49.32 87.09 48.64 86.78 48.03 85.87 46.24 82.93 45.68 81.16 45.1 78.92 44.36 76.76 43.82 74.42 43.56 73.93 43.5 73.87 44.17 74.19 44.4L74.19 44.4Z" fill="#93B914"/></g><g><path d="M71.91 48.68C73.39 50.19 74.7 51.8 76.26 53.24 77.52 54.4 78.87 56.06 80.73 55.66 81.21 55.56 81.53 55.06 81.54 54.6 81.58 52.74 79.54 51.69 78.17 50.76 76.39 49.55 74.52 48.73 72.64 47.72 72.04 47.41 71.41 48.18 71.91 48.68L71.91 48.68Z" fill="#93B914"/></g><g><path d="M74.25 46.41C75.91 47.82 77.38 49.32 79.13 50.67 80.54 51.75 82.06 53.31 84.14 52.93 84.67 52.83 85.04 52.37 85.05 51.94 85.09 50.2 82.8 49.22 81.28 48.36 79.29 47.23 77.19 46.46 75.08 45.53 74.4 45.23 73.69 45.95 74.25 46.41L74.25 46.41Z" fill="#93B914"/></g><g><path d="M69.78 48.43C71.07 51.49 73.02 54.86 75.96 56.58 77.14 57.28 78.3 55.92 77.74 54.8 76.19 51.64 73 50.21 70.48 48.02 70.2 47.78 69.6 48.01 69.78 48.43L69.78 48.43Z" fill="#93B914"/></g><g><path d="M65.97 49.59C67.26 52.65 69.21 56.02 72.15 57.74 73.33 58.44 74.49 57.08 73.93 55.96 72.38 52.8 69.19 51.37 66.67 49.18 66.39 48.94 65.79 49.17 65.97 49.59L65.97 49.59Z" fill="#93B914"/></g><g><path d="M64.91 50.21C64.1 51.38 64.7 52.69 65.06 53.94 65.54 55.61 65.82 57.4 66.93 58.77 67.78 59.81 69.15 58.83 69.28 57.8 69.63 55.07 67.49 51.76 65.42 50.15 65.25 50 65.04 50.02 64.91 50.21L64.91 50.21Z" fill="#93B914"/></g><g><path d="M61.51 39.28C62.52 36.78 63.12 32.83 61.81 30.35 61.61 29.98 61.02 29.98 60.83 30.35 59.52 32.83 60.13 36.78 61.13 39.28 61.21 39.46 61.43 39.46 61.51 39.28L61.51 39.28Z" fill="#7FAE00"/></g><g><path d="M64.83 39.24C64.93 38.48 65.56 37.54 65.87 36.8 66.2 36.01 66.49 35.23 66.74 34.41 67.14 33.13 67.7 31.91 66.97 30.67 66.78 30.34 66.35 30.24 66.02 30.42 64.52 31.26 64.33 33.44 64.05 34.99 63.77 36.52 63.54 37.97 64.32 39.38 64.48 39.64 64.8 39.48 64.83 39.24L64.83 39.24Z" fill="#7FAE00"/></g><g><path d="M66.89 39.8C68.46 39.12 69.61 37.58 70.66 36.28 71.68 35.02 72.86 33.72 73.27 32.13 73.42 31.55 72.82 31.19 72.33 31.41 70.74 32.11 69.6 33.63 68.52 34.95 67.51 36.18 66.36 37.6 66.1 39.21 66.02 39.68 66.44 39.99 66.89 39.8L66.89 39.8Z" fill="#7FAE00"/></g><g><path d="M58.95 38.65C59.58 37.44 58.82 35.92 58.45 34.7 57.97 33.12 57.58 31.41 56.69 30 56.47 29.65 55.88 29.68 55.78 30.12 55.39 31.81 55.77 33.66 56.27 35.3 56.66 36.58 57.11 38.38 58.49 38.84 58.65 38.9 58.87 38.81 58.95 38.65L58.95 38.65Z" fill="#7FAE00"/></g><g><path d="M57.48 37.37C57.82 36.05 56.74 34.74 56.11 33.63 55.29 32.2 54.52 30.62 53.34 29.44 53.05 29.15 52.48 29.31 52.48 29.76 52.48 31.5 53.26 33.21 54.12 34.7 54.78 35.86 55.63 37.51 57.07 37.65 57.24 37.67 57.44 37.54 57.48 37.37L57.48 37.37Z" fill="#7FAE00"/></g><g><path d="M57.17 39.51C56.94 37.95 55.76 36.68 54.8 35.48 53.88 34.35 53.05 32.56 51.61 32.07 51.21 31.93 50.84 32.29 50.82 32.67 50.75 34.21 52.33 35.73 53.22 36.87 54.16 38.09 55.3 39.46 56.86 39.82 57.06 39.86 57.2 39.7 57.17 39.51L57.17 39.51Z" fill="#7FAE00"/></g><g><path d="M54.49 40.7C53.87 39.45 52.5 38.94 51.33 38.31 50.61 37.93 49.92 37.52 49.27 37.02 48.76 36.63 48.5 36.35 47.85 36.31 47.56 36.29 47.32 36.57 47.32 36.84 47.29 38.16 49.02 38.91 50.03 39.39 51.34 40.02 52.78 40.82 54.23 41.03 54.43 41.07 54.59 40.89 54.49 40.7L54.49 40.7Z" fill="#7FAE00"/></g><g><path d="M56.87 45.93C55.35 46.13 54.48 47.1 53.45 48.17 52.59 49.06 51.35 50.38 51.67 51.73 51.72 51.93 51.92 52.06 52.12 52.07 53.47 52.11 54.52 50.66 55.28 49.73 56.18 48.62 57.06 47.73 57.19 46.26 57.2 46.09 57.03 45.91 56.87 45.93L56.87 45.93Z" fill="#7FAE00"/></g><g><path d="M57.63 46.34C56.19 46.97 55.8 49.31 55.41 50.68 54.98 52.17 54.34 53.9 55.42 55.23 55.65 55.51 56.06 55.48 56.35 55.35 57.85 54.67 58.02 52.62 58.35 51.2 58.66 49.85 59.44 47.84 58.58 46.6 58.34 46.25 57.99 46.18 57.63 46.34L57.63 46.34Z" fill="#7FAE00"/></g><g><path d="M62.1 47.74C61.18 48.88 61.22 50.42 61.12 51.83 61.01 53.44 60.7 55.06 61.53 56.53 61.77 56.96 62.5 57.12 62.84 56.7 63.93 55.37 63.92 53.79 63.91 52.13 63.9 50.64 63.98 48.9 62.93 47.73 62.74 47.53 62.29 47.51 62.1 47.74L62.1 47.74Z" fill="#7FAE00"/></g><g><path d="M61.55 48.03C60.58 48.89 60.07 50.35 59.53 51.65 58.9 53.14 58.16 54.59 58.17 56.16 58.17 56.62 58.57 56.93 58.93 56.62 60.07 55.62 60.61 54.14 61.17 52.58 61.68 51.18 62.32 49.57 62.07 48.23 62.03 47.97 61.76 47.85 61.55 48.03L61.55 48.03Z" fill="#7FAE00"/></g><g><path d="M66.62 49.1C66.81 50.38 67.74 51.61 68.53 52.78 69.43 54.12 70.22 55.54 71.54 56.4 71.93 56.65 72.41 56.49 72.34 56.02 72.13 54.52 71.19 53.25 70.2 51.92 69.31 50.72 68.32 49.3 67.06 48.77 66.83 48.67 66.58 48.83 66.62 49.1L66.62 49.1Z" fill="#7FAE00"/></g><g><path d="M73.41 43.52C74.53 44.18 76.06 44.22 77.47 44.35 79.08 44.49 80.68 44.77 82.18 44.28 82.62 44.14 82.79 43.66 82.39 43.42 81.09 42.64 79.52 42.57 77.86 42.51 76.37 42.45 74.64 42.33 73.44 42.97 73.21 43.08 73.17 43.38 73.41 43.52L73.41 43.52Z" fill="#7FAE00"/></g><g><path d="M64.85 46.81C64.21 48.33 64.83 50.11 65.26 51.63 65.74 53.32 66.09 55.03 67.61 56.07 68.05 56.37 68.58 56.04 68.73 55.61 69.35 53.9 68.54 52.17 67.93 50.56 67.4 49.17 66.91 47.41 65.57 46.61 65.35 46.49 64.96 46.55 64.85 46.81L64.85 46.81Z" fill="#7FAE00"/></g><g><path d="M67.42 46.73C67.41 48.51 68.7 50.36 69.75 51.71 70.46 52.61 72.28 54.89 73.67 53.87 75.03 52.87 73.19 51.02 72.44 50.28 71.14 49 69.83 47.15 68.2 46.29 67.85 46.11 67.42 46.33 67.42 46.73L67.42 46.73Z" fill="#7FAE00"/></g><g><path d="M69.5 44.74C69.7 46.36 71.11 47.83 72.25 48.89 73.56 50.11 75.25 51.81 77.15 51.74 78.17 51.7 78.69 50.69 78.26 49.81 77.5 48.24 75.46 47.46 74.06 46.55 72.79 45.72 71.37 44.59 69.84 44.4 69.67 44.38 69.48 44.57 69.5 44.74L69.5 44.74Z" fill="#7FAE00"/></g><g><path d="M72.42 43.85C73.38 45.05 74.73 45.94 76.13 46.56 76.91 46.91 78.91 47.85 79.48 46.65 80.01 45.56 78.37 44.88 77.63 44.64 76.03 44.12 74.4 43.68 72.78 43.22 72.4 43.11 72.2 43.58 72.42 43.85L72.42 43.85Z" fill="#7FAE00"/></g><g><path d="M70.98 41.65C71.94 42.95 73.45 43.14 74.99 43.05 76.88 42.94 79.13 42.99 80.59 41.62 80.96 41.27 80.86 40.62 80.43 40.36 79.04 39.55 77.43 39.83 75.9 40.07 74.37 40.31 72.79 40.48 71.3 40.89 71 40.97 70.78 41.37 70.98 41.65L70.98 41.65Z" fill="#7FAE00"/></g><g><path d="M70.6 41.12C72.36 40.45 73.93 39.29 75.56 38.37 77.07 37.52 79.02 37.03 79.73 35.31 79.87 34.97 79.64 34.4 79.3 34.25 77.37 33.4 75.37 34.86 73.84 35.97 72.25 37.12 70.66 38.61 69.97 40.49 69.84 40.84 70.24 41.25 70.6 41.12L70.6 41.12Z" fill="#7FAE00"/></g><g><path d="M53.95 42.3C51.89 41.64 49.74 41.32 47.58 41.23 46.01 41.17 46.09 43.45 47.58 43.62 48.59 43.73 49.44 43.28 50.42 43.09 51.58 42.87 52.69 42.88 53.86 43 54.27 43.04 54.32 42.41 53.95 42.3L53.95 42.3Z" fill="#7FAE00"/></g><g><path d="M47.69 48.36C48.88 48.27 49.92 47.66 50.97 47.13 51.99 46.62 53.08 46.04 53.65 45.01 53.86 44.64 53.59 44.28 53.2 44.23 52 44.08 50.88 44.67 49.87 45.26 48.86 45.85 47.8 46.43 47.14 47.42 46.9 47.8 47.23 48.4 47.69 48.36L47.69 48.36Z" fill="#7FAE00"/></g><g><path d="M49.35 51.88C50.42 51.35 51.14 50.38 51.92 49.5 52.67 48.64 53.46 47.69 53.6 46.52 53.65 46.1 53.26 45.87 52.89 45.97 51.72 46.29 50.91 47.26 50.2 48.19 49.49 49.12 48.73 50.06 48.5 51.22 48.4 51.67 48.93 52.09 49.35 51.88L49.35 51.88Z" fill="#7FAE00"/></g><path d="M55.41 43.65C54.1 41.1 55.89 38.4 61.04 37.73 66.19 37.06 70.39 37.63 71.25 40.59 72.11 43.55 72.49 47.56 68.39 48.22 64.29 48.9 57.32 47.37 55.41 43.65Z" fill="#FFFE97"/><g opacity="0.84"><g><path d="M63.77 40C64.81 39.32 65.16 37.77 65.62 36.66 66.09 35.55 67.07 34.19 66.51 33 66.44 32.85 66.19 32.74 66.03 32.8 64.87 33.26 64.68 34.69 64.28 35.77 63.84 36.97 62.93 38.49 63.24 39.78 63.29 40 63.58 40.13 63.77 40L63.77 40Z" fill="#1B2201"/></g><g><path d="M65.24 39.91C66.48 40.01 67.16 38.28 67.66 37.42 68.26 36.38 69.47 34.8 69.07 33.56 68.98 33.28 68.7 33.12 68.42 33.19 66.94 33.55 66.11 35.98 65.48 37.21 65.3 37.57 64.21 39.83 65.24 39.91L65.24 39.91Z" fill="#1B2201"/></g><g><path d="M67.09 39.63C67.6 39.28 68.17 39.16 68.7 38.86 69.19 38.58 69.61 38.15 70.05 37.8 70.95 37.1 72.07 36.36 72.68 35.39 73.09 34.74 72.41 33.88 71.69 34.1 70.59 34.43 69.54 35.43 68.78 36.27 68.4 36.68 67.97 37.1 67.68 37.58 67.33 38.16 67.23 38.85 66.92 39.46 66.87 39.56 66.98 39.71 67.09 39.63L67.09 39.63Z" fill="#1B2201"/></g><g><path d="M68.56 40.32C69.83 40.55 70.83 40.09 71.98 39.58 73.13 39.07 74.6 38.58 75.21 37.39 75.33 37.15 75.24 36.79 74.94 36.73 73.71 36.49 72.54 37.18 71.47 37.72 70.28 38.33 69.12 38.81 68.44 40 68.37 40.11 68.43 40.29 68.56 40.32L68.56 40.32Z" fill="#1B2201"/></g><g><path d="M69.84 42.16C72.34 42.3 74.71 41.84 77.11 41.15 77.4 41.07 77.71 40.81 77.77 40.49 77.8 40.3 77.84 40.17 77.77 39.99 77.62 39.58 77.31 39.33 76.86 39.3 74.22 39.13 71.75 39.63 69.58 41.2 69.18 41.51 69.31 42.13 69.84 42.16L69.84 42.16Z" fill="#1B2201"/></g><g><path d="M69.27 44.15C70.69 44.8 72.23 44.64 73.76 44.62 74.99 44.61 76.45 44.85 77.46 44.06 77.59 43.96 77.58 43.75 77.52 43.62 76.95 42.49 75.49 42.34 74.34 42.28 72.76 42.2 70.95 42.11 69.46 42.69 68.89 42.91 68.58 43.83 69.27 44.15L69.27 44.15Z" fill="#1B2201"/></g><g><path d="M68.73 45.62C69.62 46.57 70.69 47 71.9 47.42 73.09 47.83 74.28 48.51 75.54 48.61 75.97 48.64 76.13 48.09 75.87 47.81 75.03 46.9 73.68 46.35 72.63 45.69 71.54 45 70.55 44.48 69.25 44.37 68.58 44.31 68.32 45.19 68.73 45.62L68.73 45.62Z" fill="#1B2201"/></g><g><path d="M67.4 45.24C67.5 46.41 67.87 47.2 68.57 48.15 69.23 49.05 70.11 50.27 71.1 50.8 71.81 51.18 72.93 50.53 72.59 49.66 72.17 48.57 71.17 47.6 70.33 46.79 69.44 45.93 68.69 45.43 67.48 45.18 67.44 45.17 67.4 45.2 67.4 45.24L67.4 45.24Z" fill="#1B2201"/></g><g><path d="M64.98 45.82C65.15 46.95 65.32 48.1 65.82 49.14 66.24 50 66.8 51.11 67.68 51.56 67.95 51.7 68.37 51.6 68.43 51.25 68.84 49.11 66.9 46.91 65.55 45.48 65.29 45.22 64.93 45.51 64.98 45.82L64.98 45.82Z" fill="#1B2201"/></g><g><path d="M66.08 46.07C66.41 47.21 66.67 48.31 67.17 49.4 67.6 50.35 68.12 51.5 69.23 51.74 69.67 51.84 70.08 51.61 70.23 51.17 70.57 50.15 69.91 49.17 69.39 48.32 68.77 47.32 68 46.48 67.29 45.55 66.86 45.01 65.86 45.29 66.08 46.07L66.08 46.07Z" fill="#1B2201"/></g><g><path d="M63.61 45.18C63.28 47.33 62.98 49.53 63.51 51.69 63.85 53.1 65.66 52.83 66.11 51.69 67.01 49.4 66.3 46.89 64.9 45.01 64.58 44.59 63.71 44.51 63.61 45.18L63.61 45.18Z" fill="#1B2201"/></g><g><path d="M61.45 45.41C60.66 47.28 60 49.83 60.43 51.85 60.52 52.29 61.06 52.34 61.36 52.09 63.09 50.65 63.51 47.64 62.9 45.59 62.72 45.02 61.73 44.75 61.45 45.41L61.45 45.41Z" fill="#1B2201"/></g><g><path d="M60.49 45.27C59.46 46.07 58.87 47.23 58.3 48.38 57.79 49.4 57.38 50.59 57.57 51.74 57.64 52.19 58.17 52.27 58.51 52.12 60.65 51.18 61.84 47.65 61.38 45.5 61.28 45.07 60.78 45.04 60.49 45.27L60.49 45.27Z" fill="#1B2201"/></g><g><path d="M56.15 51.01C57.56 50.41 58.65 48.57 59.43 47.3 59.88 46.57 60.79 44.54 59.53 44.01 58.4 43.54 57.11 45.14 56.58 45.89 55.67 47.17 54.64 48.95 55.07 50.56 55.2 51.07 55.72 51.19 56.15 51.01L56.15 51.01Z" fill="#1B2201"/></g><g><path d="M52.9 48.91C53.53 48.62 54.08 48.52 54.66 48.13 55.15 47.8 55.66 47.41 56.09 47 56.94 46.19 57.73 45.39 58.02 44.25 58.1 43.94 57.83 43.73 57.55 43.78 56.37 43.97 55.47 44.72 54.57 45.49 54.13 45.87 53.73 46.31 53.35 46.75 52.9 47.26 52.74 47.84 52.41 48.42 52.21 48.75 52.59 49.05 52.9 48.91L52.9 48.91Z" fill="#1B2201"/></g><g><path d="M50.43 40.27C51.81 40.49 53.17 40.79 54.55 41.01 55.79 41.21 57.15 41.57 58.35 41.08 58.72 40.93 58.92 40.47 58.59 40.15 56.66 38.24 52.82 39.01 50.43 39.49 50.05 39.56 50.03 40.21 50.43 40.27L50.43 40.27Z" fill="#1B2201"/></g><g><path d="M50.73 42.4C51.93 42.69 53.05 42.83 54.28 42.9 55.4 42.97 56.41 43.02 57.32 42.29 57.64 42.04 57.63 41.4 57.32 41.15 56.41 40.42 55.41 40.47 54.28 40.54 53.05 40.62 51.92 40.75 50.73 41.04 50.06 41.21 50.06 42.23 50.73 42.4L50.73 42.4Z" fill="#1B2201"/></g><g><path d="M53.4 37.27C54.56 38.77 56.8 41.29 58.95 40.31 59.23 40.18 59.41 39.81 59.4 39.52 59.36 38.37 58.36 37.62 57.44 37.08 56.39 36.47 55.32 36.21 54.14 35.99 53.35 35.83 52.93 36.66 53.4 37.27L53.4 37.27Z" fill="#1B2201"/></g><g><path d="M61 39.13C60.68 37.95 59.69 36.94 58.95 35.99 58.27 35.12 57.64 34.03 56.61 33.54 55.94 33.21 55.1 33.9 55.53 34.62 55.81 35.08 55.93 35.6 56.18 36.07 56.5 36.66 56.94 37.22 57.33 37.75 58.04 38.7 58.84 39.7 59.96 40.16 60.59 40.4 61.15 39.69 61 39.13L61 39.13Z" fill="#1B2201"/></g><g><path d="M62.57 39.31C63.41 37.86 64.16 35.79 63.43 34.16 63.2 33.66 62.43 33.72 62.18 34.16 61.38 35.6 61.73 37.68 61.98 39.23 62.03 39.52 62.44 39.53 62.57 39.31L62.57 39.31Z" fill="#1B2201"/></g><g><path d="M50.63 45.24C51.93 45.68 53.39 45.58 54.7 45.21 55.73 44.91 57.18 44.45 57.83 43.57 57.93 43.43 57.9 43.24 57.83 43.1 57.22 41.93 55.53 42.03 54.4 42.19 52.91 42.4 51.4 42.98 50.33 44.07 49.93 44.45 50.13 45.07 50.63 45.24L50.63 45.24Z" fill="#1B2201"/></g><g><path d="M50.56 47.38C52.23 46.98 54.94 46.57 55.68 44.78 55.76 44.59 55.63 44.26 55.44 44.18 53.4 43.3 51.33 45.61 50.4 47.16 50.33 47.27 50.44 47.41 50.56 47.38L50.56 47.38Z" fill="#1B2201"/></g><g><path d="M58.91 34.66C59.23 36.21 59.19 38.18 60.39 39.37 60.93 39.9 61.82 39.64 62.03 38.94 62.6 37.09 61.14 35.31 60.05 34 59.58 33.43 58.78 34.06 58.91 34.66L58.91 34.66Z" fill="#1B2201"/></g><g><path d="M63.19 34.83C63.08 35.73 62.75 36.65 62.73 37.55 62.72 38.12 62.72 39 63.48 39.05 64.18 39.1 64.48 38.2 64.6 37.66 64.8 36.78 64.66 35.72 64.59 34.83 64.52 33.91 63.3 33.94 63.19 34.83L63.19 34.83Z" fill="#1B2201"/></g><g><path d="M68.04 40.08C69.45 40.81 74.15 38.39 72.48 36.71 71.51 35.74 69.67 36.65 68.84 37.35 68.29 37.81 66.86 39.47 68.04 40.08L68.04 40.08Z" fill="#1B2201"/></g><g><path d="M68.71 41.37C69.14 41.47 69.51 41.66 69.98 41.71 70.47 41.76 70.95 41.72 71.43 41.66 72.45 41.54 73.51 41.16 73.95 40.16 74.2 39.6 74.09 39.06 73.57 38.7 72.6 38.04 71.47 38.32 70.49 38.78 70.04 38.99 69.63 39.22 69.24 39.53 68.91 39.79 68.73 40.13 68.46 40.4 68.16 40.71 68.28 41.27 68.71 41.37L68.71 41.37Z" fill="#1B2201"/></g><g><path d="M69.29 43.12C70.76 43.7 73.02 44.42 74.12 42.83 74.4 42.43 74.26 41.85 73.95 41.51 72.68 40.18 70.48 41.29 69.14 41.91 68.56 42.18 68.82 42.93 69.29 43.12L69.29 43.12Z" fill="#1B2201"/></g><g><path d="M68.9 45.09C69.46 46.55 71.19 47.2 72.65 47.34 73.75 47.45 76.11 47.39 76.41 45.94 76.7 44.56 74.83 43.9 73.82 43.63 72.4 43.25 70.3 43.07 69.15 44.16 68.92 44.39 68.78 44.79 68.9 45.09L68.9 45.09Z" fill="#1B2201"/></g><g><path d="M74.03 49.55C73.82 48.87 73.67 48.26 73.28 47.64 72.94 47.09 72.54 46.55 72.11 46.06 71.51 45.37 69.92 44.14 69.01 45.02 68.1 45.89 69.34 47.57 69.99 48.18 70.47 48.62 71 49.02 71.53 49.39 72.11 49.79 72.73 49.95 73.39 50.18 73.77 50.31 74.14 49.9 74.03 49.55L74.03 49.55Z" fill="#1B2201"/></g><g><path d="M62.77 52.72C62.62 52.54 62.72 52.48 63.07 52.55 63.18 52.5 63.29 52.46 63.41 52.41 63.74 52.23 63.99 51.9 64.22 51.6 64.74 50.9 65.15 50.06 65.42 49.23 65.86 47.91 65.89 45.25 63.99 45.02 62.34 44.83 61.52 47.05 61.29 48.31 61.14 49.18 61.01 50.1 61.18 50.98 61.35 51.86 61.79 52.08 62.29 52.71 62.4 52.87 62.65 52.83 62.77 52.72L62.77 52.72Z" fill="#1B2201"/></g><g><path d="M66.88 40.22C67.42 39.88 67.78 39.13 68.08 38.59 68.47 37.88 68.66 37.19 68.55 36.38 68.49 35.95 67.91 35.79 67.58 35.99 66.43 36.66 65.84 38.22 65.69 39.48 65.66 39.77 65.88 40.04 66.1 40.19 66.12 40.2 66.13 40.21 66.15 40.22 66.35 40.36 66.67 40.35 66.88 40.22L66.88 40.22Z" fill="#1B2201"/></g><g><path d="M64.6 39.62C65.18 39.11 65.41 38.52 65.7 37.83 66 37.12 66.27 36.39 66.33 35.62 66.41 34.68 65.24 34.44 64.65 34.92 63.45 35.9 62.83 38.16 63.69 39.51 63.91 39.83 64.31 39.87 64.6 39.62L64.6 39.62Z" fill="#1B2201"/></g></g><path d="M56.66 43.27C55.57 41.14 57.06 38.9 61.35 38.35 65.64 37.79 69.13 38.27 69.85 40.73 70.56 43.19 70.88 46.53 67.47 47.08 64.05 47.64 58.25 46.37 56.66 43.27Z" fill="#FFFE97" opacity="0.24"/><g><defs><path d="M89.72 40.16C91.19 44.41 90.96 47.57 86.68 52.45 85.29 54.03 83.18 55.82 81.05 56.93 79.12 57.93 77.38 58.6 75.15 59.25 68.64 61.17 60.61 60.62 53.9 58.87 50 57.86 47.1 56.15 45.37 54.81 43.05 53.01 42.02 51.67 40.73 49.43 39.89 47.97 39.14 45.27 38.96 43.69 38.16 36.43 42.32 31.46 49.34 27.9 55.32 24.87 62.7 24.36 69.84 25.42 72.17 25.77 80.25 27.88 84.08 31.87 86.47 34.36 88.7 37.22 89.72 40.16Z" id="SVGID_9_"/></defs><clipPath id="SVGID_10_"><use width="100%" height="100%" xlink:href="#SVGID_9_" overflow="visible"></use></clipPath><g clip-path="url(#SVGID_10_)" opacity="0.25"><path d="M70.13 26C76.42 28.65 78.71 30.25 82.46 33.91 85.87 37.24 87.24 43 86.09 47.58 85.05 51.71 82.27 55.43 78.66 57.69 74.05 60.58 68.65 61.14 63.75 63.33 62.62 63.84 63.11 65.4 64.07 65.74 68.86 67.47 74.34 66.29 78.87 64.32 83.18 62.45 86.93 59.51 89.68 55.69 95.5 47.6 93.84 35.25 85.96 29.09 83.75 27.37 81.28 26.19 78.69 25.15 76.07 24.1 73.06 23.19 70.22 23.5 69.26 23.6 65.61 23.97 66.56 24.75L70.13 26Z" fill="#98C101"/></g><g clip-path="url(#SVGID_10_)" opacity="0.22"><path d="M66.99 24.34C64.62 23.07 57.87 23.12 55.41 23.84 52.85 24.59 50.38 25.7 48.09 27.07 43.48 29.82 38.87 33.44 36.84 38.57 34.63 44.18 36.73 50.45 40.21 55.03 43.38 59.2 48.19 64.48 53.97 63.35 55.57 63.04 55.91 60.5 54.44 59.78 50.75 57.99 47.31 54.71 44.8 51.49 42.21 48.17 40.43 43.54 42.47 39.52 44.27 35.98 47.76 32.72 51.12 30.67 52.92 29.56 54.82 28.65 56.83 28 58.89 27.33 61.4 26.48 63.43 25.59 64.75 25 66.99 24.34 66.99 24.34Z" fill="#7FAE00"/></g></g><g opacity="0.26"><path d="M55.05 30.06C53.3 28.21 49.88 30.26 48.27 31.4 45.91 33.06 44.13 35.28 43.19 38.02 42.31 40.58 41.69 43.85 41.97 46.56 42.29 49.64 44 52.23 46.41 54.1 48.83 55.98 51.73 57.08 54.61 58.06 57.6 59.09 60.71 59.8 63.87 59.93 66.74 60.05 69.6 59.54 72.22 58.35 74.54 57.3 77.34 55.07 77.46 52.3 77.5 51.33 76.57 50.39 75.6 50.44 73.78 50.53 71.91 51.63 70.16 52.16 68.47 52.67 66.86 52.95 65.09 52.98 60.83 53.04 56.05 51.69 52.26 49.77 50.77 49.01 49.14 47.95 48.53 46.3 47.96 44.77 48.45 42.55 48.72 40.98 49.06 39.02 49.79 37.43 51.18 36.01 51.9 35.27 52.61 34.51 53.35 33.8 54.04 33.14 54.47 32.46 55.05 31.72 55.45 31.21 55.53 30.56 55.05 30.06L55.05 30.06Z" fill="#FFFFFF"/></g><g opacity="0.2"><path d="M61.48 29.78C62.07 30.46 63.1 30.77 63.93 31.04 65.06 31.42 66.15 31.86 67.26 32.29 69.48 33.14 71.85 33.82 73.94 34.95 75.73 35.92 76.28 37.36 76.69 39.29 76.89 40.24 77.03 41.15 77.05 42.12 77.07 43.32 76.56 44.45 76.65 45.66 76.81 47.79 79.07 49.48 81.09 48.21 84.43 46.11 83.96 41.39 83.26 38.03 82.54 34.6 80.76 31.4 77.6 29.69 74.56 28.04 70.71 27.42 67.31 27.08 65.75 26.92 63.87 26.78 62.5 27.64 61.91 28.03 60.8 29 61.48 29.78L61.48 29.78Z" fill="#FFFFFF"/></g><g><path d="M72.09 54.32C72.74 55.04 73.41 55.75 74.09 56.44 74.7 57.06 75.32 57.76 76.06 58.22 76.18 58.29 76.27 58.14 76.2 58.04 75.64 57.32 74.87 56.74 74.21 56.11 73.54 55.47 72.9 54.81 72.26 54.14 72.16 54.02 71.98 54.2 72.09 54.32L72.09 54.32Z" fill="#FFFFFF"/></g><g><path d="M73.19 53.32C74.93 54.71 76.81 56.21 78.96 56.89 79.07 56.92 79.12 56.77 79.03 56.71 77.15 55.46 75.1 54.55 73.29 53.17 73.22 53.12 73.11 53.26 73.19 53.32L73.19 53.32Z" fill="#FFFFFF"/></g><g><path d="M78.12 45.47C80.84 47.08 84.2 46.12 87.06 47.22 87.13 47.25 87.17 47.14 87.11 47.1 86.01 46.39 84.77 46.14 83.47 46.02 81.69 45.85 79.92 45.5 78.15 45.36 78.09 45.35 78.07 45.44 78.12 45.47L78.12 45.47Z" fill="#FFFFFF"/></g><g><path d="M52.89 57.17C53.81 55.6 54.91 54.21 56 52.77 56.07 52.68 55.92 52.58 55.85 52.65 54.54 53.89 53.57 55.5 52.83 57.14 52.81 57.17 52.86 57.21 52.89 57.17L52.89 57.17Z" fill="#FFFFFF"/></g><g><path d="M75.88 29.66C74.28 30.34 72.71 31.29 71.66 32.71 71.6 32.79 71.72 32.86 71.78 32.81 73.08 31.66 74.36 30.58 75.95 29.84 76.05 29.79 75.98 29.62 75.88 29.66L75.88 29.66Z" fill="#FFFFFF"/></g><g><path d="M64.03 53.09C64.47 55.21 64.8 57.54 65.74 59.51 65.79 59.61 65.95 59.56 65.95 59.45 65.79 57.27 64.94 55.08 64.28 53.02 64.23 52.87 64 52.93 64.03 53.09L64.03 53.09Z" fill="#FFFFFF"/></g><g><path d="M65.6 53.42C66.18 55.15 66.58 57.16 67.47 58.76 67.54 58.89 67.71 58.79 67.69 58.67 67.39 56.88 66.48 55.06 65.86 53.35 65.8 53.19 65.55 53.26 65.6 53.42L65.6 53.42Z" fill="#FFFFFF"/></g><g><path d="M67.91 53.47C68.03 53.7 68.15 53.94 68.27 54.17 68.38 54.38 68.48 54.62 68.65 54.79 68.74 54.88 68.87 54.79 68.86 54.67 68.82 54.43 68.68 54.21 68.58 54 68.46 53.76 68.34 53.53 68.22 53.29 68.12 53.09 67.81 53.26 67.91 53.47L67.91 53.47Z" fill="#FFFFFF"/></g><g><path d="M42.63 41.17C44.37 41.46 46.3 41.75 48 41.11 48.17 41.05 48.16 40.78 47.96 40.78 46.17 40.81 44.46 41.17 42.67 40.94 42.53 40.93 42.5 41.15 42.63 41.17L42.63 41.17Z" fill="#FFFFFF"/></g><g><path d="M45.2 39.38C46.47 39.44 47.79 39.61 49.07 39.52 49.18 39.51 49.22 39.33 49.1 39.31 47.83 39.12 46.49 39.18 45.2 39.14 45.05 39.14 45.05 39.37 45.2 39.38L45.2 39.38Z" fill="#FFFFFF"/></g></g></g></svg>