<svg width="114.63" height="108.72" viewBox="0 0 114.63 108.72" xmlns="http://www.w3.org/2000/svg" xmlns:xlink="http://www.w3.org/1999/xlink" xml:space="preserve" overflow="hidden"><defs></defs><g id="Layer_19_-_copie"><g><g><path d="M35.16 23.32C34.03 21.58 32.93 20.06 31.27 18.77 29.94 17.74 28.06 16.03 26.25 16.51 25.87 16.61 25.77 17.01 25.92 17.33 26.57 18.77 28.54 19.36 29.8 20.18 31.45 21.27 33.19 22.4 34.69 23.68 34.92 23.91 35.36 23.64 35.16 23.32L35.16 23.32Z" fill="#676A23"/></g><g><defs><path d="M27.93 66.18C35.42 74.59 47.78 77.15 58.95 75.73 63.29 75.18 67.66 74.06 71.31 71.65 73.7 70.07 75.7 67.99 77.69 65.92 80.49 63.01 83.33 60.03 85.05 56.37 86.58 53.12 87.13 49.5 87.24 45.91 87.54 36.24 84.59 26.39 78.45 18.91 72.31 11.44 62.92 6.55 53.25 6.51 41.38 6.47 30.23 13.64 23.49 23.4 19.09 29.78 16.28 37.51 16.93 45.23 17.41 51 19.8 56.51 23.22 61.17 24.96 63.54 25.98 63.99 27.93 66.18Z" id="SVGID_1_"/></defs><clipPath id="SVGID_2_"><use width="100%" height="100%" xlink:href="#SVGID_1_" overflow="visible"></use></clipPath><use width="100%" height="100%" xlink:href="#SVGID_1_" fill="#EB7013" overflow="visible"></use><g clip-path="url(#SVGID_2_)" opacity="0.14"><path d="M39.89 8.22C41.01 8.96 42.55 9.03 43.83 9.33 45.55 9.72 47.24 9.74 48.95 10.25 51.95 11.16 54.91 12.68 57.94 14.27 59.5 15.09 60.96 16.04 62.42 17.02 62.69 17.2 63.48 17.91 62.39 16.98 62.62 17.18 62.86 17.36 63.09 17.57 63.78 18.18 64.42 18.84 65.05 19.51 66.03 20.57 66.93 21.71 67.89 22.79 68.98 24.03 67.71 22.68 67.72 22.52 67.71 22.64 68.32 23.34 68.44 23.51 68.91 24.18 69.36 24.87 69.79 25.57 70.6 26.9 71.27 28.28 71.95 29.68 72.5 30.8 71.34 28.02 71.74 29.19 71.84 29.48 71.96 29.76 72.06 30.05 72.38 30.92 72.68 31.79 72.95 32.68 73.16 33.37 73.35 34.07 73.52 34.77 73.69 35.48 73.7 36.74 74.04 37.37 74.03 37.35 73.84 35.38 73.92 36.47 73.95 36.92 74.01 37.36 74.04 37.81 74.11 38.82 74.14 39.83 74.13 40.83 74.12 41.62 74.08 42.4 74.02 43.19 73.99 43.53 73.96 43.86 73.93 44.2 73.76 46.18 73.97 43.53 74.02 43.54 74.09 43.55 73 48.35 72.89 48.8 72.69 49.56 72.47 50.32 72.23 51.06 72.09 51.49 71.94 51.91 71.79 52.33 71.66 52.68 71.09 54.07 71.68 52.69 72.23 51.38 71.76 52.47 71.65 52.72 71.19 53.73 70.8 54.73 70.39 55.74 70.49 55.49 71.37 53.67 70.57 55.21 70.36 55.61 70.17 56.02 69.96 56.42 68.14 59.88 66.11 63.4 63.81 66.56 63.31 67.24 63.87 66.48 63.95 66.38 63.36 67.14 62.75 67.88 62.21 68.68 61.66 69.49 61.16 70.33 60.61 71.15 59.53 72.76 58.61 74.43 57.66 76.12 55.95 79.12 58.76 82.31 61.93 81.67 66.18 80.81 70.35 79.57 74.09 77.31 77.81 75.06 81.64 72.69 84.43 69.29 87.9 65.06 90.39 60.72 92.1 55.5 93.48 51.27 94.03 46.63 93.91 42.19 93.67 33.43 91.06 24.73 85.79 17.67 80.38 10.4 73.51 5.43 65 2.36 60.26 0.65 55.05-0.22 50 0.04 47.61 0.17 44.62 0.38 42.55 1.72 40.86 2.81 39.08 4.48 38.93 6.55 38.89 7.25 39.35 7.86 39.89 8.22L39.89 8.22Z" fill="#FAB93B"/></g><g clip-path="url(#SVGID_2_)" opacity="0.2"><path d="M39.41 5.34C36.76 2.3 31.71 5.21 29.03 6.81 26.11 8.57 23.4 11.02 21.15 13.58 16.12 19.3 12.31 26.52 10.84 34.02 7.53 50.86 16.44 68.69 29.67 78.91 33.44 81.83 37.8 84.1 42.44 85.32 44.8 85.94 47.31 86.33 49.75 86.2 51.26 86.12 52.77 85.9 54.1 85.14 54.62 84.84 55.2 84.42 55.63 84 55.72 83.9 55.81 83.81 55.9 83.71 56.84 82.54 56.92 82.4 56.15 83.31 57.88 82.21 58.3 79.78 56.8 78.28 56.86 78.4 56.92 78.51 56.98 78.63 57.34 79.36 57.24 79.08 56.67 77.82 56.56 77.61 56.49 77.41 56.36 77.21 55.63 76.06 54.74 75.17 53.61 74.41 52.3 73.52 50.93 72.72 49.59 71.88 48.31 71.08 47.08 70.21 45.84 69.34 44.83 68.62 46.77 70.2 45.89 69.36 45.64 69.12 45.36 68.92 45.11 68.69 44.42 68.08 43.75 67.45 43.06 66.84 40.62 64.64 38.56 62.19 36.48 59.67 35.89 58.96 35.13 58.24 36.22 59.4 35.67 58.82 35.24 58.07 34.79 57.42 33.87 56.08 33 54.7 32.18 53.29 31.35 51.85 30.6 50.37 29.83 48.9 29.5 48.27 29.22 47.61 28.89 46.98 28.28 45.82 29.39 48.42 28.97 47.18 28.82 46.73 28.63 46.29 28.48 45.83 27.94 44.25 27.51 42.64 27.21 41.01 27.16 40.74 26.97 40.23 27.03 39.96 27.02 40.01 27.17 41.52 27.11 40.47 27.07 39.74 26.96 39 26.86 38.27 26.69 37.01 26.66 36.77 26.77 37.55 26.84 38.08 26.85 38.1 26.8 37.6 26.76 36.05 26.6 34.53 26.65 32.97 26.68 32.15 26.77 31.34 26.82 30.52 26.88 29.68 26.82 30.53 26.79 30.68 26.89 30.09 26.99 29.5 27.12 28.92 27.41 27.53 27.86 26.18 28.38 24.86 27.99 25.87 28.74 24.09 28.88 23.82 29.25 23.07 29.64 22.34 30.06 21.62 31.73 18.76 33.18 17.16 35.52 14.7 37.76 12.3 42.55 8.94 39.41 5.34L39.41 5.34Z" fill="#EB7013"/></g></g><g><defs><path d="M27.93 66.18C35.42 74.59 47.78 77.15 58.95 75.73 63.29 75.18 67.66 74.06 71.31 71.65 73.7 70.07 75.7 67.99 77.69 65.92 80.49 63.01 83.33 60.03 85.05 56.37 86.58 53.12 87.13 49.5 87.24 45.91 87.54 36.24 84.59 26.39 78.45 18.91 72.31 11.44 62.92 6.55 53.25 6.51 41.38 6.47 30.23 13.64 23.49 23.4 19.09 29.78 16.28 37.51 16.93 45.23 17.41 51 19.8 56.51 23.22 61.17 24.96 63.54 25.98 63.99 27.93 66.18Z" id="SVGID_3_"/></defs><clipPath id="SVGID_4_"><use width="100%" height="100%" xlink:href="#SVGID_3_" overflow="visible"></use></clipPath><path d="M93.46 40.78C93.27 40.12 92.94 39.48 92.64 38.87 92.36 38.3 92.44 37.86 92.41 38.56 92.28 37.56 91.95 36.61 91.44 35.82 91.48 34.38 90.88 32.94 89.65 32.03 87.69 30.56 85.4 30.89 83.57 32.39 80.51 34.9 77.33 37.24 74.03 39.41 71.21 41.27 68.26 43.33 64.97 44.27 58.82 46.02 51.61 45.08 45.7 42.84 39.96 40.65 35 36.6 32.2 31.1 31.6 29.91 31.07 28.63 30.65 27.31 30.43 25.53 30.16 23.77 29.72 22.03 29.63 21.69 29.54 21.37 29.46 21.05 29.41 20.07 29.43 19.09 29.55 18.15 29.62 17.64 30.09 14.2 30.37 14.12 32.68 13.47 32.33 9.61 29.78 9.8 28.11 9.92 26.94 10.89 26.05 12.16 23.55 11.54 21.43 13.1 20.57 15.37 20.46 15.66 20.38 15.94 20.3 16.23 19.69 18.2 19.2 20.21 18.84 22.24 16.62 22.16 14.53 23.52 13.91 25.76 11.51 34.46 11.95 44.11 14.84 52.63 16.34 57.03 18.42 61.48 21.23 65.32 21.32 66.25 21.71 67.17 22.38 67.92 26.84 72.9 31.45 79.14 38.33 80.7 44.7 82.15 52.04 81.14 58.34 79.76 70.68 77.06 82.26 69.93 88.33 58.57 90.1 55.26 91.41 51.66 92.1 47.96 92.7 47.01 93.2 46.03 93.49 45.01 93.89 43.63 93.86 42.14 93.46 40.78Z" fill="#EB7013" clip-path="url(#SVGID_4_)" opacity="0.25"/><path d="M98.06 55.48C97.83 54.79 97.43 54.11 97.06 53.46 96.72 52.86 96.82 52.4 96.79 53.14 96.63 52.08 96.24 51.08 95.61 50.25 95.66 48.73 94.93 47.22 93.45 46.25 91.08 44.7 88.31 45.04 86.09 46.63 82.39 49.27 78.54 51.74 74.55 54.03 71.14 55.99 67.57 58.16 63.6 59.15 56.16 60.99 47.45 60.01 40.3 57.64 33.36 55.34 27.36 51.08 23.98 45.28 23.25 44.03 22.62 42.67 22.1 41.28 21.84 39.4 21.51 37.55 20.98 35.71 20.88 35.36 20.77 35.01 20.66 34.67 20.6 33.64 20.62 32.6 20.77 31.61 20.85 31.07 21.42 27.45 21.76 27.36 24.56 26.67 24.13 22.6 21.05 22.8 19.03 22.93 17.61 23.95 16.54 25.29 13.51 24.64 10.96 26.28 9.92 28.67 9.79 28.97 9.69 29.27 9.59 29.58 8.85 31.65 8.26 33.77 7.83 35.92 5.14 35.83 2.62 37.26 1.87 39.63-1.02 48.8-0.5 58.97 3 67.96 4.81 72.6 7.33 77.28 10.72 81.34 10.82 82.32 11.3 83.29 12.11 84.08 17.5 89.33 23.08 95.9 31.4 97.55 39.1 99.08 47.98 98.01 55.6 96.56 70.52 93.71 84.53 86.19 91.86 74.23 94 70.74 95.58 66.95 96.41 63.04 97.13 62.04 97.73 61.01 98.09 59.93 98.58 58.49 98.54 56.91 98.06 55.48Z" fill="#EB7013" clip-path="url(#SVGID_4_)" opacity="0.14"/><path d="M102.31 59.2C102 58.54 101.53 57.91 101.09 57.31 100.68 56.75 100.73 56.28 100.78 57.02 100.5 55.99 100 55.04 99.28 54.28 99.16 52.76 98.26 51.34 96.67 50.56 94.14 49.29 91.43 49.95 89.41 51.78 86.04 54.83 82.5 57.72 78.79 60.45 75.62 62.79 72.33 65.35 68.49 66.79 61.31 69.47 52.54 69.49 45.17 67.95 38.01 66.46 28.88 61.97 24.85 56.59 24 55.43 12.36 35.82 11.89 38.25 10.05 47.69 4.8 73.93 9.3 82.45 11.63 86.85 14.66 91.22 18.5 94.86 18.72 95.83 19.3 96.73 20.19 97.42 26.15 102.02 32.43 107.91 40.89 108.6 48.72 109.24 57.41 107.17 64.82 104.85 79.32 100.32 92.37 91.25 98.29 78.52 100.01 74.81 101.15 70.86 101.54 66.89 102.14 65.82 102.62 64.72 102.86 63.61 103.17 62.13 102.95 60.57 102.31 59.2Z" fill="#EB7013" clip-path="url(#SVGID_4_)" opacity="0.14"/></g><path d="M82.99 43.01C82.45 30.72 76.62 18.09 65.15 12.45 63.23 11.51 60.88 10.62 58.52 10.18 57.22 9.75 55.84 9.57 54.35 9.77 53.25 9.91 52.28 10.26 51.44 10.78 49.81 11.59 48.5 13.02 47.77 15.32 46.7 18.64 47.9 22.02 50.03 24.6 50.96 25.72 52.07 26.65 53.17 27.6 54.86 30.27 56.44 33.01 57.87 35.83 59.19 38.43 59.47 40.65 59.31 43.56 59.13 46.83 58.83 50.24 59.92 53.4 62.3 60.29 69.71 63.16 76.2 59.79 82.4 56.55 83.26 49.29 82.99 43.01Z" fill="#FFFFFF" opacity="0.11"/><g opacity="0.11"><path d="M66.46 26.07C66.52 26.02 66.57 25.98 66.63 25.93 66.92 25.66 67.12 25.34 67.24 24.98 67.43 24.63 67.51 24.25 67.5 23.84 67.47 23.09 67.23 22.25 66.63 21.74 66.57 21.69 66.52 21.65 66.46 21.6 66.25 21.43 66.03 21.27 65.82 21.1 65.57 20.99 65.32 20.89 65.06 20.78 64.64 20.65 64.22 20.63 63.8 20.72 63.51 20.72 63.25 20.79 63 20.94 62.73 21.02 62.5 21.15 62.3 21.35 62.06 21.49 61.87 21.68 61.73 21.92 61.53 22.12 61.4 22.35 61.32 22.62 61.12 23 61.03 23.4 61.05 23.84 61.09 24.12 61.13 24.4 61.16 24.68 61.27 24.93 61.37 25.18 61.48 25.44 61.65 25.65 61.81 25.87 61.98 26.08 62.19 26.25 62.41 26.41 62.62 26.58 62.87 26.69 63.12 26.79 63.38 26.9 63.8 27.03 64.22 27.05 64.64 26.96 64.93 26.96 65.19 26.89 65.44 26.74 65.83 26.6 66.17 26.38 66.46 26.07L66.46 26.07Z" fill="#FFFFFF"/></g><g opacity="0.11"><path d="M70.4 31.68C71.2 31.68 72.03 31.33 72.6 30.77 72.9 30.49 73.12 30.15 73.24 29.77 73.43 29.4 73.52 29 73.51 28.57 73.47 27.77 73.21 26.93 72.6 26.37 71.99 25.81 71.24 25.46 70.4 25.46 69.6 25.46 68.77 25.81 68.2 26.37 67.9 26.65 67.68 26.99 67.56 27.37 67.37 27.74 67.28 28.14 67.29 28.57 67.33 29.37 67.59 30.21 68.2 30.77 68.81 31.33 69.55 31.68 70.4 31.68L70.4 31.68Z" fill="#FFFFFF"/></g><g opacity="0.11"><path d="M68.33 25.48C68.49 25.51 68.64 25.54 68.81 25.56 69.13 25.63 69.44 25.62 69.76 25.52 69.79 25.51 69.82 25.5 69.85 25.5 69.64 25.53 69.44 25.56 69.23 25.58 69.28 25.58 69.33 25.58 69.38 25.58 70.06 25.65 70.74 25.21 71.14 24.7 71.55 24.17 71.78 23.41 71.54 22.75 71.36 22.26 71.17 21.92 70.81 21.53 70.52 21.22 70.1 21.02 69.7 20.91 69.27 20.78 68.75 20.8 68.33 20.94 67.83 21.11 67.43 21.37 67.11 21.78 66.8 22.18 66.58 22.69 66.6 23.21 66.62 23.63 66.73 24.03 66.92 24.4 67.07 24.67 67.27 24.89 67.53 25.06 67.75 25.26 68.02 25.4 68.33 25.48L68.33 25.48Z" fill="#FFFFFF"/></g><g opacity="0.11"><path d="M62.94 29.11C62.7 29.53 62.63 29.9 62.59 30.38 62.55 30.89 62.85 31.57 63.22 31.91 63.58 32.24 63.98 32.44 64.46 32.5 64.92 32.56 65.44 32.5 65.84 32.24 66.32 31.93 66.67 31.5 66.83 30.95 66.83 30.94 66.84 30.92 66.84 30.91 66.77 31.08 66.69 31.26 66.62 31.43 66.63 31.4 66.64 31.37 66.66 31.35 66.55 31.5 66.43 31.64 66.32 31.79 66.33 31.78 66.34 31.77 66.35 31.75 66.75 31.3 66.96 30.81 66.99 30.21 67.02 29.53 66.65 28.9 66.13 28.5 65.65 28.13 65.12 27.99 64.52 28.07 63.88 28.16 63.28 28.51 62.94 29.11L62.94 29.11Z" fill="#FFFFFF"/></g><g opacity="0.11"><path d="M67.26 33.96C67.14 34.56 67.1 35.18 67.31 35.76 67.4 36.02 67.51 36.32 67.68 36.55 68 37.01 68.42 37.42 68.98 37.55 69.19 37.6 69.43 37.61 69.65 37.63 69.47 37.61 69.28 37.58 69.1 37.56 69.12 37.57 69.14 37.57 69.16 37.58 69.86 37.77 70.63 37.57 71.15 37.06 71.68 36.53 71.84 35.79 71.68 35.07 71.68 35.05 71.67 35.03 71.67 35.01 71.69 35.19 71.72 35.38 71.74 35.56 71.74 35.54 71.74 35.53 71.75 35.51 71.72 35.7 71.7 35.89 71.67 36.07 71.93 35.39 71.65 34.77 71.37 34.17 71.44 34.34 71.52 34.52 71.59 34.69 71.55 34.58 71.52 34.48 71.5 34.36 71.53 34.55 71.55 34.75 71.58 34.94 71.57 34.85 71.57 34.76 71.58 34.67 71.55 34.86 71.53 35.06 71.5 35.25 71.51 35.21 71.52 35.16 71.53 35.12 71.67 34.56 71.6 33.93 71.31 33.42 71.04 32.96 70.52 32.53 69.99 32.41 69.43 32.28 68.79 32.31 68.29 32.63 67.81 32.95 67.38 33.4 67.26 33.96L67.26 33.96Z" fill="#FFFFFF"/></g><g opacity="0.11"><path d="M74.87 37.85C74.88 37.86 74.89 37.86 74.9 37.87 75.45 38.27 76.47 38.27 77.03 37.87 77.04 37.86 77.05 37.86 77.06 37.85 77.47 37.56 77.75 37.27 77.95 36.82 78.14 36.38 78.19 35.88 78.06 35.41 77.93 34.95 77.65 34.57 77.28 34.29 76.92 34.01 76.44 33.8 75.97 33.83 75.1 33.87 74.34 34.35 73.99 35.16 73.8 35.6 73.75 36.1 73.88 36.57 73.95 36.74 74.03 36.91 74.1 37.09 74.28 37.4 74.54 37.66 74.87 37.85L74.87 37.85Z" fill="#FFFFFF"/></g><g opacity="0.11"><path d="M74.11 31.41C77.24 31.41 77.25 26.54 74.11 26.54 70.97 26.55 70.97 31.41 74.11 31.41L74.11 31.41Z" fill="#FFFFFF"/></g><g opacity="0.11"><path d="M68.57 27.57C68.3 27.83 67.99 28.09 67.82 28.43 67.61 28.84 67.52 29.24 67.58 29.71 67.64 30.13 67.81 30.56 68.13 30.86 68.39 31.09 68.68 31.27 69.01 31.37 69.51 31.53 70.1 31.41 70.55 31.17 70.9 30.99 71.15 30.69 71.4 30.41 71.76 30.02 71.99 29.53 71.99 28.99 71.99 28.5 71.77 27.91 71.4 27.57 71.02 27.22 70.51 26.96 69.98 26.98 69.45 27 68.97 27.19 68.57 27.57L68.57 27.57Z" fill="#FFFFFF"/></g><g opacity="0.11"><path d="M64.12 28.28C64.19 28.27 64.25 28.26 64.32 28.24 64.95 28.1 65.47 27.53 65.64 26.92 65.83 26.23 65.6 25.6 65.15 25.08 65.1 25.02 65.05 24.97 65 24.92 64.52 24.4 63.72 24.22 63.05 24.4 62.37 24.59 61.83 25.13 61.65 25.8 61.46 26.49 61.66 27.25 62.17 27.75 62.42 28 62.72 28.17 63.06 28.27 63.41 28.38 63.76 28.38 64.12 28.28L64.12 28.28Z" fill="#FFFFFF"/></g><g opacity="0.11"><path d="M64.42 25.39C67.23 25.39 67.23 21.02 64.42 21.02 61.61 21.03 61.61 25.39 64.42 25.39L64.42 25.39Z" fill="#FFFFFF"/></g><g opacity="0.11"><path d="M65.45 21.55C67.29 21.55 67.29 18.69 65.45 18.69 63.61 18.69 63.61 21.55 65.45 21.55L65.45 21.55Z" fill="#FFFFFF"/></g><g opacity="0.11"><path d="M68.12 20.19C68.19 20.21 68.26 20.24 68.34 20.26 69.06 20.49 69.84 20.05 70.12 19.39 70.25 19.09 70.3 18.73 70.2 18.41 70.07 18.02 69.84 17.75 69.51 17.51 69.45 17.47 69.38 17.42 69.32 17.38 68.99 17.14 68.51 17.14 68.13 17.22 67.67 17.33 67.31 17.69 67.13 18.11 66.75 18.98 67.24 19.9 68.12 20.19L68.12 20.19Z" fill="#FFFFFF"/></g><g opacity="0.11"><path d="M73.49 25.55C74.18 25.55 74.84 24.95 74.8 24.24 74.77 23.53 74.22 22.93 73.49 22.93 72.8 22.93 72.14 23.53 72.18 24.24 72.21 24.95 72.75 25.55 73.49 25.55L73.49 25.55Z" fill="#FFFFFF"/></g><g opacity="0.11"><path d="M68.75 27.74C69.23 27.74 69.72 27.53 70.06 27.2 70.38 26.88 70.62 26.35 70.6 25.89 70.58 25.41 70.42 24.91 70.06 24.58 69.7 24.25 69.25 24.04 68.75 24.04 68.27 24.04 67.78 24.25 67.44 24.58 67.12 24.9 66.88 25.43 66.9 25.89 66.92 26.37 67.08 26.87 67.44 27.2 67.8 27.53 68.25 27.74 68.75 27.74L68.75 27.74Z" fill="#FFFFFF"/></g><g opacity="0.11"><path d="M66.01 32.22C66.18 32.01 66.35 31.81 66.52 31.6 66.69 31.39 66.81 31.17 66.81 30.89 66.81 30.64 66.7 30.35 66.52 30.18 66.09 29.78 65.53 29.82 65.1 30.18 64.89 30.35 64.69 30.52 64.48 30.69 64.04 31.05 64.08 31.85 64.48 32.22 64.88 32.58 65.63 32.68 66.01 32.22L66.01 32.22Z" fill="#FFFFFF"/></g><g opacity="0.11"><path d="M60.3 32.9C61.06 32.9 61.78 32.23 61.75 31.45 61.72 30.67 61.11 30 60.3 30 59.54 30 58.82 30.67 58.85 31.45 58.89 32.24 59.49 32.9 60.3 32.9L60.3 32.9Z" fill="#FFFFFF"/></g><g opacity="0.11"><path d="M57.42 21.26C57.37 21.26 57.33 21.27 57.28 21.27 56.75 21.33 56.3 21.45 55.91 21.84 55.57 22.18 55.32 22.73 55.34 23.21 55.36 23.71 55.53 24.23 55.91 24.58 56.04 24.68 56.17 24.78 56.3 24.88 56.6 25.06 56.93 25.14 57.28 25.14 57.33 25.14 57.37 25.15 57.42 25.15 57.89 25.2 58.48 24.9 58.8 24.58 59.14 24.24 59.39 23.69 59.37 23.2 59.35 22.7 59.18 22.17 58.8 21.82 58.44 21.5 57.92 21.21 57.42 21.26L57.42 21.26Z" fill="#FFFFFF"/></g><g opacity="0.11"><path d="M54.42 19.4C54.33 19.36 54.25 19.32 54.17 19.28 53.71 19.06 53.26 19.5 53.48 19.97 53.52 20.05 53.56 20.14 53.6 20.22 53.77 20.57 54.28 20.6 54.54 20.34 54.8 20.08 54.78 19.57 54.42 19.4L54.42 19.4Z" fill="#FFFFFF"/></g><g opacity="0.11"><path d="M67.31 37.34C67.82 37.34 68.35 37.12 68.7 36.76 69.04 36.42 69.3 35.86 69.28 35.37 69.23 34.3 68.41 33.4 67.31 33.4 66.8 33.4 66.27 33.62 65.92 33.98 65.58 34.32 65.32 34.88 65.34 35.37 65.38 36.43 66.2 37.34 67.31 37.34L67.31 37.34Z" fill="#FFFFFF"/></g><g opacity="0.11"><path d="M71.67 35.95C71.74 35.83 71.8 35.7 71.87 35.58 72.18 35 71.56 34.4 70.99 34.7 70.87 34.77 70.74 34.83 70.62 34.9 70.18 35.13 70.12 35.77 70.46 36.11 70.8 36.45 71.43 36.39 71.67 35.95L71.67 35.95Z" fill="#FFFFFF"/></g><g opacity="0.11"><path d="M72 34.18C72.09 34.24 72.18 34.29 72.27 34.36 72.15 34.27 72.04 34.18 71.92 34.09 72.01 34.16 72.1 34.24 72.18 34.32 72.47 34.58 72.77 34.71 73.12 34.85 72.99 34.79 72.86 34.74 72.72 34.68 72.76 34.7 72.79 34.71 72.83 34.73 73.09 34.85 73.35 34.95 73.64 34.95 74 34.95 74.33 34.82 74.61 34.61 75.13 34.21 75.34 33.56 75.19 32.92 75.08 32.49 74.88 32.06 74.53 31.78 74.27 31.57 74.02 31.37 73.72 31.21 73.32 31 72.84 30.91 72.4 31.04 72 31.15 71.57 31.46 71.37 31.83 70.94 32.66 71.18 33.68 72 34.18L72 34.18Z" fill="#FFFFFF"/></g><g opacity="0.11"><path d="M73.48 42.59C73.41 43.02 73.39 43.3 73.48 43.73 73.58 44.19 73.86 44.62 74.28 44.84 75.11 45.27 76.11 44.9 76.39 43.98 76.49 43.63 76.43 43.31 76.37 42.96 76.39 43.09 76.41 43.22 76.42 43.36 76.41 43.28 76.41 43.2 76.42 43.11 76.4 43.24 76.38 43.38 76.37 43.51 76.38 43.47 76.38 43.43 76.39 43.39 76.48 43 76.44 42.58 76.24 42.23 76.06 41.92 75.7 41.62 75.34 41.54 74.95 41.45 74.52 41.47 74.18 41.69 73.87 41.89 73.54 42.21 73.48 42.59L73.48 42.59Z" fill="#FFFFFF"/></g><g opacity="0.11"><path d="M68.51 49.76C68.44 49.79 68.38 49.82 68.31 49.84 68.04 50 67.83 50.21 67.67 50.48 67.51 50.76 67.43 51.06 67.43 51.38 67.45 51.85 67.61 52.3 67.95 52.64 68.27 52.96 68.75 53.16 69.21 53.16 69.53 53.16 69.83 53.08 70.11 52.92 70.38 52.76 70.59 52.55 70.75 52.28 70.78 52.21 70.81 52.15 70.83 52.08 70.89 51.94 70.94 51.81 71 51.67 71.07 51.44 71.08 51.22 71.03 50.99 70.98 50.63 70.84 50.26 70.56 50.01 70.34 49.81 70.09 49.66 69.81 49.57 69.36 49.44 68.93 49.58 68.51 49.76L68.51 49.76Z" fill="#FFFFFF"/></g><g opacity="0.11"><path d="M74 55.63C74.03 55.79 74.07 55.91 74.14 56.08 74.31 56.48 74.55 56.7 74.9 56.95 75.34 57.27 76.17 57.27 76.62 56.95 76.96 56.7 77.21 56.48 77.38 56.08 77.45 55.92 77.48 55.8 77.52 55.63 77.65 55 77.55 54.32 77.05 53.86 76.69 53.53 76.26 53.33 75.77 53.33 75.3 53.33 74.82 53.53 74.49 53.86 73.99 54.34 73.87 54.98 74 55.63L74 55.63Z" fill="#FFFFFF"/></g><g><g><defs><path d="M55.37 40.25C55.37 40.25 48.9 50.1 49.03 59.68 49.12 66.82 54.44 79.66 61.64 84.16 68.84 88.65 77.51 93.4 88.26 90.78 99.01 88.16 116.08 71.57 113.37 66.69 110.65 61.81 55.37 40.25 55.37 40.25Z" id="SVGID_5_"/></defs><clipPath id="SVGID_6_"><use width="100%" height="100%" xlink:href="#SVGID_5_" overflow="visible"></use></clipPath><use width="100%" height="100%" xlink:href="#SVGID_5_" fill="#FF7917" overflow="visible"></use><path d="M70.23 60.76C69.38 61.79 63.61 70.54 62.27 75.65 60.92 80.76 64.62 91.85 64.62 91.85 64.62 91.85 32.29 74.89 31.77 74.11 31.25 73.32 34.79 51.85 35.83 49.65 36.87 47.45 49.62 32.68 49.62 32.68L58.92 33.5 70.23 60.76Z" fill="#FF6300" clip-path="url(#SVGID_6_)"/><path d="M97.1 74.78C97.1 74.78 86.88 85.65 82.04 90.17 77.2 94.7 72.36 95.57 72.36 95.57 72.36 95.57 87.8 105.64 91.42 101.8 95.04 97.95 110.54 79 110.54 79L114.63 69.99 97.1 74.78Z" fill="#FF991A" clip-path="url(#SVGID_6_)"/></g><path d="M106.42 74.52C105.49 75.34 104.74 81.08 94.2 83.26 83.65 85.44 65.9 76.3 61.7 72.69 57.49 69.08 47.65 56.15 52.06 48.73 56.48 41.32 106.42 74.52 106.42 74.52Z" fill="#FF6A0B" opacity="0.36"/><path d="M113.79 68.58C112.31 76.34 105.44 80.8 96.38 82.48 93.39 83.03 90.34 82.96 87.01 82.25 82.58 81.31 77.41 79.46 73.25 77.3 68.64 74.91 64.06 72.04 59.61 67.95 50.39 59.48 50.99 50.1 53.1 44.19 54.68 39.75 58.14 33.57 71.99 33.28 79.59 33.12 86.69 34.62 94.67 38.85 102.18 42.84 108.53 48.63 111.38 54.6 113.35 58.74 114.5 64.86 113.79 68.58Z" fill="#FF8F27"/><path d="M112.2 67.43C111.85 72.69 110.12 75.94 103.04 79.03 100.75 80.03 97.54 80.89 94.64 81.02 92.01 81.13 89.75 80.98 86.96 80.57 78.78 79.39 70.75 74.89 64.06 69.71 60.17 66.7 58.05 63.33 56.75 61.05 55 57.98 54.33 54.86 53.94 51.83 53.69 49.86 53.55 47.9 53.79 46.04 54.71 38.8 64.15 34.92 73.67 34.61 81.78 34.34 89.41 37.21 96.89 41.88 99.33 43.41 107.38 49.66 109.79 55.81 111.28 59.64 112.44 63.79 112.2 67.43Z" fill="#FC9D1A"/><path d="M111.09 67.13C110.79 72.11 109.16 75.16 102.4 78.03 100.21 78.96 97.15 79.75 94.37 79.85 91.85 79.94 89.69 79.77 87.01 79.37 79.17 78.19 71.44 73.88 65 68.93 61.26 66.05 59.2 62.86 57.93 60.69 56.23 57.77 55.56 54.82 55.17 51.95 54.91 50.08 54.77 48.23 54.98 46.48 55.81 39.64 64.82 36.04 73.93 35.81 81.69 35.61 89.02 38.38 96.22 42.85 98.57 44.31 106.33 50.29 108.68 56.12 110.16 59.77 111.29 63.69 111.09 67.13Z" fill="#FFF5F2"/><path d="M87.05 50.57C88.49 47.89 89.93 45.2 91.36 42.52 91.44 42.37 91.52 42.19 91.41 42.01 91.32 41.86 91.11 41.74 90.92 41.63 85.93 38.89 79.74 37.66 74.75 38.41 74.05 38.52 73.3 38.72 73.2 39.24 73.13 39.57 73.36 39.95 73.58 40.31 75.65 43.55 78.61 46.64 80.26 49.92 80.8 51 82.28 54.56 84.67 54.39 85.96 54.3 86.66 51.29 87.05 50.57Z" fill="#FC9D1A"/><path d="M78.64 49.72C76.2 46.44 73.76 43.15 71.32 39.87 71.18 39.68 71.02 39.48 70.77 39.38 70.56 39.29 70.35 39.31 70.16 39.32 65.21 39.77 61.5 42.3 60.44 45.93 60.29 46.44 60.23 47.06 60.77 47.59 61.11 47.93 61.62 48.14 62.1 48.33 66.49 50.05 71.05 51.11 75.33 53.12 76.74 53.78 81.26 56.15 81.98 54.59 82.38 53.75 79.3 50.6 78.64 49.72Z" fill="#FC9D1A"/><path d="M73.23 53.72C68.95 52.05 64.66 50.37 60.38 48.7 60.14 48.61 59.87 48.51 59.67 48.56 59.5 48.6 59.44 48.75 59.38 48.88 57.96 52.37 59.12 57.11 62.42 61.28 62.88 61.86 63.5 62.51 64.25 62.69 64.73 62.81 65.14 62.7 65.52 62.59 68.95 61.55 71.78 59.76 75.46 59.06 76.67 58.83 80.81 58.33 79.49 56.37 78.78 55.32 74.39 54.17 73.23 53.72Z" fill="#FC9D1A"/><path d="M94.54 61.77C98.65 63.52 102.76 65.26 106.87 67.01 107.1 67.11 107.36 67.21 107.54 67.15 107.69 67.1 107.75 66.95 107.79 66.8 108.89 63.05 107.95 57.79 104.59 53.37 104.12 52.75 103.56 51.93 102.85 51.74 102.4 51.62 101.1 52.06 100.76 52.18 97.63 53.33 95.51 55.3 92.11 56.08 90.99 56.34 87.16 56.92 88.52 59 89.26 60.13 93.43 61.3 94.54 61.77Z" fill="#FC9D1A"/><path d="M89.6 65.63C91.97 68.93 94.34 72.23 96.71 75.53 96.84 75.72 97 75.92 97.25 76.03 97.46 76.12 97.67 76.11 97.86 76.09 102.85 75.71 106.65 73.26 107.81 69.67 107.97 69.17 108.05 68.55 107.52 68.01 107.18 67.67 106.68 67.45 106.2 67.25 101.83 65.48 97.26 64.35 93.01 62.29 91.61 61.61 87.12 59.2 86.35 60.73 85.94 61.57 88.96 64.74 89.6 65.63Z" fill="#FC9D1A"/><path d="M80.98 64.96C79.3 67.59 77.62 70.21 75.95 72.84 75.85 72.99 75.76 73.16 75.86 73.34 75.94 73.49 76.14 73.6 76.34 73.7 81.28 76.3 87.56 77.43 92.76 76.63 93.49 76.52 94.28 76.31 94.42 75.81 94.51 75.49 94.31 75.12 94.1 74.78 92.2 71.66 89.38 68.69 87.92 65.52 87.44 64.48 86.18 61.03 83.71 61.22 82.38 61.32 81.44 64.25 80.98 64.96Z" fill="#FC9D1A"/><path d="M87.14 59.03C87.72 58.45 85.84 55.59 83.59 55.14 81.34 54.69 80.57 55.92 81.23 57.52 81.9 59.11 85.18 60.97 87.14 59.03Z" fill="#FFFFFF"/><path d="M101.6 50.07C101.61 48.91 93.87 42.72 93.26 43.06 92.65 43.4 85.69 54.1 86.21 54.52 86.73 54.94 86.37 56.84 89.07 56.24 91.77 55.64 101.58 51.37 101.6 50.07Z" fill="#FC9D1A"/><path d="M74.35 72.68C75.16 72.76 82.38 61.23 81.94 60.66 81.49 60.09 80.76 58.04 78.79 59.17 76.82 60.3 74.57 60.31 71.83 61.34 69.09 62.38 65.06 63.69 65.37 64.74 65.69 65.79 72.76 72.53 74.35 72.68Z" fill="#FC9D1A"/><g><defs><path d="M87.05 50.57C88.49 47.89 89.93 45.2 91.36 42.52 91.44 42.37 91.52 42.19 91.41 42.01 91.32 41.86 91.11 41.74 90.92 41.63 85.93 38.89 79.74 37.66 74.75 38.41 74.05 38.52 73.3 38.72 73.2 39.24 73.13 39.57 73.36 39.95 73.58 40.31 75.65 43.55 78.61 46.64 80.26 49.92 80.8 51 82.28 54.56 84.67 54.39 85.96 54.3 86.66 51.29 87.05 50.57Z" id="SVGID_7_"/></defs><clipPath id="SVGID_8_"><use width="100%" height="100%" xlink:href="#SVGID_7_" overflow="visible"></use></clipPath><g clip-path="url(#SVGID_8_)"><path d="M82.48 53.62C84.4 53.16 84.69 51.15 85.3 49.52 85.86 48.03 86.44 46.54 87.04 45.06 87.35 44.3 88.04 43.23 88.12 42.41 88.74 41.94 88.68 41.69 87.93 41.66 87.47 41.5 87 41.36 86.53 41.24 85.06 40.84 83.55 40.54 82.04 40.33 80.38 40.1 78.71 39.98 77.04 40.02 76.47 40.03 75.04 39.8 75.01 40.72 75 40.99 76.14 42.13 76.33 42.33 78.12 44.21 82.09 50.82 82.24 53.41 82.27 53.94 78.85 48.7 78.54 48.29 76.91 46.12 75.22 44.61 73.27 42.73 72.11 41.6 71.46 40.13 72.45 38.63 73.73 36.69 76.42 36.92 78.43 36.99 81.2 37.09 83.95 37.48 86.63 38.19 88.18 38.6 90.76 38.93 91.36 40.7 92.03 42.7 89.86 45.89 89.1 47.64 88.45 49.14 85.26 58.18 82.22 54.4 82.03 54.15 82.17 53.7 82.48 53.62L82.48 53.62Z" fill="#FF8F27"/></g></g><g><defs><path d="M78.64 49.72C76.2 46.44 73.76 43.15 71.32 39.87 71.18 39.68 71.02 39.48 70.77 39.38 70.56 39.29 70.35 39.31 70.16 39.32 65.21 39.77 61.5 42.3 60.44 45.93 60.29 46.44 60.23 47.06 60.77 47.59 61.11 47.93 61.62 48.14 62.1 48.33 66.49 50.05 71.05 51.11 75.33 53.12 76.74 53.78 81.26 56.15 81.98 54.59 82.38 53.75 79.3 50.6 78.64 49.72Z" id="SVGID_9_"/></defs><clipPath id="SVGID_10_"><use width="100%" height="100%" xlink:href="#SVGID_9_" overflow="visible"></use></clipPath><g clip-path="url(#SVGID_10_)"><path d="M81.14 54.37C78.78 52.7 76.36 50.25 74.47 48.05 73.38 46.78 72.5 45.35 71.54 43.99 71.16 43.46 70.22 41.91 69.69 41.67 68.84 41.29 68.14 41.85 67.39 42.33 66.34 43 64.31 44.4 63.82 45.62 63.35 46.79 63.97 46.73 65.07 47.18 65.9 47.52 67.27 48.15 68.13 48.4 71.15 49.29 79.6 52.58 81.92 54.81 82.66 55.53 81.27 55.25 80.32 55.2 77.48 55.05 70.35 51.87 67.65 51.05 65.74 50.47 62.88 50.32 61.34 48.93 58.27 46.15 62.56 42.19 64.77 40.57 66.05 39.63 67.98 38.41 69.66 38.61 71.53 38.83 72.82 41.1 73.76 42.49 75.26 44.73 76.67 46.85 78.58 48.77 80.07 50.27 81.69 51.73 82.16 53.86 82.28 54.44 81.52 54.64 81.14 54.37L81.14 54.37Z" fill="#FF8F27"/></g></g><g><defs><path d="M73.23 53.72C68.95 52.05 64.66 50.37 60.38 48.7 60.14 48.61 59.87 48.51 59.67 48.56 59.5 48.6 59.44 48.75 59.38 48.88 57.96 52.37 59.12 57.11 62.42 61.28 62.88 61.86 63.5 62.51 64.25 62.69 64.73 62.81 65.14 62.7 65.52 62.59 68.95 61.55 71.78 59.76 75.46 59.06 76.67 58.83 80.81 58.33 79.49 56.37 78.78 55.32 74.39 54.17 73.23 53.72Z" id="SVGID_11_"/></defs><clipPath id="SVGID_12_"><use width="100%" height="100%" xlink:href="#SVGID_11_" overflow="visible"></use></clipPath><g clip-path="url(#SVGID_12_)"><path d="M77.39 55.32C77.42 55.23 77.45 55.14 77.48 55.06 77.57 54.78 77.91 54.68 78.17 54.7 80.47 54.95 79.86 57.47 78.54 58.56 77.16 59.69 75.28 60.41 73.69 61.21 71.83 62.15 69.95 63.33 67.99 64.04 64.95 65.15 62.1 63.2 60.31 60.83 58.62 58.59 56.65 53.99 57.51 51.18 57.82 50.16 58.88 47.09 59.57 48.01 60.82 49.66 60.87 54.69 61.64 56.6 62.11 57.77 62.71 58.85 63.6 59.75 64.95 61.1 66.09 61.42 67.87 60.73 70.08 59.88 72.19 58.7 74.36 57.74 75.33 57.31 77.44 56.8 77.49 55.6 77.47 55.51 77.34 55.49 77.39 55.32L77.39 55.32Z" fill="#FF8F27"/></g></g><g><defs><path d="M94.54 61.77C98.65 63.52 102.76 65.26 106.87 67.01 107.1 67.11 107.36 67.21 107.54 67.15 107.69 67.1 107.75 66.95 107.79 66.8 108.89 63.05 107.95 57.79 104.59 53.37 104.12 52.75 103.56 51.93 102.85 51.74 102.4 51.62 101.1 52.06 100.76 52.18 97.63 53.33 95.51 55.3 92.11 56.08 90.99 56.34 87.16 56.92 88.52 59 89.26 60.13 93.43 61.3 94.54 61.77Z" id="SVGID_13_"/></defs><clipPath id="SVGID_14_"><use width="100%" height="100%" xlink:href="#SVGID_13_" overflow="visible"></use></clipPath><g clip-path="url(#SVGID_14_)"><path d="M103.21 51.73C106.38 52.46 107.86 56.77 108.4 59.59 108.8 61.69 109.59 67.61 106.24 67.63 104.19 67.64 101.86 66.22 100.08 65.36 97.58 64.16 95.01 63.53 92.35 62.81 90.62 62.34 88.65 61.8 87.74 60.09 87 58.7 87.17 57.18 88.54 56.33 89.28 55.87 90.35 56.28 90.41 57.22 90.58 60.25 95.5 60.81 97.76 61.58 99.18 62.07 100.42 62.71 101.74 63.4 102.36 63.72 105.01 65.06 105.74 64.83 107.31 64.33 106.04 59.2 105.65 58.02 104.95 55.92 103.37 54.18 102.9 52.02 102.86 51.85 103.06 51.69 103.21 51.73L103.21 51.73Z" fill="#FF8F27"/></g></g><g><defs><path d="M89.6 65.63C91.97 68.93 94.34 72.23 96.71 75.53 96.84 75.72 97 75.92 97.25 76.03 97.46 76.12 97.67 76.11 97.86 76.09 102.85 75.71 106.65 73.26 107.81 69.67 107.97 69.17 108.05 68.55 107.52 68.01 107.18 67.67 106.68 67.45 106.2 67.25 101.83 65.48 97.26 64.35 93.01 62.29 91.61 61.61 87.12 59.2 86.35 60.73 85.94 61.57 88.96 64.74 89.6 65.63Z" id="SVGID_15_"/></defs><clipPath id="SVGID_16_"><use width="100%" height="100%" xlink:href="#SVGID_15_" overflow="visible"></use></clipPath><g clip-path="url(#SVGID_16_)"><path d="M106 66.88C107.15 67.38 108.55 67.14 109.1 68.54 109.62 69.87 108.42 71.42 107.7 72.43 105.89 74.93 101.88 78.54 98.48 77.31 96.57 76.62 95.08 74.89 93.78 73.41 92.09 71.49 90.48 69.5 88.84 67.53 87.62 66.07 86 64.5 86 62.45 86 60.94 86.74 59.91 88.19 59.67 88.75 59.58 88.78 59.96 88.61 60.53 87.8 63.22 90.85 65.36 92.44 67.23 94.27 69.37 95.99 71.82 98.18 73.62 100.56 75.58 103.45 73.18 105.24 71.36 105.66 70.94 106.28 70.39 106.54 69.83 106.93 69 106.92 68.99 106.62 68.4 106.34 67.84 104.93 67.26 104.73 66.56 104.66 66.28 105.72 66.75 106 66.88L106 66.88Z" fill="#FF8F27"/></g></g><g><defs><path d="M80.98 64.96C79.3 67.59 77.62 70.21 75.95 72.84 75.85 72.99 75.76 73.16 75.86 73.34 75.94 73.49 76.14 73.6 76.34 73.7 81.28 76.3 87.56 77.43 92.76 76.63 93.49 76.52 94.28 76.31 94.42 75.81 94.51 75.49 94.31 75.12 94.1 74.78 92.2 71.66 89.38 68.69 87.92 65.52 87.44 64.48 86.18 61.03 83.71 61.22 82.38 61.32 81.44 64.25 80.98 64.96Z" id="SVGID_17_"/></defs><clipPath id="SVGID_18_"><use width="100%" height="100%" xlink:href="#SVGID_17_" overflow="visible"></use></clipPath><g clip-path="url(#SVGID_18_)"><path d="M85.04 62.43C83.64 61.7 81.19 68.03 80.75 68.9 80.36 69.66 79.72 70.6 79.45 71.42 78.83 72.03 78.86 72.65 79.53 73.27 80.13 73.4 80.74 73.46 81.35 73.47 83.18 73.56 84.76 73.72 86.55 74.18 87.59 74.44 88.6 74.74 89.68 74.81 90.83 74.89 92.58 74.53 93.14 74.35 93.18 74.34 93.22 74.32 93.26 74.31 94.02 74.07 94.78 74.44 95.08 75.17 95.11 75.24 95.14 75.3 95.16 75.37 95.45 76.07 95.01 77.1 94.25 77.29 92.57 77.72 90.9 77.94 89.16 77.79 87.22 77.62 85.42 76.84 83.49 76.59 81.15 76.28 76.44 76.85 75.61 73.66 75.23 72.21 76.57 70.53 77.24 69.32 78.45 67.12 79.65 64.87 81 62.75 82.11 61.02 84.23 59.31 85.89 61.45 86.3 61.97 85.62 62.73 85.04 62.43L85.04 62.43Z" fill="#FF8F27"/></g></g><g><defs><path d="M101.6 50.07C101.61 48.91 93.87 42.72 93.26 43.06 92.65 43.4 86.12 53.86 86.21 54.52 86.35 55.55 86.37 56.84 89.07 56.24 91.77 55.64 101.58 51.37 101.6 50.07Z" id="SVGID_19_"/></defs><clipPath id="SVGID_20_"><use width="100%" height="100%" xlink:href="#SVGID_19_" overflow="visible"></use></clipPath><g clip-path="url(#SVGID_20_)"><path d="M99.34 46.85C98.11 46.75 97.2 46.07 96.1 45.56 95.4 45.23 94 44.41 93.21 44.92 92.82 45.17 92.62 46.28 92.43 46.7 91.78 48.11 90.79 49.22 90 50.55 88.94 52.33 87.08 53.48 88.23 55.7 88.71 56.62 88.67 57.99 87.67 57.64 85.91 57.02 85.3 55.03 85.81 53.31 86.28 51.73 87.54 50.29 88.35 48.87 89.19 47.39 89.86 45.82 90.67 44.32 91.45 42.88 92.47 41.87 94.2 42.33 96.15 42.85 99.01 44.61 99.49 46.68 99.49 46.78 99.43 46.86 99.34 46.85L99.34 46.85Z" fill="#FF8F27"/></g></g><g><defs><path d="M74.35 72.68C75.16 72.76 82.38 61.23 81.94 60.66 81.49 60.09 80.76 58.04 78.79 59.17 76.82 60.3 74.57 60.31 71.83 61.34 69.09 62.38 65.06 63.69 65.37 64.74 65.69 65.79 72.76 72.53 74.35 72.68Z" id="SVGID_21_"/></defs><clipPath id="SVGID_22_"><use width="100%" height="100%" xlink:href="#SVGID_21_" overflow="visible"></use></clipPath><g clip-path="url(#SVGID_22_)"><path d="M80.4 58.96C82.18 57.44 82.95 60.09 82.69 61.46 82.07 64.78 80.29 68.23 78.12 70.8 76.55 72.66 74.61 73.65 72.35 72.34 70.13 71.06 65.65 67.34 65.74 64.56 65.76 64.01 66.19 63.4 66.83 63.56 68.36 63.95 68.96 65 69.99 66.15 70.8 67.05 73.38 70.34 74.89 69.9 76.38 69.46 81.92 60.1 80.45 59.54 80.18 59.44 80.22 59.11 80.4 58.96L80.4 58.96Z" fill="#FF8F27"/></g></g><g opacity="0.41"><g><path d="M77.47 45.08C82.34 39.24 92.31 43.42 96.63 47.81 101.82 53.1 105.51 62.97 99.99 69.35 98.64 70.91 96.5 72.37 94.33 71.99 92.35 71.64 90.85 70 90.68 68 90.54 66.42 91.43 64.93 91.81 63.44 92.15 62.07 92.17 60.74 91.85 59.36 91.16 56.43 89.21 53.84 86.92 51.97 84.34 49.85 80.88 49.46 78.05 47.78 77.08 47.2 76.7 46 77.47 45.08L77.47 45.08Z" fill="#FFFFFF"/></g></g><g opacity="0.32"><path d="M92.08 75.19C90.48 73.86 89.22 71.84 88.53 69.89 88.45 69.67 88.76 69.52 88.9 69.7 90.13 71.37 91.37 73.19 92.29 75.05 92.35 75.17 92.17 75.26 92.08 75.19L92.08 75.19Z" fill="#FFFFFF"/></g><g opacity="0.34"><path d="M89.51 75.57C88.98 74.82 88.62 73.98 88.32 73.12 88.02 72.27 87.68 71.36 87.69 70.44 87.69 70.27 87.93 70.14 88.03 70.32 88.48 71.11 88.69 72.03 88.95 72.9 89.21 73.77 89.48 74.64 89.6 75.54 89.59 75.59 89.53 75.61 89.51 75.57L89.51 75.57Z" fill="#FFFFFF"/></g><g opacity="0.43"><path d="M84.1 67.05C83.78 68.81 83.55 70.63 82.59 72.19 82.47 72.38 82.11 72.32 82.17 72.06 82.57 70.32 83.44 68.73 83.94 67.03 83.97 66.93 84.11 66.95 84.1 67.05L84.1 67.05Z" fill="#FFFFFF"/></g><g><path d="M75.86 63.89C74.68 65.14 73.39 66.61 71.74 67.22 71.57 67.28 71.4 67.05 71.53 66.92 72.78 65.7 74.41 64.89 75.74 63.76 75.83 63.7 75.93 63.82 75.86 63.89L75.86 63.89Z" fill="#FFFFFF"/></g><g opacity="0.32"><path d="M74.56 62.95C73.41 63.76 72.13 64.61 70.75 64.94 70.65 64.96 70.56 64.83 70.66 64.77 71.88 64.04 73.25 63.55 74.5 62.85 74.55 62.82 74.62 62.91 74.56 62.95L74.56 62.95Z" fill="#FFFFFF"/></g><g opacity="0.34"><path d="M70.84 57.03C69.13 57.57 67.32 58.35 65.51 58.45 65.3 58.46 65.26 58.2 65.44 58.11 67.06 57.32 69.03 57.11 70.78 56.74 70.95 56.7 71 56.98 70.84 57.03L70.84 57.03Z" fill="#FFFFFF"/></g><g opacity="0.32"><path d="M69.32 55.22C67.79 55.52 65.92 55.52 64.44 54.99 64.28 54.93 64.33 54.66 64.5 54.66 66.09 54.68 67.74 54.94 69.32 55.11 69.39 55.11 69.38 55.21 69.32 55.22L69.32 55.22Z" fill="#FFFFFF"/></g><g><path d="M67.33 53.71C66.46 53.57 65.61 53.45 64.76 53.22 64.66 53.19 64.69 53.06 64.79 53.07 65.67 53.11 66.52 53.25 67.39 53.38 67.6 53.41 67.54 53.75 67.33 53.71L67.33 53.71Z" fill="#FFFFFF"/></g><g><path d="M73.27 47.21C72.87 46.1 71.64 45.12 70.82 44.28 70.14 43.58 69.43 42.9 68.86 42.11 68.79 42.01 68.91 41.85 69.02 41.92 70.04 42.58 70.87 43.5 71.66 44.42 72.36 45.23 73.21 46.09 73.29 47.2 73.28 47.21 73.27 47.22 73.27 47.21L73.27 47.21Z" fill="#FFFFFF"/></g><g opacity="0.32"><path d="M71.2 47.08C70.39 46.44 69.34 45.9 68.68 45.09 68.58 44.96 68.74 44.83 68.87 44.87 69.88 45.21 70.67 46.17 71.35 46.94 71.44 47.04 71.29 47.15 71.2 47.08L71.2 47.08Z" fill="#FFFFFF"/></g><g><path d="M83.16 48.58C83.16 47.86 83.09 47.13 82.97 46.42 82.85 45.72 82.63 45 82.65 44.29 82.66 44.11 82.87 44.01 82.99 44.17 83.88 45.36 83.7 47.22 83.54 48.6 83.52 48.81 83.16 48.8 83.16 48.58L83.16 48.58Z" fill="#FFFFFF"/></g><g opacity="0.32"><path d="M97.87 48.48C97.54 49.16 96.98 49.57 96.35 49.97 95.63 50.43 94.97 50.99 94.2 51.37 93.89 51.53 93.71 51.09 93.86 50.88 94.31 50.23 94.97 49.81 95.67 49.44 96.36 49.07 97.17 48.91 97.78 48.41 97.83 48.37 97.89 48.43 97.87 48.48L97.87 48.48Z" fill="#FFFFFF"/></g><g><path d="M102.22 55.76C100.63 56.47 98.67 57.1 96.92 57.2 96.76 57.21 96.73 57 96.86 56.94 98.42 56.18 100.45 55.76 102.18 55.6 102.28 55.58 102.3 55.72 102.22 55.76L102.22 55.76Z" fill="#FFFFFF"/></g><g opacity="0.34"><path d="M99.88 57.73C98.18 58.39 96.12 59.08 94.27 58.73 94.14 58.71 94.11 58.51 94.25 58.47 96.05 57.97 98.03 58.02 99.87 57.68 99.9 57.68 99.91 57.72 99.88 57.73L99.88 57.73Z" fill="#FFFFFF"/></g><g opacity="0.34"><path d="M102.18 71.15C100.22 70.41 97.98 68.99 96.69 67.34 96.56 67.18 96.77 66.93 96.96 67.03 97.87 67.53 98.68 68.22 99.51 68.84 100.45 69.54 101.43 70.18 102.33 70.93 102.45 71.03 102.32 71.2 102.18 71.15L102.18 71.15Z" fill="#FFFFFF"/></g><g><path d="M100.89 72.54C99.79 71.91 98.37 71.15 97.68 70.06 97.6 69.93 97.74 69.74 97.88 69.82 98.43 70.12 98.88 70.6 99.36 71 99.91 71.45 100.46 71.89 101.05 72.29 101.19 72.39 101.04 72.62 100.89 72.54L100.89 72.54Z" fill="#FFFFFF"/></g></g></g></g></svg>