<svg width="126.23" height="106.6" viewBox="0 0 126.23 106.6" xmlns="http://www.w3.org/2000/svg" xmlns:xlink="http://www.w3.org/1999/xlink" xml:space="preserve" overflow="hidden"><defs></defs><g id="Layer_32_-_copie"><g><g><defs><path d="M54.12 12.41C70.8 7.55 90.67 10.95 101.78 24.94 107.18 31.74 109.82 36.29 110.78 45.1 111.97 56.07 111.97 63.27 106.32 72.98 104.45 76.19 98.02 81.38 94.99 83.37 89.55 86.95 82.86 87.61 76.44 87.69 69.15 87.78 61.84 87.25 54.63 86.1 48.62 85.14 42.56 83.71 37.27 80.53 26.63 74.14 17.21 56.26 21.15 43.24 25.9 27.53 39.51 16.67 54.12 12.41Z" id="SVGID_1_"/></defs><clipPath id="SVGID_2_"><use width="100%" height="100%" xlink:href="#SVGID_1_" overflow="visible"></use></clipPath><use width="100%" height="100%" xlink:href="#SVGID_1_" fill="#88AE1A" overflow="visible"></use><g clip-path="url(#SVGID_2_)"><g><path d="M18.66 51.04C19.68 49.21 20.91 47.57 21.82 45.67 22.8 43.61 23.89 41.58 25.07 39.62 27.41 35.75 30.22 32.6 33.67 29.67 40.19 24.12 47.76 19.51 56.04 17.17 60.38 15.94 64.81 15.38 69.32 15.53 73.98 15.69 78.38 16.95 82.75 18.51 90.31 21.22 98.24 23.94 103.17 30.68 105.92 34.44 108.25 38.45 111.28 42 112.68 43.65 114.18 45.29 115.84 46.68 117.93 48.44 121.92 48.88 122.87 45.62 123.72 42.74 121.66 41.1 119.85 39.31 118.27 37.74 116.76 36.08 115.45 34.28 112.72 30.55 110.47 26.5 107.38 23.04 101.42 16.36 92.5 13.34 84.3 10.44 74.94 7.14 65.36 6.49 55.71 9 45.64 11.63 36.65 17.25 28.9 24.07 25.16 27.36 21.63 31.14 19.53 35.72 18.45 38.08 17.64 40.5 17 43.02 16.71 44.18 16.55 45.28 16.38 46.45 16.19 47.77 16.24 49.02 16.1 50.35 15.96 51.74 18.03 52.16 18.66 51.04L18.66 51.04Z" fill="#458750"/></g><g><path d="M17.12 58C18.97 57.5 16.57 56.93 18.2 55.99 20.16 54.87 22.93 53.01 24.68 51.56 27.78 48.98 31.43 44.72 34.57 42.19 40.06 37.76 46.48 35.17 52.98 32.3 59.82 29.28 68.71 28.05 75.74 30.04 105.3 38.43 115.92 51.78 120.3 52.07 123.67 52.29 122.35 48.65 120.51 46.47 119.1 44.8 117.1 43.99 115.24 42.88 113.51 41.84 111.82 40.74 110.15 39.61 106.97 37.44 103.89 35.14 100.78 32.87 97.52 30.48 96.2 29.71 92.69 27.71 88.85 25.52 82.93 22.64 78.55 22.16 70.49 21.28 61.89 20.93 54.15 23.69 46.73 26.33 40.19 30.88 34.2 35.92 30.69 38.87 27.3 41.95 24.01 45.15 22.28 46.83 20.37 48.5 19.03 50.51 17.74 52.44 16.28 54.25 15.62 56.5 15.34 57.4 16.23 58.24 17.12 58L17.12 58Z" fill="#47654D"/></g><g><path d="M18.57 61.55C20.39 61.98 20.57 60.49 22.29 59.92 24.09 59.32 26.99 58.03 28.77 57.36 32.37 56 36.5 53.64 40.02 52.08 46.81 49.07 53.12 48.17 60.49 46.9 67.27 45.73 73.85 46.66 80.36 48.7 86.8 50.72 95.19 52.17 101.72 53.95 105.49 54.98 112.12 55.92 116.04 56 117.91 56.03 114.87 56.96 116.74 56.99 118.76 57.02 120.63 57.72 122.64 57.65 125.05 57.56 127.33 54.65 125.66 52.38 124.3 50.53 122.7 49.56 120.44 49.18 118.42 48.84 116.4 48.81 114.36 48.87 110.98 48.97 107.73 48.83 104.42 48.11 97.54 46.6 91.08 43.72 84.42 41.49 77.45 39.15 70.21 37.73 62.84 38.47 54.83 39.28 47.29 41.86 39.99 45.17 35.91 47.02 31.93 49.24 28.11 51.58 26.28 52.7 24.53 53.97 22.76 55.17 20.99 56.37 18.73 57.45 17.72 59.41 17.29 60.22 17.62 61.33 18.57 61.55L18.57 61.55Z" fill="#1C652E"/></g><g><path d="M20.88 63.94C23.31 66.07 25.13 64.73 28.26 64.86 31.75 65 36.76 66.28 40.19 65.63 46.77 64.38 53.27 62.49 59.98 62.13 73.81 61.4 89.26 63.24 103.08 62.98 106.82 62.91 113.9 61.17 117.57 60.42 119.31 60.06 115.83 63.04 117.51 62.46 119.51 61.77 121.75 61.09 123.11 59.41 125 57.08 123.92 53.21 120.55 53.22 118.74 53.22 117.3 53.95 115.63 54.54 114.14 55.07 112.62 55.49 111.08 55.84 108.22 56.48 105.33 56.78 102.4 56.89 95.89 57.12 89.41 56.39 82.96 55.58 76.1 54.72 69.21 53.79 62.27 53.9 55.39 54.01 48.72 55.44 42.07 57.11 38.44 58.02 34.82 58.99 31.16 59.75 27.81 60.45 24.17 60.74 21.08 62.28 20.51 62.58 20.39 63.51 20.88 63.94L20.88 63.94Z" fill="#1D5B27"/></g><g><path d="M23.83 68.65C25.25 70.68 28.32 71.6 30.52 72.56 33.51 73.87 36.74 74.66 39.92 75.32 46.27 76.64 52.87 77.03 59.34 77.14 71.59 77.34 84.21 77.26 96.05 73.76 99.56 72.73 102.97 71.35 106.24 69.73 107.92 68.9 109.32 67.84 110.76 66.65 111.51 66.03 112.34 65.49 112.94 64.72 113.51 64 113.7 63.12 114.25 62.4 115.32 60.98 115.3 60.42 113.98 60.6 113.27 60.7 112.16 60.32 111.42 60.43 110.64 60.54 111.98 61.36 111.25 61.62 109.61 62.21 107.03 63.41 105.46 64.18 102.85 65.44 84.12 68.21 78.52 68.65 72.57 69.12 66.6 69.13 60.63 69.07 54.47 69 48.29 68.86 42.15 68.31 38.64 67.99 35.17 67.48 31.67 67.09 29.25 66.82 25.44 66.14 23.81 68.46 23.79 68.51 23.79 68.6 23.83 68.65L23.83 68.65Z" fill="#47654D"/></g><g><path d="M24.19 74.43C25.4 77.35 29.39 78.85 32.1 80.06 35.48 81.57 38.94 82.84 42.45 84.02 49.45 86.39 56.85 88.73 64.24 89.4 67.92 89.73 71.63 89.46 75.31 89.14 78.96 88.83 82.61 88.49 86.23 87.95 92.93 86.95 99.23 84.64 105.04 81.15 108.32 79.18 111.39 76.91 114.4 74.56 117.15 72.41 121.07 69.62 121.18 65.8 121.21 64.84 120.4 63.57 119.37 63.43 115.92 62.96 113.04 65.32 110.48 67.38 108.19 69.23 105.83 70.99 103.38 72.62 98.28 75.99 92.91 78.47 86.89 79.66 83.71 80.29 80.49 80.59 77.27 80.88 73.83 81.19 70.38 81.52 66.93 81.45 60 81.31 53.13 80.21 46.5 78.49 42.68 77.5 39.6 77.68 35.76 76.79 33.92 76.36 31.63 73.34 29.77 73.07 28.02 72.82 26.24 72.5 24.62 73.38 24.3 73.56 24.04 74.06 24.19 74.43L24.19 74.43Z" fill="#47654D"/></g></g></g><g><defs><path d="M54.12 12.41C70.8 7.55 90.67 10.95 101.78 24.94 107.18 31.74 109.82 36.29 110.78 45.1 111.97 56.07 111.97 63.27 106.32 72.98 104.45 76.19 98.02 81.38 94.99 83.37 89.55 86.95 82.86 87.61 76.44 87.69 69.15 87.78 61.84 87.25 54.63 86.1 48.62 85.14 42.56 83.71 37.27 80.53 26.63 74.14 17.21 56.26 21.15 43.24 25.9 27.53 39.51 16.67 54.12 12.41Z" id="SVGID_3_"/></defs><clipPath id="SVGID_4_"><use width="100%" height="100%" xlink:href="#SVGID_3_" overflow="visible"></use></clipPath><g clip-path="url(#SVGID_4_)"><path d="M20.79 46.27C19.6 46.29 18.59 47 18.41 48.23 18.3 48.96 19.2 49.75 19.81 49.05 24.27 43.92 30.75 41.08 34.53 35.24 35.5 33.75 36.33 32.18 37.61 30.92 39.04 29.51 40.83 28.49 42.57 27.52 46.04 25.58 49.6 23.98 53.42 22.83 57.46 21.61 61.65 20.48 65.86 20.18 70.01 19.89 74.12 20.49 78.13 21.54 81.82 22.51 85.68 23.65 89.09 25.39 92.29 27.02 94.79 29.67 98.13 31.05 99.95 31.8 101.99 32.24 103.63 33.37 105.21 34.46 106.16 36.21 107.21 37.76 109.4 40.98 112.32 44.58 116.31 45.41 118.02 45.77 118.9 43.94 117.91 42.66 116.75 41.17 115.35 40.08 113.99 38.79 112.52 37.41 111.32 35.85 110.18 34.2 109.28 32.91 108.37 31.58 107.17 30.54 105.63 29.19 103.79 28.43 101.89 27.75 100.13 27.12 98.5 26.48 96.95 25.4 95.4 24.33 93.98 23.1 92.34 22.16 88.71 20.08 84.52 18.81 80.49 17.76 76.46 16.72 72.27 16.02 68.09 16.12 63.8 16.22 59.57 17.2 55.46 18.33 51.3 19.47 47.22 20.89 43.38 22.89 40.05 24.63 36.49 26.91 34.16 29.9 32.91 31.51 32.04 33.37 30.81 34.99 29.54 36.67 27.95 38.11 26.36 39.48 23.33 42.08 20.49 44.51 18.5 48.04 19.02 48.18 19.54 48.32 20.06 48.46 19.96 47.73 20.23 47.09 20.86 46.55 20.97 46.46 20.94 46.27 20.79 46.27L20.79 46.27Z" fill="#97B723"/></g><g clip-path="url(#SVGID_4_)"><path d="M15.73 60.17C19.39 58.45 22.66 56.23 26.04 54.01 29.04 52.04 32.16 50.19 35.02 48.02 37.84 45.89 40.25 43.19 43.45 41.58 46.58 40.01 50.13 39.02 53.5 38.12 60.51 36.26 67.92 35.66 75.12 36.69 78.82 37.22 82.43 38.19 85.87 39.67 89.21 41.1 92.49 42.46 96.01 43.4 100.13 44.5 104.23 45.54 108.26 46.94 112.26 48.33 116.18 50.23 120.39 50.87 121.81 51.09 122.56 49.43 121.36 48.56 118.2 46.28 114.45 44.99 110.82 43.63 107.12 42.25 103.35 41.15 99.52 40.19 95.7 39.23 92.07 38.08 88.45 36.51 84.95 34.99 81.43 33.8 77.67 33.13 70.3 31.84 62.76 32.07 55.45 33.62 51.85 34.39 48.37 35.49 45.02 37 41.59 38.54 39.14 40.97 36.47 43.51 30.01 49.65 21.81 53.56 15.28 59.59 14.99 59.9 15.39 60.33 15.73 60.17L15.73 60.17Z" fill="#97B723"/></g><g clip-path="url(#SVGID_4_)"><path d="M18.12 63.85C21.47 63.25 24.66 62.06 27.88 60.96 30.67 60.01 33.49 59.11 36.18 57.88 37.56 57.25 38.84 56.45 40.2 55.77 41.74 55 43.4 54.66 45.09 54.38 48.35 53.84 51.62 53.36 54.9 52.99 61.69 52.23 68.53 51.88 75.34 52.45 81.9 53 88.44 53.93 94.97 54.71 98.63 55.15 102.28 55.61 105.9 56.31 109.46 57 112.93 57.96 116.53 58.51 117.57 58.67 118.18 57.41 117.26 56.79 111.89 53.15 104.97 52.53 98.68 51.71 91.89 50.83 85.1 50 78.32 49.27 71.38 48.52 64.45 48.5 57.52 49.31 51.05 50.06 44.15 50.6 38.5 54.08 32.01 58.08 24.33 59.21 17.67 62.77 17.03 63.1 17.49 63.96 18.12 63.85L18.12 63.85Z" fill="#97B723"/></g><g clip-path="url(#SVGID_4_)"><path d="M21.56 66.3C24.57 67.28 27.88 67.19 31.01 67.34 34.25 67.49 37.48 67.61 40.72 67.65 47.28 67.74 53.81 67.51 60.32 66.71 63.47 66.32 66.61 65.93 69.8 66 73.03 66.08 76.24 66.46 79.46 66.64 85.7 66.98 92.16 66.96 98.27 65.51 101.73 64.69 105.02 63.46 108.52 62.78 112.15 62.08 115.89 61.7 119.58 61.58 120.23 61.56 120.4 60.59 119.74 60.42 113.52 58.86 107.47 60.88 101.29 61.65 98.11 62.05 94.96 62.7 91.76 62.98 88.64 63.25 85.51 63.35 82.38 63.3 75.96 63.2 69.66 62.32 63.25 63.19 56.75 64.07 50.3 64.87 43.73 65.13 39.94 65.28 36.14 65.32 32.35 65.31 28.8 65.3 25.02 64.85 21.56 65.71 21.26 65.79 21.29 66.22 21.56 66.3L21.56 66.3Z" fill="#97B723"/></g><g clip-path="url(#SVGID_4_)"><path d="M24.53 73.02C27.69 73.41 30.92 73.56 34.04 74.19 37.04 74.79 39.9 75.94 42.83 76.82 48.75 78.6 54.85 80.06 61 80.68 67.42 81.33 73.5 80.73 79.79 79.43 82.94 78.78 86.05 78.62 89.24 78.31 92.05 78.04 94.6 77.25 97.19 76.13 100.4 74.75 103.59 73.42 106.91 72.3 108.55 71.75 110.19 71.21 111.83 70.66 113.36 70.15 115.06 69.69 116.15 68.44 116.54 68 116.43 67.2 115.78 67.05 113.06 66.44 109.84 68.14 107.28 68.97 104.56 69.86 101.85 70.77 99.21 71.88 96.43 73.05 93.7 74.44 90.7 74.91 87.77 75.37 84.77 75.23 81.83 75.7 78.62 76.22 75.48 77.1 72.25 77.45 69.07 77.8 65.86 77.78 62.67 77.54 56.34 77.05 50.04 75.86 43.93 74.13 40.77 73.24 37.66 72.16 34.38 71.78 31 71.38 27.77 71.82 24.47 72.53 24.15 72.58 24.27 72.98 24.53 73.02L24.53 73.02Z" fill="#97B723"/></g></g><g><defs><path d="M54.12 12.41C70.8 7.55 90.67 10.95 101.78 24.94 107.18 31.74 109.82 36.29 110.78 45.1 111.97 56.07 111.97 63.27 106.32 72.98 104.45 76.19 98.02 81.38 94.99 83.37 89.55 86.95 82.86 87.61 76.44 87.69 69.15 87.78 61.84 87.25 54.63 86.1 48.62 85.14 42.56 83.71 37.27 80.53 26.63 74.14 17.21 56.26 21.15 43.24 25.9 27.53 39.51 16.67 54.12 12.41Z" id="SVGID_5_"/></defs><clipPath id="SVGID_6_"><use width="100%" height="100%" xlink:href="#SVGID_5_" overflow="visible"></use></clipPath><path d="M125.39 56.41C125.22 54.73 124.23 53.29 122.45 53.08 120.92 52.9 119.02 53.83 118.72 55.51 117.1 64.87 107.24 68.39 99.29 70.89 89.9 73.84 80.41 76.33 70.49 75.29 62.61 74.46 54.63 71.39 48.66 66.11 45.17 63.02 42.53 59.31 40.33 55.22 37.97 50.83 35.79 46.12 34.45 41.31 33.19 36.77 33.21 31.97 34.42 27.41 35.58 23 37.92 18.52 40.85 15.03 42.36 13.23 40.3 9.83 38.12 11.49 36.19 12.96 34.37 14.57 32.81 16.44 31.27 18.3 30.19 20.58 29.26 22.81 29.49 21.15 29.86 19.5 30.38 17.85 31.54 14.22 26.19 12.07 24.3 15.29 22.64 18.12 21.33 21.22 20.39 24.44 19.23 21.75 14.49 21.32 13.89 24.77 12.19 34.46 11.78 44.58 13.7 54.27 15.5 63.4 21.04 70.4 28.29 75.97 30.02 77.3 31.81 78.54 33.65 79.69 34.73 80.73 35.86 81.73 37.1 82.58 38.73 83.68 40.71 84.46 42.25 85.65 42.99 86.22 44.07 85.96 44.75 85.38 54.2 89.23 64.47 91.11 74.65 90.85 79.29 90.73 83.95 90.17 88.48 89.19 92.35 88.35 97.93 87.41 100.29 83.8 102.62 83.31 104.92 82.66 107.13 81.78 117.37 77.74 126.58 68.18 125.39 56.41Z" fill="#47654D" clip-path="url(#SVGID_6_)" opacity="0.32"/><path d="M120.93 21.31C117.53 14.48 111.56 9 104.86 5.49 97.82 1.79 89.47-0.36 81.49 0.06 73.25 0.48 64.53 4.92 63.14 13.8 63.13 13.84 63.13 13.87 63.12 13.91 62.06 16.58 61.63 19.47 61.56 22.42 61.36 30.7 64.16 38.14 69.94 44.1 75.73 50.05 83.71 54.16 91.94 55.21 96.51 55.79 101.02 55.08 105.34 53.54 109.44 52.07 113.77 50.34 116.8 47.1 119.8 43.89 122.24 39.35 123.11 35.04 124.07 30.25 123.08 25.63 120.93 21.31Z" fill="#91C19D" clip-path="url(#SVGID_6_)" opacity="0.64"/></g><g><defs><path d="M54.12 12.41C70.8 7.55 90.67 10.95 101.78 24.94 107.18 31.74 109.82 36.29 110.78 45.1 111.97 56.07 111.97 63.27 106.32 72.98 104.45 76.19 98.02 81.38 94.99 83.37 89.55 86.95 82.86 87.61 76.44 87.69 69.15 87.78 61.84 87.25 54.63 86.1 48.62 85.14 42.56 83.71 37.27 80.53 26.63 74.14 17.21 56.26 21.15 43.24 25.9 27.53 39.51 16.67 54.12 12.41Z" id="SVGID_7_"/></defs><clipPath id="SVGID_8_"><use width="100%" height="100%" xlink:href="#SVGID_7_" overflow="visible"></use></clipPath><path d="M124.45 52.82C125.35 50.85 125.01 48.5 123.01 47.33 122.39 46.97 121.64 46.8 120.89 46.82 120.94 46.15 120.98 45.48 120.98 44.82 121 41.54 116.49 40.36 114.84 43.16 111.47 48.89 105.74 52.79 99.63 55.18 92.57 57.94 84.68 59.52 77.09 59.22 65.88 58.77 54.53 53.51 47.05 45 45.69 42.65 44.53 40.16 43.51 37.66 42.07 34.1 40.8 30.45 39.62 26.8 39.38 26.06 39.17 25.33 38.99 24.61 39.23 20.77 40.62 17.07 43.61 14.01 44.87 12.72 43.01 10.95 41.67 12.07 40.35 13.17 39.21 14.44 38.26 15.82 38.08 15.27 37.82 14.73 37.44 14.23 36.17 12.53 33.78 11.84 32.12 13.54 30.95 14.74 30.13 16.09 29.53 17.54 29.52 17.54 29.51 17.54 29.49 17.54 28.14 17.54 26.63 18.68 26.5 20.1 24.77 19.27 22.52 19.47 21.61 21.49 16.19 33.54 13.29 47.24 19.17 59.7 19.45 60.29 19.75 60.86 20.07 61.42 21.05 64.96 22.36 68.45 24.22 71.5 27.09 76.2 31.69 80.02 35.99 83.37 40.82 87.13 46.03 89.51 52.2 89.9 55.68 90.12 59.23 89.79 62.73 89.2 64.26 89.54 65.81 89.8 67.41 89.98 72.51 90.55 77.74 90.16 82.73 88.96 87.91 87.71 92.78 85.36 97.54 83.03 106.53 78.63 115.97 73.01 120.33 63.55 120.94 62.24 121 60.77 120.3 59.6 120.86 58.86 121.39 58.1 121.9 57.33 122.86 55.9 123.73 54.4 124.45 52.82Z" fill="#334A04" clip-path="url(#SVGID_8_)" opacity="0.29"/></g><g opacity="0.35"><path d="M73.5 23.05C73.97 23.37 74.59 23.54 75.12 23.74 75.67 23.95 76.19 24.18 76.72 24.43 77.8 24.93 79.1 24.73 79.74 23.64 80.3 22.69 80.03 21.13 78.95 20.62 77.59 19.99 76.06 19.7 74.59 20.16 73.43 20.53 72.05 22.05 73.5 23.05L73.5 23.05Z" fill="#FFFFFF"/></g><g><path d="M88.26 29.31C88.97 30.68 90.57 31.6 91.67 32.67 92.87 33.84 94.05 35.04 95.02 36.41 97.36 39.73 102.07 36.2 99.48 32.97 98.15 31.31 96.54 29.81 94.63 28.84 93.04 28.03 90.75 26.98 88.95 27.61 88.23 27.86 87.9 28.61 88.26 29.31L88.26 29.31Z" fill="#FFFFFF"/></g><g><defs><path d="M93.26 59.75C94.83 75.86 82.86 91.52 67.48 96.59 52.1 101.66 35.63 99.85 22.74 90.05 18.6 86.9 13.76 80.5 11.35 75.9 9.28 71.95 8.31 67.54 7.36 63.19 36.39 62.17 64.23 60.77 93.26 59.75Z" id="SVGID_9_"/></defs><clipPath id="SVGID_10_"><use width="100%" height="100%" xlink:href="#SVGID_9_" overflow="visible"></use></clipPath><use width="100%" height="100%" xlink:href="#SVGID_9_" fill="#EA2E25" overflow="visible"></use><g clip-path="url(#SVGID_10_)"><path d="M4.4 59.95C3.41 64.03 4.53 67.95 6.06 71.75 7.69 75.8 9.92 79.51 12.64 82.92 17.96 89.59 24.95 94.62 32.85 97.8 49.71 104.59 72.46 102.43 85.39 88.76 89.03 84.92 92.26 80.39 93.94 75.34 95.57 70.47 96.72 63.08 93.68 58.59 92.69 57.12 90.66 57.08 89.68 58.59 87.22 62.37 88.06 67.3 87 71.54 86.06 75.33 83.94 78.67 81.44 81.64 76.1 87.98 69.07 91.41 61 93.01 45.93 95.99 30.23 90.97 19.7 79.83 16.98 76.95 10.53 64.87 9.17 57.2 9 56.2 4.68 58.8 4.4 59.95L4.4 59.95Z" fill="#EFFFE9"/></g><g clip-path="url(#SVGID_10_)"><path d="M91.36 53.44C91.42 55.72 91.03 58.07 90.89 60.35 90.76 62.61 91.19 64.51 90.81 66.73 90.1 70.84 88.61 73.82 86.89 77.64 83.56 85.05 76.73 91.36 69 93.66 64.83 94.9 61.05 95.54 56.71 95.73 52.29 95.92 47.68 95.7 43.26 95.28 33.2 94.35 24.2 87.63 20.93 85.14 13.58 79.53 9.39 67.44 7.98 58.21 7.67 56.21 4.46 57.99 2.68 58.48 0.54 59.07-0.24 61.08 0.07 63.08 1.51 72.54 6.61 80.93 13.85 87.09 17.44 90.14 21.36 92.76 25.36 95.24 29.63 97.88 33.96 100.66 38.86 101.97 43.79 103.29 49.05 103.35 54.12 103.26 59.38 103.17 64.69 102.67 69.78 101.29 78.81 98.84 86.98 93.43 91.5 85.08 94.1 80.28 95.73 74.89 96.69 69.53 97.2 66.71 97.48 63.85 97.32 60.98 97.23 59.48 97.07 57.87 96.61 56.43 96.18 55.06 95.43 53.79 94.81 52.5 94.01 50.81 91.31 51.67 91.36 53.44L91.36 53.44Z" fill="#387746"/></g><path d="M80.69 51.98C78.78 51.21 76.98 51.95 75.81 53.58 75.01 54.7 73.94 55.59 72.79 56.36 70.83 56.14 68.96 56.31 67.04 56.94 65.05 57.6 63.18 58.5 61.14 58.97 57.09 59.91 52.75 59.75 48.61 59.86 44.26 59.97 39.89 60 35.54 59.67 33.78 59.53 31.51 59.48 29.45 59.04 28.98 57.96 28.08 57.07 26.89 56.8 25.8 56.55 24.71 56.29 23.61 56.07 22.95 55.93 22.32 55.96 21.74 56.1 20.94 55.54 20.15 54.94 19.39 54.32 16.82 52.19 13.6 53.44 12.85 56.41 12.67 55.97 12.52 55.52 12.43 55.05 12.2 53.91 10.54 54.24 10.48 55.31 10.19 61.2 14.07 65.25 18.01 69.09 22.39 73.36 27.33 77.25 33.04 79.53 45.21 84.39 59.07 79.44 69.61 72.86 75.83 68.97 80.42 63.5 82.94 56.6 83.61 54.78 82.36 52.65 80.69 51.98Z" fill="#F44D4D" clip-path="url(#SVGID_10_)" opacity="0.65"/></g><g><defs><path d="M93.26 59.75C94.83 75.86 82.86 91.52 67.48 96.59 52.1 101.66 35.63 99.85 22.74 90.05 18.6 86.9 13.76 80.5 11.35 75.9 9.28 71.95 8.31 67.54 7.36 63.19 36.39 62.17 64.23 60.77 93.26 59.75Z" id="SVGID_11_"/></defs><clipPath id="SVGID_12_"><use width="100%" height="100%" xlink:href="#SVGID_11_" overflow="visible"></use></clipPath><path d="M61.4 52.7C51.32 58.13 39.47 59.84 28.28 57.49 26.83 56.67 24.86 57.07 23.71 58.65 23.64 58.74 23.57 58.84 23.5 58.93 22.31 60.57 23.31 63.08 25.04 63.89 25.64 64.52 26.3 65.09 26.99 65.61 28.56 66.8 30.38 67.64 32.22 68.34 36.46 69.95 41.22 71.02 45.75 71.1 54.79 71.27 62.18 65.28 66.29 57.59 68 54.42 64.59 50.98 61.4 52.7Z" fill="#EFFFE9" clip-path="url(#SVGID_12_)" opacity="0.3"/></g><g><defs><path d="M93.26 59.75C94.83 75.86 82.86 91.52 67.48 96.59 52.1 101.66 35.63 99.85 22.74 90.05 18.6 86.9 13.76 80.5 11.35 75.9 9.28 71.95 8.31 67.54 7.36 63.19 36.39 62.17 64.23 60.77 93.26 59.75Z" id="SVGID_13_"/></defs><clipPath id="SVGID_14_"><use width="100%" height="100%" xlink:href="#SVGID_13_" overflow="visible"></use></clipPath><path d="M82.75 85.55C72.38 89.96 60.63 90.82 50.7 84.87 41.37 79.28 35.88 68.94 35.28 58.22 35.21 57 33.58 56.4 32.82 57.1 31.37 54.72 27.24 55.14 26.45 58.21 26.17 56.91 25.92 55.6 25.72 54.3 25.11 50.34 18.93 51.42 18.89 55.22 18.87 56.89 18.93 58.55 19.05 60.22 18.93 60.04 18.79 59.89 18.64 59.75 18 58.73 17.29 57.72 16.48 56.93 14.7 55.22 11.86 54.83 9.99 56.63 8.47 56.65 7 57.51 6.56 59.29 6.13 61 5.7 62.71 5.27 64.42 5.17 64.59 5.08 64.76 5 64.94 4.25 66.7 4.76 68.11 5.88 69.56 6.23 70.02 6.68 70.33 7.17 70.51 7.23 70.62 7.3 70.73 7.37 70.84 7.42 70.94 7.47 71.05 7.51 71.15 7.95 72.07 8.39 73 8.84 73.91 9.79 75.83 10.79 77.73 11.84 79.6 13.07 81.78 14.39 83.91 15.8 85.98 15.63 86.33 15.49 86.7 15.4 87.1 14.97 89.02 15.79 90.68 16.92 92.16 20.67 97.06 26.02 100.19 31.87 102.3 33.57 103.42 35.33 104.44 37.16 105.33 38.77 106.12 40.4 105.82 41.57 104.95 44.09 105.47 46.58 105.88 48.98 106.25 50.56 106.49 52.13 106.14 53.11 104.98 53.82 105.27 54.56 105.52 55.32 105.73 61.95 107.55 68.83 106.36 75.01 103.6 81.27 100.81 87.58 95.94 87.95 88.55 88.12 85.64 84.98 84.6 82.75 85.55Z" fill="#D8A8A7" clip-path="url(#SVGID_14_)" opacity="0.34"/></g><g><path d="M64.74 73.23C64.69 74.06 65.13 74.91 65.52 75.62 66.04 76.58 66.79 77.65 67.92 77.89 69.47 78.23 70.57 76.97 70.33 75.48 70.15 74.38 69.02 73.55 68.09 73.05 67.38 72.67 66.46 72.23 65.63 72.34 65.13 72.41 64.77 72.7 64.74 73.23L64.74 73.23Z" fill="#DB1616"/></g><g><path d="M69.52 70.36C69.77 70.71 69.91 71.04 70.11 71.42 70.34 71.85 70.75 72.17 71.12 72.47 72.15 73.31 73.61 73.95 74.73 72.84 75.19 72.38 75.31 71.68 75.14 71.06 74.91 70.22 74.15 69.78 73.38 69.51 72.46 69.19 71.59 68.99 70.62 69.15 70.83 69.15 71.04 69.15 71.26 69.15 71.04 69.09 70.82 69.02 70.6 68.95 69.85 68.71 69.04 69.67 69.52 70.36L69.52 70.36Z" fill="#DB1616"/></g><g><path d="M72.94 66.76C73.14 67.55 73.81 68.03 74.51 68.37 75.5 68.85 76.46 68.93 77.48 68.46 78.26 68.1 78.57 66.85 78.09 66.15 77.37 65.12 76.29 64.73 75.07 64.82 74.06 64.88 72.62 65.5 72.94 66.76L72.94 66.76Z" fill="#DB1616"/></g><g><path d="M59.66 76.37C59.55 77.02 59.37 77.73 59.36 78.39 59.36 78.77 59.39 79.2 59.5 79.56 59.67 80.16 60.02 80.49 60.5 80.85 61.22 81.4 62.37 80.95 62.79 80.25 63.65 78.79 62.59 77.32 61.83 76.09 61.33 75.3 59.83 75.31 59.66 76.37L59.66 76.37Z" fill="#DB1616"/></g><g><path d="M53.55 77.89C53.1 78.59 52.76 79.16 52.65 80.01 52.52 81.01 52.47 81.93 52.98 82.85 53.44 83.67 54.48 84.07 55.38 83.83 56.33 83.57 56.87 82.72 56.94 81.78 57.05 80.41 56.14 79.05 55.62 77.89 55.23 77.02 53.98 77.21 53.55 77.89L53.55 77.89Z" fill="#DB1616"/></g><g><path d="M47.28 77.86C45.91 79.43 44.93 82.21 46.54 83.94 47.25 84.7 48.69 84.74 49.4 83.94 50.66 82.51 50.29 80.3 49.96 78.56 49.73 77.41 48.04 76.98 47.28 77.86L47.28 77.86Z" fill="#DB1616"/></g><g><path d="M40.65 78.57C39.78 79.16 39 79.79 38.5 80.73 37.85 81.93 37.28 83.33 38.1 84.6 38.75 85.61 40.09 86.05 41.17 85.4 42.93 84.34 42.86 81.76 43.03 79.93 43.14 78.77 41.59 77.93 40.65 78.57L40.65 78.57Z" fill="#DB1616"/></g><g><path d="M34.22 78.33C33 79.11 31.11 79.77 30.61 81.35 30.18 82.71 31.56 83.94 32.86 83.6 34.57 83.16 35.25 80.98 35.83 79.57 36.22 78.67 34.98 77.84 34.22 78.33L34.22 78.33Z" fill="#DB1616"/></g><g><path d="M28.4 75C28.12 75.18 27.73 75.32 27.42 75.47 27.68 75.4 27.95 75.33 28.21 75.26 28.01 75.28 27.82 75.3 27.63 75.33 27.2 75.51 27.09 75.56 27.31 75.46 27.05 75.57 26.78 75.67 26.53 75.79 25.98 76.05 26.88 75.67 26.34 75.88 25.99 76.01 25.62 76.12 25.31 76.34 24.37 77.01 23.83 78.3 24.52 79.36 25.18 80.38 26.46 80.76 27.54 80.15 28.19 79.78 28.64 79.18 29.08 78.58 29.48 78.04 29.72 77.48 29.79 76.81 29.72 77.07 29.65 77.34 29.58 77.6 29.78 77.14 29.9 76.71 30.06 76.25 30.37 75.34 29.19 74.49 28.4 75L28.4 75Z" fill="#DB1616"/></g><g><path d="M24.01 72.37C23.5 72.48 23.02 72.47 22.5 72.59 22.33 72.63 21.97 72.64 21.84 72.74 21.93 72.72 22.03 72.71 22.12 72.69 22.01 72.68 21.89 72.69 21.78 72.72 21.51 72.76 21.27 72.84 21.04 72.97 20.13 73.49 19.77 75.04 20.68 75.77 20.7 75.78 20.71 75.8 20.73 75.81 21.2 76.19 21.88 76.54 22.51 76.28 23.31 75.95 23.64 75.52 24.13 74.85 24.46 74.4 24.61 74.01 24.92 73.57 25.38 72.95 24.64 72.24 24.01 72.37L24.01 72.37Z" fill="#DB1616"/></g><g><path d="M22.26 68.45C20.54 67.41 18.18 68.1 16.61 69.14 15.64 69.78 15.23 71.04 15.84 72.08 16.42 73.06 17.79 73.46 18.78 72.85 20.15 72 21.75 71.07 22.58 69.65 22.82 69.23 22.67 68.69 22.26 68.45L22.26 68.45Z" fill="#DB1616"/></g><g><path d="M72.71 76.09C72.71 76.15 72.72 76.21 72.72 76.27 72.78 76.05 72.84 75.83 72.9 75.62 72.5 76.54 72.79 77.36 73.15 78.24 73.61 79.36 74.38 80.44 75.6 80.78 76.99 81.16 78.61 79.78 78.07 78.31 77.69 77.27 76.94 76.61 76.04 76.01 75.4 75.58 74.88 75.02 74.01 74.98 74.23 75.04 74.45 75.1 74.66 75.16 74.61 75.13 74.56 75.1 74.5 75.07 73.76 74.6 72.67 75.18 72.71 76.09L72.71 76.09Z" fill="#DB1616"/></g><g><path d="M76.03 73.93C76.17 74.19 76.37 74.41 76.58 74.61 76.72 74.78 76.89 74.92 77.08 75.03 77.27 75.17 77.28 75.17 77.12 75.05 77.86 75.65 78.36 76 79.35 76.1 80.92 76.27 81.8 74.28 81.09 73.06 80.28 71.68 77.98 71.06 76.58 71.87 75.84 72.29 75.64 73.22 76.03 73.93L76.03 73.93Z" fill="#DB1616"/></g><g><path d="M79.17 68.88C79.63 69.33 80.25 69.85 80.98 70.13 81.87 70.47 82.73 70.56 83.59 70.07 84.67 69.47 84.76 68.01 83.97 67.16 82.86 65.96 81.03 66.32 79.78 66.58 78.75 66.79 78.46 68.18 79.17 68.88L79.17 68.88Z" fill="#DB1616"/></g><g><path d="M59.1 70.84C59.12 71.18 59.14 71.51 59.24 71.83 59.33 72.09 59.44 72.35 59.55 72.61 59.7 72.99 59.86 73.3 60.11 73.62 60.5 74.12 61 74.27 61.6 74.35 62.25 74.43 62.8 73.84 62.99 73.29 63.3 72.4 62.83 71.58 62.25 70.94 61.84 70.48 61.47 70.09 60.93 69.79 60.16 69.36 59.05 69.89 59.1 70.84L59.1 70.84Z" fill="#DB1616"/></g><g><path d="M65.46 82.67C65.31 82.3 65.27 82.25 65.35 82.51 65.38 82.64 65.4 82.77 65.42 82.9 65.47 83.18 65.54 83.44 65.63 83.71 65.87 84.44 66.07 85.2 66.7 85.69 67.28 86.14 67.93 86.38 68.65 86.06 69.34 85.76 69.69 85.16 69.75 84.43 69.83 83.48 69.26 82.52 68.73 81.76 68.27 81.09 67.72 80.4 66.89 80.21 65.54 79.9 64.32 81.64 65.46 82.67L65.46 82.67Z" fill="#DB1616"/></g><g><path d="M49.95 85.81C49.41 86.33 49.16 87.2 49.09 87.93 48.99 88.93 49.2 89.84 50.12 90.4 50.77 90.79 51.71 90.68 52.24 90.13 52.98 89.35 52.91 88.49 52.69 87.53 52.55 86.91 52.3 86.31 51.92 85.81 51.45 85.21 50.44 85.34 49.95 85.81L49.95 85.81Z" fill="#DB1616"/></g><g><g><path d="M20.65 68.3C20.01 68.3 19.4 68.34 18.83 68.64 18.09 69.02 17.33 69.53 17.3 70.44 17.28 71.17 17.8 71.85 18.56 71.9 19.81 71.97 20.66 70.66 21.37 69.8 21.83 69.26 21.34 68.31 20.65 68.3L20.65 68.3Z" fill="#4C0000"/></g><g opacity="0.16"><path d="M19.69 69.82C19.52 69.82 19.36 69.83 19.21 69.91 19.01 70.01 18.81 70.15 18.8 70.39 18.79 70.58 18.93 70.77 19.14 70.78 19.47 70.8 19.7 70.45 19.89 70.22 20.01 70.07 19.88 69.82 19.69 69.82L19.69 69.82Z" fill="#FFFFFF"/></g></g><g><g><path d="M24.06 72.79C23.42 72.79 22.81 72.83 22.24 73.13 21.5 73.51 20.74 74.01 20.71 74.93 20.69 75.66 21.21 76.34 21.97 76.39 23.22 76.46 24.07 75.15 24.78 74.29 25.24 73.74 24.75 72.79 24.06 72.79L24.06 72.79Z" fill="#4C0000"/></g></g><g><g><path d="M28.51 75.47C27.81 75.58 27.14 75.73 26.56 76.16 25.81 76.71 25.06 77.4 25.19 78.42 25.29 79.23 25.99 79.89 26.84 79.81 28.23 79.67 28.94 78.07 29.58 77 29.98 76.32 29.28 75.36 28.51 75.47L28.51 75.47Z" fill="#4C0000"/></g><g opacity="0.39"><path d="M27.72 77.32C27.53 77.35 27.36 77.39 27.2 77.5 27 77.65 26.8 77.83 26.84 78.1 26.87 78.31 27.05 78.49 27.28 78.47 27.65 78.43 27.84 78.01 28.01 77.72 28.11 77.54 27.93 77.29 27.72 77.32L27.72 77.32Z" fill="#FFFFFF"/></g></g><g><g><path d="M34.64 78.73C33.95 78.9 33.3 79.11 32.76 79.59 32.06 80.2 31.37 80.96 31.59 81.96 31.76 82.76 32.51 83.36 33.35 83.2 34.72 82.94 35.29 81.28 35.83 80.16 36.17 79.44 35.39 78.54 34.64 78.73L34.64 78.73Z" fill="#4C0000"/></g><g opacity="0.38"><path d="M34.01 80.63C33.83 80.67 33.65 80.73 33.51 80.86 33.32 81.02 33.14 81.22 33.2 81.49 33.25 81.7 33.45 81.86 33.67 81.82 34.03 81.75 34.18 81.31 34.33 81.01 34.42 80.82 34.21 80.59 34.01 80.63L34.01 80.63Z" fill="#FFFFFF"/></g></g><g><g><path d="M40.95 79.45C40.33 79.8 39.77 80.19 39.38 80.8 38.88 81.58 38.42 82.5 38.91 83.4 39.3 84.12 40.18 84.49 40.95 84.11 42.2 83.48 42.29 81.74 42.5 80.51 42.62 79.71 41.62 79.06 40.95 79.45L40.95 79.45Z" fill="#4C0000"/></g><g opacity="0.39"><path d="M40.87 81.45C40.71 81.54 40.56 81.65 40.45 81.81 40.32 82.02 40.2 82.26 40.32 82.5 40.42 82.69 40.66 82.79 40.86 82.69 41.19 82.52 41.21 82.06 41.27 81.73 41.32 81.52 41.05 81.35 40.87 81.45L40.87 81.45Z" fill="#FFFFFF"/></g></g><g><g><path d="M47.6 78.66C47.2 79.25 46.86 79.84 46.78 80.56 46.67 81.48 46.67 82.5 47.5 83.1 48.16 83.57 49.12 83.52 49.64 82.84 50.49 81.73 49.79 80.12 49.44 78.93 49.22 78.16 48.04 78.02 47.6 78.66L47.6 78.66Z" fill="#4C0000"/></g></g><g><g><path d="M50.79 85.48C50.39 86.07 50.05 86.66 49.97 87.38 49.86 88.3 49.86 89.32 50.69 89.92 51.35 90.39 52.31 90.34 52.83 89.66 53.68 88.55 52.98 86.94 52.63 85.75 52.41 84.97 51.22 84.83 50.79 85.48L50.79 85.48Z" fill="#4C0000"/></g><g opacity="0.38"><path d="M51.6 87.31C51.49 87.47 51.4 87.62 51.38 87.81 51.35 88.05 51.35 88.33 51.57 88.48 51.75 88.61 52 88.59 52.14 88.41 52.36 88.11 52.18 87.69 52.09 87.37 52.03 87.17 51.72 87.14 51.6 87.31L51.6 87.31Z" fill="#FFFFFF"/></g></g><g><g><path d="M53.22 78.91C52.95 79.57 52.75 80.22 52.83 80.94 52.92 81.86 53.13 82.86 54.07 83.27 54.82 83.59 55.74 83.33 56.1 82.56 56.69 81.29 55.67 79.87 55.07 78.78 54.7 78.08 53.51 78.19 53.22 78.91L53.22 78.91Z" fill="#4C0000"/></g><g opacity="0.16"><path d="M54.41 80.53C54.34 80.71 54.29 80.88 54.31 81.07 54.33 81.32 54.39 81.58 54.64 81.69 54.84 81.78 55.08 81.71 55.18 81.5 55.34 81.16 55.07 80.79 54.91 80.5 54.8 80.31 54.48 80.34 54.41 80.53L54.41 80.53Z" fill="#FFFFFF"/></g></g><g><g><path d="M60.21 76.7C59.94 77.36 59.74 78.01 59.82 78.73 59.91 79.65 60.12 80.65 61.06 81.06 61.81 81.38 62.73 81.12 63.09 80.35 63.68 79.08 62.66 77.66 62.06 76.57 61.68 75.86 60.5 75.98 60.21 76.7L60.21 76.7Z" fill="#4C0000"/></g><g opacity="0.16"><path d="M61.39 78.31C61.32 78.49 61.27 78.66 61.29 78.85 61.31 79.1 61.37 79.36 61.62 79.47 61.82 79.56 62.06 79.49 62.16 79.28 62.32 78.94 62.05 78.57 61.89 78.28 61.79 78.09 61.47 78.12 61.39 78.31L61.39 78.31Z" fill="#FFFFFF"/></g></g><g><g><path d="M59.74 71.03C59.68 71.68 59.67 72.32 59.92 72.94 60.24 73.74 60.69 74.57 61.63 74.69 62.38 74.78 63.13 74.31 63.25 73.53 63.44 72.25 62.17 71.25 61.36 70.44 60.83 69.91 59.81 70.32 59.74 71.03L59.74 71.03Z" fill="#4C0000"/></g></g><g><g><path d="M66.1 82C66.04 82.65 66.03 83.29 66.28 83.91 66.6 84.71 67.05 85.54 67.99 85.66 68.74 85.75 69.49 85.28 69.61 84.5 69.8 83.22 68.53 82.22 67.72 81.41 67.19 80.87 66.17 81.29 66.1 82L66.1 82Z" fill="#4C0000"/></g><g opacity="0.39"><path d="M67.57 83.13C67.55 83.3 67.55 83.47 67.62 83.64 67.71 83.85 67.82 84.07 68.07 84.1 68.27 84.12 68.47 84 68.5 83.79 68.55 83.45 68.21 83.18 68 82.97 67.87 82.83 67.59 82.94 67.57 83.13L67.57 83.13Z" fill="#FFFFFF"/></g></g><g><g><path d="M65.8 74.04C65.88 74.69 66.02 75.31 66.4 75.86 66.89 76.56 67.52 77.28 68.46 77.18 69.21 77.1 69.84 76.47 69.78 75.68 69.68 74.39 68.21 73.7 67.24 73.09 66.61 72.7 65.7 73.33 65.8 74.04L65.8 74.04Z" fill="#4C0000"/></g><g opacity="0.39"><path d="M67.49 74.81C67.51 74.98 67.55 75.15 67.65 75.29 67.78 75.48 67.95 75.67 68.2 75.64 68.4 75.62 68.57 75.45 68.55 75.24 68.52 74.9 68.13 74.71 67.87 74.55 67.7 74.45 67.46 74.62 67.49 74.81L67.49 74.81Z" fill="#FFFFFF"/></g></g><g><g><path d="M38.81 74.41C38.34 74.52 37.89 74.67 37.52 74.99 37.04 75.41 36.56 75.92 36.71 76.61 36.83 77.15 37.34 77.57 37.91 77.46 38.85 77.29 39.24 76.16 39.62 75.39 39.86 74.9 39.32 74.29 38.81 74.41L38.81 74.41Z" fill="#4C0000"/></g><g><path d="M38.37 75.71C38.24 75.74 38.13 75.78 38.03 75.86 37.9 75.97 37.78 76.11 37.81 76.29 37.84 76.43 37.98 76.54 38.13 76.52 38.38 76.47 38.48 76.17 38.58 75.97 38.65 75.84 38.51 75.68 38.37 75.71L38.37 75.71Z" fill="#FFFFFF"/></g></g><g><g><path d="M70.91 69.45C70.99 70.1 71.13 70.72 71.51 71.27 72 71.97 72.63 72.69 73.57 72.59 74.32 72.51 74.95 71.88 74.89 71.09 74.79 69.8 73.32 69.11 72.35 68.5 71.72 68.11 70.81 68.74 70.91 69.45L70.91 69.45Z" fill="#4C0000"/></g><g opacity="0.51"><path d="M72.6 70.22C72.62 70.39 72.66 70.56 72.76 70.7 72.89 70.89 73.06 71.08 73.31 71.05 73.51 71.03 73.68 70.86 73.66 70.65 73.63 70.31 73.24 70.13 72.98 69.96 72.81 69.86 72.57 70.03 72.6 70.22L72.6 70.22Z" fill="#FFFFFF"/></g></g><g><g><path d="M79.51 68.41C79.95 68.9 80.41 69.33 81.04 69.56 81.85 69.86 82.76 70.09 83.48 69.47 84.05 68.98 84.21 68.1 83.71 67.49 82.89 66.49 81.3 66.76 80.15 66.81 79.41 66.84 79.03 67.87 79.51 68.41L79.51 68.41Z" fill="#4C0000"/></g><g><path d="M81.34 68.07C81.46 68.2 81.58 68.31 81.75 68.38 81.96 68.46 82.21 68.52 82.4 68.35 82.55 68.22 82.59 67.99 82.46 67.82 82.24 67.55 81.82 67.63 81.51 67.64 81.31 67.66 81.21 67.93 81.34 68.07L81.34 68.07Z" fill="#FFFFFF"/></g></g></g></g></svg>