<svg width="20.38" height="20.01" viewBox="0 0 20.38 20.01" xmlns="http://www.w3.org/2000/svg" xmlns:xlink="http://www.w3.org/1999/xlink" xml:space="preserve" overflow="hidden"><defs></defs><g id="g299227_1_" transform="matrix(-0.723042 0 0 0.723042 641.894 31.1067)"><path d="M867.75-25.74C868.41-27.53 868.43-29.51 869.04-31.31 869.51-32.7 870.11-33.97 870.66-35.33 870.89-35.9 871.36-36.81 871.35-36.81 870.54-37.01 869.45-36.35 868.64-36.73 866.94-37.54 872.01-38.38 873.72-39.16 874.76-39.64 879.53-44.38 880.38-42.65 881.48-40.42 875.92-39.36 875.77-37.31 875.65-35.7 879.29-28.84 878.21-27.99 877.16-27.16 876.58-29.02 876.4-29.68 876.13-30.72 875.68-31.7 875.49-32.76 875.22-34.19 875.41-38.78 872.71-36.75 872.07-36.27 870.42-29.93 870.26-28.95 870.11-27.99 870.52-26.11 869.89-25.34 869.61-24.99 867.96-25.65 867.75-25.74L867.75-25.74Z" id="path299109_1_" fill="#7F4537"/><path d="M868.75-26.29C866.31-28.18 862.88-27.78 860.97-25.24 857.96-21.24 860.09-15.97 864.93-15.36 866.21-15.2 867.12-15.95 868.31-16.21 869.25-16.41 870.58-16.14 871.4-16.68 875.32-19.28 874.34-28.02 868.75-26.29L868.75-26.29Z" id="path298924_1_" fill="#C23A2C"/><path d="M877.41-28.2C879.27-30.66 882.69-31.16 885.19-29.2 889.13-26.12 888.44-20.48 883.92-18.64 882.73-18.15 881.65-18.65 880.44-18.59 879.48-18.54 878.27-17.93 877.33-18.24 872.88-19.72 871.56-28.42 877.41-28.2L877.41-28.2Z" id="path299074_1_" fill="#C23A2C"/></g></svg>