<svg width="38.75" height="73.67" viewBox="0 0 38.75 73.67" xmlns="http://www.w3.org/2000/svg" xmlns:xlink="http://www.w3.org/1999/xlink" xml:space="preserve" overflow="hidden"><defs></defs><g id="g270895_1_" transform="matrix(0.808934 0.216753 -0.216753 0.808934 201.692 -25.6097)"><path d="M-198.83 121.19C-201.51 118.44-203.7 115.17-207.14 113.26-209.22 112.11-214.3 111.78-216.05 113.98-216.95 115.11-216.89 116.42-217.55 117.5-218.03 118.28-218.05 115.67-217.86 114.78-217.42 112.67-215.7 110.92-213.95 109.79-208.71 106.4-206.31 110.58-202.45 112.9-202.13 113.09-202.91 112.31-203.15 112.03-204.1 110.89-205.04 109.71-206.07 108.64-207.77 106.89-210.78 105.14-213.11 104.36-213.62 104.19-217.5 103.67-217.68 103.36-218.39 102.13-211.84 102.2-210.93 102.46-210.34 102.63-206.78 105.36-206.74 105.33-206.67 105.29-209.64 102.19-209.76 102.08-211.68 100.31-214.17 98.28-215.35 95.9-217.06 92.45-208.29 102.95-208.22 101.34-208.2 100.89-211.58 94.97-211.92 92.76-212.11 91.51-212.09 90.33-212.01 89.07-212 88.88-212.06 88.33-212.01 88.51-211.26 90.8-207.7 98.47-205.61 99.51-204.86 99.88-205.57 97.83-205.55 96.99-205.51 94.95-205.99 93.04-206.73 91.15-207.04 90.36-208.58 88.64-207.75 88.82-206.49 89.09-202.37 97.98-201.9 99.47-201.46 100.83-201.03 102.19-200.67 103.58-200.61 103.8-200.63 104.45-200.52 104.25-198.92 101.15-200.23 97.2-198.26 93.88-197.51 92.62-196.45 91.49-195.08 90.93-194.75 90.8-193.74 90.46-194.07 90.59-197.48 91.93-198.31 99.01-197.96 102.06-197.82 103.25-198.04 104.62-197.63 105.75-197.58 105.89-197.49 106.28-197.44 106.15-196.22 102.84-194.71 98.1-190.21 98.2-189.94 98.21-189.19 98.12-189.42 98.25-192.2 99.85-193.62 103.73-194.67 106.54-195.13 107.76-195.29 109.13-195.41 110.43-195.43 110.63-195.55 111.2-195.45 111.03-193.83 108.12-192.09 105.25-188.93 103.81-187.72 103.26-186.19 103.16-184.89 103.39-184.54 103.45-183.98 104.01-183.87 103.67-183.66 103.03-185.17 104.06-185.75 104.38-188.05 105.64-189.83 107.81-190.79 110.22-193.15 116.15-190.59 120.35-198.83 121.19L-198.83 121.19Z" id="path265410_1_" fill="#4B8056"/><path d="M-197.76 118.8C-208.41 124.13-203.82 139.58-201 148.26-199.37 153.28-197.07 159.05-194.64 163.76-193.1 166.74-189.44 169.43-186 170.67-178.02 173.55-162.44 163.82-160.94 154.21-159.5 144.88-180.44 104.27-197.76 118.8Z" id="path262707_1_" fill="#F0C514"/><path d="M-200.3 133.4C-199.96 131.93-199.33 130.25-198.3 129.1-197.43 128.13-193.82 132.52-194.72 132.5-195.68 132.48-197.32 129.35-198.07 130.94-198.74 132.35-198.46 133.56-200.3 133.4Z" id="path265002_1_" fill="#EEF3F6"/><path d="M-193.56 130.29C-193.61 128.78-193.44 127-192.74 125.62-192.15 124.46-187.53 127.76-188.41 127.98-189.34 128.21-191.74 125.61-192.05 127.34-192.32 128.88-191.75 129.98-193.56 130.29Z" id="path265004_1_" fill="#EEF3F6"/><path d="M-185.76 126.41C-186.2 124.97-186.49 123.2-186.17 121.69-185.9 120.42-180.58 122.41-181.37 122.85-182.21 123.31-185.2 121.43-185.05 123.17-184.94 124.73-184.1 125.64-185.76 126.41L-185.76 126.41Z" id="path265006_1_" fill="#EEF3F6"/><path d="M-186.32 134.26C-186.37 132.75-186.2 130.97-185.5 129.59-184.91 128.43-180.29 131.73-181.17 131.95-182.1 132.18-184.5 129.58-184.81 131.31-185.08 132.85-184.5 133.94-186.32 134.26Z" id="path265008_1_" fill="#EEF3F6"/><path d="M-193.77 138.53C-193.82 137.02-193.65 135.24-192.95 133.86-192.36 132.7-187.74 136-188.62 136.22-189.55 136.45-191.95 133.85-192.26 135.58-192.53 137.11-191.96 138.21-193.77 138.53Z" id="path265010_1_" fill="#EEF3F6"/><path d="M-201.26 140.74C-200.92 139.27-200.29 137.59-199.26 136.44-198.39 135.47-194.78 139.86-195.68 139.84-196.64 139.82-198.28 136.69-199.03 138.28-199.7 139.7-199.43 140.91-201.26 140.74Z" id="path265012_1_" fill="#EEF3F6"/><path d="M-178.97 131.31C-179.41 129.87-179.7 128.1-179.38 126.59-179.11 125.32-173.79 127.31-174.58 127.75-175.42 128.21-178.41 126.33-178.26 128.07-178.15 129.63-177.31 130.54-178.97 131.31L-178.97 131.31Z" id="path262775_1_" fill="#EEF3F6"/><path d="M-196.26 147.33C-196.31 145.82-196.14 144.04-195.44 142.66-194.85 141.5-190.23 144.8-191.11 145.02-192.04 145.25-194.44 142.65-194.75 144.38-195.03 145.92-194.45 147.02-196.26 147.33Z" id="path265014_1_" fill="#EEF3F6"/><path d="M-186.81 142.86C-186.86 141.35-186.69 139.57-185.99 138.19-185.4 137.03-180.78 140.33-181.66 140.55-182.59 140.78-184.99 138.18-185.3 139.91-185.58 141.45-185 142.55-186.81 142.86Z" id="path265016_1_" fill="#EEF3F6"/><path d="M-178.63 138.49C-178.68 136.98-178.51 135.2-177.81 133.82-177.22 132.66-172.6 135.96-173.48 136.18-174.41 136.41-176.81 133.81-177.12 135.54-177.4 137.08-176.82 138.17-178.63 138.49Z" id="path265018_1_" fill="#EEF3F6"/><path d="M-179.57 146.83C-179.62 145.32-179.45 143.54-178.75 142.16-178.16 141-173.54 144.3-174.42 144.52-175.35 144.75-177.75 142.15-178.06 143.88-178.34 145.42-177.76 146.51-179.57 146.83Z" id="path265020_1_" fill="#EEF3F6"/><path d="M-187.45 151.47C-187.5 149.96-187.33 148.18-186.63 146.8-186.04 145.64-181.42 148.94-182.3 149.16-183.23 149.39-185.63 146.79-185.94 148.52-186.22 150.06-185.64 151.16-187.45 151.47Z" id="path265022_1_" fill="#EEF3F6"/><path d="M-195.46 154.14C-195.12 152.67-194.49 150.99-193.46 149.84-192.59 148.87-188.98 153.26-189.88 153.24-190.84 153.22-192.48 150.09-193.23 151.68-193.9 153.1-193.63 154.31-195.46 154.14Z" id="path265024_1_" fill="#EEF3F6"/><path d="M-172.23 143.88C-172.67 142.44-172.96 140.67-172.64 139.16-172.37 137.89-167.05 139.88-167.84 140.32-168.68 140.78-171.67 138.9-171.52 140.64-171.4 142.2-170.56 143.11-172.23 143.88L-172.23 143.88Z" id="path265026_1_" fill="#EEF3F6"/><path d="M-187.46 159.57C-187.51 158.06-187.34 156.28-186.64 154.9-186.05 153.74-181.43 157.04-182.31 157.26-183.24 157.49-185.64 154.89-185.95 156.62-186.22 158.16-185.65 159.25-187.46 159.57Z" id="path265203_1_" fill="#EEF3F6"/><path d="M-180.29 156.3C-180.34 154.79-180.17 153.01-179.47 151.63-178.88 150.47-174.26 153.77-175.14 153.99-176.07 154.22-178.47 151.62-178.78 153.35-179.06 154.89-178.48 155.99-180.29 156.3Z" id="path265205_1_" fill="#EEF3F6"/><path d="M-173.64 152.38C-173.69 150.87-173.52 149.09-172.82 147.71-172.23 146.55-167.61 149.85-168.49 150.07-169.42 150.3-171.82 147.7-172.13 149.43-172.4 150.97-171.83 152.07-173.64 152.38Z" id="path265207_1_" fill="#EEF3F6"/><path d="M-173.21 161.2C-173.26 159.69-173.09 157.91-172.39 156.53-171.8 155.37-167.18 158.67-168.06 158.89-168.99 159.12-171.39 156.52-171.7 158.25-171.97 159.79-171.39 160.89-173.21 161.2Z" id="path265209_1_" fill="#EEF3F6"/><path d="M-181.09 165.85C-181.14 164.34-180.97 162.56-180.27 161.18-179.68 160.02-175.06 163.32-175.94 163.54-176.87 163.77-179.27 161.17-179.58 162.9-179.85 164.43-179.28 165.53-181.09 165.85Z" id="path265211_1_" fill="#EEF3F6"/></g></svg>