<svg width="121.77" height="86.12" viewBox="0 0 121.77 86.12" xmlns="http://www.w3.org/2000/svg" xmlns:xlink="http://www.w3.org/1999/xlink" xml:space="preserve" overflow="hidden"><defs></defs><g id="Layer_7_-_copie"><g><g><defs><path d="M43.03 10.1C37.88 12.39 34.44 16.29 30.91 20.69 29.29 22.71 27.78 24.85 26.73 27.22 24.03 33.32 24.32 40.47 26.25 46.85 27.52 51.05 31.23 55.6 32.82 56.81 36.32 59.46 40.12 61.78 44.25 63.28 50.64 65.6 54.31 66.75 61.11 66.55 69.7 66.3 74.89 64.41 76.72 63.6 81.5 61.47 84.5 59.94 87.95 57.76 91.39 55.58 94.83 51.39 96.97 47.92 97.82 46.53 98.42 45.01 98.97 43.47 100.21 40.02 101.26 36.45 101.34 32.79 101.46 27.07 99.13 21.41 95.33 17.13 91.53 12.85 85.56 9.01 80.05 7.48 76.83 6.58 71.2 5.19 67.86 5.07 56.73 4.68 55.31 4.64 43.03 10.1Z" id="SVGID_1_"/></defs><clipPath id="SVGID_2_"><use width="100%" height="100%" xlink:href="#SVGID_1_" overflow="visible"></use></clipPath><use width="100%" height="100%" xlink:href="#SVGID_1_" fill="#FCD202" overflow="visible"></use><path d="M81.66 58.65C69.93 59.07 59.07 56.79 50.72 48.79 47.01 45.24 42.73 40.45 41.95 35.19 41.17 29.99 42.22 23.83 44.43 19.09 47.39 12.73 52.03 8.11 60.59 4.62 62.64 3.79 57.89 0.87 56.15 1.61 52.87 3 49.61 4.45 46.6 6.38 46.59 6.34 46.59 6.31 46.58 6.27 46.07 3.71 43.2 3.24 41.21 4.09 37.07 5.85 34.04 9.75 31.78 13.85 31.27 13.9 30.75 14.07 30.26 14.39 27.17 16.41 25.87 19.68 25.13 23.17 22.46 29.59 20.98 36.6 21.23 43.46 21.59 53.22 27.39 60.91 35.72 65.61 39.84 67.94 44.19 69.29 48.75 70.13 50.23 70.67 51.71 71.17 53.19 71.64 60.15 73.83 67.49 75.02 74.79 74.77 78.06 74.66 79.32 71.13 77.9 68.89 81.44 67.95 84.5 65.83 86.57 62.78 88.46 60.01 86.1 58.49 81.66 58.65Z" fill="#FCD202" clip-path="url(#SVGID_2_)" opacity="0.5"/><g clip-path="url(#SVGID_2_)" opacity="0.23"><g><path d="M62.82 3.68C63.98 5.52 66.59 6.31 68.51 7.12 70.65 8.02 72.77 8.94 74.83 10.02 78.96 12.19 82.86 14.76 86.48 17.7 90.05 20.6 92.64 23.63 93.6 28.21 94.54 32.65 94.14 37.4 93.91 41.9 93.78 44.41 93.66 46.93 93.08 49.38 91.49 56.11 88.07 57.17 88.8 59.91 89.2 61.45 93.56 60.48 95.12 59.97 98.21 58.96 99.3 55.54 100.06 52.67 100.76 50.03 101.1 47.29 101.32 44.58 101.73 39.44 102.01 34.12 101.34 28.99 100.58 23.16 98.22 18.12 93.85 14.12 89.85 10.45 85.29 7.56 80.35 5.34 77.6 4.1 74.74 3 71.81 2.24 69.39 1.61 65.49 0.59 63.25 2.12 62.74 2.46 62.47 3.13 62.82 3.68L62.82 3.68Z" fill="#FFD629"/></g></g></g><g><defs><path d="M43.03 10.1C37.88 12.39 34.44 16.29 30.91 20.69 29.29 22.71 27.78 24.85 26.73 27.22 24.03 33.32 24.32 40.47 26.25 46.85 27.52 51.05 31.23 55.6 32.82 56.81 36.32 59.46 40.12 61.78 44.25 63.28 50.64 65.6 54.31 66.75 61.11 66.55 69.7 66.3 74.89 64.41 76.72 63.6 81.5 61.47 84.5 59.94 87.95 57.76 91.39 55.58 94.83 51.39 96.97 47.92 97.82 46.53 98.42 45.01 98.97 43.47 100.21 40.02 101.26 36.45 101.34 32.79 101.46 27.07 99.13 21.41 95.33 17.13 91.53 12.85 85.56 9.01 80.05 7.48 76.83 6.58 71.2 5.19 67.86 5.07 56.73 4.68 55.31 4.64 43.03 10.1Z" id="SVGID_3_"/></defs><clipPath id="SVGID_4_"><use width="100%" height="100%" xlink:href="#SVGID_3_" overflow="visible"></use></clipPath><path d="M107.28 39.24C96.47 43.96 83.91 44.46 72.73 40.78 69.22 39.63 65.95 37.59 63.01 35.4 59.92 31.92 56.77 28.12 54.77 23.99 53.24 20.83 52.07 17.37 51.31 13.72 51.18 12.43 51.12 11.13 51.18 9.83 51.29 7.44 51.57 4.5 53.72 3.04 55.12 2.09 54.29-0.58 52.48 0.11 50.79 0.76 49.52 1.77 48.56 3.01 47.49 2.88 46.38 3.29 45.73 4.49 45.53 4.85 45.35 5.22 45.19 5.6 43.56 4.33 41.1 4.99 40.34 7.14 40.24 7.43 40.14 7.72 40.04 8.01 39 6.81 37.09 6.38 35.64 7.77 30.93 12.3 25.08 19.95 23.06 26.02 20.81 32.79 19.98 43.94 23.38 50.32 26.52 56.22 33.86 62.38 39.65 65.53 45.67 68.81 55.73 67.89 62.47 69.12 70.35 70.55 77.25 66.77 85.15 65.44 86.31 65.25 87.01 64.54 87.31 63.67 87.44 63.66 87.57 63.65 87.7 63.64 90.73 63.36 94.95 62.66 96.75 59.88 97.52 58.69 97.66 57.19 97.12 55.93 98.47 55.65 99.8 55.3 101.12 54.89 103.79 54.05 103.94 50.16 101.76 49.11 104.87 48.14 107.84 46.77 110.49 44.78 113.81 42.28 111.07 37.59 107.28 39.24ZM91.94 59.76C92.56 59.84 92.26 59.89 91.94 59.76L91.94 59.76Z" fill="#FCD202" clip-path="url(#SVGID_4_)" opacity="0.28"/><path d="M97.35 50.94C86.79 56.19 72.72 51.57 61.52 47.98 50.34 44.39 44.96 36.12 42.76 32.1 41.07 29.02 39.74 25.62 38.8 22.01 38.6 20.72 37.98 17.77 37.97 16.47 37.96 14.08 38.8 10.39 40.87 8.82 42.22 7.8 41.08 7.58 39.31 8.35 37.66 9.08 36.43 10.15 35.54 11.44 34.47 11.36 33.38 11.83 32.79 13.05 32.61 13.42 32.45 13.8 32.3 14.18 30.61 12.99 28.19 13.77 27.54 15.95 27.45 16.24 27.37 16.54 27.28 16.83 26.18 15.69 24.25 15.34 22.87 16.81 18.38 21.57 12.92 29.49 11.2 35.65 9.28 42.52 9 53.7 12.71 59.9 16.14 65.64 23.77 71.43 29.7 74.3 35.87 77.28 45.88 75.87 52.67 76.77 60.61 77.82 67.32 73.7 75.14 71.98 76.29 71.73 76.95 70.99 77.21 70.1 77.34 70.08 77.47 70.07 77.59 70.05 80.6 69.62 84.78 68.72 86.44 65.85 87.15 64.62 87.21 63.12 86.62 61.88 87.95 61.53 89.27 61.12 90.57 60.64 93.2 59.67 93.16 55.78 90.92 54.83 93.98 53.71 96.88 52.2 99.43 50.08 102.62 47.45 101.05 49.1 97.35 50.94ZM80.43 67.26C81.05 67.34 80.74 67.39 80.43 67.26L80.43 67.26Z" fill="#FCD202" clip-path="url(#SVGID_4_)" opacity="0.28"/><path d="M87.52 60.13C76.96 65.38 62.89 60.76 51.69 57.17 40.51 53.58 35.13 45.31 32.93 41.29 31.24 38.21 29.91 34.81 28.97 31.2 28.77 29.91 28.15 26.96 28.14 25.66 28.13 23.27 28.97 19.58 31.04 18.01 32.39 16.99 31.25 16.77 29.48 17.54 27.83 18.27 26.6 19.34 25.71 20.63 24.64 20.55 23.55 21.02 22.96 22.24 22.78 22.61 22.62 22.99 22.47 23.37 20.78 22.18 18.36 22.96 17.71 25.14 17.62 25.43 17.54 25.73 17.45 26.02 16.35 24.88 14.42 24.54 13.04 26 8.56 30.76 3.1 38.68 1.38 44.84-0.54 51.71-0.82 62.89 2.89 69.09 6.32 74.83 13.95 80.62 19.88 83.49 26.05 86.47 36.06 85.06 42.85 85.96 50.79 87.01 57.5 82.89 65.32 81.17 66.47 80.92 67.13 80.18 67.39 79.29 67.52 79.27 67.65 79.26 67.77 79.24 70.78 78.81 74.96 77.91 76.62 75.04 77.33 73.81 77.39 72.31 76.8 71.07 78.13 70.72 79.45 70.31 80.75 69.83 83.38 68.86 83.34 64.97 81.1 64.02 84.16 62.9 87.06 61.39 89.61 59.27 92.79 56.64 91.23 58.29 87.52 60.13ZM70.6 76.45C71.23 76.53 70.92 76.58 70.6 76.45L70.6 76.45Z" fill="#FCD202" clip-path="url(#SVGID_4_)" opacity="0.28"/></g><path d="M62.51 12.83C59.5 14.17 57.49 16.45 55.44 19.01 54.49 20.19 53.61 21.44 53 22.82 51.43 26.38 51.59 30.55 52.72 34.28 53.46 36.73 55.63 39.39 56.55 40.09 58.59 41.64 60.81 42.99 63.22 43.87 66.95 45.23 69.09 45.9 73.06 45.78 78.07 45.63 81.1 44.53 82.17 44.06 84.96 42.82 86.71 41.92 88.72 40.65 90.73 39.38 92.74 36.93 93.98 34.9 94.48 34.09 94.82 33.2 95.15 32.3 95.87 30.29 96.49 28.2 96.53 26.07 96.6 22.73 95.24 19.43 93.02 16.93 90.8 14.43 87.32 12.19 84.1 11.3 82.22 10.78 78.93 9.96 76.98 9.89 70.5 9.66 69.67 9.64 62.51 12.83Z" fill="#FCD202" opacity="0.2"/><path d="M68.98 13.19C67.17 13.99 65.96 15.37 64.72 16.91 64.15 17.62 63.62 18.37 63.25 19.21 62.3 21.35 62.4 23.86 63.08 26.11 63.53 27.59 64.83 29.19 65.39 29.61 66.62 30.54 67.95 31.36 69.4 31.88 71.65 32.7 72.93 33.1 75.32 33.03 78.34 32.94 80.16 32.28 80.8 31.99 82.48 31.24 83.53 30.7 84.74 29.94 85.95 29.17 87.16 27.7 87.91 26.48 88.21 25.99 88.42 25.46 88.61 24.92 89.04 23.71 89.41 22.46 89.44 21.17 89.48 19.16 88.66 17.17 87.33 15.67 86 14.17 83.9 12.82 81.96 12.28 80.83 11.97 78.85 11.48 77.68 11.43 73.79 11.29 73.3 11.27 68.98 13.19Z" fill="#FCD202" opacity="0.2"/><g opacity="0.51"><g><path d="M41.68 14.18C39.7 13.79 38.34 15.95 36.82 17.33 34.85 19.1 33.52 21.57 32.58 24 30.72 28.79 29.44 34.54 30.08 39.68 31.5 51.23 42 60.26 52.81 63.31 59.04 65.06 65.93 63.5 71.41 60.25 73.89 58.78 76.81 56.94 76.88 53.46 76.97 48.92 72.79 47.77 67.89 49.47 65.47 50.31 59.71 50.77 57.22 50.21 48.77 48.31 34.72 43.66 41.69 21.37 42 20.37 43.62 17.14 43.99 16.16 44.29 15.3 41.96 14.23 41.68 14.18Z" fill="#FFDC48"/></g></g><g opacity="0.29"><path d="M59.93 12.09C61.2 12.47 62.33 13.07 63.64 13.34 64.79 13.58 65.97 13.76 67.13 13.95 69.43 14.33 71.69 14.92 73.9 15.64 78.13 17.02 82.57 18.57 85.77 21.8 88.9 24.97 89.4 29.05 88.83 33.33 88.54 35.46 87.94 37.62 87.15 39.62 86.24 41.91 84.44 43.94 83.79 46.3 83.02 49.11 86.41 52.22 89.05 50.34 91.67 48.47 93.09 45.05 94.25 42.14 95.32 39.47 95.97 36.72 96.33 33.87 97.1 27.83 96 22.07 91.97 17.36 88.14 12.9 82.47 10.5 77.01 8.71 74.51 7.89 71.98 7.2 69.38 6.79 67.79 6.54 66.18 6.34 64.57 6.45 62.81 6.57 61.53 7.15 59.93 7.77 57.93 8.53 57.67 11.41 59.93 12.09L59.93 12.09Z" fill="#FFFFFF"/></g><g><path d="M58.79 19.68C59.85 19.9 60.84 19.62 61.89 19.47 63.09 19.31 64.31 19.25 65.52 19.28 66.75 19.31 67.9 19.54 69.08 19.9 70.44 20.31 71.64 21 73.09 20.99 75.78 20.97 76.64 17.94 75.13 16.07 74.03 14.71 71.88 14.07 70.21 13.68 68.53 13.28 66.72 13.07 64.99 13.23 62.25 13.48 57.93 14.98 57.67 18.22 57.62 18.84 58.18 19.56 58.79 19.68L58.79 19.68Z" fill="#FFFFFF"/></g><g><path d="M78.81 21.68C78.81 21.69 78.81 21.71 78.81 21.72 78.84 21.97 78.88 22.23 78.91 22.48 78.91 22.49 78.92 22.51 78.92 22.52 79.02 22.75 79.11 22.98 79.21 23.21 79.36 23.4 79.51 23.6 79.66 23.79 79.67 23.8 79.68 23.81 79.69 23.82 79.88 23.97 80.08 24.12 80.27 24.27 80.29 24.28 80.3 24.29 80.32 24.31 80.46 24.4 80.61 24.45 80.78 24.52 81 24.65 81.23 24.71 81.48 24.71 81.61 24.76 81.74 24.77 81.87 24.76 82.03 24.76 82.49 24.69 82.64 24.65 83.1 24.52 83.5 24.29 83.83 23.95 84.17 23.61 84.4 23.21 84.53 22.76 84.61 22.2 84.72 21.79 84.54 21.24 84.52 21.19 84.51 21.15 84.5 21.1 84.43 20.79 84.5 20.84 84.19 20.31 83.88 19.78 83.59 19.58 83.1 19.23 82.66 18.97 82.18 18.84 81.66 18.84 81.15 18.84 80.67 18.97 80.22 19.23 79.79 19.48 79.45 19.82 79.2 20.25 78.94 20.69 78.81 21.17 78.81 21.68L78.81 21.68Z" fill="#FFFFFF"/></g><g opacity="0.53"><g><g><path d="M40.88 54.8C43.75 56.7 46.95 57.65 50.37 56.69 50.54 56.64 50.51 56.38 50.33 56.38 47.14 56.41 43.87 56.08 40.97 54.64 40.87 54.58 40.78 54.73 40.88 54.8L40.88 54.8Z" fill="#ED9700"/></g></g><g opacity="0.83"><path d="M39.64 48.48C40.29 49.11 40.96 49.71 41.72 50.22 42.43 50.69 43.17 51.29 44.06 51.25 44.28 51.24 44.53 51.01 44.43 50.76 43.77 49.13 41.26 48.54 39.7 48.35 39.63 48.33 39.6 48.43 39.64 48.48L39.64 48.48Z" fill="#FFA300"/></g><g><path d="M46.61 40.98C46.64 42.77 46.2 44.81 46.96 46.5 47.1 46.8 47.53 46.68 47.62 46.41 48.23 44.63 47.32 42.62 46.74 40.96 46.72 40.89 46.61 40.9 46.61 40.98L46.61 40.98Z" fill="#FFA300" opacity="0.83"/></g><g><path d="M49.09 43.34C49.75 43.31 50.41 43.3 51.06 43.24 51.61 43.19 52.17 43.19 52.63 42.87 52.79 42.76 52.78 42.49 52.57 42.43 52.03 42.28 51.51 42.46 50.97 42.59 50.33 42.75 49.7 42.96 49.06 43.16 48.97 43.18 48.98 43.34 49.09 43.34L49.09 43.34Z" fill="#FFA300" opacity="0.83"/></g><g><path d="M52.41 36.13C52.6 37.47 52.56 38.8 52.84 40.13 52.89 40.39 53.29 40.38 53.35 40.13 53.69 38.69 53.36 37.38 52.92 35.99 52.82 35.66 52.36 35.8 52.41 36.13L52.41 36.13Z" fill="#FFA300" opacity="0.83"/></g><g><path d="M46.17 40.71C47.23 40.89 48.58 40.8 49.5 40.19 49.72 40.05 49.69 39.71 49.43 39.63 48.38 39.32 47.06 39.63 46.1 40.13 45.86 40.25 45.9 40.66 46.17 40.71L46.17 40.71Z" fill="#FFA300" opacity="0.83"/></g><g><path d="M52 38.21C51.64 38.19 49.94 37.7 50.03 38.49 50.07 38.83 50.51 38.91 50.78 38.91 51.26 38.91 51.67 38.65 52.05 38.38 52.12 38.33 52.1 38.21 52 38.21L52 38.21Z" fill="#FFA300" opacity="0.83"/></g><g><path d="M52.08 47.63C52.97 46.79 53.16 45.39 53.11 44.22 53.1 43.99 52.81 43.92 52.69 44.11 52.07 45.04 51.36 46.18 51.38 47.34 51.39 47.7 51.83 47.87 52.08 47.63L52.08 47.63Z" fill="#FFA300" opacity="0.83"/></g><g><path d="M41.59 44.39C43.08 44.21 44.81 44.44 46.2 43.83 46.4 43.74 46.3 43.48 46.15 43.42 44.74 42.85 42.92 43.42 41.51 43.77 41.16 43.84 41.22 44.43 41.59 44.39L41.59 44.39Z" fill="#FFA300" opacity="0.83"/></g><g><path d="M42.74 38.23C42.63 39.66 42.53 41.53 43.47 42.73 43.64 42.94 43.98 42.8 44.05 42.58 44.46 41.19 43.71 39.45 43.21 38.17 43.12 37.92 42.77 37.95 42.74 38.23L42.74 38.23Z" fill="#FFA300" opacity="0.83"/></g><g><path d="M38.41 41.8C39.48 40.71 40.76 39.87 41.61 38.59 41.72 38.43 41.53 38.16 41.34 38.24 40.58 38.55 40.04 38.95 39.5 39.58 38.98 40.19 38.54 40.9 38.13 41.6 38.04 41.75 38.27 41.94 38.41 41.8L38.41 41.8Z" fill="#FFA300" opacity="0.83"/></g><g><path d="M39.67 35.93C40.45 35.97 41.26 36.18 42.02 36.38 42.66 36.55 43.32 36.82 43.99 36.8 44.24 36.79 44.47 36.49 44.3 36.26 43.25 34.8 41.08 35.09 39.64 35.67 39.5 35.73 39.51 35.92 39.67 35.93L39.67 35.93Z" fill="#FFA300" opacity="0.83"/></g><g><path d="M46.66 38.04C47.14 37.4 47.69 36.85 48.22 36.27 48.62 35.83 49.25 35.29 49.06 34.64 49.02 34.51 48.92 34.39 48.78 34.36 48.02 34.18 47.47 34.99 47.11 35.56 46.68 36.24 46.38 37.06 46.12 37.82 46.01 38.15 46.48 38.28 46.66 38.04L46.66 38.04Z" fill="#FFA300" opacity="0.83"/></g><g><path d="M46.85 32.72C47.97 33.7 49.85 35.78 51.52 35.35 51.76 35.29 51.88 34.99 51.75 34.78 51.33 34.09 50.44 33.81 49.73 33.51 48.84 33.14 47.96 32.84 47.12 32.36 46.91 32.24 46.65 32.54 46.85 32.72L46.85 32.72Z" fill="#FFA300" opacity="0.83"/></g><g><path d="M44.31 32.99C45.11 31.4 45.98 29.89 46.02 28.07 46.03 27.8 45.64 27.61 45.45 27.84 44.25 29.24 43.96 30.95 43.67 32.73 43.62 33.08 44.12 33.37 44.31 32.99L44.31 32.99Z" fill="#FFA300" opacity="0.83"/></g><g><path d="M39.93 30.48C40.36 30.6 40.76 30.77 41.17 30.91 41.52 31.03 41.81 31.13 42.15 30.96 42.3 30.89 42.32 30.69 42.25 30.56 41.92 29.88 40.62 29.97 39.99 29.96 39.7 29.96 39.64 30.4 39.93 30.48L39.93 30.48Z" fill="#FFA300" opacity="0.83"/></g><g><path d="M38.74 33.3C38.62 34.26 38 35.27 37.49 36.08 37.1 36.7 36.58 37.3 36.53 38.06 36.52 38.23 36.73 38.41 36.9 38.34 38.67 37.6 39.2 34.98 39.16 33.3 39.16 33.02 38.78 33.04 38.74 33.3L38.74 33.3Z" fill="#FFA300" opacity="0.83"/></g><g><path d="M33.57 35.66C34.35 36.37 35.24 37.2 36.33 37.26 36.5 37.27 36.59 37.04 36.47 36.92 35.73 36.2 34.64 35.91 33.74 35.43 33.61 35.35 33.45 35.54 33.57 35.66L33.57 35.66Z" fill="#FFA300" opacity="0.83"/></g><g><path d="M33.79 43.34C34.33 42.73 34.73 42.03 35.2 41.37 35.69 40.69 36.14 40.07 36.43 39.29 36.48 39.14 36.29 38.99 36.16 39.08 34.89 39.97 33.93 41.73 33.57 43.22 33.53 43.33 33.69 43.44 33.79 43.34L33.79 43.34Z" fill="#FFA300" opacity="0.83"/></g><g><g><path d="M35.77 42.78C36.86 43.66 38.25 44.46 39.66 44.64 39.85 44.66 39.93 44.4 39.81 44.28 38.79 43.28 37.24 42.77 35.85 42.58 35.75 42.56 35.69 42.72 35.77 42.78L35.77 42.78Z" fill="#ED9700"/></g></g><g><path d="M34.81 48.37C36.18 47.93 37.55 47.54 38.88 46.97 39.1 46.88 38.97 46.56 38.77 46.55 37.18 46.48 35.85 47.16 34.79 48.33 34.77 48.34 34.78 48.38 34.81 48.37L34.81 48.37Z" fill="#FFA300" opacity="0.83"/></g><g><path d="M35.06 45.15C35.03 45.8 34.88 46.54 35.08 47.17 35.11 47.26 35.23 47.26 35.26 47.17 35.45 46.54 35.31 45.8 35.28 45.15 35.27 45.01 35.07 45.01 35.06 45.15L35.06 45.15Z" fill="#FFA300" opacity="0.83"/></g><g><path d="M40.36 46.28C40.91 46.42 41.46 46.55 42 46.71 42.48 46.85 43.03 47.08 43.52 46.93 43.77 46.85 43.86 46.59 43.75 46.36 43.47 45.8 42.72 45.64 42.15 45.58 41.46 45.51 40.94 45.6 40.31 45.89 40.14 45.97 40.2 46.23 40.36 46.28L40.36 46.28Z" fill="#FFA300" opacity="0.83"/></g><g><g><path d="M46.34 47.9C46.57 48.79 46.79 49.66 47.21 50.48 47.42 50.89 47.99 52.1 48.67 51.73 49.25 51.42 48.69 50.54 48.46 50.2 47.92 49.38 47.36 48.54 46.95 47.64 46.79 47.3 46.25 47.55 46.34 47.9L46.34 47.9Z" fill="#ED9700"/></g></g><g><path d="M36.02 53.63C36.58 53.3 37.11 52.95 37.59 52.51 38.04 52.1 38.61 51.66 38.73 51.04 38.77 50.84 38.64 50.58 38.4 50.6 37.71 50.68 37.24 51.21 36.8 51.71 36.34 52.23 36.04 52.81 35.79 53.44 35.73 53.59 35.91 53.7 36.02 53.63L36.02 53.63Z" fill="#FFA300" opacity="0.83"/></g><g><path d="M32.74 53.4C32.71 52.72 32.8 52.06 32.83 51.38 32.86 50.8 32.96 50.27 32.69 49.74 32.58 49.52 32.28 49.56 32.16 49.74 31.48 50.75 32.11 52.38 32.36 53.45 32.43 53.65 32.75 53.61 32.74 53.4L32.74 53.4Z" fill="#FFA300" opacity="0.83"/></g><g><path d="M34.37 29.25C34.57 30.17 34.74 31.1 34.87 32.04 34.96 32.68 34.88 33.44 35.5 33.8 35.61 33.86 35.75 33.85 35.84 33.76 36.35 33.23 36.04 32.48 35.89 31.83 35.67 30.89 35.41 29.96 35.11 29.04 34.96 28.57 34.26 28.77 34.37 29.25L34.37 29.25Z" fill="#FFA300" opacity="0.83"/></g><g><path d="M36.84 29.53C37.25 29.39 37.69 29.43 38.11 29.32 38.88 29.12 38.68 28.03 37.93 27.98 37.26 27.94 36.83 28.29 36.4 28.77 36.12 29.09 36.38 29.69 36.84 29.53L36.84 29.53Z" fill="#FFA300" opacity="0.83"/></g><g><path d="M40.12 23.23C40.44 22.62 40.76 22.01 41.04 21.38 41.1 21.25 40.93 21.09 40.83 21.22 40.39 21.77 39.98 22.33 39.57 22.9 39.33 23.24 39.92 23.59 40.12 23.23L40.12 23.23Z" fill="#FFA300" opacity="0.83"/></g><g><path d="M42.59 23.78C43.49 23.88 44.29 24.45 45.15 23.89 45.29 23.8 45.36 23.6 45.26 23.45 44.62 22.5 43.55 22.83 42.58 22.87 41.99 22.9 42.02 23.71 42.59 23.78L42.59 23.78Z" fill="#FFA300" opacity="0.83"/></g><g><path d="M44.97 15.31C44.92 16.28 45.17 17.48 45.67 18.32 45.76 18.47 45.99 18.4 45.99 18.23 45.99 17.25 45.6 16.09 45.07 15.28 45.04 15.24 44.97 15.25 44.97 15.31L44.97 15.31Z" fill="#FFA300" opacity="0.83"/></g><g><path d="M46.92 16.59C47.79 16.7 48.84 16.32 49.64 16.01 49.82 15.94 49.8 15.68 49.59 15.67 48.7 15.61 47.52 15.76 46.85 16.41 46.77 16.48 46.84 16.58 46.92 16.59L46.92 16.59Z" fill="#FFA300" opacity="0.83"/></g><g><path d="M48.69 18.36C49.16 19.71 49.55 21.11 50.25 22.37 50.31 22.48 50.47 22.4 50.44 22.29 50.12 20.9 49.47 19.61 48.92 18.3 48.86 18.16 48.64 18.21 48.69 18.36L48.69 18.36Z" fill="#FFA300" opacity="0.83"/></g><g><path d="M44.58 20.39C45.3 20.4 46.03 20.31 46.75 20.28 46.88 20.27 46.91 20.08 46.78 20.05 46.04 19.84 45.19 19.9 44.57 20.36 44.56 20.37 44.56 20.39 44.58 20.39L44.58 20.39Z" fill="#FFA300" opacity="0.83"/></g><g><path d="M43.82 12.86C45.1 13.23 46.29 13.85 47.43 14.51 48.38 15.06 49.23 15.76 50.34 15.91 50.54 15.94 50.71 15.72 50.55 15.55 49.65 14.65 48.37 14.04 47.24 13.49 46.13 12.95 45.05 12.69 43.82 12.82 43.81 12.83 43.81 12.86 43.82 12.86L43.82 12.86Z" fill="#FFA300" opacity="0.83"/></g><g><path d="M48.45 12.64C48.48 12.65 48.51 12.67 48.54 12.68 48.61 12.72 48.71 12.73 48.78 12.68 49.9 11.93 50.98 11.16 51.79 10.07 51.85 9.99 51.74 9.9 51.66 9.94 50.85 10.43 50.14 11.01 49.4 11.6 49.35 11.65 48.1 12.46 48.45 12.64L48.45 12.64Z" fill="#FFA300" opacity="0.83"/></g><g><path d="M42.04 16.15C41.99 17.3 41.84 19.49 42.9 20.25 43.06 20.36 43.28 20.24 43.33 20.08 43.51 19.48 43.19 18.84 43.01 18.26 42.79 17.55 42.57 16.84 42.4 16.11 42.36 15.89 42.05 15.95 42.04 16.15L42.04 16.15Z" fill="#FFA300" opacity="0.83"/></g><g><path d="M37.08 19.19C38.45 19.2 39.83 18.67 41.07 18.11 41.18 18.06 41.13 17.87 41.01 17.89 39.66 18.07 38.2 18.34 37.04 19.06 36.99 19.1 37.01 19.19 37.08 19.19L37.08 19.19Z" fill="#FFA300" opacity="0.83"/></g><g><path d="M35.89 20.18C36.33 21.33 36.68 22.48 37.31 23.55 37.39 23.69 37.58 23.59 37.55 23.45 37.32 22.22 36.73 21.17 36.1 20.09 36.04 19.97 35.84 20.05 35.89 20.18L35.89 20.18Z" fill="#FFA300" opacity="0.83"/></g><g><path d="M33.43 25.2C34.49 24.85 35.59 24.66 36.58 24.11 36.71 24.04 36.65 23.83 36.51 23.84 35.33 23.87 34.36 24.45 33.39 25.08 33.32 25.12 33.36 25.23 33.43 25.2L33.43 25.2Z" fill="#FFA300" opacity="0.83"/></g><g><path d="M38.32 24.85C38.86 25.76 39.45 26.57 40.14 27.38 40.81 28.16 41.5 29 42.43 29.47 42.6 29.56 42.89 29.41 42.8 29.18 42.42 28.22 41.7 27.5 41 26.76 40.23 25.96 39.43 25.27 38.53 24.63 38.4 24.54 38.24 24.72 38.32 24.85L38.32 24.85Z" fill="#FFA300" opacity="0.83"/></g><g><path d="M41.59 26.15C42.6 25.83 43.7 25.85 44.7 25.54 44.8 25.51 44.78 25.36 44.68 25.36 43.64 25.35 42.57 25.85 41.58 26.13 41.56 26.13 41.57 26.15 41.59 26.15L41.59 26.15Z" fill="#FFA300" opacity="0.83"/></g><g><g><path d="M46.49 22.82C46.21 24.8 46.41 27.7 47.86 29.24 47.99 29.37 48.21 29.3 48.26 29.13 48.84 27.19 47.93 24.47 47.05 22.74 46.94 22.53 46.53 22.56 46.49 22.82L46.49 22.82Z" fill="#ED9700"/></g></g><g><path d="M49.17 25.18C49.76 25.22 50.37 25.39 50.97 25.47 51.41 25.54 51.86 25.63 52.25 25.38 52.4 25.28 52.47 25.04 52.31 24.9 51.51 24.2 50.07 24.83 49.15 24.97 49.02 24.99 49.06 25.17 49.17 25.18L49.17 25.18Z" fill="#FFA300" opacity="0.83"/></g><g><g><path d="M52.06 22.32C52.6 24.26 53.43 27.23 55.41 28.18 55.63 28.28 55.85 28.11 55.8 27.88 55.6 26.83 54.85 25.99 54.28 25.11 53.65 24.14 53 23.17 52.45 22.16 52.33 21.94 51.99 22.08 52.06 22.32L52.06 22.32Z" fill="#ED9700"/></g></g><g><path d="M55.72 24.46C56.24 24.55 56.76 24.19 57.07 23.79 57.17 23.66 57.12 23.41 56.92 23.43 56.44 23.48 55.81 23.69 55.6 24.17 55.56 24.27 55.58 24.44 55.72 24.46L55.72 24.46Z" fill="#FFA300" opacity="0.83"/></g><g><path d="M52.7 27.02C51.76 27.74 51.15 28.52 50.7 29.61 50.65 29.73 50.84 29.83 50.92 29.74 51.62 28.95 52.29 28.17 52.96 27.35 53.1 27.18 52.91 26.86 52.7 27.02L52.7 27.02Z" fill="#FFA300" opacity="0.83"/></g><g><path d="M29.8 28.79C30.28 29 30.82 28.91 31.33 28.89 31.94 28.86 32.54 28.9 33.14 28.75 33.33 28.7 33.33 28.42 33.14 28.37 32.54 28.2 31.95 28.26 31.33 28.3 30.81 28.33 30.22 28.36 29.8 28.68 29.77 28.71 29.75 28.77 29.8 28.79L29.8 28.79Z" fill="#FFA300" opacity="0.83"/></g><g><path d="M31.07 23.31C31 24.16 31.15 24.88 31.4 25.68 31.65 26.46 31.87 27.26 32.49 27.83 32.69 28.01 32.97 27.87 32.99 27.62 33.13 26.07 31.88 24.7 31.54 23.24 31.47 22.97 31.09 23.06 31.07 23.31L31.07 23.31Z" fill="#FFA300" opacity="0.83"/></g><g><path d="M27.54 31.73C27.87 33.54 27.85 35.42 28.29 37.21 28.34 37.4 28.67 37.42 28.7 37.21 28.98 35.36 28.51 33.38 28.1 31.58 28.02 31.2 27.47 31.36 27.54 31.73L27.54 31.73Z" fill="#FFA300" opacity="0.83"/></g><g><g><path d="M29.85 33.15C30.76 33.44 32 34.03 32.97 33.78 33.11 33.74 33.19 33.53 33.06 33.42 32.26 32.76 30.9 32.78 29.91 32.65 29.62 32.62 29.59 33.07 29.85 33.15L29.85 33.15Z" fill="#ED9700"/></g></g><g><path d="M31.31 36.2C30.82 37.9 29.58 39.68 29.54 41.48 29.53 41.73 29.87 41.87 30.04 41.69 31.34 40.32 31.34 38.01 31.55 36.24 31.56 36.09 31.35 36.07 31.31 36.2L31.31 36.2Z" fill="#FFA300" opacity="0.83"/></g><g><path d="M32.07 38.61C32.48 39.3 33.79 39.45 34.35 38.91 34.47 38.79 34.45 38.57 34.3 38.49 33.95 38.3 33.66 38.31 33.28 38.3 32.92 38.29 32.54 38.2 32.19 38.32 32.07 38.35 32 38.49 32.07 38.61L32.07 38.61Z" fill="#FFA300" opacity="0.83"/></g><g><path d="M31.9 41.6C31.66 42.53 31.4 43.46 31.15 44.39 30.95 45.12 30.69 45.89 30.86 46.64 30.91 46.87 31.2 46.87 31.32 46.7 31.73 46.12 31.78 45.37 31.86 44.68 31.98 43.69 32.09 42.69 32.23 41.7 32.26 41.48 31.96 41.37 31.9 41.6L31.9 41.6Z" fill="#FFA300" opacity="0.83"/></g><g><path d="M26.86 43.98C27.36 44.29 27.84 44.63 28.36 44.91 28.79 45.14 29.24 45.49 29.75 45.47 29.94 45.47 30.04 45.27 29.96 45.11 29.72 44.63 29.14 44.39 28.67 44.18 28.13 43.93 27.57 43.81 26.98 43.69 26.81 43.66 26.7 43.89 26.86 43.98L26.86 43.98Z" fill="#FFA300" opacity="0.83"/></g><g><g><path d="M29.3 50.26C29.36 50.34 31.47 49.37 31.65 49.29 32.6 48.85 33.51 48.49 34.25 47.72 34.37 47.59 34.3 47.31 34.09 47.33 33.12 47.43 32.38 47.83 31.52 48.27 30.65 48.72 29.63 49.15 28.96 49.87 28.9 49.93 28.89 50.02 28.93 50.1 29.03 50.3 29.02 50.29 29.25 50.34 29.28 50.35 29.34 50.31 29.3 50.26L29.3 50.26Z" fill="#ED9700"/></g></g><g><path d="M38.72 57.13C39.23 56.55 39.34 55.62 39.63 54.9 39.99 53.99 40.27 53.12 40.37 52.15 40.39 51.95 40.12 51.92 40.02 52.06 39.41 52.92 39.04 53.84 38.71 54.83 38.47 55.56 38.06 56.44 38.58 57.12 38.6 57.16 38.67 57.18 38.72 57.13L38.72 57.13Z" fill="#FFA300" opacity="0.83"/></g><g><path d="M41.89 53.01C42.88 53.53 44.17 54.32 45.34 54.05 45.53 54 45.63 53.72 45.46 53.58 44.56 52.86 43.15 52.84 42.06 52.6 41.82 52.54 41.65 52.88 41.89 53.01L41.89 53.01Z" fill="#FFA300" opacity="0.83"/></g><g><path d="M48.35 61.79C49.4 61.07 50.74 60.51 51.57 59.53 51.72 59.36 51.58 59.11 51.35 59.15 50.04 59.41 49.01 60.59 48.17 61.56 48.07 61.68 48.2 61.89 48.35 61.79L48.35 61.79Z" fill="#FFA300" opacity="0.83"/></g><g><path d="M51.71 57.12C52.16 55.99 52.44 54.73 51.94 53.57 51.83 53.31 51.46 53.42 51.38 53.64 50.99 54.73 51.15 55.92 51.24 57.05 51.26 57.34 51.61 57.37 51.71 57.12L51.71 57.12Z" fill="#FFA300" opacity="0.83"/></g><g><path d="M49.39 53.95C50.05 53.18 50.91 52.56 51.44 51.7 51.52 51.57 51.36 51.44 51.24 51.5 50.31 51.94 49.7 52.92 49.14 53.76 49.04 53.9 49.28 54.09 49.39 53.95L49.39 53.95Z" fill="#FFA300" opacity="0.83"/></g><g><path d="M54.27 51.95C54.82 53.03 55.4 54.1 56.14 55.06 56.74 55.83 57.3 56.71 58.27 57.03 58.5 57.1 58.73 56.86 58.66 56.64 58.38 55.72 57.61 55.11 57 54.4 56.23 53.5 55.47 52.62 54.78 51.66 54.55 51.35 54.09 51.61 54.27 51.95L54.27 51.95Z" fill="#FFA300" opacity="0.83"/></g><g><path d="M54.61 61.16C55.21 60.35 56.02 59.57 56.37 58.62 56.44 58.44 56.21 58.29 56.06 58.38 55.12 58.93 54.71 60.11 54.54 61.13 54.53 61.18 54.59 61.2 54.61 61.16L54.61 61.16Z" fill="#FFA300" opacity="0.83"/></g><g><path d="M53.83 57.45C54.23 57.18 54.65 56.93 55.04 56.63 55.13 56.56 55.06 56.41 54.95 56.47 54.52 56.69 54.11 56.97 53.7 57.22 53.55 57.31 53.69 57.54 53.83 57.45L53.83 57.45Z" fill="#FFA300" opacity="0.83"/></g><g><path d="M59.98 60.37C61.12 59.26 62.39 58.19 63.09 56.74 63.19 56.54 62.98 56.27 62.76 56.41 61.39 57.31 60.49 58.72 59.52 60.02 59.32 60.29 59.75 60.6 59.98 60.37L59.98 60.37Z" fill="#FFA300" opacity="0.83"/></g><g><path d="M61.01 54.02C61.42 52.62 61.89 51.21 61.58 49.74 61.54 49.53 61.19 49.47 61.09 49.68 60.48 51.06 60.64 52.52 60.74 53.99 60.76 54.13 60.96 54.17 61.01 54.02L61.01 54.02Z" fill="#FFA300" opacity="0.83"/></g><g><path d="M56.17 48.61C57.24 49.09 58.15 49.79 59.17 50.36 59.29 50.43 59.4 50.27 59.31 50.17 58.54 49.26 57.39 48.72 56.31 48.27 56.12 48.19 55.98 48.52 56.17 48.61L56.17 48.61Z" fill="#FFA300" opacity="0.83"/></g><g><path d="M57.42 46.61C58.66 46.64 60.49 46.81 61.55 46.04 61.71 45.92 61.74 45.6 61.49 45.55 60.85 45.44 60.26 45.6 59.63 45.76 58.88 45.95 58.13 46.11 57.37 46.24 57.16 46.28 57.22 46.6 57.42 46.61L57.42 46.61Z" fill="#FFA300" opacity="0.83"/></g><g><path d="M55.79 41.85C56.36 42.82 57.11 43.84 58.2 44.21 58.35 44.26 58.43 44.07 58.34 43.97 57.65 43.14 56.81 42.52 56.22 41.6 56.05 41.33 55.62 41.57 55.79 41.85L55.79 41.85Z" fill="#FFA300" opacity="0.83"/></g><g><path d="M55.34 44.1C55.15 44.93 54.95 45.75 54.72 46.57 54.52 47.3 54.15 48.06 54.25 48.82 54.28 49.08 54.6 49.29 54.82 49.05 55.34 48.49 55.47 47.72 55.66 47 55.89 46.13 56.1 45.24 56.29 44.36 56.42 43.74 55.48 43.48 55.34 44.1L55.34 44.1Z" fill="#FFA300" opacity="0.83"/></g><g><g><path d="M59.84 48.03C61.05 48.17 62.59 47.98 63.72 47.55 63.9 47.48 63.91 47.23 63.72 47.17 62.5 46.75 60.83 46.97 59.75 47.69 59.59 47.79 59.66 48.01 59.84 48.03L59.84 48.03Z" fill="#ED9700"/></g></g><g><path d="M62.95 52.82C63 53.94 63.97 54.77 64.66 55.56 65.65 56.69 66.73 57.71 67.92 58.62 68.01 58.69 68.15 58.55 68.08 58.46 67.44 57.54 66.72 56.66 65.95 55.84 65.54 55.4 65.1 55 64.68 54.6 64.14 54.08 63.3 53.56 63.08 52.81 63.06 52.73 62.94 52.74 62.95 52.82L62.95 52.82Z" fill="#FFA300" opacity="0.83"/></g><g><path d="M64.1 61.17C64.38 60.51 64.69 59.79 64.66 59.05 64.65 58.87 64.44 58.83 64.34 58.96 63.92 59.53 63.77 60.28 63.64 60.97 63.59 61.24 63.97 61.45 64.1 61.17L64.1 61.17Z" fill="#FFA300" opacity="0.83"/></g><g><path d="M66.34 53.1C67.55 52.99 68.64 52.26 69.79 51.89 70.87 51.54 72.16 51.48 73.07 50.77 73.26 50.62 73.14 50.31 72.94 50.26 70.51 49.59 68.44 52.24 66.3 52.81 66.15 52.85 66.17 53.11 66.34 53.1L66.34 53.1Z" fill="#FFA300" opacity="0.83"/></g><g><path d="M64.67 51.83C65.13 51.31 65.28 50.62 65.52 49.99 65.83 49.16 66.16 48.35 66.34 47.48 66.39 47.24 66.09 47.12 65.95 47.32 65.45 48.02 65.13 48.82 64.9 49.65 64.7 50.35 64.45 51.1 64.63 51.82 64.63 51.83 64.65 51.84 64.67 51.83L64.67 51.83Z" fill="#FFA300" opacity="0.83"/></g><g><path d="M62.28 41.15C62.28 42.37 62.45 44.28 63.46 45.12 63.63 45.27 63.89 45.13 63.84 44.9 63.71 44.26 63.27 43.67 63.04 43.06 62.8 42.43 62.62 41.79 62.52 41.12 62.49 40.98 62.28 41.02 62.28 41.15L62.28 41.15Z" fill="#FFA300" opacity="0.83"/></g><g><path d="M58.17 41.62C58.52 42.13 58.92 42.6 59.39 43.01 59.81 43.38 60.26 43.78 60.83 43.83 61.01 43.85 61.16 43.6 61.05 43.45 60.75 43.04 60.29 42.82 59.9 42.5 59.47 42.14 59.08 41.73 58.75 41.28 58.49 40.95 57.92 41.27 58.17 41.62L58.17 41.62Z" fill="#FFA300" opacity="0.83"/></g><g><g><path d="M57.49 39.93C58.15 38.91 58.91 37.98 59.68 37.04 60.33 36.26 61.1 35.57 61.67 34.73 61.79 34.56 61.56 34.37 61.4 34.46 59.44 35.55 58.22 37.9 57.4 39.89 57.36 39.95 57.45 39.98 57.49 39.93L57.49 39.93Z" fill="#ED9700"/></g></g><g><path d="M60.96 38.06C62 38.7 62.95 39.46 63.97 40.13 64.05 40.18 64.13 40.07 64.07 40 63.2 39.12 62.14 38.49 61.06 37.89 60.95 37.84 60.86 37.99 60.96 38.06L60.96 38.06Z" fill="#FFA300" opacity="0.83"/></g><g><path d="M55.04 33.97C55.59 35.04 56.06 36.23 56.81 37.17 56.92 37.3 57.16 37.16 57.1 37 56.68 35.87 55.9 34.85 55.27 33.83 55.18 33.69 54.96 33.82 55.04 33.97L55.04 33.97Z" fill="#FFA300" opacity="0.83"/></g><g><path d="M52.13 31.98C54.08 31.68 56.28 32.26 57.96 31 58.12 30.88 58.09 30.56 57.85 30.58 55.88 30.74 53.83 30.85 51.99 31.64 51.77 31.73 51.94 32.01 52.13 31.98L52.13 31.98Z" fill="#FFA300" opacity="0.83"/></g><g><path d="M57.75 34.87C58.77 34.3 59.93 34.16 60.94 33.6 61.07 33.53 61.06 33.29 60.9 33.26 59.66 33.04 58.5 33.78 57.54 34.5 57.32 34.66 57.5 35.01 57.75 34.87L57.75 34.87Z" fill="#FFA300" opacity="0.83"/></g><g><path d="M59.1 28.97C59.6 29.54 60.07 30.23 60.67 30.69 60.77 30.77 60.88 30.62 60.83 30.53 60.49 29.85 59.88 29.25 59.41 28.66 59.24 28.42 58.9 28.75 59.1 28.97L59.1 28.97Z" fill="#FFA300" opacity="0.83"/></g><g><path d="M65.25 38.67C66.08 38.86 66.9 39.13 67.73 39.34 68.48 39.53 69.23 39.86 70.01 39.78 70.2 39.76 70.38 39.5 70.19 39.35 68.9 38.35 66.78 38.54 65.25 38.62 65.22 38.62 65.22 38.67 65.25 38.67L65.25 38.67Z" fill="#FFA300" opacity="0.83"/></g><g><path d="M64.4 34.71C64.8 35.34 65.16 36.17 65.74 36.66 65.94 36.83 66.2 36.62 66.09 36.39 65.78 35.7 65.07 35.14 64.56 34.59 64.49 34.49 64.34 34.6 64.4 34.71L64.4 34.71Z" fill="#FFA300" opacity="0.83"/></g><g><path d="M67.09 35.2C67.67 35.03 68.19 34.75 68.71 34.45 69.25 34.15 69.88 33.99 70.39 33.66 70.56 33.55 70.54 33.28 70.33 33.22 69.79 33.06 69.26 33.34 68.79 33.59 68.16 33.92 67.59 34.32 66.9 34.53 66.48 34.66 66.66 35.33 67.09 35.2L67.09 35.2Z" fill="#FFA300" opacity="0.83"/></g><g><path d="M64.18 30.75C64.67 32.28 65.87 34.03 67.57 34.25 67.8 34.28 67.85 33.98 67.74 33.84 67.25 33.21 66.62 32.78 66 32.28 65.4 31.79 64.85 31.22 64.33 30.65 64.27 30.59 64.15 30.66 64.18 30.75L64.18 30.75Z" fill="#FFA300" opacity="0.83"/></g><g><path d="M62.77 33.64C63.32 33.82 63.95 33.66 64.32 33.21 64.43 33.08 64.37 32.83 64.17 32.85 63.7 32.88 63.21 32.99 62.77 33.16 62.54 33.25 62.52 33.56 62.77 33.64L62.77 33.64Z" fill="#FFA300" opacity="0.83"/></g><g><path d="M62.59 30.1C64.05 30.09 65.56 30.44 67.01 30.32 67.22 30.3 67.26 30.03 67.06 29.95 65.71 29.42 64.01 29.6 62.59 29.7 62.33 29.72 62.33 30.11 62.59 30.1L62.59 30.1Z" fill="#FFA300" opacity="0.83"/></g><g><path d="M67.96 30.65C68.56 31.93 69.68 33.83 71.19 34.15 71.41 34.2 71.64 33.96 71.51 33.74 71.12 33.13 70.51 32.72 70.01 32.22 69.44 31.64 68.98 30.99 68.59 30.29 68.35 29.88 67.76 30.24 67.96 30.65L67.96 30.65Z" fill="#FFA300" opacity="0.83"/></g><g><path d="M68.5 37.4C69.65 37.18 71.1 36.96 72.03 36.19 72.17 36.07 72.1 35.8 71.92 35.77 70.63 35.55 69.31 36.45 68.48 37.36 68.45 37.38 68.47 37.4 68.5 37.4L68.5 37.4Z" fill="#FFA300" opacity="0.83"/></g><g><g><path d="M70.93 37.73C71.09 39.64 71.13 41.87 72.37 43.42 72.52 43.61 72.82 43.44 72.82 43.23 72.9 41.35 71.93 39.46 71.5 37.65 71.43 37.34 70.9 37.4 70.93 37.73L70.93 37.73Z" fill="#ED9700"/></g></g><g><path d="M68.62 41.14C69.07 42.11 69.64 43.15 70.48 43.84 70.59 43.93 70.78 43.81 70.69 43.68 70.08 42.78 69.39 41.97 68.9 40.98 68.81 40.79 68.54 40.96 68.62 41.14L68.62 41.14Z" fill="#FFA300" opacity="0.83"/></g><g><path d="M65.3 40.65C65.31 42.16 65.12 44.05 65.71 45.46 65.79 45.65 66.12 45.72 66.17 45.46 66.48 43.96 66.07 42.18 66.02 40.65 66 40.19 65.29 40.18 65.3 40.65L65.3 40.65Z" fill="#FFA300" opacity="0.83"/></g><g><path d="M67.16 43.9C68.22 44.17 69.26 44.66 70.34 44.79 70.48 44.81 70.55 44.6 70.45 44.52 69.6 43.79 68.41 43.51 67.34 43.21 66.9 43.09 66.71 43.79 67.16 43.9L67.16 43.9Z" fill="#FFA300" opacity="0.83"/></g><g><path d="M63.1 41.71C63.47 42.02 64.04 42.38 64.52 42.13 64.66 42.06 64.64 41.87 64.52 41.79 64.2 41.57 63.83 41.58 63.52 41.3 63.24 41.05 62.82 41.47 63.1 41.71L63.1 41.71Z" fill="#FFA300" opacity="0.83"/></g><g><path d="M67.3 45.62C67.55 47.04 67.7 48.96 68.93 49.9 69.11 50.04 69.37 49.85 69.37 49.65 69.36 48.94 69.05 48.44 68.76 47.81 68.4 47.04 67.99 46.31 67.69 45.51 67.59 45.27 67.26 45.36 67.3 45.62L67.3 45.62Z" fill="#FFA300" opacity="0.83"/></g><g><path d="M69.75 47.67C70.41 47.59 71.1 47.65 71.75 47.73 71.78 47.73 71.78 47.68 71.75 47.68 71.08 47.62 70.42 47.65 69.75 47.65 69.73 47.64 69.74 47.67 69.75 47.67L69.75 47.67Z" fill="#FFA300" opacity="0.83"/></g><g><path d="M71.57 45.18C71.87 46.34 72.53 48.11 73.93 48.21 74.09 48.22 74.19 48.05 74.16 47.91 74.05 47.38 73.73 46.96 73.38 46.55 72.97 46.08 72.65 45.53 72.42 44.95 72.21 44.44 71.42 44.62 71.57 45.18L71.57 45.18Z" fill="#FFA300" opacity="0.83"/></g><g><path d="M74.17 46.41C74.63 46.46 75.1 46.53 75.56 46.62 75.93 46.69 76.18 46.75 76.55 46.64 76.69 46.6 76.7 46.43 76.59 46.35 75.97 45.9 74.91 46.02 74.18 46.01 73.91 46.01 73.92 46.38 74.17 46.41L74.17 46.41Z" fill="#FFA300" opacity="0.83"/></g><g><path d="M69.62 48.43C70.07 47.85 70.63 47.38 71.09 46.81 71.18 46.7 71.07 46.53 70.93 46.6 70.26 46.96 69.77 47.6 69.33 48.2 69.21 48.38 69.49 48.6 69.62 48.43L69.62 48.43Z" fill="#FFA300" opacity="0.83"/></g><g><path d="M74.88 48.2C75.68 50.61 76.25 53.24 78.58 54.67 78.8 54.8 79.04 54.58 78.99 54.35 78.42 51.89 76.53 50.15 75.34 48 75.2 47.76 74.79 47.92 74.88 48.2L74.88 48.2Z" fill="#FFA300" opacity="0.83"/></g><g><path d="M72.42 53.41C73.24 53.48 74.05 53.43 74.76 52.98 74.89 52.89 74.84 52.69 74.68 52.68 73.87 52.65 73.14 52.93 72.4 53.22 72.3 53.27 72.31 53.41 72.42 53.41L72.42 53.41Z" fill="#FFA300" opacity="0.83"/></g><g><path d="M70.09 54.76C70.37 55.68 71.38 56.46 71.97 57.19 72.28 57.58 73.3 59 73.94 58.36 74.58 57.71 73.35 56.44 72.95 56.04 72.29 55.39 71.36 54.43 70.38 54.38 70.19 54.37 70.04 54.58 70.09 54.76L70.09 54.76Z" fill="#FFA300" opacity="0.83"/></g><g><path d="M74.22 55.32C74.53 55.94 74.89 56.53 75.3 57.08 75.62 57.52 76.03 58.15 76.61 58.24 76.78 58.27 77 58.17 76.98 57.96 76.94 57.38 76.46 56.94 76.13 56.49 75.74 55.96 75.4 55.4 75.1 54.81 74.79 54.24 73.93 54.75 74.22 55.32L74.22 55.32Z" fill="#FFA300" opacity="0.83"/></g><g><path d="M71.5 60.56C72.69 60.63 74.05 60.9 75.14 60.31 75.31 60.22 75.32 59.94 75.14 59.85 74.02 59.32 72.7 59.66 71.5 59.79 71.02 59.85 71 60.54 71.5 60.56L71.5 60.56Z" fill="#FFA300" opacity="0.83"/></g><g><path d="M78.57 58.45C79.52 58.09 80.5 57.98 81.46 57.67 81.62 57.62 81.59 57.39 81.42 57.38 80.43 57.31 79.38 57.71 78.47 58.09 78.26 58.18 78.34 58.54 78.57 58.45L78.57 58.45Z" fill="#FFA300" opacity="0.83"/></g><g><path d="M80.17 56.74C80.71 56.61 81.26 56.49 81.8 56.35 82.31 56.22 82.63 55.98 83.03 55.65 83.19 55.52 83.1 55.22 82.91 55.18 82.39 55.08 82 55.02 81.48 55.15 80.94 55.28 80.4 55.44 79.86 55.58 79.1 55.78 79.42 56.92 80.17 56.74L80.17 56.74Z" fill="#FFA300" opacity="0.83"/></g><g><path d="M81.66 50.06C81.77 50.88 81.85 51.7 81.91 52.52 81.95 53.11 81.81 53.76 82.26 54.2 82.33 54.27 82.46 54.28 82.52 54.2 82.95 53.69 82.73 53 82.67 52.37 82.59 51.57 82.49 50.77 82.37 49.97 82.3 49.57 81.61 49.66 81.66 50.06L81.66 50.06Z" fill="#FFA300" opacity="0.83"/></g><g><path d="M84.67 51.64C85.54 51.58 86.46 51.61 87.29 51.32 87.4 51.28 87.43 51.09 87.29 51.06 86.43 50.9 85.54 51.06 84.67 51.13 84.35 51.16 84.34 51.67 84.67 51.64L84.67 51.64Z" fill="#FFA300" opacity="0.83"/></g><g><path d="M78.19 48.97C79.81 49.01 81.64 48.38 83.09 47.68 83.25 47.6 83.18 47.31 83 47.33 81.4 47.54 79.53 48.02 78.19 48.94 78.17 48.95 78.17 48.97 78.19 48.97L78.19 48.97Z" fill="#FFA300" opacity="0.83"/></g><g><g><path d="M79.18 43.48C79.11 44.24 78.74 47.32 80.11 47.21 80.39 47.19 80.59 46.9 80.44 46.63 79.88 45.65 79.61 44.56 79.44 43.45 79.42 43.29 79.19 43.34 79.18 43.48L79.18 43.48Z" fill="#ED9700"/></g></g><g><path d="M82.42 44.44C83.17 44.38 83.97 44.39 84.7 44.18 84.84 44.14 84.8 43.96 84.67 43.95 83.94 43.87 83.16 44.01 82.42 44.07 82.18 44.09 82.18 44.46 82.42 44.44L82.42 44.44Z" fill="#FFA300" opacity="0.83"/></g><g><path d="M75.42 40.74C75.23 41.61 75.13 42.5 75.14 43.4 75.15 44 75.06 44.81 75.72 45.04 75.8 45.07 75.88 45.03 75.94 44.98 76.42 44.56 76.09 43.87 76.02 43.33 75.9 42.49 75.9 41.65 75.97 40.81 76 40.5 75.49 40.44 75.42 40.74L75.42 40.74Z" fill="#FFA300" opacity="0.83"/></g><g><path d="M77.99 42.07C78.69 41.88 79.4 41.74 80.13 41.67 80.67 41.62 81.21 41.67 81.71 41.45 81.92 41.35 81.82 41.08 81.65 41.01 81.11 40.78 80.47 40.93 79.9 41.01 79.2 41.11 78.51 41.27 77.83 41.48 77.45 41.59 77.61 42.17 77.99 42.07L77.99 42.07Z" fill="#FFA300" opacity="0.83"/></g><g><path d="M77.91 35.78C77.77 36.56 77.65 37.35 77.56 38.14 77.48 38.84 77.28 39.59 77.61 40.24 77.73 40.48 78.08 40.45 78.21 40.24 78.54 39.71 78.46 39.07 78.5 38.46 78.56 37.64 78.66 36.83 78.79 36.02 78.87 35.45 78.01 35.2 77.91 35.78L77.91 35.78Z" fill="#FFA300" opacity="0.83"/></g><g><path d="M74.7 36.88C75.38 37.3 76.23 37.87 77.02 38.03 77.25 38.07 77.36 37.8 77.17 37.67 76.84 37.42 76.42 37.27 76.06 37.07 75.69 36.86 75.33 36.64 74.98 36.41 74.68 36.2 74.39 36.69 74.7 36.88L74.7 36.88Z" fill="#FFA300" opacity="0.83"/></g><g><path d="M81.23 38.76C81.96 38.62 82.69 38.5 83.41 38.32 84.04 38.16 84.77 38.11 85.31 37.73 85.54 37.57 85.44 37.27 85.18 37.23 84.49 37.14 83.73 37.47 83.08 37.67 82.4 37.88 81.75 38.17 81.1 38.44 80.9 38.53 81.05 38.8 81.23 38.76L81.23 38.76Z" fill="#FFA300" opacity="0.83"/></g><g><path d="M83.71 41.12C84.27 40.96 84.7 40.67 85.17 40.34 85.61 40.03 86.08 39.7 86.31 39.2 86.4 39.01 86.25 38.73 86.01 38.81 85.5 38.99 85.1 39.38 84.71 39.74 84.29 40.13 83.89 40.46 83.56 40.92 83.49 41.02 83.61 41.15 83.71 41.12L83.71 41.12Z" fill="#FFA300" opacity="0.83"/></g><g><path d="M87.69 37.78C87.48 39.02 87.2 40.24 87 41.48 86.88 42.25 86.52 43.4 87.03 44.09 87.26 44.4 87.85 44.54 88.04 44.09 88.83 42.28 88.49 39.83 88.58 37.9 88.6 37.4 87.77 37.27 87.69 37.78L87.69 37.78Z" fill="#FFA300" opacity="0.83"/></g><g><path d="M87.84 46.58C88.58 46.62 89.32 46.7 90.04 46.85 90.61 46.97 91.16 47.17 91.75 47.18 91.86 47.18 91.89 47.04 91.8 46.98 90.73 46.3 89.08 46.25 87.83 46.2 87.6 46.2 87.6 46.57 87.84 46.58L87.84 46.58Z" fill="#FFA300" opacity="0.83"/></g><g><path d="M90.59 41.9C90.87 42.78 91.19 43.99 91.98 44.55 92.08 44.62 92.26 44.53 92.24 44.4 92.19 43.97 92 43.62 91.81 43.23 91.57 42.74 91.38 42.24 91.21 41.72 91.08 41.35 90.47 41.51 90.59 41.9L90.59 41.9Z" fill="#FFA300" opacity="0.83"/></g><g><g><path d="M88.81 48.98C89.49 50.01 89.77 51.29 90.56 52.23 90.67 52.36 90.9 52.29 90.94 52.13 91.25 50.72 90.05 49.51 88.9 48.89 88.84 48.86 88.77 48.93 88.81 48.98L88.81 48.98Z" fill="#ED9700"/></g></g><g><path d="M85.37 47.48C86.15 47.82 86.91 48.04 87.76 47.93 87.89 47.91 87.98 47.73 87.83 47.66 87.06 47.28 86.27 47.22 85.42 47.29 85.33 47.29 85.26 47.43 85.37 47.48L85.37 47.48Z" fill="#FFA300" opacity="0.83"/></g><g><path d="M94.84 44.05C95.45 44 96.14 44.02 96.72 43.83 96.9 43.77 96.9 43.53 96.72 43.47 96.13 43.28 95.45 43.3 94.84 43.25 94.32 43.2 94.32 44.09 94.84 44.05L94.84 44.05Z" fill="#FFA300" opacity="0.83"/></g><g><path d="M93.63 47.42C94.13 47.66 94.7 47.83 95.19 47.49 95.35 47.38 95.31 47.17 95.14 47.1 94.76 46.96 94.37 46.95 94.02 46.75 93.58 46.51 93.19 47.2 93.63 47.42L93.63 47.42Z" fill="#FFA300" opacity="0.83"/></g><g><g><path d="M95.89 35.94C96.17 37.03 96.44 38.15 96.85 39.21 97.14 39.97 97.42 40.88 98.24 41.17 98.42 41.23 98.63 41.1 98.68 40.92 98.89 40.15 98.36 39.4 98.02 38.72 97.53 37.73 97.05 36.77 96.68 35.73 96.51 35.22 95.75 35.42 95.89 35.94L95.89 35.94Z" fill="#ED9700"/></g></g><g><path d="M93.33 39.68C94.48 40.15 95.67 40.82 96.92 40.91 97.06 40.92 97.16 40.71 97.04 40.62 96.03 39.78 94.63 39.62 93.35 39.5 93.24 39.49 93.24 39.64 93.33 39.68L93.33 39.68Z" fill="#FFA300" opacity="0.83"/></g><g><path d="M91.69 37.75C92.06 37.37 92.44 36.99 92.81 36.61 93.14 36.28 93.55 35.95 93.78 35.54 93.84 35.43 93.71 35.29 93.6 35.36 93.2 35.61 92.89 36.02 92.56 36.36 92.19 36.75 91.83 37.13 91.46 37.52 91.32 37.67 91.55 37.9 91.69 37.75L91.69 37.75Z" fill="#FFA300" opacity="0.83"/></g><g><path d="M87.34 34.77C88.66 34.88 89.94 35.02 91.26 34.84 91.46 34.81 91.47 34.54 91.26 34.52 89.93 34.4 88.66 34.58 87.34 34.74 87.32 34.75 87.32 34.77 87.34 34.77L87.34 34.77Z" fill="#FFA300" opacity="0.83"/></g><g><path d="M83.72 32.08C83.16 33.23 82.34 34.35 82.11 35.62 81.99 36.28 82.81 36.66 83.2 36.08 83.96 34.93 83.95 33.47 83.95 32.14 83.95 32.03 83.78 31.97 83.72 32.08L83.72 32.08Z" fill="#FFA300" opacity="0.83"/></g><g><path d="M78.35 32.38C78.79 32.98 79.2 33.64 79.72 34.17 80.21 34.67 80.67 35.3 81.39 35.45 81.6 35.49 81.78 35.32 81.73 35.11 81.58 34.39 80.95 33.93 80.45 33.44 79.91 32.92 79.26 32.51 78.66 32.08 78.48 31.94 78.22 32.2 78.35 32.38L78.35 32.38Z" fill="#FFA300" opacity="0.83"/></g><g><path d="M74.59 34.62C75.56 34.64 76.47 34.64 77.36 34.24 77.54 34.16 77.44 33.9 77.27 33.89 76.37 33.88 75.5 34.09 74.6 34.16 74.3 34.19 74.29 34.62 74.59 34.62L74.59 34.62Z" fill="#FFA300" opacity="0.83"/></g><g><path d="M80.03 29.03C80.24 29 80.44 29.27 80.5 29.43 80.57 29.59 80.61 29.77 80.67 29.93 80.77 30.19 80.91 30.44 81.04 30.7 81.32 31.26 81.54 31.66 82.06 32.01 82.19 32.1 82.42 31.98 82.4 31.81 82.29 30.95 81.74 30.27 81.18 29.63 80.91 29.32 80.47 28.77 80 28.98 79.98 28.99 80 29.03 80.03 29.03L80.03 29.03Z" fill="#FFA300" opacity="0.83"/></g><g><path d="M73.41 29.74C73.82 30.14 74.24 30.53 74.68 30.9 75.05 31.22 75.41 31.55 75.87 31.73 76.01 31.78 76.15 31.6 76.07 31.48 75.78 31.07 75.36 30.79 74.98 30.47 74.57 30.12 74.16 29.75 73.77 29.38 73.53 29.16 73.18 29.51 73.41 29.74L73.41 29.74Z" fill="#FFA300" opacity="0.83"/></g><g><g><path d="M60.75 24.81C60.72 25.59 60.74 26.34 60.98 27.09 61.02 27.2 61.19 27.19 61.19 27.06 61.18 26.31 61.09 25.56 61.09 24.81 61.09 24.59 60.75 24.59 60.75 24.81L60.75 24.81Z" fill="#ED9700"/></g></g><g><path d="M56.91 19.1C56.23 20.16 55.42 21.31 55 22.5 54.69 23.38 56.07 23.95 56.5 23.13 57.08 22.05 57.44 20.84 58.01 19.75 58.38 19.01 57.35 18.4 56.91 19.1L56.91 19.1Z" fill="#FFA300" opacity="0.83"/></g><g><path d="M51.9 17.45C53.23 17.8 54.68 18.5 56.09 18.32 56.29 18.29 56.45 18.05 56.27 17.89 55.08 16.83 53.33 17.01 51.9 17.3 51.82 17.31 51.83 17.43 51.9 17.45L51.9 17.45Z" fill="#FFA300" opacity="0.83"/></g><g><path d="M54.55 12.88C55.68 12.63 56.85 12.56 57.97 12.23 58.13 12.18 58.09 11.96 57.93 11.94 56.75 11.85 55.58 12.2 54.45 12.52 54.22 12.59 54.31 12.93 54.55 12.88L54.55 12.88Z" fill="#FFA300" opacity="0.83"/></g><g><path d="M55.68 14.56C56.31 14.36 56.87 14.55 57.47 14.75 58.01 14.93 58.52 15.03 59.08 15.08 59.2 15.09 59.24 14.91 59.14 14.86 58.11 14.34 56.7 13.83 55.58 14.35 55.47 14.4 55.56 14.6 55.68 14.56L55.68 14.56Z" fill="#FFA300" opacity="0.83"/></g><g><path d="M52.44 13.23C52.32 14.26 52.37 15.24 52.61 16.25 52.62 16.29 52.69 16.28 52.69 16.24 52.58 15.25 52.58 14.26 52.73 13.27 52.76 13.06 52.46 13.02 52.44 13.23L52.44 13.23Z" fill="#FFA300" opacity="0.83"/></g><g><path d="M55.89 11.23C56.58 10.19 57.44 9.28 58.11 8.24 58.15 8.17 58.06 8.12 58.01 8.16 57.04 8.92 56.3 10.05 55.61 11.07 55.5 11.24 55.78 11.4 55.89 11.23L55.89 11.23Z" fill="#FFA300" opacity="0.83"/></g><g><path d="M60.35 9.16C60.77 10.3 61.16 11.57 61.92 12.54 62.03 12.68 62.25 12.53 62.21 12.37 61.92 11.2 61.15 10.1 60.52 9.09 60.46 9.01 60.31 9.06 60.35 9.16L60.35 9.16Z" fill="#FFA300" opacity="0.83"/></g><g><path d="M59.03 11.98C59 12.97 59.07 14.89 60.11 15.39 60.32 15.49 60.5 15.37 60.53 15.15 60.59 14.64 60.3 14.18 60.15 13.71 59.97 13.15 59.89 12.57 59.88 11.98 59.87 11.43 59.05 11.43 59.03 11.98L59.03 11.98Z" fill="#FFA300" opacity="0.83"/></g><g><path d="M62.84 14.16C64.28 14.32 65.55 15.28 67 15.28 67.17 15.28 67.26 15.06 67.14 14.94 66.02 13.81 64.28 14.11 62.84 14.11 62.8 14.1 62.8 14.15 62.84 14.16L62.84 14.16Z" fill="#FFA300" opacity="0.83"/></g><g><path d="M64.33 10.89C65.63 11.16 67.35 11.61 68.64 11.15 68.84 11.08 68.85 10.81 68.64 10.74 68.02 10.54 67.45 10.56 66.81 10.54 66.03 10.51 65.26 10.44 64.49 10.33 64.13 10.28 63.96 10.82 64.33 10.89L64.33 10.89Z" fill="#FFA300" opacity="0.83"/></g><g><path d="M64.35 9C65.31 8.82 66.28 8.81 67.22 8.57 67.4 8.52 67.4 8.26 67.22 8.21 66.21 7.95 65.18 8.14 64.17 8.33 63.73 8.41 63.91 9.08 64.35 9L64.35 9Z" fill="#FFA300" opacity="0.83"/></g><g><path d="M69.28 8.39C69.75 9.36 70.17 10.6 71.02 11.29 71.18 11.42 71.42 11.3 71.38 11.08 71.14 10 70.21 9.08 69.56 8.23 69.43 8.07 69.19 8.2 69.28 8.39L69.28 8.39Z" fill="#FFA300" opacity="0.83"/></g><g><path d="M69.83 13.23C70 13.38 70.09 13.58 70.11 13.81 70.12 13.89 70.24 13.9 70.24 13.81 70.24 13.53 70.18 13.32 70.02 13.09 69.92 12.95 69.71 13.11 69.83 13.23L69.83 13.23Z" fill="#FFA300" opacity="0.83"/></g><g><path d="M72.11 13.74C72.37 14.23 72.59 14.69 72.98 15.09 73.1 15.21 73.27 15.08 73.25 14.93 73.17 14.37 72.93 13.91 72.69 13.4 72.5 13.03 71.91 13.36 72.11 13.74L72.11 13.74Z" fill="#FFA300" opacity="0.83"/></g><g><g><path d="M73.8 11.82C75.15 11.32 76.61 11.14 77.92 10.57 78.07 10.51 77.97 10.31 77.85 10.3 76.39 10.2 74.95 10.87 73.66 11.48 73.47 11.57 73.6 11.89 73.8 11.82L73.8 11.82Z" fill="#ED9700"/></g></g><g><path d="M72.75 8.93C73.24 8.89 73.74 8.87 74.23 8.87 74.67 8.87 75.12 8.94 75.55 8.85 75.75 8.81 75.73 8.52 75.55 8.47 74.71 8.22 73.6 8.44 72.75 8.54 72.5 8.56 72.49 8.95 72.75 8.93L72.75 8.93Z" fill="#FFA300" opacity="0.83"/></g><g><path d="M77.42 13.53C77.87 14.38 78.26 15.33 78.83 16.11 78.88 16.18 79.01 16.14 78.98 16.05 78.66 15.13 78.1 14.26 77.65 13.39 77.57 13.24 77.34 13.38 77.42 13.53L77.42 13.53Z" fill="#FFA300" opacity="0.83"/></g><g><path d="M75.56 15.05C75.77 15.93 76.18 17.3 77.08 17.71 77.21 17.77 77.38 17.67 77.33 17.51 77.22 17.08 76.91 16.71 76.68 16.34 76.4 15.89 76.2 15.41 76.04 14.91 75.95 14.61 75.49 14.74 75.56 15.05L75.56 15.05Z" fill="#FFA300" opacity="0.83"/></g><g><path d="M76.29 20.9C76.16 21.51 76.02 22.11 75.85 22.7 75.71 23.2 75.52 23.69 75.63 24.22 75.67 24.4 75.91 24.45 76.03 24.33 76.43 23.92 76.5 23.34 76.6 22.8 76.71 22.2 76.79 21.59 76.86 20.99 76.9 20.65 76.36 20.58 76.29 20.9L76.29 20.9Z" fill="#FFA300" opacity="0.83"/></g><g><path d="M72.67 21.6C72.27 22.9 71.38 24.11 71.26 25.48 71.24 25.71 71.52 25.76 71.67 25.65 72.82 24.75 72.92 23.01 72.95 21.64 72.96 21.47 72.72 21.45 72.67 21.6L72.67 21.6Z" fill="#FFA300" opacity="0.83"/></g><g><g><path d="M65.41 23.46C66.56 22.94 67.8 23.38 68.99 23.13 69.23 23.08 69.25 22.74 69.06 22.62 67.8 21.87 66.46 22.73 65.36 23.37 65.29 23.4 65.35 23.48 65.41 23.46L65.41 23.46Z" fill="#ED9700"/></g></g><g><path d="M63.22 21.25C64.08 21.43 65.12 21.65 65.97 21.35 66.12 21.3 66.17 21.02 65.97 20.99 65.09 20.85 64.15 21.03 63.26 20.99 63.11 20.98 63.07 21.22 63.22 21.25L63.22 21.25Z" fill="#FFA300" opacity="0.83"/></g><g><path d="M63.04 23.37C63.32 24.34 63.77 25.35 64.53 26.04 64.64 26.14 64.82 26.01 64.74 25.88 64.23 25.02 63.72 24.23 63.45 23.26 63.38 23 62.96 23.11 63.04 23.37L63.04 23.37Z" fill="#FFA300" opacity="0.83"/></g><g><path d="M67.23 27.72C67.95 28.21 68.91 29 69.82 28.87 69.97 28.85 70.05 28.63 69.96 28.52 69.69 28.14 69.33 28 68.92 27.8 68.47 27.58 68.03 27.34 67.6 27.08 67.19 26.83 66.84 27.46 67.23 27.72L67.23 27.72Z" fill="#FFA300" opacity="0.83"/></g><g><path d="M67.53 25.04C68.01 25.54 68.51 26.28 69.18 26.51 69.33 26.56 69.45 26.38 69.37 26.26 69.01 25.66 68.18 25.3 67.6 24.94 67.54 24.9 67.48 24.99 67.53 25.04L67.53 25.04Z" fill="#FFA300" opacity="0.83"/></g><g><g><path d="M74.29 27.37C75.67 27.18 77.09 27.29 78.45 27.02 78.58 26.99 78.57 26.79 78.45 26.76 77.08 26.44 75.56 26.78 74.2 27.06 74 27.11 74.1 27.4 74.29 27.37L74.29 27.37Z" fill="#ED9700"/></g></g><g><path d="M76.87 29.46C77.06 29.19 77.29 28.95 77.57 28.77 77.75 28.65 77.95 28.58 78.11 28.42 78.19 28.34 78.14 28.18 78.02 28.19 77.44 28.24 76.95 28.88 76.67 29.34 76.58 29.48 76.78 29.59 76.87 29.46L76.87 29.46Z" fill="#FFA300" opacity="0.83"/></g><g><path d="M71.06 30.88C70.89 30.17 70.97 29.49 71.3 28.84 71.33 28.78 71.24 28.73 71.21 28.79 70.87 29.46 70.78 30.18 70.96 30.91 70.97 30.98 71.07 30.95 71.06 30.88L71.06 30.88Z" fill="#FFA300" opacity="0.83"/></g><g><path d="M81.06 26.09C81.21 26.9 81.45 27.98 82.18 28.47 82.33 28.57 82.52 28.41 82.47 28.24 82.36 27.85 82.14 27.57 81.93 27.24 81.68 26.85 81.48 26.45 81.32 26.02 81.25 25.87 81.02 25.92 81.06 26.09L81.06 26.09Z" fill="#FFA300" opacity="0.83"/></g><g><path d="M83.53 25.66C83.64 27.01 84.56 29.09 86.04 29.43 86.2 29.47 86.4 29.32 86.33 29.14 86.09 28.52 85.54 27.97 85.14 27.45 84.68 26.84 84.27 26.21 83.84 25.58 83.77 25.45 83.52 25.48 83.53 25.66L83.53 25.66Z" fill="#FFA300" opacity="0.83"/></g><g><path d="M85.59 31.68C86.71 31.8 87.96 31.71 89.09 31.59 89.2 31.58 89.24 31.41 89.12 31.38 88 31.14 86.64 31.17 85.58 31.63 85.55 31.65 85.57 31.68 85.59 31.68L85.59 31.68Z" fill="#FFA300" opacity="0.83"/></g><g><path d="M86.16 35.26C86.22 35.02 86.5 34.78 86.64 34.58 86.8 34.33 86.87 34.07 86.95 33.78 87 33.62 86.8 33.46 86.66 33.55 86.24 33.82 84.93 34.84 85.62 35.4 85.8 35.55 86.1 35.52 86.16 35.26L86.16 35.26Z" fill="#FFA300" opacity="0.83"/></g><g><path d="M91.74 29.4C92.59 30.41 93.41 31.68 94.5 32.44 94.63 32.53 94.75 32.36 94.7 32.24 94.16 31.02 93.04 29.96 92.21 28.93 91.95 28.6 91.47 29.07 91.74 29.4L91.74 29.4Z" fill="#FFA300" opacity="0.83"/></g><g><path d="M91.78 31.76C92.19 32.58 92.68 33.32 93.56 33.67 93.68 33.72 93.75 33.55 93.68 33.47 93.12 32.83 92.44 32.33 91.91 31.66 91.85 31.59 91.74 31.69 91.78 31.76L91.78 31.76Z" fill="#FFA300" opacity="0.83"/></g><g><path d="M95.22 34.3C95.48 33.95 95.79 33.64 96.14 33.38 96.43 33.16 96.81 33.03 97.04 32.76 97.13 32.66 97.08 32.46 96.92 32.47 96.12 32.52 95.32 33.5 94.9 34.11 94.76 34.32 95.08 34.49 95.22 34.3L95.22 34.3Z" fill="#FFA300" opacity="0.83"/></g><g><path d="M96.49 29.7C96.88 30.53 97.28 31.31 98.02 31.88 98.11 31.95 98.25 31.86 98.19 31.75 97.74 30.98 97.15 30.34 96.66 29.6 96.58 29.51 96.44 29.6 96.49 29.7L96.49 29.7Z" fill="#FFA300" opacity="0.83"/></g><g><path d="M98.69 33.22C98.44 34.44 98.21 35.72 98.45 36.96 98.49 37.17 98.71 37.39 98.92 37.43 99.13 37.47 99.25 37.46 99.44 37.36 99.64 37.26 99.78 37 99.77 36.78 99.73 35.62 99.44 34.47 99.36 33.31 99.34 32.95 98.77 32.82 98.69 33.22L98.69 33.22Z" fill="#FFA300" opacity="0.83"/></g><g><path d="M99.69 31.15C99.69 29.3 99.92 26.91 99.18 25.17 99.14 25.08 98.98 25.1 98.96 25.2 98.81 26.1 99 27.05 99.09 27.96 99.2 29.02 99.3 30.08 99.36 31.15 99.38 31.35 99.69 31.35 99.69 31.15L99.69 31.15Z" fill="#FFA300" opacity="0.83"/></g><g><path d="M95.5 25.38C95.49 25.35 95.49 25.33 95.48 25.31 95.39 24.97 94.86 25.11 94.95 25.46 95.12 26.08 95.72 26.59 96.16 27.02 96.62 27.47 97.07 27.96 97.75 28 97.92 28.01 98.03 27.83 97.99 27.68 97.83 27.04 97.26 26.67 96.79 26.26 96.34 25.87 95.87 25.31 95.28 25.12 95.33 25.25 95.39 25.39 95.44 25.52 95.47 25.47 95.51 25.42 95.5 25.38L95.5 25.38Z" fill="#FFA300" opacity="0.83"/></g><g><path d="M90.08 27.12C91.05 27.1 92.03 27.19 93 27.11 93.12 27.1 93.17 26.9 93.03 26.88 92.05 26.71 91.06 26.84 90.08 26.97 89.99 26.97 89.98 27.12 90.08 27.12L90.08 27.12Z" fill="#FFA300" opacity="0.83"/></g><g><path d="M94.28 27.83C94.54 28.48 94.89 29.09 95.38 29.6 95.43 29.65 95.5 29.58 95.46 29.52 95.02 28.98 94.65 28.44 94.38 27.8 94.36 27.74 94.25 27.77 94.28 27.83L94.28 27.83Z" fill="#FFA300" opacity="0.83"/></g><g><path d="M87.88 24.31C87.75 25.89 87.37 27.75 87.88 29.29 87.95 29.51 88.27 29.52 88.34 29.29 88.78 27.73 88.32 25.89 88.12 24.31 88.1 24.16 87.89 24.16 87.88 24.31L87.88 24.31Z" fill="#FFA300" opacity="0.83"/></g><g><path d="M91.32 25.22C92.13 25.41 93 25.71 93.84 25.65 93.93 25.64 93.94 25.53 93.86 25.49 93.09 25.18 92.16 25.18 91.34 25.11 91.27 25.11 91.26 25.2 91.32 25.22L91.32 25.22Z" fill="#FFA300" opacity="0.83"/></g><g><path d="M92.14 20.65C92.18 21.82 92.29 23.35 93.28 24.13 93.42 24.24 93.68 24.19 93.67 23.97 93.58 22.8 92.81 21.73 92.46 20.61 92.4 20.44 92.13 20.47 92.14 20.65L92.14 20.65Z" fill="#FFA300" opacity="0.83"/></g><g><path d="M87.07 18.91C86.73 20.02 86.31 21.1 86.06 22.23 85.88 23.04 85.63 23.98 86.09 24.72 86.2 24.9 86.41 24.91 86.57 24.78 87.26 24.23 87.29 23.25 87.39 22.41 87.52 21.27 87.47 20.11 87.51 18.97 87.52 18.71 87.15 18.67 87.07 18.91L87.07 18.91Z" fill="#FFA300" opacity="0.83"/></g><g><path d="M88.48 20.55C88.93 20.73 89.36 20.94 89.77 21.19 90.12 21.4 90.48 21.51 90.87 21.64 91.01 21.69 91.11 21.49 91.01 21.4 90.7 21.09 90.4 20.83 89.98 20.7 89.51 20.55 89.02 20.44 88.53 20.37 88.41 20.35 88.37 20.5 88.48 20.55L88.48 20.55Z" fill="#FFA300" opacity="0.83"/></g><g><path d="M84.5 17.84C86.1 17.91 87.64 18.33 89.25 18.4 89.41 18.41 89.49 18.15 89.34 18.08 87.72 17.32 86.25 17.41 84.5 17.52 84.3 17.54 84.3 17.83 84.5 17.84L84.5 17.84Z" fill="#FFA300" opacity="0.83"/></g><g><g><path d="M82.29 15.53C83.09 15.32 83.91 15.15 84.69 14.9 84.77 14.87 84.74 14.76 84.65 14.77 83.83 14.9 83.03 15.12 82.22 15.3 82.08 15.33 82.14 15.56 82.29 15.53L82.29 15.53Z" fill="#ED9700"/></g></g><g><path d="M81.34 18.3C82.14 18.2 83.04 18.34 83.79 18.04 83.9 18 83.97 17.81 83.83 17.75 83.04 17.4 82.09 17.68 81.28 17.88 81.06 17.94 81.1 18.34 81.34 18.3L81.34 18.3Z" fill="#FFA300" opacity="0.83"/></g><g><path d="M80.81 11.73C81.16 12.35 81.57 13.37 82.29 13.63 82.43 13.68 82.63 13.54 82.61 13.39 82.57 13.04 82.4 12.8 82.19 12.52 81.9 12.16 81.63 11.79 81.37 11.41 81.13 11.07 80.6 11.36 80.81 11.73L80.81 11.73Z" fill="#FFA300" opacity="0.83"/></g><g><path d="M85.31 11.99C86.61 12.99 87.96 14.02 89.48 14.65 89.56 14.68 89.64 14.55 89.57 14.49 88.26 13.48 86.83 12.65 85.51 11.64 85.31 11.49 85.11 11.84 85.31 11.99L85.31 11.99Z" fill="#FFA300" opacity="0.83"/></g><g><path d="M86.65 14.97C86.9 15.55 87.26 16.33 87.85 16.62 87.98 16.69 88.18 16.57 88.12 16.41 87.9 15.82 87.43 15.34 87.18 14.74 87.02 14.36 86.48 14.58 86.65 14.97L86.65 14.97Z" fill="#FFA300" opacity="0.83"/></g><g><path d="M90.82 17.24C91.19 17.68 91.55 18.12 91.99 18.49 92.09 18.58 92.24 18.47 92.18 18.35 91.9 17.82 91.53 17.38 91.16 16.91 90.97 16.67 90.62 17.01 90.82 17.24L90.82 17.24Z" fill="#FFA300" opacity="0.83"/></g><g><path d="M93.64 17.47C94.08 18.23 94.78 19.24 95.7 19.39 95.83 19.41 95.99 19.27 95.9 19.14 95.65 18.79 95.35 18.58 95.04 18.28 94.7 17.95 94.41 17.57 94.17 17.16 93.97 16.83 93.45 17.13 93.64 17.47L93.64 17.47Z" fill="#FFA300" opacity="0.83"/></g><g><path d="M94.82 21.32C94.88 21.49 94.93 21.65 94.99 21.82 95 21.84 95.02 21.83 95.02 21.81 94.96 21.64 94.91 21.48 94.85 21.31 94.84 21.29 94.81 21.3 94.82 21.32L94.82 21.32Z" fill="#FFA300" opacity="0.83"/></g><g><path d="M96.32 21.71C96.15 22.72 95.93 24.2 96.53 25.1 96.81 25.51 97.64 25.55 97.73 24.94 97.81 24.42 97.68 23.96 97.64 23.45 97.6 22.93 97.63 22.41 97.7 21.9 97.81 21.12 96.46 20.93 96.32 21.71L96.32 21.71Z" fill="#FFA300" opacity="0.83"/></g><g><path d="M44.24 35.14C44.65 35.01 45.06 34.87 45.46 34.73 45.78 34.61 46.13 34.53 46.38 34.28 46.48 34.17 46.41 33.99 46.26 33.99 45.9 33.98 45.59 34.18 45.25 34.31 44.88 34.46 44.5 34.6 44.13 34.74 43.87 34.82 43.98 35.22 44.24 35.14L44.24 35.14Z" fill="#FFA300" opacity="0.83"/></g><g><path d="M38.09 31.86C38.75 32.37 39.52 32.64 40.29 32.96 40.93 33.23 41.55 33.47 42.25 33.48 42.44 33.48 42.56 33.22 42.41 33.09 41.85 32.6 41.18 32.35 40.48 32.1 39.71 31.83 39 31.54 38.19 31.47 37.97 31.47 37.95 31.75 38.09 31.86L38.09 31.86Z" fill="#FFA300" opacity="0.83"/></g><g><path d="M41.03 57.71C42.48 59.16 44 60.46 45.89 61.28 46.01 61.33 46.11 61.18 46 61.1 44.37 59.95 42.65 58.92 41.1 57.64 41.05 57.59 40.98 57.66 41.03 57.71L41.03 57.71Z" fill="#FFA300" opacity="0.83"/></g><g><path d="M35.52 56.79C36.29 56.48 37.08 56.26 37.86 55.97 37.94 55.94 37.91 55.83 37.82 55.84 37 56 36.22 56.31 35.45 56.64 35.37 56.68 35.43 56.82 35.52 56.79L35.52 56.79Z" fill="#FFA300" opacity="0.83"/></g><g><path d="M34.01 54.49C34.56 53.25 35.26 52.09 35.6 50.78 35.64 50.63 35.42 50.47 35.31 50.61 34.43 51.72 34.15 53.08 33.94 54.46 33.94 54.5 33.99 54.54 34.01 54.49L34.01 54.49Z" fill="#FFA300" opacity="0.83"/></g><g><path d="M26.02 38.32C26.24 39.74 26.92 41.59 28.05 42.53 28.21 42.67 28.45 42.54 28.41 42.32 28.26 41.55 27.93 40.97 27.58 40.28 27.22 39.56 26.94 38.8 26.56 38.09 26.39 37.78 25.97 38.01 26.02 38.32L26.02 38.32Z" fill="#FFA300" opacity="0.83"/></g><g><path d="M27.17 29.32C28.37 28.66 29.09 27.46 29.72 26.27 29.84 26.05 29.6 25.79 29.37 25.92 28.16 26.65 27.09 27.81 27.14 29.3 27.15 29.32 27.16 29.32 27.17 29.32L27.17 29.32Z" fill="#FFA300" opacity="0.83"/></g><g><path d="M33.37 21.41C34.04 20.94 34.43 20.15 34.91 19.51 35.42 18.83 36.02 18.14 36.32 17.33 36.42 17.06 36.08 16.84 35.85 16.97 35.14 17.37 34.6 18.08 34.13 18.73 33.65 19.41 32.98 20.18 32.85 21.02 32.82 21.28 33.1 21.6 33.37 21.41L33.37 21.41Z" fill="#FFA300" opacity="0.83"/></g><g><g><path d="M37.53 15.3C38.12 16.26 39.03 17.32 40.25 17.29 40.48 17.28 40.61 17.05 40.5 16.85 39.97 15.85 38.75 15.42 37.74 15.03 37.58 14.97 37.45 15.17 37.53 15.3L37.53 15.3Z" fill="#ED9700"/></g></g><g><path d="M40.22 14.02C40.77 13.74 41.26 13.44 41.79 13.12 42.27 12.83 42.83 12.56 43.24 12.17 43.46 11.96 43.27 11.65 43.01 11.63 42.37 11.57 41.64 11.91 41.13 12.28 40.54 12.72 40.19 13.13 39.93 13.81 39.89 13.97 40.09 14.09 40.22 14.02L40.22 14.02Z" fill="#FFA300" opacity="0.83"/></g><g><path d="M41.86 14.34C42.47 14.46 42.96 14.83 43.54 14.98 43.69 15.02 43.85 14.85 43.75 14.71 43.37 14.16 42.61 13.98 41.98 13.88 41.69 13.84 41.55 14.28 41.86 14.34L41.86 14.34Z" fill="#FFA300" opacity="0.83"/></g><g><path d="M46.54 10.79C47.7 10.18 49.14 9.72 50.09 8.81 50.19 8.71 50.09 8.52 49.95 8.57 48.69 8.95 47.58 9.98 46.47 10.68 46.4 10.72 46.46 10.83 46.54 10.79L46.54 10.79Z" fill="#FFA300" opacity="0.83"/></g><g><g><path d="M52 8.45C52.39 8.74 52.82 9.04 53.31 9.15 53.56 9.21 53.78 9.11 53.92 8.9 53.95 8.86 53.96 8.81 53.97 8.77 54.04 8.53 53.92 8.29 53.72 8.16 53.26 7.85 52.7 7.79 52.17 7.83 51.82 7.85 51.73 8.25 52 8.45L52 8.45Z" fill="#ED9700"/></g></g></g><g><g><defs><path d="M118.56 53.74C114.61 62.58 106.53 69.48 97.17 71.98 86.87 74.73 76.73 73.19 66.45 70.37 59.89 68.57 53.73 63.95 51.56 62.29 48.65 60.07 46.21 57.54 45.72 53.91 45.65 53.37 45.68 52.72 46.12 52.4 63.81 52.63 81.46 52.46 99.15 52.69 105.68 52.77 112.1 52.85 118.56 53.74Z" id="SVGID_5_"/></defs><clipPath id="SVGID_6_"><use width="100%" height="100%" xlink:href="#SVGID_5_" overflow="visible"></use></clipPath><use width="100%" height="100%" xlink:href="#SVGID_5_" fill="#F5F1CE" overflow="visible"></use><g clip-path="url(#SVGID_6_)"><path d="M50.04 64.08C54.75 68.41 60.59 71.34 66.55 73.55 78.88 78.12 94.86 79.19 106.05 71.16 109.13 68.95 112.11 66.51 114.86 63.91 116.23 62.61 117.54 61.25 118.75 59.8 120.24 58.01 121.54 56.5 121.76 54.1 121.98 51.64 119.05 50.52 117.18 51.47 115.76 52.19 118.04 52.82 117.05 54 116.13 55.1 114.32 58.12 113.3 59.12 111.24 61.14 109.51 62.95 107.23 64.72 102.7 68.24 95.34 71.27 89.59 71.27 77.44 71.27 68.25 70.85 55.79 62.5 53.42 60.92 52.4 60.43 50.4 58.38 49.47 57.43 48.61 56.07 47.76 55.05 47.31 54.51 44.87 50.41 44.49 49.82 44.35 49.61 44.92 52.62 44.41 52.75 44.41 52.77 47.8 62.02 50.04 64.08Z" fill="#FCD202"/></g><path d="M106.85 47.43C99.54 50.03 91.87 50.52 84.17 50.57 80.26 50.6 76.35 50.55 72.43 50.54 70.39 50.53 68.34 50.52 66.3 50.51 64.76 50.5 63.19 50.41 61.63 50.49 60.95 50.35 60.27 50.21 59.59 50.07 58.5 49.84 57.4 49.66 56.31 49.48 55.76 49.39 55.22 49.28 54.68 49.16 54.58 49.14 53.56 48.92 53.16 48.93 52.62 48.4 51.6 48.36 50.99 48.88 48.22 51.29 53.39 54.33 57.33 56.14 57.78 56.96 72.97 60 78.16 60.15 83.79 60.31 89.41 59.93 94.99 59.2 100.44 58.49 108.48 55.55 112.5 51.35 114.96 48.79 110.57 46.11 106.85 47.43Z" fill="#F6C255" clip-path="url(#SVGID_6_)" opacity="0.47"/></g><g opacity="0.47"><path d="M111.72 54.26C110.39 55.12 108.97 55.68 107.56 56.37 106.2 57.04 104.91 57.83 103.57 58.52 100.83 59.93 97.94 61.02 94.92 61.67 91.62 62.38 88.24 62.38 84.88 62.37 83.02 62.37 81.17 62.31 79.32 62.23 77.16 62.13 74.94 61.79 72.8 62.12 69.07 62.7 69.46 68.03 72.6 69.11 74.6 69.8 77 69.72 79.11 69.8 81.17 69.88 83.23 69.9 85.29 69.86 89.26 69.79 93.28 69.56 97.13 68.55 100.52 67.66 103.82 66.27 106.73 64.31 108.23 63.3 109.63 62.23 110.83 60.87 112.01 59.53 112.82 57.89 113.69 56.35 114.37 55.14 113.05 53.4 111.72 54.26L111.72 54.26Z" fill="#FFFFFF"/></g><g><path d="M109.97 56.06C107.7 57.38 107.41 57.62 105.32 58.7 103.21 59.8 100.32 61.11 98.08 61.92 95.83 62.74 93.74 62.85 91.37 63.24 90.24 63.43 88.45 63.54 87.31 63.6 85.89 63.68 84.44 63.51 83.06 63.84 80.66 64.42 80.74 68 83.06 68.62 85.63 69.31 88.97 68.55 91.53 68.05 94.23 67.53 96.85 66.71 99.38 65.66 101.95 64.59 104.35 63.22 106.55 61.52 108.44 60.06 110.83 58.39 111.37 55.91 111.47 55.47 111.11 55.17 110.69 55.23L109.97 56.06Z" fill="#FFFFFF"/></g><g opacity="0.24"><g><path d="M48.4 53.81C48.85 56.75 51.92 58.85 54.12 60.54 56.73 62.53 59.61 63.73 62.48 65.26 64.11 66.13 66.19 65.37 66.69 63.55 67.22 61.62 65.74 60.14 63.92 59.92 61.3 59.6 58.53 58.14 56.21 56.95 53.87 55.75 51.63 53.61 48.97 53.24 48.6 53.17 48.34 53.43 48.4 53.81L48.4 53.81Z" fill="#F5F1CE"/></g></g><g opacity="0.24"><g><path d="M49.77 54.29C50.11 56.51 52.42 58.09 54.08 59.36 56.05 60.86 58.22 61.76 60.39 62.91 61.62 63.56 63.19 63 63.57 61.62 63.97 60.16 62.85 59.05 61.48 58.88 59.51 58.64 57.42 57.54 55.67 56.64 53.9 55.74 52.21 54.13 50.21 53.84 49.93 53.81 49.73 54 49.77 54.29L49.77 54.29Z" fill="#F5F1CE"/></g></g><g><defs><path d="M118.56 53.74C114.61 62.58 106.53 69.48 97.17 71.98 86.87 74.73 76.73 73.19 66.45 70.37 59.89 68.57 53.73 63.95 51.56 62.29 48.65 60.07 46.21 57.54 45.72 53.91 45.65 53.37 45.68 52.72 46.12 52.4 63.81 52.63 81.46 52.46 99.15 52.69 105.68 52.77 112.1 52.85 118.56 53.74Z" id="SVGID_7_"/></defs><clipPath id="SVGID_8_"><use width="100%" height="100%" xlink:href="#SVGID_7_" overflow="visible"></use></clipPath><g clip-path="url(#SVGID_8_)" opacity="0.47"><path d="M107.8 51.62C106.64 50.22 103.5 50.89 101.97 51.14 99.76 51.51 97.54 51.87 95.32 52.07 92.96 52.28 90.58 52.3 88.21 52.3 86.05 52.3 83.92 52.42 81.82 51.84 77.22 50.57 75.26 57.71 79.85 58.97 82.59 59.72 85.41 59.46 88.2 59.25 91.05 59.03 93.91 58.74 96.73 58.24 99.41 57.76 102.13 57.09 104.59 55.91 105.78 55.35 109.21 53.33 107.8 51.62L107.8 51.62Z" fill="#F6C255"/></g></g></g></g></g></svg>