<svg width="113.71" height="281.34" viewBox="0 0 113.71 281.34" xmlns="http://www.w3.org/2000/svg" xmlns:xlink="http://www.w3.org/1999/xlink" xml:space="preserve" overflow="hidden"><defs></defs><g><g><path d="M51.5 264.44C51.59 263.81 51.66 263.21 51.69 262.61 51.55 261.44 51.37 260.28 51.04 259.16 50.74 258.55 50.43 257.95 50.2 257.31 49.65 256.27 49.04 255.26 48.47 254.28 48.56 252.94 48.63 251.6 48.7 250.26 48.76 249.29 48.79 248.32 48.84 247.34 48.78 247.32 48.73 247.3 48.68 247.27 48.68 247.29 48.67 247.31 48.67 247.34 46.12 248.12 43.73 249.12 41.06 249.56 38.74 249.94 35.77 249.95 33.41 249.17 33.41 249.17 33.41 249.17 33.41 249.17 33.34 249.24 33.28 249.31 33.22 249.38 33.23 249.39 33.24 249.39 33.25 249.39 33.71 253.22 34.32 257.04 34.23 260.9 33.66 263.11 32.97 265.19 31.52 267.14 31.06 267.77 30.59 268.42 30.13 269.08 28.56 270.84 26.22 272.18 24.16 273.12 22.47 273.88 20.32 274.16 19.02 275.61 18.36 276.35 17.1 278.29 17.72 279.34 17.89 279.64 18.13 279.85 18.4 280.03 20.01 280.99 21.83 281.21 23.66 281.34 25.29 281.28 26.92 281.06 28.54 280.86 30.81 280.58 33.69 280.23 35.53 278.72 37.44 277.15 38.7 275.05 39.97 272.96 40.92 271.4 41.82 269.81 43.49 268.95 44.61 270.07 45.05 271.69 45.35 273.2 45.56 274.25 45.65 275.32 45.7 276.38 45.71 276.57 45.64 276.92 45.65 277.2 46.09 277.52 46.55 277.67 47.01 277.72 47.62 277.58 48.22 277.37 48.8 277.13 48.92 276.95 48.99 276.73 49.02 276.5 49.03 276.46 49.02 276.44 49.01 276.43 49.04 276.31 49.08 276.18 49.11 276.06 50.06 272.27 50.91 268.3 51.5 264.44Z" fill="#5C2D15"/><g><path d="M18.16 278.03C18.77 275 21.75 274.49 24.15 273.5 25.83 272.81 27.78 271.71 29.25 270.32 29.2 270.39 29.14 270.47 29.09 270.54 29.17 270.46 29.25 270.39 29.33 270.31 29.51 270.13 29.7 269.95 29.9 269.8 30.99 268.39 32.08 266.97 33 265.45 33.63 264.4 34.02 263.23 34.3 262.01 34.33 261.99 34.36 261.96 34.36 261.94 34.41 261.73 34.45 261.52 34.48 261.3 34.45 261.27 34.44 261.23 34.44 261.18 34.48 260.54 34.57 259.9 34.64 259.26 34.64 259.27 34.63 259.29 34.63 259.3 34.63 257.87 34.46 256.4 34.3 255.05 34.08 253.17 33.78 251.31 33.47 249.45 34.28 249.73 35.18 249.79 36.03 249.92 37.4 250.13 38.71 250.18 40.09 250.01 43.01 249.66 45.96 248.79 48.63 247.56 48.57 247.87 48.52 248.14 48.51 248.29 48.45 249.16 48.41 250.03 48.35 250.89 48.31 251.56 48.24 252.26 48.2 252.95 48.23 253.47 48.2 253.99 48.18 254.52 48.24 254.69 48.3 254.86 48.37 255.03 48.41 254.99 48.44 254.95 48.44 254.91L48.44 254.89C48.92 255.87 49.55 256.81 49.99 257.77 50.56 258.99 50.95 260.21 51.31 261.47 51.36 262.58 51.23 263.7 51.03 264.81 49.58 265.68 47.83 265.72 46.21 266.04 44.96 266.29 43.76 266.73 42.67 267.37 40.44 268.67 39.11 271.3 37.86 273.44 36.75 275.35 35.5 276.86 33.5 277.87 31.9 278.68 30.13 279.17 28.38 279.5 26.55 279.85 24.78 279.72 22.95 279.57 21.4 279.45 19.17 279.41 18.16 278.06 18.16 278.07 18.16 278.05 18.16 278.03Z" fill="#2D1609"/><path d="M27.2 272.84C31.26 270.85 34.48 266.84 35.23 262.34 35.25 262.21 35.45 262.14 35.52 262.27 36.02 263.13 36.69 263.86 37.39 264.56 36.6 262.03 35.51 259.62 35.2 256.96 34.92 254.53 34.58 252.1 34.25 249.67 33.98 249.62 33.72 249.55 33.46 249.46 33.77 251.32 34.08 253.19 34.29 255.06 34.45 256.41 34.62 257.87 34.62 259.31 34.62 259.3 34.63 259.28 34.63 259.27 34.56 259.91 34.48 260.54 34.43 261.19 34.43 261.24 34.44 261.28 34.47 261.31 34.44 261.53 34.4 261.74 34.35 261.95 34.35 261.97 34.32 262 34.29 262.02 34.01 263.23 33.62 264.41 32.99 265.46 32.07 266.97 30.98 268.39 29.89 269.81 29.68 269.96 29.5 270.14 29.32 270.32 29.24 270.4 29.16 270.47 29.08 270.55 29.13 270.48 29.19 270.4 29.24 270.33 27.77 271.73 25.82 272.82 24.14 273.51 23.27 273.87 22.33 274.17 21.45 274.54 23.39 274.02 25.39 273.73 27.2 272.84Z" fill="#2D1609"/><path d="M48.84 276.07C48.77 276.25 48.71 276.43 48.66 276.61 48.63 276.62 48.6 276.63 48.57 276.64 48.51 276.73 48.43 276.81 48.32 276.88 47.97 277.11 47.49 277.28 47.04 277.29 46.56 277.46 46.14 277.36 46.06 276.55 45.95 275.41 45.83 274.29 45.67 273.16 45.54 272.2 45.25 271.3 44.99 270.38 44.69 269.75 44.28 269.18 43.75 268.83 43.89 268.77 44.02 268.71 44.16 268.65 44.17 268.65 44.18 268.66 44.19 268.66 44.19 268.66 44.19 268.66 44.2 268.66 44.37 268.61 44.53 268.55 44.7 268.49 44.69 268.48 44.68 268.47 44.66 268.46 45.16 268.28 45.67 268.14 46.19 268 46.66 267.78 47.12 267.56 47.58 267.33 47.67 267.28 47.78 267.22 47.89 267.16 45.99 267.49 43.91 268.08 42.35 269.2 40.71 270.38 39.72 272.63 38.7 274.3 37.93 275.56 37.07 276.75 36.03 277.8 34.77 279.08 33.2 279.51 31.51 279.9 28.55 280.57 25.32 281.01 22.29 280.91 22.13 280.9 21.87 280.89 21.56 280.87 20.95 280.73 20.29 280.52 19.71 280.25 19.05 280.04 18.48 279.67 18.29 279.06 18.18 278.84 18.11 278.59 18.12 278.32 18.6 279.2 19.74 279.46 20.68 279.65 22.4 280 24.31 280.1 26.06 280.06 29.18 279.98 32.66 278.96 35.25 277.2 37.93 275.38 39.02 271.61 41.06 269.2 42.62 267.35 44.82 266.67 47.12 266.28 48.47 266.05 49.76 265.91 50.95 265.25 50.93 265.37 50.91 265.49 50.88 265.61 50.24 269.06 49.11 272.56 48.84 276.07Z" fill="#A84F21"/></g><path d="M51.5 264.44C51.59 263.81 51.66 263.21 51.69 262.61 51.55 261.44 51.37 260.28 51.04 259.16 50.74 258.55 50.43 257.95 50.2 257.31 49.65 256.27 49.04 255.26 48.47 254.28 48.56 252.94 48.63 251.6 48.7 250.26 48.76 249.29 48.79 248.32 48.84 247.34 48.78 247.32 48.73 247.3 48.68 247.27 48.68 247.29 48.67 247.31 48.67 247.34 46.12 248.12 43.73 249.12 41.06 249.56 38.74 249.94 35.77 249.95 33.41 249.17 33.41 249.17 33.41 249.17 33.41 249.17 33.34 249.24 33.28 249.31 33.22 249.38 33.23 249.39 33.24 249.39 33.25 249.39 33.46 251.18 33.71 252.96 33.9 254.76 37.51 256.2 42.01 255.15 45.31 253.43 45.4 253.39 45.53 253.46 45.53 253.56 45.55 254.41 45.58 255.28 45.44 256.12 45.3 256.95 44.99 257.64 44.61 258.39 43.85 259.91 43.06 261.42 42.22 262.9 43.21 261.94 44.12 260.88 45.13 259.93 45.22 259.84 45.37 259.93 45.38 260.04 45.63 261.65 45.45 263.31 44.24 264.5 43.45 265.29 42.32 265.75 41.37 266.31 40.39 266.89 39.58 267.52 38.96 268.49 37.8 270.29 36.78 272.21 35.41 273.87 34.12 275.43 32.55 276.72 30.63 277.44 28.65 278.18 26.6 278.37 24.5 278.34 23.29 278.32 22.05 278.31 20.85 278.09 20.33 277.99 19.79 277.91 19.39 277.54 18.8 276.98 19.11 276.03 19.43 275.42 19.5 275.29 19.58 275.16 19.66 275.03 19.42 275.2 19.2 275.4 19 275.62 18.62 276.05 18.04 276.88 17.73 277.7 17.8 278.05 17.91 278.39 18.12 278.66 18.68 279.39 19.62 279.65 20.48 279.83 22.6 280.26 24.83 280.26 26.98 280.04 28.87 279.85 30.75 279.44 32.51 278.7 33.43 278.31 34.31 277.87 35.15 277.34 35.87 276.88 36.53 276.33 37.29 275.94 37.4 275.88 37.53 276 37.51 276.11 37.47 276.36 37.41 276.6 37.35 276.85 38.32 275.65 39.12 274.32 39.93 272.99 40.68 271.76 41.39 270.52 42.48 269.63 42.49 269.61 42.51 269.59 42.53 269.57 42.56 269.55 42.59 269.53 42.62 269.51 42.88 269.31 43.15 269.14 43.45 268.98 43.45 268.98 43.46 268.99 43.46 268.99 44.48 268.41 45.55 267.96 46.69 267.66 47.58 267.43 48.16 267.52 48.18 268.53 48.19 269.12 48.06 269.71 48.03 270.29 47.98 271.32 47.89 272.34 47.78 273.36 47.62 274.79 47.44 276.22 47.31 277.66 47.8 277.53 48.29 277.35 48.76 277.16 48.88 276.98 48.95 276.76 48.98 276.53 48.99 276.49 48.98 276.47 48.97 276.46 49 276.34 49.04 276.21 49.07 276.09 50.06 272.27 50.91 268.3 51.5 264.44Z" fill="#87401A" opacity="0.5"/></g><g><path d="M85.71 257.94C85.65 257.31 85.57 256.71 85.46 256.12 85.04 255.02 84.59 253.93 84 252.93 83.57 252.41 83.12 251.9 82.74 251.34 81.96 250.46 81.13 249.63 80.34 248.81 80.1 247.49 79.85 246.17 79.6 244.85 79.42 243.89 79.22 242.94 79.04 241.99 78.98 241.98 78.92 241.97 78.86 241.96 78.86 241.98 78.86 242.01 78.86 242.03 76.58 243.4 74.49 244.95 72.01 246.01 69.85 246.94 66.97 247.66 64.49 247.46 64.49 247.46 64.49 247.46 64.49 247.46 64.44 247.54 64.4 247.62 64.36 247.71 64.37 247.71 64.38 247.71 64.39 247.71 65.75 251.32 67.26 254.88 68.1 258.65 68.08 260.93 67.91 263.12 66.97 265.35 66.67 266.07 66.38 266.81 66.08 267.57 64.98 269.66 63.03 271.52 61.25 272.92 59.79 274.07 57.77 274.84 56.86 276.57 56.39 277.45 55.64 279.63 56.49 280.51 56.73 280.76 57.01 280.91 57.31 281.02 59.1 281.57 60.92 281.34 62.73 281.04 64.3 280.59 65.83 279.99 67.35 279.41 69.49 278.59 72.2 277.56 73.62 275.66 75.1 273.68 75.81 271.34 76.55 269.01 77.1 267.26 77.59 265.51 79.01 264.27 80.36 265.09 81.18 266.56 81.83 267.95 82.29 268.92 82.63 269.93 82.93 270.96 82.98 271.14 83 271.5 83.08 271.77 83.58 271.97 84.07 272.02 84.53 271.95 85.09 271.67 85.62 271.32 86.13 270.95 86.2 270.74 86.21 270.51 86.2 270.29 86.2 270.25 86.18 270.24 86.17 270.22 86.17 270.09 86.18 269.96 86.18 269.83 86.19 265.89 86.07 261.83 85.71 257.94Z" fill="#5C2D15"/><g><path d="M56.61 279.13C56.48 276.04 59.25 274.83 61.34 273.3 62.8 272.22 64.43 270.69 65.52 268.99 65.49 269.08 65.45 269.16 65.41 269.24 65.47 269.15 65.53 269.06 65.59 268.96 65.72 268.74 65.86 268.52 66.03 268.32 66.75 266.69 67.47 265.05 68 263.36 68.36 262.19 68.46 260.95 68.44 259.71 68.47 259.68 68.48 259.65 68.48 259.63 68.48 259.42 68.46 259.2 68.45 258.98 68.41 258.96 68.39 258.92 68.38 258.87 68.27 258.24 68.2 257.6 68.11 256.96 68.11 256.97 68.11 256.99 68.11 257 67.77 255.61 67.25 254.23 66.78 252.95 66.12 251.18 65.38 249.45 64.63 247.71 65.49 247.79 66.37 247.63 67.23 247.55 68.61 247.43 69.9 247.16 71.19 246.67 73.94 245.63 76.59 244.08 78.89 242.25 78.9 242.57 78.92 242.84 78.94 242.99 79.09 243.85 79.26 244.7 79.41 245.55 79.53 246.21 79.63 246.9 79.75 247.59 79.91 248.09 80 248.61 80.11 249.12 80.21 249.28 80.31 249.43 80.42 249.58 80.45 249.54 80.47 249.48 80.46 249.45L80.46 249.43C81.16 250.27 82 251.03 82.66 251.86 83.51 252.91 84.17 254 84.83 255.14 85.15 256.21 85.28 257.32 85.37 258.45 84.17 259.65 82.48 260.1 80.98 260.8 79.83 261.34 78.77 262.05 77.86 262.94 76.01 264.74 75.35 267.61 74.65 269.99 74.03 272.12 73.18 273.88 71.48 275.34 70.12 276.51 68.52 277.41 66.9 278.15 65.2 278.92 63.46 279.23 61.64 279.52 60.11 279.77 57.94 280.27 56.63 279.2 56.62 279.17 56.61 279.15 56.61 279.13Z" fill="#2D1609"/><path d="M64.14 271.92C67.61 269.01 69.77 264.35 69.42 259.8 69.41 259.67 69.58 259.56 69.68 259.66 70.37 260.38 71.2 260.93 72.05 261.43 70.68 259.17 69.04 257.08 68.11 254.57 67.25 252.27 66.34 250 65.44 247.72 65.17 247.73 64.89 247.73 64.62 247.71 65.37 249.44 66.11 251.18 66.77 252.95 67.24 254.23 67.76 255.6 68.1 257 68.1 256.99 68.1 256.97 68.1 256.96 68.19 257.59 68.26 258.23 68.37 258.87 68.38 258.92 68.41 258.96 68.44 258.98 68.46 259.19 68.47 259.41 68.47 259.63 68.47 259.65 68.45 259.69 68.43 259.71 68.45 260.95 68.36 262.19 67.99 263.36 67.46 265.05 66.74 266.69 66.02 268.32 65.85 268.52 65.72 268.73 65.58 268.96 65.52 269.05 65.46 269.15 65.4 269.24 65.43 269.16 65.47 269.07 65.51 268.99 64.42 270.7 62.79 272.23 61.33 273.3 60.57 273.86 59.73 274.37 58.96 274.95 60.73 273.98 62.59 273.22 64.14 271.92Z" fill="#2D1609"/><path d="M85.93 269.87C85.91 270.06 85.89 270.25 85.88 270.44 85.85 270.45 85.83 270.47 85.8 270.48 85.76 270.58 85.7 270.68 85.61 270.78 85.33 271.09 84.9 271.37 84.47 271.49 84.05 271.77 83.61 271.77 83.34 271 82.96 269.92 82.57 268.87 82.14 267.8 81.78 266.9 81.28 266.09 80.81 265.26 80.36 264.72 79.84 264.27 79.24 264.05 79.36 263.96 79.47 263.86 79.59 263.78 79.6 263.78 79.61 263.79 79.62 263.79 79.62 263.79 79.62 263.79 79.63 263.79 79.78 263.7 79.93 263.6 80.07 263.51 80.06 263.5 80.04 263.49 80.03 263.49 80.47 263.2 80.94 262.94 81.4 262.68 81.8 262.35 82.2 262.02 82.59 261.69 82.67 261.62 82.76 261.54 82.86 261.45 81.09 262.23 79.21 263.3 77.98 264.76 76.67 266.3 76.25 268.73 75.66 270.59 75.22 272 74.66 273.36 73.91 274.63 73 276.18 71.58 276.97 70.02 277.75 67.31 279.11 64.28 280.31 61.31 280.94 61.15 280.97 60.9 281.02 60.59 281.07 59.96 281.08 59.27 281.04 58.64 280.91 57.95 280.86 57.31 280.65 56.98 280.09 56.81 279.9 56.69 279.68 56.64 279.41 57.31 280.14 58.49 280.13 59.44 280.09 61.19 280.02 63.08 279.66 64.76 279.2 67.77 278.37 70.9 276.56 73 274.23 75.17 271.82 75.32 267.9 76.72 265.07 77.79 262.9 79.77 261.71 81.91 260.78 83.16 260.23 84.38 259.79 85.38 258.86 85.39 258.98 85.4 259.1 85.4 259.22 85.6 262.73 85.34 266.39 85.93 269.87Z" fill="#A84F21"/></g><path d="M85.71 257.94C85.65 257.31 85.57 256.71 85.46 256.12 85.04 255.02 84.59 253.93 84 252.93 83.57 252.41 83.12 251.9 82.74 251.34 81.96 250.46 81.13 249.63 80.34 248.81 80.1 247.49 79.85 246.17 79.6 244.85 79.42 243.89 79.22 242.94 79.04 241.99 78.98 241.98 78.92 241.97 78.86 241.96 78.86 241.98 78.86 242.01 78.86 242.03 76.58 243.4 74.49 244.95 72.01 246.01 69.85 246.94 66.97 247.66 64.49 247.46 64.49 247.46 64.49 247.46 64.49 247.46 64.44 247.54 64.4 247.62 64.36 247.71 64.37 247.71 64.38 247.71 64.39 247.71 65.03 249.39 65.69 251.07 66.31 252.76 70.16 253.3 74.28 251.2 77.07 248.73 77.14 248.67 77.29 248.71 77.31 248.81 77.53 249.63 77.77 250.47 77.83 251.32 77.89 252.16 77.76 252.9 77.57 253.72 77.19 255.38 76.79 257.04 76.34 258.67 77.08 257.49 77.7 256.25 78.46 255.09 78.53 254.98 78.69 255.04 78.73 255.14 79.36 256.65 79.58 258.29 78.7 259.75 78.12 260.7 77.14 261.42 76.35 262.19 75.53 262.99 74.9 263.79 74.53 264.89 73.83 266.91 73.3 269.02 72.37 270.96 71.49 272.79 70.28 274.41 68.59 275.57 66.85 276.76 64.9 277.44 62.86 277.92 61.68 278.19 60.48 278.48 59.26 278.55 58.73 278.58 58.19 278.63 57.71 278.37 57 277.97 57.07 276.97 57.24 276.31 57.28 276.17 57.32 276.02 57.37 275.87 57.18 276.09 57.01 276.33 56.87 276.6 56.6 277.11 56.24 278.05 56.14 278.93 56.29 279.26 56.48 279.55 56.75 279.77 57.47 280.34 58.44 280.37 59.32 280.33 61.48 280.24 63.65 279.7 65.68 278.97 67.47 278.33 69.2 277.48 70.73 276.34 71.53 275.74 72.28 275.1 72.97 274.38 73.56 273.77 74.07 273.07 74.71 272.51 74.8 272.43 74.96 272.52 74.96 272.63 74.98 272.88 74.98 273.13 74.98 273.38 75.63 271.98 76.09 270.5 76.56 269.02 76.99 267.65 77.39 266.27 78.23 265.14 78.24 265.12 78.25 265.09 78.27 265.07 78.29 265.04 78.32 265.02 78.34 264.99 78.54 264.74 78.76 264.5 79.02 264.28 79.03 264.28 79.03 264.29 79.04 264.29 79.89 263.49 80.82 262.79 81.86 262.23 82.67 261.8 83.25 261.74 83.52 262.71 83.67 263.28 83.69 263.88 83.8 264.46 84 265.47 84.16 266.48 84.29 267.5 84.48 268.93 84.65 270.36 84.86 271.79 85.31 271.54 85.74 271.26 86.15 270.95 86.22 270.74 86.23 270.51 86.22 270.29 86.22 270.25 86.2 270.24 86.19 270.22 86.19 270.09 86.2 269.96 86.2 269.83 86.19 265.89 86.07 261.83 85.71 257.94Z" fill="#87401A" opacity="0.5"/></g><g><path d="M83.79 169.06C80.64 156.07 78 146.55 75.86 139.62 75.01 137.69 74.13 135.77 73.17 133.9 72.11 131.81 66.62 119.37 65.38 117.38 64.16 115.42 65.78 101.04 66.84 95.15 68.29 87.08 68.22 75.44 68.52 67.22 65.75 66.45 60.31 64.69 58.35 64.11 54.65 63 55.34 55.78 55.34 55.78L44.34 60.15C44.34 60.15 44.66 64.1 40.12 64.87 35.58 65.63 30.12 67.03 29.3 69.65 28.48 72.27 28.43 79.51 28.27 82.56 28.12 85.6 25.19 89.99 26.84 97.17 28.49 104.35 31.03 120.51 30.47 122.32 29.91 124.13 26.74 135.27 23.64 150.99 20.53 166.7 4.95 254.17 4.95 254.17 4.95 254.17 23.78 255.06 29.68 258.3 35.57 261.54 50.03 262.37 65.25 260.37 80.47 258.36 82.81 253.99 93.04 253.5 103.27 253.01 113.55 245.19 113.55 245.19 113.55 245.19 88.59 188.9 83.79 169.06Z" fill="#205E9F"/><path d="M49.36 261.6C49.36 261.6 49.36 261.6 49.36 261.6 40.47 261.6 33.28 260.45 29.61 258.43 23.82 255.25 5.14 254.33 4.95 254.32 4.9 254.32 4.86 254.3 4.84 254.26 4.81 254.23 4.8 254.18 4.81 254.14 4.97 253.27 20.42 166.49 23.49 150.95 26.39 136.24 29.47 125.03 30.32 122.27 30.87 120.49 28.29 104.18 26.69 97.2 25.54 92.18 26.62 88.45 27.41 85.73 27.76 84.51 28.07 83.46 28.12 82.55 28.15 81.92 28.18 81.11 28.21 80.19 28.33 76.61 28.5 71.7 29.15 69.6 29.82 67.47 33.5 65.82 40.09 64.71 44.43 63.98 44.2 60.32 44.19 60.16 44.18 60.09 44.22 60.03 44.29 60L55.29 55.63C55.34 55.61 55.4 55.62 55.44 55.65 55.48 55.68 55.51 55.74 55.5 55.79 55.49 55.86 54.86 62.9 58.4 63.95 59.09 64.16 60.2 64.5 61.48 64.91 63.83 65.65 66.76 66.57 68.56 67.07 68.63 67.09 68.68 67.15 68.67 67.23 68.6 69.04 68.56 71.01 68.51 73.09 68.33 80.49 68.13 88.87 66.99 95.17 65.82 101.67 64.39 115.49 65.51 117.3 66.3 118.57 68.78 124.02 70.78 128.39 71.92 130.9 72.91 133.06 73.3 133.82 74.13 135.45 74.96 137.21 75.99 139.55 78.46 147.56 81.13 157.47 83.93 169.02 88.68 188.62 113.43 244.55 113.68 245.12 113.71 245.18 113.69 245.26 113.63 245.31 113.53 245.39 103.19 253.17 93.03 253.65 88.07 253.89 84.95 255.05 81.33 256.4 77.46 257.85 73.07 259.49 65.25 260.52 59.9 261.23 54.39 261.6 49.36 261.6ZM5.14 254.02C7.19 254.12 24.14 255.07 29.76 258.16 33.38 260.15 40.53 261.29 49.36 261.29 49.36 261.29 49.36 261.29 49.36 261.29 54.39 261.29 59.87 260.92 65.24 260.21 73.02 259.18 77.4 257.55 81.25 256.11 84.89 254.75 88.03 253.58 93.04 253.34 102.57 252.89 112.28 245.93 113.36 245.14 112.09 242.28 88.29 188.3 83.64 169.11 80.84 157.57 78.18 147.67 75.71 139.68 74.68 137.36 73.86 135.6 73.03 133.98 72.64 133.21 71.65 131.04 70.51 128.54 68.51 124.17 66.03 118.73 65.26 117.48 64.02 115.47 65.65 100.97 66.7 95.13 67.83 88.85 68.03 80.48 68.21 73.09 68.26 71.05 68.31 69.13 68.37 67.35 66.56 66.85 63.7 65.95 61.4 65.22 60.12 64.82 59.01 64.47 58.32 64.26 54.89 63.24 55.09 57.34 55.18 56.02L44.5 60.25C44.56 61.7 43.75 64.41 40.14 65.02 33.67 66.11 30.07 67.68 29.44 69.69 28.8 71.75 28.63 76.83 28.51 80.2 28.48 81.12 28.45 81.93 28.42 82.56 28.37 83.51 28.06 84.58 27.7 85.82 26.88 88.66 25.85 92.19 26.99 97.13 28.64 104.31 31.19 120.5 30.61 122.36 29.76 125.12 26.68 136.32 23.78 151.01 20.79 166.21 5.92 249.61 5.14 254.02Z" fill="#153E7B"/></g><path d="M13.92 204.1C15.57 197.87 17.33 191.68 18.82 185.42 21.2 175.45 23.07 165.37 25.25 155.36 26.35 150.32 27.48 145.28 28.66 140.26 29.82 135.35 31.17 130.5 31.9 125.5 31.92 125.36 32.13 125.35 32.19 125.46 33.76 128.45 35.2 131.78 37.63 134.2 36.73 131.56 35.58 129.02 34.5 126.46 33.43 123.93 32.55 121.37 31.8 118.73 30.4 113.82 29.32 108.83 28.19 103.86 29.57 111.52 30.9 120.96 30.48 122.32 29.92 124.13 26.75 135.27 23.65 150.99 22.18 158.36 17.97 181.56 13.92 204.1Z" fill="#205E9F" opacity="0.5"/><path d="M83.79 169.06C80.64 156.07 78 146.55 75.86 139.62 75.01 137.69 74.13 135.77 73.17 133.9 72.11 131.81 66.62 119.37 65.38 117.38 64.16 115.42 65.78 101.04 66.84 95.15 68.29 87.08 68.22 75.44 68.52 67.22 65.75 66.45 60.31 64.69 58.35 64.11 54.65 63 55.34 55.78 55.34 55.78L44.34 60.15C44.34 60.15 44.66 64.1 40.12 64.87 35.58 65.63 30.12 67.03 29.3 69.65 28.48 72.27 28.43 79.51 28.27 82.56 28.12 85.6 25.19 89.99 26.84 97.17 26.9 97.45 26.97 97.74 27.04 98.05 27.83 99.49 28.78 100.83 29.97 101.93 32.58 104.34 36 104.95 39.42 104.23 47.62 102.51 54.04 95.75 58.7 89.17 58.79 89.04 58.98 89.09 58.99 89.25 59.2 93.29 58.48 97.33 57.6 101.26 56.68 105.37 55.72 109.48 54.27 113.43 52.88 117.22 51.23 120.9 49.58 124.58 48.55 126.87 47.47 129.21 45.99 131.25 49.77 128.24 53.09 124.63 56.75 121.48 56.85 121.39 57.01 121.45 57.02 121.59 57.16 125.14 56.52 128.68 55.58 132.1 54.39 136.43 52.75 140.62 51.25 144.86 49.68 149.29 48.39 153.81 47.3 158.39 46.13 163.31 45.16 168.28 44.22 173.25 43.28 178.2 42.24 183.14 41.33 188.1 37.83 207.14 36.58 226.73 38.75 246.01 39.82 234.78 39.38 223.39 42 212.35 44.31 202.62 47.09 193.06 50.19 183.55 51.43 179.75 52.45 175.88 53.74 172.09 54.97 168.46 56.38 164.81 58.6 161.67 58.69 161.54 58.88 161.59 58.89 161.75 59.63 173.62 60.54 185.48 61.17 197.36 61.42 202.12 61.61 206.88 61.86 211.64 62.11 216.39 62.34 221.14 62.28 225.9 62.22 230.53 61.9 235.17 61.01 239.72 60.31 243.31 59.27 246.92 57.18 249.97 55.42 252.55 52.94 254.72 49.82 255.39 48.15 255.75 46.34 255.78 44.68 255.37 42.87 254.93 41.26 254.01 39.73 252.97 38.19 251.93 36.68 250.81 34.95 250.08 32.54 249.06 29.92 248.7 27.33 249.04 23.36 249.57 19.46 251.5 15.39 251.1 13.75 250.94 12.01 250.38 10.85 249.15 9.8 248.04 9.33 246.61 9.17 245.11 8.98 243.27 9.07 241.4 9.09 239.55 9.11 236.97 9.19 234.39 9.29 231.81 9.32 231.02 9.36 230.22 9.4 229.43 6.84 243.74 4.98 254.18 4.98 254.18 4.98 254.18 23.81 255.07 29.71 258.31 35.6 261.55 50.06 262.38 65.28 260.38 80.5 258.37 82.84 254 93.07 253.51 103.3 253.02 113.58 245.2 113.58 245.2 113.58 245.2 88.59 188.9 83.79 169.06Z" fill="#205E9F" opacity="0.5"/><path d="M83.79 166.45C80.64 153.76 78 144.46 75.86 137.68 75.01 135.8 74.13 133.92 73.17 132.09 72.11 130.05 66.62 117.9 65.38 115.96 64.16 114.04 65.78 100 66.84 94.24 68.29 86.36 68.22 74.98 68.52 66.96 65.75 66.21 60.31 64.49 58.35 63.92 54.65 62.84 55.34 55.78 55.34 55.78L44.34 60.05C44.34 60.05 44.66 63.91 40.12 64.66 35.58 65.41 30.12 66.77 29.3 69.33 28.48 71.89 28.43 78.97 28.27 81.94 28.13 84.63 25.72 88.4 26.49 94.3 27.39 95.86 28.6 97.25 30.11 98.3 32.98 100.31 36.65 101.07 40.1 100.33 44.32 99.43 48.23 96.9 51.12 93.81 53.86 90.88 56.1 87.44 59.43 85.09 59.5 85.04 59.61 85.08 59.64 85.15 61.02 87.74 61.53 90.65 61.62 93.54 61.75 97.62 61.18 101.67 61.04 105.74 60.97 107.87 61.14 109.97 61.22 112.09 61.31 114.56 61.33 117.03 61.24 119.5 61.08 124.1 60.46 128.56 59.13 132.99 58.7 134.43 58.22 135.86 57.73 137.28 58.3 136.4 58.91 135.54 59.57 134.71 60.87 133.08 62.37 131.5 64.26 130.51 64.35 130.46 64.46 130.5 64.49 130.6 65.94 136.36 67.05 142.2 67.99 148.06 71.05 167.07 72.52 186.55 79.28 204.77 82.52 213.51 85.32 222.46 89.21 230.95 90.61 234.01 92.34 237.55 92.07 240.99 91.88 243.4 90.36 246.79 87.31 246.04 84.59 245.38 83.45 243.09 82.55 240.73 81.41 237.74 80.65 234.63 79.87 231.53 79.13 228.6 78.17 225.73 77.44 222.8 76.59 219.39 75.84 215.93 74.75 212.59 76.1 217.96 77.04 223.42 77.94 228.87 78.33 231.18 78.7 233.5 79.11 235.81 79.4 237.46 79.95 239.11 79.93 240.8 79.88 243.92 77.42 246.23 74.77 247.66 68.52 251.03 61.11 250.9 54.26 252.1 52.09 252.48 49.97 252.95 47.77 253.13 45.82 253.29 43.86 253.32 41.91 253.17 37.76 252.85 33.75 251.86 29.67 251.17 27.04 250.73 24.4 250.35 21.75 250.05 19.24 249.77 16.63 249.38 14.1 249.4 12.19 249.41 10.29 249.62 8.39 249.84 14.11 250.25 25.36 251.34 29.68 253.66 35.57 256.82 50.03 257.64 65.25 255.68 80.47 253.72 82.81 249.44 93.04 248.97 103.27 248.49 113.55 240.85 113.55 240.85 113.55 240.85 88.59 185.83 83.79 166.45Z" fill="#205E9F" opacity="0.5"/><path d="M58.07 139.24C50.65 154.9 45.9 171.79 42.77 188.79 39.49 206.58 37.84 224.73 38.23 242.82 38.23 243.06 38.61 242.77 38.61 242.59 38.32 224.92 39.81 207.29 42.86 189.89 45.9 172.54 50.67 155.24 58.18 139.26 58.22 139.17 58.11 139.16 58.07 139.24Z" fill="#0E0E65"/><path d="M36.28 261.76C36.28 261.75 36.27 261.77 36.27 261.77 36.38 261.89 36.47 262.03 36.48 262.2 36.48 262.21 36.49 262.2 36.49 262.19 36.49 262.03 36.4 261.88 36.28 261.76Z" fill="#F01787"/><g><g><path d="M93.51 145.15C92.54 143.59 91.13 142.32 89.64 141.27 88.31 140.33 86.94 139.78 85.89 138.69 85.91 138.65 85.92 138.6 85.9 138.57 85.48 137.93 85.28 137.46 85.15 136.7 85.12 136.53 84.95 136.14 84.76 136.08 83.6 135.75 82.34 136.43 81.31 136.93 79.9 137.62 78.7 138.49 77.81 139.79 77.21 140.66 77.13 141.84 77.13 142.92 76.71 145.32 76.54 147.79 77.16 150.15 77.48 151.37 78.03 152.53 78.51 153.69 79.24 155.43 79.52 157.17 79.91 159 80.19 160.33 81.36 160.62 82.13 159.49 82.68 158.68 82.84 157.92 82.72 156.94 82.65 156.4 82.41 155.86 82.21 155.36 81.73 154.15 81.13 151.15 83.52 151.38 84.59 152.48 85.43 153.94 86.25 155.1 87 156.15 87.47 157.31 87.75 158.56 87.97 159.53 87.97 160.55 88.29 161.5 88.46 162.02 89.21 164.29 90.24 163.77 90.62 163.57 90.83 163.28 90.95 162.93 90.95 162.95 90.97 162.96 90.98 162.97 91.03 162.69 91.13 162.41 91.25 162.13 91.26 162.01 91.28 161.9 91.29 161.78 91.31 161.77 91.34 161.75 91.36 161.73 91.97 161 92.41 160.25 92.69 159.5 94.27 158.45 94.95 156.71 94.96 154.92 95.04 154.91 95.11 154.84 95.15 154.78 96.79 151.8 95.16 147.8 93.51 145.15Z" fill="#B75D20"/><path d="M95.01 154.55C94.99 154.55 94.96 154.56 94.94 154.58 94.92 154.11 94.85 153.65 94.75 153.19 94.15 150.62 93.03 147.22 91 145.32 91.26 145.76 91.49 146.21 91.7 146.67 92.52 148.01 93.07 149.53 93.64 150.99 94.65 153.56 95.42 157.12 92.84 159.03 93.88 155.53 91.92 151.87 90.22 148.49 90.07 148.29 89.91 148.1 89.75 147.91 90.56 149.92 91.59 151.84 92.29 153.9 93.22 156.6 92.79 159.01 91.31 161.35 91.43 159.62 91.29 157.84 90.66 156.23 89.77 153.98 88.34 152.01 87.19 149.89 86.93 149.56 86.68 149.22 86.45 148.87 87.21 151.07 88.6 153.08 89.68 155.13 90.35 156.4 90.94 157.63 90.95 159.09 90.96 159.94 90.94 160.8 90.94 161.66 90.93 161.67 90.91 161.68 90.9 161.69 90.92 162.57 90.73 163.53 89.8 163.4 89.09 163.3 88.74 162.38 88.63 161.55 88.5 161.15 88.4 160.75 88.32 160.35 88.02 158.94 87.9 157.65 87.32 156.31 86.64 154.77 85.5 153.47 84.54 152.1 84.48 152.01 84.42 151.93 84.36 151.85 84.1 151.6 83.85 151.34 83.64 151.04 83.32 150.88 82.99 150.75 82.65 150.62 82.81 150.74 82.97 150.86 83.12 150.99 82.29 150.96 81.56 151.32 81.43 152.33 81.31 153.3 81.45 154.16 81.73 155.08 82.1 156.3 82.66 157.21 82.31 158.58 82.11 159.36 81.58 159.74 80.71 159.69 80.38 159.3 80.18 158.84 80.11 158.32 79.84 157.21 79.69 156.1 79.35 155 78.93 153.62 78.25 152.31 77.74 150.96 76.59 147.91 76.99 144.55 77.5 141.39 77.66 140.74 77.89 140.12 78.26 139.57 79.08 138.38 80.46 137.64 81.75 137.07 82.61 136.7 84.56 135.74 84.85 137.4 84.84 137.42 84.84 137.43 84.85 137.44 84.86 137.46 84.87 137.48 84.87 137.49 84.87 137.49 84.87 137.5 84.87 137.5 84.92 137.91 85.12 138.23 85.39 138.51 85.94 139.36 86.67 139.96 87.68 140.51 89.14 141.31 90.47 142.29 91.65 143.47 92.94 144.77 93.85 146.34 94.51 148.04 94.9 149.05 95.18 150.1 95.38 151.16 95.44 151.53 95.48 151.9 95.49 152.27 95.54 152.62 95.32 154.55 95.01 154.55Z" fill="#F6BA8D"/><path d="M83.12 151C82.97 150.87 82.81 150.75 82.65 150.63 82.94 150.74 83.23 150.86 83.51 150.99 83.07 150.67 82.56 150.47 81.98 150.42 81.61 150.39 81.24 150.39 80.87 150.43 80.02 150.52 79.95 151.25 80.11 151.92 80.48 153.45 81.06 154.93 81.07 156.52 81.07 157.11 81.26 158.77 80.56 159.1 80.49 159.13 80.43 159.14 80.37 159.15 80.46 159.35 80.58 159.53 80.73 159.71 81.6 159.76 82.13 159.39 82.33 158.6 82.67 157.23 82.12 156.32 81.75 155.1 81.47 154.18 81.32 153.32 81.45 152.35 81.56 151.33 82.29 150.97 83.12 151Z" fill="#FBC7A0" opacity="0.5"/><path d="M86.65 149.39C86.44 149.17 86.26 148.94 86.09 148.68 85.97 149.48 86.46 150.28 86.88 150.94 87.35 151.68 87.76 152.39 88.12 153.19 88.96 155.07 89.7 156.98 89.88 159.05 89.93 159.7 90.31 162.16 89.36 162.54 89.2 162.6 89.06 162.62 88.92 162.6 89.11 163.02 89.4 163.34 89.8 163.39 90.72 163.52 90.92 162.55 90.9 161.68 90.91 161.67 90.92 161.66 90.94 161.65 90.95 160.79 90.96 159.94 90.95 159.08 90.94 157.62 90.35 156.39 89.68 155.12 88.69 153.24 87.44 151.39 86.65 149.39Z" fill="#FBC7A0" opacity="0.5"/><path d="M90.21 148.99C90.8 150.53 91.21 152.16 91.52 153.74 91.63 154.3 91.88 155.63 91.18 155.96 90.92 156.08 90.71 156.04 90.52 155.92 90.56 156.03 90.61 156.13 90.66 156.23 91.3 157.84 91.44 159.61 91.31 161.35 92.79 159.01 93.21 156.6 92.29 153.9 91.72 152.2 90.92 150.61 90.21 148.99Z" fill="#FBC7A0" opacity="0.5"/><path d="M95.51 152.29C95.49 151.92 95.46 151.54 95.4 151.18 95.2 150.12 94.92 149.07 94.53 148.06 93.87 146.36 92.96 144.79 91.67 143.49 91.31 143.13 90.94 142.8 90.56 142.47 90.07 142.65 89.61 143.22 89.5 143.61 89.31 144.27 89.21 144.99 89.44 145.66 89.85 146.85 90.73 147.83 90.98 149.09 91.01 149.24 90.84 149.35 90.72 149.24 90.64 149.17 90.56 149.09 90.49 149.01 92.12 152.23 93.83 155.7 92.85 159.02 95.43 157.11 94.66 153.55 93.65 150.98 93.08 149.52 92.53 148.01 91.71 146.66 91.49 146.2 91.26 145.75 91.01 145.31 93.04 147.21 94.16 150.62 94.76 153.18 94.87 153.64 94.93 154.11 94.95 154.57 94.97 154.56 95 154.54 95.02 154.54 95.32 154.55 95.54 152.62 95.51 152.29Z" fill="#FBC7A0" opacity="0.5"/><path d="M82.73 143.94C84.62 143.11 86.26 141.99 87.65 140.51 86.66 139.97 85.95 139.37 85.4 138.54 85.13 138.27 84.93 137.94 84.88 137.53 84.88 137.53 84.88 137.52 84.88 137.52 84.87 137.5 84.86 137.48 84.86 137.47 84.86 137.46 84.86 137.44 84.86 137.43 84.57 135.77 82.61 136.72 81.76 137.1 80.47 137.66 79.09 138.4 78.27 139.6 77.89 140.14 77.66 140.77 77.51 141.42 77.3 142.7 77.11 144.01 77.04 145.32 78.85 145.76 81.21 144.61 82.73 143.94Z" fill="#FBC7A0" opacity="0.5"/></g></g><g><g><path d="M83.4 102.23C82.04 97.02 81 91.73 79.56 86.54 77.91 80.62 72.74 67.22 64.88 68.21 61.19 71.8 60.04 77.56 59.79 82.51 59.59 86.63 61.44 91 62.66 94.88 64.27 97.08 67.55 106.46 68.43 109.03 68.81 110.14 69.13 111.27 69.47 112.39 70.26 115.84 71.31 119.25 72.18 122.64 72.95 125.63 73.88 128.58 74.5 131.61 75.16 134.84 75.67 138.1 76.21 141.36 76.28 141.46 76.34 141.56 76.39 141.67 76.7 141.78 77 141.89 77.31 142 77.87 142.09 78.45 142.14 79 142.17 80.46 142.26 81.83 142.36 83.3 142.19 83.98 142.11 84.69 141.87 85.41 141.53 86.61 140.76 87.07 140.76 88.2 139.88 88.14 138.47 85.05 108.52 83.4 102.23Z" fill="#205E9F"/><path d="M77.26 142.13C77.26 142.13 77.25 142.13 77.26 142.13 76.95 142.02 76.64 141.91 76.33 141.8 76.29 141.79 76.26 141.76 76.25 141.73 76.2 141.63 76.14 141.53 76.07 141.44 76.06 141.42 76.05 141.4 76.05 141.38L75.82 140C75.37 137.25 74.91 134.41 74.34 131.63 73.93 129.63 73.38 127.64 72.85 125.71 72.58 124.72 72.29 123.69 72.03 122.67 71.69 121.37 71.33 120.03 70.97 118.74 70.4 116.67 69.81 114.54 69.32 112.41L69.18 111.94C68.9 110.99 68.61 110.01 68.29 109.06 67.34 106.3 64.12 97.12 62.54 94.95 62.53 94.94 62.52 94.92 62.52 94.9 62.29 94.15 62.03 93.4 61.76 92.61 60.64 89.28 59.47 85.83 59.64 82.48 59.97 75.92 61.7 71.07 64.78 68.07 64.8 68.05 64.84 68.03 64.87 68.03 65.79 67.91 66.71 67.99 67.61 68.25 75.05 70.43 79.26 84.83 79.72 86.47 80.53 89.37 81.22 92.35 81.89 95.24 82.42 97.52 82.96 99.87 83.56 102.17 85.19 108.42 88.31 138.58 88.36 139.84 88.36 139.89 88.34 139.94 88.3 139.97 87.63 140.49 87.19 140.71 86.71 140.95 86.36 141.13 85.99 141.31 85.49 141.63 84.69 142.01 83.97 142.24 83.31 142.31 81.88 142.48 80.55 142.39 79.14 142.3L78.99 142.29C78.52 142.26 77.9 142.22 77.28 142.12 77.27 142.14 77.26 142.14 77.26 142.13ZM76.49 141.53C76.77 141.63 77.06 141.73 77.34 141.83 77.94 141.93 78.55 141.97 79 142L79.15 142.01C80.55 142.1 81.87 142.18 83.27 142.02 83.89 141.95 84.58 141.73 85.33 141.37 85.83 141.05 86.21 140.86 86.56 140.68 87.02 140.45 87.42 140.25 88.03 139.78 87.89 137.68 84.85 108.4 83.25 102.26 82.65 99.96 82.1 97.6 81.57 95.33 80.9 92.45 80.21 89.47 79.4 86.58 78.95 84.96 74.79 70.71 67.5 68.57 66.66 68.32 65.79 68.25 64.93 68.35 61.93 71.3 60.25 76.06 59.93 82.51 59.77 85.8 60.92 89.22 62.04 92.52 62.31 93.31 62.56 94.05 62.79 94.79 64.41 97.02 67.62 106.19 68.57 108.96 68.9 109.91 69.19 110.9 69.47 111.85L69.61 112.33C70.1 114.46 70.69 116.59 71.26 118.65 71.62 119.94 71.99 121.28 72.32 122.58 72.58 123.6 72.86 124.62 73.14 125.61 73.67 127.54 74.23 129.55 74.64 131.55 75.21 134.33 75.67 137.18 76.12 139.93L76.34 141.27C76.4 141.37 76.45 141.45 76.49 141.53Z" fill="#153E7B"/></g><path d="M67.67 95.27C67.53 97.57 67.53 99.89 67.04 102.16 67.01 102.3 66.83 102.31 66.76 102.2 66.03 101.15 64.41 96.02 64 94.67 63.07 91.58 62.32 88.43 61.79 85.25 61.21 81.77 60.88 78.21 61.1 74.7 60.28 77.25 59.92 79.99 59.79 82.52 59.59 86.64 61.44 91.01 62.66 94.89 64.27 97.09 67.55 106.47 68.43 109.04 68.81 110.15 69.13 111.28 69.47 112.4 69.86 114.08 70.3 115.76 70.76 117.43 69.58 110.05 68.79 102.64 67.67 95.27Z" fill="#205E9F"/><path d="M83.4 102.23C82.04 97.02 81 91.73 79.56 86.54 77.91 80.62 72.74 67.22 64.88 68.21 61.19 71.8 60.04 77.56 59.79 82.51 59.72 84 59.92 85.53 60.26 87.06 61.22 85.94 62.43 85.02 63.67 84.31 65.74 83.13 68.26 82.25 70.68 82.62 73.14 83 74.69 84.72 75.26 87.08 77.48 96.27 77.51 105.76 77.43 115.17 78.37 111.55 78.59 107.78 78.83 104.06 78.84 103.89 79.08 103.84 79.14 104.02 79.46 105.01 79.57 106.1 79.72 107.12 80 109.07 80.23 111.02 80.43 112.98 80.96 118.17 81.35 123.4 81.32 128.61 81.31 130.69 81.26 132.79 80.93 134.85 80.76 135.88 80.56 137.41 79.66 138.1 77.26 139.94 75.34 129.69 75.08 128.54 74.86 127.55 73.06 121.78 72.3 119.97 71.68 118.49 71.01 117.05 70.3 115.63 70.92 117.98 71.6 120.31 72.2 122.64 72.97 125.63 73.9 128.58 74.52 131.61 75.18 134.84 75.69 138.1 76.23 141.36 76.3 141.46 76.36 141.56 76.41 141.67 76.72 141.78 77.02 141.89 77.33 142 77.89 142.09 78.47 142.14 79.02 142.17 80.48 142.26 81.85 142.36 83.32 142.19 84 142.11 84.71 141.87 85.43 141.53 86.63 140.76 87.09 140.76 88.22 139.88 88.14 138.47 85.05 108.52 83.4 102.23Z" fill="#205E9F" opacity="0.5"/></g><g><g><path d="M79.23 76.29C79.01 75.5 78.78 74.72 78.53 73.94 78.18 73.14 77.8 72.36 77.4 71.59 77.32 71.43 77.23 71.28 77.14 71.12 76.99 70.82 76.82 70.54 76.63 70.27 74.95 67.83 72.83 65.51 71.53 62.83 69.49 58.62 70.67 54.06 72.25 49.93 74.26 44.67 76.77 39.52 77.45 33.86 79.12 20.04 72.43 5.1 58.25 1.37 48.39-1.23 36.12 0.23 28.04 6.9 25.94 8.63 23.78 10.93 22.37 13.26 16.92 22.27 13.87 35.44 17.21 46.06 17.39 47.46 18.02 48.83 18.54 50.21 20.03 54.15 21.97 57.82 22.6 62.03 22.77 63.63 22.73 65.26 22.6 66.86 22.45 68.71 21.99 70.67 21.16 72.33 20.4 73.86 19.43 75.17 18.31 76.47 18.28 76.51 18.24 76.59 18.27 76.63 20.93 80.59 22.21 85.23 24.1 89.57 25.86 93.61 28.25 97.82 32.34 99.86 36.18 101.78 41.17 101.15 44.9 99.28 48.36 97.55 51.05 94.86 53.48 91.9 56.77 87.89 59.7 83.5 64.2 80.73 66.82 79.12 69.79 78.17 72.79 77.56 74.43 77.23 75.84 77.29 77.32 78.1 78.11 78.53 78.82 79.14 79.66 79.2 79.74 79.18 79.82 79.17 79.89 79.16 79.96 79.15 80.03 79.13 80.11 79.1 79.81 78.18 79.5 77.24 79.23 76.29Z" fill="#5DB7AD"/><path d="M37.63 101.2C35.64 101.2 33.83 100.8 32.27 100.02 27.97 97.87 25.56 93.35 23.95 89.65 23.37 88.32 22.84 86.94 22.33 85.6 21.17 82.59 19.97 79.47 18.14 76.74 18.06 76.63 18.11 76.48 18.19 76.38 19.48 74.88 20.35 73.61 21.02 72.27 21.99 70.32 22.33 68.25 22.45 66.85 22.6 65.03 22.6 63.46 22.45 62.04 21.99 58.99 20.86 56.28 19.67 53.4 19.24 52.38 18.8 51.32 18.4 50.25 18.3 49.98 18.2 49.72 18.09 49.45 17.66 48.35 17.21 47.21 17.06 46.06 13.58 35.01 17.15 21.57 22.24 13.16 23.54 11.01 25.62 8.68 27.95 6.76 33.23 2.41 40.6 0 48.69 0 52 0 55.23 0.41 58.3 1.22 65.02 2.99 70.43 7.32 73.94 13.76 77.17 19.67 78.47 26.81 77.62 33.88 77.08 38.38 75.37 42.6 73.72 46.69 73.28 47.77 72.83 48.89 72.41 49.99 70.9 53.94 69.63 58.54 71.68 62.77 72.55 64.56 73.8 66.21 75.02 67.81 75.61 68.59 76.22 69.39 76.77 70.19 76.96 70.46 77.13 70.75 77.29 71.05 77.38 71.2 77.46 71.36 77.55 71.52 77.94 72.26 78.32 73.06 78.69 73.88 78.94 74.65 79.16 75.42 79.37 76.17L79.39 76.25C79.58 76.92 79.79 77.6 80 78.26 80.09 78.54 80.17 78.81 80.26 79.09 80.27 79.13 80.27 79.17 80.25 79.21 80.23 79.25 80.2 79.27 80.16 79.28 80.08 79.3 80 79.33 79.93 79.34L79.87 79.35C79.81 79.36 79.75 79.37 79.69 79.38 79.68 79.38 79.66 79.38 79.65 79.38 78.99 79.33 78.42 78.97 77.86 78.62 77.66 78.5 77.46 78.37 77.25 78.25 76.36 77.77 75.48 77.54 74.49 77.54 73.98 77.54 73.44 77.6 72.82 77.73 69.39 78.43 66.59 79.46 64.28 80.88 60.66 83.11 58.01 86.46 55.46 89.69 54.85 90.45 54.23 91.25 53.6 92.01 51.58 94.47 48.77 97.53 44.97 99.43 42.69 100.58 40.08 101.2 37.63 101.2ZM18.41 76.6C20.25 79.35 21.45 82.47 22.61 85.49 23.12 86.82 23.65 88.2 24.23 89.53 25.82 93.18 28.19 97.64 32.4 99.74 33.92 100.5 35.68 100.89 37.62 100.89 40.03 100.89 42.59 100.28 44.81 99.16 48.56 97.28 51.34 94.25 53.34 91.82 53.97 91.06 54.59 90.27 55.19 89.5 57.76 86.24 60.42 82.87 64.09 80.61 66.43 79.17 69.26 78.13 72.73 77.42 73.37 77.29 73.93 77.23 74.46 77.23 75.49 77.23 76.44 77.48 77.37 77.98 77.59 78.1 77.79 78.23 78 78.36 78.54 78.7 79.06 79.02 79.63 79.07 79.69 79.06 79.74 79.05 79.8 79.04L79.85 79.03C79.87 79.03 79.88 79.02 79.9 79.02 79.83 78.8 79.76 78.57 79.69 78.35 79.48 77.69 79.27 77.01 79.08 76.34L79.06 76.26C78.85 75.52 78.63 74.74 78.39 74 78.03 73.19 77.65 72.41 77.27 71.67 77.19 71.51 77.1 71.36 77.02 71.21 76.87 70.92 76.7 70.64 76.52 70.38 75.97 69.59 75.37 68.79 74.78 68.01 73.56 66.4 72.29 64.73 71.41 62.92 69.31 58.59 70.59 53.9 72.12 49.9 72.54 48.79 72.99 47.67 73.43 46.59 75.07 42.52 76.77 38.32 77.31 33.86 79.41 16.49 69.3 4.45 58.22 1.54 55.18 0.74 51.97 0.33 48.69 0.33 40.68 0.33 33.38 2.71 28.14 7.04 25.84 8.94 23.78 11.24 22.5 13.36 17.45 21.71 13.9 35.05 17.35 46.03 17.5 47.17 17.94 48.29 18.37 49.37 18.47 49.64 18.58 49.9 18.68 50.17 19.08 51.23 19.52 52.29 19.94 53.31 21.09 56.07 22.28 58.93 22.74 62.03 22.89 63.47 22.89 65.06 22.74 66.9 22.63 68.32 22.28 70.43 21.28 72.43 20.6 73.79 19.71 75.08 18.41 76.6 18.42 76.59 18.42 76.6 18.41 76.6Z" fill="#205E9F"/></g><path d="M79.23 76.29C79.01 75.5 78.78 74.72 78.53 73.94 78.18 73.14 77.8 72.36 77.4 71.59 77.32 71.43 77.23 71.28 77.14 71.12 76.99 70.82 76.82 70.54 76.63 70.27 74.95 67.83 72.83 65.51 71.53 62.83 69.49 58.62 70.67 54.06 72.25 49.93 74.26 44.67 76.77 39.52 77.45 33.86 79.12 20.04 72.43 5.1 58.25 1.37 55.04 0.52 51.57 0.11 48.07 0.17 49.42 0.53 50.75 0.98 52.05 1.48 54.1 2.27 56.08 3.22 57.85 4.55 60.99 6.91 63.39 10.41 64.87 14.02 66.09 17 66.71 20.12 66.52 23.34 66.46 24.47 66.35 25.61 66.14 26.73 65.97 27.65 65.76 28.72 65.17 29.48 63.42 31.69 61.55 26.94 61.14 25.88 59.47 21.56 56.65 17.75 53.2 14.68 49.96 11.8 46.16 9.81 41.81 9.42 40.32 9.28 38.76 9.27 37.23 9.44 40.85 9.68 44.18 11.14 47.1 13.36 50.42 15.88 53.18 19.3 55.16 22.97 57.25 26.84 58.59 31.17 58.22 35.6 58.21 35.74 58 35.84 57.92 35.68 57.31 34.39 56.66 33.11 55.97 31.86 52.02 24.72 46.26 18.31 38.05 16.3 33.9 15.28 29.24 15.53 25.89 18.48 23.08 20.95 20.38 24.77 20.09 28.66 20.65 27.3 21.35 25.96 22.44 24.96 22.55 24.86 22.77 24.96 22.71 25.12 20.75 29.94 21.08 35.28 19.58 40.22 19.53 40.38 19.32 40.37 19.27 40.22 18.52 38.01 18.29 35.59 18.42 33.21 18.02 35.47 17.83 37.78 17.9 40.07 18.01 43.38 18.8 46.6 19.33 49.86 19.36 50.03 19.14 50.15 19.04 49.98 18.38 48.93 17.81 47.83 17.31 46.7 17.57 47.89 18.09 49.06 18.53 50.23 20.02 54.17 21.96 57.84 22.59 62.05 22.76 63.65 22.72 65.28 22.59 66.88 22.44 68.73 21.98 70.69 21.15 72.35 20.39 73.88 19.42 75.19 18.3 76.49 18.27 76.53 18.23 76.61 18.26 76.65 20.92 80.61 22.2 85.25 24.09 89.59 25.85 93.63 28.24 97.84 32.33 99.88 36.17 101.8 41.16 101.17 44.89 99.3 48.35 97.57 51.04 94.88 53.47 91.92 56.76 87.91 59.69 83.52 64.19 80.75 66.81 79.14 69.78 78.19 72.78 77.58 74.42 77.25 75.83 77.31 77.31 78.12 78.1 78.55 78.81 79.16 79.65 79.22 79.73 79.2 79.81 79.19 79.88 79.18 79.95 79.17 80.02 79.15 80.1 79.12 79.81 78.18 79.5 77.24 79.23 76.29ZM21.69 54.7C21.62 54.57 21.74 54.44 21.87 54.46 24.54 55.01 26.39 57.34 28.15 59.24 29.76 60.97 31.47 62.62 33.56 63.64 34.08 63.78 34.61 63.88 35.16 63.94 39.19 64.33 42.89 62.59 46.35 60.75 49.64 59.01 52.92 57.23 56.02 55.16 59.16 53.06 62.06 50.64 64.76 48 64.89 47.88 65.12 48.04 65.01 48.19 62.92 51.27 60.74 54.29 58.33 57.13 55.54 60.42 52.46 63.47 49.02 66.08 45.57 68.7 41.45 71.17 36.99 71.32 35.04 71.38 33.31 70.74 31.79 69.71 32.82 72.15 33.64 74.7 35.51 76.6 37.41 78.52 40.2 79.11 42.77 78.29 45.52 77.41 47.78 75.51 49.97 73.7 50.13 73.57 50.33 73.77 50.2 73.93 47.68 76.92 45.11 79.84 42.11 82.36 40.02 84.12 37.28 85.94 34.56 84.42 32.11 83.06 30.79 80.32 29.99 77.74 29.46 76.04 29.11 74.3 28.57 72.61 27.97 70.76 27.23 68.99 26.26 67.3 26.17 67.14 26.38 66.98 26.51 67.1 27.75 68.27 28.85 69.56 29.87 70.92 29.06 69.36 28.06 67.87 27.23 66.31 26.04 64.08 25.04 61.75 24.18 59.37 23.37 57.81 22.57 56.23 21.69 54.7ZM68.34 73.74C64.81 73.74 62.29 77.02 60.36 79.58 58.03 82.68 55.71 85.81 53.13 88.7 48.13 94.31 39.53 101.87 31.76 96.57 28.55 94.38 25.64 90.89 24.35 87.21 23.62 85.14 23.3 82.99 22.95 80.84 22.67 79.1 22.37 77.15 23.04 75.47 23.08 75.36 23.22 75.3 23.31 75.4 24.4 76.58 24.54 78.32 24.96 79.8 24.96 79.81 24.97 79.82 24.97 79.84 24.32 75.92 24.55 71.76 24.56 67.81 24.56 67.6 24.85 67.61 24.88 67.81 24.89 67.87 24.9 67.94 24.91 68 24.93 68.02 24.95 68.04 24.96 68.08 25.04 68.64 25.11 69.2 25.19 69.77 25.62 72.22 26.21 74.64 26.72 77.08 26.75 77.22 26.61 77.3 26.5 77.27 27.04 79.43 27.78 81.52 28.87 83.45 30.07 85.57 31.63 87.56 33.82 88.72 35.9 89.82 38.21 90.16 40.54 90.13 40.64 90.13 40.74 90.24 40.7 90.33 39.9 92.27 36.87 92.21 35.16 92.02 32.44 91.71 30.04 90.19 28.37 88.05 27.22 86.58 26.41 85 25.84 83.35 25.91 85.89 26.86 88.56 28.14 90.61 30.13 93.82 33.47 96.11 37.39 95.4 41.85 94.6 45.66 91.39 48.76 88.26 52.13 84.86 55.03 81.03 58.41 77.65 61.06 74.99 64.37 71.72 68.42 73.45 68.57 73.5 68.49 73.74 68.34 73.74Z" fill="#5DB7AD" opacity="0.5"/><g><path d="M26.72 77.16C26.78 77.36 26.85 77.56 26.92 77.75 28.09 81.01 30.01 84.26 33.08 86.05 34.67 86.98 36.43 87.43 38.27 87.11 40.03 86.8 41.68 86.03 43.13 84.99 45.81 83.08 48.19 80.34 49.31 77.2 48.72 77.63 48.15 78.11 47.61 78.6 45.16 80.8 42.82 83.51 39.67 84.71 36.89 85.77 33.79 85.4 31.58 83.33 29.43 81.32 28.22 78.47 27.33 75.72 26.53 73.26 26 70.73 25.36 68.23 25.35 69.31 25.41 70.39 25.52 71.47 25.9 73.34 26.33 75.2 26.73 77.06 26.73 77.1 26.73 77.13 26.72 77.16Z" fill="#5DB7AD" opacity="0.5"/><path d="M79.23 76.29C79.01 75.5 78.78 74.72 78.53 73.94 78.18 73.14 77.8 72.36 77.4 71.59 77.32 71.43 77.23 71.28 77.14 71.12 76.99 70.82 76.82 70.54 76.63 70.27 74.95 67.83 72.83 65.51 71.53 62.83 69.49 58.62 70.67 54.06 72.25 49.93 74.26 44.67 76.77 39.52 77.45 33.86 78.74 23.2 75.04 11.87 66.78 5.54 67.33 6.14 67.85 6.78 68.33 7.46 70.71 10.87 72.04 14.92 72.74 18.99 73.43 22.97 73.75 27.14 73.49 31.17 73.22 35.22 72.32 39.31 70.01 42.71 69.93 42.83 69.69 42.8 69.71 42.63 70.1 38.56 69.86 34.38 68.62 30.47 68.46 34.29 67.42 38.02 65.53 41.36 63.5 44.95 60.72 48.03 57.67 50.78 57.56 50.88 57.34 50.78 57.4 50.62 58.5 47.55 59.23 44.38 59.86 41.19 59.31 42.45 58.58 43.64 57.8 44.75 57.69 44.9 57.48 44.81 57.51 44.63 58.4 39.02 56.05 32.96 52.04 29.03 47.86 24.94 41.75 23.35 36.07 24.76 28 26.77 22.16 34.52 21.93 42.77 21.74 49.7 25.26 58.26 32.32 60.64 38.24 62.64 44.75 60.26 50 57.48 52.81 55.99 55.5 54.27 58.07 52.4 59.35 51.47 60.67 50.54 61.85 49.48 63.37 48.11 64.73 46.46 66.57 45.49 66.67 45.44 66.82 45.5 66.81 45.63 66.67 48.08 65.11 50.04 64.18 52.22 63.66 53.43 63.06 55.13 63.77 56.39 64.26 57.25 65.05 57.91 65.61 58.73 65.68 58.83 65.58 58.97 65.47 58.97 65.33 58.97 65.18 58.98 65.04 58.99 60.91 59.33 57.35 62.25 54.46 64.99 52.1 67.21 50.02 69.74 47.46 71.74 45.19 73.52 42.57 75.21 39.66 75.65 38.22 75.87 36.94 75.6 35.88 74.95 36.95 76.18 38.89 76.95 40.34 76.98 43.16 77.05 45.53 75.41 47.67 73.76 51.88 70.51 55.15 65.82 60.18 63.7 61 63.35 61.93 63.09 62.83 63.13 62.99 63.14 63.76 63.13 63.51 63.56 63.25 64.01 62.71 64.41 62.35 64.78 61.97 65.17 61.58 65.57 61.19 65.96 60.42 66.76 59.65 67.56 58.95 68.43 55.92 72.18 54.22 76.77 51.82 80.91 50.15 83.78 48.48 86.69 46.31 89.23 45.65 90 44.93 90.76 44.15 91.44 45.04 91.06 45.87 90.48 46.59 89.93 47.89 88.94 49.13 87.86 50.28 86.7 51.43 85.46 52.54 84.19 53.64 82.91 54.93 81.31 56.16 79.65 57.38 77.99 59.2 75.52 61.16 72.97 63.8 71.32 66.36 69.71 69.85 68.45 72.39 70.78 73.44 71.74 74.27 73.39 73.08 74.62 72.46 75.25 71.65 75.65 70.88 76.07 69.83 76.65 68.76 77.17 67.68 77.69 65.52 78.72 63.35 79.73 61.51 81.3 59.9 82.67 58.51 84.27 57.29 85.99 55.87 87.98 54.6 90.07 53.31 92.15 53.36 92.09 53.41 92.03 53.47 91.96 56.76 87.95 59.69 83.56 64.19 80.79 66.81 79.18 69.78 78.23 72.78 77.62 74.42 77.29 75.83 77.35 77.31 78.16 78.1 78.59 78.81 79.2 79.65 79.26 79.73 79.24 79.81 79.23 79.88 79.22 79.95 79.21 80.02 79.19 80.1 79.16 79.81 78.18 79.5 77.24 79.23 76.29Z" fill="#5DB7AD" opacity="0.5"/></g><g><g><path d="M68.71 35.73C68.72 35.67 68.62 35.72 68.61 35.76 67.58 43 63.31 49.11 57.7 53.62 55.24 55.6 52.05 57.05 49.17 58.29 46.2 59.58 43.07 61.4 39.77 61.68 39.68 61.69 39.49 61.92 39.64 61.92 40.83 61.95 42.05 61.5 43.19 61.22 44.96 60.79 46.67 60.06 48.31 59.27 51.61 57.67 55.06 56.27 58.02 54.04 63.87 49.62 67.96 43.06 68.71 35.73Z" fill="#205E9F" opacity="0.5"/><path d="M28.51 58.77C24.32 55.55 21.28 52.04 19.66 46.95 17.99 41.69 18.22 35.97 19.66 30.7 19.69 30.59 19.52 30.65 19.5 30.72 17.85 36.02 17.48 41.33 18.92 46.73 20.29 51.85 23.93 56.14 28.4 58.9 28.46 58.92 28.57 58.81 28.51 58.77Z" fill="#205E9F" opacity="0.5"/></g><g><path d="M53.26 53.44C57.21 45.94 56.06 35.99 51.65 28.83 49.51 25.35 46.5 22.48 42.91 20.53 39.3 18.57 34.7 17.16 30.58 18.11 25.25 19.33 23.06 24.47 22.5 29.53 22.96 33.72 22.78 36.61 21.48 39.69 20.07 43.02 19.39 49.97 26.3 56.36 33.97 62.19 34.8 62.22 39.77 61.56 43.93 61.01 49.84 57.41 53.26 53.44Z" fill="#F1BA95"/><path d="M36.64 62.01 36.64 62.01C33.85 62.01 31.91 60.83 26.19 56.49 17.97 48.89 20.69 41.12 21.32 39.63 22.55 36.74 22.82 34 22.33 29.55 22.33 29.54 22.33 29.53 22.33 29.52 22.74 25.81 24.35 19.39 30.53 17.96 31.41 17.76 32.35 17.65 33.33 17.65 36.29 17.65 39.71 18.62 42.97 20.39 46.56 22.34 49.6 25.23 51.77 28.75 56.49 36.42 57.14 46.37 53.39 53.51 53.39 53.52 53.38 53.53 53.37 53.54 49.9 57.57 43.93 61.16 39.77 61.71 38.5 61.89 37.54 62.01 36.64 62.01ZM22.65 29.53C23.14 34.04 22.86 36.81 21.61 39.75 21 41.2 18.34 48.8 26.39 56.25 32.02 60.53 33.94 61.7 36.64 61.7 37.52 61.7 38.48 61.58 39.74 61.41 43.83 60.87 49.71 57.33 53.14 53.36 56.84 46.31 56.19 36.49 51.53 28.92 49.39 25.45 46.39 22.59 42.84 20.67 39.62 18.93 36.25 17.97 33.35 17.97 32.4 17.97 31.48 18.07 30.62 18.27 24.62 19.64 23.05 25.9 22.65 29.53Z" fill="#E19770"/></g><path d="M51.72 52.34C49.52 55.36 46.41 57.54 42.93 58.86 39.22 60.26 35.09 60.81 31.34 59.24 27.67 57.7 24.51 54.82 22.32 51.35 23.21 53.01 24.49 54.71 26.28 56.37 33.95 62.2 34.78 62.23 39.75 61.57 43.93 61.01 49.84 57.42 53.25 53.45 55.13 49.87 55.85 45.74 55.62 41.62 55.15 45.47 54 49.2 51.72 52.34Z" fill="#F1BA95" opacity="0.8"/><path d="M22.02 49.98C21.28 47.86 20.88 45.55 21.12 43.3 21.33 41.39 22.21 39.46 22.21 37.53 22.02 38.25 21.78 38.97 21.47 39.7 20.27 42.51 19.61 47.92 23.6 53.38 22.97 52.29 22.43 51.16 22.02 49.98Z" fill="#F1BA95"/><path d="M50.7 43.58C48.95 44.83 46.68 45.72 44.55 45.77 46.59 46.82 49.15 45.33 50.7 43.58Z" fill="#F1BA95"/><path d="M30.82 46.15C29.9 46 29.19 45.57 28.56 45 28.52 45.91 29.42 46.62 30.05 47.24 30.59 47.77 31.19 48.34 32 48.02 33.1 47.59 34.02 46.6 34.72 45.63 33.41 45.72 32.12 46.36 30.82 46.15Z" fill="#F1BA95" opacity="0.6"/><path d="M24.77 42.65C27.37 43.8 29.39 40.08 29.71 37.97 29.99 36.13 29.32 33.95 27.27 33.44 25.71 33.05 24 34.15 22.64 35.05 22.57 35.81 22.45 36.53 22.28 37.25 22.58 39.26 22.76 41.76 24.77 42.65Z" fill="#F1BA95" opacity="0.6"/><path d="M43.44 33.75C42.3 33.78 41.07 33.86 40.09 34.52 39.82 34.7 39.58 34.9 39.37 35.12 39.36 35.13 39.36 35.13 39.35 35.14 39.34 35.15 39.34 35.16 39.33 35.16 38.15 36.55 37.89 38.56 38.29 40.37 38.53 41.42 38.92 42.63 39.66 43.45 40.43 44.31 42.1 44.67 43.23 44.75 45.55 44.92 48.07 43.71 49.6 41.81 51.1 39.95 51.49 38.4 52.18 36.27 50.3 36.06 48.85 34.78 47.08 34.23 45.91 33.87 44.66 33.72 43.44 33.75Z" fill="#F1BA95" opacity="0.6"/><path d="M46.44 34.51C44.07 33.92 42.04 34.24 40.22 35.6 39.43 36.64 38.98 37.87 39.08 39.28 39.24 41.52 40.3 43.39 42.6 43.88 44.29 44.25 46.01 43.83 47.43 42.9 48.97 41.89 49.74 40.44 50.62 38.87 51.18 37.87 51.81 36.86 52.55 35.98 50.48 36.15 48.44 35.01 46.44 34.51Z" fill="#345A88"/><path d="M28.51 34.82C27.11 32.93 24.12 34.67 22.46 34.98 22.35 35 22.11 35.13 22.17 35.28 22.62 36.43 22.7 37.68 23.03 38.86 23.38 40.08 23.79 41.31 25.2 41.71 28 42.49 29.58 39 29.28 36.8 29.19 36.12 28.92 35.37 28.51 34.82Z" fill="#345A88"/><g><g><path d="M40.54 35.83C40.54 35.83 38.07 39.75 41.23 42.69 43.61 44.8 48.76 43.65 50.05 38.1 46.71 34.67 43.89 33.69 40.54 35.83Z" fill="#FFFFFF"/></g><g><path d="M42.74 39.23C42.67 41.39 43.87 43.19 45.43 43.27 46.99 43.35 48.32 41.67 48.39 39.51 48.46 37.35 47.26 35.55 45.7 35.47 44.14 35.39 42.82 37.08 42.74 39.23Z" fill="#B8C9D3"/><path d="M42.74 39.23C42.67 41.39 43.87 43.19 45.43 43.27 46.99 43.35 48.32 41.67 48.39 39.51 48.46 37.35 47.26 35.55 45.7 35.47 44.14 35.39 42.82 37.08 42.74 39.23Z" fill="#67423D"/><path d="M43.41 39.41C43.35 41.05 44.27 42.43 45.46 42.49 46.65 42.55 47.66 41.27 47.71 39.62 47.77 37.98 46.85 36.6 45.66 36.54 44.48 36.48 43.46 37.76 43.41 39.41Z" fill="#96625C"/><g><path d="M43.78 39.27C43.73 40.57 44.46 41.66 45.4 41.71 46.34 41.76 47.14 40.74 47.18 39.44 47.22 38.15 46.5 37.06 45.56 37 44.62 36.96 43.82 37.97 43.78 39.27Z" fill="#371C18"/></g><g opacity="0.6"><path d="M48.37 38.89C48.39 39.1 48.4 39.3 48.39 39.51 48.32 41.66 46.99 43.35 45.43 43.27 43.87 43.19 42.67 41.39 42.74 39.23 42.75 39.03 42.77 38.84 42.8 38.65 44.46 39.9 46.93 40.3 48.37 38.89Z" fill="#67423D"/></g><path d="M46.02 38.45C46.06 39.12 46.49 39.65 46.97 39.62 47.46 39.6 47.82 39.03 47.78 38.36 47.74 37.69 47.31 37.16 46.83 37.19 46.34 37.22 45.97 37.78 46.02 38.45Z" fill="#FFFFFF"/><path d="M46.48 40.56C46.5 40.88 46.7 41.13 46.93 41.12 47.16 41.11 47.33 40.84 47.31 40.52 47.29 40.2 47.09 39.95 46.86 39.96 46.63 39.97 46.45 40.24 46.48 40.56Z" fill="#FFFFFF"/></g><path d="M40.23 41.35C40.23 41.35 42.82 45.09 47.86 42.15 46.11 44.7 41.27 44.4 40.23 41.35Z" fill="#D8906E"/><g><path d="M49.53 39.49C49.53 39.49 47.61 42.04 44.31 41.73 41.01 41.42 39.83 37.83 39.83 37.83L39.76 37.89C39.47 39.27 39.55 41.12 41.24 42.69 43.4 44.6 47.83 43.82 49.6 39.51L49.53 39.49Z" fill="#DEDEDE"/></g><g><path d="M28.17 35.21C27.16 34.41 25.1 33.55 23.29 36.11 23.06 36.48 23.48 35.84 23.71 38.52 23.97 41.55 25.91 41.82 27.16 41.25 28.32 40.71 29.54 37.75 28.17 35.21Z" fill="#FFFFFF"/></g><g><path d="M24.52 37.75C24.45 39.54 25.32 41.02 26.47 41.08 27.61 41.13 28.6 39.73 28.66 37.95 28.73 36.17 27.86 34.68 26.71 34.62 25.58 34.57 24.59 35.97 24.52 37.75Z" fill="#B8C9D3"/><path d="M24.52 37.75C24.45 39.54 25.32 41.02 26.47 41.08 27.61 41.13 28.6 39.73 28.66 37.95 28.73 36.17 27.86 34.68 26.71 34.62 25.58 34.57 24.59 35.97 24.52 37.75Z" fill="#67423D"/><path d="M25.01 37.9C24.96 39.26 25.62 40.4 26.5 40.44 27.37 40.49 28.12 39.42 28.17 38.05 28.22 36.69 27.56 35.56 26.68 35.51 25.81 35.47 25.06 36.54 25.01 37.9Z" fill="#96625C"/><g><path d="M25.29 37.78C25.25 38.86 25.77 39.76 26.46 39.79 27.15 39.83 27.74 38.98 27.78 37.9 27.82 36.83 27.29 35.93 26.61 35.89 25.91 35.86 25.32 36.7 25.29 37.78Z" fill="#371C18"/></g><g opacity="0.6"><path d="M28.65 37.44C28.66 37.61 28.67 37.78 28.66 37.96 28.6 39.74 27.61 41.14 26.47 41.09 25.33 41.04 24.45 39.55 24.52 37.76 24.53 37.6 24.55 37.43 24.57 37.28 25.78 38.3 27.59 38.61 28.65 37.44Z" fill="#67423D"/></g><path d="M26.93 37.09C26.96 37.65 27.26 38.08 27.62 38.06 27.98 38.04 28.25 37.57 28.22 37.01 28.2 36.46 27.88 36.02 27.53 36.05 27.17 36.07 26.9 36.53 26.93 37.09Z" fill="#FFFFFF"/><path d="M27.26 38.83C27.27 39.09 27.42 39.3 27.59 39.29 27.76 39.28 27.89 39.05 27.87 38.79 27.86 38.53 27.71 38.32 27.54 38.33 27.37 38.34 27.24 38.57 27.26 38.83Z" fill="#FFFFFF"/></g><path d="M23.66 38.88C23.66 38.88 23.7 41.04 25.43 41.55 27.15 42.06 28.09 40.64 28.35 40.03 27.66 41.06 24.65 42.4 23.66 38.88Z" fill="#D8906E"/><g><path d="M28.7 37.56C28.7 37.56 28.28 40.52 26 40.04 23.72 39.56 23.73 36.71 23.73 36.71L23.73 36.71C23.67 37.25 23.65 37.85 23.7 38.52 23.96 41.55 25.9 41.82 27.15 41.25 27.96 40.87 28.8 39.32 28.77 37.55L28.7 37.56Z" fill="#DEDEDE"/></g></g><path d="M51.48 33.43C51.48 33.43 48.65 28.38 43.55 30.37 38.45 32.36 37.99 35.18 37.99 35.18 37.99 35.18 42.86 31.11 47.17 31.91 51.48 32.71 51.48 33.43 51.48 33.43Z" fill="#F1BA95" opacity="0.6"/><path d="M26.07 30.59C25.36 30.32 24.69 30.21 24.09 30.22 23.86 30.33 23.65 30.48 23.44 30.66 23.03 31.1 22.72 31.65 22.5 32.21 22.59 32.2 22.68 32.19 22.79 32.17 26.18 31.52 30.47 34.36 30.47 34.36 30.47 34.36 30.09 32.13 26.07 30.59Z" fill="#F1BA95" opacity="0.6"/><path d="M31.49 48.31C31.37 47.57 30.99 47.18 30.42 46.72 29.78 46.22 29.07 46.17 28.83 45.24 28.65 44.57 29.18 44.04 29.52 43.58 30.62 42.1 31.92 40.11 31.49 38.19 31.48 38.15 31.41 38.2 31.42 38.23 31.64 39.92 30.73 41.41 29.8 42.74 29.41 43.29 28.22 44.5 28.18 45.32 28.16 45.78 28.1 46.02 28.55 46.33 29.62 47.08 30.59 47.21 31.33 48.41 31.37 48.49 31.5 48.37 31.49 48.31Z" fill="#E19770" opacity="0.6"/><g><path d="M44.03 51.72C40.65 52.15 37.42 51.42 34.13 50.98 32.82 50.81 31.46 50.78 30.15 50.98 29.54 51.08 29.04 51.19 28.49 51.39 28.38 51.43 27.85 51.65 27.3 51.84 26.82 52.06 26.35 52.29 25.82 52.24 25.85 52.25 25.87 52.26 25.9 52.27 25.89 52.31 25.9 52.34 25.97 52.36 27.3 52.76 28.41 53.23 29.29 54.07 30.03 54.77 30.32 55.68 30.94 56.43 31.87 57.56 34.07 58.03 35.69 57.93 37.36 57.83 39.06 57.29 40.32 56.54 42.25 55.39 42.51 53.22 44.09 51.9 44.17 51.85 44.22 51.7 44.03 51.72Z" fill="#EFAFAC"/><g><path d="M43.22 52.23C43.09 52.22 42.96 52.2 42.83 52.19 42.35 52.25 41.2 52.18 41.26 52.18 40.43 52.13 39.58 52.04 38.76 51.96 37.36 51.82 35.97 51.65 34.57 51.46 33.4 51.3 32.25 51.13 31.08 51.04 30.66 51.01 30 51.03 29.3 51.04 28.24 51.14 27.14 51.2 26.19 50.83 26.19 50.84 26.2 50.86 26.22 50.87 26.64 51.15 27.28 51.22 27.93 51.21 29.5 51.52 30.67 52.68 31.89 53.26 33.32 53.94 34.79 54.24 36.54 54.28 39.17 54.34 40.77 53.32 42.62 52.64 42.81 52.51 43.01 52.37 43.22 52.23Z" fill="#F2DBA2"/><path d="M34.95 53.97C32.9 53.68 31.52 52.67 30.16 51.87 29.74 51.63 29.34 51.41 28.85 51.21 28.88 51.22 28.81 51.21 28.7 51.19 29.07 51.17 29.42 51.14 29.7 51.14 32.34 51.13 35.18 51.73 37.87 52.01 38.31 52.06 41.33 52.42 42.76 52.35 40.3 53.14 38.77 54.51 34.95 53.97Z" fill="#F2DBA2"/><path d="M38.87 53.08C37.95 53.15 36.97 53.22 36.13 53.38 35.64 53.47 34.96 53.72 34.91 53.97 34.92 53.97 34.93 53.97 34.95 53.98 37.86 54.39 39.44 53.7 41.11 53 40.35 52.99 39.6 53.02 38.87 53.08Z" fill="#F2DBA2"/><path d="M32.25 52.45C33.52 52.71 34.83 52.76 36.09 52.78 38.27 52.82 40.46 52.81 42.26 52.37 40.72 52.36 38.26 52.06 37.87 52.02 35.24 51.74 32.46 51.17 29.87 51.15 30.43 51.68 31.17 52.23 32.25 52.45Z" fill="#F2DBA2"/></g></g><path d="M24.7 25.61C30.39 19.22 41.14 21.55 46.87 26.68 49.89 29.38 52.02 32.97 53.58 36.69 54.79 39.57 55.32 42.52 55.55 45.54 56.11 39.78 54.62 33.68 51.65 28.84 49.51 25.36 46.5 22.49 42.91 20.54 39.3 18.58 34.7 17.17 30.58 18.12 25.25 19.34 23.06 24.48 22.5 29.54 22.52 29.69 22.53 29.83 22.54 29.98 22.89 28.37 23.57 26.89 24.7 25.61Z" fill="#F1BA95" opacity="0.8"/><path d="M51.48 32.84C51.48 32.84 48.65 27.8 43.55 29.78 38.45 31.77 37.99 34.59 37.99 34.59 37.99 34.59 42.86 30.52 47.17 31.32 51.48 32.12 51.48 32.84 51.48 32.84Z" fill="#36221A"/><path d="M26.07 30C25.36 29.73 24.69 29.62 24.09 29.63 23.86 29.74 23.65 29.89 23.44 30.07 23.03 30.51 22.72 31.06 22.5 31.62 22.59 31.61 22.68 31.6 22.79 31.58 26.18 30.93 30.47 33.77 30.47 33.77 30.47 33.77 30.09 31.54 26.07 30Z" fill="#36221A"/></g><path d="M56.12 33.11C54.11 29.62 51.91 26.25 48.84 23.59 45.72 20.87 41.39 19.14 37.46 18.02 33.78 16.98 29.59 17.26 26.33 19.31 23.14 21.32 21.52 24.75 20.27 28.16 20.24 28.24 20.35 28.2 20.37 28.15 22.03 24.15 24.12 20.55 28.28 18.75 31.89 17.2 36.37 18.15 39.87 19.48 43.28 20.78 46.53 22.33 49.25 24.81 51.92 27.24 53.95 30.28 55.96 33.25 56.01 33.34 56.16 33.18 56.12 33.11Z" fill="#205E9F" opacity="0.5"/><path d="M60.85 31.09C60.63 22.77 55.06 14.37 47.72 10.62 47.68 10.6 47.61 10.68 47.65 10.71 54.22 15.03 59.63 22.15 60.3 30.19 60.67 34.65 60.24 39.36 58.5 43.49 57.68 45.43 56.8 47.37 55.83 49.24 54.79 51.24 53.33 52.87 52.04 54.7 51.93 54.85 52.06 54.95 52.18 54.81 55.2 51.63 57.02 47.93 58.78 43.97 60.6 39.85 60.97 35.56 60.85 31.09Z" fill="#205E9F" opacity="0.5"/><g><path d="M44.22 83.02C41.83 85.24 39.23 87.8 35.68 86.83 32.89 86.07 30.88 83.35 29.54 80.97 26.32 75.21 25.82 68.52 23.95 62.31 23.94 62.27 23.87 62.33 23.88 62.36 25.62 69.09 26.11 76.23 29.86 82.28 31.35 84.68 33.62 87 36.56 87.32 39.73 87.66 42.18 85.11 44.26 83.1 44.31 83.05 44.29 82.96 44.22 83.02Z" fill="#205E9F"/><path d="M62.49 61.36C57.5 63.01 53.56 66.53 50.01 70.27 47.98 72.41 45.67 74.45 42.87 75.53 41.45 76.08 39.92 76.22 38.43 75.94 36.88 75.65 35.74 74.86 34.7 73.71 34.68 73.69 34.64 73.74 34.66 73.76 35.54 74.83 36.43 75.59 37.76 76.04 39.03 76.47 40.37 76.45 41.67 76.18 44.17 75.67 46.53 73.94 48.38 72.25 50.46 70.35 52.23 68.15 54.41 66.35 55.6 65.37 56.83 64.45 58.14 63.65 59.51 62.81 61 62.2 62.46 61.53 62.53 61.5 62.62 61.32 62.49 61.36Z" fill="#205E9F"/><path d="M70.67 66.44C66.47 65.95 62.77 69.27 60.17 72.17 57 75.7 54.54 79.8 51.74 83.6 48.9 87.45 45.54 91.27 40.75 92.56 35.88 93.87 30.88 91.75 28.03 87.73 27.93 87.58 27.82 87.44 27.72 87.29 27.7 87.26 27.65 87.31 27.67 87.34 28.86 89.17 30.24 90.7 32.15 91.79 33.95 92.82 36.1 93.28 38.16 93.23 42.58 93.14 46.16 90.45 49.03 87.34 52.28 83.82 54.77 79.65 57.6 75.8 60.32 72.11 63.85 67.71 68.64 66.84 69.27 66.72 69.89 66.69 70.53 66.74 70.65 66.74 70.81 66.46 70.67 66.44Z" fill="#205E9F"/></g></g><g><g><g><path d="M1.91 115.09C2.48 113.81 3.25 112.62 4.25 111.57 4.86 110.94 5.56 110.38 6.31 109.88 6.27 109.94 6.23 110 6.2 110.06 6.51 109.84 6.82 109.63 7.14 109.43 7.21 109.36 7.28 109.29 7.36 109.23 7.6 109.1 7.83 108.96 8.07 108.84 8.35 108.7 8.64 108.58 8.93 108.48 13.66 106.32 19.37 106.19 24.52 105.54 24.55 105.39 24.6 105.24 24.65 105.1 24.33 104.35 24.11 103.54 23.95 102.71 23.99 102.65 24.02 102.58 24 102.53 23.95 102.39 23.9 102.26 23.84 102.13 23.58 100.57 23.47 98.95 23.3 97.48 22.95 94.44 22.68 91.4 22.43 88.35 22.21 85.6 22.11 82.85 22.04 80.1 22.02 79.48 21.86 72.35 21.79 72.37 21.81 72.37 21.83 72.35 21.84 72.34 21.81 72.29 21.79 72.24 21.76 72.19 21.73 72.19 21.7 72.19 21.67 72.18 21.67 72.19 21.66 72.2 21.66 72.2 19.88 73.09 18.21 74.15 16.64 75.41 14.6 77.04 13.3 79.1 12.06 81.37 9.21 86.6 7.47 92.19 5.56 97.8 4.53 100.83 3.54 103.88 2.44 106.89 1.49 109.49 0.48 112.1 0.11 114.85-0.1 116.41-0.01 118.16 0.33 119.81 0.53 118.2 1.08 116.65 1.88 115.23 1.89 115.18 1.9 115.13 1.91 115.09Z" fill="#143A60"/><path d="M0.72 113.59C1.17 110.93 2.31 108.33 3.24 105.81 4.15 103.32 4.95 100.81 5.79 98.3 7.47 93.29 9.01 88.22 11.37 83.48 12.63 80.95 13.91 78.46 15.93 76.45 17.6 74.79 19.59 73.52 21.64 72.38 21.57 78.18 21.64 83.95 22.11 89.74 22.29 92.01 22.5 94.28 22.73 96.54 22.14 94.13 21.36 91.76 20.63 89.37 20.1 87.64 19.64 85.87 18.99 84.18 18.63 83.24 18.25 82.22 17.44 81.58 17.39 81.54 17.29 81.57 17.24 81.61 16.76 82.04 16.9 82.61 16.92 83.24 16.95 84.9 17.04 86.55 17.12 88.21 17.13 88.34 17.27 88.22 17.27 88.14 17.28 86.26 17.24 84.38 17.28 82.51 17.29 81.7 18.11 83.42 18.24 83.7 18.78 84.84 19.11 86.1 19.47 87.31 20.68 91.28 21.85 95.24 22.99 99.22 23.04 99.75 23.1 100.29 23.16 100.83 22.65 99.97 22.04 99.13 21.58 98.3 20.39 96.16 19.24 94 18.1 91.83 18.06 91.76 17.95 91.9 17.98 91.96 18.98 94.04 19.84 96.17 21.03 98.16 21.81 99.47 22.66 100.83 23.35 102.21 23.52 103.26 23.76 104.3 24.13 105.26 22.3 105.42 20.48 105.64 18.65 105.89 17.99 105.98 17.34 106.07 16.69 106.17 16.7 106.12 16.69 106.07 16.64 106.06 15.21 105.56 13.76 105.25 12.27 104.99 10.71 104.71 9.39 105.42 7.88 105.3 7.84 105.3 7.78 105.38 7.84 105.4 8.18 105.51 8.45 105.5 8.8 105.48 9.91 105.41 10.93 105.32 12.04 105.51 13.15 105.7 14.37 106.21 15.54 106.36 14.58 106.52 13.62 106.69 12.66 106.9 11.78 107.09 10.91 107.35 10.05 107.6 8.56 107.66 7.34 107.85 5.94 108.68 5.72 108.81 1.98 111.73 2.45 112.03 2.4 111.99 2.3 112.12 2.35 112.16 2.37 112.18 2.38 112.2 2.4 112.22 2.45 112.27 2.5 112.2 2.52 112.16 3.49 110.2 5.41 109.14 7.44 108.49 7.24 108.65 7.06 108.84 6.89 109.04 5.56 109.84 4.35 110.86 3.28 112.1 2 113.58 0.79 115.92 0.55 118.09 0.41 116.57 0.48 115.02 0.72 113.59Z" fill="#205E9F"/><path d="M21.05 98.18C19.86 96.19 19 94.06 18 91.98 17.97 91.92 18.08 91.78 18.12 91.85 19.27 94.02 20.41 96.18 21.6 98.32 22.06 99.15 22.66 99.99 23.18 100.85 23.12 100.31 23.06 99.77 23.01 99.24 21.87 95.26 20.7 91.3 19.49 87.33 19.12 86.12 18.8 84.87 18.26 83.72 18.13 83.44 17.32 81.71 17.3 82.53 17.27 84.41 17.3 86.29 17.29 88.16 17.29 88.24 17.14 88.36 17.14 88.23 17.06 86.57 16.97 84.92 16.94 83.26 16.93 82.63 16.78 82.06 17.26 81.63 17.3 81.59 17.4 81.55 17.46 81.6 18.26 82.24 18.65 83.27 19.01 84.2 19.66 85.89 20.12 87.66 20.65 89.39 21.38 91.78 22.15 94.14 22.75 96.56 22.52 94.3 22.31 92.03 22.13 89.76 21.66 83.97 21.59 78.2 21.66 72.4 19.61 73.54 17.62 74.81 15.95 76.47 14.25 78.16 13.07 80.19 11.99 82.3 12.79 81.19 13.74 80.18 14.99 79.69 15.12 79.64 15.31 79.7 15.35 79.85 15.59 80.77 15.35 81.71 15.13 82.62 14.83 83.87 14.69 85.11 14.55 86.39 14.19 89.65 13.83 92.85 13.23 96.07 12.92 97.76 12.58 99.46 12.08 101.11 11.85 101.87 11.66 102.64 11.05 103.19 9.65 104.42 7.77 104.74 6.1 105.47 6.85 105.64 7.6 105.83 8.33 106.08 8.56 106.16 8.53 106.52 8.31 106.59 6.05 107.32 4.5 109.17 3.15 111.04 4.14 110.08 5.81 108.78 5.95 108.7 7.34 107.88 8.57 107.68 10.06 107.62 10.93 107.37 11.79 107.11 12.67 106.92 13.63 106.71 14.58 106.54 15.55 106.38 14.38 106.24 13.16 105.72 12.05 105.53 10.94 105.34 9.92 105.42 8.81 105.5 8.46 105.52 8.19 105.54 7.85 105.42 7.8 105.4 7.85 105.32 7.89 105.32 9.4 105.44 10.72 104.74 12.28 105.01 13.77 105.28 15.22 105.59 16.65 106.08 16.7 106.1 16.71 106.14 16.7 106.19 17.35 106.09 18.01 106 18.66 105.91 20.49 105.66 22.31 105.44 24.14 105.28 23.77 104.32 23.53 103.29 23.36 102.23 22.68 100.85 21.83 99.48 21.05 98.18Z" fill="#205E9F" opacity="0.5"/></g></g><g><path d="M2.53 112.16C2.51 112.2 2.45 112.27 2.41 112.22 2.39 112.2 2.38 112.18 2.36 112.16 2.36 112.16 2.36 112.15 2.36 112.15 1.31 113.7 0.28 115.61 0.68 117.43 1.07 115.46 2.16 113.44 3.3 112.11 4.37 110.87 5.58 109.84 6.91 109.05 7.08 108.85 7.26 108.66 7.46 108.5 5.42 109.14 3.5 110.2 2.53 112.16Z" fill="#205E9F" opacity="0.5"/><path d="M30.41 106.17C30.37 105.28 30.11 104.32 29.19 104.31 28.74 104.31 28.31 104.5 27.91 104.78 22.51 105.09 16.92 105.74 11.75 107.43 9.97 108.01 8.29 108.64 6.72 109.6 4.79 110.66 3.24 112.14 2.05 114.04 1.24 115.34 0.33 117.03 0.35 118.64 0.29 118.44 0.25 118.24 0.21 118.03 0.15 118.59 0.22 119.15 0.39 119.69 0.44 119.79 0.5 119.9 0.55 120 1.79 122.16 4.79 121.79 6.82 121.41 9.89 120.84 12.9 119.68 15.81 118.57 19.11 117.31 22.46 116.08 25.68 114.64 25.7 114.63 25.72 114.62 25.74 114.6 26.33 115.39 27.49 115.24 28.45 114.05 29.35 112.93 29.77 111.44 30.06 110.06 30.32 108.8 30.58 107.45 30.41 106.17Z" fill="#143A60"/><path d="M2.59 113.76C2.12 114.54 1.58 115.43 1.38 115.69 1.7 115.02 2.11 114.38 2.59 113.76Z" fill="#205E9F"/><path d="M29.45 111.12C29.15 112.32 28.62 113.49 27.74 114.38 26.28 115.86 25.65 113.68 25.46 112.88 25.45 112.83 25.38 112.89 25.38 112.92 25.34 113.53 25.43 114.01 25.61 114.37 20.51 116.36 15.47 118.56 10.23 120.17 7.7 120.95 4.12 122.16 1.68 120.54 1.24 120.25 0.92 119.87 0.68 119.44 0.53 118.2 0.78 117 1.29 115.88 1.29 115.88 1.29 115.88 1.3 115.88 1.32 115.88 1.34 115.86 1.35 115.84 2 114.68 2.75 113.59 3.6 112.59 4.77 111.36 6.13 110.31 7.33 109.5 7.37 109.47 7.4 109.43 7.41 109.38 9.38 108.26 11.66 107.61 13.84 107.12 18.41 106.1 22.88 105.45 27.53 105.07 27.08 105.47 26.69 105.97 26.42 106.38 26.38 106.44 26.45 106.46 26.49 106.41 27.1 105.68 28.15 104.64 29.16 104.74 29.7 104.79 29.93 105.33 30.04 105.92 30.08 107.67 29.87 109.43 29.45 111.12Z" fill="#205E9F"/><path d="M10.45 108.86C15.33 106.84 20.6 106.14 25.79 105.23 21.76 105.62 17.84 106.23 13.85 107.12 11.67 107.61 9.39 108.26 7.42 109.38 7.4 109.43 7.37 109.48 7.34 109.5 6.14 110.3 4.78 111.35 3.61 112.59 2.76 113.59 2.01 114.68 1.36 115.84 1.35 115.86 1.33 115.88 1.31 115.88 1.31 115.88 1.31 115.88 1.3 115.88 1.22 116.05 1.15 116.23 1.09 116.4 3.13 112.93 6.89 110.33 10.45 108.86Z" fill="#205E9F"/><path d="M29.18 104.74C28.16 104.64 27.11 105.68 26.51 106.41 26.47 106.46 26.4 106.44 26.44 106.38 26.71 105.97 27.1 105.48 27.55 105.07 24.61 105.31 21.75 105.66 18.88 106.14 19.73 106.17 20.57 106.2 21.42 106.22 22.06 106.24 22.66 106.31 23.19 106.69 23.26 106.74 23.29 106.82 23.25 106.9 22.71 107.9 21.92 108.78 21.59 109.86 22.66 108.4 23.79 106.77 25.62 106.36 25.77 106.33 25.88 106.51 25.77 106.62 24.24 108.2 23.5 110.09 23.24 112.24 23.16 112.87 23.04 113.57 22.52 114 21.96 114.45 21.3 114.7 20.62 114.92 18.59 115.58 16.62 116.43 14.6 117.12 12.38 117.87 10.14 118.55 7.85 119.06 6.44 119.37 2.14 120.93 1.87 118.38 1.67 116.49 2.62 114.59 3.75 113.13 4.72 111.88 5.98 110.91 7.01 109.72 5.9 110.49 4.68 111.46 3.62 112.57 2.77 113.57 2.02 114.66 1.37 115.82 1.36 115.84 1.34 115.86 1.32 115.86 1.32 115.86 1.32 115.86 1.31 115.86 0.8 116.98 0.55 118.17 0.7 119.42 0.94 119.85 1.26 120.22 1.7 120.52 4.14 122.15 7.72 120.93 10.25 120.15 15.49 118.55 20.53 116.34 25.63 114.35 25.45 113.99 25.36 113.51 25.4 112.9 25.4 112.87 25.47 112.8 25.48 112.86 25.67 113.66 26.3 115.84 27.76 114.36 28.63 113.48 29.17 112.3 29.47 111.1 29.9 109.41 30.11 107.64 30.09 105.9 29.95 105.34 29.72 104.8 29.18 104.74Z" fill="#205E9F" opacity="0.5"/><g><path d="M44.78 112.46C44.76 111.88 45.23 111.45 45.18 110.86 45.13 110.35 45.14 109.62 44.79 109.18 44.82 109.15 44.84 109.11 44.84 109.07 44.87 108.83 44.87 108.61 44.85 108.39 45.36 107.69 46.01 106.51 45.7 105.62 45.24 104.27 43.97 103.22 42.71 102.48 41.7 101.72 40.22 101.64 39.01 101.46 38.54 101.39 38.06 101.43 37.57 101.53 38.14 101.15 38.71 100.79 39.23 100.32 39.52 100.05 39.87 99.57 39.89 99.15 39.98 97.05 38.12 98.7 37.3 99.12 36.2 99.69 34.96 100.08 33.77 100.41 32.96 100.63 32.26 101.6 31.59 102.1 30.29 103.06 29.34 104.24 28.78 105.7 28.6 105.79 28.42 105.89 28.24 105.97 27.92 107.33 27.55 108.71 27.54 110.09 27.53 111.11 27.66 112.11 27.87 113.1 28.56 112.89 29.26 112.54 29.88 112.34 30.39 112.17 30.84 112.53 31.3 112.73 31.84 112.96 32.41 113.05 32.98 113.12 34.17 113.28 35.38 113.06 36.52 112.77 37.38 112.55 38.16 112.11 39.03 111.94 39.71 111.8 40.37 111.9 41.04 112.03 42.56 112.71 42.44 115.26 44.14 115.98 44.82 116.27 45.1 115.84 45.16 115.19 45.24 114.23 45.03 113.41 44.69 112.61 44.75 112.55 44.78 112.51 44.78 112.46Z" fill="#E19770"/><path d="M43.91 110.94C44.15 111.39 44.38 111.83 44.58 112.26 44.67 111.72 45.01 111.31 44.93 110.66 44.79 109.47 44.22 108.83 43.2 108.22 42.04 107.52 40.49 107.05 39.59 106.03 39.59 106.03 39.59 106.02 39.58 106.01 39.63 106.02 39.68 106.02 39.74 106.03 40.51 106.71 41.63 107 42.52 107.5 43.3 107.93 43.99 108.39 44.62 109.02 44.81 106.1 41.51 105.43 39.5 103.91 39.6 103.91 39.71 103.9 39.81 103.9 40.75 104.49 41.86 104.96 42.8 105.54 42.73 105.3 42.68 105.05 42.64 104.81 42.64 104.81 42.64 104.81 42.64 104.8 42.71 104.84 42.78 104.89 42.85 104.94 42.85 104.94 42.85 104.94 42.85 104.94 42.93 105.13 42.99 105.34 43.04 105.52 43.05 105.55 43.03 105.61 43 105.66 43.9 106.25 44.61 106.97 44.8 108.05 45.23 107.35 45.77 106.22 45.32 105.49 45.01 104.98 44.58 104.5 44.16 104.07 43.7 103.6 43.23 103.18 42.72 102.78 42.71 102.79 42.69 102.79 42.68 102.78 41.62 102.08 39.83 101.73 38.59 101.76 37.99 101.77 37.42 101.9 36.85 102.06 36.84 102.07 36.82 102.08 36.81 102.09 36.67 102.13 36.52 102.17 36.37 102.21 36.31 102.23 36.25 102.24 36.19 102.26 36.19 102.26 36.2 102.25 36.2 102.25 36.13 102.27 36.07 102.3 36 102.32 35.43 102.48 34.87 102.61 34.29 102.71 35.05 102.42 35.86 102.05 36.69 101.78 36.91 101.58 37.14 101.4 37.39 101.25 37.44 101.22 37.5 101.19 37.56 101.15 37.61 101.12 37.65 101.1 37.7 101.07 37.85 100.99 37.99 100.9 38.13 100.81 38.25 100.74 38.37 100.67 38.49 100.59 38.56 100.54 38.63 100.49 38.7 100.44 38.73 100.42 38.75 100.4 38.77 100.38 39.24 100 39.72 99.43 39.51 98.82 39.19 97.87 38.29 98.68 37.71 99.3 36.89 99.77 35.97 100.11 35.08 100.39 34.39 100.61 33.68 100.75 33.15 101.27 32.68 101.72 32.16 102.08 31.64 102.47 30.58 103.27 29.87 104.16 29.29 105.2 29.04 105.54 28.8 105.9 28.58 106.26 28.6 106.2 28.61 106.14 28.63 106.08 28.48 106.15 28.32 106.22 28.16 106.28 27.86 107.54 27.54 108.82 27.53 110.1 27.52 111.06 27.63 111.99 27.82 112.91 28.65 112.58 29.44 112.03 30.3 111.99 30.7 111.97 31.38 112.5 31.79 112.62 32.48 112.82 33.2 112.93 33.92 112.91 35.62 112.85 37.07 112.29 38.67 111.77 39.43 111.53 40.21 111.61 40.97 111.75 41.27 111.84 41.57 111.95 41.85 112.09 42.26 112.53 42.33 113.2 42.72 113.83 42.97 114.23 43.26 114.69 43.61 115.04 43.68 115.15 43.75 115.25 43.83 115.34 44.04 115.58 44.5 115.86 44.75 115.5 44.84 115.37 44.86 115.22 44.86 115.06 44.87 115.05 44.88 115.04 44.9 115.02 44.83 114.43 44.96 113.86 44.72 113.28 44.1 111.76 43.48 110.26 41.8 109.74 40.98 109.48 40.27 109.16 39.63 108.65 39.74 108.66 39.86 108.67 39.97 108.68 41.38 109.37 43.13 109.47 43.91 110.94Z" fill="#F1BA95"/><path d="M44.78 112.46C44.76 111.88 45.23 111.45 45.18 110.86 45.13 110.35 45.14 109.62 44.79 109.18 44.82 109.15 44.84 109.11 44.84 109.07 44.87 108.83 44.87 108.61 44.85 108.39 45.36 107.69 46.01 106.51 45.7 105.62 45.24 104.27 43.97 103.22 42.71 102.48 41.7 101.72 40.22 101.64 39.01 101.46 38.54 101.39 38.06 101.43 37.57 101.53 38.14 101.15 38.71 100.79 39.23 100.32 39.52 100.05 39.87 99.57 39.89 99.15 39.93 98.19 39.57 98.02 39.08 98.15 38.85 99.09 38.43 100.04 37.57 100.56 36.52 101.2 35.04 102.15 34.12 102.96 35.88 102.35 37.88 101.59 39.82 101.83 41.26 102.01 42.68 102.49 42.91 104.09 42.93 104.23 42.78 104.39 42.64 104.37 41.61 104.28 40.58 104.17 39.56 104.05 40.73 104.81 42.08 105.26 42.54 106.77 42.59 106.94 42.46 107.13 42.28 107.13 41.69 107.13 41.13 107 40.59 106.79 41.48 107.33 42.49 107.75 42.97 108.74 43.05 108.91 42.97 109.18 42.74 109.17 42.21 109.13 41.67 108.92 41.14 108.93 41.01 108.93 39.76 108.64 39.64 108.65 40.68 108.94 42.78 109.8 43.15 110.76 43.23 110.97 43.01 111.15 42.82 111.11 41.55 110.87 40.28 110.14 38.98 110.16 37.65 110.19 36.4 110.53 35.09 110.72 33.58 110.94 31.23 111.19 30.3 109.6 29.38 108.02 29.52 105.93 30.22 104.28 30.58 103.43 31.04 102.74 31.57 102.11 30.28 103.06 29.34 104.24 28.78 105.68 28.6 105.77 28.42 105.87 28.24 105.95 27.92 107.31 27.55 108.69 27.54 110.07 27.53 111.09 27.66 112.09 27.87 113.08 28.56 112.87 29.26 112.52 29.88 112.32 30.39 112.15 30.84 112.51 31.3 112.71 31.84 112.94 32.41 113.03 32.98 113.1 34.17 113.26 35.38 113.04 36.52 112.75 37.38 112.53 38.16 112.09 39.03 111.92 39.71 111.78 40.37 111.88 41.04 112.01 42.56 112.69 42.44 115.24 44.14 115.96 44.82 116.25 45.1 115.82 45.16 115.17 45.24 114.21 45.03 113.39 44.69 112.59 44.75 112.55 44.78 112.51 44.78 112.46Z" fill="#E19770" opacity="0.5"/></g></g></g></g></svg>