<svg width="55.31" height="55.32" viewBox="0 0 55.31 55.32" xmlns="http://www.w3.org/2000/svg" xmlns:xlink="http://www.w3.org/1999/xlink" xml:space="preserve" overflow="hidden"><defs></defs><g><g><path d="M55.31 27.66C55.31 42.94 42.93 55.32 27.65 55.32 12.38 55.32 0 42.93 0 27.66 0 12.38 12.38 0 27.66 0 42.93 0 55.31 12.38 55.31 27.66Z" fill="#00C3C5"/><g><path d="M28.26 2.09C35.23 2.09 41.56 4.81 46.27 9.23 41.47 4.13 34.67 0.94 27.11 0.94 12.59 0.94 0.81 12.71 0.81 27.24 0.81 34.79 4 41.6 9.1 46.4 4.68 41.69 1.96 35.36 1.96 28.39 1.96 13.87 13.73 2.09 28.26 2.09Z" fill="#FFFFFF"/></g><g><path d="M53.06 27.04C53.06 20.07 50.34 13.74 45.92 9.03 51.02 13.83 54.21 20.63 54.21 28.19 54.21 42.71 42.44 54.49 27.91 54.49 20.36 54.49 13.55 51.3 8.75 46.2 13.45 50.62 19.79 53.34 26.76 53.34 41.29 53.33 53.06 41.56 53.06 27.04Z" fill="#00A4C5"/></g></g><g><path d="M40.31 33.09C40.31 33.09 40.31 33.19 40.32 33.34 40.32 33.26 40.31 33.18 40.31 33.09Z" fill="#00A4C5"/><path d="M35.55 15.07C33.39 15.07 31.64 17.36 31.64 20.18 31.64 23 33.39 25.29 35.55 25.29 37.71 25.29 39.46 23 39.46 20.18 39.46 17.36 37.71 15.07 35.55 15.07Z" fill="#00A4C5"/><path d="M20.8 25.84C22.96 25.84 24.71 23.55 24.71 20.73 24.71 17.91 22.96 15.62 20.8 15.62 18.64 15.62 16.89 17.91 16.89 20.73 16.89 23.55 18.64 25.84 20.8 25.84Z" fill="#00A4C5"/><path d="M34.28 9.27C37.18 9.63 38.92 12.77 38.92 12.77 38.92 12.77 38.19 8.18 34.12 7.66 30.05 7.14 29.63 13.92 29.63 13.92 29.63 13.92 30.81 8.84 34.28 9.27Z" fill="#00A4C5"/><path d="M21.07 11.58C23.81 11.49 24.73 14.12 24.73 14.12 24.73 14.12 24.31 9.88 21.2 10.38 18.09 10.88 17.33 14.99 17.33 14.99 17.33 14.99 18.68 11.66 21.07 11.58Z" fill="#00A4C5"/><path d="M40.49 33.06C40.49 32.98 40.48 32.89 40.48 32.81 40.49 32.81 40.48 32.9 40.49 33.06Z" fill="#00A4C5"/><path d="M40.49 33.06C40.63 38.52 45.07 37.92 45.07 37.92 41.03 36.69 40.54 33.9 40.49 33.06Z" fill="#00A4C5"/><path d="M41.18 38.44C41.08 38.7 40.96 38.98 40.81 39.28 40.68 39.59 40.51 39.91 40.32 40.24 40.15 40.58 39.93 40.93 39.69 41.29 39.47 41.66 39.19 42.02 38.91 42.4 38.34 43.15 37.63 43.88 36.81 44.57 36.39 44.9 35.93 45.2 35.47 45.52 34.97 45.76 34.48 46.07 33.94 46.3 33.39 46.49 32.85 46.74 32.27 46.88 31.68 46.99 31.1 47.18 30.49 47.24 29.88 47.29 29.28 47.36 28.66 47.39 28.03 47.37 27.39 47.34 26.76 47.32 25.55 47.18 24.28 47.04 23.11 46.67 22.82 46.58 22.51 46.53 22.23 46.41 21.95 46.3 21.67 46.18 21.39 46.06 21.12 45.94 20.83 45.85 20.57 45.7 20.31 45.55 20.06 45.4 19.81 45.25 19.57 45.09 19.29 44.98 19.08 44.79 18.85 44.61 18.63 44.44 18.41 44.27 17.94 43.95 17.58 43.53 17.19 43.17 16.99 42.99 16.82 42.79 16.66 42.58 16.5 42.38 16.33 42.18 16.18 41.98 15.87 41.58 15.63 41.15 15.37 40.76 15.14 40.35 14.95 39.94 14.75 39.56 14.58 39.16 14.42 38.79 14.28 38.43 14.02 37.71 13.83 37.06 13.7 36.52 13.58 35.98 13.5 35.55 13.46 35.26 13.42 34.97 13.41 34.81 13.41 34.81 13.41 34.81 13.41 34.97 13.43 35.27 13.45 35.57 13.49 36.01 13.59 36.55 13.69 37.1 13.84 37.76 14.06 38.51 14.18 38.88 14.33 39.27 14.48 39.68 14.66 40.08 14.86 40.5 15.07 40.93 15.32 41.34 15.56 41.79 15.86 42.21 16.02 42.42 16.18 42.63 16.34 42.85 16.5 43.07 16.67 43.28 16.87 43.48 17.26 43.87 17.62 44.32 18.1 44.67 18.55 45.04 19.01 45.43 19.55 45.71 19.81 45.87 20.07 46.02 20.34 46.18 20.61 46.33 20.9 46.44 21.19 46.56 21.48 46.68 21.77 46.81 22.06 46.93 22.35 47.06 22.66 47.11 22.97 47.21 24.19 47.61 25.46 47.77 26.76 47.93 27.39 47.95 28.03 47.96 28.66 47.98 29.3 47.95 29.95 47.86 30.59 47.81 31.23 47.74 31.83 47.54 32.44 47.42 33.05 47.27 33.61 47 34.18 46.79 34.73 46.54 35.25 46.23 35.76 45.95 36.23 45.6 36.7 45.27 37.12 44.91 37.94 44.16 38.66 43.39 39.21 42.6 39.48 42.2 39.76 41.83 39.96 41.44 40.18 41.06 40.38 40.7 40.54 40.34 40.71 39.99 40.86 39.66 40.98 39.34 41.11 39.03 41.22 38.74 41.3 38.47 41.49 37.95 41.6 37.52 41.68 37.23 41.76 36.94 41.81 36.79 41.81 36.79 41.81 36.79 41.74 36.93 41.64 37.22 41.53 37.52 41.39 37.93 41.18 38.44Z" fill="#00A4C5"/><path d="M45.1 23.73C43.02 23.73 41.33 24.63 41.33 25.75 41.33 26.87 43.02 27.77 45.1 27.77 47.18 27.77 48.87 26.86 48.87 25.75 48.87 24.63 47.18 23.73 45.1 23.73Z" fill="#00A4C5"/><path d="M14.51 26.42C14.51 25.3 12.82 24.4 10.74 24.4 8.66 24.4 6.97 25.31 6.97 26.42 6.97 27.54 8.66 28.44 10.74 28.44 12.82 28.44 14.51 27.54 14.51 26.42Z" fill="#00A4C5"/></g><g><g><path d="M40.31 32.68C40.31 32.77 40.31 32.85 40.32 32.93 40.31 32.78 40.31 32.68 40.31 32.68Z" fill="#00A4C5"/></g><path d="M31.64 19.78C31.64 22.6 33.39 24.89 35.55 24.89 37.71 24.89 39.46 22.6 39.46 19.78 39.46 16.96 37.71 14.67 35.55 14.67 33.39 14.67 31.64 16.96 31.64 19.78Z" fill="#FFFFFF"/><path d="M16.89 20.32C16.89 23.14 18.64 25.43 20.8 25.43 22.96 25.43 24.71 23.14 24.71 20.32 24.71 17.5 22.96 15.21 20.8 15.21 18.64 15.21 16.89 17.5 16.89 20.32Z" fill="#FFFFFF"/><path d="M38.92 12.37C38.92 12.37 38.19 7.78 34.12 7.26 30.05 6.74 29.63 13.52 29.63 13.52 29.63 13.52 30.8 8.43 34.27 8.87 37.18 9.23 38.92 12.37 38.92 12.37Z" fill="#1D1D1B"/><path d="M24.73 13.72C24.73 13.72 24.31 9.48 21.2 9.98 18.09 10.48 17.33 14.6 17.33 14.6 17.33 14.6 18.68 11.26 21.07 11.18 23.81 11.09 24.73 13.72 24.73 13.72Z" fill="#1D1D1B"/><g><path d="M40.49 32.4C40.49 32.49 40.49 32.57 40.5 32.65 40.48 32.5 40.49 32.4 40.49 32.4Z" fill="#7F062B"/><path d="M40.49 32.66C40.54 33.5 41.03 36.29 45.07 37.52 45.07 37.51 40.63 38.12 40.49 32.66Z" fill="#1D1D1B"/><path d="M13.46 34.86C13.5 35.16 13.58 35.58 13.7 36.13 13.83 36.67 14.01 37.31 14.28 38.04 14.42 38.4 14.59 38.77 14.75 39.17 14.95 39.55 15.15 39.96 15.37 40.37 15.63 40.76 15.87 41.19 16.18 41.59 16.34 41.79 16.5 41.99 16.66 42.19 16.82 42.4 16.99 42.6 17.19 42.78 17.58 43.15 17.94 43.57 18.41 43.88 18.63 44.05 18.86 44.23 19.08 44.4 19.3 44.59 19.57 44.7 19.81 44.86 20.06 45.01 20.32 45.16 20.57 45.31 20.83 45.46 21.11 45.55 21.39 45.67 21.67 45.79 21.94 45.91 22.23 46.02 22.51 46.14 22.81 46.19 23.11 46.28 24.27 46.66 25.55 46.8 26.76 46.93 27.4 46.95 28.03 46.98 28.66 47 29.28 46.98 29.89 46.9 30.49 46.85 31.1 46.79 31.68 46.61 32.27 46.49 32.85 46.35 33.39 46.1 33.94 45.91 34.47 45.68 34.96 45.37 35.47 45.13 35.93 44.81 36.39 44.51 36.81 44.18 37.63 43.49 38.34 42.76 38.91 42.01 39.19 41.63 39.47 41.28 39.69 40.9 39.93 40.54 40.14 40.19 40.32 39.85 40.51 39.51 40.67 39.19 40.81 38.89 40.96 38.59 41.08 38.31 41.18 38.05 41.39 37.54 41.54 37.13 41.64 36.85 41.74 36.57 41.81 36.42 41.81 36.42 41.81 36.42 41.75 36.57 41.68 36.86 41.6 37.15 41.49 37.57 41.3 38.1 41.21 38.36 41.11 38.65 40.98 38.97 40.86 39.29 40.71 39.62 40.54 39.97 40.38 40.33 40.18 40.69 39.96 41.07 39.76 41.46 39.48 41.83 39.21 42.23 38.66 43.02 37.95 43.8 37.12 44.54 36.7 44.9 36.23 45.23 35.76 45.57 35.25 45.85 34.73 46.16 34.18 46.41 33.61 46.61 33.04 46.89 32.44 47.04 31.83 47.17 31.22 47.36 30.59 47.44 29.95 47.5 29.3 47.58 28.66 47.61 28.03 47.59 27.39 47.58 26.76 47.56 25.45 47.4 24.19 47.25 22.97 46.84 22.67 46.74 22.35 46.69 22.06 46.56 21.77 46.43 21.48 46.31 21.19 46.19 20.91 46.06 20.61 45.96 20.34 45.8 20.07 45.64 19.81 45.48 19.55 45.33 19.01 45.05 18.55 44.66 18.1 44.29 17.62 43.95 17.26 43.49 16.87 43.1 16.67 42.91 16.5 42.69 16.34 42.47 16.18 42.25 16.02 42.04 15.86 41.83 15.56 41.41 15.33 40.96 15.07 40.55 14.85 40.12 14.66 39.7 14.48 39.3 14.33 38.89 14.18 38.5 14.06 38.13 13.84 37.38 13.68 36.72 13.59 36.17 13.49 35.62 13.45 35.18 13.43 34.89 13.41 34.59 13.41 34.43 13.41 34.43 13.41 34.43 13.42 34.56 13.46 34.86Z" fill="#1D1D1B"/></g><path d="M41.33 25.34C41.33 26.46 43.02 27.36 45.1 27.36 47.18 27.36 48.87 26.45 48.87 25.34 48.87 24.22 47.18 23.32 45.1 23.32 43.02 23.32 41.33 24.23 41.33 25.34Z" fill="#FAD0CC"/><path d="M6.96 26.02C6.96 27.14 8.65 28.04 10.73 28.04 12.81 28.04 14.5 27.13 14.5 26.02 14.5 24.9 12.81 24 10.73 24 8.65 24 6.96 24.9 6.96 26.02Z" fill="#FAD0CC"/><g><path d="M22.88 20.32C22.88 21.57 22.11 22.58 21.15 22.58 20.2 22.58 19.42 21.57 19.42 20.32 19.42 19.07 20.19 18.06 21.15 18.06 22.1 18.07 22.88 19.08 22.88 20.32Z" fill="#3D1A0B"/><path d="M20.87 19.39C20.87 19.72 20.66 19.99 20.41 19.99 20.16 19.99 19.95 19.72 19.95 19.39 19.95 19.06 20.16 18.79 20.41 18.79 20.66 18.78 20.87 19.06 20.87 19.39Z" fill="#FFFFFF"/></g><g><path d="M36.97 19.7C36.97 20.95 36.2 21.96 35.24 21.96 34.29 21.96 33.51 20.95 33.51 19.7 33.51 18.46 34.28 17.44 35.24 17.44 36.2 17.44 36.97 18.45 36.97 19.7Z" fill="#3D1A0B"/><path d="M34.97 18.76C34.97 19.09 34.76 19.36 34.51 19.36 34.26 19.36 34.05 19.09 34.05 18.76 34.05 18.43 34.26 18.16 34.51 18.16 34.76 18.16 34.97 18.43 34.97 18.76Z" fill="#FFFFFF"/></g></g></g></svg>