<svg width="60.07" height="52.02" viewBox="0 0 60.07 52.02" xmlns="http://www.w3.org/2000/svg" xmlns:xlink="http://www.w3.org/1999/xlink" xml:space="preserve" overflow="hidden"><defs></defs><g><g><path d="M15.02 52.02 0 26.01 15.02 0 45.05 0 60.07 26.01 45.05 52.02Z" fill="#FFE400"/><path d="M1.13 25.25 15.34 0.58 44.4 0.58 15.53 1.26Z" fill="#FFFFFF"/><path d="M15.92 51.35 44.5 51.35 59.32 26.06 47.7 5.81 58.45 25.96 43.92 50.77Z" fill="#FFB600"/></g><g><path d="M31.89 22.19C32.3 22.99 32.85 23.81 33.66 24.25 34.53 24.72 35.49 24.7 36.31 24.18 35.76 25.04 35.68 25.83 35.68 25.83 36.89 23.06 40.52 21.42 40.52 21.42 39.55 21.42 38.73 22.12 38.09 22.57 38.98 21.09 39.25 19.17 39.07 17.53 38.89 15.96 38.51 14.01 37.52 12.73 37.23 12.35 36.78 11.97 36.32 11.81 36.21 11.77 36.09 11.74 35.98 11.72 34.64 11.45 33.49 12.26 32.8 13.41 31.59 15.45 30.77 17.91 31.24 20.3 31.39 20.93 31.6 21.61 31.89 22.19Z" fill="#FFB600"/><path d="M31.5 47.74C31.59 47.73 31.67 47.72 31.76 47.71 32.04 47.68 32.32 47.64 32.6 47.6 32.66 47.59 32.72 47.58 32.79 47.57 33.12 47.52 33.45 47.47 33.77 47.41 33.78 47.41 33.78 47.41 33.79 47.41 41.87 45.93 47.51 41.37 49.91 28.73 46.65 30.12 43.45 31.12 40.37 31.81 40.37 31.81 40.37 31.81 40.37 31.81 40.07 31.88 39.77 31.94 39.47 32 39.21 32.05 38.95 32.11 38.69 32.16 38.38 32.22 38.07 32.27 37.77 32.33 37.52 32.37 37.28 32.42 37.03 32.45 36.72 32.5 36.42 32.55 36.11 32.59 35.87 32.62 35.64 32.66 35.4 32.69 35.1 32.73 34.79 32.77 34.49 32.8 34.26 32.83 34.04 32.85 33.82 32.87 33.25 32.93 32.69 32.97 32.14 33.01 31.93 33.02 31.72 33.04 31.51 33.05 31.22 33.07 30.93 33.08 30.64 33.09 30.42 33.1 30.2 33.11 29.98 33.12 29.7 33.13 29.42 33.13 29.14 33.14 28.92 33.14 28.7 33.15 28.48 33.15 28.21 33.15 27.94 33.15 27.68 33.15 27.46 33.15 27.25 33.14 27.03 33.14 26.77 33.14 26.51 33.13 26.26 33.12 26.03 33.11 25.81 33.1 25.59 33.09 25.15 33.07 24.71 33.05 24.28 33.02 24.08 33.01 23.88 32.99 23.68 32.98 23.44 32.96 23.2 32.94 22.97 32.92 22.78 32.9 22.58 32.88 22.4 32.87 22.17 32.85 21.94 32.82 21.71 32.8 21.53 32.78 21.35 32.76 21.17 32.74 20.94 32.71 20.71 32.68 20.49 32.65 20.35 32.63 20.21 32.61 20.06 32.59 19.83 32.56 19.61 32.53 19.39 32.49 19.39 32.49 19.39 32.49 19.39 32.49 13.57 31.59 10 30.13 10 30.13 10.6 41.49 18.3 48.12 28.24 47.98 28.26 47.98 28.28 47.98 28.3 47.98 28.64 47.97 28.99 47.96 29.34 47.94 29.7 47.92 30.06 47.89 30.42 47.86 30.51 47.85 30.59 47.84 30.68 47.84 30.95 47.8 31.22 47.77 31.5 47.74Z" fill="#FFB600"/><path d="M22.57 10.05C23.01 9.2 24.03 8.8 24.92 9.05 25.73 9.28 26.17 10.36 26.68 10.97 26.89 11.22 27.22 10.78 27.21 10.58 27.16 9.04 26.41 7.92 24.75 8.06 23.79 8.14 22.65 9.06 22.51 10.04 22.5 10.09 22.55 10.08 22.57 10.05Z" fill="#FFB600"/><path d="M33.33 11.24C33.84 10.63 34.28 9.55 35.09 9.32 35.98 9.07 37 9.47 37.44 10.32 37.45 10.35 37.51 10.36 37.51 10.32 37.36 9.34 36.23 8.42 35.27 8.34 33.61 8.2 32.85 9.31 32.81 10.86 32.79 11.05 33.12 11.49 33.33 11.24Z" fill="#FFB600"/><path d="M23.67 25.96C23.67 25.96 23.12 24.69 22.33 23.66 23.17 24.07 24.32 24.08 25.1 23.64 27.24 22.42 28.12 19.65 28.09 17.33 28.07 15.75 27.88 13.77 27.01 12.4 26.76 12 26.34 11.57 25.9 11.37 25.79 11.32 25.68 11.28 25.57 11.25 24.26 10.85 23.04 11.55 22.25 12.63 20.84 14.54 19.79 16.91 20.03 19.33 20.09 19.98 20.24 20.67 20.47 21.28 20.63 21.69 20.82 22.1 21.07 22.47 20.46 22.07 19.73 21.36 18.83 21.36 18.82 21.36 22.46 23.2 23.67 25.96Z" fill="#FFB600"/></g><g><g><g><g><path d="M35.99 11.26C34.65 10.99 33.5 11.8 32.81 12.95 31.6 14.99 30.78 17.45 31.25 19.84 31.38 20.48 31.59 21.16 31.88 21.74 32.29 22.54 32.84 23.36 33.65 23.8 34.55 24.29 35.88 24.22 36.71 23.64 38.72 22.22 39.33 19.37 39.07 17.07 38.89 15.5 38.51 13.55 37.52 12.27 37.23 11.89 36.78 11.51 36.32 11.35 36.21 11.31 36.1 11.28 35.99 11.26Z" fill="#FFFFFF"/><path d="M25.57 10.8C24.26 10.4 23.04 11.1 22.25 12.18 20.84 14.09 19.79 16.46 20.03 18.88 20.09 19.53 20.24 20.22 20.47 20.83 20.8 21.67 21.27 22.53 22.03 23.05 22.87 23.62 24.21 23.69 25.09 23.19 27.23 21.97 28.11 19.2 28.08 16.88 28.06 15.3 27.87 13.32 27 11.95 26.75 11.55 26.33 11.12 25.89 10.92 25.79 10.87 25.68 10.83 25.57 10.8Z" fill="#FFFFFF"/></g></g></g><g><path d="M36.63 16.91C36.63 18.11 35.89 19.08 34.97 19.08 34.05 19.08 33.31 18.11 33.31 16.91 33.31 15.71 34.06 14.74 34.97 14.74 35.89 14.73 36.63 15.71 36.63 16.91Z" fill="#3D1A0B"/><path d="M34.7 16C34.7 16.32 34.5 16.58 34.26 16.58 34.01 16.58 33.82 16.32 33.82 16 33.82 15.68 34.02 15.42 34.26 15.42 34.5 15.42 34.7 15.68 34.7 16Z" fill="#FFFFFF"/></g><g><path d="M26.42 16.88C26.37 18.08 25.59 19.02 24.67 18.99 23.75 18.95 23.05 17.95 23.09 16.75 23.14 15.55 23.92 14.61 24.84 14.64 25.77 14.67 26.47 15.68 26.42 16.88Z" fill="#3D1A0B"/><path d="M24.53 15.9C24.52 16.22 24.31 16.47 24.06 16.46 23.82 16.45 23.63 16.18 23.64 15.86 23.65 15.54 23.86 15.29 24.11 15.3 24.35 15.31 24.54 15.58 24.53 15.9Z" fill="#FFFFFF"/></g><g><path d="M10 29.67C10 29.67 28.74 37.33 49.9 28.27 47.07 43.11 39.8 46.81 29.33 47.48 18.87 48.14 10.62 41.44 10 29.67Z" fill="#A2172D"/><g><path d="M28.5 36.53C36.62 35.69 39.38 35.28 40.36 31.35 32.16 33.19 24.79 32.85 19.37 32.02 19.98 33.87 22 37.21 28.5 36.53Z" fill="#FFFFFF"/><path d="M21.5 46.45C23.88 47.29 26.52 47.65 29.33 47.48 32.43 47.28 35.25 46.81 37.76 45.87 28.49 40.58 23.39 44.37 21.5 46.45Z" fill="#ED776F"/></g></g><path d="M24.75 7.62C23.79 7.7 22.65 8.62 22.51 9.6 22.5 9.64 22.56 9.63 22.58 9.6 23.02 8.75 24.04 8.35 24.93 8.6 25.74 8.83 26.18 9.91 26.69 10.52 26.9 10.77 27.23 10.33 27.22 10.13 27.16 8.59 26.41 7.47 24.75 7.62Z"/><path d="M35.26 7.88C36.22 7.96 37.36 8.88 37.5 9.86 37.51 9.9 37.45 9.89 37.43 9.86 36.99 9.01 35.97 8.61 35.08 8.86 34.27 9.09 33.83 10.17 33.32 10.78 33.11 11.03 32.78 10.59 32.79 10.39 32.85 8.85 33.6 7.74 35.26 7.88Z"/><path d="M35.85 25.32C35.85 25.32 37.01 21.35 40.48 21.35 40.48 21.35 37.06 22.55 35.85 25.32Z" fill="#FFB600"/><path d="M23.43 25.32C23.43 25.32 22.27 21.35 18.8 21.35 18.8 21.35 22.22 22.55 23.43 25.32Z" fill="#FFB600"/></g><g><path d="M36.79 27.57C37.54 28.33 39.3 27.81 40.73 26.41 42.15 25.01 42.7 23.25 41.95 22.49 41.2 21.73 39.44 22.25 38.01 23.65 36.58 25.05 36.04 26.8 36.79 27.57Z" fill="#FFB600"/><path d="M17.35 22.65C16.59 23.4 17.11 25.16 18.51 26.59 19.91 28.01 21.67 28.56 22.43 27.81 23.19 27.06 22.67 25.3 21.27 23.87 19.87 22.44 18.11 21.89 17.35 22.65Z" fill="#FFB600"/><path d="M36.79 27.28C37.54 28.04 39.3 27.52 40.73 26.12 42.15 24.72 42.7 22.96 41.95 22.2 41.2 21.44 39.44 21.96 38.01 23.36 36.58 24.76 36.04 26.51 36.79 27.28Z" fill="#FAD0CC"/><path d="M17.35 22.35C16.59 23.1 17.11 24.86 18.51 26.29 19.91 27.71 21.67 28.26 22.43 27.51 23.19 26.76 22.67 25 21.27 23.57 19.87 22.15 18.11 21.6 17.35 22.35Z" fill="#FAD0CC"/></g></g></svg>