<svg width="62.25" height="62.25" viewBox="0 0 62.25 62.25" xmlns="http://www.w3.org/2000/svg" xmlns:xlink="http://www.w3.org/1999/xlink" xml:space="preserve" overflow="hidden"><defs></defs><g><g><path d="M18.23 62.25 0 44.02 0 18.23 18.23 0 44.02 0 62.25 18.23 62.25 44.02 44.02 62.25Z" fill="#FF5A23"/><path d="M43.63 0.48 18.57 0.48 0.32 18.29 0.32 43.78 1.26 18.47 19.08 1.53Z" fill="#FFFFFF"/><path d="M61.61 19.06 61.61 43.61 44.16 61.48 19.19 61.48 43.98 60.56 60.58 43.11Z" fill="#FF5A23"/></g><g><g><path d="M23.53 28.55C25.8 28.55 27.65 26.14 27.65 23.17 27.65 20.2 25.81 17.79 23.53 17.79 21.26 17.79 19.41 20.2 19.41 23.17 19.42 26.14 21.26 28.55 23.53 28.55Z" fill="#FF5A23"/><path d="M42.46 29.12C44.74 29.12 46.58 26.71 46.58 23.74 46.58 20.77 44.74 18.36 42.46 18.36 40.19 18.36 38.34 20.77 38.34 23.74 38.34 26.72 40.19 29.12 42.46 29.12Z" fill="#FF5A23"/><path d="M25.51 11.68C29.16 11.22 30.4 16.58 30.4 16.58 30.4 16.58 29.96 9.44 25.68 9.99 21.4 10.54 20.63 15.37 20.63 15.37 20.63 15.37 22.46 12.07 25.51 11.68Z" fill="#FF5A23"/><path d="M42.46 13.79C44.95 14.15 45.99 17.79 45.99 17.79 45.99 17.79 45.66 13.4 42.46 12.52 39.26 11.64 38.34 16.03 38.34 16.03 38.34 16.03 39.61 13.38 42.46 13.79Z" fill="#FF5A23"/><path d="M18.53 33.45C18.56 33.29 18.57 33.19 18.57 33.19 18.56 33.28 18.54 33.37 18.53 33.45Z" fill="#FF5A23"/><path d="M18.53 33.45C18.36 34.32 17.48 37.16 13.08 37.9 13.08 37.9 17.64 39.13 18.53 33.45Z" fill="#FF5A23"/><path d="M46.02 40.72C45.81 41.27 45.53 41.91 45.16 42.63 44.97 42.99 44.74 43.35 44.51 43.74 44.25 44.11 43.99 44.51 43.7 44.91 43.37 45.28 43.07 45.7 42.69 46.07 42.5 46.25 42.3 46.44 42.1 46.63 41.91 46.83 41.7 47.01 41.47 47.18 41.01 47.51 40.58 47.9 40.05 48.17 39.8 48.32 39.54 48.47 39.28 48.62 39.03 48.79 38.73 48.87 38.45 49 38.17 49.12 37.88 49.24 37.6 49.36 37.31 49.48 37 49.53 36.7 49.62 36.4 49.7 36.09 49.79 35.78 49.87 35.47 49.96 35.15 49.97 34.83 50.02 33.57 50.25 32.22 50.23 30.94 50.2 30.27 50.14 29.61 50.08 28.95 50.01 28.31 49.9 27.69 49.74 27.06 49.61 26.44 49.46 25.85 49.19 25.25 48.99 24.66 48.77 24.13 48.43 23.58 48.16 23.05 47.85 22.59 47.46 22.09 47.14 21.65 46.74 21.21 46.37 20.82 45.97 20.06 45.14 19.41 44.28 18.92 43.42 18.68 42.99 18.44 42.58 18.26 42.16 18.06 41.75 17.88 41.36 17.75 40.98 17.6 40.6 17.47 40.25 17.37 39.91 17.26 39.58 17.17 39.27 17.1 38.98 16.95 38.42 16.85 37.97 16.78 37.66 16.72 37.35 16.67 37.19 16.67 37.19 16.67 37.19 16.71 37.35 16.75 37.66 16.8 37.97 16.85 38.43 16.98 39 17.03 39.29 17.11 39.6 17.2 39.95 17.28 40.3 17.39 40.66 17.52 41.05 17.63 41.45 17.79 41.85 17.97 42.28 18.13 42.72 18.36 43.14 18.6 43.59 19.07 44.49 19.7 45.4 20.46 46.29 20.85 46.72 21.3 47.13 21.74 47.56 22.24 47.92 22.73 48.32 23.27 48.66 23.84 48.95 24.39 49.31 25 49.55 25.62 49.77 26.23 50.05 26.88 50.22 27.54 50.37 28.2 50.54 28.87 50.66 29.53 50.73 30.2 50.8 30.86 50.87 32.25 50.89 33.59 50.89 34.92 50.64 35.25 50.58 35.58 50.56 35.9 50.47 36.22 50.38 36.54 50.29 36.86 50.2 37.17 50.1 37.5 50.04 37.8 49.91 38.1 49.78 38.39 49.65 38.69 49.52 39.29 49.29 39.83 48.96 40.34 48.63 40.88 48.33 41.32 47.91 41.78 47.55 42.02 47.37 42.22 47.17 42.41 46.96 42.61 46.76 42.8 46.56 42.99 46.36 43.36 45.96 43.67 45.52 43.99 45.13 44.27 44.71 44.53 44.3 44.78 43.91 44.99 43.5 45.2 43.11 45.37 42.74 45.71 41.99 45.95 41.32 46.13 40.76 46.3 40.2 46.4 39.75 46.47 39.44 46.53 39.13 46.55 38.97 46.55 38.97 46.55 38.97 46.51 39.13 46.43 39.44 46.36 39.73 46.21 40.17 46.02 40.72Z" fill="#FF5A23"/><path d="M18.09 29.03C18.09 27.85 16.31 26.9 14.12 26.9 11.93 26.9 10.15 27.85 10.15 29.03 10.15 30.21 11.93 31.16 14.12 31.16 16.31 31.16 18.09 30.2 18.09 29.03Z" fill="#FF5A23"/><path d="M50.29 27.61C48.1 27.61 46.32 28.56 46.32 29.74 46.32 30.92 48.1 31.87 50.29 31.87 52.48 31.87 54.26 30.92 54.26 29.74 54.26 28.56 52.49 27.61 50.29 27.61Z" fill="#FF5A23"/></g><g><g><path d="M27.76 22.85C27.76 25.82 25.92 28.23 23.64 28.23 21.37 28.23 19.52 25.82 19.52 22.85 19.52 19.88 21.36 17.47 23.64 17.47 25.91 17.47 27.76 19.88 27.76 22.85Z" fill="#FFFFFF"/><g><path d="M25.07 23.07C25.07 24.38 24.26 25.45 23.25 25.45 22.25 25.45 21.43 24.39 21.43 23.07 21.43 21.76 22.24 20.69 23.25 20.69 24.26 20.7 25.07 21.76 25.07 23.07Z" fill="#3D1A0B"/><path d="M22.96 22.08C22.96 22.43 22.74 22.71 22.48 22.71 22.21 22.71 22 22.43 22 22.08 22 21.73 22.22 21.45 22.48 21.45 22.74 21.45 22.96 21.73 22.96 22.08Z" fill="#FFFFFF"/></g><path d="M46.69 23.42C46.69 26.39 44.85 28.8 42.57 28.8 40.3 28.8 38.45 26.39 38.45 23.42 38.45 20.45 40.29 18.04 42.57 18.04 44.84 18.04 46.69 20.45 46.69 23.42Z" fill="#FFFFFF"/><path d="M20.73 15.05C20.73 15.05 21.5 10.22 25.78 9.67 30.06 9.12 30.5 16.26 30.5 16.26 30.5 16.26 29.26 10.91 25.61 11.36 22.56 11.75 20.73 15.05 20.73 15.05Z" fill="#1D1D1B"/><path d="M38.45 15.71C38.45 15.71 39.37 11.32 42.57 12.2 45.77 13.08 46.1 17.47 46.1 17.47 46.1 17.47 45.06 13.82 42.57 13.47 39.71 13.06 38.45 15.71 38.45 15.71Z" fill="#1D1D1B"/><g><path d="M18.67 32.87C18.66 32.96 18.64 33.05 18.63 33.13 18.66 32.97 18.67 32.87 18.67 32.87Z" fill="#7F062B"/><path d="M18.63 33.14C18.46 34.01 17.58 36.85 13.18 37.59 13.19 37.58 17.75 38.82 18.63 33.14Z" fill="#1D1D1B"/><path d="M46.55 39.11C46.47 39.41 46.32 39.85 46.13 40.4 45.92 40.95 45.64 41.59 45.27 42.31 45.08 42.67 44.85 43.03 44.62 43.42 44.36 43.79 44.1 44.19 43.81 44.59 43.48 44.96 43.18 45.38 42.8 45.75 42.61 45.93 42.41 46.12 42.22 46.31 42.03 46.51 41.82 46.69 41.59 46.85 41.13 47.18 40.7 47.57 40.17 47.84 39.91 47.99 39.66 48.14 39.4 48.29 39.15 48.46 38.85 48.54 38.57 48.67 38.29 48.79 38 48.91 37.72 49.03 37.43 49.15 37.12 49.2 36.82 49.29 36.51 49.37 36.21 49.46 35.9 49.54 35.59 49.63 35.27 49.64 34.95 49.69 33.68 49.92 32.34 49.9 31.05 49.87 30.38 49.81 29.72 49.75 29.06 49.68 28.42 49.57 27.79 49.41 27.17 49.28 26.55 49.13 25.96 48.86 25.36 48.66 24.77 48.44 24.24 48.1 23.69 47.83 23.16 47.52 22.7 47.13 22.2 46.81 21.76 46.41 21.32 46.04 20.93 45.64 20.17 44.81 19.52 43.95 19.03 43.09 18.79 42.66 18.55 42.25 18.37 41.83 18.17 41.42 17.99 41.03 17.86 40.65 17.71 40.27 17.58 39.92 17.48 39.58 17.37 39.25 17.28 38.94 17.21 38.65 17.06 38.09 16.96 37.64 16.89 37.33 16.83 37.02 16.78 36.86 16.78 36.86 16.78 36.86 16.82 37.02 16.86 37.33 16.91 37.64 16.96 38.1 17.09 38.67 17.14 38.96 17.22 39.27 17.31 39.62 17.39 39.97 17.5 40.33 17.63 40.72 17.74 41.11 17.9 41.52 18.08 41.95 18.24 42.39 18.47 42.81 18.71 43.26 19.18 44.16 19.82 45.07 20.57 45.96 20.96 46.39 21.41 46.8 21.85 47.23 22.35 47.59 22.84 47.99 23.38 48.33 23.95 48.62 24.5 48.98 25.11 49.22 25.73 49.44 26.34 49.72 26.99 49.89 27.65 50.04 28.31 50.21 28.98 50.33 29.64 50.4 30.31 50.47 30.97 50.54 32.36 50.56 33.7 50.56 35.03 50.31 35.36 50.25 35.69 50.23 36.01 50.14 36.33 50.05 36.65 49.96 36.97 49.87 37.28 49.77 37.61 49.71 37.91 49.58 38.21 49.45 38.5 49.32 38.8 49.19 39.4 48.96 39.93 48.63 40.45 48.3 40.99 48 41.43 47.58 41.89 47.22 42.13 47.04 42.33 46.84 42.53 46.64 42.73 46.44 42.92 46.24 43.11 46.04 43.48 45.64 43.79 45.2 44.11 44.81 44.39 44.39 44.65 43.98 44.9 43.59 45.11 43.18 45.32 42.79 45.49 42.42 45.83 41.67 46.07 41 46.25 40.44 46.43 39.88 46.53 39.43 46.59 39.12 46.65 38.81 46.67 38.65 46.67 38.65 46.67 38.65 46.63 38.81 46.55 39.11Z" fill="#1D1D1B"/></g><g><path d="M43.96 23.42C43.96 24.73 43.15 25.8 42.14 25.8 41.14 25.8 40.32 24.74 40.32 23.42 40.32 22.11 41.13 21.04 42.14 21.04 43.14 21.05 43.96 22.11 43.96 23.42Z" fill="#3D1A0B"/><path d="M41.84 22.44C41.84 22.79 41.62 23.07 41.35 23.07 41.08 23.07 40.87 22.79 40.87 22.44 40.87 22.09 41.09 21.81 41.35 21.81 41.63 21.8 41.84 22.09 41.84 22.44Z" fill="#FFFFFF"/></g></g><path d="M18.2 28.71C18.2 29.89 16.42 30.84 14.23 30.84 12.04 30.84 10.26 29.89 10.26 28.71 10.26 27.53 12.04 26.58 14.23 26.58 16.42 26.58 18.2 27.53 18.2 28.71Z" fill="#FAD0CC"/><path d="M54.37 29.42C54.37 30.6 52.59 31.55 50.4 31.55 48.21 31.55 46.43 30.6 46.43 29.42 46.43 28.24 48.21 27.29 50.4 27.29 52.59 27.29 54.37 28.24 54.37 29.42Z" fill="#FAD0CC"/></g></g></g></svg>