<svg width="55.74" height="156.64" viewBox="0 0 55.74 156.64" xmlns="http://www.w3.org/2000/svg" xmlns:xlink="http://www.w3.org/1999/xlink" xml:space="preserve" overflow="hidden"><defs></defs><g><g><g><path d="M50.33 92.73C50.34 92.73 50.34 92.75 50.33 92.74 50.33 92.74 50.32 92.73 50.33 92.73Z" fill="#8FCAC4"/><g><path d="M46.88 94.47C46.77 94.89 46.49 95.23 46.38 95.66 46.24 96.21 46.63 96.49 47.08 96.54 47.69 96.51 48.01 96.11 48.23 95.58 48.79 96.34 49.6 97.34 50.51 97.67 51.17 97.9 51.53 97.67 51.89 97.19 52.36 97.08 52.68 96.84 53.02 96.47 53.17 96.31 53.32 96.15 53.48 95.98 54.11 95.56 54.66 95.15 54.93 94.49 55.6 94.04 55.61 93.1 55.68 92.36 55.76 91.55 55.77 90.74 55.53 89.96 55.02 88.34 54.01 86.84 52.9 85.53 52.71 84.36 52.45 83.19 52.2 82.03L52.21 82.02C52.21 82.02 52.21 82.01 52.2 82.01 51.85 82.3 51.44 82.5 51.04 82.72 50.64 82.98 50.23 83.22 49.8 83.44 49.07 83.81 48.16 84.12 47.57 84.65 47.57 84.65 47.57 84.64 47.56 84.64 47.52 84.68 47.49 84.73 47.45 84.77 47.78 85.57 48.12 86.37 48.46 87.16 46.69 88.97 47.7 92.14 46.88 94.47ZM48.99 93.64C49.3 92.85 49.66 92.09 50.32 91.53 50.59 92.12 50.71 92.81 50.84 93.43 50.59 93.24 50.35 93.12 50.02 93.16 49.8 93.19 49.68 93.4 49.68 93.62 49.67 93.62 49.66 93.61 49.65 93.61 49.41 93.55 49.15 93.53 48.99 93.64Z" fill="#E19770"/><path d="M47.44 92.81C47.34 93.81 47.11 94.58 46.63 95.46 46.14 96.34 47.2 96.54 47.71 96.08 47.94 95.87 48.09 95.53 48.23 95.21 48.33 94.91 48.43 94.59 48.53 94.27 48.53 94.26 48.54 94.25 48.54 94.24 48.9 93.17 49.36 92.08 50.27 91.47 50.23 91.38 50.18 91.3 50.13 91.22 50.23 91.3 50.32 91.39 50.4 91.49 50.69 92.05 50.8 92.75 50.93 93.31 51.02 93.69 51.21 94.18 51.17 94.57 51.13 94.92 50.91 95.3 50.72 95.64 50.66 95.72 50.59 95.8 50.53 95.88 50.5 95.85 50.48 95.79 50.49 95.75 50.52 95.68 50.54 95.62 50.57 95.55 50.02 95.2 49.4 94.21 48.67 94.44 48.55 94.78 48.42 95.11 48.28 95.42 48.28 95.43 48.27 95.44 48.27 95.46 48.77 96.12 49.37 96.71 50.04 97.2 51.19 98.04 51.72 97.06 52.32 96.22 52.68 95.71 53.04 95.35 53.07 94.67 53.1 94.12 52.98 93.55 52.9 93.01 52.84 92.6 52.81 92.19 52.8 91.79 52.82 91.71 52.85 91.63 52.87 91.56 52.92 92.55 53.11 93.51 53.18 94.5 53.26 95.51 52.56 96.17 52.05 96.96 52.04 96.98 52.03 96.99 52.02 97.01 52.95 96.61 53.64 95.53 54.18 94.74 54.71 93.97 54.44 92.59 54.31 91.52 54.32 91.46 54.33 91.41 54.34 91.35 54.5 92.51 54.86 93.88 54.32 94.9 54.23 95.08 54.11 95.25 53.98 95.42 54.48 94.99 54.85 94.54 55.01 93.78 55.19 92.98 55.21 92.13 55.22 91.31 55.24 91.26 55.25 91.2 55.27 91.15 55.31 92.13 55.27 93.12 55.07 94.08 55.06 94.11 55.06 94.14 55.05 94.16 55.57 93.56 55.56 92.47 55.61 91.72 55.67 90.86 55.48 90.07 55.17 89.28 54.66 87.99 53.8 86.8 52.93 85.69 52.8 85.47 52.5 85.27 52.37 85.05 52.43 85.09 52.65 85.22 52.72 85.3 52.5 84.21 52.37 83.33 52.17 82.23 50.8 83.26 49.22 84.15 47.6 84.71 47.96 85.48 48.3 86.26 48.56 87.07 48.65 86.99 48.75 86.91 48.85 86.83 48.79 86.93 48.74 87.03 48.69 87.14 47.35 88.79 47.65 90.74 47.44 92.81Z" fill="#F1BA95"/><path d="M50.39 93.29C50.27 93.25 50.16 93.28 50.04 93.29 49.85 93.3 49.78 93.49 49.76 93.65 49.98 93.73 50.19 93.87 50.38 94 50.61 94.15 50.79 94.4 51.01 94.55 51.06 94.23 50.94 93.9 50.87 93.59 50.86 93.57 50.86 93.55 50.86 93.52 50.7 93.43 50.55 93.35 50.39 93.29Z" fill="#F1BA95"/><path d="M50.49 94.23C50.1 93.93 49.26 93.39 48.87 93.98 48.86 93.99 48.86 93.99 48.85 93.99 48.83 94.05 48.8 94.11 48.78 94.17 49.03 94.17 49.29 94.3 49.49 94.44 49.61 94.52 50.43 95.32 50.6 95.5 50.7 95.26 50.8 95.04 50.92 94.81 50.95 94.75 50.97 94.68 50.99 94.62 50.81 94.53 50.64 94.34 50.49 94.23Z" fill="#F1BA95"/><path d="M46.88 94.47C46.77 94.89 46.49 95.23 46.38 95.66 46.24 96.21 46.63 96.49 47.08 96.54 47.69 96.51 48.01 96.11 48.23 95.58 48.79 96.34 49.6 97.34 50.51 97.67 51.17 97.9 51.53 97.67 51.89 97.19 52.36 97.08 52.68 96.84 53.02 96.47 53.17 96.31 53.32 96.15 53.48 95.98 54.11 95.56 54.66 95.15 54.93 94.49 55.51 94.1 55.59 93.35 55.65 92.68 55.6 92.74 55.56 92.79 55.51 92.85 55.47 92.9 55.39 92.86 55.38 92.81 55.31 92.52 55.28 92.23 55.26 91.94 55.18 92.29 55.06 92.63 54.88 92.94 54.85 92.99 54.77 92.98 54.74 92.93 54.54 92.6 54.43 92.23 54.37 91.85 54.36 92.23 54.38 92.62 54.37 93.01 54.36 93.37 54.29 93.88 53.94 94.08 53.52 94.32 53.33 93.57 53.28 93.33 53.19 92.8 52.99 92.3 52.86 91.78 52.74 92.29 52.7 92.8 52.74 93.36 52.8 94.19 52.85 95.04 52.19 95.64 51.94 95.87 51.39 96.15 51.31 95.64 51.25 95.24 51.41 94.72 51.46 94.31 51.52 93.79 51.57 93.25 51.47 92.73 51.32 91.9 50.82 91.09 50.43 90.35 50.08 89.7 49.78 89.08 49.96 88.32 50.11 87.65 50.55 86.94 51 86.43 51.41 85.97 51.98 85.72 52.58 85.63 51.95 85.22 51.15 84.89 50.42 85.17 50.37 85.19 50.32 85.17 50.31 85.11 50.17 84.53 50 83.96 49.87 83.38 49.85 83.39 49.83 83.4 49.81 83.41 49.08 83.78 48.17 84.09 47.58 84.62 47.58 84.62 47.58 84.61 47.57 84.61 47.53 84.65 47.5 84.7 47.46 84.74 47.79 85.54 48.13 86.34 48.47 87.13 46.69 88.97 47.7 92.14 46.88 94.47ZM48.99 93.64C49.3 92.85 49.66 92.09 50.32 91.53 50.59 92.12 50.71 92.81 50.84 93.43 50.59 93.24 50.35 93.12 50.02 93.16 49.8 93.19 49.68 93.4 49.68 93.62 49.67 93.62 49.66 93.61 49.65 93.61 49.41 93.55 49.15 93.53 48.99 93.64Z" fill="#F0AF85" opacity="0.4"/><path d="M48.18 95.69C48.23 95.42 48.3 95.15 48.41 94.89 48.57 94.52 48.69 94.3 49.06 94.27 49.76 94.44 50.13 95.16 50.68 95.58 50.71 95.61 50.77 95.59 50.79 95.56 50.86 95.44 50.92 95.31 50.97 95.18 50.93 95.33 50.89 95.48 50.83 95.62 50.71 95.94 50.46 96.25 50.39 96.58 50.3 96.97 50.71 97.23 51.08 97.22 51.65 97.21 51.99 96.67 52.27 96.25 52.65 95.7 52.96 95.15 53.11 94.53 53.1 95.02 52.93 95.49 52.79 95.98 52.77 96.04 52.84 96.11 52.9 96.08 53.8 95.6 54.26 94.65 54.59 93.71 54.59 94.03 54.54 94.33 54.43 94.65 54.41 94.71 54.48 94.79 54.54 94.75 54.82 94.57 55.08 94.36 55.3 94.1 55.21 94.25 55.09 94.37 54.94 94.48 54.66 95.15 54.11 95.55 53.49 95.97 53.33 96.14 53.17 96.3 53.03 96.46 52.69 96.83 52.37 97.07 51.9 97.18 51.55 97.66 51.18 97.9 50.52 97.66 49.61 97.33 48.8 96.33 48.24 95.57 48.22 95.62 48.2 95.65 48.18 95.69Z" fill="#F0AF85" opacity="0.4"/><path d="M48.47 87.14C48.13 86.35 47.79 85.55 47.46 84.75 47.5 84.71 47.53 84.66 47.57 84.62 47.57 84.62 47.58 84.63 47.58 84.63 47.81 84.42 48.1 84.24 48.4 84.08 48.66 84.87 48.94 85.66 49.01 86.49 49.02 86.55 49.08 86.56 49.12 86.54 49.47 86.4 49.82 86.34 50.19 86.28 49.92 86.52 49.62 86.74 49.44 87.04 49.16 87.5 48.98 87.99 48.88 88.52 48.66 89.68 48.71 90.87 48.46 92.02 48.22 93.12 47.47 94.04 47.28 95.15 47.18 95.69 47.38 96.2 47.87 96.16 47.68 96.36 47.43 96.49 47.09 96.51 46.64 96.46 46.25 96.18 46.39 95.63 46.5 95.2 46.78 94.86 46.89 94.44 47.7 92.14 46.69 88.97 48.47 87.14Z" fill="#F0AF85" opacity="0.4"/></g><g><path d="M35.77 40.93C35.77 40.93 43.96 38.52 47.7 50.21 49.03 54.38 54.84 77.15 55.31 84.45 55.31 84.45 52.79 86.99 48.8 86.86L46.52 86.11C46.52 86.11 43.96 72.81 43.48 69.71 43 66.61 37.76 53.55 37.76 53.55L35.77 40.93Z" fill="#EBEBEB"/><path d="M49.09 86.95C48.99 86.95 48.89 86.95 48.79 86.94 48.78 86.94 48.77 86.94 48.77 86.94L46.49 86.19C46.46 86.18 46.44 86.16 46.43 86.13 46.4 86 43.86 72.8 43.38 69.73 42.9 66.67 37.72 53.72 37.67 53.59 37.67 53.58 37.67 53.58 37.66 53.57L35.68 40.94C35.67 40.9 35.7 40.86 35.74 40.84 35.77 40.83 36.46 40.63 37.55 40.63 40.23 40.63 45.12 41.87 47.78 50.18 49.15 54.47 54.92 77.09 55.39 84.44 55.39 84.46 55.38 84.49 55.37 84.51 55.34 84.54 52.9 86.95 49.09 86.95ZM48.8 86.78C52.49 86.9 54.93 84.69 55.21 84.42 54.72 77.03 48.98 54.51 47.61 50.24 44.99 42.04 40.18 40.81 37.54 40.81 36.68 40.81 36.06 40.94 35.85 40.99L37.82 53.53C37.98 53.94 43.07 66.65 43.54 69.7 44 72.67 46.4 85.16 46.57 86.05L48.8 86.78Z" fill="#C9C9C9"/></g><path d="M36.74 42.06C41.6 42.65 45.05 45.85 47.55 49.78 43.75 38.58 35.76 40.93 35.76 40.93L35.93 42C36.2 42.01 36.47 42.03 36.74 42.06Z" fill="#E8E8E8"/><path d="M46.43 75.65C46.41 75.56 46.51 75.51 46.57 75.57 48.3 76.99 49.49 78.92 50.99 80.56 49.93 78.58 48.88 76.59 47.91 74.56 45.8 70.12 44.07 65.43 43.54 60.51 43.25 57.8 43.08 55.08 42.7 52.37 42.39 50.15 41.99 47.94 41.43 45.76 41.63 47.5 41.63 49.25 41.56 51 41.56 51.09 41.42 51.12 41.39 51.02 40.48 47.54 39.67 43.97 38.08 40.73 36.7 40.64 35.76 40.92 35.76 40.92L37.74 53.55C37.74 53.55 42.98 66.6 43.46 69.71 43.95 72.81 46.5 86.11 46.5 86.11L48.78 86.86C49.97 86.9 51.03 86.7 51.93 86.4 50.13 82.8 47.42 79.63 46.43 75.65Z" fill="#E8E8E8"/><path d="M41.93 64.41C43.66 69.15 46.42 73.41 49.25 77.57 49.27 77.59 49.25 77.65 49.22 77.61 46.27 73.57 43.28 69.29 41.89 64.43 41.88 64.38 41.92 64.37 41.93 64.41Z" fill="#C3C3C3"/></g><path d="M42.02 53.44C42.08 51.52 41.9 49.59 41.7 47.68 41.7 47.65 41.74 47.67 41.74 47.69 42 49.55 42.19 51.38 42.23 53.26 42.27 55.26 41.94 57.24 41.6 59.21 41.6 59.24 41.55 59.21 41.56 59.19 41.75 57.27 41.96 55.37 42.02 53.44Z" fill="#C9C9C9"/><path d="M46.76 49.34C47.98 52.32 48.79 55.47 49.65 58.57 50.61 62.02 51.2 65.6 51.83 69.12 51.85 69.22 51.75 69.19 51.74 69.11 50.94 65.78 50.29 62.41 49.41 59.1 48.98 57.5 48.52 55.92 48.08 54.32 47.63 52.67 47.2 50.99 46.69 49.36 46.67 49.3 46.73 49.27 46.76 49.34Z" fill="#FFFFFF"/><path d="M53.94 78.18C54.3 79.72 54.55 81.26 54.7 82.84 54.72 83 54.55 82.89 54.53 82.8 54.13 81.33 54.08 79.69 53.88 78.18 53.87 78.1 53.93 78.13 53.94 78.18Z" fill="#FFFFFF"/></g><g><g><g><g><g><g><path d="M25.11 145.62C24.83 144.37 25.17 143.34 25.58 142.26 25.56 142.25 25.55 142.25 25.53 142.24 25.15 142.12 24.72 142.04 24.15 141.99 23.88 141.97 23.61 141.95 23.35 141.94 23.09 141.93 22.83 141.91 22.57 141.89L22.51 141.88C22.06 141.84 21.61 141.79 21.16 141.74 20.5 141.67 19.84 141.6 19.18 141.55 18.67 141.52 18.16 141.49 17.66 141.46L17.54 141.45C17.48 141.45 17.41 141.45 17.34 141.45 17.4 142.01 17.43 142.58 17.44 143.15 17.45 143.83 17.47 144.51 17.13 145.13 16.57 146.16 15.61 146.81 14.6 147.35 14.25 147.59 13.87 147.8 13.5 148 12.53 148.52 11.54 148.95 10.51 149.33 9.77 149.61 8.87 149.86 8.29 150.44 7.42 151.33 7.23 152.68 7.24 154.02 7.25 154.06 7.22 155.45 7.24 155.49 8.96 156.95 13.25 156.51 14.09 156.41 15.05 156.3 18.15 155.73 18.91 155.06 19.71 154.36 20.37 153.5 21.37 153.07 22.43 152.62 23.64 152.54 24.66 152.02 24.86 151.92 25.03 151.8 25.2 151.68 25.66 151.19 25.7 150.32 25.73 149.61 25.63 148.28 25.41 146.94 25.11 145.62Z" fill="#A84F21"/><path d="M11.75 156.64C11.75 156.64 11.75 156.64 11.75 156.64 10.25 156.64 8.25 156.45 7.2 155.56 7.19 155.55 7.18 155.54 7.18 155.53 7.16 155.5 7.16 155.49 7.17 154.68 7.17 154.4 7.18 154.08 7.17 154.04 7.16 152.94 7.26 151.39 8.24 150.39 8.73 149.89 9.47 149.62 10.13 149.39 10.25 149.35 10.37 149.3 10.49 149.26 11.66 148.82 12.61 148.4 13.47 147.93 13.78 147.76 14.18 147.54 14.56 147.28 15.48 146.79 16.49 146.15 17.06 145.09 17.38 144.51 17.37 143.87 17.36 143.2L17.36 143.15C17.35 142.59 17.32 142.02 17.26 141.46 17.26 141.44 17.26 141.41 17.28 141.39 17.3 141.37 17.32 141.36 17.34 141.36L17.4 141.36C17.45 141.36 17.5 141.36 17.55 141.36L17.67 141.37C18.18 141.4 18.69 141.42 19.2 141.46 19.86 141.5 20.52 141.58 21.15 141.65L21.3 141.67C21.7 141.71 22.11 141.76 22.52 141.79L22.58 141.8C22.83 141.82 23.08 141.84 23.36 141.85 23.61 141.86 23.89 141.88 24.16 141.9 24.74 141.95 25.17 142.03 25.56 142.15 25.57 142.15 25.59 142.16 25.6 142.16L25.62 142.17C25.64 142.18 25.66 142.19 25.67 142.21 25.68 142.23 25.68 142.25 25.67 142.28 25.25 143.37 24.92 144.37 25.2 145.59 25.51 146.95 25.72 148.3 25.84 149.62 25.81 150.34 25.78 151.23 25.29 151.75 25.1 151.9 24.92 152.02 24.73 152.11 24.17 152.4 23.54 152.55 22.93 152.71 22.43 152.83 21.91 152.96 21.43 153.17 20.72 153.47 20.18 154 19.65 154.52 19.44 154.73 19.22 154.94 18.99 155.14 18.17 155.85 14.92 156.42 14.12 156.51 13.3 156.6 12.51 156.64 11.75 156.64ZM7.33 155.46C8.35 156.3 10.29 156.48 11.74 156.48L11.74 156.48C12.49 156.48 13.29 156.43 14.09 156.35 15.12 156.24 18.14 155.66 18.87 155.02 19.09 154.82 19.31 154.61 19.52 154.41 20.06 153.88 20.62 153.34 21.35 153.02 21.84 152.81 22.36 152.68 22.87 152.56 23.47 152.41 24.09 152.26 24.63 151.98 24.81 151.89 24.98 151.78 25.15 151.64 25.58 151.18 25.62 150.32 25.64 149.64 25.52 148.34 25.31 146.99 25 145.64 24.72 144.4 25.04 143.36 25.45 142.31 25.08 142.2 24.67 142.13 24.12 142.08 23.85 142.06 23.57 142.04 23.32 142.03 23.04 142.02 22.79 142 22.54 141.98L22.48 141.97C22.07 141.93 21.66 141.89 21.25 141.84L21.1 141.82C20.46 141.75 19.8 141.68 19.15 141.63 18.64 141.6 18.13 141.57 17.63 141.54L17.51 141.53C17.48 141.53 17.44 141.53 17.41 141.53 17.46 142.06 17.5 142.61 17.5 143.14L17.5 143.19C17.51 143.85 17.52 144.54 17.18 145.16 16.59 146.26 15.55 146.92 14.62 147.42 14.24 147.68 13.83 147.91 13.52 148.07 12.65 148.54 11.7 148.97 10.52 149.41 10.4 149.45 10.28 149.5 10.16 149.54 9.49 149.78 8.81 150.02 8.34 150.5 7.41 151.45 7.31 152.96 7.32 154.01 7.32 154.05 7.32 154.17 7.32 154.67 7.33 154.97 7.33 155.35 7.33 155.46Z" fill="#682029"/></g></g></g></g><g><g><g><path d="M7.61 152.19C8.15 150.88 9.2 150.28 10.48 149.83 12.08 149.26 13.92 148.67 15.21 147.52 15.69 147.09 16.15 146.57 16.5 146 15.97 146.56 15.3 146.99 14.6 147.36 14.25 147.6 13.87 147.81 13.5 148.01 12.53 148.53 11.54 148.96 10.51 149.34 9.77 149.62 8.87 149.87 8.29 150.45 7.5 151.26 7.27 152.44 7.25 153.65 7.31 153.15 7.41 152.65 7.61 152.19Z" fill="#A84F21"/></g></g></g><g><g><g><path d="M25.11 145.62C24.83 144.37 25.17 143.34 25.58 142.26 25.56 142.25 25.55 142.25 25.53 142.24 25.15 142.12 24.72 142.04 24.15 141.99 23.88 141.97 23.61 141.95 23.35 141.94 23.09 141.93 22.83 141.91 22.57 141.89L22.51 141.88C22.06 141.84 21.61 141.79 21.16 141.74 20.5 141.67 19.84 141.6 19.18 141.55 18.67 141.52 18.16 141.49 17.66 141.46L17.54 141.45C17.48 141.45 17.41 141.45 17.34 141.45 17.4 142.01 17.43 142.58 17.44 143.15 17.45 143.77 17.46 144.4 17.21 144.97 18.02 145.39 21.53 146.52 22.87 146.49 22.91 146.49 23.2 149.8 22.24 150.01 21.55 150.16 19.69 150.92 19.14 151.39 18.74 151.73 18.39 152.14 18 152.49 17.31 153.11 16.47 153.53 15.57 153.78 13.7 154.3 11.6 154.34 9.68 154.03 8.9 153.9 8.04 153.57 7.78 152.74 7.59 152.13 7.67 151.55 7.87 150.99 7.35 151.84 7.23 152.94 7.24 154.03 7.25 154.07 7.22 155.46 7.24 155.5 8.96 156.96 13.25 156.52 14.09 156.42 15.05 156.31 18.15 155.74 18.91 155.07 19.71 154.37 20.37 153.51 21.37 153.08 22.43 152.63 23.64 152.55 24.66 152.03 24.86 151.93 25.03 151.81 25.2 151.69 25.66 151.2 25.7 150.33 25.73 149.62 25.63 148.28 25.41 146.94 25.11 145.62Z" fill="#A84F21" opacity="0.4"/></g></g></g><g><g><g><path d="M25.11 145.62C24.83 144.37 25.17 143.34 25.58 142.26 25.56 142.25 25.55 142.25 25.53 142.24 25.15 142.12 24.72 142.04 24.15 141.99 24.14 141.99 24.13 141.99 24.11 141.99 24.21 142.95 24.39 143.9 24.51 144.86 24.67 146.14 24.89 147.46 24.8 148.76 24.74 149.59 24.42 150.25 23.61 150.56 22.4 151.01 21.09 151.07 20.08 151.94 19.31 152.6 18.67 153.45 17.77 153.93 16.83 154.43 15.77 154.64 14.71 154.73 13.44 154.84 12.16 154.91 10.89 154.82 9.89 154.75 8.68 154.66 7.81 154.11 7.58 153.96 7.39 153.8 7.26 153.59 7.26 153.74 7.25 153.89 7.26 154.03 7.27 154.07 7.24 155.46 7.26 155.5 8.98 156.96 13.27 156.52 14.11 156.42 15.07 156.31 18.17 155.74 18.93 155.07 19.73 154.37 20.39 153.51 21.39 153.08 22.45 152.63 23.66 152.55 24.68 152.03 24.88 151.93 25.05 151.81 25.22 151.69 25.68 151.2 25.72 150.33 25.75 149.62 25.63 148.28 25.41 146.94 25.11 145.62Z" fill="#A84F21" opacity="0.4"/></g></g></g><g><g><g><g><path d="M24.48 151.32C23.72 151.55 22.94 151.54 22.17 151.71 21.17 151.93 20.32 152.39 19.5 153.01 18.76 153.57 18.04 154.2 17.18 154.56 15.41 155.31 13.32 155.4 11.42 155.34 9.99 155.3 8.5 155.1 7.25 154.38 7.25 154.81 7.23 155.46 7.25 155.49 8.97 156.95 13.26 156.51 14.1 156.41 15.06 156.3 18.16 155.73 18.92 155.06 19.72 154.36 20.38 153.5 21.38 153.07 22.44 152.62 23.65 152.54 24.67 152.02 24.87 151.92 25.04 151.8 25.21 151.68 25.62 151.25 25.69 150.52 25.73 149.87 25.53 150.2 25.15 151.12 24.48 151.32Z" fill="#3B1C0C"/><path d="M11.75 156.64C10.26 156.64 8.25 156.45 7.2 155.56 7.19 155.55 7.18 155.54 7.18 155.53 7.17 155.5 7.16 155.49 7.17 154.69L7.17 154.38C7.17 154.35 7.19 154.32 7.21 154.31 7.24 154.3 7.27 154.3 7.29 154.31 8.33 154.91 9.64 155.21 11.42 155.26 11.73 155.27 12.01 155.27 12.29 155.27 14.33 155.27 15.87 155.02 17.15 154.48 17.86 154.18 18.48 153.7 19.08 153.23 19.21 153.13 19.33 153.03 19.46 152.94 20.36 152.25 21.22 151.84 22.16 151.63 22.49 151.56 22.83 151.51 23.16 151.47 23.59 151.42 24.04 151.36 24.46 151.24 24.97 151.09 25.3 150.49 25.52 150.09 25.58 149.99 25.63 149.9 25.67 149.84 25.69 149.81 25.73 149.8 25.77 149.81 25.81 149.82 25.83 149.86 25.83 149.9 25.8 150.6 25.71 151.32 25.29 151.76 25.1 151.91 24.92 152.03 24.73 152.12 24.17 152.41 23.54 152.56 22.93 152.72 22.43 152.84 21.91 152.97 21.43 153.18 20.72 153.48 20.18 154.01 19.65 154.53 19.44 154.74 19.22 154.95 18.99 155.15 18.17 155.86 14.92 156.43 14.12 156.52 13.3 156.6 12.51 156.64 11.75 156.64ZM7.33 155.46C8.35 156.3 10.29 156.48 11.74 156.48 12.49 156.48 13.29 156.43 14.09 156.35 15.12 156.24 18.14 155.66 18.87 155.02 19.09 154.82 19.31 154.61 19.52 154.41 20.06 153.88 20.62 153.34 21.35 153.02 21.84 152.81 22.36 152.68 22.87 152.56 23.47 152.41 24.09 152.26 24.63 151.98 24.81 151.89 24.98 151.78 25.15 151.64 25.45 151.32 25.56 150.8 25.61 150.26 25.37 150.68 25.03 151.26 24.48 151.42 24.04 151.55 23.59 151.61 23.15 151.66 22.83 151.7 22.49 151.74 22.17 151.81 21.25 152.01 20.42 152.42 19.54 153.09 19.41 153.19 19.29 153.28 19.16 153.38 18.55 153.85 17.92 154.35 17.19 154.65 15.89 155.2 14.33 155.45 12.27 155.45 11.99 155.45 11.71 155.45 11.4 155.44 10.3 155.41 8.68 155.28 7.32 154.54L7.32 154.71C7.33 154.98 7.33 155.35 7.33 155.46Z" fill="#240B0F"/></g></g></g></g><g><g><g><path d="M14.31 155.26C13.34 155.36 12.36 155.37 11.42 155.35 11.1 155.34 10.77 155.32 10.44 155.29 10.41 155.69 10.38 156.1 10.36 156.5 11.99 156.65 13.62 156.48 14.1 156.42 14.16 156.41 14.22 156.41 14.29 156.4 14.29 156.02 14.29 155.64 14.31 155.26Z" fill="#3B1C0C"/><path d="M24.48 151.32C23.72 151.55 22.94 151.54 22.17 151.71 21.78 151.8 21.4 151.92 21.05 152.08 21 152.43 20.9 152.78 20.88 153.11 20.87 153.2 20.87 153.29 20.86 153.37 21.03 153.26 21.21 153.17 21.4 153.08 22.46 152.63 23.67 152.55 24.69 152.03 24.89 151.93 25.06 151.81 25.23 151.69 25.64 151.26 25.71 150.53 25.75 149.88 25.53 150.2 25.15 151.12 24.48 151.32Z" fill="#3B1C0C"/></g></g></g></g><g><g><g><g><g><path d="M27.98 145.62C28.26 144.37 27.92 143.34 27.51 142.26 27.53 142.25 27.54 142.25 27.56 142.24 27.94 142.12 28.37 142.04 28.94 141.99 29.21 141.97 29.48 141.95 29.74 141.94 30 141.93 30.26 141.91 30.52 141.89L30.58 141.88C31.03 141.84 31.48 141.79 31.93 141.74 32.59 141.67 33.25 141.6 33.91 141.55 34.42 141.52 34.93 141.49 35.43 141.46L35.55 141.45C35.61 141.45 35.68 141.45 35.75 141.45 35.69 142.01 35.66 142.58 35.65 143.15 35.64 143.83 35.62 144.51 35.96 145.13 36.52 146.16 37.48 146.81 38.49 147.35 38.84 147.59 39.22 147.8 39.59 148 40.55 148.52 41.55 148.95 42.58 149.33 43.32 149.61 44.22 149.86 44.8 150.44 45.67 151.33 45.86 152.68 45.85 154.02 45.84 154.06 45.87 155.45 45.85 155.49 44.13 156.95 39.84 156.51 38.99 156.41 38.03 156.3 34.93 155.73 34.17 155.06 33.37 154.36 32.71 153.5 31.71 153.07 30.65 152.62 29.44 152.54 28.42 152.02 28.22 151.92 28.05 151.8 27.88 151.68 27.42 151.19 27.38 150.32 27.35 149.61 27.46 148.28 27.68 146.94 27.98 145.62Z" fill="#A84F21"/><path d="M41.34 156.64C40.58 156.64 39.78 156.59 38.97 156.51 38.17 156.42 34.92 155.86 34.1 155.14 33.87 154.94 33.65 154.73 33.44 154.52 32.91 154 32.36 153.47 31.66 153.17 31.18 152.97 30.67 152.84 30.16 152.71 29.55 152.56 28.92 152.4 28.36 152.11 28.17 152.01 27.99 151.9 27.81 151.76 27.31 151.23 27.28 150.34 27.25 149.63 27.37 148.3 27.59 146.95 27.89 145.59 28.17 144.37 27.84 143.37 27.42 142.28 27.41 142.26 27.41 142.23 27.42 142.21 27.43 142.19 27.45 142.17 27.47 142.17L27.49 142.16C27.5 142.16 27.51 142.15 27.53 142.15 27.92 142.03 28.35 141.95 28.93 141.9 29.2 141.88 29.49 141.86 29.73 141.85 30.01 141.84 30.26 141.82 30.51 141.8L30.57 141.79C30.98 141.75 31.39 141.71 31.79 141.67L31.94 141.65C32.58 141.58 33.24 141.51 33.9 141.46 34.41 141.43 34.92 141.4 35.43 141.37L35.55 141.36C35.6 141.36 35.65 141.36 35.7 141.36L35.76 141.36C35.78 141.36 35.81 141.37 35.82 141.39 35.84 141.41 35.84 141.43 35.84 141.46 35.78 142.02 35.75 142.59 35.74 143.15L35.74 143.2C35.73 143.87 35.72 144.5 36.04 145.09 36.61 146.15 37.62 146.79 38.53 147.28 38.92 147.54 39.32 147.77 39.63 147.93 40.49 148.4 41.44 148.82 42.61 149.26 42.73 149.3 42.85 149.35 42.97 149.39 43.62 149.62 44.36 149.89 44.86 150.39 45.84 151.39 45.94 152.94 45.93 154.03 45.93 154.04 45.93 154.05 45.93 154.06 45.93 154.09 45.93 154.41 45.94 154.69 45.95 155.5 45.95 155.51 45.93 155.54 45.92 155.55 45.92 155.56 45.91 155.57 44.84 156.45 42.84 156.64 41.34 156.64ZM27.61 142.31C28.01 143.36 28.34 144.4 28.06 145.64 27.75 146.99 27.54 148.34 27.42 149.65 27.45 150.32 27.48 151.18 27.93 151.65 28.09 151.78 28.26 151.89 28.44 151.98 28.99 152.26 29.61 152.41 30.2 152.56 30.71 152.69 31.23 152.82 31.72 153.02 32.46 153.33 33.01 153.88 33.56 154.41 33.77 154.62 33.99 154.83 34.21 155.02 34.94 155.65 37.96 156.23 38.99 156.35 39.8 156.44 40.59 156.48 41.34 156.48 42.79 156.48 44.73 156.3 45.75 155.46 45.75 155.35 45.75 154.97 45.75 154.69 45.74 154.18 45.74 154.07 45.75 154.03 45.76 152.98 45.66 151.47 44.73 150.52 44.26 150.04 43.57 149.8 42.91 149.56 42.79 149.52 42.66 149.47 42.55 149.43 41.37 148.99 40.42 148.56 39.55 148.09 39.24 147.92 38.83 147.7 38.45 147.43 37.52 146.93 36.49 146.28 35.89 145.18 35.55 144.56 35.56 143.87 35.57 143.21L35.57 143.16C35.58 142.63 35.61 142.08 35.66 141.55 35.62 141.55 35.59 141.55 35.55 141.55L35.43 141.56C34.92 141.59 34.41 141.61 33.91 141.65 33.26 141.69 32.6 141.77 31.96 141.84L31.81 141.86C31.41 141.9 30.99 141.95 30.59 141.99L30.53 142C30.28 142.02 30.03 142.04 29.75 142.05 29.5 142.06 29.22 142.08 28.95 142.1 28.39 142.12 27.98 142.19 27.61 142.31Z" fill="#682029"/></g></g></g></g><g><g><g><path d="M45.48 152.19C44.94 150.88 43.89 150.28 42.61 149.83 41.01 149.26 39.17 148.67 37.88 147.52 37.4 147.09 36.94 146.57 36.59 146 37.12 146.56 37.79 146.99 38.49 147.36 38.84 147.6 39.22 147.81 39.59 148.01 40.55 148.53 41.55 148.96 42.58 149.34 43.32 149.62 44.22 149.87 44.8 150.45 45.59 151.26 45.82 152.44 45.84 153.65 45.78 153.15 45.68 152.65 45.48 152.19Z" fill="#A84F21"/></g></g></g><g><g><g><path d="M27.98 145.62C28.26 144.37 27.92 143.34 27.51 142.26 27.53 142.25 27.54 142.25 27.56 142.24 27.94 142.12 28.37 142.04 28.94 141.99 29.21 141.97 29.48 141.95 29.74 141.94 30 141.93 30.26 141.91 30.52 141.89L30.58 141.88C31.03 141.84 31.48 141.79 31.93 141.74 32.59 141.67 33.25 141.6 33.91 141.55 34.42 141.52 34.93 141.49 35.43 141.46L35.55 141.45C35.61 141.45 35.68 141.45 35.75 141.45 35.69 142.01 35.66 142.58 35.65 143.15 35.64 143.77 35.63 144.4 35.88 144.97 35.07 145.39 31.56 146.52 30.22 146.49 30.17 146.49 29.89 149.8 30.85 150.01 31.54 150.16 33.4 150.92 33.95 151.39 34.35 151.73 34.7 152.14 35.09 152.49 35.78 153.11 36.62 153.53 37.52 153.78 39.39 154.3 41.49 154.34 43.41 154.03 44.19 153.9 45.05 153.57 45.31 152.74 45.5 152.13 45.42 151.55 45.22 150.99 45.74 151.84 45.86 152.94 45.85 154.03 45.84 154.07 45.87 155.46 45.85 155.5 44.13 156.96 39.84 156.52 38.99 156.42 38.03 156.31 34.93 155.74 34.17 155.07 33.37 154.37 32.71 153.51 31.71 153.08 30.65 152.63 29.44 152.55 28.42 152.03 28.22 151.93 28.05 151.81 27.88 151.69 27.42 151.2 27.38 150.33 27.35 149.62 27.46 148.28 27.68 146.94 27.98 145.62Z" fill="#A84F21" opacity="0.4"/></g></g></g><g><g><g><path d="M27.98 145.62C28.26 144.37 27.92 143.34 27.51 142.26 27.53 142.25 27.54 142.25 27.56 142.24 27.94 142.12 28.37 142.04 28.94 141.99 28.95 141.99 28.96 141.99 28.98 141.99 28.88 142.95 28.7 143.9 28.58 144.86 28.42 146.14 28.2 147.46 28.29 148.76 28.35 149.59 28.67 150.25 29.48 150.56 30.69 151.01 32 151.07 33.01 151.94 33.78 152.6 34.42 153.45 35.32 153.93 36.26 154.43 37.32 154.64 38.38 154.73 39.65 154.84 40.93 154.91 42.2 154.82 43.2 154.75 44.41 154.66 45.28 154.11 45.51 153.96 45.7 153.8 45.83 153.59 45.83 153.74 45.84 153.89 45.83 154.03 45.82 154.07 45.85 155.46 45.83 155.5 44.11 156.96 39.82 156.52 38.97 156.42 38.01 156.31 34.91 155.74 34.15 155.07 33.35 154.37 32.69 153.51 31.69 153.08 30.63 152.63 29.42 152.55 28.4 152.03 28.2 151.93 28.03 151.81 27.86 151.69 27.4 151.2 27.36 150.33 27.33 149.62 27.46 148.28 27.68 146.94 27.98 145.62Z" fill="#A84F21" opacity="0.4"/></g></g></g><g><g><g><g><path d="M28.61 151.32C29.37 151.55 30.15 151.54 30.92 151.71 31.92 151.93 32.77 152.39 33.59 153.01 34.33 153.57 35.05 154.2 35.91 154.56 37.68 155.31 39.77 155.4 41.67 155.34 43.1 155.3 44.59 155.1 45.84 154.38 45.84 154.81 45.86 155.46 45.84 155.49 44.12 156.95 39.83 156.51 38.98 156.41 38.02 156.3 34.92 155.73 34.16 155.06 33.36 154.36 32.7 153.5 31.7 153.07 30.64 152.62 29.43 152.54 28.41 152.02 28.21 151.92 28.04 151.8 27.87 151.68 27.46 151.25 27.39 150.52 27.35 149.87 27.56 150.2 27.94 151.12 28.61 151.32Z" fill="#3B1C0C"/><path d="M41.34 156.64C40.58 156.64 39.78 156.59 38.97 156.51 38.17 156.42 34.92 155.86 34.1 155.14 33.87 154.94 33.65 154.73 33.44 154.52 32.91 154 32.36 153.47 31.66 153.17 31.18 152.97 30.67 152.84 30.16 152.71 29.55 152.56 28.92 152.4 28.36 152.11 28.17 152.01 27.99 151.9 27.81 151.76 27.39 151.31 27.3 150.6 27.26 149.89 27.26 149.85 27.28 149.82 27.32 149.8 27.36 149.79 27.4 149.8 27.42 149.83 27.46 149.89 27.51 149.98 27.57 150.08 27.79 150.48 28.13 151.08 28.63 151.23 29.06 151.36 29.5 151.41 29.93 151.46 30.26 151.5 30.6 151.54 30.93 151.62 31.87 151.83 32.73 152.24 33.63 152.93 33.76 153.03 33.88 153.12 34.01 153.22 34.61 153.69 35.23 154.17 35.94 154.47 37.22 155.01 38.76 155.26 40.8 155.26L40.8 155.26C41.07 155.26 41.36 155.26 41.67 155.25 42.79 155.22 44.44 155.08 45.8 154.3 45.83 154.29 45.86 154.29 45.88 154.3 45.91 154.31 45.92 154.34 45.92 154.37L45.92 154.66C45.93 155.48 45.93 155.49 45.91 155.52 45.9 155.53 45.9 155.54 45.89 155.55 44.84 156.45 42.84 156.64 41.34 156.64ZM27.46 150.25C27.51 150.8 27.62 151.31 27.93 151.64 28.09 151.77 28.26 151.88 28.44 151.97 28.99 152.25 29.61 152.4 30.2 152.55 30.71 152.68 31.23 152.81 31.72 153.01 32.46 153.32 33.01 153.87 33.56 154.4 33.77 154.61 33.99 154.82 34.21 155.01 34.94 155.64 37.96 156.22 38.99 156.34 39.8 156.43 40.59 156.47 41.34 156.47 42.79 156.47 44.73 156.29 45.75 155.45 45.75 155.34 45.75 154.96 45.75 154.68L45.75 154.53C44.38 155.27 42.77 155.4 41.66 155.43 41.35 155.44 41.07 155.44 40.79 155.44L40.79 155.44C38.73 155.44 37.16 155.19 35.87 154.64 35.14 154.33 34.51 153.84 33.9 153.37 33.78 153.27 33.65 153.18 33.53 153.08 32.65 152.41 31.81 152 30.9 151.8 30.58 151.73 30.24 151.69 29.92 151.65 29.48 151.6 29.03 151.54 28.59 151.41 28.04 151.24 27.69 150.67 27.46 150.25Z" fill="#240B0F"/></g></g></g></g><g><g><g><path d="M38.78 155.26C39.75 155.36 40.73 155.37 41.67 155.35 41.99 155.34 42.32 155.32 42.65 155.29 42.68 155.69 42.71 156.1 42.73 156.5 41.1 156.65 39.47 156.48 38.99 156.42 38.93 156.41 38.87 156.41 38.8 156.4 38.8 156.02 38.8 155.64 38.78 155.26Z" fill="#3B1C0C"/><path d="M28.61 151.32C29.37 151.55 30.15 151.54 30.92 151.71 31.31 151.8 31.69 151.92 32.04 152.08 32.09 152.43 32.19 152.78 32.21 153.11 32.22 153.2 32.22 153.29 32.23 153.37 32.06 153.26 31.88 153.17 31.69 153.08 30.63 152.63 29.42 152.55 28.4 152.03 28.2 151.93 28.03 151.81 27.86 151.69 27.45 151.26 27.38 150.53 27.34 149.88 27.56 150.2 27.94 151.12 28.61 151.32Z" fill="#3B1C0C"/></g></g></g></g><g><g><g><g><g><path d="M23.72 40.19C24.24 41.18 26.03 41.22 26.97 41.24 27.66 41.25 28.39 41.26 29.04 40.99 29.65 40.74 30.09 40.31 30.43 39.78 30.13 39.22 30.11 35.84 30.15 35.28L24.34 36.16C24.39 36.89 24.36 39.73 23.72 40.19Z" fill="#F1BA95"/><path d="M27.37 41.33C27.24 41.33 27.1 41.33 26.97 41.33 26 41.31 24.19 41.27 23.65 40.23 23.63 40.19 23.64 40.15 23.68 40.12 24.24 39.71 24.33 37.09 24.27 36.17 24.27 36.13 24.3 36.09 24.34 36.08L30.15 35.2C30.18 35.2 30.2 35.2 30.22 35.22 30.24 35.24 30.25 35.26 30.25 35.29 30.21 35.86 30.23 39.22 30.52 39.75 30.53 39.78 30.53 39.81 30.52 39.84 30.14 40.44 29.67 40.85 29.09 41.09 28.51 41.3 27.89 41.33 27.37 41.33ZM23.83 40.21C24.37 41.11 26.12 41.14 26.97 41.16 27.1 41.16 27.23 41.16 27.36 41.16 27.87 41.16 28.47 41.13 29.01 40.91 29.55 40.69 29.98 40.32 30.33 39.77 30.04 39.09 30.03 36.1 30.06 35.37L24.43 36.23C24.46 36.87 24.46 39.59 23.83 40.21Z" fill="#E19770"/></g><g><path d="M38.72 44.07C38.22 43.03 37.71 41.98 37.18 40.95 36.64 40.88 36.1 40.83 35.55 40.81 34.59 40.77 33.62 40.77 32.66 40.67 31.93 40.59 31.13 40.49 30.51 40.06 30.45 40.02 30.47 39.94 30.51 39.91 30.47 39.85 30.43 39.79 30.4 39.72L24.1 39.72C23.98 39.97 23.81 40.17 23.57 40.29 22.41 40.84 14.32 40.47 13.18 42.52L2.79 143.33C2.79 143.33 11.8 144.96 18.04 146.18L36.45 146.18C42.69 144.96 52 143.33 52 143.33 52 143.33 44.46 56.05 38.72 44.07Z" fill="#EBEBEB"/><path d="M36.45 146.27 18.04 146.27C11.86 145.06 2.86 143.43 2.77 143.42 2.73 143.41 2.7 143.37 2.7 143.33L13.09 42.51C13.09 42.5 13.1 42.49 13.1 42.48 13.89 41.06 17.81 40.77 20.67 40.57 22.01 40.47 23.16 40.39 23.52 40.22 23.73 40.12 23.89 39.94 24.01 39.69 24.02 39.66 24.05 39.64 24.09 39.64L30.39 39.64C30.42 39.64 30.45 39.66 30.47 39.69 30.5 39.75 30.53 39.81 30.58 39.87 30.59 39.89 30.6 39.91 30.59 39.93 30.59 39.95 30.57 39.97 30.55 39.98 31.13 40.39 31.88 40.5 32.66 40.58 33.34 40.66 34.04 40.68 34.72 40.7 35 40.71 35.27 40.72 35.55 40.73 36.04 40.75 36.58 40.8 37.18 40.87 37.21 40.87 37.23 40.89 37.24 40.92 37.78 41.96 38.3 43.04 38.78 44.04 41.75 50.24 45.2 76.91 47.58 98.19 50.15 121.24 52.05 143.11 52.07 143.33 52.07 143.37 52.04 143.41 52 143.42 51.91 143.44 42.62 145.06 36.46 146.27 36.47 146.27 36.46 146.27 36.45 146.27ZM2.88 143.26C3.78 143.42 12.19 144.95 18.05 146.1L36.44 146.1C42.31 144.95 50.99 143.42 51.9 143.26 51.63 140.22 44.23 55.78 38.63 44.11 38.16 43.12 37.64 42.06 37.11 41.03 36.53 40.96 36.01 40.91 35.53 40.89 35.26 40.88 34.98 40.87 34.71 40.86 34.03 40.84 33.32 40.82 32.63 40.74 31.83 40.65 31.06 40.54 30.44 40.12 30.39 40.09 30.36 40.04 30.36 39.98 30.36 39.95 30.37 39.92 30.38 39.9 30.36 39.87 30.34 39.83 30.32 39.8L24.12 39.8C23.98 40.06 23.8 40.25 23.57 40.36 23.18 40.55 22.06 40.63 20.65 40.73 17.84 40.93 13.99 41.21 13.22 42.54L2.88 143.26Z" fill="#C9C9C9"/></g><path d="M38.72 44.07C38.22 43.03 37.71 41.98 37.18 40.95 36.64 40.88 36.1 40.83 35.55 40.81 34.59 40.77 33.62 40.77 32.66 40.67 31.93 40.59 31.13 40.49 30.51 40.06 30.45 40.02 30.47 39.94 30.51 39.91 30.47 39.85 30.43 39.79 30.4 39.72L24.1 39.72C23.98 39.97 23.81 40.17 23.57 40.29 22.41 40.84 14.32 40.47 13.18 42.52L2.79 143.33C2.79 143.33 11.8 144.96 18.04 146.18L36.45 146.18C42.69 144.96 52 143.33 52 143.33 52 143.33 44.46 56.05 38.72 44.07ZM37.03 137.46C36.14 139.4 34.98 141.37 33.23 142.65 32.61 143.1 31.76 143.72 30.93 143.61 30.19 143.51 29.79 142.89 29.67 142.19 29.49 141.15 29.74 140.09 29.96 139.08 30.23 137.84 31.37 129.8 31.81 127.04 32.25 124.29 32.72 121.54 33.18 118.79 33.77 115.3 34.35 111.8 34.82 108.29 34.9 107.04 34.97 105.79 35.04 104.54 34.56 106.8 34.05 109.05 33.52 111.29 32.24 116.68 30.81 122.03 29.53 127.41 29.26 128.54 27.27 137.48 26.41 139.75 26.05 140.71 25.68 141.79 25.11 142.65 24.79 143.13 24.35 143.51 23.83 143.75 22.58 144.33 21.13 144.31 19.79 144.12 18.19 143.89 16.62 143.42 15.15 142.76 14.01 142.25 12.72 141.64 11.89 140.68 10.56 139.15 10.28 137.04 10.03 135.1 9.56 131.45 9.12 111.22 9.07 109.11 9 106.14 14.97 121.56 16.64 126.65 17.04 127.88 17.46 129.11 17.9 130.33 18.03 130.67 18.16 131.02 18.29 131.36 18.34 131.49 18.38 131.62 18.43 131.74 18.86 132.87 19.33 133.99 19.83 135.09 20.37 136.12 20.95 137.13 21.57 138.11 21.63 138.2 21.48 138.29 21.42 138.2 21.36 138.1 21.3 138 21.24 137.9 21.51 138.4 21.8 138.89 22.09 139.37 20.45 135.2 19.36 130.84 18.49 126.45 17.53 121.66 16.69 116.84 15.93 112.02 14.39 102.35 13.28 92.6 13.03 82.81 12.25 76.41 11.77 69.97 12.26 63.56 12.21 62.58 12.19 61.6 12.21 60.62 12.3 55.69 13.19 50.82 13.61 45.91 13.57 44.51 13.6 43.07 15.04 42.34 15.99 41.85 17.07 41.59 18.12 41.39 19.23 41.18 20.36 41.05 21.48 41 21.98 40.98 22.54 40.91 23.03 41.04 23.52 41.17 23.95 41.41 24.35 41.7 25 42.18 25.4 42.92 25.59 43.74 25.9 45.07 25.69 53.99 25.74 57.09 25.8 60.78 26.03 64.46 25.95 68.15 26.34 68.63 26.73 69.1 27.14 69.55 27.88 68.98 28.59 68.32 29.18 67.6 29.28 63.95 28.97 60.31 28.91 56.66 28.84 52.52 28.68 48.38 28.68 44.24 28.68 44.19 29.09 43.14 29.54 42.69 30.18 42.05 30.97 41.57 31.78 41.17 32.41 40.86 35.87 41.25 36.23 41.83 36.72 42.62 37.28 43.36 37.72 44.18 38.2 45.07 38.6 45.99 38.91 46.95 38.93 47.02 38.85 47.08 38.78 47.05 38.11 46.64 37.42 46.26 36.73 45.89 37.48 47.17 38.03 48.6 38.51 49.96 39.99 54.13 40.9 58.5 41.2 62.91 41.42 64.02 41.51 65.16 41.57 66.29 41.66 67.95 41.73 69.61 41.85 71.27 42.09 74.82 42.3 78.38 42.46 81.94 42.71 87.53 42.84 93.12 42.77 98.72 42.75 99.89 42.74 101.06 42.7 102.22 43.12 111.83 42.22 121.61 39.43 130.85 38.75 133.09 38.01 135.34 37.03 137.46Z" fill="#E8E8E8"/><path d="M50.91 142.49C49.7 141.91 48.58 141.09 47.63 140.14 47.11 139.62 46.6 139.05 46.23 138.41 45.85 137.75 45.68 137.04 45.62 136.28 45.53 135.08 45.67 133.88 45.77 132.68 45.88 131.38 45.83 130.06 45.86 128.75 46 123.19 46.22 117.62 46.37 112.06 46.55 105.16 46.7 98.26 46.72 91.37 45.91 84.46 45.05 77.59 44.17 71.28 44.4 77.17 44.49 83.06 44.49 88.95 44.49 98.65 44.23 108.36 43.96 118.06 43.87 121.04 43.72 124.03 43.32 126.99 42.93 129.91 42.34 132.84 41.2 135.57 40.21 137.95 38.78 140.24 36.66 141.77 34.32 143.46 31.46 144 28.62 143.79 28.57 143.79 28.54 143.75 28.53 143.7 28.3 141.99 28.71 140.23 29.11 138.58 29.54 136.8 29.89 135.02 30.31 133.24 30.77 131.24 31.31 129.24 31.77 127.23 31.78 127.17 31.79 127.1 31.8 127.04 31.89 126.44 31.99 125.83 32.09 125.23 30.87 129.3 29.47 133.32 28.17 137.36 27.64 139.03 27.42 140.78 26.76 142.42 26.48 143.12 26.14 143.86 25.6 144.41 25.02 145.01 24.25 145.19 23.44 145.24 21.77 145.36 20.02 145.29 18.35 145.16 16.68 145.03 14.96 144.79 13.4 144.14 12.09 143.6 10.78 142.72 10.26 141.33 9.48 139.25 9.67 136.95 9.51 134.77 9.32 132.06 8.93 129.37 8.72 126.66 8.66 125.9 8.61 125.13 8.57 124.37 8.48 126.18 8.4 127.99 8.38 129.8 8.34 134.01 8.89 138.28 8.15 142.46 8.14 142.52 8.07 142.54 8.02 142.51 6.35 141.55 5.31 139.96 5.16 138.03 5.05 136.67 5.13 135.27 5.22 133.91 5.3 132.55 5.43 131.18 5.57 129.82 5.86 127.08 6.17 124.35 6.42 121.6 6.67 118.81 6.92 116.02 7.18 113.24 7.71 107.72 8.33 102.21 9.23 96.75 9.25 96.66 9.37 96.68 9.39 96.75 9.85 98.19 10.2 99.67 10.51 101.15 11.05 103.74 11.49 106.36 12.27 108.9 13.01 111.29 13.78 113.67 14.47 116.08 15.11 118.31 15.74 120.56 16.46 122.77 15.41 117.72 14.57 112.64 13.81 107.54 13.02 102.21 12.25 96.88 11.53 91.54 11.16 88.82 10.84 86.09 10.63 83.35 10.42 80.72 10.28 78.08 10.4 75.45 10.57 71.76 11.15 67.95 10.91 64.23L2.76 143.32C2.76 143.32 11.77 144.95 18.01 146.17L36.42 146.17C42.66 144.95 51.97 143.32 51.97 143.32 51.97 143.32 51.96 143.17 51.93 142.88 51.59 142.79 51.24 142.65 50.91 142.49Z" fill="#E8E8E8"/></g></g><g><path d="M28.22 67.77 27.27 68.77 26.31 67.77 26.31 40.58 28.22 40.58Z" fill="#FFFFFF"/><path d="M27.27 68.85C27.25 68.85 27.22 68.84 27.21 68.82L26.26 67.83C26.24 67.81 26.24 67.79 26.24 67.77L26.24 40.58C26.24 40.53 26.28 40.49 26.33 40.49L28.24 40.49C28.29 40.49 28.33 40.53 28.33 40.58L28.33 67.77C28.33 67.79 28.32 67.81 28.31 67.83L27.36 68.82C27.31 68.84 27.29 68.85 27.27 68.85ZM26.4 67.74 27.27 68.65 28.14 67.74 28.14 40.67 26.4 40.67 26.4 67.74Z" fill="#C9C9C9"/></g><g><path d="M24.23 38.09 23.41 40.35C23.41 40.35 24.93 42.25 27.25 42.76L27.33 38.86 24.23 38.09Z" fill="#FFFFFF"/><path d="M27.26 42.84C27.25 42.84 27.25 42.84 27.24 42.84 24.91 42.33 23.36 40.42 23.35 40.4 23.33 40.38 23.33 40.35 23.34 40.32L24.16 38.06C24.17 38.02 24.22 38 24.26 38.01L27.37 38.78C27.41 38.79 27.44 38.82 27.43 38.86L27.35 42.76C27.35 42.79 27.34 42.81 27.32 42.83 27.3 42.84 27.28 42.84 27.26 42.84ZM23.51 40.33C23.73 40.59 25.14 42.16 27.17 42.65L27.25 38.93 24.28 38.2 23.51 40.33Z" fill="#C9C9C9"/></g><g><path d="M30.21 38.09 31.03 40.35C31.03 40.35 29.51 42.25 27.19 42.76L27.11 38.86 30.21 38.09Z" fill="#FFFFFF"/><path d="M27.18 42.84C27.16 42.84 27.14 42.83 27.13 42.82 27.11 42.8 27.1 42.78 27.1 42.75L27.02 38.85C27.02 38.81 27.05 38.77 27.08 38.77L30.19 38C30.23 37.99 30.28 38.01 30.29 38.05L31.11 40.31C31.12 40.34 31.12 40.37 31.1 40.39 31.08 40.41 29.53 42.32 27.21 42.83 27.19 42.84 27.19 42.84 27.18 42.84ZM27.19 38.93 27.27 42.65C29.31 42.16 30.71 40.59 30.93 40.33L30.15 38.19 27.19 38.93Z" fill="#C9C9C9"/></g><g><g><path d="M27.8 43.76C27.8 44.06 27.56 44.3 27.26 44.3 26.96 44.3 26.72 44.06 26.72 43.76 26.72 43.46 26.96 43.22 27.26 43.22 27.56 43.22 27.8 43.46 27.8 43.76Z" fill="#FFFFFF"/><path d="M27.27 44.38C26.93 44.38 26.65 44.1 26.65 43.76 26.65 43.42 26.93 43.13 27.27 43.13 27.61 43.13 27.89 43.41 27.89 43.76 27.89 44.1 27.61 44.38 27.27 44.38ZM27.27 43.3C27.02 43.3 26.82 43.5 26.82 43.75 26.82 44 27.02 44.2 27.27 44.2 27.52 44.2 27.72 44 27.72 43.75 27.72 43.51 27.52 43.3 27.27 43.3Z" fill="#C9C9C9"/></g><g><path d="M27.8 49.57C27.8 49.87 27.56 50.11 27.26 50.11 26.96 50.11 26.72 49.87 26.72 49.57 26.72 49.27 26.96 49.03 27.26 49.03 27.56 49.04 27.8 49.28 27.8 49.57Z" fill="#FFFFFF"/><path d="M27.27 50.2C26.93 50.2 26.65 49.92 26.65 49.58 26.65 49.24 26.93 48.96 27.27 48.96 27.61 48.96 27.89 49.24 27.89 49.58 27.89 49.92 27.61 50.2 27.27 50.2ZM27.27 49.12C27.02 49.12 26.82 49.32 26.82 49.57 26.82 49.82 27.02 50.02 27.27 50.02 27.52 50.02 27.72 49.82 27.72 49.57 27.72 49.32 27.52 49.12 27.27 49.12Z" fill="#C9C9C9"/></g><g><path d="M27.8 55.39C27.8 55.69 27.56 55.93 27.26 55.93 26.96 55.93 26.72 55.69 26.72 55.39 26.72 55.09 26.96 54.85 27.26 54.85 27.56 54.85 27.8 55.09 27.8 55.39Z" fill="#FFFFFF"/><path d="M27.27 56.02C26.93 56.02 26.65 55.74 26.65 55.4 26.65 55.06 26.93 54.77 27.27 54.77 27.61 54.77 27.89 55.05 27.89 55.4 27.89 55.74 27.61 56.02 27.27 56.02ZM27.27 54.94C27.02 54.94 26.82 55.14 26.82 55.39 26.82 55.64 27.02 55.84 27.27 55.84 27.52 55.84 27.72 55.64 27.72 55.39 27.72 55.14 27.52 54.94 27.27 54.94Z" fill="#C9C9C9"/></g><g><path d="M27.8 61.21C27.8 61.51 27.56 61.75 27.26 61.75 26.96 61.75 26.72 61.51 26.72 61.21 26.72 60.91 26.96 60.67 27.26 60.67 27.56 60.67 27.8 60.91 27.8 61.21Z" fill="#FFFFFF"/><path d="M27.27 61.83C26.93 61.83 26.65 61.55 26.65 61.21 26.65 60.87 26.93 60.59 27.27 60.59 27.61 60.59 27.89 60.87 27.89 61.21 27.89 61.55 27.61 61.83 27.27 61.83ZM27.27 60.75C27.02 60.75 26.82 60.95 26.82 61.2 26.82 61.45 27.02 61.65 27.27 61.65 27.52 61.65 27.72 61.45 27.72 61.2 27.72 60.96 27.52 60.75 27.27 60.75Z" fill="#C9C9C9"/></g></g></g><g><path d="M29.95 51.21 38.08 50.29 38.76 57.49C38.76 57.49 36.71 59.6 34.54 60.67 34.54 60.67 30.77 59.37 30.48 58.13L29.95 51.21Z" fill="#E8E8E8"/><path d="M34.53 60.75C34.52 60.75 34.51 60.75 34.5 60.75 34.34 60.7 30.68 59.42 30.38 58.15L29.86 51.21C29.86 51.16 29.89 51.12 29.94 51.12L38.07 50.2C38.09 50.2 38.12 50.2 38.13 50.22 38.15 50.23 38.16 50.26 38.16 50.28L38.84 57.48C38.84 57.51 38.83 57.53 38.82 57.55 38.8 57.57 36.73 59.69 34.57 60.74 34.56 60.75 34.55 60.75 34.53 60.75ZM30.04 51.28 30.56 58.12C30.83 59.22 34.16 60.44 34.53 60.57 36.52 59.59 38.42 57.7 38.67 57.45L38 50.39 30.04 51.28Z" fill="#C9C9C9"/></g><path d="M29.95 51.21 38.08 50.29 30.52 51.67C30.52 51.67 30.4 54.74 31.03 57.87 31.08 58.15 32.95 60.08 34.54 60.66 34.54 60.66 30.77 59.36 30.48 58.12L29.95 51.21Z" fill="#FFFFFF"/></g><g><path d="M13.17 100.93C12.41 95.74 11.51 90.56 11.15 85.32 10.97 82.69 10.84 80.07 10.73 77.44 10.68 76.18 10.6 74.92 10.5 73.67 10.39 72.33 10.5 70.96 10.45 69.61 10.45 69.56 10.36 69.62 10.36 69.65 10.37 70.92 10.3 72.18 10.31 73.44 10.31 74.61 10.43 75.78 10.47 76.95 10.57 79.6 10.64 82.24 10.79 84.89 11.09 90.25 12 95.54 12.75 100.85 13.49 106.08 14.35 111.28 15.35 116.47 16.38 121.8 17.47 127.11 19.06 132.3 19.1 132.43 19.29 132.26 19.26 132.17 16.38 121.98 14.7 111.4 13.17 100.93Z" fill="#C3C3C3" opacity="0.6"/><path d="M8.71 121.77C8.62 117.4 8.61 112.99 8.76 108.61 8.74 108.16 8.71 107.71 8.68 107.26 8.67 107.14 8.66 107.01 8.65 106.89 8.37 111.69 8.31 116.52 8.39 121.32 8.51 128.45 9.07 135.51 9.68 142.61 9.69 142.71 9.84 142.59 9.84 142.51 9.43 135.59 8.86 128.71 8.71 121.77Z" fill="#C3C3C3" opacity="0.6"/><path d="M45.61 92.27C45.67 89.65 45.62 87.02 45.5 84.4 45.44 83.12 45.31 81.84 45.2 80.55 45.09 79.24 45.16 77.94 44.87 76.65 44.86 76.59 44.77 76.66 44.78 76.7 45 77.92 44.91 79.13 44.97 80.35 45.04 81.64 45.15 82.94 45.22 84.23 45.36 87.04 45.37 89.88 45.3 92.7 45.16 98.21 45.51 103.72 45.41 109.24 45.31 114.7 44.98 120.16 44.84 125.62 44.7 131.09 44.48 136.59 43.82 142.03 43.8 142.18 43.99 142.05 44.01 141.96 44.46 139.24 44.6 136.47 44.79 133.73 44.98 130.99 45.07 128.26 45.15 125.51 45.3 119.93 45.64 114.37 45.74 108.79 45.83 103.28 45.49 97.78 45.61 92.27Z" fill="#C3C3C3" opacity="0.6"/><path d="M33.7 113.97C32.16 124.02 29.84 133.88 26.56 143.5 26.47 143.76 26.81 143.65 26.87 143.47 30.22 133.86 32.37 123.99 33.81 113.93 33.82 113.85 33.71 113.92 33.7 113.97Z" fill="#C3C3C3" opacity="0.6"/></g><path d="M17.14 110.76C16.95 109.8 16.97 108.73 16.89 107.75 16.72 105.67 16.44 103.56 16.14 101.5 15.51 97.1 15.1 92.66 14.65 88.24 14.25 84.25 13.91 80.27 13.76 76.26 13.69 74.27 13.57 72.28 13.48 70.29 13.38 68.19 13.61 66.02 13.35 63.93 13.34 63.86 13.24 63.95 13.24 64 13.4 66.04 13.13 68.16 13.12 70.21 13.11 72.23 13.18 74.26 13.22 76.28 13.27 78.27 13.22 80.27 13.39 82.25 13.57 84.39 13.74 86.53 13.94 88.67 14.34 92.99 14.72 97.33 15.35 101.62 15.65 103.69 15.88 105.75 16.24 107.81 16.41 108.77 16.52 109.74 16.68 110.71 16.85 111.74 17.23 112.73 17.43 113.77 17.45 113.86 17.57 113.75 17.57 113.69 17.49 112.7 17.33 111.73 17.14 110.76Z" fill="#FFFFFF"/><path d="M11.38 132.58C11.28 130.22 11.08 127.87 10.9 125.51 10.74 123.42 10.6 121.33 10.46 119.23 10.32 117.24 10.36 115.18 9.98 113.21 9.96 113.1 9.81 113.24 9.81 113.31 9.96 115.39 9.81 117.52 9.83 119.6 9.85 121.73 9.97 123.84 10.12 125.97 10.29 128.29 10.52 130.58 10.86 132.89 11.19 135.18 11.26 137.51 11.6 139.79 11.62 139.94 11.82 139.75 11.82 139.66 11.83 137.3 11.49 134.94 11.38 132.58Z" fill="#FFFFFF"/><path d="M37.31 102.5C37.06 105.26 36.74 108.04 36.24 110.77 35.71 113.62 34.97 116.39 34.58 119.27 34.21 122.03 33.47 124.75 32.9 127.47 32.31 130.31 31.84 133.18 31.26 136.03 31.23 136.18 31.44 136.07 31.46 135.98 32.23 133.3 32.88 130.57 33.5 127.85 34.15 125.03 34.84 122.18 35.27 119.31 35.47 117.98 35.6 116.66 35.87 115.34 36.17 113.87 36.44 112.4 36.68 110.92 37.13 108.13 37.29 105.27 37.46 102.46 37.48 102.32 37.32 102.43 37.31 102.5Z" fill="#FFFFFF"/></g><g><g><g><g><g><g><g><g><path d="M14.94 24.31C14.94 24.31 14.26 23.22 13.45 23.34 12.64 23.46 11.31 24.73 11.28 26.34 11.25 27.95 14.75 29.89 15.07 30.03 15.39 30.18 16.14 26.7 14.94 24.31Z" fill="#F1BA95"/><path d="M15.09 30.12 15.09 30.12C15.07 30.12 15.05 30.12 15.03 30.11 14.99 30.09 11.16 28.08 11.19 26.34 11.22 24.74 12.55 23.38 13.43 23.25 14.28 23.13 14.97 24.22 15 24.26 16.08 26.42 15.6 29.42 15.26 29.99 15.25 30.02 15.19 30.12 15.09 30.12ZM13.57 23.41C13.53 23.41 13.5 23.41 13.46 23.42 12.74 23.53 11.39 24.72 11.36 26.34 11.33 27.82 14.56 29.69 15.09 29.95 15.37 29.73 15.96 26.55 14.86 24.35 14.86 24.35 14.27 23.41 13.57 23.41Z" fill="#E19770"/></g></g><path d="M12.65 25.57C12.65 25.57 12.64 25.48 12.66 25.33 12.67 25.25 12.69 25.16 12.73 25.06 12.77 24.96 12.87 24.82 13.05 24.81 13.22 24.8 13.37 24.87 13.5 24.97 13.57 25.01 13.63 25.07 13.69 25.12 13.75 25.17 13.82 25.24 13.87 25.3 13.98 25.41 14.1 25.56 14.19 25.71 14.29 25.86 14.37 26.01 14.46 26.17 14.53 26.33 14.61 26.49 14.67 26.66 14.73 26.82 14.78 26.99 14.82 27.14 14.87 27.3 14.9 27.45 14.93 27.6 14.96 27.75 14.98 27.89 14.99 28.02 15.02 28.28 15.01 28.5 15.01 28.66 15 28.72 15 28.78 14.98 28.82 14.97 28.86 14.96 28.88 14.96 28.88 14.96 28.88 14.96 28.86 14.96 28.82 14.96 28.78 14.95 28.72 14.95 28.65 14.93 28.5 14.89 28.29 14.83 28.04 14.71 27.54 14.51 26.89 14.21 26.28 14.13 26.13 14.05 25.98 13.97 25.84 13.88 25.7 13.8 25.57 13.69 25.45 13.64 25.38 13.59 25.33 13.54 25.28 13.49 25.22 13.44 25.17 13.38 25.13 13.27 25.04 13.16 24.97 13.06 24.97 12.96 24.96 12.88 25.04 12.82 25.12 12.77 25.2 12.73 25.29 12.71 25.36 12.66 25.48 12.65 25.57 12.65 25.57Z" fill="#BB6736"/><path d="M13.11 27.47C13.11 27.47 13.24 27.52 13.43 27.6 13.48 27.62 13.53 27.64 13.58 27.66 13.63 27.68 13.69 27.69 13.74 27.72 13.8 27.73 13.85 27.75 13.91 27.76 13.97 27.77 14.03 27.78 14.08 27.78 14.14 27.78 14.19 27.78 14.24 27.77 14.26 27.76 14.28 27.75 14.31 27.75 14.33 27.74 14.35 27.72 14.37 27.71 14.41 27.69 14.44 27.65 14.48 27.61 14.52 27.58 14.54 27.53 14.56 27.49 14.62 27.41 14.64 27.33 14.67 27.28 14.7 27.23 14.72 27.2 14.72 27.2 14.72 27.2 14.72 27.23 14.73 27.29 14.73 27.35 14.74 27.44 14.71 27.54 14.69 27.59 14.69 27.65 14.65 27.71 14.62 27.76 14.59 27.83 14.53 27.88 14.5 27.9 14.47 27.93 14.44 27.96 14.4 27.98 14.37 28 14.33 28.01 14.25 28.03 14.17 28.05 14.09 28.05 14.01 28.05 13.93 28.03 13.86 28.01 13.79 27.99 13.72 27.96 13.66 27.93 13.54 27.87 13.44 27.8 13.36 27.73 13.19 27.59 13.11 27.47 13.11 27.47Z" fill="#BB6736"/><path d="M14.94 24.31C14.94 24.31 14.26 23.22 13.45 23.34 12.79 23.44 11.78 24.3 11.42 25.49 12.18 26.04 13.39 25.94 13.56 27.14 13.57 27.23 13.48 27.29 13.4 27.28 13.12 27.24 12.87 27.16 12.65 27.03 12.91 27.52 13.33 27.91 13.59 28.42 13.67 28.57 13.82 28.9 13.61 29.04 13.58 29.06 13.56 29.07 13.53 29.08 14.27 29.6 14.94 29.96 15.07 30.02 15.39 30.18 16.14 26.7 14.94 24.31Z" fill="#F0AF85" opacity="0.4"/></g><path d="M12.55 27.41C12.39 27.13 12.24 26.84 12.1 26.55 12.03 26.4 11.92 26.26 11.87 26.09 11.85 26.03 11.79 26.03 11.73 26.03 11.72 26.03 11.71 26.04 11.71 26.05 11.67 26.16 11.59 26.24 11.58 26.37 11.57 26.52 11.68 26.71 11.74 26.84 11.88 27.14 12.09 27.44 12.41 27.58 12.49 27.62 12.59 27.48 12.55 27.41Z" fill="#F1BA95" opacity="0.5"/></g><g><g><g><g><path d="M36.32 20.9C36.32 20.9 36.63 19.65 37.43 19.51 38.23 19.37 39.9 20.16 40.43 21.69 40.96 23.21 38.23 26.14 37.98 26.38 37.72 26.61 35.93 23.54 36.32 20.9Z" fill="#F1BA95"/><path d="M37.94 26.47C37.86 26.47 37.78 26.41 37.67 26.28 37.13 25.65 35.91 23.12 36.24 20.88 36.26 20.82 36.57 19.57 37.42 19.42 37.48 19.41 37.55 19.4 37.63 19.4 38.1 19.4 38.69 19.62 39.22 19.98 39.65 20.28 40.23 20.82 40.52 21.65 41.09 23.3 38.08 26.4 38.04 26.43 38.01 26.46 37.98 26.47 37.94 26.47ZM37.62 19.58C37.56 19.58 37.5 19.58 37.44 19.59 36.7 19.72 36.4 20.9 36.4 20.92 36.03 23.41 37.59 26.18 37.93 26.3 38.35 25.9 40.84 23.12 40.35 21.71 39.87 20.34 38.43 19.58 37.62 19.58Z" fill="#E19770"/></g></g><path d="M38.89 21.38C38.89 21.38 38.87 21.29 38.81 21.15 38.78 21.08 38.73 21 38.66 20.91 38.59 20.83 38.45 20.73 38.28 20.77 38.12 20.81 37.99 20.93 37.9 21.06 37.85 21.12 37.8 21.19 37.76 21.26 37.72 21.33 37.67 21.41 37.64 21.48 37.57 21.62 37.51 21.8 37.46 21.97 37.41 22.14 37.38 22.32 37.35 22.49 37.33 22.67 37.31 22.84 37.31 23.02 37.3 23.19 37.3 23.36 37.31 23.53 37.32 23.69 37.33 23.85 37.35 24 37.37 24.15 37.39 24.29 37.42 24.42 37.48 24.68 37.55 24.89 37.6 25.03 37.63 25.1 37.66 25.15 37.68 25.19 37.7 25.22 37.71 25.24 37.71 25.24 37.71 25.24 37.7 25.22 37.69 25.18 37.67 25.14 37.67 25.08 37.65 25.01 37.62 24.86 37.59 24.65 37.57 24.39 37.53 23.88 37.52 23.19 37.61 22.52 37.64 22.35 37.66 22.19 37.71 22.02 37.75 21.86 37.79 21.71 37.86 21.56 37.89 21.48 37.92 21.42 37.95 21.35 37.98 21.28 38.01 21.22 38.06 21.16 38.13 21.04 38.22 20.94 38.32 20.91 38.41 20.87 38.51 20.91 38.59 20.98 38.67 21.04 38.72 21.11 38.77 21.17 38.85 21.3 38.89 21.38 38.89 21.38Z" fill="#BB6736"/><path d="M39.04 23.33C39.04 23.33 38.94 23.42 38.78 23.55 38.74 23.58 38.7 23.61 38.66 23.65 38.62 23.69 38.57 23.72 38.52 23.76 38.47 23.79 38.42 23.83 38.37 23.86 38.32 23.89 38.27 23.92 38.21 23.93 38.16 23.95 38.11 23.96 38.06 23.96 38.04 23.96 38.01 23.96 37.99 23.96 37.97 23.96 37.94 23.95 37.92 23.94 37.87 23.93 37.83 23.9 37.79 23.88 37.74 23.86 37.71 23.82 37.67 23.79 37.59 23.73 37.54 23.67 37.5 23.63 37.46 23.59 37.43 23.57 37.43 23.57 37.43 23.57 37.44 23.6 37.45 23.66 37.47 23.72 37.48 23.8 37.55 23.89 37.58 23.93 37.6 23.99 37.66 24.03 37.71 24.07 37.76 24.13 37.83 24.15 37.87 24.16 37.9 24.18 37.94 24.19 37.98 24.2 38.02 24.2 38.06 24.2 38.14 24.2 38.23 24.19 38.3 24.16 38.38 24.13 38.44 24.09 38.5 24.05 38.57 24.01 38.61 23.96 38.66 23.91 38.76 23.81 38.83 23.72 38.88 23.63 39 23.46 39.04 23.33 39.04 23.33Z" fill="#BB6736"/><path d="M36.32 20.9C36.32 20.9 36.63 19.65 37.43 19.51 38.08 19.4 39.32 19.9 40.03 20.92 39.48 21.68 38.3 21.96 38.51 23.16 38.53 23.25 38.63 23.28 38.71 23.24 38.96 23.11 39.17 22.96 39.35 22.77 39.25 23.32 38.98 23.82 38.88 24.38 38.85 24.55 38.82 24.91 39.05 24.98 39.08 24.99 39.11 24.99 39.14 25 38.6 25.72 38.07 26.28 37.97 26.38 37.72 26.61 35.93 23.54 36.32 20.9Z" fill="#F0AF85" opacity="0.4"/></g><path d="M39.56 23.1C39.63 22.78 39.68 22.46 39.72 22.14 39.74 21.97 39.8 21.8 39.79 21.63 39.79 21.56 39.85 21.54 39.91 21.53 39.92 21.53 39.93 21.53 39.94 21.54 40.01 21.64 40.11 21.68 40.16 21.8 40.22 21.94 40.17 22.15 40.15 22.3 40.1 22.63 40 22.98 39.75 23.21 39.68 23.28 39.54 23.17 39.56 23.1Z" fill="#F1BA95" opacity="0.5"/></g><g><path d="M36.92 18.97C36.92 18.97 36.92 18.96 36.92 18.97 36.92 18.86 36.92 18.76 36.92 18.66 36.94 16.79 37.68 14.78 36.78 13.01 35.88 11.24 34.47 9.93 32.8 9.15 29.9 7.8 26.72 7.34 23.63 7.57L22.89 7.69C19.88 8.43 17 9.85 14.66 12.04 13.31 13.3 12.38 14.98 12.08 16.95 11.77 18.92 13.1 20.6 13.7 22.37 13.73 22.47 13.76 22.56 13.79 22.66 13.79 22.66 13.79 22.67 13.79 22.67 14.26 24.26 14.43 25.94 14.32 27.59 14.22 29.06 17.8 36.02 21.42 36.82 23.58 37.3 25.89 38.01 28.02 37.52 30.2 37.33 32.17 35.93 34.08 34.8 37.27 32.92 38.51 25.19 37.95 23.82 37.33 22.28 36.97 20.63 36.92 18.97Z" fill="#F1BA95"/><path d="M26.47 37.76 26.47 37.76C25.11 37.76 23.72 37.43 22.37 37.12 22.04 37.04 21.72 36.97 21.39 36.9 19.25 36.43 17.34 33.94 16.39 32.5 15.14 30.6 14.17 28.4 14.22 27.58 14.33 25.93 14.15 24.24 13.69 22.69 13.67 22.61 13.64 22.53 13.62 22.46L13.6 22.4C13.42 21.87 13.17 21.34 12.93 20.83 12.35 19.61 11.76 18.35 11.98 16.95 12.28 15.03 13.18 13.31 14.59 11.99 16.81 9.91 19.67 8.39 22.86 7.62L23.61 7.5C26.94 7.24 30.06 7.79 32.83 9.08 34.58 9.9 35.97 11.24 36.85 12.98 37.49 14.24 37.32 15.63 37.15 16.97 37.08 17.53 37.01 18.12 37 18.67L37 18.73C37 18.81 37 18.89 37 18.97 37.05 20.59 37.4 22.26 38.02 23.79 38.33 24.55 38.09 26.95 37.49 29.14 37.04 30.8 35.99 33.76 34.11 34.87 33.83 35.04 33.54 35.21 33.25 35.39 31.6 36.4 29.89 37.44 28.01 37.6 27.54 37.71 27.03 37.76 26.47 37.76ZM25.17 7.6C24.66 7.6 24.14 7.62 23.62 7.66L22.88 7.78C19.73 8.55 16.9 10.05 14.7 12.11 13.32 13.4 12.44 15.08 12.14 16.97 11.93 18.32 12.51 19.56 13.08 20.75 13.32 21.27 13.58 21.8 13.76 22.34L13.78 22.4C13.8 22.48 13.83 22.55 13.85 22.63 13.85 22.63 13.86 22.65 13.86 22.65 14.32 24.21 14.51 25.92 14.39 27.59 14.29 29.09 17.9 35.96 21.42 36.73 21.74 36.8 22.07 36.88 22.4 36.95 23.74 37.26 25.12 37.59 26.46 37.59L26.46 37.59C27.01 37.59 27.51 37.54 27.99 37.43 29.83 37.27 31.53 36.24 33.16 35.24 33.45 35.06 33.74 34.89 34.02 34.72 37.12 32.89 38.42 25.24 37.86 23.85 37.23 22.3 36.87 20.61 36.83 18.98 36.83 18.89 36.83 18.81 36.83 18.73L36.83 18.67C36.84 18.1 36.91 17.51 36.98 16.94 37.14 15.63 37.31 14.27 36.69 13.05 35.83 11.35 34.46 10.03 32.75 9.23 30.44 8.15 27.89 7.6 25.17 7.6Z" fill="#E19770"/></g><path d="M36.92 18.97C36.92 18.97 36.92 18.96 36.92 18.97 36.92 18.86 36.92 18.76 36.92 18.66 36.94 16.79 37.68 14.78 36.78 13.01 35.88 11.24 34.47 9.93 32.8 9.15 29.9 7.8 26.72 7.34 23.63 7.57L22.89 7.69C19.88 8.43 17 9.85 14.66 12.04 13.31 13.3 12.38 14.98 12.08 16.95 11.77 18.92 13.1 20.6 13.7 22.37 13.73 22.47 13.76 22.56 13.79 22.66 13.79 22.66 13.79 22.67 13.79 22.67 14.26 24.26 14.43 25.94 14.32 27.59 14.22 29.06 17.8 36.02 21.42 36.82 23.58 37.3 25.89 38.01 28.02 37.52 30.2 37.33 32.17 35.93 34.08 34.8 37.27 32.92 38.51 25.19 37.95 23.82 37.33 22.28 36.97 20.63 36.92 18.97ZM36.14 23.06C36.09 23.74 36.16 24.42 36.19 25.1 36.23 25.12 36.26 25.15 36.26 25.2 36.26 26.29 36.3 27.39 36.21 28.49 36.15 29.2 36.07 30.02 35.6 30.59 35.56 30.64 35.48 30.65 35.44 30.59 34.94 29.92 34.88 28.99 34.39 28.34 34.26 28.27 34.11 28.22 33.93 28.18 33.11 28.01 32.27 27.97 31.43 27.97 29.57 27.97 27.76 28.13 25.93 28.47 24.12 28.81 22.32 29.26 20.63 29.98 19.95 30.27 19.26 30.59 19.05 31.37 18.84 32.15 18.95 32.96 18.81 33.74 18.8 33.8 18.73 33.86 18.67 33.82 17.82 33.41 17.23 32.57 16.71 31.81 16.13 30.96 15.5 30.1 15.27 29.08 14.97 27.77 15.24 26.41 15.12 25.08 15 23.8 14.58 22.6 14.13 21.41 13.55 20.89 13.79 20.21 14.34 19.62 15.02 18.89 15.92 18.33 16.78 17.83 18.04 17.1 19.37 16.5 20.77 16.09 23.56 15.26 26.59 15.18 29.44 15.77 30.81 16.05 32.18 16.47 33.44 17.08 34.43 17.57 35.47 18.23 35.99 19.25 36.6 20.52 36.23 21.75 36.14 23.06Z" fill="#F0AF85" opacity="0.4"/><g><path d="M18.81 20.66C17.56 20.86 16.39 21.73 16.14 23.02 15.97 23.9 15.92 24.96 16.34 25.79 17.55 25.89 18.75 25.81 19.96 25.69 21.08 25.57 22.29 25.43 23.24 24.76 23.26 24.74 23.29 24.74 23.31 24.74 23.35 23.71 22.63 22.49 21.99 21.79 21.18 20.9 20.01 20.47 18.81 20.66Z" fill="#F0AF85" opacity="0.7"/><path d="M29.29 19.51C28.07 20.64 27.64 22.39 28.12 23.96 28.53 24 28.94 24.07 29.35 24.07 29.91 24.06 30.48 24.03 31.04 23.95 31.81 23.84 32.57 23.65 33.3 23.39 33.87 23.19 34.84 22.89 34.89 22.16 34.95 21.26 34.66 20.35 34.04 19.69 32.76 18.33 30.68 18.22 29.29 19.51Z" fill="#F0AF85" opacity="0.7"/></g><path d="M36.1 23.38C36.05 23.37 35.98 23.38 35.91 23.41 35.91 23.41 35.9 23.41 35.9 23.41 35.57 23.32 35.21 23.72 35 23.9 34.83 24.05 33.35 25 33.82 25.33 34.46 25.78 35.44 25.41 35.98 24.96 36.31 24.67 36.79 23.56 36.1 23.38Z" fill="#F1BA95" opacity="0.5"/><path d="M18.41 27.2C18.06 26.97 17.65 26.85 17.31 26.61 16.87 26.3 16.25 25.38 15.67 25.44 14.91 25.51 15.37 26.89 15.52 27.29 15.9 28.34 16.8 28.52 17.79 28.15 18.05 28.06 18.93 27.54 18.41 27.2Z" fill="#F1BA95" opacity="0.5"/><g><g><g><path d="M19.75 25.57C14.97 26.42 16.1 21.13 18.92 20.63 20.21 20.4 21.91 21.24 22.61 23.28 23.07 24.61 22.34 25.11 19.75 25.57Z" fill="#FFFFFF"/><path d="M18.79 25.75C17.4 25.75 16.51 25.06 16.41 23.9 16.29 22.55 17.33 20.82 18.91 20.54 19.05 20.51 19.2 20.5 19.35 20.5 20.55 20.5 22.05 21.35 22.7 23.24 22.88 23.77 22.88 24.16 22.69 24.47 22.38 25 21.56 25.33 19.78 25.64 19.42 25.72 19.09 25.75 18.79 25.75ZM19.35 20.67C19.21 20.67 19.07 20.68 18.94 20.71 17.45 20.97 16.47 22.6 16.58 23.89 16.67 24.97 17.48 25.58 18.79 25.58 19.08 25.58 19.4 25.55 19.74 25.49 21.45 25.19 22.26 24.87 22.54 24.4 22.7 24.13 22.7 23.78 22.53 23.31 21.91 21.49 20.48 20.67 19.35 20.67Z" fill="#CFCFCF"/></g></g></g><g><path d="M18.06 23.33C18.25 24.6 19.11 25.52 19.97 25.39 20.83 25.26 21.37 24.12 21.17 22.85 20.97 21.58 20.12 20.66 19.26 20.79 18.4 20.93 17.86 22.06 18.06 23.33Z" fill="#734737"/><path d="M18.44 23.37C18.59 24.34 19.24 25.04 19.9 24.94 20.56 24.84 20.97 23.97 20.82 23 20.67 22.03 20.02 21.33 19.36 21.43 18.7 21.53 18.29 22.4 18.44 23.37Z" fill="#935B46"/><path d="M18.68 23.27C18.8 24.03 19.31 24.59 19.83 24.51 20.35 24.43 20.67 23.74 20.55 22.98 20.43 22.21 19.92 21.66 19.4 21.74 18.89 21.82 18.56 22.5 18.68 23.27Z" fill="#1C0B00"/><path d="M21.09 22.49C21.12 22.61 21.15 22.73 21.17 22.85 21.36 24.12 20.82 25.26 19.97 25.39 19.11 25.52 18.26 24.6 18.06 23.33 18.04 23.21 18.03 23.1 18.03 22.98 19.06 23.53 20.45 23.48 21.09 22.49Z" fill="#734737" opacity="0.5"/><path d="M18.48 22.1C18.43 22.44 18.57 22.74 18.8 22.77 19.03 22.8 19.26 22.56 19.32 22.22 19.38 21.88 19.23 21.58 19 21.54 18.77 21.52 18.53 21.76 18.48 22.1Z" fill="#FFFFFF"/><path d="M18.49 23.52C18.49 23.69 18.58 23.83 18.7 23.83 18.82 23.83 18.91 23.69 18.92 23.51 18.92 23.33 18.82 23.19 18.71 23.2 18.59 23.2 18.49 23.35 18.49 23.52Z" fill="#FFFFFF"/></g><g><g><g><path d="M31.63 23.67C36.44 22.99 33.71 18.31 30.88 18.71 29.58 18.89 28.23 20.22 28.2 22.37 28.18 23.79 29.03 24.04 31.63 23.67Z" fill="#FFFFFF"/><path d="M29.91 23.91 29.91 23.91C29.2 23.91 28.74 23.78 28.46 23.5 28.22 23.26 28.11 22.9 28.12 22.38 28.15 20.17 29.53 18.82 30.87 18.63 30.99 18.61 31.11 18.6 31.23 18.6 32.73 18.6 34.24 19.96 34.34 21.39 34.38 21.98 34.2 23.39 31.64 23.75 30.9 23.86 30.35 23.91 29.91 23.91ZM31.23 18.78C31.12 18.78 31 18.79 30.89 18.8 29.62 18.98 28.31 20.27 28.28 22.38 28.27 22.85 28.37 23.17 28.57 23.38 28.81 23.63 29.23 23.74 29.9 23.74L29.9 23.74C30.34 23.74 30.88 23.69 31.61 23.59 33.31 23.35 34.24 22.55 34.16 21.41 34.09 20.19 32.78 18.78 31.23 18.78Z" fill="#CFCFCF"/></g></g></g><g><path d="M32.55 21.02C32.76 22.29 32.24 23.43 31.38 23.57 30.52 23.71 29.66 22.8 29.45 21.53 29.24 20.26 29.77 19.12 30.62 18.98 31.47 18.84 32.34 19.75 32.55 21.02Z" fill="#734737"/><path d="M32.2 21.17C32.36 22.14 31.96 23.01 31.3 23.11 30.64 23.22 29.98 22.52 29.82 21.55 29.66 20.58 30.06 19.71 30.72 19.61 31.38 19.51 32.04 20.2 32.2 21.17Z" fill="#935B46"/><path d="M31.94 21.15C32.07 21.91 31.75 22.6 31.23 22.69 30.71 22.77 30.19 22.22 30.07 21.46 29.94 20.7 30.26 20.01 30.78 19.92 31.29 19.84 31.81 20.39 31.94 21.15Z" fill="#1C0B00"/><path d="M29.41 21.16C29.42 21.28 29.43 21.4 29.45 21.53 29.66 22.8 30.53 23.71 31.38 23.57 32.24 23.43 32.76 22.29 32.55 21.02 32.53 20.9 32.5 20.79 32.47 20.68 31.65 21.52 30.32 21.9 29.41 21.16Z" fill="#734737" opacity="0.5"/><path d="M31.77 19.98C31.93 20.29 31.89 20.62 31.68 20.72 31.47 20.82 31.17 20.66 31.02 20.36 30.86 20.06 30.9 19.72 31.11 19.62 31.31 19.51 31.61 19.68 31.77 19.98Z" fill="#FFFFFF"/><path d="M32.2 21.33C32.25 21.5 32.21 21.66 32.09 21.69 31.98 21.72 31.84 21.62 31.79 21.45 31.74 21.28 31.78 21.12 31.9 21.09 32.01 21.06 32.14 21.17 32.2 21.33Z" fill="#FFFFFF"/></g><g><g><g><path d="M19.28 21.15C20.07 21.11 21 21.36 21.64 21.84 21.84 21.99 22.01 22.15 22.17 22.33 21.34 20.98 19.99 20.44 18.92 20.63 17.61 20.86 16.67 22.13 16.51 23.33 16.96 22.17 18.09 21.21 19.28 21.15Z" fill="#F1BA95"/><path d="M16.51 23.41C16.5 23.41 16.5 23.41 16.49 23.41 16.45 23.4 16.42 23.36 16.43 23.32 16.58 22.16 17.5 20.79 18.91 20.54 19.05 20.51 19.2 20.5 19.35 20.5 20.45 20.5 21.56 21.18 22.23 22.26 22.25 22.28 22.26 22.3 22.26 22.32 22.26 22.37 22.22 22.41 22.17 22.41 22.15 22.41 22.12 22.4 22.11 22.38 21.94 22.19 21.77 22.04 21.6 21.9 21.01 21.46 20.1 21.19 19.3 21.23 18.2 21.28 17.06 22.17 16.6 23.35 16.58 23.39 16.55 23.41 16.51 23.41ZM19.35 20.67C19.21 20.67 19.07 20.68 18.94 20.71 17.9 20.9 17.14 21.73 16.79 22.62 17.38 21.73 18.34 21.11 19.28 21.07 20.06 21.04 20.93 21.27 21.55 21.68 20.93 21.04 20.14 20.67 19.35 20.67Z" fill="#E19770"/></g></g></g><g><g><g><path d="M30.64 19.57C31.75 19.28 32.81 19.46 33.7 20 33.07 19.16 31.99 18.55 30.89 18.71 29.84 18.86 28.75 19.76 28.36 21.23 28.9 20.43 29.75 19.8 30.64 19.57Z" fill="#F1BA95"/><path d="M28.35 21.33C28.34 21.33 28.33 21.33 28.31 21.32 28.27 21.3 28.25 21.26 28.26 21.22 28.56 20.07 29.49 18.83 30.86 18.63 31.89 18.48 33.03 19.01 33.74 19.94 33.76 19.96 33.77 19.98 33.77 20.01 33.77 20.06 33.73 20.1 33.68 20.1 33.66 20.1 33.65 20.1 33.63 20.09 32.73 19.54 31.7 19.4 30.64 19.67 29.78 19.89 28.94 20.5 28.41 21.3 28.41 21.31 28.38 21.33 28.35 21.33ZM31.23 18.78C31.12 18.78 31 18.79 30.89 18.8 30.06 18.92 29.08 19.57 28.59 20.78 29.14 20.15 29.86 19.68 30.61 19.49 31.55 19.25 32.49 19.33 33.32 19.71 32.75 19.13 31.98 18.78 31.23 18.78Z" fill="#E19770"/></g></g></g></g><g><path d="M31.47 30.24C31.42 30.19 31.38 30.13 31.33 30.08 31.29 29.98 31.18 30.12 31.18 30.18 31.22 30.58 29.21 30.55 28.9 30.57 28.17 30.61 27.44 30.68 26.71 30.76 25.96 30.85 25.23 30.98 24.5 31.16 24.33 31.2 22.39 31.88 22.37 31.8 22.35 31.73 22.27 31.83 22.27 31.87 22.27 31.88 22.27 31.89 22.27 31.89 22.27 31.9 22.27 31.92 22.29 31.92 22.47 32 22.65 32.02 22.84 31.99 23.41 32.29 23.91 32.73 24.56 32.87 25.48 33.07 26.34 32.98 27.24 32.76 28.78 32.38 29.92 31.7 30.98 30.56 31.02 30.55 31.07 30.54 31.11 30.53 31.29 30.48 31.34 30.43 31.34 30.39 31.35 30.39 31.35 30.4 31.36 30.4 31.45 30.46 31.55 30.28 31.47 30.24Z" fill="#BB7252"/><path d="M29.39 31.79C28.66 32.23 27.81 32.46 26.99 32.65 26.12 32.86 25.23 32.86 24.37 32.58 23.92 32.43 23.52 32.14 23.08 31.96 23.54 31.83 24.02 31.53 24.44 31.42 25.59 31.11 26.75 30.95 27.94 30.82 28.85 30.72 29.84 30.8 30.75 30.64 30.33 31.05 29.92 31.47 29.39 31.79Z" fill="#8B323D"/><path d="M25.02 32.42C25.73 32.41 26.45 32.32 27.16 32.21 27.88 32.1 28.58 31.93 29.24 31.62 29.76 31.37 30.13 31.12 30.38 30.69 29.58 30.78 28.73 30.73 27.95 30.82 26.76 30.95 25.61 31.11 24.45 31.42 24.12 31.51 23.77 31.7 23.42 31.85 23.81 32.31 24.36 32.43 25.02 32.42Z" fill="#FFFFFF"/><path d="M24.89 31.47C25.58 31.33 26.29 31.24 26.99 31.17 28.1 31.06 29.25 31.05 30.31 30.69 29.53 30.77 28.71 30.73 27.95 30.81 26.76 30.94 25.61 31.1 24.45 31.41 24.09 31.51 23.7 31.73 23.31 31.88 23.86 31.86 24.34 31.58 24.89 31.47Z" fill="#D4D4D4"/><path d="M28.93 33.48C27.9 34.13 26.55 34.47 25.43 33.89 25.77 34.21 26.19 34.43 26.65 34.58 26.71 34.58 26.77 34.57 26.81 34.56 27.61 34.45 28.32 34.05 28.94 33.54 28.96 33.53 28.97 33.45 28.93 33.48Z" fill="#BB7252"/></g><path d="M25.27 27.79C24.77 27.75 24.54 27.61 24.2 27.27 23.73 26.79 23.98 26.33 24.18 25.82 24.72 24.47 24.82 23.09 24.74 21.65 24.74 21.61 24.68 21.66 24.68 21.69 24.67 22.72 24.65 23.83 24.35 24.82 24.25 25.17 24.09 25.5 23.97 25.84 23.92 26 23.78 26.18 23.67 26.37 23.64 26.52 23.61 26.68 23.59 26.83 23.65 27.08 23.74 27.33 23.86 27.56 23.9 27.61 23.94 27.66 23.99 27.71 24.28 27.96 24.65 28.04 25.04 28.1 25.13 28.11 25.23 28.12 25.31 28.14 25.64 28.18 25.97 28.23 26.26 28.37 26.01 28.01 25.73 27.83 25.27 27.79Z" fill="#BB7252"/><path d="M36.91 30.5C36.52 30.85 35.57 32.34 35.32 31.87 35.14 31.55 34.99 31.23 34.85 30.89 34.51 30.06 34.28 29.06 33.31 28.75 32.25 28.42 31.12 28.59 30.03 28.58 28.1 28.57 26.21 28.68 24.33 29.18 23.69 29.35 23.06 29.54 22.44 29.77 21.59 30.08 20.16 30.55 19.72 31.41 19.43 31.98 19.49 32.73 19.44 33.35 19.41 33.72 19.37 34.07 19.3 34.43 19.2 34.95 18.8 34.51 18.66 34.41 18.24 34.09 17.84 33.84 17.35 33.62 17.28 33.59 17.2 33.72 17.24 33.78 18.47 35.51 20.23 36.99 22.32 37.49 23.62 37.8 24.95 37.96 26.28 37.95 26.31 38.01 27.51 37.94 28.04 37.84 28.58 37.77 29.74 37.46 29.75 37.4 31.01 37 32.22 36.43 33.37 35.73 35.21 34.61 36.41 32.65 37.04 30.62 37.08 30.55 36.97 30.45 36.91 30.5ZM30.73 34.97C30.41 35.2 30.1 35.5 29.74 35.66 28.75 36.11 29.72 34.6 29.63 34.72 29.76 34.55 29.9 34.38 30.04 34.22 30.14 34.17 30.22 34.12 30.29 34.03 29.52 34.55 28.63 34.9 27.74 35.08 26.95 35.24 26.04 35.32 25.23 35.11 25.36 35.19 25.49 35.27 25.61 35.36 25.5 35.28 26.88 36.41 25.8 36.29 25.41 36.25 25.02 36.06 24.65 35.94 23.44 35.57 21.37 32.32 21.65 31.96 21.87 31.72 22.13 31.52 22.43 31.34 23.02 31.09 23.62 30.87 24.21 30.63 25.25 30.31 26.29 30.04 27.39 29.88 28.62 29.7 29.89 29.87 31.12 30.03 31.69 30.1 32.22 30.27 32.72 30.54 32.94 30.75 31.76 34.24 30.73 34.97Z" fill="#3C3C3B"/><path d="M34.96 33.73C33.91 34.45 32.86 35.32 31.56 35.49 31.49 35.5 31.41 35.42 31.45 35.35 31.9 34.34 32.65 33.48 33.06 32.45 33.35 31.71 33.95 30.26 33.05 29.72 32.22 29.22 30.98 29.13 30.03 29.1 28.74 29.06 27.43 29.2 26.16 29.45 25.02 29.68 23.9 29.99 22.82 30.39 21.98 30.71 20.68 31.26 20.87 32.38 21.03 33.3 21.63 34.19 22.2 34.91 22.88 35.77 23.7 36.48 24.49 37.23 24.56 37.3 19.56 35.88 17.64 34.24 18.85 35.76 20.46 37.02 22.36 37.47 23.66 37.78 24.99 37.94 26.32 37.93 26.35 37.99 27.55 37.92 28.08 37.82 28.62 37.75 29.78 37.44 29.79 37.38 31.05 36.98 32.26 36.41 33.41 35.71 34.54 35.02 35.43 34.01 36.1 32.86 35.72 33.18 35.35 33.46 34.96 33.73ZM30.73 34.97C30.41 35.2 30.1 35.5 29.74 35.66 28.75 36.11 29.72 34.6 29.63 34.72 29.76 34.55 29.9 34.38 30.04 34.22 30.14 34.17 30.22 34.12 30.29 34.03 29.52 34.55 28.63 34.9 27.74 35.08 26.95 35.24 26.04 35.32 25.23 35.11 25.36 35.19 25.49 35.27 25.61 35.36 25.5 35.28 26.88 36.41 25.8 36.29 25.41 36.25 25.02 36.06 24.65 35.94 23.44 35.57 21.37 32.32 21.65 31.96 21.87 31.72 22.13 31.52 22.43 31.34 23.02 31.09 23.62 30.87 24.21 30.63 25.25 30.31 26.29 30.04 27.39 29.88 28.62 29.7 29.89 29.87 31.12 30.03 31.69 30.1 32.22 30.27 32.72 30.54 32.94 30.75 31.76 34.24 30.73 34.97Z" fill="#3C3C3B" opacity="0.6"/></g><g><path d="M41.39 10.44C40.63 8.82 39.69 7.27 38.5 5.88 36.23 3.21 32.55 1 28.83 0.21 26.7-0.24 24.51 0.07 22.45 0.79 22.46 0.77 22.45 0.75 22.43 0.76 18.2 2.32 14.18 4.47 11.12 7.56 9.82 8.87 8.54 10.4 8.01 12.09 7.44 13.93 7.69 15.58 8.4 17.28 8.4 17.3 8.4 17.32 8.4 17.33 7.88 18.34 7.92 19.34 8.4 20.48 8.33 20.84 8.3 21.21 8.31 21.59 8.4 23.65 10.79 23.71 12.35 24.56 12.37 24.57 12.38 24.57 12.4 24.57 12.59 24.68 12.79 24.79 12.93 24.91 13.41 25.32 13.8 25.75 14.15 26.27 14.17 26.3 14.2 26.3 14.23 26.29 14.27 26.36 14.39 26.24 14.39 26.16 14.4 25.16 14.16 24.2 13.97 23.22 13.86 22.64 13.59 22.08 13.37 21.54 13.16 21.02 13.01 20.75 13.07 20.26 13.95 18.9 15.44 17.75 16.92 16.95 19.12 15.75 21.75 15.04 24.25 14.62 27.05 14.14 29.84 14.34 32.48 15.15 33.59 15.49 34.65 15.96 35.66 16.47 36.03 16.66 36.58 16.95 37.11 17.3 36.89 18.17 36.84 19.12 36.94 19.99 37.04 20.88 37.14 21.89 37.58 22.69 37.6 22.72 37.63 22.72 37.65 22.71 38.34 22.64 39.08 21.96 39.58 21.36 40.32 20.69 41.01 19.95 41.64 19.22 42.2 18.57 42.67 17.8 42.75 16.99 42.79 16.56 42.51 16.19 42.15 15.87 42.11 15.79 42.08 15.71 42.04 15.64 42.06 15.61 42.08 15.58 42.08 15.55 42.08 15.54 42.08 15.53 42.08 15.52 42.09 15.5 42.09 15.48 42.09 15.47 42.09 15.46 42.09 15.45 42.08 15.44 42.13 14.55 42.22 13.66 42.14 12.78 42.08 11.95 41.74 11.19 41.39 10.44Z" fill="#C9C9C9"/><path d="M41.9 14.64C41.03 11.67 38.69 9.61 35.94 7.78 33.1 5.9 29.56 4.41 25.89 4.27 25.86 4.27 25.83 4.33 25.86 4.33 29.37 4.6 32.68 6.15 35.46 7.9 36.94 8.83 38.33 9.88 39.53 11.08 40.75 12.29 41.35 13.65 41.81 15.19 40.85 13.49 39.38 12.28 37.46 11.28 35.15 10.09 32.72 9.2 30 8.95 24.28 8.44 18.68 11.15 14.36 14.4 14.34 14.42 14.34 14.46 14.37 14.44 18.81 11.31 24.16 8.91 29.84 9.32 32.46 9.51 34.7 10.46 36.96 11.49 37.99 11.96 38.94 12.52 39.81 13.18 40.72 13.87 41.3 14.7 41.83 15.6 41.83 15.6 41.83 15.6 41.83 15.61 41.56 15.42 41.29 15.26 41.06 15.12 39.96 14.46 38.84 13.89 37.62 13.4 37.57 13.38 37.5 13.49 37.55 13.51 39.12 14.2 40.8 15.08 42 16.21 43.08 17.23 41.87 18.61 41.08 19.5 40.79 19.82 40.46 20.12 40.16 20.44 40.05 20.55 39.61 20.94 39.35 21.24 39.32 21.29 39.28 21.33 39.25 21.37 39.24 21.38 39.24 21.39 39.23 21.4 39.23 21.4 39.22 21.4 39.22 21.41 39.09 21.56 38.92 21.68 38.75 21.77 38.66 21.84 38.57 21.91 38.47 21.98 38.28 22.12 38.06 22.18 37.89 22.33 37.68 22.51 37.51 21.69 37.47 21.56 37.12 20.27 37.04 18.72 37.22 17.36 37.8 17.76 38.32 18.25 38.53 18.77 38.28 19.09 38 19.43 37.95 19.82 37.94 19.91 38.01 19.96 38.09 19.9 38.25 19.76 38.33 19.55 38.46 19.38 38.69 19.07 38.89 18.72 39.09 18.39 39.25 18.13 39.35 17.83 39.48 17.55 39.53 17.44 39.66 17.24 39.59 17.13 39.56 17.09 39.51 17.17 39.51 17.19 39.48 17.38 39.3 17.59 39.21 17.75 39.15 17.85 39.09 17.95 39.03 18.05 38.99 16.52 38.05 15.16 36.53 14.37 34.39 13.26 31.67 13.17 29.28 12.66 29.25 12.65 29.22 12.71 29.25 12.72 31.36 13.24 33.54 13.57 35.55 14.32 36.53 14.69 37.39 15.24 37.97 16.03 38.5 16.74 38.67 17.5 38.72 18.29 37.97 16.84 35.11 15.7 33.91 15.22 30.91 14.02 27.65 13.75 24.35 14.26 21.31 14.73 18.13 15.74 15.62 17.42 14.49 18.18 13.53 19.15 12.82 20.23 12.7 20.42 12.59 20.61 12.49 20.81 12.4 21.23 12.35 21.65 12.35 22.07 12.43 21.6 12.59 21.15 12.81 20.72 12.81 21.11 13.17 21.64 13.3 21.96 13.78 23.15 14.07 24.47 14.2 25.76 13.97 25.39 13.68 25.04 13.32 24.79 13.2 24.7 13.07 24.61 12.95 24.54 12.83 24.48 12.72 24.42 12.6 24.36 12.59 24.36 12.58 24.35 12.57 24.35 12.57 24.35 12.57 24.35 12.57 24.34 12.48 24.29 12.39 24.24 12.31 24.19 12.25 24.16 12.19 24.12 12.13 24.08 10.82 23.47 9.34 23.31 8.76 21.89 8.11 20.31 9.4 18.24 10.41 16.95 10.44 16.91 10.4 16.87 10.36 16.91 9.54 17.88 8.84 18.92 8.52 20.05 8.35 19.25 8.16 18.5 8.54 17.67 8.55 17.64 8.57 17.62 8.58 17.6 8.6 17.63 8.66 17.57 8.65 17.54 8.64 17.53 8.64 17.51 8.63 17.5 9.12 16.55 9.99 15.8 10.89 15.14 12.52 13.96 14.26 12.87 16 11.81 19.52 9.67 23.25 7.79 27.02 6.04 27.06 6.02 27.09 5.92 27.02 5.95 22.5 7.76 18.18 10.04 14.14 12.63 12.42 13.73 10.5 14.79 9.16 16.27 8.99 16.46 8.84 16.64 8.72 16.83 9.03 15.64 9.48 14.61 10.45 13.61 11.51 12.53 12.65 11.54 13.84 10.57 14.95 9.68 16.07 8.81 17.16 7.9 17.69 7.46 18.66 6.79 18.68 6.1 18.68 6.06 18.66 6.03 18.62 6.03 18.1 5.96 17.42 6.43 16.99 6.65 16.14 7.08 15.32 7.53 14.53 8.05 14.5 8.07 14.49 8.14 14.54 8.12 15.23 7.7 15.94 7.33 16.68 6.98 17.18 6.74 17.67 6.49 18.21 6.32 18.45 6.25 17.22 7.53 17.3 7.45 15.94 8.67 14.41 9.74 12.99 10.9 10.91 12.6 8.76 14.48 8.45 17 7.87 15.27 7.75 13.59 8.4 11.76 9 10.08 10.39 8.55 11.74 7.27 13.84 5.27 16.34 3.71 18.99 2.39 18.58 2.63 18.18 2.87 17.8 3.12 14.38 5.37 11.66 8.31 9.29 11.41 9.24 11.47 9.31 11.51 9.36 11.44 11.7 8.49 14.36 5.79 17.59 3.57 20.83 1.34 24.97-0.24 29 0.61 32.59 1.37 36.04 3.64 38.26 6.14 39.4 7.42 40.26 8.89 40.99 10.37 41.35 11.11 41.67 11.84 41.83 12.64 41.95 13.31 41.94 13.98 41.9 14.64Z" fill="#FFFFFF"/><path d="M28.49 11.57C26.06 11.63 23.72 12.15 21.38 12.8 19.14 13.42 16.96 14.22 15.02 15.43 13.47 16.4 11.81 17.57 11 19.12 10.67 19.75 10.72 20.48 10.83 21.12 10.89 21.46 10.97 21.78 11.09 22.09 10.97 21.99 10.85 21.89 10.74 21.77 10.2 21.18 10.1 20.4 10.13 19.65 10.13 19.61 10.07 19.65 10.07 19.67 9.93 20.64 10.09 21.51 10.7 22.18 11.08 22.45 11.45 22.73 11.84 22.98 11.77 22.81 11.72 22.64 11.66 22.47 11.53 22.23 11.41 21.98 11.33 21.72 11.02 20.74 10.96 19.66 11.54 18.72 12.47 17.21 14.6 15.95 16.21 15.07 17.91 14.15 19.81 13.57 21.67 13.01 23.88 12.35 26.14 11.8 28.45 11.64 28.5 11.64 28.54 11.57 28.49 11.57Z" fill="#C9C9C9"/></g><g><path d="M34.8 17.21C33.87 16.4 32.61 15.92 31.26 16.27 30.44 16.48 29.81 17.01 29.21 17.56 28.98 17.72 28.76 17.91 28.55 18.1 28.38 18.25 28.22 18.41 28.04 18.54 27.83 18.69 27.57 18.59 27.35 18.57 27.34 18.57 27.33 18.57 27.33 18.58 27.31 18.56 27.29 18.55 27.27 18.53 27.29 18.55 27.2 18.49 27.21 18.51 27.19 18.47 27.15 18.55 27.15 18.57 27.15 18.6 27.22 18.67 27.23 18.71 27.25 18.76 27.29 18.8 27.34 18.84 27.22 18.79 27.08 18.73 26.99 18.64 26.98 18.63 26.97 18.63 26.95 18.64 26.95 18.63 26.94 18.63 26.94 18.62 26.91 18.56 26.85 18.64 26.85 18.68 26.86 18.84 26.92 18.97 27 19.1 26.87 18.98 26.76 18.83 26.69 18.66 26.66 18.59 26.59 18.69 26.6 18.74 26.7 19.15 27.17 19.68 27.58 19.71 27.64 19.71 27.72 19.58 27.66 19.53 27.66 19.53 27.66 19.53 27.66 19.53 27.75 19.53 27.86 19.5 27.99 19.44 28.67 19.09 29.27 18.73 29.99 18.46 30.88 18.13 31.75 17.88 32.68 17.69 33.37 17.55 33.98 17.58 34.66 17.55 34.8 17.56 34.89 17.29 34.8 17.21Z" fill="#F0AF85" opacity="0.6"/><path d="M14.79 20.41C15.42 19.35 16.47 18.5 17.86 18.42 18.71 18.37 19.47 18.67 20.22 19.01 20.49 19.09 20.75 19.21 21.02 19.32 21.22 19.41 21.43 19.52 21.64 19.58 21.89 19.66 22.1 19.48 22.3 19.39 22.31 19.39 22.32 19.39 22.33 19.39 22.34 19.37 22.36 19.35 22.37 19.33 22.36 19.35 22.42 19.27 22.42 19.3 22.43 19.25 22.49 19.32 22.5 19.34 22.51 19.37 22.47 19.46 22.47 19.5 22.46 19.55 22.44 19.61 22.41 19.66 22.51 19.58 22.63 19.48 22.68 19.36 22.69 19.34 22.7 19.35 22.71 19.35 22.71 19.34 22.71 19.34 22.71 19.33 22.72 19.26 22.8 19.33 22.81 19.36 22.85 19.51 22.84 19.66 22.8 19.8 22.88 19.64 22.94 19.47 22.96 19.28 22.97 19.2 23.07 19.28 23.07 19.33 23.1 19.75 22.83 20.4 22.44 20.56 22.38 20.58 22.26 20.48 22.31 20.42 22.31 20.42 22.31 20.42 22.31 20.42 22.22 20.45 22.11 20.46 21.97 20.43 21.22 20.3 20.53 20.15 19.76 20.12 18.81 20.08 17.9 20.11 16.96 20.23 16.26 20.31 15.69 20.53 15.04 20.72 14.9 20.74 14.73 20.51 14.79 20.41Z" fill="#F0AF85" opacity="0.6"/><path d="M34.6 16.75C33.67 15.94 32.41 15.46 31.06 15.81 30.24 16.02 29.61 16.55 29.01 17.11 28.78 17.27 28.56 17.46 28.35 17.65 28.18 17.8 28.03 17.96 27.84 18.09 27.63 18.24 27.37 18.14 27.15 18.12 27.14 18.12 27.13 18.12 27.13 18.13 27.11 18.11 27.09 18.1 27.07 18.08 27.09 18.1 27 18.04 27.01 18.06 26.99 18.02 26.95 18.1 26.95 18.12 26.95 18.16 27.01 18.22 27.03 18.26 27.05 18.31 27.09 18.35 27.14 18.39 27.02 18.34 26.88 18.28 26.79 18.19 26.78 18.18 26.77 18.18 26.75 18.19 26.75 18.18 26.74 18.18 26.74 18.17 26.71 18.11 26.65 18.19 26.65 18.23 26.66 18.39 26.72 18.52 26.8 18.65 26.67 18.52 26.56 18.38 26.49 18.21 26.46 18.14 26.39 18.24 26.4 18.29 26.5 18.7 26.97 19.23 27.38 19.26 27.44 19.26 27.52 19.13 27.46 19.08 27.46 19.08 27.46 19.08 27.46 19.08 27.55 19.08 27.66 19.05 27.79 18.99 28.47 18.64 29.07 18.28 29.79 18.01 30.68 17.68 31.55 17.43 32.48 17.24 33.17 17.1 33.78 17.13 34.46 17.1 34.6 17.1 34.69 16.83 34.6 16.75Z" fill="#3C3C3B"/><path d="M14.71 19.93C15.34 18.87 16.39 18.02 17.78 17.94 18.63 17.89 19.39 18.19 20.14 18.53 20.41 18.61 20.67 18.73 20.94 18.84 21.14 18.93 21.35 19.04 21.56 19.1 21.81 19.18 22.02 19 22.22 18.91 22.23 18.91 22.24 18.91 22.25 18.91 22.26 18.89 22.27 18.87 22.29 18.85 22.28 18.87 22.34 18.79 22.34 18.82 22.35 18.77 22.41 18.84 22.42 18.86 22.43 18.89 22.39 18.98 22.39 19.02 22.38 19.07 22.36 19.13 22.33 19.18 22.43 19.1 22.55 19 22.6 18.88 22.61 18.86 22.62 18.87 22.63 18.87 22.63 18.86 22.63 18.85 22.63 18.85 22.64 18.78 22.72 18.85 22.73 18.88 22.77 19.03 22.76 19.18 22.72 19.32 22.8 19.16 22.86 18.99 22.88 18.8 22.89 18.72 22.99 18.8 22.99 18.85 23.02 19.27 22.75 19.92 22.36 20.08 22.3 20.1 22.18 20 22.23 19.94 22.23 19.94 22.23 19.94 22.23 19.94 22.14 19.97 22.03 19.98 21.89 19.95 21.14 19.82 20.45 19.67 19.68 19.64 18.73 19.6 17.82 19.63 16.88 19.75 16.18 19.83 15.61 20.05 14.96 20.24 14.82 20.26 14.65 20.03 14.71 19.93Z" fill="#3C3C3B"/></g><path d="M41.39 10.44C40.63 8.82 39.69 7.27 38.5 5.88 36.23 3.21 32.55 1 28.83 0.21 27.74-0.02 26.64-0.05 25.54 0.07 26.81 0.21 28.02 0.59 29.19 1.14 31.95 2.44 34.47 4.28 36.2 6.82 36.26 6.9 36.19 7.02 36.08 6.98 34.87 6.49 33.76 5.81 32.51 5.4 31.23 4.98 29.91 4.69 28.59 4.4 27.87 4.24 27.14 4.11 26.42 4 29.63 5.05 32.83 6.51 35.16 8.96 35.22 9.02 35.16 9.15 35.07 9.13 34.44 8.98 33.83 8.75 33.21 8.55 32.46 8.32 31.73 8.22 30.95 8.21 29.41 8.19 27.82 8.28 26.31 8.54 24.76 8.8 23.19 9.23 21.78 9.93 21.12 10.26 20.49 10.66 19.88 11.06 20.19 10.97 20.5 10.87 20.81 10.78 20.92 10.74 21.03 10.69 21.15 10.66 22.21 10.29 23.41 9.86 24.54 9.8 24.76 9.79 24.99 9.78 25.21 9.83 26.93 9.7 28.66 9.73 30.37 9.86 32.12 9.99 33.84 10.37 35.45 11.07 36.08 11.34 36.71 11.63 37.31 11.97 37.81 12.26 38.35 12.6 38.57 13.16 38.6 13.23 38.56 13.29 38.49 13.3 37.96 13.43 37.46 13.34 36.93 13.31 36.36 13.27 30.39 11.9 29.41 11.65 28.32 11.37 27.15 11.39 26.04 11.52 24.47 11.7 22.98 12.11 21.51 12.6 22.16 12.53 22.81 12.49 23.46 12.46 24.62 12.41 25.78 12.3 26.95 12.31 27.95 12.31 29.02 12.37 29.91 12.87 29.99 12.92 29.95 13.04 29.87 13.06 27.67 13.45 25.45 13.56 23.27 14.1 21.32 14.58 19.41 15.2 17.61 16.09 16.36 16.71 15.11 17.41 14.03 18.32 13.01 19.18 12.03 20.29 12.06 21.7 12.06 21.79 11.93 21.82 11.88 21.75 11.12 20.63 11.41 18.99 12.06 17.89 12.28 17.52 12.52 17.14 12.8 16.77 11.74 17.59 10.46 18.61 10.01 19.91 9.74 20.69 9.79 21.5 10.33 22.15 10.7 22.6 11.16 22.97 11.58 23.38 11.64 23.44 11.57 23.56 11.49 23.55 10.37 23.34 9.17 22.93 8.42 22.15 8.88 23.69 10.96 23.81 12.37 24.58 12.39 24.59 12.4 24.59 12.42 24.59 12.61 24.7 12.81 24.81 12.95 24.93 13.43 25.34 13.82 25.77 14.17 26.29 14.19 26.32 14.22 26.32 14.25 26.31 14.29 26.38 14.41 26.26 14.41 26.18 14.42 25.18 14.18 24.22 13.99 23.24 13.88 22.66 13.61 22.1 13.39 21.56 13.18 21.04 13.03 20.77 13.09 20.28 13.97 18.92 15.46 17.77 16.94 16.97 19.14 15.77 21.77 15.06 24.27 14.64 27.07 14.16 29.86 14.36 32.5 15.17 33.61 15.51 34.67 15.98 35.68 16.49 36.05 16.68 36.6 16.97 37.13 17.32 36.91 18.19 36.86 19.14 36.96 20.01 37.06 20.9 37.16 21.91 37.6 22.71 37.62 22.74 37.65 22.74 37.67 22.73 38.36 22.66 39.1 21.98 39.6 21.38 40.34 20.71 41.03 19.97 41.66 19.24 42.22 18.59 42.69 17.82 42.77 17.01 42.81 16.58 42.53 16.21 42.17 15.89 42.13 15.81 42.1 15.73 42.06 15.66 42.08 15.63 42.1 15.6 42.1 15.57 42.1 15.56 42.1 15.55 42.1 15.54 42.11 15.52 42.11 15.5 42.11 15.49 42.11 15.48 42.11 15.47 42.1 15.46 42.15 14.57 42.24 13.68 42.16 12.8 42.08 11.95 41.74 11.19 41.39 10.44Z" fill="#BDBDBD" opacity="0.5"/></g></g><g><path d="M1.16 63.87C1.54 63.21 2.02 62.6 2.62 62.08 2.98 61.77 3.4 61.5 3.83 61.27 3.81 61.3 3.78 61.33 3.76 61.36 3.94 61.26 4.12 61.16 4.3 61.07 4.34 61.04 4.38 61 4.43 60.97 4.56 60.91 4.7 60.85 4.83 60.8 4.99 60.74 5.15 60.69 5.32 60.65 8 59.72 11.12 59.95 13.95 59.87 13.98 59.79 14.01 59.71 14.04 59.64 13.91 59.22 13.83 58.77 13.78 58.31 13.81 58.28 13.82 58.24 13.82 58.21 13.8 58.13 13.78 58.06 13.75 57.98 13.69 57.12 13.71 56.23 13.7 55.42 13.67 53.75 13.68 52.08 13.71 50.41 13.73 48.91 13.82 47.4 13.93 45.9 13.95 45.56 14.24 41.68 14.2 41.68 14.21 41.68 14.22 41.67 14.23 41.67 14.22 41.64 14.21 41.61 14.2 41.58 14.18 41.58 14.17 41.58 14.15 41.57 14.15 41.58 14.14 41.58 14.14 41.58 13.12 41.97 12.16 42.46 11.24 43.06 10.05 43.84 9.23 44.89 8.44 46.06 6.62 48.76 5.38 51.7 4.05 54.65 3.33 56.24 2.64 57.85 1.88 59.43 1.23 60.79 0.54 62.16 0.2 63.64 0.01 64.48-0.04 65.44 0.06 66.35 0.25 65.49 0.63 64.67 1.15 63.94 1.14 63.92 1.15 63.9 1.16 63.87Z" fill="#C9C9C9"/><path d="M0.59 62.99C0.97 61.57 1.73 60.22 2.36 58.89 2.98 57.59 3.55 56.26 4.14 54.94 5.32 52.3 6.42 49.63 7.95 47.18 8.77 45.87 9.59 44.58 10.8 43.6 11.79 42.79 12.94 42.2 14.12 41.69 13.78 44.84 13.52 47.98 13.47 51.15 13.45 52.39 13.45 53.64 13.45 54.88 13.25 53.54 12.96 52.21 12.69 50.88 12.49 49.91 12.34 48.93 12.07 47.97 11.92 47.44 11.77 46.87 11.37 46.48 11.34 46.45 11.29 46.47 11.26 46.49 10.98 46.7 11.02 47.02 11 47.36 10.93 48.26 10.89 49.17 10.85 50.07 10.85 50.14 10.93 50.08 10.94 50.04 11.04 49.02 11.12 48 11.24 46.98 11.29 46.54 11.64 47.52 11.7 47.68 11.93 48.33 12.04 49.03 12.18 49.7 12.63 51.92 13.06 54.14 13.47 56.36 13.47 56.65 13.47 56.95 13.48 57.25 13.25 56.75 12.96 56.27 12.76 55.79 12.23 54.56 11.72 53.33 11.21 52.09 11.19 52.05 11.13 52.12 11.14 52.15 11.58 53.33 11.93 54.54 12.47 55.68 12.83 56.43 13.21 57.22 13.52 58 13.56 58.58 13.63 59.16 13.79 59.7 12.79 59.69 11.79 59.72 10.78 59.76 10.42 59.78 10.06 59.79 9.7 59.81 9.71 59.78 9.7 59.76 9.68 59.74 8.93 59.4 8.15 59.15 7.36 58.93 6.52 58.7 5.77 59.01 4.96 58.87 4.94 58.87 4.9 58.91 4.93 58.92 5.11 59 5.26 59.01 5.45 59.01 6.06 59.03 6.62 59.04 7.21 59.2 7.8 59.36 8.44 59.7 9.07 59.84 8.54 59.87 8.01 59.92 7.48 59.98 6.99 60.04 6.51 60.13 6.02 60.22 5.21 60.17 4.53 60.22 3.73 60.59 3.6 60.65 1.42 62.04 1.66 62.23 1.63 62.21 1.58 62.27 1.6 62.3 1.61 62.31 1.62 62.32 1.63 62.33 1.65 62.36 1.69 62.33 1.7 62.31 2.33 61.3 3.43 60.82 4.57 60.57 4.45 60.65 4.34 60.74 4.24 60.84 3.47 61.2 2.76 61.7 2.12 62.32 1.35 63.06 0.57 64.27 0.32 65.43 0.26 64.6 0.38 63.76 0.59 62.99Z" fill="#FFFFFF"/><path d="M12.45 55.68C11.91 54.54 11.55 53.33 11.12 52.15 11.11 52.12 11.17 52.05 11.19 52.09 11.7 53.33 12.21 54.56 12.74 55.79 12.95 56.26 13.23 56.75 13.46 57.25 13.45 56.95 13.45 56.66 13.45 56.36 13.04 54.14 12.61 51.92 12.16 49.7 12.02 49.03 11.91 48.33 11.68 47.68 11.62 47.52 11.27 46.54 11.22 46.98 11.1 48 11.02 49.02 10.92 50.04 10.92 50.08 10.83 50.14 10.83 50.07 10.87 49.17 10.91 48.26 10.98 47.36 11.01 47.02 10.96 46.7 11.24 46.49 11.27 46.47 11.32 46.46 11.35 46.48 11.75 46.87 11.91 47.45 12.05 47.97 12.32 48.92 12.47 49.91 12.67 50.88 12.94 52.22 13.24 53.54 13.43 54.88 13.42 53.64 13.43 52.39 13.45 51.15 13.5 47.98 13.76 44.84 14.1 41.69 12.92 42.2 11.78 42.79 10.78 43.6 9.77 44.43 9.02 45.47 8.32 46.56 8.82 46 9.38 45.5 10.09 45.3 10.16 45.28 10.26 45.32 10.28 45.41 10.36 45.92 10.18 46.42 10.02 46.9 9.79 47.56 9.65 48.23 9.51 48.92 9.15 50.67 8.78 52.39 8.29 54.11 8.03 55.01 7.76 55.92 7.4 56.79 7.24 57.19 7.09 57.6 6.73 57.87 5.91 58.47 4.87 58.54 3.92 58.85 4.32 58.98 4.71 59.13 5.1 59.3 5.22 59.35 5.18 59.55 5.06 59.58 3.8 59.86 2.86 60.78 2.02 61.73 2.61 61.26 3.58 60.64 3.67 60.6 4.47 60.23 5.15 60.18 5.96 60.23 6.44 60.14 6.93 60.05 7.42 59.99 7.95 59.93 8.48 59.88 9.01 59.85 8.4 59.7 7.76 59.36 7.17 59.2 6.58 59.04 6.02 59.03 5.41 59.01 5.22 59.01 5.07 59 4.89 58.92 4.86 58.91 4.9 58.86 4.92 58.87 5.73 59.02 6.49 58.7 7.32 58.93 8.12 59.15 8.89 59.4 9.64 59.74 9.67 59.75 9.67 59.78 9.66 59.81 10.02 59.79 10.38 59.78 10.74 59.76 11.75 59.72 12.75 59.7 13.75 59.7 13.6 59.16 13.52 58.59 13.48 58 13.19 57.22 12.8 56.43 12.45 55.68Z" fill="#EAEBEA"/></g><g><path d="M1.65 62.31C1.64 62.33 1.6 62.36 1.58 62.33 1.57 62.32 1.56 62.31 1.55 62.3 1.55 62.3 1.55 62.29 1.55 62.29 0.9 63.08 0.24 64.06 0.36 65.07 0.67 64.02 1.37 62.98 2.06 62.32 2.71 61.7 3.42 61.21 4.18 60.84 4.28 60.74 4.39 60.64 4.51 60.57 3.37 60.82 2.27 61.3 1.65 62.31Z" fill="#EAEBEA"/><path d="M17.33 60.07C17.3 59.96 17.26 59.85 17.23 59.74 16.99 59.31 16.44 59.46 15.88 59.77 15.32 59.74 14.75 59.72 14.19 59.71 14.05 59.72 13.9 59.71 13.76 59.7 13.76 59.7 13.76 59.7 13.76 59.71 12.76 59.7 11.76 59.73 10.75 59.77 10.39 59.79 10.03 59.8 9.67 59.82 9.67 59.82 9.67 59.82 9.67 59.82 8.83 59.89 8 59.95 7.17 60.1 6.14 60.29 5.13 60.6 4.12 60.89 3.38 61.25 2.69 61.73 2.06 62.33 1.29 63.07 0.51 64.28 0.26 65.44 0.26 65.3 0.27 65.16 0.28 65.03 0.17 65.37 0.07 65.71 0.03 66.06 0.07 66.61 0.15 67.15 0.3 67.65 0.6 68.65 1.17 69.38 1.9 69.99 3.25 71.43 5.4 72 7.3 72.4 9.26 72.82 11.34 73.27 13.39 73.43 13.65 73.75 13.96 74.02 14.37 74.09 14.56 74.13 14.75 73.99 14.89 73.81 14.94 73.72 14.98 73.63 15.04 73.54 15.15 73.35 15.24 73.15 15.32 72.95 15.99 71.09 16.44 69.15 16.82 67.21 17.26 64.96 17.31 62.66 17.35 60.38 17.36 60.26 17.35 60.16 17.33 60.07Z" fill="#C9C9C9"/><path d="M17.13 60.78C17.12 61.25 17.07 61.72 17.06 62.19 17.04 63.81 16.89 65.39 16.64 66.99 16.41 68.48 16 69.96 15.61 71.41 15.45 72.03 15.25 72.69 14.95 73.27 14.94 73.27 14.94 73.27 14.93 73.27 14.9 73.34 14.86 73.41 14.81 73.47 14.82 73.47 14.83 73.47 14.84 73.47 14.75 73.6 14.66 73.67 14.55 73.69 14.42 73.75 14.26 73.77 14.08 73.7 13.76 73.57 13.59 73.28 13.29 73.12 13.21 73.08 13.13 73.04 13.05 72.99 13.07 73.02 13.09 73.04 13.11 73.06 11.42 72.87 9.75 72.62 8.07 72.27 6.4 71.93 4.56 71.51 3.06 70.61 3.06 70.6 3.06 70.59 3.05 70.58 2.03 69.74 1.08 68.98 0.62 67.7 0.44 67.2 0.34 66.66 0.29 66.11 0.34 65.89 0.4 65.67 0.47 65.46 0.57 64.79 0.9 64.12 1.32 63.59 1.67 63.03 2.09 62.52 2.61 62.07 2.97 61.76 3.39 61.49 3.82 61.26 3.71 61.41 3.6 61.55 3.49 61.69 2.92 62.41 2.44 63.18 1.99 63.98 1.72 64.46 1.5 64.97 1.26 65.46 0.99 66.01 0.88 65.76 0.9 65.27 0.9 65.22 0.91 65.17 0.91 65.12 0.81 65.46 0.78 65.8 0.83 66.13 1.31 66.05 2.63 63.25 2.8 62.97 3.1 62.48 3.45 62.02 3.8 61.56 4 61.3 4.2 61.1 4.43 60.95 4.56 60.89 4.7 60.83 4.83 60.78 5.5 60.52 6.24 60.49 6.93 60.3 6.94 60.3 6.94 60.29 6.95 60.28 7.75 60.17 8.55 60.08 9.36 60.04 10.83 59.97 12.3 59.94 13.76 59.93 13.78 59.93 13.79 59.92 13.81 59.92 13.87 59.92 13.94 59.92 14 59.93 14.52 59.93 15.05 59.93 15.57 59.93 15.22 60.15 14.89 60.4 14.67 60.56 14.64 60.58 14.64 60.64 14.69 60.62 14.9 60.49 15.4 60.14 15.89 59.93L15.92 59.93C16.08 59.81 16.24 59.69 16.44 59.64 16.66 59.59 16.94 59.71 17.04 59.92 17.18 60.2 17.17 60.49 17.13 60.78Z" fill="#FFFFFF"/><path d="M17.05 59.93C16.95 59.72 16.68 59.6 16.45 59.65 16.25 59.69 16.09 59.82 15.93 59.94L15.9 59.94C15.41 60.15 14.91 60.5 14.7 60.63 14.66 60.66 14.66 60.6 14.68 60.57 14.9 60.4 15.23 60.16 15.58 59.94 15.05 59.94 14.53 59.94 14.01 59.94 13.95 59.93 13.88 59.93 13.82 59.93 13.8 59.93 13.78 59.94 13.77 59.94 12.3 59.95 10.84 59.98 9.37 60.05 8.56 60.09 7.76 60.18 6.96 60.29 6.95 60.3 6.94 60.31 6.94 60.31 6.25 60.5 5.51 60.53 4.84 60.79 4.7 60.84 4.57 60.9 4.44 60.96 4.22 61.11 4.01 61.31 3.81 61.57 3.46 62.03 3.12 62.49 2.81 62.98 2.64 63.25 1.32 66.06 0.84 66.14 0.78 65.81 0.82 65.46 0.92 65.13 0.92 65.18 0.91 65.23 0.91 65.28 0.89 65.77 1 66.01 1.27 65.47 1.52 64.98 1.74 64.47 2 63.99 2.45 63.19 2.93 62.42 3.5 61.7 3.61 61.56 3.72 61.42 3.83 61.27 3.4 61.5 2.99 61.77 2.62 62.08 2.1 62.53 1.68 63.04 1.33 63.6 0.91 64.13 0.57 64.8 0.48 65.47 0.41 65.68 0.35 65.9 0.3 66.12 0.35 66.67 0.45 67.21 0.63 67.71 1.09 69 2.04 69.75 3.06 70.6 3.07 70.61 3.07 70.62 3.07 70.63 4.57 71.53 6.41 71.95 8.08 72.29 9.76 72.64 11.44 72.88 13.12 73.08 13.1 73.05 13.08 73.03 13.06 73.01 13.14 73.05 13.22 73.09 13.3 73.14 13.6 73.29 13.76 73.59 14.09 73.72 14.27 73.79 14.43 73.78 14.56 73.71 14.66 73.68 14.76 73.62 14.85 73.49 14.84 73.49 14.83 73.49 14.82 73.49 14.87 73.43 14.9 73.36 14.94 73.29 14.94 73.29 14.95 73.29 14.96 73.29 15.25 72.71 15.45 72.05 15.62 71.43 16.01 69.97 16.42 68.5 16.65 67.01 16.9 65.41 17.05 63.83 17.07 62.21 17.08 61.75 17.13 61.27 17.14 60.8 17.17 60.49 17.18 60.2 17.05 59.93ZM14.41 61.25C14.04 62.09 13.47 62.76 13.19 63.65 12.94 64.43 12.77 65.23 12.66 66.04 12.53 66.95 12.42 67.88 12.46 68.8 12.49 69.47 12.56 70.13 12.45 70.8 12.44 70.87 12.37 70.91 12.3 70.91 9.53 71.01 6.41 70.34 4.04 68.85 3.27 68.36 2.35 67.58 2.53 66.55 2.71 65.51 3.42 64.77 3.96 63.91 2.96 64.71 2.29 65.85 1.55 66.89 1.47 67.01 1.27 66.97 1.27 66.81 1.3 65.3 2.24 64.08 3.07 62.85 3.21 62.58 3.36 62.34 3.53 62.13 3.57 62.07 3.6 62.01 3.63 61.95 3.66 61.9 3.71 61.88 3.75 61.88 4.17 61.48 4.7 61.24 5.39 61.22 7.12 61.17 8.81 61.3 10.54 61.06 11.34 60.95 12.41 60.99 11.98 62.08 11.84 62.44 11.65 62.76 11.44 63.08 12.21 62.17 13.08 61.36 14.21 61.01 14.38 60.98 14.46 61.14 14.41 61.25Z" fill="#EAEBEA"/><path d="M17.05 59.93C16.95 59.72 16.68 59.6 16.45 59.65 16.44 59.65 16.42 59.66 16.41 59.66 15.04 61.08 14.31 62.96 13.95 64.9 13.71 66.19 13.57 67.5 13.56 68.82 13.55 69.87 13.73 70.98 13.51 72.01 13.48 72.13 13.34 72.14 13.26 72.08 12.51 71.47 11.56 71.71 10.68 71.72 10.03 71.73 9.37 71.71 8.72 71.64 7.48 71.51 6.24 71.27 5.06 70.86 3.58 70.35 2.16 69.6 1.03 68.55 1.54 69.36 2.27 69.95 3.05 70.59 3.06 70.6 3.06 70.61 3.06 70.62 4.56 71.52 6.4 71.94 8.07 72.28 9.75 72.63 11.43 72.87 13.11 73.07 13.09 73.04 13.07 73.02 13.05 73 13.13 73.04 13.21 73.08 13.29 73.13 13.59 73.28 13.75 73.58 14.08 73.71 14.26 73.78 14.42 73.77 14.55 73.7 14.65 73.67 14.75 73.61 14.84 73.48 14.83 73.48 14.82 73.48 14.81 73.48 14.86 73.42 14.89 73.35 14.93 73.28 14.93 73.28 14.94 73.28 14.95 73.28 15.24 72.7 15.44 72.04 15.61 71.42 16 69.96 16.41 68.49 16.64 67 16.89 65.4 17.04 63.82 17.06 62.2 17.07 61.74 17.12 61.26 17.13 60.79 17.17 60.49 17.18 60.2 17.05 59.93Z" fill="#EAEBEA"/><g><path d="M24.4 61.36C23.99 60.8 23.23 60.53 22.63 60.24 22.39 60.13 22.14 60.07 21.87 60.05 22.23 59.94 22.59 59.84 22.93 59.68 23.12 59.59 23.38 59.39 23.46 59.17 23.84 58.09 22.6 58.65 22.11 58.75 21.45 58.87 20.74 58.88 20.06 58.87 19.6 58.86 19.08 59.26 18.66 59.41 17.83 59.71 17.15 60.18 16.62 60.85 16.47 60.88 16.31 60.91 16.16 60.92 16.11 60.92 16.06 60.93 16.01 60.94 16.01 60.94 16.01 60.94 16.01 60.94 15.95 61 15.89 61.06 15.83 61.13 15.29 62.08 14.89 63.12 14.69 64.2 14.7 64.43 14.71 64.65 14.74 64.87 14.76 64.77 14.77 64.67 14.79 64.57 15.24 64.6 15.74 64.5 16.15 64.5 16.44 64.49 16.62 64.75 16.83 64.93 17.07 65.13 17.36 65.27 17.65 65.4 18.24 65.67 18.91 65.75 19.56 65.78 20.04 65.8 20.52 65.7 21.01 65.74 21.39 65.78 21.72 65.93 22.05 66.1 22.74 66.7 22.27 68.01 23.05 68.65 23.36 68.91 23.58 68.73 23.71 68.4 23.9 67.91 23.92 67.45 23.87 66.98 23.89 66.97 23.91 66.95 23.92 66.92 24 66.61 24.32 66.46 24.38 66.15 24.44 65.88 24.56 65.49 24.44 65.21 24.46 65.2 24.48 65.18 24.48 65.16 24.53 65.04 24.57 64.92 24.59 64.81 24.97 64.53 25.49 64.01 25.48 63.5 25.43 62.7 24.93 61.95 24.4 61.36Z" fill="#E19770"/><path d="M24.61 64.6C24.68 64.01 24.42 63.52 24.04 63.07 24.06 63.05 24.08 63.03 24.08 63.01 24.09 62.9 24.09 62.79 24.07 62.68 24.07 62.68 24.07 62.68 24.07 62.68 24.04 62.64 24.01 62.61 23.98 62.58 23.98 62.58 23.98 62.58 23.98 62.58 23.96 62.71 23.95 62.85 23.95 62.99 23.55 62.54 23.05 62.11 22.65 61.66 22.59 61.65 22.54 61.63 22.48 61.62 23.29 62.73 24.91 63.6 24.35 65.1 24.12 64.67 23.83 64.33 23.49 63.98 23.1 63.58 22.56 63.25 22.27 62.77 22.24 62.76 22.22 62.75 22.19 62.73 22.19 62.73 22.19 62.74 22.19 62.74 22.5 63.42 23.24 63.91 23.73 64.46 24.16 64.94 24.36 65.37 24.25 66.01 24.19 66.36 23.94 66.52 23.81 66.79 23.77 66.53 23.72 66.27 23.67 65.99 23.49 65.1 22.59 64.77 21.98 64.18 21.92 64.16 21.86 64.14 21.81 64.11 22.07 64.48 22.38 64.76 22.77 65.02 23.56 65.56 23.65 66.44 23.74 67.33 23.77 67.67 23.62 67.95 23.56 68.27 23.55 68.27 23.54 68.28 23.54 68.28 23.52 68.36 23.48 68.44 23.41 68.49 23.22 68.63 23.03 68.42 22.95 68.26 22.92 68.2 22.9 68.13 22.88 68.07 22.76 67.83 22.67 67.54 22.61 67.3 22.5 66.91 22.57 66.54 22.43 66.25 22.31 66.13 22.17 66.03 22.03 65.93 21.65 65.74 21.26 65.57 20.82 65.58 19.9 65.6 19.06 65.66 18.16 65.43 17.78 65.33 17.42 65.15 17.09 64.94 16.89 64.81 16.62 64.43 16.41 64.38 15.9 64.25 15.33 64.47 14.79 64.48 15.03 63.3 15.41 62.19 15.92 61.08 15.95 61.08 15.97 61.07 16 61.07 16.16 61.06 16.32 61.05 16.47 61.03 16.45 61.06 16.44 61.09 16.42 61.11 16.59 60.96 16.77 60.8 16.96 60.67 17.43 60.22 17.94 59.87 18.62 59.61 18.95 59.49 19.28 59.38 19.6 59.22 19.96 59.03 20.35 59.07 20.75 59.07 21.26 59.06 21.79 59.03 22.3 58.91 22.7 58.67 23.3 58.4 23.32 58.94 23.33 59.29 22.99 59.51 22.69 59.64 22.68 59.65 22.66 59.65 22.64 59.66 22.59 59.68 22.55 59.69 22.51 59.71 22.44 59.73 22.36 59.75 22.29 59.77 22.2 59.79 22.11 59.82 22.02 59.84 21.99 59.85 21.96 59.85 21.93 59.86 21.9 59.87 21.86 59.88 21.83 59.89 21.67 59.93 21.53 59.99 21.38 60.06 20.9 60.07 20.42 60.14 19.98 60.17 20.3 60.21 20.61 60.23 20.93 60.24 20.97 60.24 21.01 60.24 21.05 60.24 21.05 60.24 21.04 60.24 21.04 60.24 21.07 60.24 21.11 60.24 21.14 60.24 21.22 60.24 21.31 60.24 21.39 60.24 21.4 60.24 21.41 60.23 21.41 60.23 21.73 60.24 22.06 60.26 22.37 60.35 23.02 60.53 23.9 61 24.35 61.53 24.36 61.54 24.37 61.54 24.37 61.53 24.57 61.82 24.75 62.11 24.92 62.43 25.07 62.72 25.22 63.04 25.3 63.36 25.4 63.8 24.94 64.3 24.61 64.6Z" fill="#F1BA95"/><path d="M24.4 61.36C23.99 60.8 23.23 60.53 22.63 60.24 22.39 60.13 22.14 60.07 21.87 60.05 22.23 59.94 22.59 59.84 22.93 59.68 23.12 59.59 23.38 59.39 23.46 59.17 23.63 58.68 23.47 58.53 23.19 58.52 22.92 58.97 22.55 59.4 22.02 59.54 21.37 59.71 20.45 59.97 19.84 60.25 20.86 60.21 22.02 60.13 23 60.56 23.72 60.88 24.39 61.36 24.26 62.23 24.25 62.31 24.14 62.36 24.07 62.33 23.55 62.12 23.03 61.9 22.51 61.67 23 62.25 23.63 62.7 23.64 63.56 23.64 63.66 23.54 63.73 23.45 63.71 23.14 63.62 22.87 63.46 22.62 63.27 23 63.69 23.46 64.07 23.56 64.67 23.58 64.77 23.49 64.9 23.37 64.86 23.1 64.75 22.85 64.56 22.57 64.48 22.5 64.46 21.9 64.11 21.83 64.1 22.33 64.42 23.29 65.2 23.33 65.76 23.34 65.88 23.2 65.94 23.1 65.89 22.48 65.57 21.93 64.98 21.24 64.79 20.54 64.6 19.83 64.57 19.12 64.47 18.29 64.35 17.03 64.11 16.79 63.13 16.56 62.16 16.96 61.09 17.59 60.34 17.91 59.95 18.26 59.66 18.64 59.42 17.82 59.72 17.14 60.18 16.62 60.85 16.47 60.88 16.31 60.91 16.16 60.92 16.11 60.92 16.06 60.93 16.01 60.94 16.01 60.94 16.01 60.94 16.01 60.94 15.95 61 15.89 61.06 15.83 61.13 15.29 62.08 14.89 63.12 14.69 64.2 14.7 64.43 14.71 64.65 14.74 64.87 14.76 64.77 14.77 64.67 14.79 64.57 15.24 64.6 15.74 64.5 16.15 64.5 16.44 64.49 16.62 64.75 16.83 64.93 17.07 65.13 17.36 65.27 17.65 65.4 18.24 65.67 18.91 65.75 19.56 65.78 20.04 65.8 20.52 65.7 21.01 65.74 21.39 65.78 21.72 65.93 22.05 66.1 22.74 66.7 22.27 68.01 23.05 68.65 23.36 68.91 23.58 68.73 23.71 68.4 23.9 67.91 23.92 67.45 23.87 66.98 23.89 66.97 23.91 66.95 23.92 66.92 24 66.61 24.32 66.46 24.38 66.15 24.44 65.88 24.56 65.49 24.44 65.21 24.46 65.2 24.48 65.18 24.48 65.16 24.53 65.04 24.57 64.92 24.59 64.81 24.97 64.53 25.49 64.01 25.48 63.5 25.43 62.7 24.93 61.95 24.4 61.36Z" fill="#E19770" opacity="0.5"/></g><path d="M16.3 60.15C15.24 61.74 14.83 63.12 14.44 64.97 13.96 67.23 14 69.87 14.2 72.16 14.2 72.2 14.26 72.15 14.25 72.13 14.1 68.16 14.45 63.73 16.34 60.17 16.38 60.12 16.32 60.12 16.3 60.15Z" fill="#C9C9C9"/></g></g></svg>