<svg width="15.48" height="18.59" viewBox="0 0 15.48 18.59" xmlns="http://www.w3.org/2000/svg" xmlns:xlink="http://www.w3.org/1999/xlink" xml:space="preserve" overflow="hidden"><defs></defs><g><path d="M12.49 5.62C13.31 5.57 14.74 5.93 15.25 5.05 15.77 4.15 13.29 4.37 13.46 4.16 14 3.48 15.3 2.83 14.98 1.77 14.85 1.32 13.55 2.27 13.41 2.43 13.39 2.45 12.65 3.41 12.58 3.31 12.34 2.92 12.98 1.43 12.96 0.95 12.94 0.2 12.53-0.44 12.03 0.44 11.65 1.09 11.88 2.11 11.59 2.62 11.43 2.89 11.31 0.16 10.36 0.69 9.54 1.14 10.25 2.78 10.25 2.76 9.38 0.16 7.02 5.49 12.49 5.62L12.49 5.62Z" id="path299611_1_" fill="#4B8056"/><path d="M11.46 5.03C15.05 5.59 16.34 8.9 14.91 11.99 14.29 13.32 13.32 14.46 12.19 15.39 10.77 16.57 9.27 17.57 7.42 17.93 6.05 18.2 2.85 19.05 1.53 18.24 1.12 17.98 1.03 17.26 0.83 16.86-1.43 12.28 0.97-0.35 7.17 0.9 8.99 1.26 10.34 3.7 11.46 5.03L11.46 5.03Z" id="path299576_1_" fill="#C23A2C"/></g></svg>